<?xml version="1.0" encoding="utf-8"?>
<!-- Generator: Adobe Illustrator 26.0.0, SVG Export Plug-In . SVG Version: 6.00 Build 0)  -->
<svg version="1.1" id="Layer_1" xmlns="http://www.w3.org/2000/svg" xmlns:xlink="http://www.w3.org/1999/xlink" x="0px" y="0px"
	 viewBox="0 0 236.8 180.2" style="enable-background:new 0 0 236.8 180.2;" xml:space="preserve">
<style type="text/css">
	.st0{fill:#FFFFFF;}
	.st1{fill:url(#SVGID_1_);}
	.st2{fill:url(#SVGID_00000058557371435901973570000003696850658929718164_);}
	.st3{fill:url(#SVGID_00000074439099380020950990000006476702209265691558_);}
	.st4{fill:#0B1D51;}
	.st5{fill:#EDF3FC;}
	.st6{fill:#FFBE1B;}
	.st7{fill:#5D8EF9;}
	.st8{fill:#330D84;}
	.st9{fill:#A80132;}
	.st10{fill:#DE8800;}
	.st11{fill:#FFC608;}
	.st12{fill:#7D0126;}
	.st13{fill:#F09413;}
	.st14{fill:#FF9C00;}
	.st15{fill:#C97C10;}
	.st16{fill:#FFDF75;}
	.st17{fill:#FFAA00;}
	.st18{fill:#FFC052;}
	.st19{fill:#FFCB52;}
</style>
<g>
	<g>
		<g>
			<path class="st0" d="M216.5,176.5H19c-2.8,0-5.3-1-7.3-2.6c-2.7-2.2-4.4-5.5-4.4-9.2V67.7c0-2.9,1-5.5,2.8-7.6
				c2.2-2.5,5.4-4.1,9-4.1h197.5c3.2,0,6.2,1.3,8.3,3.4c2.1,2.1,3.4,5.1,3.4,8.3v97.1c0,3.1-1.2,6-3.2,8.1
				C222.8,175.1,219.8,176.5,216.5,176.5z"/>
			<linearGradient id="SVGID_1_" gradientUnits="userSpaceOnUse" x1="7.2991" y1="73.0369" x2="7.2991" y2="159.4672">
				<stop  offset="0" style="stop-color:#EF1C71"/>
				<stop  offset="0.9906" style="stop-color:#AE0080"/>
			</linearGradient>
			<path class="st1" d="M12.3,159.5h-10c-0.5,0-1-0.2-1.3-0.5c-0.3-0.3-0.5-0.8-0.5-1.3V74.9c0-0.4,0.1-0.7,0.3-1
				C1.1,73.4,1.7,73,2.3,73h10c0.5,0,1,0.2,1.3,0.5c0.3,0.3,0.5,0.8,0.5,1.3v82.8c0,0.5-0.2,1-0.5,1.3
				C13.3,159.3,12.8,159.5,12.3,159.5z"/>
			
				<linearGradient id="SVGID_00000176036571738418110620000005476912611500347324_" gradientUnits="userSpaceOnUse" x1="228.2208" y1="73.0369" x2="228.2208" y2="159.4672">
				<stop  offset="0" style="stop-color:#EF1C71"/>
				<stop  offset="0.9906" style="stop-color:#AE0080"/>
			</linearGradient>
			<path style="fill:url(#SVGID_00000176036571738418110620000005476912611500347324_);" d="M233.2,159.5h-10c-0.4,0-0.7-0.1-1-0.3
				c-0.5-0.3-0.8-0.9-0.8-1.5V74.9c0-0.4,0.1-0.8,0.4-1.1c0.3-0.4,0.9-0.7,1.4-0.7h10c0.7,0,1.3,0.4,1.6,1c0.1,0.3,0.2,0.5,0.2,0.9
				v82.8c0,0.6-0.3,1.1-0.8,1.5C234,159.3,233.6,159.5,233.2,159.5z"/>
			<circle class="st0" cx="117.7" cy="46.2" r="45.7"/>
			
				<linearGradient id="SVGID_00000090990982777345207160000002864144651690286007_" gradientUnits="userSpaceOnUse" x1="117.7322" y1="8.3703" x2="117.7322" y2="84.025">
				<stop  offset="0" style="stop-color:#EF1C71"/>
				<stop  offset="0.9906" style="stop-color:#AE0080"/>
			</linearGradient>
			<circle style="fill:url(#SVGID_00000090990982777345207160000002864144651690286007_);" cx="117.7" cy="46.2" r="37.8"/>
		</g>
		<g>
			<path class="st4" d="M77.9,107.1V94.5h6.4c1.7,0,2.9,0.3,3.7,0.9c0.8,0.6,1.2,1.4,1.2,2.4c0,0.6-0.2,1.2-0.5,1.7
				c-0.3,0.5-0.8,0.9-1.4,1.2s-1.4,0.4-2.2,0.4l0.4-0.9c0.9,0,1.7,0.1,2.3,0.4c0.7,0.3,1.2,0.7,1.5,1.2c0.4,0.5,0.5,1.1,0.5,1.9
				c0,1.1-0.4,1.9-1.3,2.5c-0.9,0.6-2.2,0.9-3.9,0.9H77.9z M81.4,104.5h3c0.6,0,1.1-0.1,1.4-0.3c0.3-0.2,0.5-0.5,0.5-1
				c0-0.4-0.2-0.8-0.5-1c-0.3-0.2-0.8-0.3-1.4-0.3h-3.2v-2.5h2.7c0.6,0,1.1-0.1,1.4-0.3s0.5-0.5,0.5-0.9s-0.2-0.7-0.5-0.9
				c-0.3-0.2-0.8-0.3-1.4-0.3h-2.4V104.5z"/>
			<path class="st4" d="M95.2,104.4h6.6v2.8H91.7V94.5h9.9v2.8h-6.4V104.4z M95,99.4h5.8v2.7H95V99.4z"/>
			<path class="st4" d="M106.5,107.1v-9.8h-3.9v-2.8h11.3v2.8h-3.9v9.8H106.5z"/>
			<path class="st4" d="M118.1,107.1v-9.8h-3.9v-2.8h11.3v2.8h-3.9v9.8H118.1z"/>
			<path class="st4" d="M126.8,107.1V94.5h3.6v12.6H126.8z"/>
			<path class="st4" d="M132.9,107.1V94.5h2.9l6.9,8.4h-1.4v-8.4h3.5v12.6H142l-6.9-8.4h1.4v8.4H132.9z"/>
			<path class="st4" d="M153.8,107.4c-1,0-1.9-0.2-2.8-0.5c-0.9-0.3-1.6-0.8-2.2-1.4s-1.1-1.3-1.4-2.1c-0.3-0.8-0.5-1.7-0.5-2.6
				s0.2-1.8,0.5-2.6c0.3-0.8,0.8-1.5,1.5-2.1c0.6-0.6,1.4-1,2.2-1.4c0.9-0.3,1.8-0.5,2.8-0.5c1.2,0,2.2,0.2,3.2,0.6
				c0.9,0.4,1.7,1,2.3,1.7l-2.3,2.1c-0.4-0.5-0.9-0.8-1.4-1.1c-0.5-0.2-1.1-0.4-1.7-0.4c-0.5,0-1,0.1-1.5,0.3
				c-0.4,0.2-0.8,0.4-1.1,0.7c-0.3,0.3-0.6,0.7-0.7,1.1c-0.2,0.4-0.3,0.9-0.3,1.5c0,0.5,0.1,1,0.3,1.5c0.2,0.4,0.4,0.8,0.7,1.1
				c0.3,0.3,0.7,0.6,1.1,0.7s0.9,0.3,1.4,0.3c0.5,0,1-0.1,1.5-0.3s1-0.5,1.5-0.9l2,2.5c-0.7,0.5-1.6,0.9-2.5,1.2
				C155.6,107.2,154.7,107.4,153.8,107.4z M155.9,105.3v-4.8h3.2v5.2L155.9,105.3z"/>
		</g>
	</g>
</g>
<g>
	<path d="M23.8,121.7h-3.2l-0.5,1.5h-2.7l3.6-9.1h2.5l3.7,9.1h-2.8L23.8,121.7z M22.2,116.9l-1,2.8h2L22.2,116.9z"/>
	<path d="M38.2,119.7c0,2.2-1.5,3.7-3.7,3.7c-0.8,0-1.5-0.3-2.1-0.8l-0.2,0.5h-1.8v-9.6h2.4v2.8c0.5-0.3,1.1-0.5,1.7-0.5
		C36.6,116,38.2,117.5,38.2,119.7z M35.7,119.7c0-0.9-0.7-1.6-1.6-1.6c-0.9,0-1.6,0.7-1.6,1.6c0,0.9,0.7,1.6,1.6,1.6
		C35,121.3,35.7,120.6,35.7,119.7z"/>
	<path d="M46.5,120.3h-5.2c0.2,0.8,0.7,1.2,1.4,1.2c0.6,0,1-0.2,1.3-0.7h2.4c-0.5,1.6-1.9,2.6-3.7,2.6c-2.2,0-3.8-1.6-3.8-3.7
		c0-2.2,1.6-3.7,3.8-3.7c2.3,0,3.8,1.6,3.8,3.7C46.5,119.8,46.5,120.1,46.5,120.3z M41.3,118.9h2.8c-0.2-0.7-0.7-1.1-1.4-1.1
		C42,117.9,41.5,118.2,41.3,118.9z"/>
	<path d="M52.2,121.1v2.1h-1.7c-1.6,0-2.5-0.9-2.5-2.5V118h-1.3v-0.6l3.1-3.3h0.5v2.1h1.8v1.9h-1.7v2.2c0,0.5,0.3,0.8,0.8,0.8H52.2z
		"/>
	<path d="M58.1,121.1v2.1h-1.7c-1.6,0-2.5-0.9-2.5-2.5V118h-1.3v-0.6l3.1-3.3h0.5v2.1h1.8v1.9h-1.7v2.2c0,0.5,0.3,0.8,0.8,0.8H58.1z
		"/>
	<path d="M59.2,116.2h2.4v7h-2.4V116.2z M59.2,113.3h2.4v2.1h-2.4V113.3z"/>
	<path d="M70.1,118.9v4.3h-2.4v-3.9c0-0.8-0.3-1.2-0.9-1.2c-0.8,0-1.2,0.5-1.2,1.4v3.7h-2.4v-7h1.7l0.3,0.7c0.5-0.6,1.3-0.9,2.2-0.9
		C69,116,70.1,117.1,70.1,118.9z"/>
	<path d="M78.8,116.2v6.2c0,2.2-1.4,3.6-3.8,3.6c-2,0-3.4-1-3.7-2.7h2.3c0.2,0.5,0.8,0.7,1.4,0.7c0.8,0,1.5-0.5,1.5-1.3v-0.2
		c-0.5,0.3-1.2,0.5-1.8,0.5c-2,0-3.5-1.5-3.5-3.5c0-2,1.5-3.5,3.5-3.5c0.9,0,1.6,0.3,2.2,0.8l0.3-0.6H78.8z M75.1,121
		c0.9,0,1.5-0.6,1.5-1.5c0-0.9-0.6-1.5-1.5-1.5c-0.9,0-1.5,0.6-1.5,1.5C73.6,120.4,74.2,121,75.1,121L75.1,121z"/>
	<path d="M90.9,119.7c0,2.2-1.5,3.7-3.7,3.7c-0.6,0-1.2-0.2-1.7-0.5v2.8h-2.4v-9.6h1.6l0.3,0.6c0.6-0.5,1.3-0.8,2.2-0.8
		C89.4,116,90.9,117.5,90.9,119.7z M88.5,119.7c0-0.9-0.7-1.6-1.6-1.6c-0.9,0-1.6,0.7-1.6,1.6c0,0.9,0.7,1.6,1.6,1.6
		C87.8,121.3,88.5,120.6,88.5,119.7z"/>
	<path d="M92,113.7h2.4v9.6H92V113.7z"/>
	<path d="M103.5,116.2v7h-1.9l-0.2-0.5c-0.6,0.5-1.3,0.7-2.1,0.7c-2.1,0-3.7-1.6-3.7-3.7c0-2.2,1.5-3.7,3.7-3.7
		c0.8,0,1.6,0.3,2.1,0.8l0.2-0.5H103.5z M101.2,119.7c0-0.9-0.7-1.6-1.6-1.6c-0.9,0-1.6,0.7-1.6,1.6c0,0.9,0.7,1.6,1.6,1.6
		C100.5,121.3,101.2,120.6,101.2,119.7z"/>
	<path d="M109.7,121.1v2.1h-1.7c-1.6,0-2.5-0.9-2.5-2.5V118h-1.3v-0.6l3.1-3.3h0.5v2.1h1.8v1.9H108v2.2c0,0.5,0.3,0.8,0.8,0.8H109.7
		z"/>
	<path d="M115.5,118.2H114v5h-2.4v-5h-1.2l0-1.9h1.2v-0.7c0-1.4,0.8-2.2,2.3-2.2h1.7v1.9h-1.1c-0.4,0-0.6,0.2-0.6,0.6v0.5h1.7V118.2
		z"/>
	<path d="M115.9,119.7c0-2.2,1.6-3.7,3.9-3.7c2.3,0,3.9,1.6,3.9,3.7c0,2.2-1.7,3.7-3.9,3.7C117.6,123.4,115.9,121.9,115.9,119.7z
		 M121.4,119.7c0-0.9-0.6-1.6-1.5-1.6s-1.5,0.6-1.5,1.6s0.6,1.6,1.5,1.6S121.4,120.6,121.4,119.7z"/>
	<path d="M129.5,116.2v2.2h-0.9c-0.9,0-1.2,0.4-1.2,1.3v3.6h-2.4v-7h1.6l0.4,0.8c0.5-0.6,1.1-0.8,1.9-0.8H129.5z"/>
	<path d="M141.2,118.8v4.4h-2.4v-4.1c0-0.7-0.3-1.1-0.8-1.1c-0.7,0-1,0.5-1,1.3v3.8h-2.4v-4.1c0-0.7-0.3-1.1-0.8-1.1
		c-0.7,0-1,0.5-1,1.3v3.8h-2.4v-7h1.7l0.3,0.8c0.5-0.6,1.2-1,2.1-1c0.9,0,1.6,0.4,2,1c0.5-0.6,1.3-1,2.2-1
		C140.2,116,141.2,117.2,141.2,118.8z"/>
	<path d="M149.9,121.1v2.1h-1.7c-1.6,0-2.5-0.9-2.5-2.5V118h-1.3v-0.6l3.1-3.3h0.5v2.1h1.8v1.9h-1.7v2.2c0,0.5,0.3,0.8,0.8,0.8
		H149.9z"/>
	<path d="M150.6,119.7c0-2.2,1.6-3.7,3.9-3.7c2.3,0,3.9,1.6,3.9,3.7c0,2.2-1.7,3.7-3.9,3.7C152.2,123.4,150.6,121.9,150.6,119.7z
		 M156,119.7c0-0.9-0.6-1.6-1.5-1.6s-1.5,0.6-1.5,1.6s0.6,1.6,1.5,1.6S156,120.6,156,119.7z"/>
	<path d="M170.2,119.7c0,2.2-1.5,3.7-3.7,3.7c-0.8,0-1.5-0.3-2.1-0.8l-0.2,0.5h-1.8v-9.6h2.4v2.8c0.5-0.3,1.1-0.5,1.7-0.5
		C168.7,116,170.2,117.5,170.2,119.7z M167.8,119.7c0-0.9-0.7-1.6-1.6-1.6c-0.9,0-1.6,0.7-1.6,1.6c0,0.9,0.7,1.6,1.6,1.6
		C167.1,121.3,167.8,120.6,167.8,119.7z"/>
	<path d="M178.5,119.6c0,0.2,0,0.4,0,0.6h-5.2c0.2,0.8,0.7,1.2,1.4,1.2c0.6,0,1-0.2,1.3-0.7h2.4c-0.5,1.6-1.9,2.6-3.7,2.6
		c-2.2,0-3.8-1.6-3.8-3.7c0-2.2,1.6-3.7,3.8-3.7C177,116,178.5,117.6,178.5,119.6L178.5,119.6z M173.3,118.9h2.8
		c-0.2-0.7-0.7-1.1-1.4-1.1C174,117.9,173.5,118.2,173.3,118.9z"/>
	<path d="M184.3,121.1v2.1h-1.7c-1.6,0-2.5-0.9-2.5-2.5V118h-1.3v-0.6l3.1-3.3h0.5v2.1h1.8v1.9h-1.7v2.2c0,0.5,0.3,0.8,0.8,0.8
		H184.3z"/>
	<path d="M195.7,116.2v7h-1.9l-0.2-0.5c-0.6,0.5-1.3,0.7-2.1,0.7c-2.1,0-3.7-1.6-3.7-3.7c0-2.2,1.5-3.7,3.7-3.7
		c0.8,0,1.6,0.3,2.1,0.8l0.2-0.5H195.7z M193.4,119.7c0-0.9-0.7-1.6-1.6-1.6c-0.9,0-1.6,0.7-1.6,1.6c0,0.9,0.7,1.6,1.6,1.6
		C192.7,121.3,193.4,120.6,193.4,119.7z"/>
	<path d="M204.2,118.9v4.3h-2.4v-3.9c0-0.8-0.3-1.2-0.9-1.2c-0.8,0-1.2,0.5-1.2,1.4v3.7h-2.4v-7h1.7l0.3,0.7
		c0.5-0.6,1.3-0.9,2.2-0.9C203.1,116,204.2,117.1,204.2,118.9z"/>
	<path d="M213,113.7v9.6h-1.8l-0.2-0.5c-0.6,0.5-1.3,0.8-2.1,0.8c-2.2,0-3.7-1.6-3.7-3.7s1.5-3.7,3.7-3.7c0.6,0,1.2,0.2,1.7,0.5
		v-2.8H213z M210.8,119.7c0-0.9-0.7-1.6-1.6-1.6c-0.9,0-1.6,0.7-1.6,1.6c0,0.9,0.7,1.6,1.6,1.6C210.1,121.3,210.8,120.6,210.8,119.7
		z"/>
	<path d="M48.5,136.7v2.1h-1.7c-1.6,0-2.5-0.9-2.5-2.5v-2.6h-1.3v-0.6l3.1-3.3h0.5v2.1h1.8v1.9h-1.7v2.2c0,0.5,0.3,0.8,0.8,0.8H48.5
		z"/>
	<path d="M49.2,135.3c0-2.2,1.6-3.7,3.9-3.7c2.3,0,3.9,1.6,3.9,3.7c0,2.2-1.7,3.7-3.9,3.7C50.8,139,49.2,137.5,49.2,135.3z
		 M54.6,135.3c0-0.9-0.6-1.6-1.5-1.6c-0.9,0-1.5,0.6-1.5,1.6s0.6,1.6,1.5,1.6C54,136.9,54.6,136.2,54.6,135.3z"/>
	<path d="M61,131.8h2.4v7H61V131.8z M61,128.9h2.4v2.1H61V128.9z"/>
	<path d="M71.9,134.5v4.3h-2.4v-3.9c0-0.8-0.3-1.2-0.9-1.2c-0.8,0-1.2,0.5-1.2,1.4v3.7h-2.4v-7h1.7l0.3,0.7c0.5-0.6,1.3-0.9,2.2-0.9
		C70.8,131.6,71.9,132.7,71.9,134.5z"/>
	<path d="M72.9,135.3c0-2.2,1.6-3.7,3.9-3.7c2,0,3.5,1.2,3.7,3.1h-2.4c-0.2-0.6-0.7-0.9-1.4-0.9c-0.8,0-1.5,0.6-1.5,1.6
		s0.6,1.6,1.5,1.6c0.6,0,1.2-0.4,1.4-1h2.4c-0.3,1.9-1.8,3.2-3.8,3.2C74.5,139,72.9,137.5,72.9,135.3z"/>
	<path d="M86.1,131.8v2.2h-0.9c-0.9,0-1.2,0.4-1.2,1.3v3.6h-2.4v-7h1.6l0.4,0.8c0.5-0.6,1.1-0.8,1.9-0.8H86.1z"/>
	<path d="M94.2,135.2c0,0.2,0,0.4,0,0.6h-5.2c0.2,0.8,0.7,1.2,1.4,1.2c0.6,0,1-0.2,1.3-0.7H94c-0.5,1.6-1.9,2.6-3.7,2.6
		c-2.2,0-3.8-1.6-3.8-3.7c0-2.2,1.6-3.7,3.8-3.7C92.6,131.6,94.2,133.2,94.2,135.2L94.2,135.2z M89,134.5h2.8
		c-0.2-0.7-0.7-1.1-1.4-1.1C89.6,133.5,89.1,133.8,89,134.5z"/>
	<path d="M102.7,131.8v7h-1.9l-0.2-0.5c-0.6,0.5-1.3,0.7-2.1,0.7c-2.1,0-3.7-1.6-3.7-3.7c0-2.2,1.5-3.7,3.7-3.7
		c0.8,0,1.6,0.3,2.1,0.8l0.2-0.5H102.7z M100.4,135.3c0-0.9-0.7-1.6-1.6-1.6c-0.9,0-1.6,0.7-1.6,1.6c0,0.9,0.7,1.6,1.6,1.6
		C99.8,136.9,100.4,136.2,100.4,135.3z"/>
	<path d="M103.9,136.5h2.3c0,0.5,0.4,0.8,0.8,0.8c0.4,0,0.7-0.2,0.7-0.5c0-0.4-0.5-0.5-1.2-0.6c-1.1-0.2-2.5-0.5-2.5-2.2
		c0-1.4,1.2-2.3,3-2.3c1.8,0,2.9,1,3,2.4h-2.3c0-0.4-0.3-0.7-0.7-0.7c-0.4,0-0.6,0.2-0.6,0.5c0,0.4,0.5,0.5,1.2,0.6
		c1.1,0.2,2.6,0.4,2.6,2.2c0,1.5-1.2,2.4-3.1,2.4C105.1,139,103.9,138,103.9,136.5z"/>
	<path d="M118.4,135.2c0,0.2,0,0.4,0,0.6h-5.2c0.2,0.8,0.7,1.2,1.4,1.2c0.6,0,1-0.2,1.3-0.7h2.4c-0.5,1.6-1.9,2.6-3.7,2.6
		c-2.2,0-3.8-1.6-3.8-3.7c0-2.2,1.6-3.7,3.8-3.7C116.9,131.6,118.4,133.2,118.4,135.2L118.4,135.2z M113.2,134.5h2.8
		c-0.2-0.7-0.7-1.1-1.4-1.1C113.9,133.5,113.4,133.8,113.2,134.5z"/>
	<path d="M129.5,131.8l-2.9,6.7c-0.9,2.1-1.8,2.9-3.6,2.9h-0.8v-2.1h0.7c0.9,0,1.2-0.2,1.5-1.1l-2.9-6.4h2.6l1.5,3.9l1.4-3.9H129.5z
		"/>
	<path d="M129.5,135.3c0-2.2,1.6-3.7,3.9-3.7c2.3,0,3.9,1.6,3.9,3.7c0,2.2-1.7,3.7-3.9,3.7C131.2,139,129.5,137.5,129.5,135.3z
		 M135,135.3c0-0.9-0.6-1.6-1.5-1.6c-0.9,0-1.5,0.6-1.5,1.6s0.6,1.6,1.5,1.6C134.3,136.9,135,136.2,135,135.3z"/>
	<path d="M138.4,135.8v-4h2.4v3.9c0,0.7,0.4,1.2,1,1.2c0.6,0,1-0.4,1-1.2v-3.9h2.4v4c0,2-1.4,3.2-3.5,3.2
		C139.8,139,138.4,137.8,138.4,135.8z"/>
	<path d="M151.3,131.8v2.2h-0.9c-0.9,0-1.2,0.4-1.2,1.3v3.6h-2.4v-7h1.6l0.4,0.8c0.5-0.6,1.1-0.8,1.9-0.8H151.3z"/>
	<path d="M162.2,131.8v7h-1.9l-0.2-0.5c-0.6,0.5-1.3,0.7-2.1,0.7c-2.1,0-3.7-1.6-3.7-3.7c0-2.2,1.5-3.7,3.7-3.7
		c0.8,0,1.6,0.3,2.1,0.8l0.2-0.5H162.2z M159.9,135.3c0-0.9-0.7-1.6-1.6-1.6c-0.9,0-1.6,0.7-1.6,1.6c0,0.9,0.7,1.6,1.6,1.6
		C159.3,136.9,159.9,136.2,159.9,135.3z"/>
	<path d="M166.5,139c-1.9,0-3.1-1-3.1-2.5h2.3c0,0.5,0.4,0.8,0.8,0.8c0.4,0,0.7-0.2,0.7-0.5c0-0.4-0.5-0.5-1.2-0.6
		c-1.1-0.2-2.5-0.5-2.5-2.2c0-1.4,1.2-2.3,3-2.3c1.8,0,2.9,1,3,2.4h-2.3c0-0.4-0.3-0.7-0.7-0.7c-0.4,0-0.6,0.2-0.6,0.5
		c0,0.4,0.5,0.5,1.2,0.6c1.1,0.2,2.6,0.4,2.6,2.2C169.6,138.1,168.3,139,166.5,139L166.5,139z"/>
	<path d="M170.3,136.5h2.3c0,0.5,0.4,0.8,0.8,0.8c0.4,0,0.7-0.2,0.7-0.5c0-0.4-0.5-0.5-1.2-0.6c-1.1-0.2-2.5-0.5-2.5-2.2
		c0-1.4,1.2-2.3,3-2.3c1.8,0,2.9,1,3,2.4h-2.3c0-0.4-0.3-0.7-0.7-0.7c-0.4,0-0.6,0.2-0.6,0.5c0,0.4,0.5,0.5,1.2,0.6
		c1.1,0.2,2.6,0.4,2.6,2.2c0,1.5-1.2,2.4-3.1,2.4C171.5,139,170.3,138,170.3,136.5z"/>
	<path d="M184.9,135.2c0,0.2,0,0.4,0,0.6h-5.2c0.2,0.8,0.7,1.2,1.4,1.2c0.6,0,1-0.2,1.3-0.7h2.4c-0.5,1.6-1.9,2.6-3.7,2.6
		c-2.2,0-3.8-1.6-3.8-3.7c0-2.2,1.6-3.7,3.8-3.7C183.3,131.6,184.9,133.2,184.9,135.2L184.9,135.2z M179.7,134.5h2.8
		c-0.2-0.7-0.7-1.1-1.4-1.1C180.3,133.5,179.9,133.8,179.7,134.5z"/>
	<path d="M190.6,136.7v2.1h-1.7c-1.6,0-2.5-0.9-2.5-2.5v-2.6h-1.3v-0.6l3.1-3.3h0.5v2.1h1.8v1.9h-1.7v2.2c0,0.5,0.3,0.8,0.8,0.8
		H190.6z"/>
</g>
<g>
	<path class="st5" d="M150.2,46c0,17.8-14.5,32.3-32.3,32.3c-17.8,0-32.3-14.5-32.3-32.3c0-17.8,14.5-32.3,32.3-32.3
		C135.8,13.7,150.2,28.1,150.2,46z"/>
	<path class="st5" d="M117.9,84.3c-21.1,0-38.3-17.2-38.3-38.3c0-21.1,17.2-38.3,38.3-38.3c21.1,0,38.3,17.2,38.3,38.3
		C156.2,67.1,139,84.3,117.9,84.3z M117.9,8.9C97.5,8.9,80.8,25.5,80.8,46c0,20.4,16.6,37.1,37.1,37.1c20.4,0,37.1-16.6,37.1-37.1
		C155,25.5,138.4,8.9,117.9,8.9z"/>
	<path class="st0" d="M110.3,29.2c0.2,0.1,0.2,0.2,0.2,0.5c0,0.2-0.1,0.4-0.3,0.5c-0.2,0.1-0.4,0.1-0.8,0.1H109v-1.2h0.6
		C109.9,29.1,110.2,29.1,110.3,29.2z M110.6,32.4c-0.2,0.1-0.4,0.1-0.8,0.1H109v-1.3h0.7c0.4,0,0.7,0,0.9,0.1
		c0.2,0.1,0.3,0.3,0.3,0.5C110.9,32.1,110.8,32.3,110.6,32.4z"/>
	<path class="st6" d="M96.8,39.2l0.3,0.1l-0.3,0.1c-1.5,0.4-2.8,1.6-3.2,3.2l-0.1,0.3l-0.1-0.3c-0.4-1.6-1.6-2.8-3.2-3.2l-0.3-0.1
		l0.3-0.1c1.6-0.4,2.8-1.6,3.2-3.2l0.1-0.3l0.1,0.3C94,37.6,95.2,38.8,96.8,39.2L96.8,39.2z"/>
	<path class="st7" d="M143.7,47.5l0.2,0.1L143.7,47.5c-1.2,0.4-2.1,1.3-2.4,2.5l-0.1,0.2l0-0.2c-0.3-1.2-1.2-2.1-2.4-2.4l-0.2,0
		l0.2-0.1c1.2-0.3,2.1-1.2,2.4-2.4l0-0.2l0.1,0.2C141.6,46.3,142.5,47.2,143.7,47.5L143.7,47.5z"/>
	<path class="st8" d="M135.3,24.3l0.2,0.1l-0.2,0.1c-1.3,0.3-2.3,1.3-2.6,2.6l-0.1,0.2l-0.1-0.2c-0.3-1.3-1.3-2.3-2.6-2.6l-0.2-0.1
		l0.2-0.1c1.3-0.3,2.3-1.3,2.6-2.6l0.1-0.2l0.1,0.2C133,22.9,134,23.9,135.3,24.3L135.3,24.3z"/>
</g>
<g>
	<path class="st9" d="M110.6,35.4c0-0.1,0-0.2,0.1-0.3C110.6,35.1,110.6,35.2,110.6,35.4z"/>
	<path class="st9" d="M122.8,35c0,0.1,0.1,0.2,0.1,0.3C122.8,35.2,122.8,35.1,122.8,35z"/>
	<path class="st9" d="M111.6,35.7h1.5h7.9h1c0.4,0,0.8-0.3,0.9-0.7c-0.1-0.4-0.5-0.7-0.9-0.7h-1H113h-1.5c-0.4,0-0.8,0.3-0.9,0.7
		C110.8,35.4,111.1,35.7,111.6,35.7z"/>
	<path class="st9" d="M122.8,33c0,0.1,0.1,0.2,0.1,0.3C122.8,33.2,122.8,33.1,122.8,33z"/>
	<path class="st9" d="M110.6,33.3c0-0.1,0-0.2,0.1-0.3C110.6,33.1,110.6,33.2,110.6,33.3z"/>
	<path class="st9" d="M111.6,33.7h1.5h7.9h1c0.4,0,0.8-0.3,0.9-0.7c-0.1-0.4-0.5-0.7-0.9-0.7h-0.4h-0.6H113H112h-0.4
		c-0.4,0-0.8,0.3-0.9,0.7C110.8,33.4,111.1,33.7,111.6,33.7z"/>
	<path class="st10" d="M110.1,26.3c0.1,0,0.1,0.1,0.2,0.1c0,0,0.1,0,0.1,0c0.1,0,0.1,0.1,0.2,0.1c0,0,0,0,0.1,0
		c0.4,0.2,1,0.4,1.7,0.5c0,0,0,0,0,0c0.2,0,0.4,0.1,0.6,0.1c1,0.2,2.3,0.3,3.8,0.3c3.8,0,6.1-0.7,6.8-1.4c0,0-1.4-1.4-6.8-1.4
		s-6.8,1.4-6.8,1.4C110,26.2,110,26.3,110.1,26.3C110.1,26.3,110.1,26.3,110.1,26.3z"/>
	<path class="st11" d="M110.7,26.6C110.6,26.6,110.6,26.6,110.7,26.6C110.6,26.6,110.6,26.6,110.7,26.6z"/>
	<path class="st11" d="M110.4,26.5C110.4,26.5,110.3,26.5,110.4,26.5C110.3,26.5,110.4,26.5,110.4,26.5z"/>
	<path class="st11" d="M110.1,26.3C110.1,26.3,110.1,26.3,110.1,26.3C110.1,26.3,110.1,26.3,110.1,26.3z"/>
	<path class="st11" d="M112.4,27.1C112.4,27.1,112.4,27.1,112.4,27.1C112.4,27.1,112.4,27.1,112.4,27.1z"/>
	<path class="st11" d="M112.9,27.2L112.9,27.2l0.2,0.8c0.5,1.7,2,2.9,3.8,2.9h3c0.9,0,1.7-0.3,2.3-0.8l1.3-3.9
		c-0.7,0.7-3,1.4-6.8,1.4C115.2,27.5,114,27.4,112.9,27.2z"/>
	<path class="st11" d="M120.2,36.4H116c-2.8,1.6-8.9,6.1-8.9,15.7c0,12.9,26.5,10.9,26.5,4.8C133.7,51.9,127.9,39.4,120.2,36.4z"/>
	<polygon class="st12" points="110.7,33 110.7,33 110.7,33 	"/>
	<polygon class="st12" points="122.8,33 122.8,33 122.8,33 	"/>
	<polygon class="st12" points="122.8,35 122.8,35 122.8,35 	"/>
	<polygon class="st12" points="110.7,35 110.7,35 110.7,35 	"/>
	<path class="st13" d="M110.3,26.4c-0.1,0-0.1-0.1-0.2-0.1C110.2,26.4,110.2,26.4,110.3,26.4z"/>
	<path class="st13" d="M112.9,27.2c-0.2,0-0.4-0.1-0.6-0.1C112.6,27.2,112.8,27.2,112.9,27.2z"/>
	<path class="st13" d="M110.6,26.6c-0.1,0-0.1-0.1-0.2-0.1C110.4,26.5,110.5,26.6,110.6,26.6z"/>
	<path class="st13" d="M109.9,26.2c0,0,0.1,0.1,0.2,0.1C110,26.3,110,26.2,109.9,26.2z"/>
	<path class="st13" d="M112.4,27.1c-0.7-0.1-1.3-0.3-1.7-0.5C111.1,26.8,111.7,27,112.4,27.1z"/>
	<polygon class="st14" points="137.8,41.1 135.6,42.3 134.4,44.5 133.3,42.3 131,41.1 133.3,40 134.4,37.7 135.6,40 	"/>
	<path class="st13" d="M123,51.2c-0.1,0.3-0.2,0.6-0.2,0.9v9.6c-0.7,0-1.4,0-2,0v-7.5C120.8,52.9,121.6,51.9,123,51.2z"/>
	<g>
		<path class="st9" d="M122.8,35c-0.1-0.4-0.5-0.7-0.9-0.7c0.5,0,1-0.5,1-1c0-0.1,0-0.2-0.1-0.3l0,0c-0.1-0.4-0.5-0.7-0.9-0.7h-0.4
			h-0.6H113H112h-0.4c-0.4,0-0.8,0.3-0.9,0.7l0,0c0,0.1-0.1,0.2-0.1,0.3c0,0.6,0.4,1,1,1c-0.4,0-0.8,0.3-0.9,0.7l0,0
			c0,0.1-0.1,0.2-0.1,0.3c0,0.6,0.4,1,1,1h1.5h0.2h2.8h4.1h0.7h1c0.5,0,1-0.5,1-1C122.8,35.2,122.8,35.1,122.8,35L122.8,35z"/>
		<path class="st15" d="M122.2,26.9c-1-0.3-2.7-0.7-5.5-0.7c-2.7,0-4.5,0.3-5.5,0.7c1.2,0.4,3,0.7,5.5,0.7S121,27.2,122.2,26.9z"/>
		<path class="st12" d="M120.9,34.3h1c0.5,0,1-0.5,1-1c0-0.1,0-0.2-0.1-0.3l0,0c-0.1,0.4-0.5,0.7-0.9,0.7h-1H113h-1.5
			c-0.4,0-0.8-0.3-0.9-0.7l0,0c0,0.1-0.1,0.2-0.1,0.3c0,0.6,0.4,1,1,1h1.5H120.9z"/>
		<path class="st12" d="M120.2,36.4h0.7h1c0.5,0,1-0.5,1-1c0-0.1,0-0.2-0.1-0.3l0,0c-0.1,0.4-0.5,0.7-0.9,0.7h-1H113h-1.5
			c-0.4,0-0.8-0.3-0.9-0.7l0,0c0,0.1-0.1,0.2-0.1,0.3c0,0.6,0.4,1,1,1h1.5h0.2h2.8H120.2z"/>
		<path class="st13" d="M120.9,32.3h0.6l0.7-2.2c-0.6,0.5-1.4,0.8-2.3,0.8h-3c-1.8,0-3.3-1.2-3.8-2.9l-0.2-0.8l0,0
			c-0.2,0-0.4-0.1-0.6-0.1c0,0,0,0,0,0c-0.7-0.1-1.3-0.3-1.7-0.5c0,0,0,0-0.1,0c-0.1,0-0.1-0.1-0.2-0.1c0,0-0.1,0-0.1,0
			c-0.1,0-0.1-0.1-0.2-0.1c0,0,0,0-0.1,0c-0.1,0-0.1-0.1-0.2-0.1l2,6.1h1.1H120.9z"/>
		<path class="st14" d="M107.2,52c0-9.5,6.1-14.1,8.9-15.7h-2.8c-7.7,3-13.6,15.5-13.6,20.4c0,5.6,7.6,10.2,17,10.2s17-4.6,17-10.2
			C133.7,62.9,107.2,65,107.2,52z"/>
		<g>
			<path class="st11" d="M124.9,29.6c-0.2,0-0.3-0.1-0.5-0.2c-0.3-0.3-0.3-0.7,0-1l4.1-4.1c0.3-0.3,0.7-0.3,1,0c0.3,0.3,0.3,0.7,0,1
				l-4.1,4.1C125.2,29.5,125.1,29.6,124.9,29.6z"/>
		</g>
		<g>
			<path class="st11" d="M124.9,33.7c-0.2,0-0.4-0.1-0.6-0.3c-0.2-0.3-0.1-0.7,0.2-0.9l8.2-5.4c0.3-0.2,0.7-0.1,0.9,0.2
				c0.2,0.3,0.1,0.7-0.2,0.9l-8.2,5.4C125.2,33.6,125,33.7,124.9,33.7z"/>
		</g>
		<g>
			<path class="st11" d="M108.6,29.6c-0.2,0-0.3-0.1-0.5-0.2l-4.1-4.1c-0.3-0.3-0.3-0.7,0-1c0.3-0.3,0.7-0.3,1,0l4.1,4.1
				c0.3,0.3,0.3,0.7,0,1C108.9,29.5,108.7,29.6,108.6,29.6z"/>
		</g>
		<g>
			<path class="st11" d="M108.6,33.7c-0.1,0-0.3,0-0.4-0.1l-8.2-5.4c-0.3-0.2-0.4-0.6-0.2-0.9c0.2-0.3,0.6-0.4,0.9-0.2l8.2,5.4
				c0.3,0.2,0.4,0.6,0.2,0.9C109,33.5,108.8,33.7,108.6,33.7z"/>
		</g>
		<g>
			<path class="st16" d="M119.5,52l-2.1-1v-5.7h1.4v0.7h1.4v-1.4c0-0.4-0.3-0.7-0.7-0.7h-2v-1.4H116v1.4h-0.5c-2,0-3.6,1.6-3.6,3.6
				c0,1.4,0.8,2.6,2,3.2l2.1,1v5.7h-2.7v-0.7H112v1.4c0,0.4,0.3,0.7,0.7,0.7h3.4v1.4h1.4v-1.4h0.5c2,0,3.6-1.6,3.6-3.6
				C121.5,53.8,120.7,52.6,119.5,52z M114.6,49.5c-0.8-0.4-1.3-1.2-1.3-2c0-1.2,1-2.3,2.3-2.3h0.5v5L114.6,49.5z M117.9,57.5h-0.5
				v-5l1.5,0.7c0.8,0.4,1.3,1.2,1.3,2C120.1,56.5,119.1,57.5,117.9,57.5z"/>
			<g>
				<path class="st17" d="M117.4,58.8v0.7c1.1-0.1,2-0.6,2.6-1.4c-0.6,0.5-1.4,0.8-2.2,0.8H117.4z"/>
				<path class="st17" d="M116,58.8h-3.4c-0.4,0-0.7-0.3-0.7-0.7v-0.7h-0.7v1.4c0,0.4,0.3,0.7,0.7,0.7h3.4v1.4h1.4v-0.7H116V58.8z"
					/>
				<polygon class="st17" points="118.8,45.2 117.4,45.2 117.4,45.9 118.1,45.9 118.1,46.6 119.4,46.6 119.4,45.9 118.8,45.9 				
					"/>
				<path class="st17" d="M116,43.9v-0.7h-0.7v0.7c0.1,0,0.1,0,0.2,0H116z"/>
				<path class="st17" d="M116,51.8l-2.1-1c-1.2-0.6-2-1.9-2-3.2c0-0.8,0.3-1.6,0.8-2.2c-0.9,0.7-1.4,1.7-1.4,2.9
					c0,1.4,0.8,2.6,2,3.2l2.1,1v5h0.7V51.8z"/>
				<path class="st17" d="M113.7,46.3c0.4-0.2,0.8-0.4,1.2-0.4h0.5v4l0.7,0.3v-5h-0.5C114.8,45.2,114.1,45.6,113.7,46.3z"/>
				<path class="st17" d="M120.1,55.2c0-0.9-0.5-1.6-1.3-2l-1.5-0.7v1l0.8,0.4c0.8,0.4,1.3,1.2,1.3,2c0,0.5-0.1,0.9-0.4,1.2
					C119.7,56.7,120.1,56,120.1,55.2z"/>
			</g>
		</g>
		<path class="st14" d="M122.8,62.9v-1.3V52c0-0.3,0.1-0.6,0.2-0.9c-1.4,0.7-2.2,1.8-2.2,2.9v7.5V65c0,0.6,0.2,1.1,0.6,1.6
			c1.2-0.2,2.4-0.5,3.5-0.9C123.6,65,122.8,64,122.8,62.9z"/>
		<path class="st18" d="M120.9,53.3c-0.1,0.3-0.1,0.5-0.1,0.8v3.2c0.4-0.6,0.7-1.3,0.7-2.1C121.5,54.5,121.3,53.9,120.9,53.3z"/>
	</g>
	<g>
		<path class="st19" d="M137.8,60.2v2.7c0,2.3-3.3,4.1-7.5,4.1c-4.1,0-7.5-1.8-7.5-4.1v-2.7c0,2.3,3.3,4.1,7.5,4.1
			C134.5,64.3,137.8,62.5,137.8,60.2z"/>
		<path class="st19" d="M137.8,54.8v2.7c0,2.3-3.3,4.1-7.5,4.1c-4.1,0-7.5-1.8-7.5-4.1v-2.7c0,2.3,3.3,4.1,7.5,4.1
			C134.5,58.8,137.8,57,137.8,54.8z"/>
		<path class="st13" d="M137.8,57.5v2.7c0,2.3-3.3,4.1-7.5,4.1c-4.1,0-7.5-1.8-7.5-4.1v-2.7c0,2.3,3.3,4.1,7.5,4.1
			C134.5,61.6,137.8,59.7,137.8,57.5z"/>
		<path class="st13" d="M137.8,52v2.7c0,2.3-3.3,4.1-7.5,4.1c-4.1,0-7.5-1.8-7.5-4.1V52c0,2.3,3.3,4.1,7.5,4.1
			C134.5,56.1,137.8,54.3,137.8,52z"/>
		<path class="st18" d="M137.8,52c0,2.3-3.3,4.1-7.5,4.1c-4.1,0-7.5-1.8-7.5-4.1c0-2.3,3.3-4.1,7.5-4.1
			C134.5,47.9,137.8,49.8,137.8,52z M135.1,52c0-1.1-2.1-2-4.8-2c-2.6,0-4.8,0.9-4.8,2s2.1,2,4.8,2C133,54.1,135.1,53.2,135.1,52z"
			/>
		<ellipse class="st16" cx="130.3" cy="52" rx="4.8" ry="2"/>
		<path class="st15" d="M135.1,52c0,0.1,0,0.2-0.1,0.3c-0.4-1-2.3-1.7-4.7-1.7c-2.4,0-4.3,0.7-4.7,1.7c0-0.1-0.1-0.2-0.1-0.3
			c0-1.1,2.1-2,4.8-2C133,50,135.1,50.9,135.1,52z"/>
		<path class="st10" d="M137.8,53.4v1.4c0,2.3-3.3,4.1-7.5,4.1c-1.8,0-3.5-0.3-4.8-0.9c-1.7-0.7-2.7-1.9-2.7-3.2V52
			c0,1.3,1.1,2.4,2.7,3.2v0c0,0.9,0.6,1.6,1.4,1.9c1,0.3,2.2,0.4,3.4,0.4C134.5,57.5,137.8,55.6,137.8,53.4z"/>
		<path class="st10" d="M137.8,56.1v1.4c0,2.3-3.3,4.1-7.5,4.1c-1.8,0-3.5-0.3-4.8-0.9c-1.7-0.7-2.7-1.9-2.7-3.2v-2.7
			c0,1.3,1.1,2.4,2.7,3.2v0c0,0.9,0.6,1.6,1.4,1.9c1,0.3,2.2,0.4,3.4,0.4C134.5,60.2,137.8,58.4,137.8,56.1z"/>
		<path class="st10" d="M137.8,58.8v1.4c0,2.3-3.3,4.1-7.5,4.1c-1.8,0-3.5-0.3-4.8-0.9c-1.7-0.7-2.7-1.9-2.7-3.2v-2.7
			c0,1.3,1.1,2.4,2.7,3.2l0,0c0,0.9,0.6,1.6,1.4,1.9c1,0.3,2.2,0.4,3.4,0.4C134.5,62.9,137.8,61.1,137.8,58.8z"/>
		<path class="st10" d="M137.8,61.6v1.4c0,2.3-3.3,4.1-7.5,4.1c-1.8,0-3.5-0.3-4.8-0.9c-1.7-0.7-2.7-1.9-2.7-3.2v-2.7
			c0,1.3,1.1,2.4,2.7,3.2l0,0c0,0.9,0.6,1.6,1.4,1.9c1,0.3,2.2,0.4,3.4,0.4C134.5,65.6,137.8,63.8,137.8,61.6z"/>
	</g>
</g>
</svg>
