<?xml version="1.0" encoding="utf-8"?>
<!-- Generator: Adobe Illustrator 26.0.0, SVG Export Plug-In . SVG Version: 6.00 Build 0)  -->
<svg version="1.1" id="Layer_1" xmlns="http://www.w3.org/2000/svg" xmlns:xlink="http://www.w3.org/1999/xlink" x="0px" y="0px"
	 viewBox="0 0 236.8 180.2" style="enable-background:new 0 0 236.8 180.2;" xml:space="preserve">
<style type="text/css">
	.st0{fill:#FFFFFF;}
	.st1{fill:url(#SVGID_1_);}
	.st2{fill:url(#SVGID_00000073706110907622004250000002765722426340267407_);}
	.st3{fill:url(#SVGID_00000017476777596734544050000004709604153367826836_);}
	.st4{fill:#0B1D51;}
	.st5{fill:#EDF3FC;}
	.st6{fill:#330D84;}
	.st7{fill:#6857E5;}
	.st8{fill:#FFBE1B;}
	.st9{fill:#5D8EF9;}
	.st10{fill:#8AC9F9;}
</style>
<g>
	<g>
		<g>
			<path class="st0" d="M218,180.2H20.5c-2.8,0-5.3-1-7.3-2.6c-2.7-2.2-4.4-5.5-4.4-9.2V71.4c0-2.9,1-5.5,2.8-7.6
				c2.2-2.5,5.4-4.1,9-4.1H218c3.2,0,6.2,1.3,8.3,3.4c2.1,2.1,3.4,5.1,3.4,8.3v97.1c0,3.1-1.2,6-3.2,8.1
				C224.3,178.8,221.3,180.2,218,180.2z"/>
			<linearGradient id="SVGID_1_" gradientUnits="userSpaceOnUse" x1="8.7948" y1="76.7298" x2="8.7948" y2="163.1601">
				<stop  offset="0" style="stop-color:#EF1C71"/>
				<stop  offset="0.9906" style="stop-color:#AE0080"/>
			</linearGradient>
			<path class="st1" d="M13.8,163.2h-10c-0.5,0-1-0.2-1.3-0.5c-0.3-0.3-0.5-0.8-0.5-1.3V78.5c0-0.4,0.1-0.7,0.3-1
				c0.3-0.5,0.9-0.8,1.5-0.8h10c0.5,0,1,0.2,1.3,0.5c0.3,0.3,0.5,0.8,0.5,1.3v82.8c0,0.5-0.2,1-0.5,1.3
				C14.8,163,14.3,163.2,13.8,163.2z"/>
			
				<linearGradient id="SVGID_00000111159613893460848300000015977833513703798944_" gradientUnits="userSpaceOnUse" x1="229.7165" y1="76.7298" x2="229.7165" y2="163.1601">
				<stop  offset="0" style="stop-color:#EF1C71"/>
				<stop  offset="0.9906" style="stop-color:#AE0080"/>
			</linearGradient>
			<path style="fill:url(#SVGID_00000111159613893460848300000015977833513703798944_);" d="M234.7,163.2h-10c-0.4,0-0.7-0.1-1-0.3
				c-0.5-0.3-0.8-0.9-0.8-1.5V78.5c0-0.4,0.1-0.8,0.4-1.1c0.3-0.4,0.9-0.7,1.4-0.7h10c0.7,0,1.3,0.4,1.6,1c0.1,0.3,0.2,0.5,0.2,0.9
				v82.8c0,0.6-0.3,1.1-0.8,1.5C235.5,163,235.1,163.2,234.7,163.2z"/>
			<circle class="st0" cx="119.2" cy="49.9" r="45.7"/>
			
				<linearGradient id="SVGID_00000018937064928582033920000010328819687098404268_" gradientUnits="userSpaceOnUse" x1="119.2279" y1="12.0632" x2="119.2279" y2="87.7179">
				<stop  offset="0" style="stop-color:#EF1C71"/>
				<stop  offset="0.9906" style="stop-color:#AE0080"/>
			</linearGradient>
			<circle style="fill:url(#SVGID_00000018937064928582033920000010328819687098404268_);" cx="119.2" cy="49.9" r="37.8"/>
		</g>
		<g>
			<path class="st4" d="M64.4,110.8V98.2h6c1.4,0,2.6,0.3,3.7,0.8c1.1,0.5,1.9,1.2,2.5,2.2c0.6,0.9,0.9,2.1,0.9,3.3
				c0,1.3-0.3,2.4-0.9,3.3c-0.6,0.9-1.4,1.7-2.5,2.2c-1.1,0.5-2.3,0.8-3.7,0.8H64.4z M67.9,108h2.2c0.7,0,1.3-0.1,1.9-0.4
				c0.5-0.3,1-0.7,1.3-1.2c0.3-0.5,0.4-1.1,0.4-1.9c0-0.7-0.1-1.4-0.4-1.9c-0.3-0.5-0.7-0.9-1.3-1.2c-0.5-0.3-1.2-0.4-1.9-0.4h-2.2
				V108z"/>
			<path class="st4" d="M82.8,108h6.6v2.8H79.2V98.2h9.9v2.8h-6.4V108z M82.5,103.1h5.9v2.7h-5.9V103.1z"/>
			<path class="st4" d="M89.9,110.8l5.5-7.6l0,2.5l-5.3-7.5h4l3.4,4.9l-1.7,0l3.3-4.9h3.9l-5.3,7.3V103l5.6,7.8h-4.1l-3.4-5.1h1.6
				l-3.4,5.1H89.9z"/>
			<path class="st4" d="M114.2,111.1c-1,0-2-0.1-3-0.4s-1.7-0.6-2.3-1l1.2-2.6c0.6,0.4,1.2,0.7,2,0.9c0.7,0.2,1.5,0.4,2.2,0.4
				c0.5,0,0.9,0,1.2-0.1c0.3-0.1,0.5-0.2,0.7-0.4s0.2-0.3,0.2-0.5c0-0.3-0.1-0.5-0.4-0.7c-0.3-0.2-0.6-0.3-1-0.4
				c-0.4-0.1-0.9-0.2-1.4-0.3s-1-0.2-1.5-0.4c-0.5-0.2-1-0.4-1.4-0.7c-0.4-0.3-0.8-0.6-1-1.1c-0.3-0.4-0.4-1-0.4-1.7
				c0-0.8,0.2-1.4,0.6-2.1c0.4-0.6,1-1.1,1.9-1.5c0.8-0.4,1.9-0.6,3.1-0.6c0.8,0,1.6,0.1,2.4,0.3c0.8,0.2,1.5,0.5,2.1,0.8l-1.1,2.6
				c-0.6-0.3-1.2-0.6-1.8-0.7c-0.6-0.2-1.2-0.2-1.7-0.2c-0.5,0-0.9,0.1-1.2,0.2c-0.3,0.1-0.5,0.2-0.6,0.4c-0.1,0.2-0.2,0.4-0.2,0.6
				c0,0.3,0.1,0.5,0.4,0.7s0.6,0.3,1,0.4c0.4,0.1,0.9,0.2,1.4,0.3c0.5,0.1,1,0.2,1.5,0.4s1,0.4,1.4,0.6c0.4,0.3,0.8,0.6,1,1.1
				c0.3,0.4,0.4,1,0.4,1.6c0,0.7-0.2,1.4-0.6,2c-0.4,0.6-1,1.1-1.9,1.5C116.4,110.9,115.4,111.1,114.2,111.1z"/>
			<path class="st4" d="M124.5,110.8l-4.1-12.6h3.7l3.4,10.9h-1.9l3.6-10.9h3.3l3.4,10.9h-1.8l3.5-10.9h3.4l-4.1,12.6h-3.8l-2.9-9.3
				h1l-3,9.3H124.5z"/>
			<path class="st4" d="M140.5,110.8l5.6-12.6h3.5l5.6,12.6h-3.7l-4.4-10.9h1.4l-4.4,10.9H140.5z M143.5,108.4l0.9-2.6h6.2l0.9,2.6
				H143.5z"/>
			<path class="st4" d="M156.1,110.8V98.2h5.8c1.2,0,2.1,0.2,3,0.6c0.8,0.4,1.5,0.9,1.9,1.6s0.7,1.5,0.7,2.5c0,0.9-0.2,1.8-0.7,2.5
				s-1.1,1.2-1.9,1.6s-1.8,0.6-3,0.6h-3.8l1.6-1.5v4.8H156.1z M159.7,106.3l-1.6-1.6h3.6c0.7,0,1.3-0.2,1.7-0.5s0.5-0.8,0.5-1.3
				c0-0.6-0.2-1-0.5-1.4s-0.9-0.5-1.7-0.5h-3.6l1.6-1.6V106.3z"/>
		</g>
	</g>
</g>
<g>
	<path class="st5" d="M151.8,50.3c0,17.8-14.5,32.3-32.3,32.3c-17.8,0-32.3-14.5-32.3-32.3S101.7,18,119.5,18
		C137.4,18,151.8,32.5,151.8,50.3z"/>
	<path class="st5" d="M119.5,88.6c-21.1,0-38.3-17.2-38.3-38.3S98.4,12,119.5,12c21.1,0,38.3,17.2,38.3,38.3S140.6,88.6,119.5,88.6z
		 M119.5,13.2c-20.4,0-37.1,16.6-37.1,37.1c0,20.4,16.6,37.1,37.1,37.1c20.4,0,37.1-16.6,37.1-37.1C156.6,29.9,140,13.2,119.5,13.2z
		"/>
	<path class="st6" d="M130.2,53c-2,0-3.6,1.6-3.6,3.6v3.7h4.8c0.2-0.3,0.5-0.7,0.7-1.1c0.7-1.1,1.2-2.3,1.7-3.4
		C133.3,54.2,131.9,53,130.2,53z"/>
	<path class="st6" d="M122.4,61.6c0-0.7,0.6-1.3,1.3-1.3h0.7v-3.7c0-3.2,2.6-5.7,5.7-5.7c1.8,0,3.5,0.9,4.5,2.2
		c1.4-4.5,2-9.2,2.1-12.1c0.1-1-0.5-2-1.4-2.4l-15-7c-0.3-0.1-0.6-0.2-1-0.2c-0.3,0-0.7,0.1-1,0.2l-15,7c-0.9,0.4-1.4,1.4-1.3,2.4
		c0.3,4.2,1.3,12.2,4.8,18.2c4.5,7.4,9.9,9.4,12,10c0.3,0.1,0.7,0.1,1,0c0.6-0.1,1.4-0.4,2.4-0.8V61.6z"/>
	<path class="st7" d="M131.3,60.3h2.5v-3.7c0-0.3,0-0.5-0.1-0.8c-0.5,1.2-1.1,2.4-1.7,3.4C131.8,59.6,131.5,59.9,131.3,60.3z"/>
	<path class="st7" d="M136.4,36.7l-15-7c-1.2-0.6-2.6-0.6-3.8,0l-15,7c-1.7,0.8-2.7,2.6-2.6,4.5c0.3,4.4,1.3,12.8,5.2,19.2
		c4.9,8.1,10.9,10.4,13.3,10.9c0.3,0.1,0.7,0.1,1,0.1c0.3,0,0.7,0,1-0.1c0.5-0.1,1.2-0.3,2-0.6c-0.1-0.2-0.1-0.3-0.1-0.5v-1.8
		c-1,0.4-1.8,0.7-2.4,0.8c-0.3,0.1-0.7,0.1-1,0c-2.1-0.5-7.5-2.5-12-10c-3.6-6-4.6-14-4.8-18.2c-0.1-1,0.5-2,1.3-2.4l15-7
		c0.3-0.1,0.6-0.2,1-0.2c0.3,0,0.7,0.1,1,0.2l15,7c0.9,0.4,1.4,1.4,1.4,2.4c-0.2,2.9-0.7,7.5-2.1,12.1c0.7,0.9,1.1,1.9,1.2,3.1
		c2.2-5.5,2.9-11.5,3.1-15C139.1,39.2,138.1,37.4,136.4,36.7z"/>
	<path class="st6" d="M116,25.6l0.3,0.1l-0.3,0.1c-1.9,0.5-3.4,2-3.9,3.9l-0.1,0.3l-0.1-0.3c-0.5-1.9-2-3.4-3.9-3.9l-0.3-0.1
		l0.3-0.1c1.9-0.5,3.4-2,3.9-3.9l0.1-0.3l0.1,0.3C112.6,23.6,114,25.1,116,25.6L116,25.6z"/>
	<path class="st6" d="M102.7,34l0.2,0.1l-0.2,0.1c-1.3,0.3-2.3,1.3-2.6,2.6l-0.1,0.2l-0.1-0.2c-0.3-1.3-1.3-2.3-2.6-2.6l-0.2-0.1
		l0.2-0.1c1.3-0.3,2.3-1.3,2.6-2.6l0.1-0.2l0.1,0.2C100.4,32.7,101.4,33.7,102.7,34L102.7,34z"/>
	<path class="st8" d="M143.9,56.9l0.2,0.1l-0.2,0.1c-1.2,0.3-2.1,1.2-2.4,2.4l-0.1,0.2l-0.1-0.2c-0.3-1.2-1.2-2.1-2.4-2.4l-0.2-0.1
		l0.2-0.1c1.2-0.3,2.1-1.2,2.4-2.4l0.1-0.2l0.1,0.2C141.8,55.6,142.7,56.6,143.9,56.9L143.9,56.9z"/>
	<path class="st9" d="M115.9,74l0.3,0.1l-0.3,0.1c-1.7,0.4-3,1.7-3.4,3.4l-0.1,0.3l-0.1-0.3c-0.4-1.7-1.7-3-3.4-3.4l-0.3-0.1
		l0.3-0.1c1.7-0.4,3-1.7,3.4-3.4l0.1-0.3l0.1,0.3C112.9,72.3,114.2,73.6,115.9,74L115.9,74z"/>
	<path class="st9" d="M122.2,75.4l0.2,0L122.2,75.4c-1.1,0.4-1.9,1.2-2.2,2.3l0,0.2l0-0.2c-0.3-1.1-1.1-1.9-2.2-2.2l-0.2,0l0.2,0
		c1.1-0.3,1.9-1.1,2.2-2.2l0-0.2l0,0.2C120.3,74.3,121.1,75.2,122.2,75.4L122.2,75.4z"/>
	<path class="st8" d="M126.6,60.3v-3.7c0-2,1.6-3.6,3.6-3.6c2,0,3.6,1.6,3.6,3.6v3.7h2.1v-3.7c0-3.2-2.6-5.7-5.7-5.7
		c-3.2,0-5.7,2.6-5.7,5.7v3.7H126.6z"/>
	<path class="st10" d="M136.7,71.4h-13c-0.7,0-1.3-0.6-1.3-1.3v-8.5c0-0.7,0.6-1.3,1.3-1.3h13c0.7,0,1.3,0.6,1.3,1.3v8.5
		C138,70.8,137.4,71.4,136.7,71.4L136.7,71.4z"/>
	<path class="st0" d="M117.6,54.8c-0.6,0-1.1-0.2-1.5-0.6l-4.5-4.4c-0.9-0.8-0.9-2.2-0.1-3.1c0.8-0.9,2.2-0.9,3.1-0.1l2.8,2.8l7-8.3
		c0.8-0.9,2.2-1.1,3.1-0.3c0.9,0.8,1.1,2.2,0.3,3.1L119.3,54c-0.4,0.5-1,0.8-1.6,0.8C117.7,54.8,117.7,54.8,117.6,54.8z"/>
</g>
<g>
	<path d="M39.2,117.1l-3,9.8h-2.4l-1.9-4.7l-1.8,4.7h-2.4l-3.1-9.8h2.9l1.6,5.7l2.3-5.6h0.9l2.4,5.6l1.6-5.7H39.2z"/>
	<path d="M47.2,123c0,0.2,0,0.5-0.1,0.7h-5.6c0.2,0.9,0.7,1.3,1.5,1.3c0.6,0,1.1-0.3,1.4-0.7H47c-0.5,1.7-2.1,2.8-4,2.8
		c-2.4,0-4.1-1.7-4.1-4c0-2.3,1.7-4,4.1-4C45.5,119.1,47.2,120.8,47.2,123L47.2,123z M41.5,122.3h3.1c-0.2-0.8-0.8-1.2-1.6-1.2
		C42.3,121.1,41.7,121.5,41.5,122.3z"/>
	<path d="M59.4,119.3v7.6h-2l-0.2-0.5c-0.6,0.5-1.4,0.8-2.3,0.8c-2.3,0-4-1.7-4-4c0-2.3,1.7-4,4-4c0.9,0,1.7,0.3,2.3,0.8l0.3-0.6
		H59.4z M57,123.1c0-1-0.7-1.7-1.7-1.7c-1,0-1.7,0.7-1.7,1.7c0,1,0.7,1.7,1.7,1.7C56.2,124.8,57,124.1,57,123.1z"/>
	<path d="M66,119.3v2.4h-1c-0.9,0-1.3,0.4-1.3,1.4v3.8h-2.6v-7.6h1.7l0.4,0.8c0.5-0.6,1.2-0.9,2.1-0.9H66z"/>
	<path d="M74.6,123c0,0.2,0,0.5-0.1,0.7H69c0.2,0.9,0.7,1.3,1.5,1.3c0.6,0,1.1-0.3,1.4-0.7h2.6c-0.5,1.7-2.1,2.8-4,2.8
		c-2.4,0-4.1-1.7-4.1-4c0-2.3,1.7-4,4.1-4C73,119.1,74.6,120.8,74.6,123L74.6,123z M69,122.3h3.1c-0.2-0.8-0.8-1.2-1.6-1.2
		C69.8,121.1,69.2,121.5,69,122.3z"/>
	<path d="M82.6,127.1c-2.4,0-4.2-1.7-4.2-4c0-2.3,1.7-4,4.2-4c2.1,0,3.7,1.3,4,3.4h-2.5c-0.2-0.6-0.8-1-1.5-1
		c-0.9,0-1.6,0.7-1.6,1.7c0,1,0.7,1.7,1.6,1.7c0.7,0,1.3-0.4,1.5-1.1h2.6C86.3,125.8,84.7,127.1,82.6,127.1L82.6,127.1z"/>
	<path d="M92.7,119.3v2.4h-1c-0.9,0-1.3,0.4-1.3,1.4v3.8h-2.6v-7.6h1.7l0.4,0.8c0.5-0.6,1.2-0.9,2.1-0.9H92.7z"/>
	<path d="M101.3,123c0,0.2,0,0.5-0.1,0.7h-5.6c0.2,0.9,0.7,1.3,1.5,1.3c0.6,0,1.1-0.3,1.4-0.7h2.6c-0.5,1.7-2.1,2.8-4,2.8
		c-2.4,0-4.1-1.7-4.1-4c0-2.3,1.7-4,4.1-4C99.7,119.1,101.3,120.8,101.3,123L101.3,123z M95.7,122.3h3.1c-0.2-0.8-0.8-1.2-1.6-1.2
		C96.5,121.1,95.9,121.5,95.7,122.3z"/>
	<path d="M110.6,119.3v7.6h-2l-0.2-0.5c-0.6,0.5-1.4,0.8-2.3,0.8c-2.3,0-4-1.7-4-4c0-2.3,1.7-4,4-4c0.9,0,1.7,0.3,2.3,0.8l0.3-0.6
		H110.6z M108.1,123.1c0-1-0.7-1.7-1.7-1.7c-1,0-1.7,0.7-1.7,1.7c0,1,0.7,1.7,1.7,1.7C107.4,124.8,108.1,124.1,108.1,123.1z"/>
	<path d="M117.3,124.6v2.3h-1.8c-1.7,0-2.7-1-2.7-2.7v-2.9h-1.4v-0.6l3.4-3.6h0.5v2.2h1.9v2h-1.8v2.4c0,0.5,0.3,0.9,0.9,0.9H117.3z"
		/>
	<path d="M118.5,119.3h2.6v7.6h-2.6V119.3z M118.5,116.2h2.6v2.2h-2.6V116.2z"/>
	<path d="M130.2,122.3v4.6h-2.6v-4.3c0-0.9-0.3-1.3-1-1.3c-0.8,0-1.3,0.6-1.3,1.5v4h-2.6v-7.6h1.8l0.4,0.8c0.6-0.6,1.4-1,2.4-1
		C129.1,119.1,130.2,120.4,130.2,122.3z"/>
	<path d="M139.6,119.3v6.7c0,2.4-1.6,3.8-4.1,3.8c-2.1,0-3.6-1.1-4-2.9h2.5c0.2,0.5,0.8,0.8,1.5,0.8c0.9,0,1.6-0.6,1.6-1.5v-0.2
		c-0.6,0.4-1.2,0.6-2,0.6c-2.2,0-3.8-1.6-3.8-3.8c0-2.2,1.6-3.8,3.8-3.8c0.9,0,1.7,0.3,2.4,0.9l0.3-0.6H139.6z M137.2,122.9
		c0-1-0.7-1.6-1.6-1.6c-0.9,0-1.6,0.7-1.6,1.6c0,1,0.7,1.7,1.6,1.7C136.5,124.6,137.2,123.9,137.2,122.9z"/>
	<path d="M143.9,123.1c0-2.3,1.8-4,4.2-4c2.5,0,4.2,1.7,4.2,4c0,2.3-1.8,4-4.2,4C145.6,127.1,143.9,125.5,143.9,123.1z M148.1,124.8
		c1,0,1.6-0.7,1.6-1.7c0-1-0.7-1.7-1.6-1.7s-1.6,0.7-1.6,1.7S147.1,124.8,148.1,124.8L148.1,124.8z"/>
	<path d="M153.4,123.7v-4.3h2.6v4.2c0,0.8,0.4,1.3,1.1,1.3s1.1-0.5,1.1-1.3v-4.2h2.6v4.3c0,2.1-1.5,3.5-3.7,3.5
		S153.4,125.8,153.4,123.7z"/>
	<path d="M167.4,119.3v2.4h-1c-0.9,0-1.3,0.4-1.3,1.4v3.8h-2.6v-7.6h1.7l0.4,0.8c0.5-0.6,1.2-0.9,2.1-0.9H167.4z"/>
	<path d="M170.6,123.1c0-2.3,1.8-4,4.2-4c2.5,0,4.2,1.7,4.2,4c0,2.3-1.8,4-4.2,4C172.4,127.1,170.6,125.5,170.6,123.1z M174.9,124.8
		c0.9,0,1.6-0.7,1.6-1.7c0-1-0.7-1.7-1.6-1.7c-1,0-1.6,0.7-1.6,1.7S173.9,124.8,174.9,124.8L174.9,124.8z"/>
	<path d="M191.3,119.3l-2.4,7.6h-2.1l-1.5-3.4l-1.5,3.4h-2.1l-2.5-7.6h2.7l1.1,4l1.8-3.9h0.7l1.9,4l1.1-4H191.3z"/>
	<path d="M199.7,122.3v4.6h-2.6v-4.3c0-0.9-0.3-1.3-1-1.3c-0.8,0-1.3,0.6-1.3,1.5v4h-2.6v-7.6h1.8l0.4,0.8c0.6-0.6,1.4-1,2.4-1
		C198.5,119.1,199.7,120.4,199.7,122.3z"/>
	<path d="M33.3,133.4v10.3h-1.9l-0.2-0.6c-0.6,0.5-1.4,0.8-2.3,0.8c-2.3,0-4-1.7-4-4c0-2.4,1.7-4,4-4c0.7,0,1.3,0.2,1.9,0.5v-3H33.3
		z M30.9,139.9c0-1-0.7-1.7-1.7-1.7c-1,0-1.7,0.7-1.7,1.7c0,1,0.7,1.7,1.7,1.7C30.2,141.6,30.9,140.9,30.9,139.9z"/>
	<path d="M42.7,140.5h-5.6c0.2,0.9,0.7,1.3,1.5,1.3c0.6,0,1.1-0.3,1.4-0.7h2.6c-0.5,1.7-2.1,2.8-4,2.8c-2.4,0-4.1-1.7-4.1-4
		c0-2.3,1.7-4,4.1-4c2.4,0,4.1,1.7,4.1,4C42.8,140.1,42.8,140.3,42.7,140.5z M37.1,139.1h3.1c-0.2-0.8-0.8-1.2-1.6-1.2
		C37.9,137.9,37.4,138.3,37.1,139.1z"/>
	<path d="M43.5,139.9c0-2.3,1.7-4,4.2-4c2.1,0,3.7,1.3,4,3.4h-2.5c-0.2-0.6-0.8-1-1.5-1c-0.9,0-1.6,0.7-1.6,1.7c0,1,0.7,1.7,1.6,1.7
		c0.7,0,1.3-0.4,1.5-1.1h2.6c-0.3,2.1-1.9,3.4-4,3.4C45.3,143.9,43.5,142.2,43.5,139.9z"/>
	<path d="M60.6,140.5H55c0.2,0.9,0.7,1.3,1.5,1.3c0.6,0,1.1-0.3,1.4-0.7h2.6c-0.5,1.7-2.1,2.8-4,2.8c-2.4,0-4.1-1.7-4.1-4
		c0-2.3,1.7-4,4.1-4c2.4,0,4.1,1.7,4.1,4C60.7,140.1,60.6,140.3,60.6,140.5z M55,139.1h3.1c-0.2-0.8-0.8-1.2-1.6-1.2
		C55.8,137.9,55.2,138.3,55,139.1z"/>
	<path d="M69.3,139.1v4.6h-2.6v-4.3c0-0.9-0.3-1.3-1-1.3c-0.8,0-1.3,0.6-1.3,1.5v4h-2.6v-7.6h1.8l0.4,0.8c0.6-0.6,1.4-1,2.4-1
		C68.2,135.9,69.3,137.2,69.3,139.1z"/>
	<path d="M75.9,141.4v2.3h-1.8c-1.7,0-2.7-1-2.7-2.7v-2.9H70v-0.6l3.4-3.6H74v2.2h1.9v2H74v2.4c0,0.5,0.3,0.9,0.9,0.9H75.9z"/>
	<path d="M82,136.1v2.4h-1c-0.9,0-1.3,0.4-1.3,1.4v3.8h-2.6v-7.6h1.7l0.4,0.8c0.5-0.6,1.2-0.9,2.1-0.9H82z"/>
	<path d="M91,136.1v7.6h-2l-0.2-0.5c-0.6,0.5-1.4,0.8-2.3,0.8c-2.3,0-4-1.7-4-4c0-2.3,1.7-4,4-4c0.9,0,1.7,0.3,2.3,0.8l0.3-0.6H91z
		 M88.5,139.9c0-1-0.7-1.7-1.7-1.7c-1,0-1.7,0.7-1.7,1.7c0,1,0.7,1.7,1.7,1.7C87.8,141.6,88.5,140.9,88.5,139.9z"/>
	<path d="M92.6,133.4h2.6v10.3h-2.6V133.4z"/>
	<path d="M96.8,136.1h2.6v7.6h-2.6V136.1z M96.8,133h2.6v2.2h-2.6V133z"/>
	<path d="M107.1,141.4v2.3h-6.5v-0.4l2.9-4.9h-2.6v-2.3h6.2v0.4l-2.9,4.8H107.1z"/>
	<path d="M115.9,140.5h-5.6c0.2,0.9,0.7,1.3,1.5,1.3c0.6,0,1.1-0.3,1.4-0.7h2.6c-0.5,1.7-2.1,2.8-4,2.8c-2.4,0-4.1-1.7-4.1-4
		c0-2.3,1.7-4,4.1-4c2.4,0,4.1,1.7,4.1,4C116,140.1,116,140.3,115.9,140.5z M110.4,139.1h3.1c-0.2-0.8-0.8-1.2-1.6-1.2
		C111.1,137.9,110.6,138.3,110.4,139.1z"/>
	<path d="M125.1,133.4v10.3h-1.9l-0.2-0.6c-0.6,0.5-1.4,0.8-2.3,0.8c-2.3,0-4-1.7-4-4c0-2.4,1.7-4,4-4c0.7,0,1.3,0.2,1.9,0.5v-3
		H125.1z M122.7,139.9c0-1-0.7-1.7-1.7-1.7c-1,0-1.7,0.7-1.7,1.7c0,1,0.7,1.7,1.7,1.7C122,141.6,122.7,140.9,122.7,139.9z"/>
	<path d="M137.6,140.5h-5.6c0.2,0.9,0.7,1.3,1.5,1.3c0.6,0,1.1-0.3,1.4-0.7h2.6c-0.5,1.7-2.1,2.8-4,2.8c-2.4,0-4.1-1.7-4.1-4
		c0-2.3,1.7-4,4.1-4c2.4,0,4.1,1.7,4.1,4C137.6,140.1,137.6,140.3,137.6,140.5z M132,139.1h3.1c-0.2-0.8-0.8-1.2-1.6-1.2
		C132.7,137.9,132.2,138.3,132,139.1z"/>
	<path d="M142.9,143.7l-1.2-2.2l-1.3,2.2h-2.9l2.5-3.9l-2.3-3.6h2.9l1.1,1.9l1.1-1.9h2.8l-2.3,3.6l2.5,4H142.9z"/>
	<path d="M145.7,139.9c0-2.3,1.7-4,4.2-4c2.1,0,3.7,1.3,4,3.4h-2.5c-0.2-0.6-0.8-1-1.5-1c-0.9,0-1.6,0.7-1.6,1.7
		c0,1,0.7,1.7,1.6,1.7c0.7,0,1.3-0.4,1.5-1.1h2.6c-0.3,2.1-1.9,3.4-4,3.4C147.5,143.9,145.7,142.2,145.7,139.9z"/>
	<path d="M162.6,139.1v4.6H160v-4.3c0-0.9-0.3-1.3-1-1.3c-0.8,0-1.3,0.6-1.3,1.5v4h-2.6v-10.3h2.6v3.2c0.6-0.4,1.3-0.7,2-0.7
		C161.4,135.9,162.6,137.2,162.6,139.1z"/>
	<path d="M172.2,136.1v7.6h-2l-0.2-0.5c-0.6,0.5-1.4,0.8-2.3,0.8c-2.3,0-4-1.7-4-4c0-2.3,1.7-4,4-4c0.9,0,1.7,0.3,2.3,0.8l0.3-0.6
		H172.2z M169.7,139.9c0-1-0.7-1.7-1.7-1.7c-1,0-1.7,0.7-1.7,1.7c0,1,0.7,1.7,1.7,1.7C169,141.6,169.7,140.9,169.7,139.9z"/>
	<path d="M181.3,139.1v4.6h-2.6v-4.3c0-0.9-0.3-1.3-1-1.3c-0.8,0-1.3,0.6-1.3,1.5v4h-2.6v-7.6h1.8l0.4,0.8c0.6-0.6,1.4-1,2.4-1
		C180.1,135.9,181.3,137.2,181.3,139.1z"/>
	<path d="M190.7,136.1v6.7c0,2.4-1.6,3.8-4.1,3.8c-2.1,0-3.6-1.1-4-2.9h2.5c0.2,0.5,0.8,0.8,1.5,0.8c0.9,0,1.6-0.6,1.6-1.5v-0.2
		c-0.6,0.4-1.2,0.6-2,0.6c-2.2,0-3.8-1.6-3.8-3.8c0-2.2,1.6-3.8,3.8-3.8c0.9,0,1.7,0.3,2.4,0.9l0.3-0.6H190.7z M188.2,139.7
		c0-1-0.7-1.6-1.6-1.6c-0.9,0-1.6,0.7-1.6,1.6c0,1,0.7,1.7,1.6,1.7C187.5,141.4,188.2,140.7,188.2,139.7z"/>
	<path d="M200.1,139.8c0,0.2,0,0.5-0.1,0.7h-5.6c0.2,0.9,0.7,1.3,1.5,1.3c0.6,0,1.1-0.3,1.4-0.7h2.6c-0.5,1.7-2.1,2.8-4,2.8
		c-2.4,0-4.1-1.7-4.1-4c0-2.3,1.7-4,4.1-4C198.4,135.9,200.1,137.6,200.1,139.8L200.1,139.8z M194.5,139.1h3.1
		c-0.2-0.8-0.8-1.2-1.6-1.2C195.2,137.9,194.7,138.3,194.5,139.1z"/>
</g>
</svg>
