<?xml version="1.0" encoding="utf-8"?>
<!-- Generator: Adobe Illustrator 26.0.0, SVG Export Plug-In . SVG Version: 6.00 Build 0)  -->
<svg version="1.1" id="Layer_1" xmlns="http://www.w3.org/2000/svg" xmlns:xlink="http://www.w3.org/1999/xlink" x="0px" y="0px"
	 viewBox="0 0 236.8 180.2" style="enable-background:new 0 0 236.8 180.2;" xml:space="preserve">
<style type="text/css">
	.st0{fill:#FFFFFF;}
	.st1{fill:url(#SVGID_1_);}
	.st2{fill:url(#SVGID_00000176754567224201978890000015784624492352220849_);}
	.st3{fill:url(#SVGID_00000078025357293622651540000011754738436505970093_);}
	.st4{fill:#0B1D51;}
	.st5{fill:#EDF3FC;}
	.st6{fill:#FFBE1B;}
	.st7{fill:#FFE37B;}
	.st8{fill:#5D8EF9;}
	.st9{fill:#330D84;}
	.st10{fill:#6857E5;}
	.st11{fill:#8AC9F9;}
	.st12{fill:#8C7BFD;}
	.st13{fill:#5932AE;}
	.st14{fill:#FFF30B;}
	.st15{fill:#EF4237;}
	.st16{fill:#04A752;}
	.st17{fill:#2F2A2A;}
	.st18{fill:#FEE206;}
</style>
<g>
	<g>
		<g>
			<path class="st0" d="M218.3,179.5H20.8c-2.8,0-5.3-1-7.3-2.6c-2.7-2.2-4.4-5.5-4.4-9.2V70.7c0-2.9,1-5.5,2.8-7.6
				c2.2-2.5,5.4-4.1,9-4.1h197.5c3.2,0,6.2,1.3,8.3,3.4c2.1,2.1,3.4,5.1,3.4,8.3v97.1c0,3.1-1.2,6-3.2,8.1
				C224.7,178.1,221.7,179.5,218.3,179.5z"/>
			<linearGradient id="SVGID_1_" gradientUnits="userSpaceOnUse" x1="9.1589" y1="75.9827" x2="9.1589" y2="162.413">
				<stop  offset="0" style="stop-color:#EF1C71"/>
				<stop  offset="0.9906" style="stop-color:#AE0080"/>
			</linearGradient>
			<path class="st1" d="M14.2,162.4h-10c-0.5,0-1-0.2-1.3-0.5c-0.3-0.3-0.5-0.8-0.5-1.3V77.8c0-0.4,0.1-0.7,0.3-1
				C3,76.3,3.5,76,4.1,76h10c0.5,0,1,0.2,1.3,0.5c0.3,0.3,0.5,0.8,0.5,1.3v82.8c0,0.5-0.2,1-0.5,1.3
				C15.1,162.2,14.7,162.4,14.2,162.4z"/>
			
				<linearGradient id="SVGID_00000151532653152904040770000016026953653903770039_" gradientUnits="userSpaceOnUse" x1="230.0806" y1="75.9827" x2="230.0806" y2="162.413">
				<stop  offset="0" style="stop-color:#EF1C71"/>
				<stop  offset="0.9906" style="stop-color:#AE0080"/>
			</linearGradient>
			<path style="fill:url(#SVGID_00000151532653152904040770000016026953653903770039_);" d="M235.1,162.4h-10c-0.4,0-0.7-0.1-1-0.3
				c-0.5-0.3-0.8-0.9-0.8-1.5V77.8c0-0.4,0.1-0.8,0.4-1.1c0.3-0.4,0.9-0.7,1.4-0.7h10c0.7,0,1.3,0.4,1.6,1c0.1,0.3,0.2,0.5,0.2,0.9
				v82.8c0,0.6-0.3,1.1-0.8,1.5C235.9,162.3,235.5,162.4,235.1,162.4z"/>
			<circle class="st0" cx="119.6" cy="49.1" r="45.7"/>
			
				<linearGradient id="SVGID_00000108286548724197364890000013543736054137945235_" gradientUnits="userSpaceOnUse" x1="119.592" y1="11.3161" x2="119.592" y2="86.9708">
				<stop  offset="0" style="stop-color:#EF1C71"/>
				<stop  offset="0.9906" style="stop-color:#AE0080"/>
			</linearGradient>
			<circle style="fill:url(#SVGID_00000108286548724197364890000013543736054137945235_);" cx="119.6" cy="49.1" r="37.8"/>
		</g>
		<g>
			<path class="st4" d="M56.7,110.1V97.5h3.6v9.8h6v2.8H56.7z"/>
			<path class="st4" d="M66.3,110.1l5.6-12.6h3.5l5.6,12.6h-3.7l-4.4-10.9h1.4L70,110.1H66.3z M69.4,107.6l0.9-2.6h6.2l0.9,2.6H69.4
				z"/>
			<path class="st4" d="M87.5,110.3c-1.9,0-3.3-0.5-4.4-1.5c-1-1-1.6-2.5-1.6-4.3v-7h3.6v6.9c0,1.1,0.2,1.9,0.6,2.3
				c0.4,0.5,1,0.7,1.8,0.7s1.3-0.2,1.7-0.7c0.4-0.5,0.6-1.2,0.6-2.3v-6.9h3.5v7c0,1.9-0.5,3.3-1.6,4.3
				C90.8,109.8,89.4,110.3,87.5,110.3z"/>
			<path class="st4" d="M95.9,110.1V97.5h2.9l6.9,8.4h-1.4v-8.4h3.5v12.6h-2.9l-6.9-8.4h1.4v8.4H95.9z"/>
			<path class="st4" d="M116.6,110.3c-1,0-1.9-0.2-2.8-0.5c-0.8-0.3-1.6-0.8-2.2-1.4s-1.1-1.3-1.4-2.1c-0.3-0.8-0.5-1.7-0.5-2.6
				s0.2-1.8,0.5-2.6c0.3-0.8,0.8-1.5,1.4-2.1s1.4-1,2.2-1.4c0.8-0.3,1.8-0.5,2.8-0.5c1.2,0,2.2,0.2,3.1,0.6c0.9,0.4,1.7,1,2.3,1.8
				l-2.3,2.1c-0.4-0.5-0.9-0.8-1.3-1.1c-0.5-0.3-1-0.4-1.6-0.4c-0.5,0-1,0.1-1.4,0.3c-0.4,0.2-0.8,0.4-1.1,0.7
				c-0.3,0.3-0.5,0.7-0.7,1.1c-0.2,0.4-0.3,0.9-0.3,1.5s0.1,1,0.3,1.5c0.2,0.4,0.4,0.8,0.7,1.1s0.7,0.6,1.1,0.7
				c0.4,0.2,0.9,0.3,1.4,0.3c0.6,0,1.1-0.1,1.6-0.4c0.5-0.3,0.9-0.6,1.3-1.1l2.3,2.1c-0.6,0.8-1.4,1.3-2.3,1.8
				S117.8,110.3,116.6,110.3z"/>
			<path class="st4" d="M127.2,110.1h-3.6V97.5h3.6V110.1z M132.3,105.1H127v-3h5.4V105.1z M132.1,97.5h3.6v12.6h-3.6V97.5z"/>
			<path class="st4" d="M138.2,110.1V97.5h5.8c1.2,0,2.1,0.2,3,0.6c0.8,0.4,1.5,0.9,1.9,1.6s0.7,1.5,0.7,2.5c0,0.9-0.2,1.8-0.7,2.5
				s-1.1,1.2-1.9,1.6s-1.8,0.6-3,0.6h-3.8l1.6-1.5v4.8H138.2z M141.7,105.6l-1.6-1.6h3.6c0.7,0,1.3-0.2,1.7-0.5s0.5-0.8,0.5-1.3
				c0-0.6-0.2-1-0.5-1.4s-0.9-0.5-1.7-0.5h-3.6l1.6-1.6V105.6z"/>
			<path class="st4" d="M149.1,110.1l5.6-12.6h3.5l5.6,12.6H160l-4.4-10.9h1.4l-4.4,10.9H149.1z M152.1,107.6l0.9-2.6h6.2l0.9,2.6
				H152.1z"/>
			<path class="st4" d="M164.8,110.1V97.5h6c1.4,0,2.6,0.3,3.7,0.8c1.1,0.5,1.9,1.2,2.5,2.2c0.6,0.9,0.9,2.1,0.9,3.3
				c0,1.3-0.3,2.4-0.9,3.3c-0.6,0.9-1.4,1.7-2.5,2.2c-1.1,0.5-2.3,0.8-3.7,0.8H164.8z M168.3,107.2h2.2c0.7,0,1.3-0.1,1.9-0.4
				c0.5-0.3,1-0.7,1.3-1.2c0.3-0.5,0.5-1.1,0.5-1.9c0-0.7-0.2-1.4-0.5-1.9c-0.3-0.5-0.7-0.9-1.3-1.2c-0.5-0.3-1.2-0.4-1.9-0.4h-2.2
				V107.2z"/>
		</g>
	</g>
</g>
<g>
	<path d="M25.3,123.9v2.3h-5.8v-9.1H22v6.8H25.3z"/>
	<path d="M33.7,119.1v7h-1.9l-0.2-0.5c-0.6,0.5-1.3,0.7-2.1,0.7c-2.1,0-3.7-1.6-3.7-3.7c0-2.2,1.5-3.7,3.7-3.7
		c0.8,0,1.6,0.3,2.1,0.8l0.2-0.5H33.7z M31.4,122.6c0-0.9-0.7-1.6-1.6-1.6c-0.9,0-1.6,0.7-1.6,1.6c0,0.9,0.7,1.6,1.6,1.6
		C30.7,124.2,31.4,123.6,31.4,122.6z"/>
	<path d="M35.1,123.1v-4h2.4v3.9c0,0.7,0.4,1.2,1,1.2s1-0.4,1-1.2v-3.9H42v4c0,2-1.4,3.2-3.5,3.2C36.5,126.4,35.1,125.1,35.1,123.1z
		"/>
	<path d="M43.1,122.6c0-2.2,1.6-3.7,3.9-3.7c2,0,3.5,1.2,3.7,3.1h-2.4c-0.2-0.6-0.7-0.9-1.4-0.9c-0.8,0-1.5,0.6-1.5,1.6
		s0.6,1.6,1.5,1.6c0.6,0,1.2-0.4,1.4-1h2.4c-0.3,1.9-1.8,3.2-3.8,3.2C44.7,126.4,43.1,124.8,43.1,122.6z"/>
	<path d="M58.7,121.9v4.2h-2.4v-3.9c0-0.8-0.3-1.2-0.9-1.2c-0.7,0-1.2,0.5-1.2,1.4v3.7h-2.4v-9.6h2.4v3c0.5-0.4,1.2-0.7,1.9-0.7
		C57.6,118.9,58.7,120.1,58.7,121.9z"/>
	<path d="M67.9,122.6c0,2.2-1.5,3.7-3.7,3.7c-0.6,0-1.2-0.2-1.7-0.5v2.8h-2.4v-9.6h1.6l0.3,0.6c0.6-0.5,1.3-0.8,2.2-0.8
		C66.4,118.9,67.9,120.5,67.9,122.6z M65.5,122.6c0-0.9-0.7-1.6-1.6-1.6c-0.9,0-1.6,0.7-1.6,1.6s0.7,1.6,1.6,1.6
		C64.8,124.2,65.5,123.6,65.5,122.6z"/>
	<path d="M76.5,119.1v7h-1.9l-0.2-0.5c-0.6,0.5-1.3,0.7-2.1,0.7c-2.1,0-3.7-1.6-3.7-3.7c0-2.2,1.5-3.7,3.7-3.7
		c0.8,0,1.6,0.3,2.1,0.8l0.2-0.5H76.5z M74.2,122.6c0-0.9-0.7-1.6-1.6-1.6c-0.9,0-1.6,0.7-1.6,1.6c0,0.9,0.7,1.6,1.6,1.6
		C73.5,124.2,74.2,123.6,74.2,122.6z"/>
	<path d="M85.4,116.6v9.6h-1.8l-0.2-0.5c-0.6,0.5-1.3,0.8-2.1,0.8c-2.2,0-3.7-1.6-3.7-3.7s1.5-3.7,3.7-3.7c0.6,0,1.2,0.2,1.7,0.5
		v-2.8H85.4z M83.2,122.6c0-0.9-0.7-1.6-1.6-1.6c-0.9,0-1.6,0.7-1.6,1.6c0,0.9,0.7,1.6,1.6,1.6C82.5,124.2,83.2,123.6,83.2,122.6z"
		/>
	<path d="M94.4,121.1h-1.6v5h-2.4v-5h-1.2l0-1.9h1.2v-0.7c0-1.4,0.8-2.2,2.3-2.2h1.7v1.9h-1.1c-0.4,0-0.6,0.2-0.6,0.6v0.5h1.7V121.1
		z"/>
	<path d="M94.8,122.6c0-2.2,1.6-3.7,3.9-3.7c2.3,0,3.9,1.6,3.9,3.7c0,2.2-1.7,3.7-3.9,3.7C96.5,126.4,94.8,124.8,94.8,122.6z
		 M100.3,122.6c0-0.9-0.6-1.6-1.5-1.6c-0.9,0-1.5,0.6-1.5,1.6s0.6,1.6,1.5,1.6C99.6,124.2,100.3,123.6,100.3,122.6z"/>
	<path d="M108.4,119.1v2.2h-0.9c-0.9,0-1.2,0.4-1.2,1.3v3.6h-2.4v-7h1.6l0.4,0.8c0.5-0.6,1.1-0.8,1.9-0.8H108.4z"/>
	<path d="M119.2,116.6v9.6h-1.8l-0.2-0.5c-0.6,0.5-1.3,0.8-2.1,0.8c-2.2,0-3.7-1.6-3.7-3.7s1.5-3.7,3.7-3.7c0.6,0,1.2,0.2,1.7,0.5
		v-2.8H119.2z M117,122.6c0-0.9-0.7-1.6-1.6-1.6c-0.9,0-1.6,0.7-1.6,1.6c0,0.9,0.7,1.6,1.6,1.6C116.3,124.2,117,123.6,117,122.6z"/>
	<path d="M120.8,119.1h2.4v7h-2.4V119.1z M120.8,116.2h2.4v2.1h-2.4V116.2z"/>
	<path d="M129.4,121.1h-1.6v5h-2.4v-5h-1.2l0-1.9h1.2v-0.7c0-1.4,0.8-2.2,2.3-2.2h1.7v1.9h-1.1c-0.4,0-0.6,0.2-0.6,0.6v0.5h1.7
		V121.1z"/>
	<path d="M135,121.1h-1.6v5H131v-5h-1.2l0-1.9h1.2v-0.7c0-1.4,0.8-2.2,2.3-2.2h1.7v1.9h-1.1c-0.4,0-0.6,0.2-0.6,0.6v0.5h1.7V121.1z"
		/>
	<path d="M143,123.2h-5.2c0.2,0.8,0.7,1.2,1.4,1.2c0.6,0,1-0.2,1.3-0.7h2.4c-0.5,1.6-1.9,2.6-3.7,2.6c-2.2,0-3.8-1.6-3.8-3.7
		c0-2.2,1.6-3.7,3.8-3.7c2.3,0,3.8,1.6,3.8,3.7C143,122.8,143,123,143,123.2z M137.8,121.9h2.8c-0.2-0.7-0.7-1.1-1.4-1.1
		C138.5,120.8,138,121.2,137.8,121.9z"/>
	<path d="M148.7,119.1v2.2h-0.9c-0.9,0-1.2,0.4-1.2,1.3v3.6h-2.4v-7h1.6l0.4,0.8c0.5-0.6,1.1-0.8,1.9-0.8H148.7z"/>
	<path d="M156.7,122.6c0,0.2,0,0.4,0,0.6h-5.2c0.2,0.8,0.7,1.2,1.4,1.2c0.6,0,1-0.2,1.3-0.7h2.4c-0.5,1.6-1.9,2.6-3.7,2.6
		c-2.2,0-3.8-1.6-3.8-3.7c0-2.2,1.6-3.7,3.8-3.7C155.2,118.9,156.7,120.5,156.7,122.6L156.7,122.6z M151.5,121.9h2.8
		c-0.2-0.7-0.7-1.1-1.4-1.1C152.2,120.8,151.7,121.2,151.5,121.9z"/>
	<path d="M164.8,121.9v4.3h-2.4v-3.9c0-0.8-0.3-1.2-0.9-1.2c-0.8,0-1.2,0.5-1.2,1.4v3.7h-2.4v-7h1.7l0.3,0.7
		c0.5-0.6,1.3-0.9,2.2-0.9C163.7,118.9,164.8,120.1,164.8,121.9z"/>
	<path d="M170.9,124v2.1h-1.7c-1.6,0-2.5-0.9-2.5-2.5V121h-1.3v-0.6l3.1-3.3h0.5v2.1h1.8v1.9h-1.7v2.2c0,0.5,0.3,0.8,0.8,0.8H170.9z
		"/>
	<path d="M174.4,122.6c0-2.2,1.6-3.7,3.9-3.7c2,0,3.5,1.2,3.7,3.1h-2.4c-0.2-0.6-0.7-0.9-1.4-0.9c-0.8,0-1.5,0.6-1.5,1.6
		s0.6,1.6,1.5,1.6c0.6,0,1.2-0.4,1.4-1h2.4c-0.3,1.9-1.8,3.2-3.8,3.2C176.1,126.4,174.4,124.8,174.4,122.6z"/>
	<path d="M187.7,119.1v2.2h-0.9c-0.9,0-1.2,0.4-1.2,1.3v3.6h-2.4v-7h1.6l0.4,0.8c0.5-0.6,1.1-0.8,1.9-0.8H187.7z"/>
	<path d="M196,119.1l-2.9,6.7c-0.9,2.1-1.8,2.9-3.6,2.9h-0.8v-2.1h0.7c0.9,0,1.2-0.2,1.5-1.1l-2.9-6.4h2.6l1.5,3.9l1.4-3.9H196z"/>
	<path d="M204.5,122.6c0,2.2-1.5,3.7-3.7,3.7c-0.6,0-1.2-0.2-1.7-0.5v2.8h-2.4v-9.6h1.6l0.3,0.6c0.6-0.5,1.3-0.8,2.2-0.8
		C203,118.9,204.5,120.5,204.5,122.6z M202.1,122.6c0-0.9-0.7-1.6-1.6-1.6c-0.9,0-1.6,0.7-1.6,1.6s0.7,1.6,1.6,1.6
		C201.4,124.2,202.1,123.6,202.1,122.6z"/>
	<path d="M210.2,124v2.1h-1.7c-1.6,0-2.5-0.9-2.5-2.5V121h-1.3v-0.6l3.1-3.3h0.5v2.1h1.8v1.9h-1.7v2.2c0,0.5,0.3,0.8,0.8,0.8H210.2z
		"/>
	<path d="M210.9,122.6c0-2.2,1.6-3.7,3.9-3.7c2.3,0,3.9,1.6,3.9,3.7c0,2.2-1.7,3.7-3.9,3.7C212.5,126.4,210.9,124.8,210.9,122.6z
		 M216.3,122.6c0-0.9-0.6-1.6-1.5-1.6s-1.5,0.6-1.5,1.6s0.6,1.6,1.5,1.6S216.3,123.6,216.3,122.6z"/>
	<path d="M37.9,138.2c0,2.2-1.5,3.7-3.7,3.7c-0.6,0-1.2-0.2-1.7-0.5v2.8h-2.4v-9.6h1.6l0.3,0.6c0.6-0.5,1.3-0.8,2.2-0.8
		C36.3,134.5,37.9,136.1,37.9,138.2z M35.4,138.2c0-0.9-0.7-1.6-1.6-1.6c-0.9,0-1.6,0.7-1.6,1.6c0,0.9,0.7,1.6,1.6,1.6
		C34.8,139.8,35.4,139.2,35.4,138.2z"/>
	<path d="M43.6,134.7v2.2h-0.9c-0.9,0-1.2,0.4-1.2,1.3v3.6H39v-7h1.6l0.4,0.8c0.5-0.6,1.1-0.8,1.9-0.8H43.6z"/>
	<path d="M43.9,138.2c0-2.2,1.6-3.7,3.9-3.7c2.3,0,3.9,1.6,3.9,3.7c0,2.2-1.7,3.7-3.9,3.7C45.6,142,43.9,140.4,43.9,138.2z
		 M49.4,138.2c0-0.9-0.6-1.6-1.5-1.6s-1.5,0.6-1.5,1.6c0,0.9,0.6,1.6,1.5,1.6S49.4,139.2,49.4,138.2z"/>
	<path d="M51.6,142.3h0.6c0.6,0,0.9-0.3,0.9-0.9v-6.6h2.4v6.8c0,1.8-1.1,2.9-3,2.9h-0.9V142.3z M53.1,131.8h2.4v2.1h-2.4V131.8z"/>
	<path d="M64.2,138.8H59c0.2,0.8,0.7,1.2,1.4,1.2c0.6,0,1-0.2,1.3-0.7h2.4c-0.5,1.6-1.9,2.6-3.7,2.6c-2.2,0-3.8-1.6-3.8-3.7
		c0-2.2,1.6-3.7,3.8-3.7c2.3,0,3.8,1.6,3.8,3.7C64.3,138.4,64.2,138.6,64.2,138.8z M59,137.5h2.8c-0.2-0.7-0.7-1.1-1.4-1.1
		C59.7,136.4,59.2,136.8,59,137.5z"/>
	<path d="M65,138.2c0-2.2,1.6-3.7,3.9-3.7c2,0,3.5,1.2,3.7,3.1h-2.4c-0.2-0.6-0.7-0.9-1.4-0.9c-0.8,0-1.5,0.6-1.5,1.6
		c0,0.9,0.6,1.6,1.5,1.6c0.6,0,1.2-0.4,1.4-1h2.4c-0.3,1.9-1.8,3.2-3.8,3.2C66.6,142,65,140.4,65,138.2z"/>
	<path d="M78.3,139.6v2.1h-1.7c-1.6,0-2.5-0.9-2.5-2.5v-2.6h-1.3V136l3.1-3.3h0.5v2.1h1.8v1.9h-1.7v2.2c0,0.5,0.3,0.8,0.8,0.8H78.3z
		"/>
	<path d="M82.1,142c-1.9,0-3.1-1-3.1-2.5h2.3c0,0.5,0.4,0.8,0.8,0.8c0.4,0,0.7-0.2,0.7-0.5c0-0.4-0.5-0.5-1.2-0.6
		c-1.1-0.2-2.5-0.5-2.5-2.2c0-1.4,1.2-2.3,3-2.3c1.8,0,2.9,1,3,2.4h-2.3c0-0.4-0.3-0.7-0.7-0.7c-0.4,0-0.6,0.2-0.6,0.5
		c0,0.4,0.5,0.5,1.2,0.6c1.1,0.2,2.6,0.4,2.6,2.2C85.2,141,84,142,82.1,142L82.1,142z"/>
	<path d="M99.6,134.7l-2.2,7h-1.9l-1.4-3.1l-1.4,3.1h-1.9l-2.3-7H91l1.1,3.7l1.7-3.7h0.7l1.8,3.7l1-3.7H99.6z"/>
	<path d="M107.4,137.5v4.2H105v-3.9c0-0.8-0.3-1.2-0.9-1.2c-0.7,0-1.2,0.5-1.2,1.4v3.7h-2.4v-9.6h2.4v3c0.5-0.4,1.2-0.7,1.9-0.7
		C106.4,134.5,107.4,135.7,107.4,137.5z"/>
	<path d="M116,138.8h-5.2c0.2,0.8,0.7,1.2,1.4,1.2c0.6,0,1-0.2,1.3-0.7h2.4c-0.5,1.6-1.9,2.6-3.7,2.6c-2.2,0-3.8-1.6-3.8-3.7
		c0-2.2,1.6-3.7,3.8-3.7c2.3,0,3.8,1.6,3.8,3.7C116.1,138.4,116.1,138.6,116,138.8z M110.9,137.5h2.8c-0.2-0.7-0.7-1.1-1.4-1.1
		C111.5,136.4,111.1,136.8,110.9,137.5z"/>
	<path d="M121.8,134.7v2.2h-0.9c-0.9,0-1.2,0.4-1.2,1.3v3.6h-2.4v-7h1.6l0.4,0.8c0.5-0.6,1.1-0.8,1.9-0.8H121.8z"/>
	<path d="M129.7,138.8h-5.2c0.2,0.8,0.7,1.2,1.4,1.2c0.6,0,1-0.2,1.3-0.7h2.4c-0.5,1.6-1.9,2.6-3.7,2.6c-2.2,0-3.8-1.6-3.8-3.7
		c0-2.2,1.6-3.7,3.8-3.7c2.3,0,3.8,1.6,3.8,3.7C129.8,138.4,129.8,138.6,129.7,138.8z M124.6,137.5h2.8c-0.2-0.7-0.7-1.1-1.4-1.1
		C125.3,136.4,124.8,136.8,124.6,137.5z"/>
	<path d="M141.5,138.2c0,2.2-1.5,3.7-3.7,3.7c-0.6,0-1.2-0.2-1.7-0.5v2.8h-2.4v-9.6h1.6l0.3,0.6c0.6-0.5,1.3-0.8,2.2-0.8
		C140,134.5,141.5,136.1,141.5,138.2z M139.1,138.2c0-0.9-0.7-1.6-1.6-1.6c-0.9,0-1.6,0.7-1.6,1.6c0,0.9,0.7,1.6,1.6,1.6
		C138.4,139.8,139.1,139.2,139.1,138.2z"/>
	<path d="M149.8,138.2c0,0.2,0,0.4,0,0.6h-5.2c0.2,0.8,0.7,1.2,1.4,1.2c0.6,0,1-0.2,1.3-0.7h2.4c-0.5,1.6-1.9,2.6-3.7,2.6
		c-2.2,0-3.8-1.6-3.8-3.7c0-2.2,1.6-3.7,3.8-3.7C148.3,134.5,149.8,136.1,149.8,138.2L149.8,138.2z M144.6,137.5h2.8
		c-0.2-0.7-0.7-1.1-1.4-1.1C145.3,136.4,144.8,136.8,144.6,137.5z"/>
	<path d="M150.5,138.2c0-2.2,1.6-3.7,3.9-3.7c2.3,0,3.9,1.6,3.9,3.7c0,2.2-1.7,3.7-3.9,3.7C152.2,142,150.5,140.4,150.5,138.2z
		 M156,138.2c0-0.9-0.6-1.6-1.5-1.6s-1.5,0.6-1.5,1.6c0,0.9,0.6,1.6,1.5,1.6S156,139.2,156,138.2z"/>
	<path d="M167.3,138.2c0,2.2-1.5,3.7-3.7,3.7c-0.6,0-1.2-0.2-1.7-0.5v2.8h-2.4v-9.6h1.6l0.3,0.6c0.6-0.5,1.3-0.8,2.2-0.8
		C165.8,134.5,167.3,136.1,167.3,138.2z M164.9,138.2c0-0.9-0.7-1.6-1.6-1.6c-0.9,0-1.6,0.7-1.6,1.6c0,0.9,0.7,1.6,1.6,1.6
		C164.2,139.8,164.9,139.2,164.9,138.2z"/>
	<path d="M168.4,132.2h2.4v9.6h-2.4V132.2z"/>
	<path d="M179.5,138.8h-5.2c0.2,0.8,0.7,1.2,1.4,1.2c0.6,0,1-0.2,1.3-0.7h2.4c-0.5,1.6-1.9,2.6-3.7,2.6c-2.2,0-3.8-1.6-3.8-3.7
		c0-2.2,1.6-3.7,3.8-3.7c2.3,0,3.8,1.6,3.8,3.7C179.6,138.4,179.6,138.6,179.5,138.8z M174.4,137.5h2.8c-0.2-0.7-0.7-1.1-1.4-1.1
		C175,136.4,174.5,136.8,174.4,137.5z"/>
	<path d="M183.1,138.2c0-2.2,1.6-3.7,3.9-3.7c2,0,3.5,1.2,3.7,3.1h-2.4c-0.2-0.6-0.7-0.9-1.4-0.9c-0.8,0-1.5,0.6-1.5,1.6
		c0,0.9,0.6,1.6,1.5,1.6c0.6,0,1.2-0.4,1.4-1h2.4c-0.3,1.9-1.8,3.2-3.8,3.2C184.7,142,183.1,140.4,183.1,138.2z"/>
	<path d="M199.2,134.7v7h-1.9l-0.2-0.5c-0.6,0.5-1.3,0.7-2.1,0.7c-2.1,0-3.7-1.6-3.7-3.7c0-2.2,1.5-3.7,3.7-3.7
		c0.8,0,1.6,0.3,2.1,0.8l0.2-0.5H199.2z M196.9,138.2c0-0.9-0.7-1.6-1.6-1.6c-0.9,0-1.6,0.7-1.6,1.6c0,0.9,0.7,1.6,1.6,1.6
		C196.3,139.8,196.9,139.2,196.9,138.2z"/>
	<path d="M207.7,137.5v4.3h-2.4v-3.9c0-0.8-0.3-1.2-0.9-1.2c-0.8,0-1.2,0.5-1.2,1.4v3.7h-2.4v-7h1.7l0.3,0.7
		c0.5-0.6,1.3-0.9,2.2-0.9C206.6,134.5,207.7,135.7,207.7,137.5z"/>
	<path d="M37.5,150.3h2.4v7h-2.4V150.3z M37.5,147.4h2.4v2.1h-2.4V147.4z"/>
	<path d="M48.4,153.1v4.3H46v-3.9c0-0.8-0.3-1.2-0.9-1.2c-0.8,0-1.2,0.5-1.2,1.4v3.8h-2.4v-7h1.7l0.3,0.7c0.5-0.6,1.3-0.9,2.2-0.9
		C47.3,150.1,48.4,151.3,48.4,153.1z"/>
	<path d="M54.5,155.2v2.1h-1.7c-1.6,0-2.5-0.9-2.5-2.5v-2.6h-1.3v-0.6l3.1-3.3h0.5v2.1h1.8v1.9h-1.7v2.2c0,0.5,0.3,0.8,0.8,0.8H54.5
		z"/>
	<path d="M62.8,154.4h-5.2c0.2,0.8,0.7,1.2,1.4,1.2c0.6,0,1-0.2,1.3-0.7h2.4c-0.5,1.6-1.9,2.6-3.7,2.6c-2.2,0-3.8-1.6-3.8-3.7
		c0-2.2,1.6-3.7,3.8-3.7c2.3,0,3.8,1.6,3.8,3.7C62.8,154,62.8,154.2,62.8,154.4z M57.6,153.1h2.8c-0.2-0.7-0.7-1.1-1.4-1.1
		C58.3,152,57.8,152.4,57.6,153.1z"/>
	<path d="M71.2,150.3v6.2c0,2.2-1.4,3.6-3.8,3.6c-2,0-3.4-1-3.7-2.7H66c0.2,0.5,0.8,0.7,1.4,0.7c0.8,0,1.5-0.5,1.5-1.3v-0.2
		c-0.5,0.3-1.2,0.5-1.8,0.5c-2,0-3.5-1.5-3.5-3.5c0-2,1.5-3.5,3.5-3.5c0.8,0,1.6,0.3,2.2,0.8l0.3-0.6H71.2z M68.9,153.6
		c0-0.9-0.6-1.5-1.5-1.5c-0.9,0-1.5,0.6-1.5,1.5c0,0.9,0.6,1.5,1.5,1.5C68.3,155.2,68.9,154.5,68.9,153.6z"/>
	<path d="M77.3,150.3v2.2h-0.9c-0.9,0-1.2,0.4-1.2,1.3v3.6h-2.4v-7h1.6l0.4,0.8c0.5-0.6,1.1-0.8,1.9-0.8H77.3z"/>
	<path d="M85.5,150.3v7h-1.9l-0.2-0.5c-0.6,0.5-1.3,0.7-2.1,0.7c-2.1,0-3.7-1.6-3.7-3.7c0-2.2,1.5-3.7,3.7-3.7
		c0.8,0,1.6,0.3,2.1,0.8l0.2-0.5H85.5z M83.2,153.8c0-0.9-0.7-1.6-1.6-1.6c-0.9,0-1.6,0.7-1.6,1.6c0,0.9,0.7,1.6,1.6,1.6
		C82.6,155.4,83.2,154.8,83.2,153.8z"/>
	<path d="M91.8,155.2v2.1h-1.7c-1.6,0-2.5-0.9-2.5-2.5v-2.6h-1.3v-0.6l3.1-3.3H90v2.1h1.8v1.9h-1.7v2.2c0,0.5,0.3,0.8,0.8,0.8H91.8z
		"/>
	<path d="M100.1,153.8c0,0.2,0,0.4,0,0.6h-5.2c0.2,0.8,0.7,1.2,1.4,1.2c0.6,0,1-0.2,1.3-0.7h2.4c-0.5,1.6-1.9,2.6-3.7,2.6
		c-2.2,0-3.8-1.6-3.8-3.7c0-2.2,1.6-3.7,3.8-3.7C98.5,150.1,100.1,151.7,100.1,153.8L100.1,153.8z M94.9,153.1h2.8
		c-0.2-0.7-0.7-1.1-1.4-1.1C95.6,152,95.1,152.4,94.9,153.1z"/>
	<path d="M108.5,155.2v2.1h-1.7c-1.6,0-2.5-0.9-2.5-2.5v-2.6h-1.3v-0.6l3.1-3.3h0.5v2.1h1.8v1.9h-1.7v2.2c0,0.5,0.3,0.8,0.8,0.8
		H108.5z"/>
	<path d="M116.6,153.1v4.2h-2.4v-3.9c0-0.8-0.3-1.2-0.9-1.2c-0.7,0-1.2,0.5-1.2,1.4v3.8h-2.4v-9.6h2.4v3c0.5-0.4,1.2-0.7,1.9-0.7
		C115.5,150.1,116.6,151.3,116.6,153.1z"/>
	<path d="M125.2,154.4H120c0.2,0.8,0.7,1.2,1.4,1.2c0.6,0,1-0.2,1.3-0.7h2.4c-0.5,1.6-1.9,2.6-3.7,2.6c-2.2,0-3.8-1.6-3.8-3.7
		c0-2.2,1.6-3.7,3.8-3.7c2.3,0,3.8,1.6,3.8,3.7C125.3,154,125.2,154.2,125.2,154.4z M120,153.1h2.8c-0.2-0.7-0.7-1.1-1.4-1.1
		C120.7,152,120.2,152.4,120,153.1z"/>
	<path d="M126.4,150.3h2.4v7h-2.4V150.3z M126.4,147.4h2.4v2.1h-2.4V147.4z"/>
	<path d="M134.9,150.3v2.2h-0.9c-0.9,0-1.2,0.4-1.2,1.3v3.6h-2.4v-7h1.6l0.4,0.8c0.5-0.6,1.1-0.8,1.9-0.8H134.9z"/>
	<path d="M137.9,153.8c0-2.2,1.6-3.7,3.9-3.7c2,0,3.5,1.2,3.7,3.1h-2.4c-0.2-0.6-0.7-0.9-1.4-0.9c-0.8,0-1.5,0.6-1.5,1.6
		s0.6,1.6,1.5,1.6c0.6,0,1.2-0.4,1.4-1h2.4c-0.3,1.9-1.8,3.2-3.8,3.2C139.5,157.6,137.9,156,137.9,153.8z"/>
	<path d="M146.2,153.8c0-2.2,1.6-3.7,3.9-3.7c2.3,0,3.9,1.6,3.9,3.7c0,2.2-1.7,3.7-3.9,3.7C147.8,157.6,146.2,156,146.2,153.8z
		 M151.6,153.8c0-0.9-0.6-1.6-1.5-1.6s-1.5,0.6-1.5,1.6c0,0.9,0.6,1.6,1.5,1.6S151.6,154.8,151.6,153.8z"/>
	<path d="M162.1,153.1v4.3h-2.4v-3.9c0-0.8-0.3-1.2-0.9-1.2c-0.8,0-1.2,0.5-1.2,1.4v3.8h-2.4v-7h1.7l0.3,0.7
		c0.5-0.6,1.3-0.9,2.2-0.9C161,150.1,162.1,151.3,162.1,153.1z"/>
	<path d="M163.1,153.8c0-2.2,1.6-3.7,3.9-3.7c2,0,3.5,1.2,3.7,3.1h-2.4c-0.2-0.6-0.7-0.9-1.4-0.9c-0.8,0-1.5,0.6-1.5,1.6
		s0.6,1.6,1.5,1.6c0.6,0,1.2-0.4,1.4-1h2.4c-0.3,1.9-1.8,3.2-3.8,3.2C164.8,157.6,163.1,156,163.1,153.8z"/>
	<path d="M179,153.8c0,0.2,0,0.4,0,0.6h-5.2c0.2,0.8,0.7,1.2,1.4,1.2c0.6,0,1-0.2,1.3-0.7h2.4c-0.5,1.6-1.9,2.6-3.7,2.6
		c-2.2,0-3.8-1.6-3.8-3.7c0-2.2,1.6-3.7,3.8-3.7C177.5,150.1,179,151.7,179,153.8L179,153.8z M173.8,153.1h2.8
		c-0.2-0.7-0.7-1.1-1.4-1.1C174.5,152,174,152.4,173.8,153.1z"/>
	<path d="M187.9,153.8c0,2.2-1.5,3.7-3.7,3.7c-0.6,0-1.2-0.2-1.7-0.5v2.8h-2.4v-9.6h1.6l0.3,0.6c0.6-0.5,1.3-0.8,2.2-0.8
		C186.4,150.1,187.9,151.7,187.9,153.8z M185.5,153.8c0-0.9-0.7-1.6-1.6-1.6c-0.9,0-1.6,0.7-1.6,1.6s0.7,1.6,1.6,1.6
		C184.8,155.4,185.5,154.8,185.5,153.8z"/>
	<path d="M193.7,155.2v2.1H192c-1.6,0-2.5-0.9-2.5-2.5v-2.6h-1.3v-0.6l3.1-3.3h0.5v2.1h1.8v1.9h-1.7v2.2c0,0.5,0.3,0.8,0.8,0.8
		H193.7z"/>
	<path d="M194.4,155.1h2.3c0,0.5,0.4,0.8,0.8,0.8c0.4,0,0.7-0.2,0.7-0.5c0-0.4-0.5-0.5-1.2-0.6c-1.1-0.2-2.5-0.5-2.5-2.2
		c0-1.4,1.2-2.3,3-2.3c1.8,0,2.9,1,3,2.4h-2.3c0-0.4-0.3-0.7-0.7-0.7c-0.4,0-0.6,0.2-0.6,0.5c0,0.4,0.5,0.5,1.2,0.6
		c1.1,0.2,2.6,0.4,2.6,2.2c0,1.5-1.2,2.4-3.1,2.4C195.6,157.6,194.4,156.6,194.4,155.1z"/>
</g>
<g>
	<path class="st5" d="M152.1,48.9c0,17.8-14.5,32.3-32.3,32.3c-17.8,0-32.3-14.5-32.3-32.3c0-17.8,14.5-32.3,32.3-32.3
		C137.6,16.6,152.1,31.1,152.1,48.9z"/>
	<path class="st5" d="M119.8,87.2c-21.1,0-38.3-17.2-38.3-38.3c0-21.1,17.2-38.3,38.3-38.3c21.1,0,38.3,17.2,38.3,38.3
		C158.1,70.1,140.9,87.2,119.8,87.2z M119.8,11.8c-20.4,0-37.1,16.6-37.1,37.1c0,20.4,16.6,37.1,37.1,37.1
		c20.4,0,37.1-16.6,37.1-37.1C156.9,28.5,140.2,11.8,119.8,11.8z"/>
	<path class="st6" d="M114.4,28.8c0-0.7,0.1-1.3,0.3-2c-1-0.5-2.1-0.7-3.2-0.7c-4.2,0-7.6,3.4-7.6,7.6c0,2.1,0.8,4,2.2,5.4h10.9
		c0.9-0.9,1.6-2.1,2-3.4C116.2,34.5,114.4,31.9,114.4,28.8z"/>
	<path class="st7" d="M114.4,28.8c-0.9-0.5-1.9-0.8-3-0.8c-3.2,0-5.7,2.6-5.7,5.7c0,2.5,1.6,4.6,3.7,5.4h4c1.9-0.7,3.4-2.4,3.7-4.5
		C115.4,33.2,114.4,31.2,114.4,28.8z"/>
	<path class="st0" d="M114,35c0-0.4-0.1-0.6-0.3-0.9c-0.2-0.2-0.5-0.4-0.8-0.5c0.1,0,0.2-0.1,0.2-0.1c0,0,0.1-0.1,0.2-0.1
		c0.3-0.2,0.4-0.5,0.4-1c0-0.4-0.1-0.7-0.4-1c-0.1-0.2-0.3-0.3-0.6-0.4c-0.1,0-0.2,0-0.3-0.1v-0.7h-1V31h-0.7v-0.6h-1V31h-0.3h-0.8
		V32h0.8v3.5h-0.8v1.1h0.8h0.3v0.6h1v-0.6h0.7v0.6h1v-0.7c0.5-0.1,0.9-0.2,1.2-0.5C113.9,35.7,114,35.4,114,35z M112.2,32.1
		c0.2,0.1,0.2,0.2,0.2,0.5c0,0.2-0.1,0.4-0.3,0.5c-0.2,0.1-0.4,0.1-0.8,0.1h-0.6V32h0.6C111.8,32,112,32.1,112.2,32.1z M112.5,35.3
		c-0.2,0.1-0.4,0.1-0.8,0.1h-0.9v-1.3h0.7c0.4,0,0.7,0,0.9,0.1c0.2,0.1,0.3,0.3,0.3,0.5C112.7,35.1,112.6,35.3,112.5,35.3z"/>
	<path class="st6" d="M98.6,42.2l0.3,0.1l-0.3,0.1c-1.5,0.4-2.8,1.6-3.2,3.2l-0.1,0.3l-0.1-0.3c-0.4-1.6-1.6-2.8-3.2-3.2l-0.3-0.1
		l0.3-0.1c1.6-0.4,2.8-1.6,3.2-3.2l0.1-0.3l0.1,0.3C95.9,40.6,97.1,41.8,98.6,42.2L98.6,42.2z"/>
	<path class="st6" d="M100,35l0.2,0L100,35c-1.1,0.4-2,1.2-2.3,2.3l0,0.2l0-0.2c-0.3-1.1-1.1-2-2.3-2.3l-0.2,0l0.2,0
		c1.1-0.3,2-1.1,2.3-2.3l0-0.2l0,0.2C98.1,33.8,98.9,34.7,100,35L100,35z"/>
	<path class="st8" d="M145.5,50.4l0.2,0.1L145.5,50.4c-1.2,0.4-2.1,1.3-2.4,2.5l-0.1,0.2l0-0.2c-0.3-1.2-1.2-2.1-2.4-2.4l-0.2,0
		l0.2-0.1c1.2-0.3,2.1-1.2,2.4-2.4l0-0.2l0.1,0.2C143.4,49.2,144.4,50.1,145.5,50.4L145.5,50.4z"/>
	<path class="st9" d="M137.2,27.2l0.2,0.1l-0.2,0.1c-1.3,0.3-2.3,1.3-2.6,2.6l-0.1,0.2l-0.1-0.2c-0.3-1.3-1.3-2.3-2.6-2.6l-0.2-0.1
		l0.2-0.1c1.3-0.3,2.3-1.3,2.6-2.6l0.1-0.2l0.1,0.2C134.8,25.9,135.9,26.9,137.2,27.2L137.2,27.2z"/>
	<path class="st10" d="M102.6,45c1,0.5,2.6,0.5,3.4,0.5h21.9c-1.1-1.3-1.8-3.1-1.8-5c0-0.5,0-1,0.1-1.4h-21.5
		c-2.1,0-3.7,1.6-3.8,3.7C100.9,43,101.1,44.2,102.6,45z"/>
	<path class="st8" d="M133.7,32.9c-4.2,0-7.6,3.4-7.6,7.6c0,1.9,0.7,3.6,1.8,5h7c1.2,0,2.3,0.6,3,1.5c2.1-1.4,3.5-3.7,3.5-6.4
		C141.3,36.3,137.9,32.9,133.7,32.9z"/>
	<path class="st11" d="M130.8,45.5h4.1c0.5,0,0.9,0.1,1.3,0.2c1.9-0.9,3.3-2.9,3.3-5.2c0-3.2-2.6-5.7-5.7-5.7
		c-3.2,0-5.7,2.6-5.7,5.7C128,42.7,129.1,44.5,130.8,45.5z"/>
	<polygon class="st0" points="133.7,42 131.3,40.3 133.7,36.7 136.1,40.3 	"/>
	<polygon class="st0" points="133.7,44.4 131.3,40.8 133.7,42.6 136.1,40.8 	"/>
	<path class="st12" d="M134.9,71.5h-30.2c-2.1,0-3.8-1.7-3.8-3.8V42.8c0,0,0.1,1.4,1.7,2.2c1,0.5,2.6,0.5,3.4,0.5h28.9
		c2.1,0,3.8,1.7,3.8,3.8v18.4C138.6,69.8,137,71.5,134.9,71.5L134.9,71.5z"/>
	<path class="st11" d="M128.4,62.2c-0.9,0-1.7-0.8-1.7-1.7v-4.1c0-0.9,0.8-1.7,1.7-1.7h10.2v7.5H128.4z"/>
	<path class="st7" d="M131.7,58.5c0,0.9-0.8,1.7-1.7,1.7c-0.9,0-1.7-0.8-1.7-1.7c0-0.9,0.8-1.7,1.7-1.7
		C131,56.8,131.7,57.5,131.7,58.5z"/>
	<path class="st9" d="M129.7,28.8c0,4.2-3.4,7.6-7.6,7.6c-4.2,0-7.6-3.4-7.6-7.6c0-4.2,3.4-7.6,7.6-7.6
		C126.3,21.2,129.7,24.6,129.7,28.8z"/>
	<path class="st13" d="M127.8,28.8c0,3.2-2.6,5.7-5.7,5.7c-3.2,0-5.7-2.6-5.7-5.7s2.6-5.7,5.7-5.7C125.2,23.1,127.8,25.6,127.8,28.8
		z"/>
	<path class="st0" d="M119.1,56.8c-1,0-1.9,0.7-2.1,1.7h-3.9l-2.9-3.3h-9.4V56h9l2.9,3.3h4.3c0.2,0.9,1,1.7,2.1,1.7
		c1.2,0,2.1-0.9,2.1-2.1C121.2,57.7,120.2,56.8,119.1,56.8z M119.1,60.1c-0.5,0-1-0.3-1.1-0.8h0.4c0.1,0.2,0.4,0.4,0.7,0.4
		c0.5,0,0.8-0.4,0.8-0.8c0-0.5-0.4-0.8-0.8-0.8c-0.3,0-0.6,0.2-0.7,0.4h-0.4c0.2-0.5,0.6-0.8,1.1-0.8c0.7,0,1.2,0.5,1.2,1.2
		C120.3,59.6,119.8,60.1,119.1,60.1z"/>
	<path class="st0" d="M134,65.4l-1.5-0.9h-17.1l-2.3,3.3h-3.8c-0.2-0.9-1-1.7-2.1-1.7c-1.2,0-2.1,0.9-2.1,2.1c0,1.2,0.9,2.1,2.1,2.1
		c1,0,1.9-0.7,2.1-1.7h4.3l2.3-3.3h16.4l1.5,0.9h4.9v-0.9H134z M107.3,69.5c-0.7,0-1.2-0.5-1.2-1.2c0-0.7,0.5-1.2,1.2-1.2
		c0.5,0,1,0.3,1.1,0.8H108c-0.1-0.2-0.4-0.4-0.7-0.4c-0.5,0-0.8,0.4-0.8,0.8c0,0.5,0.4,0.8,0.8,0.8c0.3,0,0.6-0.2,0.7-0.4h0.4
		C108.2,69.2,107.8,69.5,107.3,69.5z"/>
	<path class="st0" d="M111.2,60.7c-0.3,0-0.6,0.2-0.7,0.4h-4.2l-0.8,1.7h-4.5v0.9h5.1l0.8-1.7h3.7c0.1,0.2,0.4,0.4,0.7,0.4
		c0.5,0,0.8-0.4,0.8-0.8C112,61.1,111.6,60.7,111.2,60.7z"/>
	<path class="st0" d="M122.9,48.1c-0.3,0-0.6,0.2-0.7,0.4h-3.1l-1.8-0.9h-12.2l-0.8,1.7h-3.4v0.9h3.9l0.8-1.7h11.5l1.8,0.9h3.3
		c0.1,0.2,0.4,0.4,0.7,0.4c0.5,0,0.8-0.4,0.8-0.8C123.7,48.5,123.4,48.1,122.9,48.1z"/>
	<path class="st0" d="M126.6,50.3l-1.7,3.2h-7.1l-2.9-2.3h-5.5c-0.1-0.2-0.4-0.4-0.7-0.4c-0.5,0-0.8,0.4-0.8,0.8
		c0,0.5,0.4,0.8,0.8,0.8c0.3,0,0.6-0.2,0.7-0.4h5.2l2.9,2.3h7.9l1.7-3.2h11.5v-0.9H126.6z"/>
</g>
<g>
	<path class="st14" d="M123.1,32.7C123,32.7,123,32.7,123.1,32.7c-0.1,0.1-0.1,0.2-0.1,0.2c0-0.2,0-0.4,0-0.7
		c-0.1,0.1-0.1,0.2-0.2,0.3c0,0,0.1,0,0.1,0c0,0,0,0,0,0.1c0,0.1-0.1,0.2-0.1,0.3c0,0,0,0-0.1,0c-0.1,0-0.2-0.1-0.4-0.1
		c0,0,0,0,0-0.1c0-0.1,0-0.1,0.1-0.2c0,0,0,0,0,0c0,0,0,0-0.1,0.1c0,0,0,0,0,0c0,0,0,0,0,0c0,0,0,0,0,0c0,0,0,0,0,0
		c0.1-0.2,0.3-0.4,0.4-0.6c0,0,0,0,0,0c0,0.1,0,0.2,0,0.3c0,0.1,0,0.1,0,0.2c0,0,0,0,0,0.1c0,0,0,0,0.1,0c0.1-0.1,0.1-0.2,0.2-0.4
		c0,0,0,0,0.1-0.1c0,0.2,0,0.4,0,0.6C123,32.8,123,32.8,123.1,32.7c0-0.1,0.1-0.3,0.2-0.5c0,0.1,0,0.2,0,0.2c0,0.1,0,0.1,0,0.2
		c0,0,0,0.1,0,0.1c0,0,0,0,0.1-0.1c0-0.1,0.1-0.2,0.1-0.4c0,0,0-0.1,0-0.1c0,0.2,0,0.4,0.1,0.6c0.1-0.2,0.1-0.4,0.2-0.6c0,0,0,0,0,0
		c0,0.1,0.1,0.3,0.1,0.4c0,0,0,0,0,0.1c0,0,0.1,0,0.1,0c0-0.1,0-0.2,0.1-0.4c0,0,0-0.1,0-0.1c0,0,0,0.1,0,0.1c0,0.1,0.1,0.2,0.1,0.3
		c0,0,0,0,0,0c0,0,0,0,0-0.1c0-0.1,0-0.3,0-0.4c0,0,0,0,0,0.1c0,0.1,0.1,0.2,0.1,0.4c0,0,0,0,0,0c0,0,0,0,0-0.1c0-0.1,0-0.2,0-0.3
		c0,0,0-0.1,0-0.1c0,0,0,0.1,0,0.1c0,0.1,0.1,0.2,0.1,0.3c0,0,0,0,0.1,0c0,0,0,0,0-0.1c0-0.1,0-0.3,0-0.4c0,0,0,0,0-0.1
		c0.1,0.2,0.2,0.4,0.3,0.5c0,0,0,0,0,0c0-0.2-0.1-0.4-0.1-0.6c0,0,0,0,0,0c0,0.1,0.1,0.1,0.1,0.2c0,0,0.1,0.1,0.1,0.1
		c0,0,0,0.1,0.1,0c0,0,0,0,0-0.1c0-0.1-0.1-0.3-0.1-0.4c0,0,0,0,0,0c0.1,0.1,0.1,0.2,0.2,0.3c0,0,0,0.1,0.1,0.1c0,0,0,0,0,0
		c0,0,0,0.1,0,0.1c0,0,0,0,0,0c0,0,0,0,0,0c0,0,0,0,0,0c0,0,0-0.1,0-0.1c0-0.2-0.1-0.3-0.1-0.5c0,0,0,0,0.1,0
		c0.1,0.1,0.1,0.2,0.2,0.2c0,0,0,0.1,0.1,0c0,0,0-0.1,0-0.1c0-0.1-0.1-0.2-0.1-0.3c0,0,0,0,0,0c0.1,0,0.1,0.1,0.2,0.1
		c0.1,0,0.1,0.1,0.2,0.1c0,0,0,0,0.1,0c0,0,0,0,0-0.1c-0.1-0.1-0.1-0.2-0.2-0.3c0,0,0,0,0,0c0.1,0.1,0.3,0.2,0.4,0.3c0,0,0,0,0,0
		c0-0.1,0-0.1,0-0.2c-0.1-0.1-0.1-0.2-0.2-0.3c0,0,0,0,0,0c0,0,0,0,0,0c0.1,0.1,0.2,0.1,0.3,0.2c0,0,0.1,0,0.1,0c0,0,0-0.1,0-0.1
		c-0.1-0.1-0.1-0.2-0.2-0.3c0,0,0,0,0,0l0,0c0,0,0.1,0,0.1,0c0.1,0.1,0.3,0.1,0.4,0.2c0,0,0,0,0.1,0c0,0,0,0,0,0c0,0,0,0,0,0
		c-0.1-0.1-0.2-0.3-0.3-0.4c0,0,0-0.1-0.1-0.1c0,0,0,0,0.1,0c0.1,0,0.2,0.1,0.3,0.1c0,0,0,0,0.1,0c0,0,0-0.1,0-0.1
		c-0.1-0.1-0.2-0.2-0.2-0.3c0,0,0,0,0,0c0,0,0.1,0,0.1,0c0.1,0,0.2,0.1,0.3,0.1c0,0,0.1,0,0.1,0c0,0,0,0,0,0c0,0,0.1,0.1,0.1,0
		c-0.2-0.1-0.3-0.3-0.5-0.4c0,0,0,0,0,0c0.1,0,0.3,0,0.4,0.1c0,0,0.1,0,0.1,0c0,0,0-0.1,0-0.1c-0.1-0.1-0.2-0.1-0.2-0.2
		c0,0,0,0-0.1-0.1c0.1,0,0.2,0,0.2,0c0.1,0,0.1,0,0.2,0c0,0,0.1,0,0.1,0c0,0,0,0,0.1,0c-0.1-0.1-0.3-0.2-0.4-0.3c0,0,0,0,0,0
		c0.1,0,0.3,0,0.4,0c0,0,0.1,0,0.1-0.1c0-0.1,0-0.1,0-0.1c-0.1-0.1-0.2-0.1-0.3-0.2c0.1,0,0.2,0,0.3,0c0,0,0,0,0,0
		c0.1,0,0.2,0,0.2-0.1c-0.1-0.1-0.3-0.1-0.4-0.2c0,0,0,0,0,0c0.1,0,0.2,0,0.3-0.1c0.1,0,0.1,0,0.1-0.1c0-0.1,0-0.1-0.1-0.1
		c-0.1,0-0.2-0.1-0.4-0.1c0,0,0.1,0,0.1,0c0.1,0,0.2-0.1,0.3-0.1c0,0,0,0,0-0.1c0,0,0-0.1-0.1-0.1c-0.1,0-0.2,0-0.4-0.1c0,0,0,0,0,0
		c0,0,0.1,0,0.1-0.1c0.1,0,0.2-0.1,0.2-0.1c0,0,0,0,0-0.1c0,0,0-0.1-0.1-0.1c-0.1,0-0.2,0-0.3,0c0,0-0.1,0-0.1,0
		c0.1-0.1,0.2-0.1,0.4-0.2c0,0,0,0,0-0.1c0-0.1,0-0.1-0.1-0.1c-0.1,0-0.3,0-0.4,0c0,0,0,0,0.1,0c0.1-0.1,0.2-0.1,0.3-0.2
		c0,0,0,0,0-0.1c0,0,0-0.1-0.1-0.1c-0.1,0-0.3,0-0.4,0c0,0,0,0,0.1-0.1c0.1-0.1,0.2-0.1,0.3-0.2c0,0,0-0.1,0-0.1c0,0,0,0-0.1,0
		c-0.1,0-0.3,0.1-0.4,0.1c0,0,0,0,0,0c0.1-0.1,0.2-0.2,0.3-0.2c0,0,0.1,0,0-0.1c0,0,0-0.1-0.1,0c-0.1,0-0.2,0.1-0.3,0.1c0,0,0,0,0,0
		c0,0,0,0,0,0c0.1-0.1,0.2-0.2,0.2-0.3c0,0,0-0.1,0-0.1c0,0,0,0-0.1,0c-0.1,0-0.2,0.1-0.3,0.1c0,0,0,0-0.1,0
		c0.1-0.1,0.1-0.2,0.2-0.3c0,0,0-0.1,0.1-0.1c0,0,0,0,0-0.1c0,0,0,0-0.1,0c-0.1,0.1-0.2,0.1-0.3,0.2c0,0,0,0-0.1,0l0,0
		c0.1-0.1,0.1-0.2,0.2-0.4c0,0,0-0.1,0-0.1c0,0,0,0-0.1,0c-0.1,0.1-0.2,0.1-0.3,0.2c0,0-0.1,0-0.1,0.1c0,0,0-0.1,0-0.1
		c0.1-0.1,0.1-0.2,0.2-0.3c0,0,0,0,0-0.1c0,0,0,0-0.1,0c-0.1,0.1-0.2,0.1-0.3,0.2c0,0,0,0-0.1,0c0,0,0,0,0-0.1
		c0-0.1,0.1-0.2,0.1-0.3c0,0,0,0,0,0c0,0,0,0,0,0c0,0,0,0,0,0c0,0,0,0,0,0c-0.1,0.1-0.2,0.2-0.2,0.3c0,0,0,0-0.1,0.1
		c0.1-0.2,0.2-0.4,0.2-0.5c0,0,0,0,0,0c-0.1,0.2-0.2,0.3-0.4,0.5c0,0,0-0.1,0-0.1c0-0.1,0.1-0.2,0.1-0.4c0,0,0,0,0,0c0,0,0,0,0,0
		c0,0,0,0,0,0c0,0.1-0.1,0.1-0.1,0.2c-0.1,0.1-0.1,0.1-0.2,0.2c0-0.2,0.1-0.3,0.1-0.5c-0.1,0.1-0.2,0.3-0.3,0.4
		c0-0.2,0.1-0.3,0.1-0.5c0,0,0,0,0,0c-0.1,0.1-0.1,0.1-0.1,0.2c0,0.1-0.1,0.2-0.1,0.2c0-0.2,0.1-0.4,0.1-0.6c0,0,0,0,0,0
		c-0.1,0.2-0.2,0.3-0.2,0.5c0,0,0,0,0,0c0-0.2,0-0.4,0.1-0.5c0,0,0,0,0,0c0,0.1-0.1,0.2-0.1,0.3c0,0.1-0.1,0.2-0.1,0.3
		c0-0.2,0-0.4,0-0.6c-0.1,0-0.1,0.1-0.1,0.2c0,0.1,0,0.1-0.1,0.2c0,0.1,0,0.1-0.1,0.2c0-0.2,0-0.4,0-0.5c-0.1,0.1-0.1,0.2-0.1,0.3
		c0,0.1-0.1,0.2-0.1,0.3c0-0.2,0-0.4,0-0.5c-0.1,0.2-0.1,0.4-0.2,0.5c0-0.2,0-0.4,0-0.5c0,0,0,0,0,0c0,0.2-0.1,0.4-0.1,0.5
		c0-0.2-0.1-0.4-0.1-0.5c0,0,0,0,0,0c0,0.2-0.1,0.4-0.1,0.5c0-0.2-0.1-0.4-0.1-0.6c0,0,0,0,0,0c0,0.2,0,0.4-0.1,0.6
		c0-0.2-0.1-0.4-0.1-0.6c0,0,0,0,0,0c0,0.2,0,0.4,0,0.6c0,0,0,0,0,0c-0.1-0.2-0.1-0.4-0.2-0.5c0,0,0,0,0,0c0,0.1,0,0.2,0,0.3
		c0,0.1,0,0.2,0,0.3c-0.1-0.2-0.1-0.3-0.2-0.5c0,0,0,0,0,0c0,0.1,0,0.1,0,0.2c0,0.1,0,0.1,0,0.2c0,0.1,0,0.1,0,0.2
		c-0.1-0.2-0.1-0.3-0.2-0.5c0,0,0,0,0,0c0,0.1,0,0.2,0,0.3c0,0.1,0,0.2,0,0.3c-0.1-0.1-0.1-0.2-0.2-0.3c0-0.1-0.1-0.1-0.1-0.2
		c0,0,0-0.1-0.1,0c0,0,0,0,0,0c0,0,0,0,0,0c0-0.1-0.1-0.2-0.1-0.3c0,0,0,0,0,0c0.1,0,0.3-0.1,0.4-0.1c0,0,0,0,0,0
		c0,0.1,0,0.2,0.1,0.3c0,0,0,0,0,0.1c0,0,0,0,0,0c0,0.1,0.1,0.2,0.1,0.3c0-0.2,0-0.4,0-0.6c0.1,0.2,0.1,0.4,0.2,0.6c0,0,0-0.1,0-0.1
		c0,0,0-0.1,0-0.1c0-0.1,0-0.1-0.1-0.1c0-0.1,0-0.2,0-0.2c0,0,0-0.1,0-0.1c0,0,0,0,0,0c0,0,0,0,0,0c0-0.1,0-0.1,0.1-0.1
		c0.1,0,0.3-0.1,0.4-0.1c0,0,0.1,0,0.1-0.1c0.1-0.2,0.1-0.5,0.2-0.7c0-0.1,0-0.1,0.1-0.1c0.1,0,0.3,0,0.4,0c0,0,0.1,0,0.1,0.1
		c0,0.2,0.1,0.5,0.1,0.7c0,0.1,0,0.1,0.1,0.1c0.1,0,0.3,0,0.4,0.1c0.1,0,0.1,0,0.1-0.1c0.1-0.2,0.3-0.4,0.4-0.6c0-0.1,0-0.1,0.1,0
		c0.1,0,0.2,0.1,0.4,0.1c0,0,0.1,0,0,0.1c0,0.2-0.1,0.5-0.1,0.7c0,0.1,0,0.1,0.1,0.1c0.1,0.1,0.3,0.1,0.4,0.2c0,0,0.1,0,0.1,0
		c0.2-0.1,0.4-0.3,0.6-0.4c0.1,0,0-0.1,0.1,0c0.1,0.1,0.2,0.1,0.3,0.2c0,0,0,0,0,0.1c-0.1,0.2-0.2,0.4-0.3,0.6c0,0.1,0,0.1,0,0.2
		c0.1,0.1,0.2,0.2,0.3,0.3c0,0,0.1,0,0.1,0c0.2-0.1,0.5-0.2,0.7-0.2c0,0,0.1,0,0.1,0c0.1,0.1,0.2,0.2,0.2,0.3c0,0,0,0.1,0,0.1
		c-0.2,0.2-0.4,0.3-0.5,0.5c-0.1,0-0.1,0,0,0.1c0.1,0.1,0.1,0.3,0.2,0.4c0,0,0.1,0.1,0.1,0.1c0.2,0,0.5,0,0.7,0c0,0,0,0,0.1,0
		c0,0,0,0,0,0c0,0.1,0.1,0.3,0.1,0.4c0,0,0,0.1,0,0.1c-0.2,0.1-0.3,0.1-0.5,0.2c-0.1,0-0.2,0.1-0.2,0.1c0,0,0,0,0,0.1
		c0,0.2,0.1,0.3,0.1,0.5c0,0,0,0.1,0.1,0.1c0.2,0.1,0.4,0.1,0.7,0.2c0,0,0,0,0,0c0,0,0.1,0,0.1,0.1c0,0.1,0,0.2,0,0.3
		c0,0.1,0,0.1-0.1,0.2c-0.2,0-0.4,0.1-0.7,0.1c0,0-0.1,0-0.1,0.1c0,0.2,0,0.3-0.1,0.5c0,0,0,0.1,0,0.1c0.2,0.1,0.4,0.3,0.6,0.4
		c0.1,0,0.1,0,0,0.1c0,0.1-0.1,0.2-0.1,0.4c0,0.1,0,0.1-0.1,0c-0.2,0-0.5-0.1-0.7-0.1c0,0,0,0,0,0c0,0,0,0-0.1,0
		c-0.1,0.2-0.2,0.3-0.2,0.5c0,0,0,0.1,0,0.1c0.1,0.1,0.2,0.2,0.2,0.3c0.1,0.1,0.1,0.2,0.2,0.3c0,0,0,0.1,0,0.1
		c-0.1,0.1-0.2,0.2-0.2,0.3c0,0,0,0-0.1,0c-0.2-0.1-0.4-0.2-0.6-0.4c-0.1,0-0.1,0-0.1,0c-0.1,0.1-0.2,0.2-0.3,0.3c0,0,0,0.1,0,0.1
		c0.1,0.2,0.2,0.4,0.2,0.7c0,0.1,0,0.1,0,0.1c-0.1,0.1-0.2,0.1-0.3,0.2c-0.1,0-0.1,0-0.1,0c-0.2-0.2-0.3-0.4-0.5-0.5
		c0-0.1,0-0.1-0.1,0c-0.1,0.1-0.3,0.1-0.4,0.2c0,0,0,0,0,0.1c0,0.2,0,0.5,0,0.7c0,0,0,0.1-0.1,0.1c-0.1,0-0.3,0.1-0.4,0.1
		c0,0-0.1,0-0.1,0c-0.1-0.2-0.2-0.4-0.3-0.7c0-0.1,0-0.1-0.1-0.1c-0.2,0-0.3,0.1-0.5,0.1c0,0-0.1,0-0.1,0.1
		c-0.1,0.2-0.1,0.4-0.2,0.7c0,0,0,0,0,0c0,0,0,0,0,0c-0.1,0-0.3,0-0.4,0c0,0,0,0,0,0c0-0.1,0-0.2,0-0.4c0-0.1,0-0.3,0-0.4
		c0,0,0,0-0.1-0.1c-0.1,0-0.3-0.1-0.4-0.1c0,0,0,0,0,0c0-0.1,0-0.1,0.1-0.1c0.1,0,0.3,0.1,0.4,0.1c0.1,0,0.1,0,0.1,0.1
		c0,0.2,0.1,0.4,0.1,0.7c0,0,0,0.1,0,0.1c0,0,0,0,0,0c0.1,0,0.2,0,0.2,0c0,0,0,0,0.1-0.1c0-0.1,0.1-0.2,0.1-0.3
		c0-0.1,0.1-0.2,0.1-0.3c0,0,0-0.1,0.1-0.1c0.1,0,0.3-0.1,0.5-0.1c0.1,0,0.1,0,0.2,0c0,0,0,0,0.1,0c0.1,0.2,0.2,0.4,0.3,0.6
		c0,0,0,0.1,0.1,0.1c0,0,0,0,0.1,0c0.1,0,0.1,0,0.2-0.1c0,0,0.1,0,0.1-0.1c0-0.2,0-0.3,0-0.5c0-0.1,0-0.2,0-0.3c0,0,0-0.1,0-0.1
		c0.2-0.1,0.3-0.2,0.5-0.3c0,0,0.1,0,0.2-0.1c0,0,0,0,0.1,0c0.1,0.1,0.2,0.2,0.3,0.3c0.1,0.1,0.1,0.2,0.2,0.2c0,0,0,0,0.1,0
		c0,0,0.1-0.1,0.1-0.1c0.1,0,0.1,0,0-0.1c-0.1-0.2-0.1-0.4-0.2-0.6c0-0.1,0-0.1,0-0.1c0.1-0.1,0.2-0.2,0.3-0.3
		c0-0.1,0.1-0.1,0.2-0.1c0,0,0,0,0.1,0c0.1,0,0.1,0.1,0.2,0.1c0.2,0.1,0.3,0.2,0.5,0.3c0,0,0.1,0,0.1,0c0-0.1,0.1-0.1,0.1-0.2
		c0,0,0-0.1,0-0.1c-0.1-0.2-0.3-0.4-0.4-0.6c0,0,0-0.1,0-0.1c0.1-0.2,0.1-0.3,0.2-0.4c0-0.1,0.1-0.1,0.1-0.2c0,0,0,0,0.1,0
		c0.1,0,0.2,0,0.4,0.1c0.1,0,0.2,0,0.4,0.1c0.1,0,0.1,0,0.1,0c0-0.1,0-0.1,0.1-0.2c0,0,0-0.1,0-0.1c-0.2-0.1-0.4-0.3-0.6-0.4
		c-0.1,0-0.1-0.1-0.1-0.1c0-0.2,0-0.3,0.1-0.5c0-0.1,0-0.1,0-0.2c0,0,0,0,0,0c0.1,0,0.3,0,0.4,0c0.1,0,0.2,0,0.3,0
		c0.1,0,0.1,0,0.1-0.1c0-0.1,0-0.1,0-0.2c0,0,0-0.1-0.1-0.1c-0.2-0.1-0.4-0.1-0.7-0.2c-0.1,0-0.1,0-0.1-0.1c0-0.2-0.1-0.3-0.1-0.5
		c0-0.1,0-0.1,0-0.2c0,0,0,0,0-0.1c0.2-0.1,0.3-0.2,0.5-0.2c0.1,0,0.1-0.1,0.2-0.1c0,0,0,0,0-0.1c0-0.1,0-0.1-0.1-0.2c0,0,0,0-0.1,0
		c-0.2,0-0.5,0-0.7,0c0,0-0.1,0-0.1,0c-0.1-0.2-0.2-0.3-0.3-0.5c0,0,0-0.1-0.1-0.1c0,0,0-0.1,0-0.1c0.1-0.1,0.2-0.2,0.3-0.2
		c0.1-0.1,0.2-0.2,0.3-0.3c0,0,0-0.1,0-0.1c0,0-0.1-0.1-0.1-0.1c0-0.1,0-0.1-0.1,0c-0.2,0.1-0.4,0.1-0.6,0.2c0,0,0,0,0,0
		c-0.1,0-0.1,0-0.2,0c-0.1-0.1-0.2-0.2-0.3-0.3c-0.1,0-0.1-0.1-0.2-0.2c0,0,0,0,0-0.1c0.1-0.2,0.2-0.4,0.3-0.6c0,0,0.1-0.1,0.1-0.1
		c0,0-0.1-0.1-0.1-0.1c0,0-0.1,0-0.1-0.1c0,0-0.1,0-0.1,0c-0.2,0.1-0.4,0.3-0.6,0.4c0,0-0.1,0-0.1,0c-0.2-0.1-0.3-0.2-0.5-0.2
		c-0.1,0-0.1-0.1-0.1-0.1c0,0,0,0,0-0.1c0-0.1,0.1-0.3,0.1-0.4c0-0.1,0-0.2,0.1-0.3c0,0,0-0.1,0-0.1c-0.1,0-0.1,0-0.2-0.1
		c0,0-0.1,0-0.1,0c-0.1,0.2-0.3,0.4-0.4,0.6c0,0.1-0.1,0.1-0.1,0.1c-0.2,0-0.3,0-0.5-0.1c0,0-0.1,0-0.1,0c0,0,0,0,0-0.1
		c0-0.1,0-0.2,0-0.3c0-0.1,0-0.3-0.1-0.4c0,0,0-0.1,0-0.1c-0.1,0-0.2,0-0.2,0c0,0,0,0,0,0.1c-0.1,0.2-0.1,0.4-0.2,0.6c0,0,0,0,0,0
		c0,0.1,0,0.1-0.1,0.1c-0.1,0-0.2,0-0.3,0.1c0,0,0,0,0,0c0,0,0.1,0,0.1,0c0.1,0,0.2,0,0.2,0c0,0,0,0,0.1,0c0,0.1,0.1,0.2,0.1,0.4
		c0,0.1,0,0.2,0.1,0.3c0,0,0,0,0,0c0-0.2,0.1-0.4,0.1-0.6c0-0.1,0-0.1,0.1-0.1c0.2,0,0.3,0,0.5,0c0,0,0,0,0,0.1c0,0.1,0,0.2,0,0.3
		c0,0,0,0,0,0c0,0,0,0,0,0.1c0,0.1,0,0.2,0,0.3c0,0,0,0,0,0c0.1-0.2,0.1-0.4,0.2-0.6c0,0,0,0,0,0c0,0.2,0,0.4,0,0.6
		c0,0,0-0.1,0.1-0.1c0,0,0-0.1,0-0.1c0,0,0,0,0-0.1c0,0,0,0-0.1,0c0,0,0,0,0,0c0-0.1,0-0.2,0.1-0.3c0,0,0,0,0,0
		c0.2,0,0.3,0.1,0.5,0.1c0,0,0.1,0.1,0,0.1c0,0.1-0.1,0.3-0.1,0.4c0,0,0,0.1,0,0.2c0.1-0.1,0.1-0.3,0.2-0.4c0-0.1,0.1-0.1,0.1-0.2
		c0,0,0,0,0.1,0c0.2,0.1,0.3,0.1,0.5,0.2c0,0,0,0,0,0.1c0,0.1-0.1,0.2-0.1,0.2c0,0,0,0,0,0c-0.1,0-0.1,0.1-0.1,0.2c0,0,0,0.1,0,0.1
		c0,0,0,0,0.1-0.1c0.1-0.1,0.2-0.2,0.3-0.3c0,0,0-0.1,0.1-0.1c0,0,0,0,0,0c0,0.1-0.1,0.2-0.1,0.2c0.1-0.1,0.1-0.1,0.1-0.2
		c0,0,0,0,0,0c0,0,0,0,0.1,0c0.1,0.1,0.2,0.1,0.3,0.2c0,0,0.1,0.1,0.1,0.1c0,0,0,0,0,0.1c-0.1,0.2-0.2,0.4-0.3,0.6c0,0,0,0,0,0
		c0,0,0,0,0,0c0,0,0,0,0,0c0,0,0,0,0,0c0.1,0,0.2-0.1,0.3-0.2c0,0,0,0,0,0c0,0,0-0.1,0-0.1c0.1-0.1,0.1-0.1,0.2-0.2
		c0.1,0.1,0.3,0.3,0.4,0.4c-0.1,0.1-0.2,0.1-0.2,0.2c-0.1,0.1-0.1,0.2-0.2,0.3c0.1,0,0.2-0.1,0.3-0.1c0,0,0,0,0,0
		c0-0.1,0.1-0.1,0.2-0.2c0,0,0.1,0,0.1-0.1c0,0,0,0,0.1,0c0.1,0.1,0.2,0.3,0.3,0.4c0,0,0,0,0,0.1c0,0,0,0,0,0
		c-0.2,0.1-0.3,0.2-0.5,0.4c0,0,0,0,0,0c0.1,0,0.2,0,0.3-0.1c0.1,0,0.2-0.1,0.3-0.1c0,0,0,0,0.1,0c0,0,0,0.1,0.1,0.1
		c0,0.1,0.1,0.2,0.1,0.3c0,0,0,0,0,0.1c-0.1,0-0.2,0.1-0.2,0.1c-0.1,0-0.2,0.1-0.3,0.2c0.2,0,0.4,0,0.5,0c0.1,0,0.1,0,0.2,0.1
		c0,0.1,0.1,0.3,0.1,0.4c0,0.1,0,0.1-0.1,0.1c-0.1,0-0.2,0-0.2,0c-0.1,0-0.2,0.1-0.3,0.1c0.2,0,0.4,0.1,0.6,0.1c0.1,0,0.1,0,0.1,0.1
		c0,0.1,0,0.3,0,0.4c0,0,0,0,0,0c0,0.1,0,0.1-0.1,0.1c-0.1,0-0.1,0-0.2,0c0,0-0.1,0-0.1,0c0,0,0,0,0,0c-0.1,0-0.2,0-0.3,0.1
		c0.1,0,0.2,0.1,0.3,0.1c0.1,0,0.2,0.1,0.4,0.1c0,0,0,0,0,0c0,0.1-0.1,0.2-0.1,0.4c0,0.1,0,0.1,0,0.2c0,0,0,0,0,0
		c-0.1,0-0.2,0-0.3-0.1c0,0,0,0,0,0c0,0,0,0,0,0c-0.1,0-0.2,0-0.3,0c0.2,0.1,0.4,0.2,0.6,0.4c-0.1,0.1-0.1,0.2-0.1,0.4
		c0,0.1-0.1,0.1-0.1,0.2c0,0,0,0,0,0c-0.1,0-0.2-0.1-0.3-0.1c0,0,0-0.1,0-0.1c-0.1,0-0.2,0-0.3-0.1c0,0,0,0,0,0.1
		c0.1,0.1,0.3,0.3,0.4,0.4c0,0,0,0,0,0.1c-0.1,0.2-0.2,0.3-0.3,0.4c0,0,0,0-0.1,0c-0.1,0-0.1-0.1-0.2-0.1c0,0,0,0,0,0
		c0,0.1,0.1,0.1,0.1,0.1c0,0,0.1,0.1,0.1,0.1c-0.1,0-0.2-0.1-0.2-0.1c0,0,0,0,0,0c0,0,0,0,0,0c0,0,0.1,0.1,0.1,0.1c0,0,0,0,0,0.1
		c-0.1,0.1-0.2,0.3-0.4,0.4c0,0,0,0-0.1,0c-0.1-0.1-0.2-0.2-0.4-0.3c0,0-0.1-0.1-0.1-0.1c0,0,0,0,0,0c0,0,0,0,0,0
		c0,0.1,0.1,0.1,0.1,0.2c0,0,0,0,0,0c0,0,0,0,0,0c0.1,0.1,0.1,0.2,0.2,0.3c-0.2,0.1-0.3,0.2-0.5,0.4c-0.1-0.1-0.1-0.2-0.2-0.3
		c0,0,0,0,0,0c0,0,0-0.1,0-0.1c0,0-0.1-0.1-0.1-0.1c0,0,0,0.1,0,0.1c0,0.2,0.1,0.3,0.1,0.5c0,0.1,0,0.1,0,0.1
		c-0.1,0.1-0.2,0.1-0.4,0.2c-0.1,0-0.1,0-0.2-0.1c0,0,0-0.1-0.1-0.1c0,0.1,0,0.2,0,0.3c-0.1-0.2-0.2-0.4-0.3-0.6c0,0.1,0,0.2,0,0.3
		c0,0,0,0,0,0c0,0,0.1,0,0.1,0c0,0,0,0.1,0,0.1c0,0.1,0,0.1,0.1,0.2c0,0,0,0,0,0.1c-0.2,0-0.3,0.1-0.5,0.1c0,0,0,0-0.1,0
		c-0.1-0.2-0.2-0.4-0.2-0.6c0,0,0,0,0,0c0,0,0,0,0,0c0,0.1,0,0.1,0,0.2c0,0,0,0.1,0,0.1c0,0,0,0,0,0c0,0.1,0,0.1,0,0.2
		c0,0.1,0,0.1-0.1,0.1c-0.1,0-0.2,0-0.3,0c-0.1,0-0.1,0-0.2,0c0,0,0-0.1,0-0.1c0,0,0-0.1,0-0.1c0,0,0-0.1,0-0.1c0,0,0,0,0,0
		c0-0.1,0-0.2-0.1-0.3c0,0,0,0,0,0.1c0,0.2-0.1,0.3-0.1,0.5c0,0,0,0,0,0c0,0.1,0,0.1-0.1,0.1c-0.1,0-0.3,0-0.4-0.1
		c-0.1,0-0.1,0-0.1-0.1C123,32.9,123,32.8,123.1,32.7c0,0,0.1,0,0.1,0c0,0,0.1,0,0.1,0c0-0.1,0-0.2,0-0.3c0,0,0,0,0-0.1
		C123.2,32.4,123.1,32.6,123.1,32.7C123.1,32.7,123.1,32.7,123.1,32.7z M127.9,29.9C127.9,29.9,127.8,29.9,127.9,29.9
		C127.8,29.9,127.9,29.9,127.9,29.9C127.9,29.9,127.9,29.9,127.9,29.9C127.9,29.9,127.9,29.9,127.9,29.9z M126,25.4
		c0,0,0.1-0.1,0.1-0.1c0.1-0.1,0.1-0.1,0-0.2C126,25.2,126,25.3,126,25.4C126,25.4,126,25.4,126,25.4C126,25.4,126,25.4,126,25.4z
		 M127,30.9C127,30.9,127,30.9,127,30.9C127,30.9,127,30.9,127,30.9c0,0.1,0,0.1,0.1,0.1c0.1,0.1,0.1,0.1,0.2,0c0,0,0,0,0,0
		C127.1,30.9,127.1,30.9,127,30.9z M126.8,31.1C126.8,31.1,126.8,31.1,126.8,31.1C126.8,31.1,126.8,31.1,126.8,31.1
		C126.8,31.1,126.8,31.1,126.8,31.1c0,0.1,0.1,0.2,0.1,0.2c0,0,0.1-0.1,0.1-0.1C127,31.2,126.9,31.1,126.8,31.1z M126.1,31.7
		C126.1,31.7,126.1,31.7,126.1,31.7C126.1,31.7,126.1,31.7,126.1,31.7C126.1,31.7,126.1,31.7,126.1,31.7c0,0.1,0.1,0.2,0.1,0.3
		c0,0,0.1,0,0.1-0.1C126.3,31.8,126.2,31.8,126.1,31.7z M127.1,30.6C127.1,30.6,127.1,30.6,127.1,30.6
		C127.1,30.6,127.1,30.6,127.1,30.6c0,0.1,0.1,0.1,0.2,0.2c0,0,0,0,0,0c0,0,0.1-0.1,0.1-0.1C127.3,30.6,127.2,30.6,127.1,30.6z
		 M126.7,26.1c0.1,0,0.2-0.1,0.3-0.1c0,0,0,0,0,0c0,0-0.1-0.1-0.1-0.1C126.8,25.9,126.8,26,126.7,26.1
		C126.7,26.1,126.7,26.1,126.7,26.1C126.7,26.1,126.7,26.1,126.7,26.1C126.7,26.1,126.7,26.1,126.7,26.1z M122.4,32.5
		c0.1,0,0.1,0,0.2,0.1c0-0.1,0-0.3,0-0.4c0,0,0,0,0,0C122.6,32.3,122.5,32.4,122.4,32.5z M126.3,25.3c0,0.1-0.1,0.2-0.1,0.3
		c0,0,0,0,0,0c0.1-0.1,0.2-0.1,0.3-0.2C126.4,25.4,126.3,25.3,126.3,25.3z M123.6,32.7c0-0.1,0-0.2-0.1-0.4c0,0.1-0.1,0.2-0.1,0.3
		C123.5,32.7,123.5,32.8,123.6,32.7z M124.2,32.7c0-0.1-0.1-0.2-0.1-0.3c0,0.1-0.1,0.2-0.1,0.3C124.1,32.7,124.2,32.7,124.2,32.7z
		 M127.3,26.4c-0.1,0.1-0.1,0.2-0.2,0.2c0.1,0,0.2,0,0.3-0.1C127.4,26.5,127.4,26.5,127.3,26.4z M124.7,32.7c0.1,0,0.1,0,0.1,0
		c0,0,0,0,0,0c0-0.1-0.1-0.2-0.1-0.3C124.7,32.4,124.7,32.5,124.7,32.7z M127.4,27.3C127.4,27.3,127.4,27.3,127.4,27.3
		c0.1,0,0.1,0,0.2,0c0,0,0.1,0,0.1,0c0,0,0-0.1,0-0.1c0,0,0,0,0,0C127.6,27.1,127.5,27.2,127.4,27.3z M125.3,32.5
		c0.1,0,0.1,0,0.2-0.1c-0.1-0.1-0.1-0.2-0.2-0.2C125.3,32.3,125.3,32.4,125.3,32.5z M127.4,30C127.4,30,127.4,30,127.4,30
		c0.1,0.1,0.2,0.1,0.2,0.2c0,0,0-0.1,0.1-0.1c0,0,0-0.1,0-0.1C127.6,30,127.5,30,127.4,30z M127.9,27.8c-0.1,0-0.2,0.1-0.3,0.1
		c0.1,0,0.2,0,0.3,0C127.9,27.9,127.9,27.9,127.9,27.8z M127.6,29.3c0.1,0.1,0.2,0.1,0.3,0.1c0,0,0-0.1,0-0.1c0,0,0,0,0,0
		C127.8,29.3,127.7,29.3,127.6,29.3z M122.8,25C122.8,25,122.8,25,122.8,25C122.8,25,122.8,25,122.8,25c0-0.1,0-0.2,0-0.3
		c0-0.1,0-0.1-0.1-0.1c0,0,0,0,0,0C122.7,24.8,122.8,24.9,122.8,25z M128,28.7c0-0.1,0-0.1,0-0.2c-0.1,0-0.2,0.1-0.3,0.1
		C127.8,28.7,127.9,28.7,128,28.7z M123.4,24.9c0-0.1,0-0.2,0-0.3c0,0,0,0,0,0c0,0,0,0-0.1,0c0,0,0,0,0,0
		C123.3,24.7,123.4,24.8,123.4,24.9z M125.6,32.3c0.1,0,0.1,0,0.1-0.1c-0.1-0.1-0.1-0.2-0.2-0.2C125.6,32.1,125.6,32.2,125.6,32.3z
		 M126.6,31.3C126.6,31.3,126.6,31.3,126.6,31.3c0,0.1,0.1,0.2,0.1,0.3c0,0,0.1-0.1,0.1-0.1C126.7,31.4,126.7,31.4,126.6,31.3z
		 M123.6,24.9c0-0.1,0-0.2,0-0.3c0,0,0,0,0,0c0,0,0,0,0,0c0,0,0,0,0,0C123.6,24.7,123.6,24.8,123.6,24.9z M124.2,24.9
		C124.2,24.9,124.2,24.9,124.2,24.9c0-0.1,0.1-0.2,0.1-0.3c0,0,0,0-0.1,0c-0.1,0-0.1,0-0.1,0.1C124.2,24.7,124.2,24.8,124.2,24.9z
		 M124.8,24.9c0-0.1,0.1-0.2,0.1-0.3c0,0-0.1,0-0.1,0c0,0,0,0,0,0C124.9,24.8,124.8,24.9,124.8,24.9z M124,24.8c0-0.1,0-0.2,0.1-0.3
		c0,0-0.1,0-0.1,0c0,0,0,0,0,0C124,24.6,124,24.7,124,24.8z M125,25C125,25,125,25,125,25c0.1-0.1,0.1-0.2,0.2-0.3c0,0-0.1,0-0.1,0
		C125.1,24.8,125,24.9,125,25z M125.6,25.2C125.6,25.2,125.6,25.2,125.6,25.2c0.1-0.1,0.1-0.2,0.2-0.2c0,0-0.1,0-0.1,0
		C125.7,25,125.6,25.1,125.6,25.2z M125.4,25.1c0.1-0.1,0.1-0.2,0.2-0.2c0,0-0.1,0-0.1,0C125.5,24.9,125.4,25,125.4,25.1z
		 M123.3,24.2C123.2,24.2,123.2,24.2,123.3,24.2C123.2,24.2,123.2,24.2,123.3,24.2z M123.7,32.9C123.7,32.8,123.6,32.8,123.7,32.9
		C123.6,32.8,123.6,32.8,123.7,32.9C123.6,32.9,123.6,32.9,123.7,32.9C123.6,32.9,123.6,32.9,123.7,32.9z M123,24.6
		C123,24.6,123,24.6,123,24.6C123,24.6,123,24.6,123,24.6C123,24.6,123,24.6,123,24.6C123,24.6,123,24.6,123,24.6z M127.2,31.1
		C127.2,31.1,127.1,31.1,127.2,31.1C127.2,31.1,127.2,31.1,127.2,31.1C127.2,31.1,127.2,31.1,127.2,31.1
		C127.2,31.1,127.2,31.1,127.2,31.1z M122.4,32.6C122.4,32.6,122.4,32.6,122.4,32.6C122.4,32.6,122.4,32.6,122.4,32.6
		C122.4,32.6,122.4,32.6,122.4,32.6C122.4,32.6,122.4,32.6,122.4,32.6z M125.9,31.9C125.9,31.9,125.9,31.9,125.9,31.9
		C125.9,31.9,125.9,31.9,125.9,31.9C125.9,31.9,125.9,31.9,125.9,31.9C125.9,31.9,125.9,31.9,125.9,31.9z M125.8,25.3
		C125.8,25.3,125.8,25.3,125.8,25.3C125.8,25.3,125.8,25.3,125.8,25.3C125.8,25.3,125.8,25.3,125.8,25.3
		C125.8,25.3,125.8,25.3,125.8,25.3z"/>
	<path class="st15" d="M119.3,28.2c-0.3,0.1-0.5,0.3-0.5,0.5c0,0.1,0,0.1-0.1,0.1c0,0,0,0,0,0c-1.4,0-2.8,0-4.3,0c0,0.1,0,0.1,0,0.2
		h4.2c0,0,0,0,0,0c0.1,0,0.1,0,0.1,0.1c0.1,0.3,0.4,0.6,0.7,0.6c0.4,0,0.8-0.4,0.7-0.8C120.1,28.3,119.7,28.1,119.3,28.2z"/>
	<path class="st16" d="M121.1,31.4c-0.1,0-0.3,0-0.3,0.2c0,0,0,0.1,0,0.1c0,0-0.1,0-0.1,0c0,0,0,0-0.1-0.1c-0.6-0.6-1.3-1.3-1.9-1.9
		c0,0-0.1-0.1-0.2-0.1c-1.4,0-2.7,0-4.1,0c0,0,0,0,0,0c0,0.1,0,0.1,0.1,0.2h0.1c1.3,0,2.6,0,3.9,0c0.1,0,0.1,0,0.2,0.1
		c0.6,0.6,1.2,1.2,1.9,1.9c0.1,0.1,0.1,0.1,0.2,0.1c0,0,0.1,0,0.1,0.1c0.1,0.1,0.2,0.1,0.3,0.1c0.1,0,0.2-0.2,0.2-0.3
		C121.4,31.5,121.3,31.4,121.1,31.4z"/>
	<path class="st16" d="M121.3,25.7c-0.1-0.1-0.4-0.1-0.4,0.1c0,0,0,0.1-0.1,0.1c0,0,0,0,0,0c-0.1,0-0.1,0-0.2,0.1
		c-0.6,0.6-1.3,1.3-1.9,1.9c0,0-0.1,0.1-0.1,0.1c-1.4,0-2.7,0-4.1,0c0,0.1,0,0.1,0,0.2c1.4,0,2.8,0,4.1,0c0.1,0,0.1,0,0.2-0.1
		c0.6-0.6,1.3-1.3,1.9-1.9c0,0,0.1-0.1,0.2-0.1c0.1,0,0,0,0.1,0.1c0.1,0.1,0.2,0.1,0.3,0.1c0.1,0,0.2-0.1,0.2-0.2
		C121.4,25.9,121.4,25.8,121.3,25.7z"/>
	<path class="st17" d="M123.6,31.9c-1.8,0-3.2-1.5-3.2-3.2c0-1.7,1.5-3.2,3.2-3.1c1.7,0,3.2,1.4,3.2,3.2
		C126.8,30.6,125.3,31.9,123.6,31.9z M120.5,28.7c0,1.7,1.3,3.1,3.1,3.1c1.7,0,3.1-1.4,3.1-3.1c0-1.7-1.4-3.1-3.1-3.1
		C121.9,25.6,120.5,27.1,120.5,28.7z"/>
	<path class="st15" d="M121.2,24.7c-0.1,0-0.3,0-0.3,0.1c0,0,0,0.1-0.1,0.1c-0.1,0-0.2,0-0.3,0c-0.1,0-0.1,0-0.2,0.1
		c-0.6,0.6-1.3,1.3-1.9,1.9c0,0-0.1,0.1-0.1,0.1c-1.2,0-2.4,0-3.5,0c0,0,0,0,0,0c0,0.1,0,0.1,0,0.2c1.2,0,2.4,0,3.6,0
		c0.1,0,0.1,0,0.2-0.1c0.6-0.6,1.3-1.3,1.9-1.9c0,0,0.1-0.1,0.1-0.1c0.1,0,0.2,0,0.2,0c0,0,0.1,0,0.1,0c0.1,0.1,0.1,0.1,0.2,0.2
		c0.2,0,0.3-0.1,0.3-0.3C121.4,24.8,121.3,24.7,121.2,24.7z"/>
	<path class="st15" d="M121.3,32.4c-0.2-0.1-0.4-0.1-0.4,0.1c0,0,0,0.1-0.1,0.1c-0.1,0-0.1,0-0.2,0c-0.1,0-0.1,0-0.1-0.1
		c-0.6-0.6-1.3-1.3-1.9-1.9c0,0-0.1-0.1-0.2-0.1c-1.2,0-2.4,0-3.6,0c0,0.1,0,0.1,0,0.2c0.3,0,0.7,0,1,0c0.8,0,1.7,0,2.5,0
		c0.1,0,0.1,0,0.1,0.1c0.2,0.2,0.4,0.4,0.7,0.7c0.4,0.4,0.9,0.9,1.3,1.3c0,0,0.1,0.1,0.1,0.1c0.1,0,0.2,0,0.3,0c0.1,0,0.1,0,0.1,0.1
		c0.1,0.1,0.2,0.1,0.3,0.1c0.1,0,0.2-0.1,0.2-0.2C121.4,32.5,121.4,32.4,121.3,32.4z"/>
	<path class="st16" d="M121.2,33.1c-0.1,0-0.3,0-0.3,0.1c0,0.1-0.1,0.1-0.1,0.1c-0.2,0-0.5,0-0.7,0c-0.1,0-0.1,0-0.1-0.1
		c-0.6-0.6-1.2-1.2-1.8-1.8c0,0-0.1-0.1-0.2-0.1c-1.1,0-2.1,0-3.2,0c0,0.1,0,0.1,0,0.2c1,0,2.1,0,3.1,0c0.1,0,0.1,0,0.1,0.1
		c0.6,0.6,1.2,1.2,1.8,1.8c0,0,0.1,0.1,0.1,0c0.3,0,0.5,0,0.8,0c0,0,0.1,0,0.1,0.1c0.1,0.1,0.1,0.1,0.2,0.1c0,0,0,0,0.1,0
		c0.1,0,0.2-0.2,0.2-0.3C121.4,33.2,121.3,33.1,121.2,33.1z"/>
	<path class="st16" d="M121.4,24.1c0-0.1-0.1-0.2-0.3-0.2c-0.1,0-0.2,0.1-0.3,0.2c0,0.1-0.1,0.1-0.1,0.1c-0.2,0-0.5,0-0.7,0
		c-0.1,0-0.1,0-0.2,0.1c-0.6,0.6-1.2,1.2-1.8,1.8c0,0-0.1,0.1-0.1,0.1c-1,0-1.9,0-2.9,0c0,0,0,0.1-0.1,0.1c0,0,0,0,0,0
		c0.3,0,0.7,0,1,0c0.7,0,1.3,0,2,0c0.1,0,0.1,0,0.2-0.1c0.6-0.6,1.2-1.2,1.8-1.8c0,0,0.1-0.1,0.1-0.1c0.2,0,0.5,0,0.7,0
		c0.1,0,0.1,0,0.1,0.1c0.1,0.1,0.3,0.2,0.4,0.1C121.4,24.4,121.4,24.2,121.4,24.1z"/>
	<path class="st14" d="M126.2,24.9C126.2,24.9,126.2,24.8,126.2,24.9C126.2,24.9,126.2,24.9,126.2,24.9
		C126.2,24.9,126.2,24.9,126.2,24.9z"/>
	<path class="st14" d="M126.7,31C126.7,31,126.7,31,126.7,31C126.7,31,126.7,31,126.7,31C126.7,31,126.7,31,126.7,31
		C126.7,31,126.7,31,126.7,31z"/>
	<path class="st14" d="M126.6,26.2C126.6,26.2,126.6,26.2,126.6,26.2C126.6,26.2,126.6,26.2,126.6,26.2
		C126.6,26.2,126.6,26.2,126.6,26.2C126.6,26.2,126.6,26.2,126.6,26.2z"/>
	<path class="st0" d="M122.4,32.5c0.1-0.1,0.2-0.2,0.2-0.3c0,0,0,0,0,0c0,0.1,0,0.3,0,0.4C122.5,32.5,122.5,32.5,122.4,32.5z"/>
	<path class="st0" d="M123.1,32.7C123.1,32.7,123.1,32.7,123.1,32.7c0.1-0.2,0.1-0.3,0.2-0.4c0,0,0,0,0,0.1c0,0.1,0,0.2,0,0.3
		c0,0,0,0-0.1,0C123.2,32.7,123.1,32.7,123.1,32.7C123.1,32.7,123.1,32.7,123.1,32.7z"/>
	<path class="st0" d="M126.3,25.3c0.1,0,0.1,0.1,0.2,0.1c-0.1,0.1-0.2,0.1-0.3,0.2c0,0,0,0,0,0C126.2,25.5,126.2,25.4,126.3,25.3z"
		/>
	<path class="st0" d="M123.6,32.7c-0.1,0-0.1,0-0.2,0c0-0.1,0.1-0.2,0.1-0.3C123.5,32.5,123.6,32.6,123.6,32.7z"/>
	<path class="st0" d="M126.7,26.1C126.7,26.1,126.7,26.1,126.7,26.1c0.1-0.2,0.1-0.2,0.2-0.3c0,0,0.1,0.1,0.1,0.1c0,0,0,0,0,0
		C126.9,26,126.8,26.1,126.7,26.1L126.7,26.1z"/>
	<path class="st0" d="M124.2,32.7c-0.1,0-0.1,0-0.2,0c0-0.1,0-0.2,0.1-0.3C124.2,32.5,124.2,32.6,124.2,32.7z"/>
	<path class="st0" d="M127.3,26.4c0,0.1,0.1,0.1,0.1,0.2c-0.1,0-0.2,0.1-0.3,0.1C127.2,26.6,127.2,26.5,127.3,26.4z"/>
	<path class="st0" d="M124.7,32.7c0-0.1,0-0.2,0-0.3c0.1,0.1,0.1,0.2,0.1,0.3c0,0,0,0,0,0C124.8,32.6,124.8,32.7,124.7,32.7z"/>
	<path class="st0" d="M127.4,27.3c0.1-0.1,0.1-0.1,0.2-0.2c0,0,0,0,0,0c0,0,0,0.1,0,0.1c0,0-0.1,0-0.1,0
		C127.6,27.3,127.5,27.3,127.4,27.3C127.4,27.3,127.4,27.3,127.4,27.3z"/>
	<path class="st0" d="M125.3,32.5c0-0.1,0-0.2,0-0.3c0.1,0.1,0.1,0.2,0.2,0.2C125.4,32.4,125.4,32.5,125.3,32.5z"/>
	<path class="st0" d="M127.4,30c0.1,0,0.2,0,0.3,0c0,0,0,0,0,0.1c0,0,0,0.1-0.1,0.1C127.6,30.1,127.5,30,127.4,30
		C127.4,30,127.4,30,127.4,30z"/>
	<path class="st0" d="M127.9,27.8c0,0.1,0,0.1,0,0.2c-0.1,0-0.2,0-0.3,0C127.6,27.9,127.8,27.8,127.9,27.8z"/>
	<path class="st0" d="M127.6,29.3c0.1,0,0.2,0,0.3,0c0,0,0,0,0,0c0,0,0,0.1,0,0.1C127.8,29.4,127.7,29.4,127.6,29.3z"/>
	<path class="st0" d="M122.8,25c-0.1-0.1-0.1-0.2-0.2-0.3c0,0,0,0,0,0c0.1,0,0.1,0,0.1,0.1C122.8,24.8,122.8,24.9,122.8,25
		C122.8,25,122.8,25,122.8,25C122.8,25,122.8,25,122.8,25z"/>
	<path class="st0" d="M128,28.7c-0.1,0-0.2-0.1-0.3-0.1c0.1,0,0.2-0.1,0.3-0.1C128,28.6,128,28.6,128,28.7z"/>
	<path class="st0" d="M127.1,30.6c0.1,0,0.2,0,0.3,0.1c0,0.1,0,0.1-0.1,0.1c0,0,0,0,0,0C127.3,30.7,127.2,30.7,127.1,30.6
		L127.1,30.6z"/>
	<path class="st0" d="M123.4,24.9c0-0.1-0.1-0.2-0.1-0.3c0,0,0,0,0,0c0,0,0,0,0.1,0c0,0,0,0,0,0C123.4,24.7,123.4,24.8,123.4,24.9z"
		/>
	<path class="st0" d="M125.6,32.3c0-0.1,0-0.2-0.1-0.3c0.1,0.1,0.1,0.2,0.2,0.2C125.7,32.3,125.7,32.3,125.6,32.3z"/>
	<path class="st0" d="M126.1,31.7c0.1,0.1,0.1,0.1,0.2,0.2c0,0-0.1,0.1-0.1,0.1C126.2,31.9,126.1,31.8,126.1,31.7L126.1,31.7z"/>
	<path class="st0" d="M126.6,31.3c0.1,0,0.2,0.1,0.2,0.1c0,0-0.1,0.1-0.1,0.1C126.7,31.5,126.6,31.4,126.6,31.3
		C126.6,31.3,126.6,31.3,126.6,31.3z"/>
	<path class="st0" d="M123.6,24.9c0-0.1-0.1-0.2-0.1-0.3c0,0,0,0,0,0c0,0,0,0,0,0c0,0,0,0,0,0C123.6,24.7,123.6,24.8,123.6,24.9z"/>
	<path class="st0" d="M126.8,31.1c0.1,0,0.2,0.1,0.3,0.1c0,0-0.1,0.1-0.1,0.1C126.9,31.3,126.8,31.2,126.8,31.1L126.8,31.1z"/>
	<path class="st0" d="M124.2,24.9c0-0.1,0-0.2,0-0.3c0-0.1,0-0.1,0.1-0.1c0,0,0,0,0.1,0C124.3,24.6,124.3,24.8,124.2,24.9
		C124.2,24.9,124.2,24.9,124.2,24.9z"/>
	<path class="st0" d="M124.8,24.9c0-0.1,0-0.2,0-0.3c0,0,0,0,0,0c0,0,0,0,0.1,0C124.9,24.8,124.9,24.9,124.8,24.9z"/>
	<path class="st0" d="M124,24.8c0-0.1,0-0.2-0.1-0.3c0,0,0,0,0,0c0,0,0.1,0,0.1,0C124.1,24.6,124.1,24.7,124,24.8z"/>
	<path class="st0" d="M125,25c0-0.1,0-0.2,0-0.3c0,0,0.1,0,0.1,0C125.1,24.8,125.1,24.9,125,25C125,25,125,25,125,25z"/>
	<path class="st0" d="M125.6,25.2c0-0.1,0.1-0.2,0.1-0.3c0,0,0.1,0,0.1,0C125.7,25.1,125.7,25.2,125.6,25.2
		C125.6,25.2,125.6,25.2,125.6,25.2z"/>
	<path class="st0" d="M127,30.9c0.1,0,0.2,0.1,0.2,0.1c0,0,0,0,0,0c-0.1,0.1-0.1,0.1-0.2,0C127,31,127,30.9,127,30.9
		C127,30.9,127,30.9,127,30.9z"/>
	<path class="st0" d="M125.4,25.1c0-0.1,0-0.2,0.1-0.3c0,0,0.1,0,0.1,0C125.5,25,125.5,25.1,125.4,25.1z"/>
	<path class="st0" d="M126,25.4c0-0.1,0.1-0.2,0.1-0.3c0.1,0.1,0.1,0.1,0,0.2C126.1,25.3,126,25.4,126,25.4L126,25.4z"/>
	<path class="st0" d="M125.9,32.3C125.9,32.3,125.9,32.3,125.9,32.3C125.9,32.3,125.9,32.3,125.9,32.3
		C125.9,32.3,125.9,32.3,125.9,32.3L125.9,32.3z"/>
	<path class="st0" d="M127.9,29.9C127.9,29.9,127.9,29.9,127.9,29.9C127.9,29.9,127.9,29.9,127.9,29.9
		C127.9,29.9,127.9,29.9,127.9,29.9z"/>
	<path class="st0" d="M123.3,24.2C123.2,24.2,123.2,24.2,123.3,24.2C123.2,24.2,123.2,24.2,123.3,24.2z"/>
	<path class="st0" d="M123.7,32.9C123.6,32.9,123.6,32.9,123.7,32.9C123.6,32.9,123.6,32.9,123.7,32.9
		C123.6,32.8,123.6,32.8,123.7,32.9C123.6,32.8,123.7,32.8,123.7,32.9z"/>
	<path class="st0" d="M123,24.6C123,24.6,123,24.6,123,24.6C123,24.6,123,24.6,123,24.6C123,24.6,123,24.6,123,24.6
		C123,24.6,123,24.6,123,24.6z"/>
	<path class="st0" d="M127.2,31.1C127.2,31.1,127.2,31.1,127.2,31.1C127.2,31.1,127.2,31.1,127.2,31.1
		C127.2,31.1,127.2,31.1,127.2,31.1C127.1,31.1,127.2,31.1,127.2,31.1z"/>
	<path class="st0" d="M127.2,31.3C127.2,31.3,127.2,31.3,127.2,31.3C127.2,31.3,127.2,31.3,127.2,31.3
		C127.2,31.3,127.2,31.3,127.2,31.3z"/>
	<path class="st0" d="M127.1,31.3C127.1,31.3,127.1,31.3,127.1,31.3C127.1,31.3,127.1,31.3,127.1,31.3
		C127.1,31.3,127.1,31.3,127.1,31.3z"/>
	<path class="st0" d="M127.9,29.9C127.9,29.9,127.8,29.9,127.9,29.9C127.8,29.9,127.9,29.9,127.9,29.9
		C127.9,29.9,127.9,29.9,127.9,29.9z"/>
	<path class="st0" d="M125.9,32.3C125.9,32.3,125.9,32.3,125.9,32.3C125.9,32.4,125.9,32.4,125.9,32.3
		C125.9,32.4,125.9,32.3,125.9,32.3C125.9,32.3,125.9,32.3,125.9,32.3z"/>
	<path class="st0" d="M122.4,32.6C122.4,32.6,122.4,32.6,122.4,32.6C122.4,32.6,122.4,32.6,122.4,32.6
		C122.4,32.6,122.4,32.6,122.4,32.6C122.4,32.6,122.4,32.6,122.4,32.6z"/>
	<path class="st0" d="M127,30.9C127,30.9,127,30.9,127,30.9C127,30.9,127,30.9,127,30.9C127,30.9,127,30.9,127,30.9z"/>
	<path class="st0" d="M126.8,31.1C126.8,31.1,126.8,31.1,126.8,31.1C126.8,31.1,126.8,31.1,126.8,31.1
		C126.8,31.1,126.8,31.1,126.8,31.1C126.8,31.1,126.8,31.1,126.8,31.1z"/>
	<path class="st0" d="M127.1,30.6C127.1,30.6,127.1,30.6,127.1,30.6C127.1,30.6,127.1,30.6,127.1,30.6
		C127.1,30.6,127.1,30.6,127.1,30.6z"/>
	<path class="st0" d="M126.3,31.6C126.3,31.5,126.3,31.5,126.3,31.6C126.3,31.5,126.4,31.5,126.3,31.6
		C126.4,31.5,126.3,31.5,126.3,31.6z"/>
	<path class="st0" d="M126.1,31.7C126.1,31.7,126.1,31.7,126.1,31.7C126.1,31.7,126.1,31.7,126.1,31.7
		C126.1,31.7,126.1,31.7,126.1,31.7C126.1,31.7,126.1,31.7,126.1,31.7z"/>
	<path class="st0" d="M125.9,31.9C125.9,31.9,125.9,31.9,125.9,31.9C125.9,31.9,125.9,31.9,125.9,31.9
		C125.9,31.9,125.9,31.9,125.9,31.9C125.9,31.9,125.9,31.9,125.9,31.9z"/>
	<path class="st0" d="M126,25.4C126,25.4,126,25.4,126,25.4C126,25.4,126,25.4,126,25.4C126,25.4,126,25.4,126,25.4z"/>
	<polygon class="st0" points="125.8,25.3 125.8,25.3 125.8,25.3 125.8,25.3 	"/>
	<polygon class="st0" points="126.7,26.1 126.7,26.1 126.7,26.1 	"/>
	<path class="st0" d="M126.4,25.9C126.4,25.9,126.4,25.9,126.4,25.9C126.4,25.9,126.4,25.9,126.4,25.9
		C126.4,25.9,126.4,25.9,126.4,25.9C126.4,25.9,126.4,25.9,126.4,25.9z"/>
	<path class="st18" d="M122.4,29.3c0,0.1,0,0.2,0,0.3c0,0,0,0.1-0.1,0.1c-0.1,0-0.2,0-0.2,0c0,0-0.1,0-0.1-0.1c0-0.2,0-0.3,0-0.5
		c0-0.2,0-0.5,0-0.7c0-0.1,0-0.1,0.1-0.1c0,0,0.1,0,0.1,0c0,0,0.1,0,0.1,0.1c0,0,0,0,0,0c0,0,0.1,0,0.1,0c0.2-0.1,0.5,0,0.5,0.2
		c0.1,0.2,0.1,0.3,0,0.5c0,0.1-0.1,0.2-0.2,0.2C122.7,29.4,122.6,29.4,122.4,29.3C122.5,29.3,122.5,29.3,122.4,29.3z M122.4,28.9
		c0,0,0,0.1,0,0.1c0,0,0,0,0,0.1c0.1,0.1,0.2,0,0.2-0.1c0-0.1,0-0.1,0-0.2c0,0,0-0.1,0-0.1c0-0.1-0.1-0.1-0.2-0.1
		c-0.1,0-0.1,0.1-0.1,0.1C122.4,28.8,122.4,28.9,122.4,28.9z"/>
	<path class="st18" d="M126.2,28.5c0-0.1,0-0.2,0-0.3c0,0,0,0,0-0.1c0,0,0-0.1,0.1-0.1c0.1,0,0.1,0,0.2,0c0.1,0,0.1,0,0.1,0.1
		c0,0.1,0,0.3,0,0.4c0,0.3,0,0.5,0,0.8c0,0.1,0,0.1-0.1,0.1c0,0-0.1,0-0.1,0c-0.1,0-0.1,0-0.1-0.1c0,0-0.1,0-0.1,0
		c-0.2,0.1-0.4,0.1-0.5-0.1c-0.1-0.2-0.1-0.5,0-0.7c0.1-0.1,0.2-0.2,0.4-0.2C126.1,28.4,126.1,28.4,126.2,28.5z M126.2,28.9
		c0,0,0-0.1,0-0.1c0-0.1,0-0.1-0.1-0.1c-0.1,0-0.1,0-0.1,0.1c0,0,0,0.1,0,0.1c0,0.1,0,0.1,0,0.2c0,0.1,0.1,0.1,0.2,0.1
		c0.1,0,0.1-0.1,0.1-0.1C126.2,29,126.2,28.9,126.2,28.9z"/>
	<path class="st18" d="M121.4,29.4c-0.2,0-0.3,0-0.5-0.1c0,0,0,0,0-0.1c0-0.1,0.1-0.1,0.1-0.2c0,0,0,0,0.1,0
		c0.1,0.1,0.2,0.1,0.3,0.1c0,0,0,0,0,0c0,0,0.1,0,0.1-0.1c0,0,0-0.1-0.1-0.1c-0.1,0-0.2-0.1-0.3-0.1c-0.1,0-0.1-0.1-0.2-0.1
		c-0.1-0.2-0.1-0.4,0.1-0.5c0.1-0.1,0.3-0.1,0.5-0.1c0.1,0,0.2,0.1,0.3,0.1c0,0,0,0,0,0.1c0,0,0,0,0,0c0,0-0.1,0.1-0.1,0.1
		c0,0-0.1,0-0.1-0.1c-0.1,0-0.1,0-0.2,0c-0.1,0-0.1,0-0.1,0.1c0,0,0,0.1,0.1,0.1c0.1,0,0.2,0.1,0.2,0.1c0,0,0.1,0,0.1,0
		c0.3,0.1,0.2,0.4,0.1,0.6C121.7,29.3,121.6,29.4,121.4,29.4C121.4,29.4,121.4,29.4,121.4,29.4z"/>
	<path class="st18" d="M123.6,29c0,0.1,0.1,0.1,0.2,0.1c0.1,0,0.2,0,0.3,0c0,0,0.1,0,0.1,0c0,0,0,0,0,0.1c0.1,0.1,0.1,0.1-0.1,0.1
		c-0.1,0.1-0.3,0.1-0.5,0c-0.3-0.1-0.4-0.3-0.4-0.5c0-0.4,0.4-0.5,0.7-0.5c0.2,0,0.3,0.2,0.3,0.3c0,0.1,0,0.1,0,0.2
		c0,0.1,0,0.1-0.1,0.1C124,29,123.8,29,123.6,29C123.7,29,123.6,29,123.6,29z M123.6,28.8c0.1,0,0.2,0,0.3,0c0-0.1-0.1-0.1-0.1-0.1
		C123.7,28.6,123.6,28.7,123.6,28.8z"/>
	<path class="st18" d="M124.8,29c0,0.1,0.1,0.1,0.1,0.1c0.1,0,0.2,0,0.3,0c0.1,0,0.1,0,0.1,0c0,0,0,0,0,0.1c0.1,0.1,0.1,0.1,0,0.1
		c-0.2,0.1-0.3,0.1-0.5,0c-0.2-0.1-0.3-0.2-0.3-0.4c0-0.2,0.1-0.4,0.3-0.5c0.1-0.1,0.2-0.1,0.4,0c0.2,0,0.3,0.2,0.3,0.4
		c0,0,0,0.1,0,0.1c0,0.1,0,0.1-0.1,0.1C125.2,29,125,29,124.8,29C124.8,29,124.8,29,124.8,29z M124.8,28.8c0.1,0,0.2,0,0.3,0
		c0,0,0,0,0,0c0,0,0,0,0-0.1C124.9,28.6,124.8,28.6,124.8,28.8z"/>
</g>
</svg>
