<?xml version="1.0" encoding="utf-8"?>
<!-- Generator: Adobe Illustrator 26.0.0, SVG Export Plug-In . SVG Version: 6.00 Build 0)  -->
<svg version="1.1" id="Layer_1" xmlns="http://www.w3.org/2000/svg" xmlns:xlink="http://www.w3.org/1999/xlink" x="0px" y="0px"
	 viewBox="0 0 236.1 182.6" style="enable-background:new 0 0 236.1 182.6;" xml:space="preserve">
<style type="text/css">
	.st0{fill:#FFFFFF;}
	.st1{fill:url(#SVGID_1_);}
	.st2{fill:url(#SVGID_00000121242341801150247080000013274593663661731467_);}
	.st3{fill:url(#SVGID_00000155132701753034388270000001421249645445110952_);}
	.st4{fill:#0B1D51;}
	.st5{fill:#EDF3FC;}
	.st6{fill:#6857E5;}
	.st7{fill:#330D84;}
	.st8{fill:#FFBE1B;}
	.st9{fill:#5D8EF9;}
	.st10{fill:#C9F7B6;}
	.st11{fill:#7BB57A;}
	.st12{fill:#89C585;}
	.st13{fill:#5B915A;}
	.st14{fill:#5B8E63;}
	.st15{fill:#FFCB52;}
	.st16{fill:#F09413;}
	.st17{fill:#FFC052;}
	.st18{fill:#FFDF75;}
	.st19{fill:#C97C10;}
	.st20{fill:#DE8800;}
</style>
<g>
	<g>
		<g>
			<path class="st0" d="M217.5,182.6H20c-2.8,0-5.3-1-7.3-2.6c-2.7-2.2-4.4-5.5-4.4-9.2V73.8c0-2.9,1-5.5,2.8-7.6
				c2.2-2.5,5.4-4.1,9-4.1h197.5c3.2,0,6.2,1.3,8.3,3.4c2.1,2.1,3.4,5.1,3.4,8.3v97.1c0,3.1-1.2,6-3.2,8.1
				C223.8,181.2,220.8,182.6,217.5,182.6z"/>
			<linearGradient id="SVGID_1_" gradientUnits="userSpaceOnUse" x1="8.2991" y1="79.1343" x2="8.2991" y2="165.5646">
				<stop  offset="0" style="stop-color:#EF1C71"/>
				<stop  offset="0.9906" style="stop-color:#AE0080"/>
			</linearGradient>
			<path class="st1" d="M13.3,165.6h-10c-0.5,0-1-0.2-1.3-0.5c-0.3-0.3-0.5-0.8-0.5-1.3V81c0-0.4,0.1-0.7,0.3-1
				c0.3-0.5,0.9-0.8,1.5-0.8h10c0.5,0,1,0.2,1.3,0.5c0.3,0.3,0.5,0.8,0.5,1.3v82.8c0,0.5-0.2,1-0.5,1.3
				C14.3,165.4,13.8,165.6,13.3,165.6z"/>
			
				<linearGradient id="SVGID_00000000201926617504591720000014579251961981016760_" gradientUnits="userSpaceOnUse" x1="229.2208" y1="79.1343" x2="229.2208" y2="165.5646">
				<stop  offset="0" style="stop-color:#EF1C71"/>
				<stop  offset="0.9906" style="stop-color:#AE0080"/>
			</linearGradient>
			<path style="fill:url(#SVGID_00000000201926617504591720000014579251961981016760_);" d="M234.2,165.6h-10c-0.4,0-0.7-0.1-1-0.3
				c-0.5-0.3-0.8-0.9-0.8-1.5V81c0-0.4,0.1-0.8,0.4-1.1c0.3-0.4,0.9-0.7,1.4-0.7h10c0.7,0,1.3,0.4,1.6,1c0.1,0.3,0.2,0.5,0.2,0.9
				v82.8c0,0.6-0.3,1.1-0.8,1.5C235,165.4,234.6,165.6,234.2,165.6z"/>
			<circle class="st0" cx="118.7" cy="52.3" r="45.7"/>
			
				<linearGradient id="SVGID_00000000926280580323804970000017989798405294885514_" gradientUnits="userSpaceOnUse" x1="118.7322" y1="14.4677" x2="118.7322" y2="90.1225">
				<stop  offset="0" style="stop-color:#EF1C71"/>
				<stop  offset="0.9906" style="stop-color:#AE0080"/>
			</linearGradient>
			<circle style="fill:url(#SVGID_00000000926280580323804970000017989798405294885514_);" cx="118.7" cy="52.3" r="37.8"/>
		</g>
		<g>
			<path class="st4" d="M73.9,113.2v-12.6h3.6v9.8h6v2.8H73.9z"/>
			<path class="st4" d="M91,113.5c-1,0-1.9-0.2-2.8-0.5c-0.9-0.3-1.6-0.8-2.2-1.4c-0.6-0.6-1.1-1.3-1.5-2.1s-0.5-1.7-0.5-2.6
				c0-0.9,0.2-1.8,0.5-2.6s0.8-1.5,1.5-2.1c0.6-0.6,1.4-1.1,2.2-1.4c0.9-0.3,1.8-0.5,2.8-0.5c1,0,2,0.2,2.8,0.5
				c0.8,0.3,1.6,0.8,2.2,1.4c0.6,0.6,1.1,1.3,1.5,2.1s0.5,1.7,0.5,2.6c0,0.9-0.2,1.8-0.5,2.6c-0.4,0.8-0.8,1.5-1.5,2.1
				c-0.6,0.6-1.4,1-2.2,1.4C93,113.3,92,113.5,91,113.5z M91,110.5c0.5,0,0.9-0.1,1.3-0.3c0.4-0.2,0.8-0.4,1.1-0.7
				c0.3-0.3,0.5-0.7,0.7-1.1c0.2-0.4,0.3-0.9,0.3-1.5c0-0.6-0.1-1-0.3-1.5c-0.2-0.4-0.4-0.8-0.7-1.1c-0.3-0.3-0.7-0.6-1.1-0.7
				s-0.9-0.3-1.3-0.3s-0.9,0.1-1.3,0.3s-0.8,0.4-1.1,0.7c-0.3,0.3-0.5,0.7-0.7,1.1c-0.2,0.4-0.3,0.9-0.3,1.5c0,0.5,0.1,1,0.3,1.5
				c0.2,0.4,0.4,0.8,0.7,1.1c0.3,0.3,0.7,0.6,1.1,0.7C90.1,110.4,90.5,110.5,91,110.5z"/>
			<path class="st4" d="M102.4,113.2v-9.8h-3.9v-2.8h11.3v2.8h-3.9v9.8H102.4z"/>
			<path class="st4" d="M114,113.2v-9.8h-3.9v-2.8h11.3v2.8h-3.9v9.8H114z"/>
			<path class="st4" d="M126.3,110.5h6.6v2.8h-10.1v-12.6h9.9v2.8h-6.4V110.5z M126,105.5h5.9v2.7H126V105.5z"/>
			<path class="st4" d="M134.8,113.2v-12.6h5.8c1.2,0,2.1,0.2,3,0.6c0.8,0.4,1.5,0.9,1.9,1.6c0.5,0.7,0.7,1.5,0.7,2.5
				c0,0.9-0.2,1.8-0.7,2.5s-1.1,1.2-1.9,1.6c-0.8,0.4-1.8,0.5-3,0.5h-3.8l1.6-1.5v4.8H134.8z M138.4,108.7l-1.6-1.6h3.6
				c0.7,0,1.3-0.2,1.7-0.5c0.4-0.3,0.5-0.8,0.5-1.4c0-0.6-0.2-1-0.5-1.4c-0.4-0.3-0.9-0.5-1.7-0.5h-3.6l1.6-1.6V108.7z M142.6,113.2
				l-3.1-4.6h3.8l3.1,4.6H142.6z"/>
			<path class="st4" d="M151.2,113.2v-5.3l0.8,2.1l-5.6-9.4h3.8l4.1,6.8H152l4.1-6.8h3.5l-5.6,9.4l0.8-2.1v5.3H151.2z"/>
		</g>
	</g>
</g>
<g>
	<path class="st5" d="M151.3,52.7c0,17.8-14.5,32.3-32.3,32.3c-17.8,0-32.3-14.5-32.3-32.3s14.5-32.3,32.3-32.3
		C136.9,20.4,151.3,34.9,151.3,52.7z"/>
	<path class="st5" d="M119,91c-21.1,0-38.3-17.2-38.3-38.3S97.9,14.4,119,14.4c21.1,0,38.3,17.2,38.3,38.3S140.1,91,119,91z
		 M119,15.6c-20.4,0-37.1,16.6-37.1,37.1c0,20.4,16.6,37.1,37.1,37.1c20.4,0,37.1-16.6,37.1-37.1C156.1,32.3,139.5,15.6,119,15.6z"
		/>
	<path class="st6" d="M130.8,62.7h2.5V59c0-0.3,0-0.5-0.1-0.8c-0.5,1.2-1.1,2.4-1.7,3.4C131.3,62,131,62.3,130.8,62.7z"/>
	<path class="st7" d="M115.5,28l0.3,0.1l-0.3,0.1c-1.9,0.5-3.4,2-3.9,3.9l-0.1,0.3l-0.1-0.3c-0.5-1.9-2-3.4-3.9-3.9l-0.3-0.1
		l0.3-0.1c1.9-0.5,3.4-2,3.9-3.9l0.1-0.3l0.1,0.3C112.1,26,113.6,27.5,115.5,28L115.5,28z"/>
	<path class="st7" d="M102.2,36.4l0.2,0.1l-0.2,0.1c-1.3,0.3-2.3,1.3-2.6,2.6l-0.1,0.2l-0.1-0.2c-0.3-1.3-1.3-2.3-2.6-2.6l-0.2-0.1
		l0.2-0.1c1.3-0.3,2.3-1.3,2.6-2.6l0.1-0.2l0.1,0.2C99.9,35.1,100.9,36.1,102.2,36.4L102.2,36.4z"/>
	<path class="st8" d="M143.4,59.3l0.2,0.1l-0.2,0.1c-1.2,0.3-2.1,1.2-2.4,2.4L141,62l-0.1-0.2c-0.3-1.2-1.2-2.1-2.4-2.4l-0.2-0.1
		l0.2-0.1c1.2-0.3,2.1-1.2,2.4-2.4l0.1-0.2l0.1,0.2C141.3,58,142.2,59,143.4,59.3L143.4,59.3z"/>
	<path class="st9" d="M115.4,76.4l0.3,0.1l-0.3,0.1c-1.7,0.4-3,1.7-3.4,3.4l-0.1,0.3l-0.1-0.3c-0.4-1.7-1.7-3-3.4-3.4l-0.3-0.1
		l0.3-0.1c1.7-0.4,3-1.7,3.4-3.4l0.1-0.3l0.1,0.3C112.4,74.7,113.7,76,115.4,76.4L115.4,76.4z"/>
	<path class="st9" d="M121.7,77.8l0.2,0L121.7,77.8c-1.1,0.4-1.9,1.2-2.2,2.3l0,0.2l0-0.2c-0.3-1.1-1.1-1.9-2.2-2.2l-0.2,0l0.2,0
		c1.1-0.3,1.9-1.1,2.2-2.2l0-0.2l0,0.2C119.8,76.7,120.6,77.6,121.7,77.8L121.7,77.8z"/>
</g>
<g>
	<path d="M28.7,127.8h-3.2l-0.5,1.5h-2.7l3.6-9.1h2.5l3.7,9.1h-2.8L28.7,127.8z M27.1,123l-1,2.8h2L27.1,123z"/>
	<path d="M41.1,127v2.3h-5.8v-9.1h2.5v6.8H41.1z"/>
	<path d="M41.6,125.8c0-2.2,1.6-3.7,3.9-3.7c2.3,0,3.9,1.6,3.9,3.7c0,2.2-1.7,3.7-3.9,3.7C43.3,129.5,41.6,128,41.6,125.8z
		 M47.1,125.8c0-0.9-0.6-1.6-1.5-1.6c-0.9,0-1.5,0.6-1.5,1.6c0,0.9,0.6,1.6,1.5,1.6C46.4,127.4,47.1,126.7,47.1,125.8z"/>
	<path d="M55.2,127.2v2.1h-1.7c-1.6,0-2.5-0.9-2.5-2.5v-2.6h-1.3v-0.6l3.1-3.3h0.5v2.1h1.8v1.9h-1.7v2.2c0,0.5,0.3,0.8,0.8,0.8H55.2
		z"/>
	<path d="M61.1,127.2v2.1h-1.7c-1.6,0-2.5-0.9-2.5-2.5v-2.6h-1.3v-0.6l3.1-3.3h0.5v2.1h1.8v1.9h-1.7v2.2c0,0.5,0.3,0.8,0.8,0.8H61.1
		z"/>
	<path d="M69.4,125.7c0,0.2,0,0.4,0,0.6h-5.2c0.2,0.8,0.7,1.2,1.4,1.2c0.6,0,1-0.2,1.3-0.7h2.4c-0.5,1.6-1.9,2.6-3.7,2.6
		c-2.2,0-3.8-1.6-3.8-3.7c0-2.2,1.6-3.7,3.8-3.7C67.8,122.1,69.4,123.7,69.4,125.7L69.4,125.7z M64.2,125H67
		c-0.2-0.7-0.7-1.1-1.4-1.1C64.9,123.9,64.4,124.3,64.2,125z"/>
	<path d="M75.1,122.3v2.2h-0.9c-0.9,0-1.2,0.4-1.2,1.3v3.6h-2.4v-7h1.6l0.4,0.8c0.5-0.6,1.1-0.8,1.9-0.8H75.1z"/>
	<path d="M83.4,122.3l-2.9,6.7c-0.9,2.1-1.8,2.9-3.6,2.9H76v-2.1h0.7c0.9,0,1.2-0.2,1.5-1.1l-2.9-6.4h2.6l1.5,3.9l1.4-3.9H83.4z"/>
	<path d="M94.4,125.8c0,2.2-1.5,3.7-3.7,3.7c-0.6,0-1.2-0.2-1.7-0.5v2.8h-2.4v-9.6h1.6l0.3,0.6c0.6-0.5,1.3-0.8,2.2-0.8
		C92.9,122.1,94.4,123.6,94.4,125.8z M92,125.8c0-0.9-0.7-1.6-1.6-1.6s-1.6,0.7-1.6,1.6s0.7,1.6,1.6,1.6
		C91.3,127.4,92,126.7,92,125.8z"/>
	<path d="M95.5,119.7h2.4v9.6h-2.4V119.7z"/>
	<path d="M106.9,122.3v7h-1.9l-0.2-0.5c-0.6,0.5-1.3,0.7-2.1,0.7c-2.1,0-3.7-1.6-3.7-3.7c0-2.2,1.5-3.7,3.7-3.7
		c0.8,0,1.6,0.3,2.1,0.8l0.2-0.5H106.9z M104.6,125.8c0-0.9-0.7-1.6-1.6-1.6c-0.9,0-1.6,0.7-1.6,1.6c0,0.9,0.7,1.6,1.6,1.6
		S104.6,126.7,104.6,125.8z"/>
	<path d="M113.2,127.2v2.1h-1.7c-1.6,0-2.5-0.9-2.5-2.5v-2.6h-1.3v-0.6l3.1-3.3h0.5v2.1h1.8v1.9h-1.7v2.2c0,0.5,0.3,0.8,0.8,0.8
		H113.2z"/>
	<path d="M119,124.3h-1.6v5H115v-5h-1.2l0-1.9h1.2v-0.7c0-1.4,0.8-2.2,2.3-2.2h1.7v1.9h-1.1c-0.4,0-0.6,0.2-0.6,0.6v0.5h1.7V124.3z"
		/>
	<path d="M119.4,125.8c0-2.2,1.6-3.7,3.9-3.7c2.3,0,3.9,1.6,3.9,3.7c0,2.2-1.7,3.7-3.9,3.7C121,129.5,119.4,128,119.4,125.8z
		 M124.8,125.8c0-0.9-0.6-1.6-1.5-1.6c-0.9,0-1.5,0.6-1.5,1.6c0,0.9,0.6,1.6,1.5,1.6C124.2,127.4,124.8,126.7,124.8,125.8z"/>
	<path d="M132.9,122.3v2.2H132c-0.9,0-1.2,0.4-1.2,1.3v3.6h-2.4v-7h1.6l0.4,0.8c0.5-0.6,1.1-0.8,1.9-0.8H132.9z"/>
	<path d="M144.6,124.9v4.4h-2.4v-4.1c0-0.7-0.3-1.1-0.8-1.1c-0.7,0-1,0.5-1,1.3v3.8h-2.4v-4.1c0-0.7-0.3-1.1-0.8-1.1
		c-0.7,0-1,0.5-1,1.3v3.8h-2.4v-7h1.7l0.3,0.8c0.5-0.6,1.2-1,2.1-1c0.9,0,1.6,0.4,2,1c0.5-0.6,1.3-1,2.2-1
		C143.6,122.1,144.6,123.2,144.6,124.9z"/>
	<path d="M153.6,124.3H152v5h-2.4v-5h-1.2l0-1.9h1.2v-0.7c0-1.4,0.8-2.2,2.3-2.2h1.7v1.9h-1.1c-0.4,0-0.6,0.2-0.6,0.6v0.5h1.7V124.3
		z"/>
	<path d="M154,125.8c0-2.2,1.6-3.7,3.9-3.7c2.3,0,3.9,1.6,3.9,3.7c0,2.2-1.7,3.7-3.9,3.7C155.6,129.5,154,128,154,125.8z
		 M159.4,125.8c0-0.9-0.6-1.6-1.5-1.6c-0.9,0-1.5,0.6-1.5,1.6c0,0.9,0.6,1.6,1.5,1.6C158.8,127.4,159.4,126.7,159.4,125.8z"/>
	<path d="M167.5,122.3v2.2h-0.9c-0.9,0-1.2,0.4-1.2,1.3v3.6H163v-7h1.6l0.4,0.8c0.5-0.6,1.1-0.8,1.9-0.8H167.5z"/>
	<path d="M181.4,122.3l-2.2,7h-1.9l-1.4-3.1l-1.4,3.1h-1.9l-2.3-7h2.5l1.1,3.7l1.7-3.7h0.7l1.8,3.7l1-3.7H181.4z"/>
	<path d="M182.2,122.3h2.4v7h-2.4V122.3z M182.3,119.4h2.4v2.1h-2.4V119.4z"/>
	<path d="M193.1,125v4.3h-2.4v-3.9c0-0.8-0.3-1.2-0.9-1.2c-0.8,0-1.2,0.5-1.2,1.4v3.7h-2.4v-7h1.7l0.3,0.7c0.5-0.6,1.3-0.9,2.2-0.9
		C192,122.1,193.1,123.2,193.1,125z"/>
	<path d="M194.6,122.3h2.4v7h-2.4V122.3z M194.6,119.4h2.4v2.1h-2.4V119.4z"/>
	<path d="M205.4,125v4.3H203v-3.9c0-0.8-0.3-1.2-0.9-1.2c-0.8,0-1.2,0.5-1.2,1.4v3.7h-2.4v-7h1.7l0.3,0.7c0.5-0.6,1.3-0.9,2.2-0.9
		C204.4,122.1,205.4,123.2,205.4,125z"/>
	<path d="M214.1,122.3v6.2c0,2.2-1.4,3.6-3.8,3.6c-2,0-3.4-1-3.7-2.7h2.3c0.2,0.5,0.8,0.7,1.4,0.7c0.8,0,1.5-0.5,1.5-1.3v-0.2
		c-0.5,0.3-1.2,0.5-1.8,0.5c-2,0-3.5-1.5-3.5-3.5c0-2,1.5-3.5,3.5-3.5c0.8,0,1.6,0.3,2.2,0.8l0.3-0.6H214.1z M211.9,125.6
		c0-0.9-0.6-1.5-1.5-1.5c-0.9,0-1.5,0.6-1.5,1.5c0,0.9,0.6,1.5,1.5,1.5C211.3,127.1,211.9,126.5,211.9,125.6z"/>
	<path d="M27.8,137.9v7H26l-0.2-0.5c-0.6,0.5-1.3,0.7-2.1,0.7c-2.1,0-3.7-1.6-3.7-3.7c0-2.2,1.5-3.7,3.7-3.7c0.8,0,1.6,0.3,2.1,0.8
		l0.2-0.5H27.8z M25.5,141.4c0-0.9-0.7-1.6-1.6-1.6c-0.9,0-1.6,0.7-1.6,1.6c0,0.9,0.7,1.6,1.6,1.6S25.5,142.3,25.5,141.4z"/>
	<path d="M36.3,140.6v4.3h-2.4V141c0-0.8-0.3-1.2-0.9-1.2c-0.8,0-1.2,0.5-1.2,1.4v3.7h-2.4v-7H31l0.3,0.7c0.5-0.6,1.3-0.9,2.2-0.9
		C35.2,137.7,36.3,138.8,36.3,140.6z"/>
	<path d="M45.1,135.3v9.6h-1.8l-0.2-0.5c-0.6,0.5-1.3,0.8-2.1,0.8c-2.2,0-3.7-1.6-3.7-3.7s1.5-3.7,3.7-3.7c0.6,0,1.2,0.2,1.7,0.5
		v-2.8H45.1z M42.9,141.4c0-0.9-0.7-1.6-1.6-1.6s-1.6,0.7-1.6,1.6c0,0.9,0.7,1.6,1.6,1.6S42.9,142.3,42.9,141.4z"/>
	<path d="M54,142.8v2.1h-1.7c-1.6,0-2.5-0.9-2.5-2.5v-2.6h-1.3v-0.6l3.1-3.3h0.5v2.1h1.8v1.9h-1.7v2.2c0,0.5,0.3,0.8,0.8,0.8H54z"/>
	<path d="M54.6,141.4c0-2.2,1.6-3.7,3.9-3.7c2.3,0,3.9,1.6,3.9,3.7c0,2.2-1.7,3.7-3.9,3.7C56.3,145.1,54.6,143.6,54.6,141.4z
		 M58.6,143c0.9,0,1.5-0.6,1.5-1.6c0-0.9-0.6-1.6-1.5-1.6c-0.9,0-1.5,0.6-1.5,1.6C57,142.3,57.7,143,58.6,143L58.6,143z"/>
	<path d="M73.7,137.9v6.2c0,2.2-1.4,3.6-3.8,3.6c-2,0-3.4-1-3.7-2.7h2.3c0.2,0.5,0.8,0.7,1.4,0.7c0.8,0,1.5-0.5,1.5-1.3v-0.2
		c-0.5,0.3-1.2,0.5-1.8,0.5c-2,0-3.5-1.5-3.5-3.5c0-2,1.5-3.5,3.5-3.5c0.9,0,1.6,0.3,2.2,0.8l0.3-0.6L73.7,137.9z M69.9,142.7
		c0.9,0,1.5-0.6,1.5-1.5c0-0.9-0.6-1.5-1.5-1.5c-0.9,0-1.5,0.6-1.5,1.5C68.4,142.1,69.1,142.7,69.9,142.7L69.9,142.7z"/>
	<path d="M82.5,141.3c0,0.2,0,0.4,0,0.6h-5.2c0.2,0.8,0.7,1.2,1.4,1.2c0.6,0,1-0.2,1.3-0.7h2.4c-0.5,1.6-1.9,2.6-3.7,2.6
		c-2.2,0-3.8-1.6-3.8-3.7c0-2.2,1.6-3.7,3.8-3.7C80.9,137.7,82.5,139.3,82.5,141.3L82.5,141.3z M77.2,140.6h2.8
		c-0.2-0.7-0.7-1.1-1.4-1.1C77.9,139.5,77.4,139.9,77.2,140.6z"/>
	<path d="M88.2,142.8v2.1h-1.7c-1.6,0-2.5-0.9-2.5-2.5v-2.6h-1.3v-0.6l3.1-3.3h0.5v2.1h1.8v1.9h-1.7v2.2c0,0.5,0.3,0.8,0.8,0.8H88.2
		z"/>
	<path d="M99.6,137.9v7h-1.9l-0.2-0.5c-0.6,0.5-1.3,0.7-2.1,0.7c-2.1,0-3.7-1.6-3.7-3.7c0-2.2,1.5-3.7,3.7-3.7
		c0.8,0,1.6,0.3,2.1,0.8l0.2-0.5H99.6z M97.3,141.4c0-0.9-0.7-1.6-1.6-1.6c-0.9,0-1.6,0.7-1.6,1.6c0,0.9,0.7,1.6,1.6,1.6
		S97.3,142.3,97.3,141.4z"/>
	<path d="M103.5,141.4c0-2.2,1.6-3.7,3.9-3.7c2,0,3.5,1.2,3.7,3.1h-2.4c-0.2-0.6-0.7-0.9-1.4-0.9c-0.8,0-1.5,0.6-1.5,1.6
		s0.6,1.6,1.5,1.6c0.6,0,1.2-0.4,1.4-1h2.4c-0.3,1.9-1.8,3.2-3.8,3.2C105.2,145.1,103.5,143.6,103.5,141.4z"/>
	<path d="M119.7,137.9v7h-1.9l-0.2-0.5c-0.6,0.5-1.3,0.7-2.1,0.7c-2.1,0-3.7-1.6-3.7-3.7c0-2.2,1.5-3.7,3.7-3.7
		c0.8,0,1.6,0.3,2.1,0.8l0.2-0.5H119.7z M117.4,141.4c0-0.9-0.7-1.6-1.6-1.6c-0.9,0-1.6,0.7-1.6,1.6c0,0.9,0.7,1.6,1.6,1.6
		S117.4,142.3,117.4,141.4z"/>
	<path d="M123.9,145.1c-1.9,0-3.1-1-3.1-2.5h2.3c0,0.5,0.4,0.8,0.8,0.8c0.4,0,0.7-0.2,0.7-0.5c0-0.4-0.5-0.5-1.2-0.6
		c-1.1-0.2-2.5-0.5-2.5-2.2c0-1.4,1.2-2.3,3-2.3c1.8,0,2.9,1,3,2.4h-2.3c0-0.4-0.3-0.7-0.7-0.7c-0.4,0-0.6,0.2-0.6,0.5
		c0,0.4,0.5,0.5,1.2,0.6c1.1,0.2,2.6,0.4,2.6,2.2C127,144.2,125.8,145.1,123.9,145.1L123.9,145.1z"/>
	<path d="M135.1,140.7v4.2h-2.4V141c0-0.8-0.3-1.2-0.9-1.2c-0.7,0-1.2,0.5-1.2,1.4v3.7h-2.4v-9.6h2.4v3c0.5-0.4,1.2-0.7,1.9-0.7
		C134.1,137.7,135.1,138.9,135.1,140.7z"/>
	<path d="M144.4,141.4c0,2.2-1.5,3.7-3.7,3.7c-0.8,0-1.5-0.3-2.1-0.8l-0.2,0.5h-1.8v-9.6h2.4v2.8c0.5-0.3,1.1-0.5,1.7-0.5
		C142.8,137.7,144.4,139.2,144.4,141.4z M141.9,141.4c0-0.9-0.7-1.6-1.6-1.6s-1.6,0.7-1.6,1.6c0,0.9,0.7,1.6,1.6,1.6
		C141.3,143,141.9,142.3,141.9,141.4z"/>
	<path d="M152.9,137.9v7h-1.9l-0.2-0.5c-0.6,0.5-1.3,0.7-2.1,0.7c-2.1,0-3.7-1.6-3.7-3.7c0-2.2,1.5-3.7,3.7-3.7
		c0.8,0,1.6,0.3,2.1,0.8l0.2-0.5H152.9z M150.6,141.4c0-0.9-0.7-1.6-1.6-1.6c-0.9,0-1.6,0.7-1.6,1.6c0,0.9,0.7,1.6,1.6,1.6
		S150.6,142.3,150.6,141.4z"/>
	<path d="M154.1,141.4c0-2.2,1.6-3.7,3.9-3.7c2,0,3.5,1.2,3.7,3.1h-2.4c-0.2-0.6-0.7-0.9-1.4-0.9c-0.8,0-1.5,0.6-1.5,1.6
		s0.6,1.6,1.5,1.6c0.6,0,1.2-0.4,1.4-1h2.4c-0.3,1.9-1.8,3.2-3.8,3.2C155.7,145.1,154.1,143.6,154.1,141.4z"/>
	<path d="M167,144.9l-1.8-3v3h-2.4v-9.6h2.4v5.3l1.7-2.8h2.7l-2.2,3.3l2.4,3.7H167z"/>
	<path d="M177.9,137.9v2.2h-0.9c-0.9,0-1.2,0.4-1.2,1.3v3.6h-2.4v-7h1.6l0.4,0.8c0.5-0.6,1.1-0.8,1.9-0.8H177.9z"/>
	<path d="M185.9,142h-5.2c0.2,0.8,0.7,1.2,1.4,1.2c0.6,0,1-0.2,1.3-0.7h2.4c-0.5,1.6-1.9,2.6-3.7,2.6c-2.2,0-3.8-1.6-3.8-3.7
		c0-2.2,1.6-3.7,3.8-3.7c2.3,0,3.8,1.6,3.8,3.7C185.9,141.5,185.9,141.8,185.9,142z M180.7,140.6h2.8c-0.2-0.7-0.7-1.1-1.4-1.1
		C181.4,139.5,180.9,139.9,180.7,140.6z"/>
	<path d="M197.3,137.9l-2.2,7h-1.9l-1.4-3.1l-1.4,3.1h-1.9l-2.3-7h2.5l1.1,3.7l1.7-3.7h0.7l1.8,3.7l1-3.7H197.3z"/>
	<path d="M205.3,137.9v7h-1.9l-0.2-0.5c-0.6,0.5-1.3,0.7-2.1,0.7c-2.1,0-3.7-1.6-3.7-3.7c0-2.2,1.5-3.7,3.7-3.7
		c0.8,0,1.6,0.3,2.1,0.8l0.2-0.5H205.3z M203,141.4c0-0.9-0.7-1.6-1.6-1.6c-0.9,0-1.6,0.7-1.6,1.6c0,0.9,0.7,1.6,1.6,1.6
		C202.4,143,203,142.3,203,141.4z"/>
	<path d="M211.4,137.9v2.2h-0.9c-0.9,0-1.2,0.4-1.2,1.3v3.6h-2.4v-7h1.6l0.4,0.8c0.5-0.6,1.1-0.8,1.9-0.8H211.4z"/>
	<path d="M219.7,135.3v9.6h-1.8l-0.2-0.5c-0.6,0.5-1.3,0.8-2.1,0.8c-2.2,0-3.7-1.6-3.7-3.7s1.5-3.7,3.7-3.7c0.6,0,1.2,0.2,1.7,0.5
		v-2.8H219.7z M217.4,141.4c0-0.9-0.7-1.6-1.6-1.6c-0.9,0-1.6,0.7-1.6,1.6c0,0.9,0.7,1.6,1.6,1.6C216.7,143,217.4,142.3,217.4,141.4
		z"/>
</g>
<g>
	<g>
		<g>
			<g>
				<path class="st10" d="M101,34.7h2.8c0,1.5-1.2,2.8-2.8,2.8V34.7z"/>
				<path class="st10" d="M134.8,34.7h-2.8c0,1.5,1.2,2.8,2.8,2.8V34.7z"/>
				<path class="st10" d="M103.7,48.5H101v-2.8C102.5,45.7,103.7,47,103.7,48.5z"/>
			</g>
			<g>
				<path class="st11" d="M103.7,34.7h13.8c-3.8,0-6.9,3.1-6.9,6.9s3.1,6.9,6.9,6.9h-13.8c0-1.5-1.2-2.8-2.8-2.8v-8.3
					C102.5,37.4,103.7,36.2,103.7,34.7z"/>
				<path class="st11" d="M134.8,37.4v8.3c-1.5,0-2.8,1.2-2.8,2.8h-14.5c3.8,0,6.9-3.1,6.9-6.9s-3.1-6.9-6.9-6.9h14.5
					C132.1,36.2,133.3,37.4,134.8,37.4z"/>
				<rect x="98.2" y="59.5" class="st12" width="38.7" height="2.8"/>
				<rect x="98.2" y="56.8" class="st12" width="38.7" height="2.8"/>
				<rect x="98.2" y="54" class="st12" width="38.7" height="2.8"/>
				<rect x="98.2" y="51.2" class="st12" width="38.7" height="2.8"/>
				<path class="st10" d="M134.8,45.7v-8.3v-2.8h-2.8h-14.5h-13.8H101v2.8v8.3v2.8h2.8h13.8h14.5C132.1,47,133.3,45.7,134.8,45.7z
					 M136.9,31.9v19.3H98.2V31.9H136.9z"/>
				<path class="st13" d="M134.1,54L134.1,54c0,0.8-0.6,1.4-1.4,1.4H98.2v1.4h38.7V54H134.1z"/>
				<path class="st13" d="M134.1,59.5L134.1,59.5c0,0.8-0.6,1.4-1.4,1.4H98.2v1.4h38.7v-2.8H134.1z"/>
				<path class="st13" d="M134.1,56.8L134.1,56.8c0,0.8-0.6,1.4-1.4,1.4H98.2v1.4h38.7v-2.8H134.1z"/>
				<path class="st13" d="M134.1,51.2L134.1,51.2c0,0.8-0.6,1.4-1.4,1.4H98.2V54l38.7,0v-2.8H134.1z"/>
				<g>
					<path class="st12" d="M132.1,49.2h-28.3c-0.4,0-0.7-0.3-0.7-0.7c0-1.1-0.9-2.1-2.1-2.1c-0.4,0-0.7-0.3-0.7-0.7v-8.3
						c0-0.4,0.3-0.7,0.7-0.7c1.1,0,2.1-0.9,2.1-2.1c0-0.4,0.3-0.7,0.7-0.7h28.3c0.4,0,0.7,0.3,0.7,0.7c0,1.1,0.9,2.1,2.1,2.1
						c0.4,0,0.7,0.3,0.7,0.7v8.3c0,0.4-0.3,0.7-0.7,0.7c-1.1,0-2.1,0.9-2.1,2.1C132.8,48.9,132.5,49.2,132.1,49.2z M104.4,47.8h27.1
						c0.3-1.4,1.3-2.4,2.7-2.7v-7c-1.4-0.3-2.4-1.3-2.7-2.7h-27.1c-0.3,1.4-1.3,2.4-2.7,2.7v7C103,45.4,104.1,46.4,104.4,47.8z"/>
				</g>
				<circle class="st10" cx="117.6" cy="41.6" r="6.9"/>
				<path class="st14" d="M118.3,40.9v-1.4h1.4v-1.4h-1.4v-1.4h-1.4v1.4c-1.1,0-2.1,0.9-2.1,2.1c0,1.1,0.9,2.1,2.1,2.1v1.4h-1.4V45
					h1.4v1.4h1.4V45c1.1,0,2.1-0.9,2.1-2.1C120.3,41.8,119.4,40.9,118.3,40.9z M116.2,40.2c0-0.4,0.3-0.7,0.7-0.7v1.4
					C116.5,40.9,116.2,40.6,116.2,40.2z M118.3,43.6v-1.4c0.4,0,0.7,0.3,0.7,0.7S118.6,43.6,118.3,43.6z"/>
			</g>
		</g>
		<g>
			<path class="st15" d="M125.9,67.8v2.8c0,2.3-3.4,4.1-7.6,4.1s-7.6-1.9-7.6-4.1v-2.8c0,2.3,3.4,4.1,7.6,4.1S125.9,70.1,125.9,67.8
				z"/>
			<path class="st15" d="M125.9,62.3v2.8c0,2.3-3.4,4.1-7.6,4.1s-7.6-1.9-7.6-4.1v-2.8c0,2.3,3.4,4.1,7.6,4.1S125.9,64.6,125.9,62.3
				z"/>
			<path class="st16" d="M125.9,65.1v2.8c0,2.3-3.4,4.1-7.6,4.1s-7.6-1.9-7.6-4.1v-2.8c0,2.3,3.4,4.1,7.6,4.1S125.9,67.3,125.9,65.1
				z"/>
			<path class="st16" d="M125.9,59.5v2.8c0,2.3-3.4,4.1-7.6,4.1s-7.6-1.9-7.6-4.1v-2.8c0,2.3,3.4,4.1,7.6,4.1S125.9,61.8,125.9,59.5
				z"/>
			<path class="st17" d="M125.9,59.5c0,2.3-3.4,4.1-7.6,4.1s-7.6-1.9-7.6-4.1c0-2.3,3.4-4.1,7.6-4.1S125.9,57.2,125.9,59.5z
				 M123.1,59.5c0-1.1-2.2-2.1-4.8-2.1s-4.8,0.9-4.8,2.1c0,1.1,2.2,2.1,4.8,2.1S123.1,60.7,123.1,59.5z"/>
			<ellipse class="st18" cx="118.3" cy="59.5" rx="4.8" ry="2.1"/>
			<ellipse class="st18" cx="133.5" cy="51.2" rx="4.8" ry="2.1"/>
			<path class="st17" d="M141.1,51.2c0,2.3-3.4,4.1-7.6,4.1s-7.6-1.9-7.6-4.1s3.4-4.1,7.6-4.1c1.1,0,2.1,0.1,3,0.3
				C139.2,48.1,141.1,49.5,141.1,51.2z M138.3,51.2c0-1.1-2.2-2.1-4.8-2.1s-4.8,0.9-4.8,2.1s2.2,2.1,4.8,2.1S138.3,52.4,138.3,51.2z
				"/>
			<path class="st15" d="M125.9,56.8V54c0,2.3,3.4,4.1,7.6,4.1s7.6-1.9,7.6-4.1v2.8c0,2.3-3.4,4.1-7.6,4.1S125.9,59.1,125.9,56.8z"
				/>
			<path class="st16" d="M125.9,67.8c0,2.3,3.4,4.1,7.6,4.1s7.6-1.9,7.6-4.1v2.8c0,2.3-3.4,4.1-7.6,4.1s-7.6-1.9-7.6-4.1V67.8z"/>
			<path class="st15" d="M125.9,65.1c0,2.3,3.4,4.1,7.6,4.1s7.6-1.9,7.6-4.1v2.8c0,2.3-3.4,4.1-7.6,4.1s-7.6-1.9-7.6-4.1V65.1z"/>
			<path class="st16" d="M125.9,62.3c0,2.3,3.4,4.1,7.6,4.1s7.6-1.9,7.6-4.1v2.8c0,2.3-3.4,4.1-7.6,4.1s-7.6-1.9-7.6-4.1V62.3z"/>
			<path class="st15" d="M125.9,59.5c0,2.3,3.4,4.1,7.6,4.1s7.6-1.9,7.6-4.1v2.8c0,2.3-3.4,4.1-7.6,4.1s-7.6-1.9-7.6-4.1V59.5z"/>
			<path class="st16" d="M125.9,59.5v-2.8c0,2.3,3.4,4.1,7.6,4.1s7.6-1.9,7.6-4.1v2.8c0,2.3-3.4,4.1-7.6,4.1S125.9,61.8,125.9,59.5z
				"/>
			<path class="st16" d="M125.9,54v-2.8c0,2.3,3.4,4.1,7.6,4.1s7.6-1.9,7.6-4.1V54c0,2.3-3.4,4.1-7.6,4.1S125.9,56.3,125.9,54z"/>
			<g>
				<path class="st19" d="M138.3,51.2c0,0.1,0,0.2-0.1,0.3c-0.4-1-2.4-1.7-4.8-1.7s-4.4,0.7-4.8,1.7c0-0.1-0.1-0.2-0.1-0.3
					c0-1.1,2.2-2.1,4.8-2.1S138.3,50.1,138.3,51.2z"/>
				<path class="st19" d="M123.1,59.5c0,0.1,0,0.2-0.1,0.3c-0.4-1-2.4-1.7-4.8-1.7c-2.4,0-4.4,0.7-4.8,1.7c0-0.1-0.1-0.2-0.1-0.3
					c0-1.1,2.2-2.1,4.8-2.1C120.9,57.5,123.1,58.4,123.1,59.5z"/>
				<path class="st20" d="M141.1,52.6V54c0,2.3-3.4,4.1-7.6,4.1c-1.8,0-3.5-0.4-4.8-0.9c-1.7-0.8-2.8-1.9-2.8-3.2v-2.8
					c0,1.3,1.1,2.4,2.8,3.2l0,0c0,0.9,0.6,1.7,1.4,1.9c1,0.3,2.2,0.4,3.4,0.4C137.7,56.8,141.1,54.9,141.1,52.6z"/>
				<path class="st20" d="M125.9,60.9v1.4c0,2.3-3.4,4.1-7.6,4.1c-1.8,0-3.5-0.4-4.8-0.9c-1.7-0.8-2.8-1.9-2.8-3.2v-2.8
					c0,1.3,1.1,2.4,2.8,3.2v0c0,0.9,0.6,1.7,1.4,1.9c1,0.3,2.2,0.4,3.4,0.4C122.5,65.1,125.9,63.2,125.9,60.9z"/>
				<path class="st20" d="M125.9,63.7v1.4c0,2.3-3.4,4.1-7.6,4.1c-1.8,0-3.5-0.4-4.8-0.9c-1.7-0.8-2.8-1.9-2.8-3.2v-2.8
					c0,1.3,1.1,2.4,2.8,3.2v0c0,0.9,0.6,1.7,1.4,1.9c1,0.3,2.2,0.4,3.4,0.4C122.5,67.8,125.9,66,125.9,63.7z"/>
				<path class="st20" d="M125.9,66.4v1.4c0,2.3-3.4,4.1-7.6,4.1c-1.8,0-3.5-0.4-4.8-0.9c-1.7-0.8-2.8-1.9-2.8-3.2v-2.8
					c0,1.3,1.1,2.4,2.8,3.2l0,0c0,0.9,0.6,1.7,1.4,1.9c1,0.3,2.2,0.4,3.4,0.4C122.5,70.6,125.9,68.7,125.9,66.4z"/>
				<path class="st20" d="M125.9,69.2v1.4c0,2.3-3.4,4.1-7.6,4.1c-1.8,0-3.5-0.4-4.8-0.9c-1.7-0.8-2.8-1.9-2.8-3.2v-2.8
					c0,1.3,1.1,2.4,2.8,3.2l0,0c0,0.9,0.6,1.7,1.4,1.9c1,0.3,2.2,0.4,3.4,0.4C122.5,73.3,125.9,71.5,125.9,69.2z"/>
				<path class="st20" d="M141.1,55.4v1.4c0,2.3-3.4,4.1-7.6,4.1c-1.8,0-3.5-0.4-4.8-0.9c-1.7-0.8-2.8-1.9-2.8-3.2V54
					c0,1.3,1.1,2.4,2.8,3.2v0c0,0.9,0.6,1.7,1.4,1.9c1,0.3,2.2,0.4,3.4,0.4C137.7,59.5,141.1,57.7,141.1,55.4z"/>
				<path class="st20" d="M141.1,58.1v1.4c0,2.3-3.4,4.1-7.6,4.1c-1.8,0-3.5-0.4-4.8-0.9c-1.7-0.8-2.8-1.9-2.8-3.2v-2.8
					c0,1.3,1.1,2.4,2.8,3.2l0,0c0,0.9,0.6,1.7,1.4,1.9c1,0.3,2.2,0.4,3.4,0.4C137.7,62.3,141.1,60.4,141.1,58.1z"/>
				<path class="st20" d="M141.1,60.9v1.4c0,2.3-3.4,4.1-7.6,4.1c-1.8,0-3.5-0.4-4.8-0.9c-1.7-0.8-2.8-1.9-2.8-3.2v-2.8
					c0,1.3,1.1,2.4,2.8,3.2v0c0,0.9,0.6,1.7,1.4,1.9c1,0.3,2.2,0.4,3.4,0.4C137.7,65.1,141.1,63.2,141.1,60.9z"/>
				<path class="st20" d="M141.1,63.7v1.4c0,2.3-3.4,4.1-7.6,4.1c-1.8,0-3.5-0.4-4.8-0.9c-1.7-0.8-2.8-1.9-2.8-3.2v-2.8
					c0,1.3,1.1,2.4,2.8,3.2v0c0,0.9,0.6,1.7,1.4,1.9c1,0.3,2.2,0.4,3.4,0.4C137.7,67.8,141.1,66,141.1,63.7z"/>
				<path class="st20" d="M141.1,66.4v1.4c0,2.3-3.4,4.1-7.6,4.1c-1.8,0-3.5-0.4-4.8-0.9c-1.7-0.8-2.8-1.9-2.8-3.2v-2.8
					c0,1.3,1.1,2.4,2.8,3.2l0,0c0,0.9,0.6,1.7,1.4,1.9c1,0.3,2.2,0.4,3.4,0.4C137.7,70.6,141.1,68.7,141.1,66.4z"/>
				<path class="st20" d="M141.1,69.2v1.4c0,2.3-3.4,4.1-7.6,4.1c-1.8,0-3.5-0.4-4.8-0.9c-1.7-0.8-2.8-1.9-2.8-3.2v-2.8
					c0,1.3,1.1,2.4,2.8,3.2l0,0c0,0.9,0.6,1.7,1.4,1.9c1,0.3,2.2,0.4,3.4,0.4C137.7,73.3,141.1,71.5,141.1,69.2z"/>
			</g>
		</g>
	</g>
	<circle class="st10" cx="105.8" cy="41.6" r="0.7"/>
	<circle class="st10" cx="130" cy="41.6" r="0.7"/>
</g>
</svg>
