<?xml version="1.0" encoding="utf-8"?>
<!-- Generator: Adobe Illustrator 26.0.0, SVG Export Plug-In . SVG Version: 6.00 Build 0)  -->
<svg version="1.1" id="Layer_1" xmlns="http://www.w3.org/2000/svg" xmlns:xlink="http://www.w3.org/1999/xlink" x="0px" y="0px"
	 viewBox="0 0 236.8 180.2" style="enable-background:new 0 0 236.8 180.2;" xml:space="preserve">
<style type="text/css">
	.st0{fill:#FFFFFF;}
	.st1{fill:url(#SVGID_1_);}
	.st2{fill:url(#SVGID_00000165201903199441886590000001144146751586054313_);}
	.st3{fill:url(#SVGID_00000023270350396880825790000017644931947459539621_);}
	.st4{fill:#0B1D51;}
	.st5{fill:#EDF3FC;}
	.st6{fill:#330D84;}
	.st7{fill:#FFBE1B;}
	.st8{fill:#5D8EF9;}
	.st9{fill:#6857E5;}
</style>
<g>
	<g>
		<g>
			<path class="st0" d="M219.8,179.7H22.3c-2.8,0-5.3-1-7.3-2.6c-2.7-2.2-4.4-5.5-4.4-9.2V70.9c0-2.9,1-5.5,2.8-7.6
				c2.2-2.5,5.4-4.1,9-4.1h197.5c3.2,0,6.2,1.3,8.3,3.4c2.1,2.1,3.4,5.1,3.4,8.3V168c0,3.1-1.2,6-3.2,8.1
				C226.2,178.3,223.2,179.7,219.8,179.7z"/>
			<linearGradient id="SVGID_1_" gradientUnits="userSpaceOnUse" x1="10.6539" y1="76.2581" x2="10.6539" y2="162.6884">
				<stop  offset="0" style="stop-color:#EF1C71"/>
				<stop  offset="0.9906" style="stop-color:#AE0080"/>
			</linearGradient>
			<path class="st1" d="M15.7,162.7h-10c-0.5,0-1-0.2-1.3-0.5c-0.3-0.3-0.5-0.8-0.5-1.3V78.1c0-0.4,0.1-0.7,0.3-1
				c0.3-0.5,0.9-0.8,1.5-0.8h10c0.5,0,1,0.2,1.3,0.5c0.3,0.3,0.5,0.8,0.5,1.3v82.8c0,0.5-0.2,1-0.5,1.3
				C16.6,162.5,16.2,162.7,15.7,162.7z"/>
			
				<linearGradient id="SVGID_00000015349102342512288200000010302969832845014939_" gradientUnits="userSpaceOnUse" x1="231.5757" y1="76.2581" x2="231.5757" y2="162.6884">
				<stop  offset="0" style="stop-color:#EF1C71"/>
				<stop  offset="0.9906" style="stop-color:#AE0080"/>
			</linearGradient>
			<path style="fill:url(#SVGID_00000015349102342512288200000010302969832845014939_);" d="M236.6,162.7h-10c-0.4,0-0.7-0.1-1-0.3
				c-0.5-0.3-0.8-0.9-0.8-1.5V78.1c0-0.4,0.1-0.8,0.4-1.1c0.3-0.4,0.9-0.7,1.4-0.7h10c0.7,0,1.3,0.4,1.6,1c0.1,0.3,0.2,0.5,0.2,0.9
				v82.8c0,0.6-0.3,1.1-0.8,1.5C237.4,162.6,237,162.7,236.6,162.7z"/>
			<circle class="st0" cx="121.1" cy="49.4" r="45.7"/>
			
				<linearGradient id="SVGID_00000023264816396493924200000005825061815930311094_" gradientUnits="userSpaceOnUse" x1="121.087" y1="11.5915" x2="121.087" y2="87.2462">
				<stop  offset="0" style="stop-color:#EF1C71"/>
				<stop  offset="0.9906" style="stop-color:#AE0080"/>
			</linearGradient>
			<circle style="fill:url(#SVGID_00000023264816396493924200000005825061815930311094_);" cx="121.1" cy="49.4" r="37.8"/>
		</g>
		<g>
			<path class="st4" d="M34.2,110.3V97.7h2.9l5.2,8.6h-1.5l5.1-8.6h2.9l0,12.6h-3.3l0-7.6h0.6l-3.8,6.4h-1.6l-3.9-6.4h0.7v7.6H34.2z
				"/>
			<path class="st4" d="M57.7,110.6c-1,0-1.9-0.2-2.8-0.5c-0.9-0.3-1.6-0.8-2.2-1.4c-0.6-0.6-1.1-1.3-1.5-2.1s-0.5-1.7-0.5-2.6
				c0-0.9,0.2-1.8,0.5-2.6c0.3-0.8,0.8-1.5,1.5-2.1s1.4-1.1,2.2-1.4c0.9-0.3,1.8-0.5,2.8-0.5c1,0,2,0.2,2.8,0.5
				c0.8,0.3,1.6,0.8,2.2,1.4c0.6,0.6,1.1,1.3,1.5,2.1c0.4,0.8,0.5,1.7,0.5,2.6c0,0.9-0.2,1.8-0.5,2.6s-0.8,1.5-1.5,2.1
				c-0.6,0.6-1.4,1-2.2,1.4C59.7,110.4,58.8,110.6,57.7,110.6z M57.7,107.6c0.5,0,0.9-0.1,1.3-0.3s0.8-0.4,1.1-0.7
				c0.3-0.3,0.5-0.7,0.7-1.1c0.2-0.4,0.3-0.9,0.3-1.5c0-0.6-0.1-1-0.3-1.5c-0.2-0.4-0.4-0.8-0.7-1.1c-0.3-0.3-0.7-0.6-1.1-0.7
				s-0.9-0.3-1.3-0.3s-0.9,0.1-1.3,0.3s-0.8,0.4-1.1,0.7c-0.3,0.3-0.5,0.7-0.7,1.1c-0.2,0.4-0.3,0.9-0.3,1.5c0,0.5,0.1,1,0.3,1.5
				c0.2,0.4,0.4,0.8,0.7,1.1c0.3,0.3,0.7,0.6,1.1,0.7S57.3,107.6,57.7,107.6z"/>
			<path class="st4" d="M66.6,110.3V97.7h5.8c1.2,0,2.1,0.2,3,0.6c0.8,0.4,1.5,0.9,1.9,1.6s0.7,1.5,0.7,2.5c0,0.9-0.2,1.8-0.7,2.5
				s-1.1,1.2-1.9,1.6c-0.8,0.4-1.8,0.5-3,0.5h-3.8l1.6-1.5v4.8H66.6z M70.2,105.9l-1.6-1.6h3.6c0.7,0,1.3-0.2,1.7-0.5
				c0.4-0.3,0.5-0.8,0.5-1.3c0-0.6-0.2-1-0.5-1.4c-0.4-0.3-0.9-0.5-1.7-0.5h-3.6l1.6-1.6V105.9z M74.4,110.3l-3.1-4.6h3.8l3.1,4.6
				H74.4z"/>
			<path class="st4" d="M83.5,107.6h6.6v2.8H79.9V97.7h9.9v2.8h-6.4V107.6z M83.2,102.6h5.9v2.7h-5.9V102.6z"/>
			<path class="st4" d="M100.8,107.6h6.6v2.8H97.3V97.7h9.9v2.8h-6.4V107.6z M100.6,102.6h5.9v2.7h-5.9V102.6z"/>
			<path class="st4" d="M108,110.3l5.5-7.6l0,2.5l-5.3-7.5h4l3.4,4.9l-1.7,0l3.3-4.9h3.9l-5.3,7.3v-2.5l5.6,7.8h-4.1l-3.4-5.1h1.6
				l-3.4,5.1H108z"/>
			<path class="st4" d="M122.2,110.3V97.7h5.8c1.2,0,2.1,0.2,3,0.6c0.8,0.4,1.5,0.9,1.9,1.6s0.7,1.5,0.7,2.5c0,0.9-0.2,1.8-0.7,2.5
				s-1.1,1.2-1.9,1.6s-1.8,0.6-3,0.6h-3.8l1.6-1.5v4.8H122.2z M125.7,105.9l-1.6-1.6h3.6c0.7,0,1.3-0.2,1.7-0.5s0.5-0.8,0.5-1.3
				c0-0.6-0.2-1-0.5-1.4c-0.4-0.3-0.9-0.5-1.7-0.5h-3.6l1.6-1.6V105.9z"/>
			<path class="st4" d="M133.1,110.3l5.6-12.6h3.5l5.6,12.6H144l-4.4-10.9h1.4l-4.4,10.9H133.1z M136.1,107.9l0.9-2.6h6.2l0.9,2.6
				H136.1z"/>
			<path class="st4" d="M148.8,110.3V97.7h2.9l6.9,8.4h-1.4v-8.4h3.5v12.6h-2.9l-6.9-8.4h1.4v8.4H148.8z"/>
			<path class="st4" d="M167.7,110.6c-1,0-2-0.1-3-0.4s-1.7-0.6-2.3-1l1.2-2.6c0.6,0.4,1.2,0.7,2,0.9c0.7,0.2,1.5,0.4,2.2,0.4
				c0.5,0,0.9,0,1.2-0.1s0.5-0.2,0.7-0.4c0.1-0.1,0.2-0.3,0.2-0.5c0-0.3-0.1-0.5-0.4-0.7c-0.3-0.2-0.6-0.3-1-0.4s-0.9-0.2-1.4-0.3
				c-0.5-0.1-1-0.2-1.5-0.4c-0.5-0.2-1-0.4-1.4-0.7c-0.4-0.3-0.8-0.6-1-1.1c-0.3-0.4-0.4-1-0.4-1.7c0-0.8,0.2-1.4,0.6-2.1
				s1-1.1,1.9-1.5c0.8-0.4,1.9-0.6,3.1-0.6c0.8,0,1.6,0.1,2.4,0.3c0.8,0.2,1.5,0.5,2.1,0.8l-1.1,2.6c-0.6-0.3-1.2-0.6-1.8-0.7
				s-1.2-0.2-1.7-0.2c-0.5,0-0.9,0.1-1.2,0.2c-0.3,0.1-0.5,0.2-0.6,0.4c-0.1,0.2-0.2,0.4-0.2,0.6c0,0.3,0.1,0.5,0.4,0.7
				s0.6,0.3,1,0.4s0.9,0.2,1.4,0.3c0.5,0.1,1,0.2,1.5,0.4c0.5,0.2,1,0.4,1.4,0.6c0.4,0.3,0.8,0.6,1,1.1c0.3,0.4,0.4,1,0.4,1.6
				c0,0.7-0.2,1.4-0.6,2c-0.4,0.6-1,1.1-1.9,1.5S168.9,110.6,167.7,110.6z"/>
			<path class="st4" d="M174.9,110.3V97.7h3.6v12.6H174.9z"/>
			<path class="st4" d="M187.4,110.6c-1,0-1.9-0.2-2.8-0.5c-0.9-0.3-1.6-0.8-2.2-1.4c-0.6-0.6-1.1-1.3-1.5-2.1s-0.5-1.7-0.5-2.6
				c0-0.9,0.2-1.8,0.5-2.6c0.3-0.8,0.8-1.5,1.5-2.1c0.6-0.6,1.4-1.1,2.2-1.4c0.9-0.3,1.8-0.5,2.8-0.5c1,0,2,0.2,2.8,0.5
				s1.6,0.8,2.2,1.4s1.1,1.3,1.5,2.1c0.4,0.8,0.5,1.7,0.5,2.6c0,0.9-0.2,1.8-0.5,2.6c-0.4,0.8-0.8,1.5-1.5,2.1s-1.4,1-2.2,1.4
				C189.3,110.4,188.4,110.6,187.4,110.6z M187.4,107.6c0.5,0,0.9-0.1,1.3-0.3s0.8-0.4,1.1-0.7c0.3-0.3,0.5-0.7,0.7-1.1
				c0.2-0.4,0.3-0.9,0.3-1.5c0-0.6-0.1-1-0.3-1.5c-0.2-0.4-0.4-0.8-0.7-1.1c-0.3-0.3-0.7-0.6-1.1-0.7s-0.9-0.3-1.3-0.3
				c-0.5,0-0.9,0.1-1.3,0.3c-0.4,0.2-0.8,0.4-1.1,0.7c-0.3,0.3-0.5,0.7-0.7,1.1c-0.2,0.4-0.3,0.9-0.3,1.5c0,0.5,0.1,1,0.3,1.5
				c0.2,0.4,0.4,0.8,0.7,1.1c0.3,0.3,0.7,0.6,1.1,0.7C186.4,107.5,186.9,107.6,187.4,107.6z"/>
			<path class="st4" d="M196.2,110.3V97.7h2.9l6.9,8.4h-1.4v-8.4h3.5v12.6h-2.9l-6.9-8.4h1.4v8.4H196.2z"/>
		</g>
	</g>
</g>
<g>
	<path d="M34.3,126.4v2h-5.5V120h5.4v2h-3.1v1.2h2.8v1.9h-2.8v1.3H34.3z"/>
	<path d="M39.3,128.4l-1.1-1.9l-1.1,1.9h-2.5l2.1-3.4l-2-3.1h2.5l0.9,1.6l1-1.6h2.4l-2,3.1l2.2,3.4H39.3z"/>
	<path d="M49.6,125.2c0,2-1.4,3.5-3.4,3.5c-0.6,0-1.1-0.2-1.6-0.4v2.5h-2.2V122h1.5l0.3,0.5c0.5-0.5,1.2-0.7,2-0.7
		C48.2,121.7,49.6,123.2,49.6,125.2z M47.4,125.2c0-0.9-0.6-1.5-1.4-1.5s-1.4,0.6-1.4,1.5c0,0.9,0.6,1.5,1.4,1.5
		C46.7,126.7,47.4,126,47.4,125.2z"/>
	<path d="M57.5,121.9v6.5h-1.7l-0.2-0.5c-0.5,0.4-1.2,0.7-2,0.7c-2,0-3.4-1.4-3.4-3.5c0-2,1.4-3.4,3.4-3.4c0.8,0,1.4,0.3,2,0.7
		l0.2-0.5H57.5z M55.4,125.2c0-0.8-0.6-1.5-1.4-1.5c-0.8,0-1.4,0.6-1.4,1.5c0,0.8,0.6,1.5,1.4,1.5S55.4,126,55.4,125.2z"/>
	<path d="M65.3,124.5v3.9h-2.2v-3.6c0-0.8-0.3-1.1-0.8-1.1c-0.7,0-1.1,0.5-1.1,1.3v3.5h-2.2V122h1.6l0.3,0.7c0.5-0.5,1.2-0.9,2-0.9
		C64.4,121.8,65.3,122.8,65.3,124.5z"/>
	<path d="M66.3,126.3h2.1c0,0.5,0.3,0.7,0.8,0.7c0.3,0,0.6-0.2,0.6-0.5c0-0.4-0.5-0.5-1.1-0.6c-1-0.2-2.3-0.5-2.3-2
		c0-1.3,1.1-2.1,2.8-2.1c1.6,0,2.7,0.9,2.7,2.2h-2.1c0-0.4-0.3-0.6-0.7-0.6c-0.4,0-0.6,0.2-0.6,0.5c0,0.4,0.5,0.5,1.1,0.6
		c1,0.2,2.4,0.4,2.4,2c0,1.4-1.1,2.2-2.9,2.2C67.4,128.6,66.3,127.7,66.3,126.3z"/>
	<path d="M73.1,122h2.2v6.5h-2.2V122z M73.1,119.2h2.2v1.9h-2.2V119.2z"/>
	<path d="M76.3,125.2c0-2,1.5-3.5,3.6-3.5c2.1,0,3.6,1.4,3.6,3.5c0,2-1.5,3.5-3.6,3.5C77.9,128.6,76.3,127.2,76.3,125.2z
		 M81.4,125.2c0-0.9-0.6-1.4-1.4-1.4s-1.4,0.6-1.4,1.4s0.6,1.4,1.4,1.4S81.4,126,81.4,125.2z"/>
	<path d="M91,124.5v3.9h-2.2v-3.6c0-0.8-0.3-1.1-0.8-1.1c-0.7,0-1.1,0.5-1.1,1.3v3.5h-2.2V122h1.6l0.3,0.7c0.5-0.5,1.2-0.9,2-0.9
		C90.1,121.8,91,122.8,91,124.5z"/>
	<path d="M94.6,125.2c0-2,1.5-3.5,3.6-3.5c2.1,0,3.6,1.4,3.6,3.5c0,2-1.5,3.5-3.6,3.5C96.1,128.6,94.6,127.2,94.6,125.2z
		 M99.6,125.2c0-0.9-0.6-1.4-1.4-1.4s-1.4,0.6-1.4,1.4s0.6,1.4,1.4,1.4S99.6,126,99.6,125.2z"/>
	<path d="M107.1,123.8h-1.5v4.6h-2.2v-4.6h-1.1l0-1.8h1.1v-0.6c0-1.3,0.7-2.1,2.1-2.1h1.6v1.7h-1c-0.3,0-0.5,0.2-0.5,0.5v0.4h1.5
		V123.8z"/>
	<path d="M114.6,126.5v2h-1.5c-1.4,0-2.3-0.9-2.3-2.3v-2.4h-1.2v-0.5l2.9-3.1h0.5v1.9h1.6v1.7H113v2.1c0,0.5,0.3,0.7,0.8,0.7H114.6z
		"/>
	<path d="M122,124.5v3.9h-2.2v-3.6c0-0.7-0.3-1.1-0.8-1.1c-0.7,0-1.1,0.5-1.1,1.3v3.5h-2.2v-8.8h2.2v2.8c0.5-0.4,1.1-0.6,1.7-0.6
		C121.1,121.8,122,122.8,122,124.5z"/>
	<path d="M123.4,122h2.2v6.5h-2.2V122z M123.4,119.2h2.2v1.9h-2.2V119.2z"/>
	<path d="M126.6,126.3h2.1c0,0.5,0.3,0.7,0.8,0.7c0.3,0,0.6-0.2,0.6-0.5c0-0.4-0.5-0.5-1.1-0.6c-1-0.2-2.3-0.5-2.3-2
		c0-1.3,1.1-2.1,2.8-2.1c1.6,0,2.7,0.9,2.7,2.2h-2.1c0-0.4-0.3-0.6-0.7-0.6c-0.4,0-0.6,0.2-0.6,0.5c0,0.4,0.5,0.5,1.1,0.6
		c1,0.2,2.4,0.4,2.4,2c0,1.4-1.1,2.2-2.9,2.2C127.7,128.6,126.7,127.7,126.6,126.3z"/>
	<path d="M143.2,125.2c0,2-1.4,3.5-3.4,3.5c-0.6,0-1.1-0.2-1.6-0.4v2.5H136V122h1.5l0.3,0.5c0.5-0.5,1.2-0.7,2-0.7
		C141.8,121.7,143.2,123.2,143.2,125.2z M141,125.2c0-0.9-0.6-1.5-1.4-1.5s-1.4,0.6-1.4,1.5c0,0.9,0.6,1.5,1.4,1.5
		C140.3,126.7,141,126,141,125.2z"/>
	<path d="M148.4,121.9v2h-0.9c-0.8,0-1.1,0.3-1.1,1.2v3.3h-2.2V122h1.5l0.3,0.7c0.5-0.5,1-0.8,1.8-0.8H148.4z"/>
	<path d="M148.8,125.2c0-2,1.5-3.5,3.6-3.5c2.1,0,3.6,1.4,3.6,3.5c0,2-1.5,3.5-3.6,3.5C150.3,128.6,148.8,127.2,148.8,125.2z
		 M153.8,125.2c0-0.9-0.6-1.4-1.4-1.4s-1.4,0.6-1.4,1.4s0.6,1.4,1.4,1.4S153.8,126,153.8,125.2z"/>
	<path d="M155.9,128.9h0.5c0.5,0,0.8-0.3,0.8-0.9V122h2.2v6.3c0,1.7-1,2.6-2.7,2.6h-0.8V128.9z M157.3,119.2h2.2v1.9h-2.2V119.2z"/>
	<path d="M167.5,125.7h-4.8c0.1,0.7,0.6,1.1,1.3,1.1c0.5,0,1-0.2,1.2-0.6h2.2c-0.5,1.5-1.8,2.4-3.4,2.4c-2,0-3.5-1.5-3.5-3.5
		c0-2,1.5-3.4,3.5-3.4c2.1,0,3.5,1.5,3.5,3.4C167.6,125.3,167.5,125.5,167.5,125.7z M162.7,124.5h2.6c-0.2-0.6-0.7-1-1.3-1
		C163.4,123.5,162.9,123.8,162.7,124.5z"/>
	<path d="M171.8,128.6c-2.1,0-3.6-1.5-3.6-3.5s1.5-3.4,3.6-3.4c1.8,0,3.2,1.1,3.4,2.9H173c-0.2-0.5-0.7-0.9-1.3-0.9
		c-0.8,0-1.3,0.6-1.3,1.4s0.6,1.5,1.3,1.5c0.6,0,1.1-0.4,1.3-0.9h2.2C175,127.5,173.6,128.6,171.8,128.6L171.8,128.6z"/>
	<path d="M180.5,126.5v2H179c-1.4,0-2.3-0.9-2.3-2.3v-2.4h-1.2v-0.5l2.9-3.1h0.5v1.9h1.6v1.7h-1.6v2.1c0,0.5,0.3,0.7,0.8,0.7H180.5z
		"/>
	<path d="M188.5,123.8H187v4.6h-2.2v-4.6h-1.1l0-1.8h1.1v-0.6c0-1.3,0.7-2.1,2.1-2.1h1.6v1.7h-1c-0.3,0-0.5,0.2-0.5,0.5v0.4h1.5
		V123.8z"/>
	<path d="M188.8,125.2c0-2,1.5-3.5,3.6-3.5c2.1,0,3.6,1.4,3.6,3.5c0,2-1.5,3.5-3.6,3.5C190.4,128.6,188.8,127.2,188.8,125.2z
		 M193.9,125.2c0-0.9-0.6-1.4-1.4-1.4s-1.4,0.6-1.4,1.4s0.6,1.4,1.4,1.4S193.9,126,193.9,125.2z"/>
	<path d="M201.4,121.9v2h-0.9c-0.8,0-1.1,0.3-1.1,1.2v3.3h-2.2V122h1.5l0.3,0.7c0.5-0.5,1-0.8,1.8-0.8H201.4z"/>
	<path d="M211.4,121.9v6.5h-1.7l-0.2-0.5c-0.5,0.4-1.2,0.7-2,0.7c-2,0-3.4-1.4-3.4-3.5c0-2,1.4-3.4,3.4-3.4c0.8,0,1.4,0.3,2,0.7
		l0.2-0.5H211.4z M209.3,125.2c0-0.8-0.6-1.5-1.5-1.5c-0.8,0-1.4,0.6-1.4,1.5c0,0.8,0.6,1.5,1.4,1.5
		C208.7,126.7,209.3,126,209.3,125.2z"/>
	<path d="M26.3,138.9v3.9H24v-3.6c0-0.8-0.3-1.1-0.8-1.1c-0.7,0-1.1,0.5-1.1,1.3v3.5h-2.2v-6.5h1.6l0.3,0.7c0.5-0.5,1.2-0.9,2-0.9
		C25.3,136.2,26.3,137.2,26.3,138.9z"/>
	<path d="M34.3,139.5c0,0.2,0,0.4,0,0.6h-4.8c0.1,0.7,0.6,1.1,1.3,1.1c0.5,0,1-0.2,1.2-0.6h2.2c-0.5,1.5-1.8,2.4-3.4,2.4
		c-2,0-3.5-1.5-3.5-3.5c0-2,1.5-3.4,3.5-3.4C32.8,136.1,34.3,137.6,34.3,139.5L34.3,139.5z M29.5,138.9h2.6c-0.2-0.6-0.7-1-1.3-1
		C30.1,137.9,29.6,138.2,29.5,138.9z"/>
	<path d="M44.7,136.4l-2.1,6.5h-1.8l-1.3-2.9l-1.3,2.9h-1.8l-2.1-6.5h2.3l1,3.4l1.5-3.4h0.6l1.6,3.4l1-3.4H44.7z"/>
	<path d="M54.8,139.5c0,0.2,0,0.4,0,0.6h-4.8c0.1,0.7,0.6,1.1,1.3,1.1c0.5,0,1-0.2,1.2-0.6h2.2c-0.5,1.5-1.8,2.4-3.4,2.4
		c-2,0-3.5-1.5-3.5-3.5c0-2,1.5-3.4,3.5-3.4C53.3,136.1,54.8,137.6,54.8,139.5L54.8,139.5z M50,138.9h2.6c-0.2-0.6-0.7-1-1.3-1
		C50.6,137.9,50.2,138.2,50,138.9z"/>
	<path d="M60,136.3v2h-0.9c-0.8,0-1.1,0.3-1.1,1.2v3.3h-2.2v-6.5h1.5l0.3,0.7c0.5-0.5,1-0.7,1.8-0.7H60z"/>
	<path d="M67.7,136.3v6.5h-1.7l-0.2-0.5c-0.5,0.4-1.2,0.7-2,0.7c-2,0-3.4-1.4-3.4-3.5c0-2,1.4-3.4,3.4-3.4c0.8,0,1.4,0.3,2,0.7
		l0.2-0.5H67.7z M65.5,139.6c0-0.8-0.6-1.5-1.4-1.5c-0.8,0-1.4,0.6-1.4,1.5c0,0.8,0.6,1.5,1.4,1.5S65.5,140.4,65.5,139.6z"/>
	<path d="M75.8,140.9v2h-1.5c-1.4,0-2.3-0.9-2.3-2.3v-2.4h-1.2v-0.5l2.9-3.1h0.5v1.9h1.6v1.7h-1.6v2.1c0,0.5,0.3,0.7,0.8,0.7H75.8z"
		/>
	<path d="M76.4,139.6c0-2,1.5-3.5,3.6-3.5c2.1,0,3.6,1.4,3.6,3.5c0,2-1.5,3.5-3.6,3.5C77.9,143,76.4,141.6,76.4,139.6z M81.4,139.6
		c0-0.9-0.6-1.4-1.4-1.4s-1.4,0.6-1.4,1.4c0,0.9,0.6,1.4,1.4,1.4S81.4,140.4,81.4,139.6z"/>
	<path d="M94.2,134v8.8h-1.7l-0.2-0.5c-0.5,0.4-1.2,0.7-2,0.7c-2,0-3.4-1.4-3.4-3.5s1.4-3.5,3.4-3.5c0.6,0,1.1,0.2,1.6,0.4V134H94.2
		z M92.1,139.6c0-0.8-0.6-1.5-1.4-1.5s-1.4,0.6-1.4,1.5s0.6,1.5,1.4,1.5S92.1,140.4,92.1,139.6z"/>
	<path d="M99.8,136.3v2h-0.9c-0.8,0-1.1,0.3-1.1,1.2v3.3h-2.2v-6.5h1.5l0.3,0.7c0.5-0.5,1-0.7,1.8-0.7H99.8z"/>
	<path d="M100.6,136.4h2.2v6.5h-2.2V136.4z M100.6,133.6h2.2v1.9h-2.2V133.6z"/>
	<path d="M110.8,136.4l-2.6,6.5h-2l-2.6-6.5h2.4l1.2,3.8l1.2-3.8H110.8z"/>
	<path d="M117.9,139.5c0,0.2,0,0.4,0,0.6h-4.8c0.1,0.7,0.6,1.1,1.3,1.1c0.5,0,1-0.2,1.2-0.6h2.2c-0.5,1.5-1.8,2.4-3.4,2.4
		c-2,0-3.5-1.5-3.5-3.5c0-2,1.5-3.4,3.5-3.4C116.5,136.1,117.9,137.6,117.9,139.5L117.9,139.5z M113.1,138.9h2.6
		c-0.2-0.6-0.7-1-1.3-1C113.7,137.9,113.3,138.2,113.1,138.9z"/>
	<path d="M124.1,143c-1.8,0-2.8-0.9-2.9-2.3h2.1c0,0.5,0.3,0.7,0.8,0.7c0.3,0,0.6-0.2,0.6-0.5c0-0.4-0.5-0.5-1.1-0.6
		c-1-0.2-2.3-0.5-2.3-2c0-1.3,1.1-2.1,2.8-2.1c1.6,0,2.7,0.9,2.7,2.2h-2.1c0-0.4-0.3-0.6-0.7-0.6c-0.4,0-0.6,0.2-0.6,0.5
		c0,0.4,0.5,0.5,1.1,0.6c1,0.2,2.4,0.4,2.4,2C126.9,142.2,125.8,143,124.1,143L124.1,143z"/>
	<path d="M127.6,139.6c0-2,1.5-3.5,3.6-3.5c2.1,0,3.6,1.4,3.6,3.5c0,2-1.5,3.5-3.6,3.5C129.1,143,127.6,141.6,127.6,139.6z
		 M132.6,139.6c0-0.9-0.6-1.4-1.4-1.4s-1.4,0.6-1.4,1.4c0,0.9,0.6,1.4,1.4,1.4S132.6,140.4,132.6,139.6z"/>
	<path d="M145.8,138.8v4.1h-2.2V139c0-0.7-0.2-1-0.7-1c-0.6,0-0.9,0.4-0.9,1.2v3.6h-2.2V139c0-0.7-0.2-1-0.7-1
		c-0.6,0-0.9,0.4-0.9,1.2v3.6h-2.2v-6.5h1.6l0.3,0.7c0.5-0.5,1.1-0.9,1.9-0.9c0.8,0,1.5,0.4,1.9,1c0.5-0.6,1.2-1,2-1
		C144.9,136.2,145.8,137.2,145.8,138.8z"/>
	<path d="M153.8,139.5c0,0.2,0,0.4,0,0.6H149c0.1,0.7,0.6,1.1,1.3,1.1c0.5,0,1-0.2,1.2-0.6h2.2c-0.5,1.5-1.8,2.4-3.4,2.4
		c-2,0-3.5-1.5-3.5-3.5c0-2,1.5-3.4,3.5-3.4C152.4,136.1,153.8,137.6,153.8,139.5L153.8,139.5z M149,138.9h2.6c-0.2-0.6-0.7-1-1.3-1
		C149.6,137.9,149.2,138.2,149,138.9z"/>
	<path d="M159.1,140.9v2h-1.5c-1.4,0-2.3-0.9-2.3-2.3v-2.4h-1.2v-0.5l2.9-3.1h0.5v1.9h1.6v1.7h-1.6v2.1c0,0.5,0.3,0.7,0.8,0.7H159.1
		z"/>
	<path d="M166.6,138.9v3.9h-2.2v-3.6c0-0.7-0.3-1.1-0.8-1.1c-0.7,0-1.1,0.5-1.1,1.3v3.5h-2.2V134h2.2v2.8c0.5-0.4,1.1-0.6,1.7-0.6
		C165.6,136.2,166.6,137.2,166.6,138.9z"/>
	<path d="M167.9,136.4h2.2v6.5h-2.2V136.4z M167.9,133.6h2.2v1.9h-2.2V133.6z"/>
	<path d="M177.9,138.9v3.9h-2.2v-3.6c0-0.8-0.3-1.1-0.8-1.1c-0.7,0-1.1,0.5-1.1,1.3v3.5h-2.2v-6.5h1.6l0.3,0.7
		c0.5-0.5,1.2-0.9,2-0.9C176.9,136.2,177.9,137.2,177.9,138.9z"/>
	<path d="M186,136.4v5.8c0,2-1.3,3.3-3.5,3.3c-1.8,0-3.1-0.9-3.4-2.5h2.2c0.2,0.4,0.7,0.7,1.2,0.7c0.7,0,1.3-0.5,1.3-1.2v-0.2
		c-0.5,0.3-1.1,0.5-1.7,0.5c-1.9,0-3.2-1.4-3.2-3.3c0-1.8,1.4-3.3,3.2-3.3c0.8,0,1.5,0.3,2,0.8l0.3-0.5H186z M182.5,140.8
		c0.8,0,1.4-0.6,1.4-1.4c0-0.8-0.6-1.4-1.4-1.4c-0.8,0-1.4,0.6-1.4,1.4C181.1,140.2,181.7,140.8,182.5,140.8L182.5,140.8z"/>
	<path d="M193.2,143c-2.1,0-3.6-1.5-3.6-3.5s1.5-3.4,3.6-3.4c1.8,0,3.2,1.1,3.4,2.9h-2.2c-0.2-0.5-0.7-0.9-1.3-0.9
		c-0.8,0-1.3,0.6-1.3,1.4s0.6,1.5,1.3,1.5c0.6,0,1.1-0.4,1.3-0.9h2.2C196.4,141.9,195,143,193.2,143L193.2,143z"/>
	<path d="M201.8,136.3v2H201c-0.8,0-1.1,0.3-1.1,1.2v3.3h-2.2v-6.5h1.5l0.3,0.7c0.5-0.5,1-0.7,1.8-0.7H201.8z"/>
	<path d="M209.5,136.3v6.5h-1.7l-0.2-0.5c-0.5,0.4-1.2,0.7-2,0.7c-2,0-3.4-1.4-3.4-3.5c0-2,1.4-3.4,3.4-3.4c0.8,0,1.4,0.3,2,0.7
		l0.2-0.5H209.5z M207.3,139.6c0-0.8-0.6-1.5-1.5-1.5c-0.8,0-1.4,0.6-1.4,1.5c0,0.8,0.6,1.5,1.4,1.5
		C206.7,141.1,207.3,140.4,207.3,139.6z"/>
	<path d="M216,140.8v2h-5.6v-0.3l2.5-4.2h-2.3v-2h5.3v0.4l-2.4,4.1H216z"/>
	<path d="M223.8,136.4l-2.7,6.2c-0.9,2-1.7,2.7-3.3,2.7H217v-1.9h0.6c0.9,0,1.1-0.2,1.4-1l-2.7-5.9h2.4l1.4,3.6l1.3-3.6H223.8z"/>
</g>
<g>
	<path class="st5" d="M153.8,49.7c0,17.8-14.5,32.3-32.3,32.3c-17.8,0-32.3-14.5-32.3-32.3c0-17.8,14.5-32.3,32.3-32.3
		C139.3,17.4,153.8,31.9,153.8,49.7z"/>
	<path class="st5" d="M121.5,88c-21.1,0-38.3-17.2-38.3-38.3c0-21.1,17.2-38.3,38.3-38.3c21.1,0,38.3,17.2,38.3,38.3
		C159.8,70.8,142.6,88,121.5,88z M121.5,12.6c-20.4,0-37.1,16.6-37.1,37.1c0,20.4,16.6,37.1,37.1,37.1c20.4,0,37.1-16.6,37.1-37.1
		C158.5,29.3,141.9,12.6,121.5,12.6z"/>
	<path class="st6" d="M110,68.9l0.3,0.1l-0.3,0.1c-1.9,0.5-3.4,2-3.9,3.9l-0.1,0.3l-0.1-0.3c-0.5-1.9-2-3.4-3.9-3.9l-0.3-0.1
		l0.3-0.1c1.9-0.5,3.4-2,3.9-3.9l0.1-0.3l0.1,0.3C106.6,66.9,108.1,68.4,110,68.9L110,68.9z"/>
	<path class="st7" d="M117.7,26.5l0.3,0.1l-0.3,0.1c-1.6,0.4-2.8,1.6-3.2,3.2l-0.1,0.3l-0.1-0.3c-0.4-1.6-1.6-2.8-3.2-3.2l-0.3-0.1
		l0.3-0.1c1.6-0.4,2.8-1.6,3.2-3.2l0.1-0.3l0.1,0.3C115,24.9,116.2,26.1,117.7,26.5L117.7,26.5z"/>
	<path class="st7" d="M110.2,28.9l0.1,0L110.2,28.9c-0.8,0.3-1.5,0.9-1.7,1.8l0,0.1l0-0.1c-0.2-0.8-0.9-1.5-1.7-1.7l-0.1,0l0.1,0
		c0.8-0.2,1.5-0.9,1.7-1.7l0-0.1l0,0.1C108.7,28.1,109.3,28.7,110.2,28.9L110.2,28.9z"/>
	<path class="st8" d="M146.9,60.9l0.3,0.1l-0.3,0.1c-1.9,0.5-3.5,2-3.9,3.9l-0.1,0.3l-0.1-0.3c-0.5-1.9-2-3.5-3.9-3.9l-0.3-0.1
		l0.3-0.1c1.9-0.5,3.5-2,3.9-3.9l0.1-0.3l0.1,0.3C143.5,58.9,145,60.4,146.9,60.9L146.9,60.9z"/>
	<path class="st8" d="M141.3,55.4l0.2,0L141.3,55.4c-1,0.3-1.8,1.1-2.1,2.2l0,0.2l0-0.2c-0.3-1-1.1-1.8-2.1-2.1l-0.2,0l0.2,0
		c1-0.3,1.8-1.1,2.1-2.1l0-0.2l0,0.2C139.5,54.3,140.3,55.1,141.3,55.4L141.3,55.4z"/>
	<path class="st8" d="M133,34.1h-6.4l7.3,7.3v20.9c0,1.7-1.4,3.1-3.1,3.1h-20.9c-0.3,0-0.6,0-0.9-0.1c0.2,1.5,1.5,2.8,3.1,2.8H133
		c1.7,0,3.1-1.4,3.1-3.1V37.2C136.2,35.5,134.8,34.1,133,34.1z"/>
	<path class="st6" d="M124,31.4h-14.1c-1.7,0-3.1,1.4-3.1,3.1v7.1c1.1,0.8,1.9,2,2.3,3.5c0.5,2.3-0.4,4.5-2.1,5.8l1.5,9.9l-1.5,2.2
		l0,0c0.3,1.4,1.6,2.4,3,2.4h20.9c1.7,0,3.1-1.4,3.1-3.1V41.4L124,31.4z"/>
	<path class="st9" d="M124,31.4v6.8c0,1.7,1.4,3.1,3.1,3.1h6.8L124,31.4z"/>
	<path class="st0" d="M118.8,38.3H111c-0.4,0-0.8-0.3-0.8-0.8c0-0.4,0.3-0.8,0.8-0.8h7.8c0.4,0,0.8,0.3,0.8,0.8
		C119.6,37.9,119.2,38.3,118.8,38.3z"/>
	<path class="st0" d="M121.8,43H111c-0.4,0-0.8-0.3-0.8-0.8c0-0.4,0.3-0.8,0.8-0.8h10.8c0.4,0,0.8,0.3,0.8,0.8
		C122.6,42.6,122.3,43,121.8,43z"/>
	<path class="st0" d="M128.6,47.6H111c-0.4,0-0.8-0.3-0.8-0.8c0-0.4,0.3-0.8,0.8-0.8h17.6c0.4,0,0.8,0.3,0.8,0.8
		C129.3,47.3,129,47.6,128.6,47.6z"/>
	<path class="st0" d="M128.6,52.3H111c-0.4,0-0.8-0.3-0.8-0.8c0-0.4,0.3-0.8,0.8-0.8h17.6c0.4,0,0.8,0.3,0.8,0.8
		C129.3,52,129,52.3,128.6,52.3z"/>
	<path class="st0" d="M128.6,57H111c-0.4,0-0.8-0.3-0.8-0.8c0-0.4,0.3-0.8,0.8-0.8h17.6c0.4,0,0.8,0.3,0.8,0.8
		C129.3,56.7,129,57,128.6,57z"/>
	<path class="st0" d="M128.6,61.7H111c-0.4,0-0.8-0.3-0.8-0.8c0-0.4,0.3-0.8,0.8-0.8h17.6c0.4,0,0.8,0.3,0.8,0.8
		C129.3,61.4,129,61.7,128.6,61.7z"/>
	<path class="st7" d="M101.8,52.1l1.5,5.1l1.6,1l-0.9,1.4l1.4,0.9l-0.8,1.2l0,0l2.3,1.3l1.5-2.2l-1.5-9.9c1.7-1.4,2.6-3.6,2.1-5.8
		c-0.7-3.2-3.8-5.2-7-4.5c-3.2,0.7-5.2,3.8-4.5,7C98,49.9,99.7,51.5,101.8,52.1z M105,43.8c0.3,1.2-0.5,2.4-1.7,2.7
		c-1.2,0.3-2.4-0.5-2.7-1.7c-0.3-1.2,0.5-2.4,1.7-2.7C103.6,41.8,104.8,42.6,105,43.8z"/>
</g>
</svg>
