<?xml version="1.0" encoding="utf-8"?>
<!-- Generator: Adobe Illustrator 26.0.0, SVG Export Plug-In . SVG Version: 6.00 Build 0)  -->
<svg version="1.1" id="Layer_1" xmlns="http://www.w3.org/2000/svg" xmlns:xlink="http://www.w3.org/1999/xlink" x="0px" y="0px"
	 viewBox="0 0 236.8 180.2" style="enable-background:new 0 0 236.8 180.2;" xml:space="preserve">
<style type="text/css">
	.st0{fill:#FFFFFF;}
	.st1{fill:url(#SVGID_1_);}
	.st2{fill:url(#SVGID_00000001655290759755208750000005651067673794200721_);}
	.st3{fill:url(#SVGID_00000013881925537207932760000005917732832463700371_);}
	.st4{fill:#0B1D51;}
	.st5{fill:#EDF3FC;}
	.st6{fill:#330D84;}
	.st7{fill:#FFBE1B;}
	.st8{fill:#5D8EF9;}
	.st9{fill:#D6E4E8;}
	.st10{fill:#2678DB;}
	.st11{fill:#62B5E8;}
	.st12{fill:#FCBE42;}
</style>
<g>
	<g>
		<g>
			<path class="st0" d="M217.7,179.7H20.2c-2.8,0-5.3-1-7.3-2.6c-2.7-2.2-4.4-5.5-4.4-9.2V70.9c0-2.9,1-5.5,2.8-7.6
				c2.2-2.5,5.4-4.1,9-4.1h197.5c3.2,0,6.2,1.3,8.3,3.4s3.4,5.1,3.4,8.3v97.1c0,3.1-1.2,6-3.2,8.1
				C224.1,178.3,221,179.7,217.7,179.7z"/>
			<linearGradient id="SVGID_1_" gradientUnits="userSpaceOnUse" x1="8.5107" y1="76.2039" x2="8.5107" y2="162.6342">
				<stop  offset="0" style="stop-color:#EF1C71"/>
				<stop  offset="0.9906" style="stop-color:#AE0080"/>
			</linearGradient>
			<path class="st1" d="M13.5,162.6h-10c-0.5,0-1-0.2-1.3-0.5c-0.3-0.3-0.5-0.8-0.5-1.3V78c0-0.4,0.1-0.7,0.3-1
				c0.3-0.5,0.9-0.8,1.5-0.8h10c0.5,0,1,0.2,1.3,0.5c0.3,0.3,0.5,0.8,0.5,1.3v82.8c0,0.5-0.2,1-0.5,1.3
				C14.5,162.4,14,162.6,13.5,162.6z"/>
			
				<linearGradient id="SVGID_00000009572274069389052920000014843328247024198334_" gradientUnits="userSpaceOnUse" x1="229.4324" y1="76.2039" x2="229.4324" y2="162.6342">
				<stop  offset="0" style="stop-color:#EF1C71"/>
				<stop  offset="0.9906" style="stop-color:#AE0080"/>
			</linearGradient>
			<path style="fill:url(#SVGID_00000009572274069389052920000014843328247024198334_);" d="M234.4,162.6h-10c-0.4,0-0.7-0.1-1-0.3
				c-0.5-0.3-0.8-0.9-0.8-1.5V78c0-0.4,0.1-0.8,0.4-1.1c0.3-0.4,0.9-0.7,1.4-0.7h10c0.7,0,1.3,0.4,1.6,1c0.1,0.3,0.2,0.5,0.2,0.9
				v82.8c0,0.6-0.3,1.1-0.8,1.5C235.2,162.5,234.8,162.6,234.4,162.6z"/>
			<circle class="st0" cx="118.9" cy="49.4" r="45.7"/>
			
				<linearGradient id="SVGID_00000098900968032755522920000000420643158841872793_" gradientUnits="userSpaceOnUse" x1="118.9438" y1="11.5373" x2="118.9438" y2="87.1921">
				<stop  offset="0" style="stop-color:#EF1C71"/>
				<stop  offset="0.9906" style="stop-color:#AE0080"/>
			</linearGradient>
			<circle style="fill:url(#SVGID_00000098900968032755522920000000420643158841872793_);" cx="118.9" cy="49.4" r="37.8"/>
		</g>
		<g>
			<path class="st4" d="M27.1,110.3V97.7H30l6.9,8.4h-1.4v-8.4h3.5v12.6h-2.9l-6.9-8.4h1.4v8.4H27.1z"/>
			<path class="st4" d="M45.2,110.3h-3.6V97.7h9.9v2.8h-6.3V110.3z M44.9,103.2h5.8v2.8h-5.8V103.2z"/>
			<path class="st4" d="M55.9,110.3v-9.8H52v-2.8h11.3v2.8h-3.9v9.8H55.9z"/>
			<path class="st4" d="M69.9,110.3V97.7h2.9l5.2,8.6h-1.5l5.1-8.6h2.9l0,12.6h-3.3l0-7.6h0.6L78,109h-1.6l-3.9-6.4h0.7v7.6H69.9z"
				/>
			<path class="st4" d="M85.6,110.3l5.6-12.6h3.5l5.6,12.6h-3.7l-4.4-10.9h1.4l-4.4,10.9H85.6z M88.6,107.8l0.9-2.6h6.2l0.9,2.6
				H88.6z"/>
			<path class="st4" d="M101.2,110.3V97.7h5.8c1.2,0,2.1,0.2,3,0.6c0.8,0.4,1.5,0.9,1.9,1.6s0.7,1.5,0.7,2.5c0,0.9-0.2,1.8-0.7,2.5
				c-0.5,0.7-1.1,1.2-1.9,1.6s-1.8,0.5-3,0.5h-3.8l1.6-1.5v4.8H101.2z M104.8,105.8l-1.6-1.6h3.6c0.7,0,1.3-0.2,1.7-0.5
				c0.4-0.3,0.5-0.8,0.5-1.3c0-0.6-0.2-1-0.5-1.4c-0.4-0.3-0.9-0.5-1.7-0.5h-3.6l1.6-1.6V105.8z M109,110.3l-3.1-4.6h3.8l3.1,4.6
				H109z"/>
			<path class="st4" d="M114.5,110.3V97.7h3.5v12.6H114.5z M117.7,107.5l-0.2-4l5.4-5.8h3.9l-5.4,5.8l-2,2.1L117.7,107.5z
				 M123,110.3l-4.1-5.2l2.3-2.5l5.9,7.7H123z"/>
			<path class="st4" d="M131.6,107.5h6.6v2.8h-10.1V97.7h9.9v2.8h-6.4V107.5z M131.4,102.6h5.8v2.7h-5.8V102.6z"/>
			<path class="st4" d="M142.9,110.3v-9.8H139v-2.8h11.3v2.8h-3.9v9.8H142.9z"/>
			<path class="st4" d="M151.6,110.3V97.7h5.8c1.2,0,2.1,0.2,3,0.6c0.8,0.4,1.5,0.9,1.9,1.6s0.7,1.5,0.7,2.5c0,0.9-0.2,1.8-0.7,2.5
				s-1.1,1.2-1.9,1.6s-1.8,0.6-3,0.6h-3.8l1.6-1.5v4.8H151.6z M155.2,105.8l-1.6-1.6h3.6c0.7,0,1.3-0.2,1.7-0.5s0.5-0.8,0.5-1.3
				c0-0.6-0.2-1-0.5-1.4s-0.9-0.5-1.7-0.5h-3.6l1.6-1.6V105.8z"/>
			<path class="st4" d="M164.7,110.3V97.7h3.6v9.8h6v2.8H164.7z"/>
			<path class="st4" d="M174.3,110.3l5.6-12.6h3.5l5.6,12.6h-3.7l-4.4-10.9h1.4l-4.4,10.9H174.3z M177.3,107.8l0.9-2.6h6.2l0.9,2.6
				H177.3z"/>
			<path class="st4" d="M196,110.5c-1,0-1.9-0.2-2.8-0.5c-0.8-0.3-1.6-0.8-2.2-1.4s-1.1-1.3-1.4-2.1c-0.3-0.8-0.5-1.7-0.5-2.6
				s0.2-1.8,0.5-2.6s0.8-1.5,1.4-2.1s1.3-1,2.2-1.4c0.8-0.3,1.8-0.5,2.8-0.5c1.2,0,2.2,0.2,3.1,0.6c0.9,0.4,1.7,1,2.3,1.8l-2.3,2.1
				c-0.4-0.5-0.9-0.8-1.3-1.1c-0.5-0.3-1-0.4-1.6-0.4c-0.5,0-1,0.1-1.4,0.3c-0.4,0.2-0.8,0.4-1.1,0.7c-0.3,0.3-0.5,0.7-0.7,1.1
				c-0.2,0.4-0.3,0.9-0.3,1.5s0.1,1,0.3,1.5c0.2,0.4,0.4,0.8,0.7,1.1c0.3,0.3,0.7,0.6,1.1,0.7c0.4,0.2,0.9,0.3,1.4,0.3
				c0.6,0,1.1-0.1,1.6-0.4c0.5-0.3,0.9-0.6,1.3-1.1l2.3,2.1c-0.6,0.8-1.4,1.3-2.3,1.8S197.2,110.5,196,110.5z"/>
			<path class="st4" d="M206.6,107.5h6.6v2.8H203V97.7h9.9v2.8h-6.4V107.5z M206.3,102.6h5.8v2.7h-5.8V102.6z"/>
		</g>
	</g>
</g>
<g>
	<path d="M37.6,124.2c0-2.5,1.9-4.4,4.5-4.4c2.2,0,3.9,1.5,4.2,3.6H44c-0.3-0.9-1-1.4-1.9-1.4c-1.2,0-2.1,1-2.1,2.3
		c0,1.3,0.9,2.2,2.1,2.2c0.9,0,1.7-0.6,1.9-1.5h2.4c-0.3,2.2-2,3.7-4.3,3.7C39.5,128.6,37.6,126.7,37.6,124.2z"/>
	<path d="M46.9,125.1c0-2,1.5-3.5,3.6-3.5c2.1,0,3.6,1.4,3.6,3.5c0,2-1.5,3.5-3.6,3.5C48.5,128.6,46.9,127.1,46.9,125.1z M52,125.1
		c0-0.9-0.6-1.4-1.4-1.4s-1.4,0.6-1.4,1.4c0,0.9,0.6,1.4,1.4,1.4S52,126,52,125.1z"/>
	<path d="M55.2,119.6h2.2v8.8h-2.2V119.6z"/>
	<path d="M58.9,119.6h2.2v8.8h-2.2V119.6z"/>
	<path d="M69.2,125.1c0,0.2,0,0.4,0,0.6h-4.8c0.1,0.7,0.6,1.1,1.3,1.1c0.5,0,1-0.2,1.2-0.6H69c-0.5,1.5-1.8,2.4-3.4,2.4
		c-2,0-3.5-1.5-3.5-3.5c0-2,1.5-3.4,3.5-3.4C67.7,121.7,69.2,123.2,69.2,125.1L69.2,125.1z M64.4,124.4H67c-0.2-0.6-0.7-1-1.3-1
		C65,123.4,64.5,123.8,64.4,124.4z"/>
	<path d="M73.4,128.6c-2.1,0-3.6-1.5-3.6-3.5s1.5-3.4,3.6-3.4c1.8,0,3.2,1.1,3.4,2.9h-2.2c-0.2-0.5-0.7-0.9-1.3-0.9
		c-0.8,0-1.3,0.6-1.3,1.4s0.6,1.5,1.3,1.5c0.6,0,1.1-0.4,1.3-0.9h2.2C76.6,127.4,75.2,128.6,73.4,128.6L73.4,128.6z"/>
	<path d="M82.1,126.4v2h-1.5c-1.4,0-2.3-0.9-2.3-2.3v-2.4h-1.2v-0.5L80,120h0.5v1.9h1.6v1.7h-1.6v2.1c0,0.5,0.3,0.7,0.8,0.7H82.1z"
		/>
	<path d="M83.2,121.9h2.2v6.5h-2.2V121.9z M83.2,119.2h2.2v1.9h-2.2V119.2z"/>
	<path d="M86.4,125.1c0-2,1.5-3.5,3.6-3.5c2.1,0,3.6,1.4,3.6,3.5c0,2-1.5,3.5-3.6,3.5C88,128.6,86.4,127.1,86.4,125.1z M91.5,125.1
		c0-0.9-0.6-1.4-1.4-1.4s-1.4,0.6-1.4,1.4c0,0.9,0.6,1.4,1.4,1.4S91.5,126,91.5,125.1z"/>
	<path d="M101.1,124.4v3.9h-2.2v-3.6c0-0.8-0.3-1.1-0.8-1.1c-0.7,0-1.1,0.5-1.1,1.3v3.5h-2.2v-6.5h1.6l0.3,0.7
		c0.5-0.5,1.2-0.9,2-0.9C100.2,121.7,101.1,122.8,101.1,124.4z"/>
	<path d="M104.7,125.1c0-2,1.5-3.5,3.6-3.5c2.1,0,3.6,1.4,3.6,3.5c0,2-1.5,3.5-3.6,3.5C106.2,128.6,104.7,127.1,104.7,125.1z
		 M109.7,125.1c0-0.9-0.6-1.4-1.4-1.4s-1.4,0.6-1.4,1.4c0,0.9,0.6,1.4,1.4,1.4S109.7,126,109.7,125.1z"/>
	<path d="M117.2,123.8h-1.5v4.6h-2.2v-4.6h-1.1l0-1.8h1.1v-0.6c0-1.3,0.7-2.1,2.1-2.1h1.6v1.7h-1c-0.3,0-0.5,0.2-0.5,0.5v0.4h1.5
		V123.8z"/>
	<path d="M120.6,125.1V120h2.4v5.1c0,0.8,0.5,1.4,1.3,1.4c0.8,0,1.3-0.5,1.3-1.4V120h2.4v5.1c0,2.1-1.5,3.5-3.7,3.5
		C122.1,128.6,120.6,127.2,120.6,125.1z"/>
	<path d="M135.6,124.4v3.9h-2.2v-3.6c0-0.8-0.3-1.1-0.8-1.1c-0.7,0-1.1,0.5-1.1,1.3v3.5h-2.2v-6.5h1.6l0.3,0.7
		c0.5-0.5,1.2-0.9,2-0.9C134.6,121.7,135.6,122.8,135.6,124.4z"/>
	<path d="M136.9,121.9h2.2v6.5h-2.2V121.9z M137,119.2h2.2v1.9H137V119.2z"/>
	<path d="M147.4,121.9v8.8h-2.2v-2.6c-0.5,0.3-1,0.4-1.6,0.4c-2,0-3.4-1.4-3.4-3.5c0-2,1.4-3.5,3.4-3.5c0.8,0,1.5,0.3,2,0.7l0.3-0.5
		H147.4z M145.3,125.1c0-0.8-0.6-1.5-1.5-1.5c-0.8,0-1.4,0.6-1.4,1.5s0.6,1.5,1.4,1.5C144.7,126.6,145.3,126,145.3,125.1z"/>
	<path d="M148.7,125.6v-3.7h2.2v3.6c0,0.7,0.4,1.1,1,1.1c0.6,0,1-0.4,1-1.1v-3.6h2.2v3.7c0,1.8-1.3,3-3.2,3S148.7,127.4,148.7,125.6
		z"/>
	<path d="M163.1,125.1c0,0.2,0,0.4,0,0.6h-4.8c0.1,0.7,0.6,1.1,1.3,1.1c0.5,0,1-0.2,1.2-0.6h2.2c-0.5,1.5-1.8,2.4-3.4,2.4
		c-2,0-3.5-1.5-3.5-3.5c0-2,1.5-3.4,3.5-3.4C161.6,121.7,163.1,123.2,163.1,125.1L163.1,125.1z M158.3,124.4h2.6
		c-0.2-0.6-0.7-1-1.3-1C158.9,123.4,158.4,123.8,158.3,124.4z"/>
	<path d="M174.3,120v8.4h-1.9l-3.3-4.6v4.6h-2.2V120h2l3.2,4.4V120H174.3z"/>
	<path d="M178.3,122.1v1.3h2.7v2h-2.7v2.9h-2.3V120h5.3v2.1H178.3z"/>
	<path d="M188.8,122.1h-2.3v6.3h-2.3v-6.3h-2.3V120h6.9V122.1z"/>
	<path d="M189.7,120h1.9v3.2h-1.9V120z"/>
	<path d="M192.5,126.3h2.1c0,0.5,0.3,0.7,0.8,0.7c0.3,0,0.6-0.2,0.6-0.5c0-0.4-0.5-0.5-1.1-0.6c-1-0.2-2.3-0.5-2.3-2
		c0-1.3,1.1-2.1,2.8-2.1c1.6,0,2.7,0.9,2.7,2.2H196c0-0.4-0.3-0.6-0.7-0.6c-0.4,0-0.6,0.2-0.6,0.5c0,0.4,0.5,0.5,1.1,0.6
		c1,0.2,2.4,0.4,2.4,2c0,1.4-1.1,2.2-2.9,2.2C193.6,128.6,192.6,127.7,192.5,126.3z"/>
	<path d="M26.9,136.3l-2.1,6.5H23l-1.3-2.9l-1.3,2.9h-1.8l-2.1-6.5h2.3l1,3.4l1.5-3.4H22l1.6,3.4l1-3.4H26.9z"/>
	<path d="M27.7,136.3h2.2v6.5h-2.2V136.3z M27.7,133.6h2.2v1.9h-2.2V133.6z"/>
	<path d="M37.7,138.8v3.9h-2.2v-3.6c0-0.8-0.3-1.1-0.8-1.1c-0.7,0-1.1,0.5-1.1,1.3v3.5h-2.2v-6.5h1.6l0.3,0.7c0.5-0.5,1.2-0.9,2-0.9
		C36.7,136.1,37.7,137.2,37.7,138.8z"/>
	<path d="M45.5,138.8v3.9h-2.2v-3.6c0-0.8-0.3-1.1-0.8-1.1c-0.7,0-1.1,0.5-1.1,1.3v3.5h-2.2v-6.5h1.6l0.3,0.7c0.5-0.5,1.2-0.9,2-0.9
		C44.5,136.1,45.5,137.2,45.5,138.8z"/>
	<path d="M46.8,136.3H49v6.5h-2.2V136.3z M46.8,133.6H49v1.9h-2.2V133.6z"/>
	<path d="M56.8,138.8v3.9h-2.2v-3.6c0-0.8-0.3-1.1-0.8-1.1c-0.7,0-1.1,0.5-1.1,1.3v3.5h-2.2v-6.5H52l0.3,0.7c0.5-0.5,1.2-0.9,2-0.9
		C55.8,136.1,56.8,137.2,56.8,138.8z"/>
	<path d="M64.9,136.3v5.8c0,2-1.3,3.3-3.5,3.3c-1.8,0-3.1-0.9-3.4-2.5h2.2c0.2,0.4,0.7,0.7,1.2,0.7c0.7,0,1.3-0.5,1.3-1.2v-0.2
		c-0.5,0.3-1.1,0.5-1.7,0.5c-1.9,0-3.2-1.4-3.2-3.3c0-1.8,1.4-3.3,3.2-3.3c0.8,0,1.5,0.3,2,0.8l0.3-0.5H64.9z M62.8,139.3
		c0-0.8-0.6-1.4-1.4-1.4c-0.8,0-1.4,0.6-1.4,1.4c0,0.8,0.6,1.4,1.4,1.4C62.2,140.8,62.8,140.2,62.8,139.3z"/>
	<path d="M78.5,136.3l-2.1,6.5h-1.8l-1.3-2.9l-1.3,2.9h-1.8l-2.1-6.5h2.3l1,3.4l1.5-3.4h0.6l1.6,3.4l1-3.4H78.5z"/>
	<path d="M79.3,136.3h2.2v6.5h-2.2V136.3z M79.3,133.6h2.2v1.9h-2.2V133.6z"/>
	<path d="M87.3,140.8v2h-1.5c-1.4,0-2.3-0.9-2.3-2.3V138h-1.2v-0.5l2.9-3.1h0.5v1.9h1.6v1.7h-1.6v2.1c0,0.5,0.3,0.7,0.8,0.7H87.3z"
		/>
	<path d="M94.7,138.9v3.9h-2.2v-3.6c0-0.7-0.3-1.1-0.8-1.1c-0.7,0-1.1,0.5-1.1,1.3v3.5h-2.2V134h2.2v2.8c0.5-0.4,1.1-0.6,1.7-0.6
		C93.8,136.1,94.7,137.2,94.7,138.9z"/>
	<path d="M108.6,138.7v4.1h-2.2V139c0-0.7-0.2-1-0.7-1c-0.6,0-0.9,0.4-0.9,1.2v3.6h-2.2V139c0-0.7-0.2-1-0.7-1
		c-0.6,0-0.9,0.4-0.9,1.2v3.6h-2.2v-6.5h1.6l0.3,0.7c0.5-0.5,1.1-0.9,1.9-0.9c0.8,0,1.5,0.4,1.9,1c0.5-0.6,1.2-1,2-1
		C107.7,136.1,108.6,137.2,108.6,138.7z"/>
	<path d="M109.9,140v-3.7h2.2v3.6c0,0.7,0.4,1.1,1,1.1c0.6,0,1-0.4,1-1.1v-3.6h2.2v3.7c0,1.8-1.3,3-3.2,3S109.9,141.8,109.9,140z"/>
	<path d="M117.6,134h2.2v8.8h-2.2V134z"/>
	<path d="M125.6,140.8v2H124c-1.4,0-2.3-0.9-2.3-2.3V138h-1.2v-0.5l2.9-3.1h0.5v1.9h1.6v1.7H124v2.1c0,0.5,0.3,0.7,0.8,0.7H125.6z"
		/>
	<path d="M126.6,136.3h2.2v6.5h-2.2V136.3z M126.6,133.6h2.2v1.9h-2.2V133.6z"/>
	<path d="M130.2,138.4h4.4v2h-4.4V138.4z"/>
	<path d="M135.6,139.5c0-2,1.5-3.4,3.6-3.4c1.8,0,3.2,1.1,3.4,2.9h-2.2c-0.2-0.5-0.7-0.9-1.3-0.9c-0.8,0-1.3,0.6-1.3,1.4
		s0.6,1.5,1.3,1.5c0.6,0,1.1-0.4,1.3-0.9h2.2c-0.3,1.8-1.6,2.9-3.5,2.9C137.1,143,135.6,141.5,135.6,139.5z"/>
	<path d="M150,138.9v3.9h-2.2v-3.6c0-0.7-0.3-1.1-0.8-1.1c-0.7,0-1.1,0.5-1.1,1.3v3.5h-2.2V134h2.2v2.8c0.5-0.4,1.1-0.6,1.7-0.6
		C149,136.1,150,137.2,150,138.9z"/>
	<path d="M158.2,136.3v6.5h-1.7l-0.2-0.5c-0.5,0.4-1.2,0.7-2,0.7c-2,0-3.4-1.4-3.4-3.5c0-2,1.4-3.4,3.4-3.4c0.8,0,1.4,0.3,2,0.7
		l0.2-0.5H158.2z M156.1,139.5c0-0.8-0.6-1.5-1.4-1.5c-0.8,0-1.5,0.6-1.5,1.5c0,0.8,0.6,1.5,1.5,1.5
		C155.5,141,156.1,140.4,156.1,139.5z"/>
	<path d="M159.6,136.3h2.2v6.5h-2.2V136.3z M159.6,133.6h2.2v1.9h-2.2V133.6z"/>
	<path d="M169.7,138.8v3.9h-2.2v-3.6c0-0.8-0.3-1.1-0.8-1.1c-0.7,0-1.1,0.5-1.1,1.3v3.5h-2.2v-6.5h1.6l0.3,0.7
		c0.5-0.5,1.2-0.9,2-0.9C168.7,136.1,169.7,137.2,169.7,138.8z"/>
	<path d="M173.2,140.6h2.1c0,0.5,0.3,0.7,0.8,0.7c0.3,0,0.6-0.2,0.6-0.5c0-0.4-0.5-0.5-1.1-0.6c-1-0.2-2.3-0.5-2.3-2
		c0-1.3,1.1-2.1,2.8-2.1c1.6,0,2.7,0.9,2.7,2.2h-2.1c0-0.4-0.3-0.6-0.7-0.6c-0.4,0-0.6,0.2-0.6,0.5c0,0.4,0.5,0.5,1.1,0.6
		c1,0.2,2.4,0.4,2.4,2c0,1.4-1.1,2.2-2.9,2.2C174.3,143,173.3,142.1,173.2,140.6z"/>
	<path d="M179.9,140v-3.7h2.2v3.6c0,0.7,0.4,1.1,1,1.1c0.6,0,1-0.4,1-1.1v-3.6h2.2v3.7c0,1.8-1.3,3-3.2,3S179.9,141.8,179.9,140z"/>
	<path d="M194.8,139.5c0,2-1.4,3.5-3.4,3.5c-0.6,0-1.1-0.2-1.6-0.4v2.5h-2.2v-8.8h1.5l0.3,0.5c0.5-0.5,1.2-0.7,2-0.7
		C193.4,136.1,194.8,137.5,194.8,139.5z M192.6,139.5c0-0.9-0.6-1.5-1.5-1.5c-0.8,0-1.4,0.6-1.4,1.5c0,0.9,0.6,1.5,1.4,1.5
		C192,141,192.6,140.4,192.6,139.5z"/>
	<path d="M203,139.5c0,2-1.4,3.5-3.4,3.5c-0.6,0-1.1-0.2-1.6-0.4v2.5h-2.2v-8.8h1.5l0.3,0.5c0.5-0.5,1.2-0.7,2-0.7
		C201.6,136.1,203,137.5,203,139.5z M200.8,139.5c0-0.9-0.6-1.5-1.5-1.5c-0.8,0-1.4,0.6-1.4,1.5c0,0.9,0.6,1.5,1.4,1.5
		C200.2,141,200.8,140.4,200.8,139.5z"/>
	<path d="M203.7,139.5c0-2,1.5-3.5,3.6-3.5c2.1,0,3.6,1.4,3.6,3.5c0,2-1.5,3.5-3.6,3.5C205.2,143,203.7,141.5,203.7,139.5z
		 M208.7,139.5c0-0.9-0.6-1.4-1.4-1.4s-1.4,0.6-1.4,1.4s0.6,1.4,1.4,1.4S208.7,140.4,208.7,139.5z"/>
	<path d="M216.2,136.3v2h-0.9c-0.8,0-1.1,0.3-1.1,1.2v3.3H212v-6.5h1.5l0.3,0.7c0.5-0.5,1-0.8,1.8-0.8H216.2z"/>
	<path d="M221.5,140.8v2H220c-1.4,0-2.3-0.9-2.3-2.3V138h-1.2v-0.5l2.9-3.1h0.5v1.9h1.6v1.7h-1.6v2.1c0,0.5,0.3,0.7,0.8,0.7H221.5z"
		/>
</g>
<g>
	<ellipse transform="matrix(0.2385 -0.9712 0.9712 0.2385 42.4792 153.2759)" class="st5" cx="119" cy="49.6" rx="32.3" ry="32.3"/>
	<path class="st5" d="M119,87.9c-21.1,0-38.3-17.2-38.3-38.3c0-21.1,17.2-38.3,38.3-38.3c21.1,0,38.3,17.2,38.3,38.3
		C157.3,70.7,140.1,87.9,119,87.9z M119,12.5c-20.4,0-37.1,16.6-37.1,37.1c0,20.4,16.6,37.1,37.1,37.1c20.4,0,37.1-16.6,37.1-37.1
		C156.1,29.1,139.4,12.5,119,12.5z"/>
	<path class="st6" d="M96,53l0.2,0.1L96,53.2c-1.3,0.3-2.3,1.3-2.6,2.6L93.4,56l-0.1-0.2c-0.3-1.3-1.3-2.3-2.6-2.6l-0.2-0.1l0.2-0.1
		c1.3-0.3,2.3-1.3,2.6-2.6l0.1-0.2l0.1,0.2C93.7,51.7,94.7,52.7,96,53L96,53z"/>
	<path class="st7" d="M115.8,30.8l0.3,0.1l-0.3,0.1c-1.6,0.4-2.8,1.6-3.2,3.2l-0.1,0.3l-0.1-0.3c-0.4-1.6-1.6-2.8-3.2-3.2l-0.3-0.1
		l0.3-0.1c1.6-0.4,2.8-1.6,3.2-3.2l0.1-0.3l0.1,0.3C113,29.2,114.2,30.4,115.8,30.8L115.8,30.8z"/>
	<path class="st7" d="M120.2,25.2l0.2,0L120.2,25.2c-1,0.3-1.8,1.1-2.1,2.2l0,0.2l0-0.2c-0.3-1-1-1.8-2.1-2.1l-0.2,0l0.2,0
		c1-0.3,1.8-1,2.1-2.1l0-0.2l0,0.2C118.4,24.1,119.2,24.9,120.2,25.2L120.2,25.2z"/>
	<path class="st8" d="M118.2,69.8l0.2,0.1l-0.2,0c-1.2,0.3-2.1,1.2-2.4,2.4l0,0.2l-0.1-0.2c-0.3-1.2-1.2-2.1-2.4-2.4l-0.2,0l0.2-0.1
		c1.2-0.3,2.1-1.2,2.4-2.4l0.1-0.2l0,0.2C116.1,68.6,117,69.5,118.2,69.8L118.2,69.8z"/>
	<path class="st8" d="M129.6,73.4l0.3,0.1l-0.3,0.1c-2,0.5-3.6,2.1-4.1,4.1l-0.1,0.3l-0.1-0.3c-0.5-2-2.1-3.6-4.1-4.1l-0.3-0.1
		l0.3-0.1c2-0.5,3.6-2.1,4.1-4.1l0.1-0.3l0.1,0.3C126,71.3,127.6,72.8,129.6,73.4L129.6,73.4z"/>
</g>
<g>
	<polygon class="st9" points="102,62 138.5,62 141.8,40.4 98.7,40.4 	"/>
	<circle class="st9" cx="131.8" cy="68.6" r="3.3"/>
	<circle class="st9" cx="108.6" cy="68.6" r="3.3"/>
	<circle class="st10" cx="120.2" cy="37.1" r="13.3"/>
	<circle class="st11" cx="120.2" cy="37.1" r="10"/>
	<polygon class="st12" points="120.2,30.5 115.2,33.8 115.2,40.4 120.2,43.7 125.2,40.4 125.2,33.8 	"/>
	<g>
		<path d="M142.4,39.9c-0.2-0.2-0.4-0.3-0.6-0.3h-7.7c0.1-0.8,0.2-1.6,0.2-2.5c0-7.8-6.3-14.1-14.1-14.1s-14.1,6.3-14.1,14.1
			c0,0.9,0.1,1.7,0.2,2.5h-7l-0.5-2.9c-0.2-1.2-1.2-2.1-2.5-2.1h-3.6v1.7h3.6c0.4,0,0.8,0.3,0.8,0.7l0.6,3.6l3.3,21.5v1.6
			c0,1.4,1.1,2.5,2.5,2.5h1.7c-0.5,0.7-0.9,1.6-0.9,2.5c0,2.3,1.9,4.1,4.1,4.1s4.1-1.9,4.1-4.1c0-0.9-0.3-1.8-0.9-2.5h16.6
			c-0.5,0.7-0.9,1.6-0.9,2.5c0,2.3,1.9,4.1,4.1,4.1c2.3,0,4.1-1.9,4.1-4.1c0-0.9-0.3-1.8-0.9-2.5h2.5v-1.7h-34
			c-0.5,0-0.8-0.4-0.8-0.8v-0.8h35.7c0.4,0,0.8-0.3,0.8-0.7l3.3-21.6C142.7,40.3,142.6,40.1,142.4,39.9z M111.1,68.6
			c0,1.4-1.1,2.5-2.5,2.5c-1.4,0-2.5-1.1-2.5-2.5s1.1-2.5,2.5-2.5C110,66.1,111.1,67.3,111.1,68.6z M134.3,68.6
			c0,1.4-1.1,2.5-2.5,2.5s-2.5-1.1-2.5-2.5s1.1-2.5,2.5-2.5S134.3,67.3,134.3,68.6z M140.8,41.2l-0.8,5h-7l0.3-4
			c0.1-0.3,0.2-0.6,0.3-0.9H140.8z M111.2,47.9c2.3,1.9,5.1,3.1,8.2,3.3v3.4h-9.7l-0.5-6.6H111.2z M109.1,46.2l0-0.6
			c0.2,0.2,0.3,0.4,0.5,0.6H109.1z M108,54.5h-6.4l-1-6.6h6.9L108,54.5z M101.9,56.2h6.2l0.4,5h-5.9L101.9,56.2z M109.8,56.2h9.6v5
			h-9.2L109.8,56.2z M121.1,56.2h9.6l-0.4,5h-9.2V56.2z M121.1,54.5v-3.4c3.1-0.2,6-1.4,8.2-3.3h2l-0.5,6.6H121.1z M131,46.2
			c0.2-0.2,0.3-0.4,0.5-0.6l0,0.6H131z M132.9,47.9h6.9l-1,6.6h-6.4L132.9,47.9z M120.2,24.6c6.9,0,12.4,5.6,12.4,12.4
			s-5.6,12.4-12.4,12.4s-12.4-5.6-12.4-12.4S113.4,24.6,120.2,24.6z M106.7,41.2c0.1,0.3,0.2,0.7,0.4,1l0,0l0.3,4h-7l-0.8-5H106.7z
			 M137.8,61.2h-5.9l0.4-5h6.2L137.8,61.2z"/>
		<path d="M120.2,47.9c5.9,0,10.8-4.8,10.8-10.8s-4.8-10.8-10.8-10.8s-10.8,4.8-10.8,10.8S114.3,47.9,120.2,47.9z M120.2,28
			c5,0,9.1,4.1,9.1,9.1s-4.1,9.1-9.1,9.1s-9.1-4.1-9.1-9.1S115.2,28,120.2,28z"/>
		<path d="M114.8,41.1l5,3.3c0.1,0.1,0.3,0.1,0.5,0.1s0.3,0,0.5-0.1l5-3.3c0.2-0.2,0.4-0.4,0.4-0.7v-6.6c0-0.3-0.1-0.5-0.4-0.7
			l-5-3.3c-0.3-0.2-0.6-0.2-0.9,0l-5,3.3c-0.2,0.2-0.4,0.4-0.4,0.7v6.6C114.4,40.6,114.6,40.9,114.8,41.1z M116.1,34.2l4.1-2.8
			l4.1,2.8v5.7l-4.1,2.8l-4.1-2.8V34.2z"/>
	</g>
</g>
</svg>
