<?xml version="1.0" encoding="utf-8"?>
<!-- Generator: Adobe Illustrator 26.0.0, SVG Export Plug-In . SVG Version: 6.00 Build 0)  -->
<svg version="1.1" xmlns="http://www.w3.org/2000/svg" xmlns:xlink="http://www.w3.org/1999/xlink" x="0px" y="0px"
	 viewBox="0 0 336 523" style="enable-background:new 0 0 336 523;" xml:space="preserve">
<style type="text/css">
	.st0{fill:#FFFFFF;}
	.st1{fill:url(#SVGID_1_);}
	.st2{fill:url(#SVGID_00000038380004025855035170000016606367775764933303_);}
	.st3{fill:#1A1A1A;}
	.st4{fill:#808080;}
	.st5{fill:url(#SVGID_00000132773037610699268710000010907396868794548135_);}
	.st6{fill:url(#SVGID_00000146459424781162678650000011283094793751749258_);}
	.st7{fill:url(#SVGID_00000084497572753156234610000006611459178465265056_);}
	.st8{fill:url(#SVGID_00000127020208833823735550000010761441826456398492_);}
	.st9{fill:url(#SVGID_00000170976602200874890310000004900912371338861459_);}
	.st10{fill:url(#SVGID_00000137846662933762719700000008129282017863874235_);}
	.st11{fill:url(#SVGID_00000008869550611302804540000006618989328851406254_);}
	.st12{fill:url(#SVGID_00000103985817029732488490000010877211043609816254_);}
	.st13{fill:url(#SVGID_00000038381116858000615860000016547062207201560225_);}
	.st14{fill:url(#SVGID_00000062892763856507660030000009630265456581964986_);}
	.st15{fill:url(#SVGID_00000177463257386568570320000010295434446532965264_);}
	.st16{fill:url(#SVGID_00000117665640200843419650000005197540914313065377_);}
	.st17{fill:url(#SVGID_00000126285334140956682780000012309877110345677751_);}
	.st18{fill:url(#SVGID_00000106136011383090084460000003058203856135082370_);}
	.st19{fill:url(#SVGID_00000149371254757966505570000001406457844390891648_);}
	.st20{fill:url(#SVGID_00000097485947065571555560000001198679803258684316_);}
	.st21{fill:url(#SVGID_00000107560079518517045450000016367586228690029960_);}
	.st22{fill:url(#SVGID_00000148638656461001526700000015362907624943199385_);}
	.st23{fill:url(#SVGID_00000120550757798245147980000007025142280594271388_);}
	.st24{fill:url(#SVGID_00000031918311544728667380000012263469613262437823_);}
	.st25{fill:url(#SVGID_00000103972792411258328450000017596602437766469251_);}
	.st26{fill:url(#SVGID_00000050658027473606120510000004748602491534000024_);}
	.st27{fill:url(#SVGID_00000129889863279456980200000007673057959856834986_);}
	.st28{fill:url(#SVGID_00000127736413191689686620000012552219350265112984_);}
	.st29{fill:#4D4D4D;}
	.st30{opacity:0.7;fill:url(#SVGID_00000137102647520375937870000002734810047646576543_);enable-background:new    ;}
	.st31{opacity:0.7;fill:url(#SVGID_00000036945332549532935590000016961778027791120553_);enable-background:new    ;}
	.st32{display:none;fill:#FFFFFF;fill-opacity:0;}
	.st33{fill:#D4145A;}
</style>
<g id="Layer_2">
</g>
<g id="Layer_1">
	<g>
		<path class="st0" d="M184.8,300.8h-2.6v-2.6c0-0.4,0.3-0.7,0.7-0.7s0.7,0.3,0.7,0.7v1.1h1.1c0.4,0,0.7,0.3,0.7,0.7
			C185.6,300.4,185.2,300.8,184.8,300.8z"/>
	</g>
	<g>
		<path class="st0" d="M182.9,296.6c-0.4,0-0.7-0.3-0.7-0.7V292c0-0.4,0.3-0.7,0.7-0.7s0.7,0.3,0.7,0.7v3.9
			C183.7,296.2,183.4,296.6,182.9,296.6z M182.9,290.4c-0.4,0-0.7-0.3-0.7-0.7v-3.9c0-0.4,0.3-0.7,0.7-0.7s0.7,0.3,0.7,0.7v3.9
			C183.7,290.1,183.4,290.4,182.9,290.4z M182.9,284.2c-0.4,0-0.7-0.3-0.7-0.7v-3.9c0-0.4,0.3-0.7,0.7-0.7s0.7,0.3,0.7,0.7v3.9
			C183.7,283.9,183.4,284.2,182.9,284.2z M182.9,278.1c-0.4,0-0.7-0.3-0.7-0.7v-3.9c0-0.4,0.3-0.7,0.7-0.7s0.7,0.3,0.7,0.7v3.9
			C183.7,277.7,183.4,278.1,182.9,278.1z M182.9,271.9c-0.4,0-0.7-0.3-0.7-0.7v-3.9c0-0.4,0.3-0.7,0.7-0.7s0.7,0.3,0.7,0.7v3.9
			C183.7,271.6,183.4,271.9,182.9,271.9z M182.9,265.7c-0.4,0-0.7-0.3-0.7-0.7v-3.9c0-0.4,0.3-0.7,0.7-0.7s0.7,0.3,0.7,0.7v3.9
			C183.7,265.4,183.4,265.7,182.9,265.7z M182.9,259.6c-0.4,0-0.7-0.3-0.7-0.7V255c0-0.4,0.3-0.7,0.7-0.7s0.7,0.3,0.7,0.7v3.9
			C183.7,259.2,183.4,259.6,182.9,259.6z M182.9,253.4c-0.4,0-0.7-0.3-0.7-0.8v-3.9c0-0.4,0.3-0.7,0.7-0.7s0.7,0.3,0.7,0.7v3.9
			C183.7,253.1,183.4,253.4,182.9,253.4z M182.9,247.2c-0.4,0-0.7-0.3-0.7-0.7v-3.9c0-0.4,0.3-0.7,0.7-0.7s0.7,0.3,0.7,0.7v3.9
			C183.7,246.9,183.4,247.2,182.9,247.2z M182.9,241.1c-0.4,0-0.7-0.3-0.7-0.7v-3.9c0-0.4,0.3-0.7,0.7-0.7s0.7,0.3,0.7,0.7v3.9
			C183.7,240.7,183.4,241.1,182.9,241.1z M182.9,234.9c-0.4,0-0.7-0.3-0.7-0.7v-3.9c0-0.4,0.3-0.7,0.7-0.7s0.7,0.3,0.7,0.7v3.9
			C183.7,234.6,183.4,234.9,182.9,234.9z M182.9,228.7c-0.4,0-0.7-0.3-0.7-0.7v-3.9c0-0.4,0.3-0.7,0.7-0.7s0.7,0.3,0.7,0.7v3.9
			C183.7,228.4,183.4,228.7,182.9,228.7z"/>
	</g>
	<g>
		<path class="st0" d="M182.9,222.5c-0.4,0-0.7-0.3-0.7-0.7v-2.6h2.6c0.4,0,0.7,0.3,0.7,0.7s-0.3,0.7-0.7,0.7h-1.1v1.1
			C183.7,222.2,183.4,222.5,182.9,222.5z"/>
	</g>
	<path class="st0" d="M262.9,300.8h-3.8c-0.4,0-0.7-0.3-0.7-0.8c0-0.4,0.3-0.7,0.7-0.7h3.8c0.4,0,0.7,0.3,0.7,0.7
		C263.6,300.4,263.3,300.8,262.9,300.8z"/>
	<path class="st0" d="M256.8,300.8H253c-0.4,0-0.7-0.3-0.7-0.8c0-0.4,0.3-0.7,0.7-0.7h3.8c0.4,0,0.7,0.3,0.7,0.7
		C257.6,300.4,257.3,300.8,256.8,300.8z"/>
	<path class="st0" d="M250.8,300.8H247c-0.4,0-0.8-0.3-0.8-0.8c0-0.4,0.3-0.7,0.8-0.7h3.8c0.4,0,0.7,0.3,0.7,0.7
		C251.6,300.4,251.3,300.8,250.8,300.8z"/>
	<path class="st0" d="M244.8,300.8H241c-0.4,0-0.7-0.3-0.7-0.8c0-0.4,0.3-0.7,0.7-0.7h3.8c0.4,0,0.7,0.3,0.7,0.7
		C245.6,300.4,245.3,300.8,244.8,300.8z"/>
	<path class="st0" d="M238.8,300.8H235c-0.4,0-0.7-0.3-0.7-0.8c0-0.4,0.3-0.7,0.7-0.7h3.8c0.4,0,0.7,0.3,0.7,0.7
		C239.6,300.4,239.3,300.8,238.8,300.8z"/>
	<path class="st0" d="M232.8,300.8H229c-0.4,0-0.7-0.3-0.7-0.8c0-0.4,0.3-0.7,0.7-0.7h3.8c0.4,0,0.7,0.3,0.7,0.7
		C233.6,300.4,233.2,300.8,232.8,300.8z"/>
	<path class="st0" d="M226.8,300.8H223c-0.4,0-0.7-0.3-0.7-0.8c0-0.4,0.3-0.7,0.7-0.7h3.8c0.4,0,0.7,0.3,0.7,0.7
		C227.6,300.4,227.2,300.8,226.8,300.8z"/>
	<path class="st0" d="M220.8,300.8H217c-0.4,0-0.7-0.3-0.7-0.8c0-0.4,0.3-0.7,0.7-0.7h3.8c0.4,0,0.7,0.3,0.7,0.7
		C221.6,300.4,221.2,300.8,220.8,300.8z"/>
	<path class="st0" d="M214.8,300.8H211c-0.4,0-0.7-0.3-0.7-0.8c0-0.4,0.3-0.7,0.7-0.7h3.8c0.4,0,0.7,0.3,0.7,0.7
		C215.6,300.4,215.2,300.8,214.8,300.8z"/>
	<path class="st0" d="M208.8,300.8H205c-0.4,0-0.7-0.3-0.7-0.8c0-0.4,0.3-0.7,0.7-0.7h3.8c0.4,0,0.7,0.3,0.7,0.7
		C209.6,300.4,209.2,300.8,208.8,300.8z"/>
	<path class="st0" d="M202.8,300.8H199c-0.4,0-0.7-0.3-0.7-0.8c0-0.4,0.3-0.7,0.7-0.7h3.8c0.4,0,0.7,0.3,0.7,0.7
		C203.6,300.4,203.2,300.8,202.8,300.8z"/>
	<path class="st0" d="M196.8,300.8H193c-0.4,0-0.7-0.3-0.7-0.8c0-0.4,0.3-0.7,0.7-0.7h3.8c0.4,0,0.7,0.3,0.7,0.7
		C197.6,300.4,197.2,300.8,196.8,300.8z"/>
	<path class="st0" d="M190.8,300.8H187c-0.4,0-0.7-0.3-0.7-0.8c0-0.4,0.3-0.7,0.7-0.7h3.8c0.4,0,0.7,0.3,0.7,0.7
		C191.6,300.4,191.2,300.8,190.8,300.8z"/>
	<path class="st0" d="M265,300.4c-0.3,0-0.5-0.1-0.6-0.4c-0.2-0.4-0.1-0.8,0.3-1c0.2-0.1,0.4-0.3,0.5-0.4l0.3-0.4l1.7-1.7
		c0.3-0.3,0.8-0.3,1.1,0c0.3,0.3,0.3,0.8,0,1.1l-1.6,1.6l-0.1,0.2c-0.2,0.4-0.6,0.7-1,1C265.3,300.4,265.2,300.4,265,300.4z"/>
	<path class="st0" d="M269.3,296.2c-0.2,0-0.4-0.1-0.5-0.2c-0.3-0.3-0.3-0.8,0-1.1l2.7-2.7c0.3-0.3,0.8-0.3,1.1,0
		c0.3,0.3,0.3,0.8,0,1.1l-2.7,2.7C269.6,296.1,269.5,296.2,269.3,296.2z"/>
	<path class="st0" d="M273.5,292c-0.2,0-0.4-0.1-0.5-0.2c-0.3-0.3-0.3-0.8,0-1.1l2.7-2.7c0.3-0.3,0.8-0.3,1.1,0
		c0.3,0.3,0.3,0.8,0,1.1l-2.7,2.7C273.9,291.9,273.7,292,273.5,292z"/>
	<path class="st0" d="M277.8,287.7c-0.2,0-0.4-0.1-0.5-0.2c-0.3-0.3-0.3-0.8,0-1.1l2.7-2.7c0.3-0.3,0.8-0.3,1.1,0
		c0.3,0.3,0.3,0.8,0,1.1l-2.7,2.7C278.1,287.6,277.9,287.7,277.8,287.7z"/>
	<g>
		<g>
			
				<linearGradient id="SVGID_1_" gradientUnits="userSpaceOnUse" x1="186.8" y1="244.5" x2="314.0019" y2="244.5" gradientTransform="matrix(1 0 0 -1 0 524)">
				<stop  offset="0" style="stop-color:#45C0C8"/>
				<stop  offset="1" style="stop-color:#01687D"/>
			</linearGradient>
			<path class="st1" d="M313.3,276.6l-0.1-0.2L275,238.3c-1-1.4-2.6-2.3-3.9-2.6h-0.2h-84.1v87.6h84.1h0.2c0.8-0.2,2.8-0.9,3.9-2.6
				l38.1-38.1l0.1-0.2C314.2,280.7,314.3,278.2,313.3,276.6z"/>
			
				<linearGradient id="SVGID_00000136397154988977273280000001115269653540523955_" gradientUnits="userSpaceOnUse" x1="126.2335" y1="546.735" x2="251.8585" y2="546.735" gradientTransform="matrix(1 0 0 1 60.6665 -267.335)">
				<stop  offset="0" style="stop-color:#45C0C8"/>
				<stop  offset="1" style="stop-color:#01687D"/>
			</linearGradient>
			<path style="fill:url(#SVGID_00000136397154988977273280000001115269653540523955_);" d="M312,277.3l-38.1-38.1
				c-0.7-1.2-2.1-1.9-3.1-2.1h-83.9v84.6h83.9c1.1-0.3,2.4-0.9,3.1-2.1l38.1-38.1C312.7,280.4,312.7,278.5,312,277.3z"/>
		</g>
		<g>
			<g>
				<path class="st3" d="M270.5,320.2h-82.2v-81.6h82.3c0.7,0.2,1.5,0.7,1.9,1.4l0.1,0.2l38.1,38.1l0.1,0.2c0.2,0.6,0.2,1.5,0,2.1
					l-0.1,0.2l-38.1,38.1l-0.1,0.2c-0.5,0.8-1.5,1.2-1.9,1.3L270.5,320.2z M189.8,318.7h80.5c0.5-0.2,0.9-0.4,1-0.7l0.3-0.4
					l37.9-37.9c0-0.2,0-0.5,0-0.7l-38-37.9l-0.2-0.3c-0.1-0.2-0.6-0.5-1-0.7h-80.5L189.8,318.7L189.8,318.7z"/>
			</g>
			<g>
				<g>
					<path class="st0" d="M190.9,320.2h-2.6v-2.6c0-0.4,0.3-0.7,0.7-0.7s0.7,0.3,0.7,0.7v1.1h1.1c0.4,0,0.7,0.3,0.7,0.7
						C191.7,319.9,191.4,320.2,190.9,320.2z"/>
				</g>
				<g>
					<path class="st0" d="M189.1,316c-0.4,0-0.7-0.3-0.7-0.7v-3.9c0-0.4,0.3-0.7,0.7-0.7s0.7,0.3,0.7,0.7v3.9
						C189.8,315.7,189.5,316,189.1,316z M189.1,309.9c-0.4,0-0.7-0.3-0.7-0.7v-3.9c0-0.4,0.3-0.7,0.7-0.7s0.7,0.3,0.7,0.7v3.9
						C189.8,309.5,189.5,309.9,189.1,309.9z M189.1,303.7c-0.4,0-0.7-0.3-0.7-0.7v-3.9c0-0.4,0.3-0.7,0.7-0.7s0.7,0.3,0.7,0.7v3.9
						C189.8,303.4,189.5,303.7,189.1,303.7z M189.1,297.5c-0.4,0-0.7-0.3-0.7-0.7v-3.9c0-0.4,0.3-0.7,0.7-0.7s0.7,0.3,0.7,0.7v3.9
						C189.8,297.2,189.5,297.5,189.1,297.5z M189.1,291.4c-0.4,0-0.7-0.3-0.7-0.7v-3.9c0-0.4,0.3-0.7,0.7-0.7s0.7,0.3,0.7,0.7v3.9
						C189.8,291,189.5,291.4,189.1,291.4z M189.1,285.2c-0.4,0-0.7-0.3-0.7-0.7v-3.9c0-0.4,0.3-0.7,0.7-0.7s0.7,0.3,0.7,0.7v3.9
						C189.8,284.9,189.5,285.2,189.1,285.2z M189.1,279c-0.4,0-0.7-0.3-0.7-0.7v-3.9c0-0.4,0.3-0.7,0.7-0.7s0.7,0.3,0.7,0.7v3.9
						C189.8,278.7,189.5,279,189.1,279z M189.1,272.9c-0.4,0-0.7-0.3-0.7-0.8v-3.9c0-0.4,0.3-0.7,0.7-0.7s0.7,0.3,0.7,0.7v3.9
						C189.8,272.5,189.5,272.9,189.1,272.9z M189.1,266.7c-0.4,0-0.7-0.3-0.7-0.7v-3.9c0-0.4,0.3-0.7,0.7-0.7s0.7,0.3,0.7,0.7v3.9
						C189.8,266.4,189.5,266.7,189.1,266.7z M189.1,260.5c-0.4,0-0.7-0.3-0.7-0.7v-3.9c0-0.4,0.3-0.7,0.7-0.7s0.7,0.3,0.7,0.7v3.9
						C189.8,260.2,189.5,260.5,189.1,260.5z M189.1,254.4c-0.4,0-0.7-0.3-0.7-0.7v-3.9c0-0.4,0.3-0.7,0.7-0.7s0.7,0.3,0.7,0.7v3.9
						C189.8,254,189.5,254.4,189.1,254.4z M189.1,248.2c-0.4,0-0.7-0.3-0.7-0.7v-3.9c0-0.4,0.3-0.7,0.7-0.7s0.7,0.3,0.7,0.7v3.9
						C189.8,247.9,189.5,248.2,189.1,248.2z"/>
				</g>
				<g>
					<path class="st0" d="M189.1,242c-0.4,0-0.7-0.3-0.7-0.7v-2.6h2.6c0.4,0,0.7,0.3,0.7,0.7s-0.3,0.7-0.7,0.7h-1.1v1.1
						C189.8,241.7,189.5,242,189.1,242z"/>
				</g>
				<g>
					<path class="st0" d="M269,320.2h-3.8c-0.4,0-0.7-0.3-0.7-0.8c0-0.4,0.3-0.7,0.7-0.7h3.8c0.4,0,0.7,0.3,0.7,0.7
						C269.7,319.9,269.4,320.2,269,320.2z M263,320.2h-3.8c-0.4,0-0.7-0.3-0.7-0.8c0-0.4,0.3-0.7,0.7-0.7h3.8c0.4,0,0.7,0.3,0.7,0.7
						C263.7,319.9,263.4,320.2,263,320.2z M257,320.2h-3.8c-0.4,0-0.8-0.3-0.8-0.8c0-0.4,0.3-0.7,0.8-0.7h3.8c0.4,0,0.7,0.3,0.7,0.7
						C257.7,319.9,257.4,320.2,257,320.2z M251,320.2h-3.8c-0.4,0-0.7-0.3-0.7-0.8c0-0.4,0.3-0.7,0.7-0.7h3.8c0.4,0,0.7,0.3,0.7,0.7
						C251.7,319.9,251.4,320.2,251,320.2z M245,320.2h-3.8c-0.4,0-0.7-0.3-0.7-0.8c0-0.4,0.3-0.7,0.7-0.7h3.8c0.4,0,0.7,0.3,0.7,0.7
						C245.7,319.9,245.4,320.2,245,320.2z M239,320.2h-3.8c-0.4,0-0.7-0.3-0.7-0.8c0-0.4,0.3-0.7,0.7-0.7h3.8c0.4,0,0.7,0.3,0.7,0.7
						C239.7,319.9,239.4,320.2,239,320.2z M233,320.2h-3.8c-0.4,0-0.7-0.3-0.7-0.8c0-0.4,0.3-0.7,0.7-0.7h3.8c0.4,0,0.7,0.3,0.7,0.7
						C233.7,319.9,233.4,320.2,233,320.2z M227,320.2h-3.8c-0.4,0-0.7-0.3-0.7-0.8c0-0.4,0.3-0.7,0.7-0.7h3.8c0.4,0,0.7,0.3,0.7,0.7
						C227.7,319.9,227.4,320.2,227,320.2z M221,320.2h-3.8c-0.4,0-0.7-0.3-0.7-0.8c0-0.4,0.3-0.7,0.7-0.7h3.8c0.4,0,0.7,0.3,0.7,0.7
						C221.7,319.9,221.4,320.2,221,320.2z M215,320.2h-3.8c-0.4,0-0.7-0.3-0.7-0.8c0-0.4,0.3-0.7,0.7-0.7h3.8c0.4,0,0.7,0.3,0.7,0.7
						C215.7,319.9,215.4,320.2,215,320.2z M209,320.2h-3.8c-0.4,0-0.7-0.3-0.7-0.8c0-0.4,0.3-0.7,0.7-0.7h3.8c0.4,0,0.7,0.3,0.7,0.7
						C209.7,319.9,209.4,320.2,209,320.2z M203,320.2h-3.8c-0.4,0-0.7-0.3-0.7-0.8c0-0.4,0.3-0.7,0.7-0.7h3.8c0.4,0,0.7,0.3,0.7,0.7
						C203.7,319.9,203.4,320.2,203,320.2z M196.9,320.2h-3.8c-0.4,0-0.7-0.3-0.7-0.8c0-0.4,0.3-0.7,0.7-0.7h3.8
						c0.4,0,0.7,0.3,0.7,0.7C197.7,319.9,197.4,320.2,196.9,320.2z M271.2,319.9c-0.3,0-0.5-0.1-0.6-0.4c-0.2-0.4-0.1-0.8,0.3-1
						c0.2-0.1,0.4-0.3,0.5-0.4l0.3-0.4l1.7-1.7c0.3-0.3,0.8-0.3,1.1,0c0.3,0.3,0.3,0.8,0,1.1l-1.6,1.6l-0.1,0.2
						c-0.2,0.4-0.6,0.7-1,1C271.4,319.9,271.3,319.9,271.2,319.9z M275.4,315.7c-0.2,0-0.4-0.1-0.5-0.2c-0.3-0.3-0.3-0.8,0-1.1
						l2.7-2.7c0.3-0.3,0.8-0.3,1.1,0c0.3,0.3,0.3,0.8,0,1.1l-2.7,2.7C275.8,315.6,275.6,315.7,275.4,315.7z M279.6,311.4
						c-0.2,0-0.4-0.1-0.5-0.2c-0.3-0.3-0.3-0.8,0-1.1l2.7-2.7c0.3-0.3,0.8-0.3,1.1,0c0.3,0.3,0.3,0.8,0,1.1l-2.7,2.7
						C280,311.4,279.8,311.4,279.6,311.4z M283.9,307.2c-0.2,0-0.4-0.1-0.5-0.2c-0.3-0.3-0.3-0.8,0-1.1l2.7-2.7
						c0.3-0.3,0.8-0.3,1.1,0c0.3,0.3,0.3,0.8,0,1.1l-2.7,2.7C284.3,307.1,284.1,307.2,283.9,307.2z M288.1,302.9
						c-0.2,0-0.4-0.1-0.5-0.2c-0.3-0.3-0.3-0.8,0-1.1l2.7-2.7c0.3-0.3,0.8-0.3,1.1,0c0.3,0.3,0.3,0.8,0,1.1l-2.7,2.7
						C288.5,302.9,288.3,302.9,288.1,302.9z M292.4,298.7c-0.2,0-0.4-0.1-0.5-0.2c-0.3-0.3-0.3-0.8,0-1.1l2.7-2.7
						c0.3-0.3,0.8-0.3,1.1,0c0.3,0.3,0.3,0.8,0,1.1l-2.7,2.7C292.8,298.6,292.6,298.7,292.4,298.7z M296.6,294.5
						c-0.2,0-0.4-0.1-0.5-0.2c-0.3-0.3-0.3-0.8,0-1.1l2.7-2.7c0.3-0.3,0.8-0.3,1.1,0c0.3,0.3,0.3,0.8,0,1.1l-2.7,2.7
						C297,294.4,296.8,294.5,296.6,294.5z M300.9,290.2c-0.2,0-0.4-0.1-0.5-0.2c-0.3-0.3-0.3-0.8,0-1.1l2.7-2.7
						c0.3-0.3,0.8-0.3,1.1,0c0.3,0.3,0.3,0.8,0,1.1l-2.7,2.7C301.3,290.1,301.1,290.2,300.9,290.2z M305.1,286
						c-0.2,0-0.4-0.1-0.5-0.2c-0.3-0.3-0.3-0.8,0-1.1l2.7-2.7c0.3-0.3,0.8-0.3,1.1,0c0.3,0.3,0.3,0.8,0,1.1l-2.7,2.7
						C305.5,285.9,305.3,286,305.1,286z M309.4,281.7c-0.2,0-0.4-0.1-0.5-0.2c-0.3-0.3-0.3-0.8,0-1.1l0.6-0.6c0-0.1,0-0.2,0-0.4
						c0-0.1,0-0.3,0-0.4l-0.6-0.6c-0.3-0.3-0.3-0.8,0-1.1c0.3-0.3,0.8-0.3,1.1,0l0.9,0.9l0.1,0.2c0.1,0.4,0.2,0.8,0.2,1
						c0,0.3,0,0.7-0.2,1l-0.1,0.2l-0.9,0.9C309.7,281.7,309.6,281.7,309.4,281.7z M307.8,277.1c-0.2,0-0.4-0.1-0.5-0.2l-2.7-2.7
						c-0.3-0.3-0.3-0.8,0-1.1c0.3-0.3,0.8-0.3,1.1,0l2.7,2.7c0.3,0.3,0.3,0.8,0,1.1C308.1,277,308,277.1,307.8,277.1z M303.5,272.8
						c-0.2,0-0.4-0.1-0.5-0.2l-2.7-2.7c-0.3-0.3-0.3-0.8,0-1.1c0.3-0.3,0.8-0.3,1.1,0l2.7,2.7c0.3,0.3,0.3,0.8,0,1.1
						C303.9,272.7,303.7,272.8,303.5,272.8z M299.3,268.6c-0.2,0-0.4-0.1-0.5-0.2l-2.7-2.7c-0.3-0.3-0.3-0.8,0-1.1
						c0.3-0.3,0.8-0.3,1.1,0l2.7,2.7c0.3,0.3,0.3,0.8,0,1.1C299.7,268.5,299.5,268.6,299.3,268.6z M295,264.3
						c-0.2,0-0.4-0.1-0.5-0.2l-2.7-2.7c-0.3-0.3-0.3-0.8,0-1.1c0.3-0.3,0.8-0.3,1.1,0l2.7,2.7c0.3,0.3,0.3,0.8,0,1.1
						C295.4,264.3,295.2,264.3,295,264.3z M290.8,260.1c-0.2,0-0.4-0.1-0.5-0.2l-2.7-2.7c-0.3-0.3-0.3-0.8,0-1.1
						c0.3-0.3,0.8-0.3,1.1,0l2.7,2.7c0.3,0.3,0.3,0.8,0,1.1C291.2,260,291,260.1,290.8,260.1z M286.5,255.8c-0.2,0-0.4-0.1-0.5-0.2
						l-2.7-2.7c-0.3-0.3-0.3-0.8,0-1.1s0.8-0.3,1.1,0l2.7,2.7c0.3,0.3,0.3,0.8,0,1.1C286.9,255.8,286.7,255.8,286.5,255.8z
						 M282.3,251.6c-0.2,0-0.4-0.1-0.5-0.2l-2.7-2.7c-0.3-0.3-0.3-0.8,0-1.1s0.8-0.3,1.1,0l2.7,2.7c0.3,0.3,0.3,0.8,0,1.1
						C282.7,251.5,282.5,251.6,282.3,251.6z M278,247.4c-0.2,0-0.4-0.1-0.5-0.2l-2.7-2.7c-0.3-0.3-0.3-0.8,0-1.1s0.8-0.3,1.1,0
						l2.7,2.7c0.3,0.3,0.3,0.8,0,1.1C278.4,247.3,278.2,247.4,278,247.4z M273.8,243.1c-0.2,0-0.4-0.1-0.5-0.2l-1.8-1.8l-0.1-0.2
						c-0.1-0.1-0.3-0.3-0.5-0.4c-0.4-0.2-0.5-0.7-0.3-1c0.2-0.4,0.7-0.5,1-0.3s0.8,0.5,1.1,1l0.1,0.2l1.6,1.6c0.3,0.3,0.3,0.8,0,1.1
						C274.2,243,274,243.1,273.8,243.1z M269,240.1h-3.8c-0.4,0-0.7-0.3-0.7-0.7s0.3-0.7,0.7-0.7h3.8c0.4,0,0.7,0.3,0.7,0.7
						S269.4,240.1,269,240.1z M263,240.1h-3.8c-0.4,0-0.7-0.3-0.7-0.7s0.3-0.7,0.7-0.7h3.8c0.4,0,0.7,0.3,0.7,0.7
						S263.4,240.1,263,240.1z M257,240.1h-3.8c-0.4,0-0.7-0.3-0.7-0.7s0.3-0.7,0.7-0.7h3.8c0.4,0,0.7,0.3,0.7,0.7
						S257.4,240.1,257,240.1z M251,240.1h-3.8c-0.4,0-0.7-0.3-0.7-0.7s0.3-0.7,0.7-0.7h3.8c0.4,0,0.7,0.3,0.7,0.7
						S251.4,240.1,251,240.1z M245,240.1h-3.8c-0.4,0-0.7-0.3-0.7-0.7s0.3-0.7,0.7-0.7h3.8c0.4,0,0.7,0.3,0.7,0.7
						S245.4,240.1,245,240.1z M239,240.1h-3.8c-0.4,0-0.7-0.3-0.7-0.7s0.3-0.7,0.7-0.7h3.8c0.4,0,0.7,0.3,0.7,0.7
						S239.4,240.1,239,240.1z M233,240.1h-3.8c-0.4,0-0.7-0.3-0.7-0.7s0.3-0.7,0.7-0.7h3.8c0.4,0,0.7,0.3,0.7,0.7
						S233.4,240.1,233,240.1z M227,240.1h-3.8c-0.4,0-0.7-0.3-0.7-0.7s0.3-0.7,0.7-0.7h3.8c0.4,0,0.7,0.3,0.7,0.7
						S227.4,240.1,227,240.1z M221,240.1h-3.8c-0.4,0-0.7-0.3-0.7-0.7s0.3-0.7,0.7-0.7h3.8c0.4,0,0.7,0.3,0.7,0.7
						S221.4,240.1,221,240.1z M215,240.1h-3.8c-0.4,0-0.7-0.3-0.7-0.7s0.3-0.7,0.7-0.7h3.8c0.4,0,0.7,0.3,0.7,0.7
						S215.4,240.1,215,240.1z M208.9,240.1h-3.8c-0.4,0-0.7-0.3-0.7-0.7s0.3-0.7,0.7-0.7h3.8c0.4,0,0.7,0.3,0.7,0.7
						C209.7,239.8,209.4,240.1,208.9,240.1z M202.9,240.1h-3.8c-0.4,0-0.7-0.3-0.7-0.7s0.3-0.7,0.7-0.7h3.8c0.4,0,0.7,0.3,0.7,0.7
						C203.7,239.8,203.4,240.1,202.9,240.1z M196.9,240.1h-3.8c-0.4,0-0.7-0.3-0.7-0.7s0.3-0.7,0.7-0.7h3.8c0.4,0,0.7,0.3,0.7,0.7
						C197.7,239.8,197.4,240.1,196.9,240.1z"/>
				</g>
			</g>
		</g>
	</g>
	<path class="st0" d="M284.6,240.6c-0.2,0-0.4-0.1-0.5-0.2l-2.7-2.7c-0.3-0.3-0.3-0.8,0-1.1s0.8-0.3,1.1,0l2.7,2.7
		c0.3,0.3,0.3,0.8,0,1.1C285,240.5,284.8,240.6,284.6,240.6z"/>
	<path class="st0" d="M280.4,236.4c-0.2,0-0.4-0.1-0.5-0.2l-2.7-2.7c-0.3-0.3-0.3-0.8,0-1.1s0.8-0.3,1.1,0l2.7,2.7
		c0.3,0.3,0.3,0.8,0,1.1C280.8,236.3,280.6,236.4,280.4,236.4z"/>
	<path class="st0" d="M276.2,232.1c-0.2,0-0.4-0.1-0.5-0.2l-2.7-2.7c-0.3-0.3-0.3-0.8,0-1.1s0.8-0.3,1.1,0l2.7,2.7
		c0.3,0.3,0.3,0.8,0,1.1C276.5,232.1,276.3,232.1,276.2,232.1z"/>
	<path class="st0" d="M271.9,227.9c-0.2,0-0.4-0.1-0.5-0.2l-2.7-2.7c-0.3-0.3-0.3-0.8,0-1.1s0.8-0.3,1.1,0l2.7,2.7
		c0.3,0.3,0.3,0.8,0,1.1C272.3,227.8,272.1,227.9,271.9,227.9z"/>
	<path class="st0" d="M267.7,223.6c-0.2,0-0.4-0.1-0.5-0.2l-1.8-1.8l-0.1-0.2c-0.1-0.1-0.3-0.3-0.5-0.4c-0.4-0.2-0.5-0.7-0.3-1
		c0.2-0.4,0.7-0.5,1-0.3s0.8,0.5,1.1,1l0.1,0.2l1.6,1.6c0.3,0.3,0.3,0.8,0,1.1C268,223.6,267.9,223.6,267.7,223.6z"/>
	<path class="st0" d="M262.8,220.7H259c-0.4,0-0.7-0.3-0.7-0.7s0.3-0.7,0.7-0.7h3.8c0.4,0,0.7,0.3,0.7,0.7
		C263.6,220.3,263.3,220.7,262.8,220.7z"/>
	<path class="st0" d="M256.8,220.7H253c-0.4,0-0.7-0.3-0.7-0.7s0.3-0.7,0.7-0.7h3.8c0.4,0,0.7,0.3,0.7,0.7
		C257.6,220.3,257.3,220.7,256.8,220.7z"/>
	<path class="st0" d="M250.8,220.7H247c-0.4,0-0.7-0.3-0.7-0.7s0.3-0.7,0.7-0.7h3.8c0.4,0,0.7,0.3,0.7,0.7
		C251.6,220.3,251.3,220.7,250.8,220.7z"/>
	<path class="st0" d="M244.8,220.7H241c-0.4,0-0.7-0.3-0.7-0.7s0.3-0.7,0.7-0.7h3.8c0.4,0,0.7,0.3,0.7,0.7
		C245.6,220.3,245.2,220.7,244.8,220.7z"/>
	<path class="st0" d="M238.8,220.7H235c-0.4,0-0.7-0.3-0.7-0.7s0.3-0.7,0.7-0.7h3.8c0.4,0,0.7,0.3,0.7,0.7
		C239.6,220.3,239.2,220.7,238.8,220.7z"/>
	<path class="st0" d="M232.8,220.7H229c-0.4,0-0.7-0.3-0.7-0.7s0.3-0.7,0.7-0.7h3.8c0.4,0,0.7,0.3,0.7,0.7
		C233.6,220.3,233.2,220.7,232.8,220.7z"/>
	<path class="st0" d="M226.8,220.7H223c-0.4,0-0.7-0.3-0.7-0.7s0.3-0.7,0.7-0.7h3.8c0.4,0,0.7,0.3,0.7,0.7
		C227.6,220.3,227.2,220.7,226.8,220.7z"/>
	<path class="st0" d="M220.8,220.7H217c-0.4,0-0.7-0.3-0.7-0.7s0.3-0.7,0.7-0.7h3.8c0.4,0,0.7,0.3,0.7,0.7
		C221.6,220.3,221.2,220.7,220.8,220.7z"/>
	<path class="st0" d="M214.8,220.7H211c-0.4,0-0.7-0.3-0.7-0.7s0.3-0.7,0.7-0.7h3.8c0.4,0,0.7,0.3,0.7,0.7
		C215.6,220.3,215.2,220.7,214.8,220.7z"/>
	<path class="st0" d="M208.8,220.7H205c-0.4,0-0.7-0.3-0.7-0.7s0.3-0.7,0.7-0.7h3.8c0.4,0,0.7,0.3,0.7,0.7
		C209.6,220.3,209.2,220.7,208.8,220.7z"/>
	<path class="st0" d="M202.8,220.7H199c-0.4,0-0.7-0.3-0.7-0.7s0.3-0.7,0.7-0.7h3.8c0.4,0,0.7,0.3,0.7,0.7
		C203.6,220.3,203.2,220.7,202.8,220.7z"/>
	<path class="st0" d="M196.8,220.7H193c-0.4,0-0.7-0.3-0.7-0.7s0.3-0.7,0.7-0.7h3.8c0.4,0,0.7,0.3,0.7,0.7
		C197.6,220.3,197.2,220.7,196.8,220.7z"/>
	<path class="st0" d="M190.8,220.7H187c-0.4,0-0.7-0.3-0.7-0.7s0.3-0.7,0.7-0.7h3.8c0.4,0,0.7,0.3,0.7,0.7
		C191.6,220.3,191.2,220.7,190.8,220.7z"/>
	<g>
		<path class="st4" d="M35.4,26.9h195.8c30,0,54.4,18.7,54.4,41.6v425.1H89.8c-30,0-54.4-18.7-54.4-41.6"/>
		
			<linearGradient id="SVGID_00000067925067153123992390000000446054347711867546_" gradientUnits="userSpaceOnUse" x1="35.4" y1="263.75" x2="285.6" y2="263.75" gradientTransform="matrix(1 0 0 -1 0 524)">
			<stop  offset="0" style="stop-color:#01687D"/>
			<stop  offset="1" style="stop-color:#45C0C8"/>
		</linearGradient>
		<path style="fill:url(#SVGID_00000067925067153123992390000000446054347711867546_);" d="M35.4,26.9h195.8
			c30,0,54.4,18.7,54.4,41.6v425.1H89.8c-30,0-54.4-18.7-54.4-41.6"/>
		
			<linearGradient id="SVGID_00000129917837610904530800000014202483737920630677_" gradientUnits="userSpaceOnUse" x1="39.3" y1="263.75" x2="281.7" y2="263.75" gradientTransform="matrix(1 0 0 -1 0 524)">
			<stop  offset="0" style="stop-color:#45C0C8"/>
			<stop  offset="1" style="stop-color:#01687D"/>
		</linearGradient>
		<path style="fill:url(#SVGID_00000129917837610904530800000014202483737920630677_);" d="M39.3,452c0,21.2,22.7,38.6,50.5,38.6
			h28.6h112.8h50.5V452V118.7V68.5c0-21.2-22.7-38.6-50.5-38.6H216H89.8H39.3"/>
		<g>
			<g>
				<path class="st4" d="M89.4,473.2c-14.9,0-26.9-9.2-26.9-20.6V48.5h168.2c14.9,0,26.9,9.2,26.9,20.6v404.1H89.4z"/>
			</g>
			<g>
				
					<linearGradient id="SVGID_00000131360657448938915390000011390085105855921557_" gradientUnits="userSpaceOnUse" x1="61.2" y1="504.85" x2="258.9" y2="504.85" gradientTransform="matrix(1 0 0 1 0 -244)">
					<stop  offset="0" style="stop-color:#E6E6E6"/>
					<stop  offset="0.1907" style="stop-color:#EEEEEE"/>
					<stop  offset="0.6022" style="stop-color:#FBFBFB"/>
					<stop  offset="1" style="stop-color:#FFFFFF"/>
				</linearGradient>
				<path style="fill:url(#SVGID_00000131360657448938915390000011390085105855921557_);" d="M89.4,474.2
					c-15.6,0-28.2-9.7-28.2-21.6V47.5h169.5c15.6,0,28.2,9.7,28.2,21.6v405.1H89.4z"/>
				
					<linearGradient id="SVGID_00000072985209092420564470000004942039636693596045_" gradientUnits="userSpaceOnUse" x1="61.3" y1="504.85" x2="258.7" y2="504.85" gradientTransform="matrix(1 0 0 1 0 -244)">
					<stop  offset="0" style="stop-color:#E7E7E7"/>
					<stop  offset="0.1181" style="stop-color:#ECECEC"/>
					<stop  offset="0.5865" style="stop-color:#F9F9F9"/>
					<stop  offset="1" style="stop-color:#FEFEFE"/>
				</linearGradient>
				<path style="fill:url(#SVGID_00000072985209092420564470000004942039636693596045_);" d="M89.4,474.1
					c-15.5,0-28.1-9.6-28.1-21.5v-405h169.3c15.5,0,28.1,9.6,28.1,21.5v405H89.4z"/>
				
					<linearGradient id="SVGID_00000116219092571053368060000009432695464857319601_" gradientUnits="userSpaceOnUse" x1="61.5" y1="504.9" x2="258.6" y2="504.9" gradientTransform="matrix(1 0 0 1 0 -244)">
					<stop  offset="0" style="stop-color:#E8E8E8"/>
					<stop  offset="1.401013e-02" style="stop-color:#E8E8E8"/>
					<stop  offset="0.5593" style="stop-color:#F8F8F8"/>
					<stop  offset="1" style="stop-color:#FDFDFD"/>
				</linearGradient>
				<path style="fill:url(#SVGID_00000116219092571053368060000009432695464857319601_);" d="M89.4,473.9
					c-15.4,0-27.9-9.6-27.9-21.3V47.8h169.2c15.4,0,27.9,9.6,27.9,21.3V474H89.4V473.9z"/>
				
					<linearGradient id="SVGID_00000168092326371803659290000017587548768547873703_" gradientUnits="userSpaceOnUse" x1="61.7" y1="504.85" x2="258.4" y2="504.85" gradientTransform="matrix(1 0 0 1 0 -244)">
					<stop  offset="0" style="stop-color:#EAEAEA"/>
					<stop  offset="0.4805" style="stop-color:#F5F5F5"/>
					<stop  offset="1" style="stop-color:#FBFBFB"/>
				</linearGradient>
				<path style="fill:url(#SVGID_00000168092326371803659290000017587548768547873703_);" d="M89.4,473.8
					c-15.3,0-27.7-9.5-27.7-21.2V47.9h169c15.3,0,27.7,9.5,27.7,21.2v404.7L89.4,473.8L89.4,473.8z"/>
				
					<linearGradient id="SVGID_00000023986602039571486520000009651413616830074026_" gradientUnits="userSpaceOnUse" x1="61.9" y1="504.9" x2="258.2" y2="504.9" gradientTransform="matrix(1 0 0 1 0 -244)">
					<stop  offset="0" style="stop-color:#EBEBEB"/>
					<stop  offset="0.3984" style="stop-color:#F3F3F3"/>
					<stop  offset="1" style="stop-color:#FAFAFA"/>
				</linearGradient>
				<path style="fill:url(#SVGID_00000023986602039571486520000009651413616830074026_);" d="M89.4,473.7c-15.2,0-27.5-9.4-27.5-21
					V48.1h168.8c15.2,0,27.5,9.4,27.5,21v404.6H89.4z"/>
				
					<linearGradient id="SVGID_00000178895032285450223910000012985907979155852440_" gradientUnits="userSpaceOnUse" x1="62.1" y1="504.85" x2="258" y2="504.85" gradientTransform="matrix(1 0 0 1 0 -244)">
					<stop  offset="0" style="stop-color:#ECECEC"/>
					<stop  offset="0.2649" style="stop-color:#F0F0F0"/>
					<stop  offset="1" style="stop-color:#F9F9F9"/>
				</linearGradient>
				<path style="fill:url(#SVGID_00000178895032285450223910000012985907979155852440_);" d="M89.4,473.5
					c-15.1,0-27.3-9.4-27.3-20.9V48.2h168.6c15.1,0,27.3,9.4,27.3,20.9v404.4H89.4z"/>
				
					<linearGradient id="SVGID_00000035505131717615717380000010497747681041733310_" gradientUnits="userSpaceOnUse" x1="62.3" y1="504.85" x2="257.8" y2="504.85" gradientTransform="matrix(1 0 0 1 0 -244)">
					<stop  offset="0" style="stop-color:#EDEDED"/>
					<stop  offset="3.415388e-02" style="stop-color:#EDEDED"/>
					<stop  offset="1" style="stop-color:#F8F8F8"/>
				</linearGradient>
				<path style="fill:url(#SVGID_00000035505131717615717380000010497747681041733310_);" d="M89.4,473.4c-15,0-27.1-9.3-27.1-20.8
					V48.3h168.4c15,0,27.1,9.3,27.1,20.8v404.3H89.4z"/>
				
					<linearGradient id="SVGID_00000163794237830375207380000009442224248465601205_" gradientUnits="userSpaceOnUse" x1="62.5" y1="504.85" x2="257.6" y2="504.85" gradientTransform="matrix(1 0 0 1 0 -244)">
					<stop  offset="0" style="stop-color:#EEEEEE"/>
					<stop  offset="1" style="stop-color:#F7F7F7"/>
				</linearGradient>
				<path style="fill:url(#SVGID_00000163794237830375207380000009442224248465601205_);" d="M89.4,473.2
					c-14.9,0-26.9-9.2-26.9-20.6V48.5h168.2c14.9,0,26.9,9.2,26.9,20.6v404.1H89.4z"/>
				
					<linearGradient id="SVGID_00000026127220020446778090000015211161389514410143_" gradientUnits="userSpaceOnUse" x1="62.7" y1="504.85" x2="257.4" y2="504.85" gradientTransform="matrix(1 0 0 1 0 -244)">
					<stop  offset="0" style="stop-color:#F0F0F0"/>
					<stop  offset="1" style="stop-color:#F5F5F5"/>
				</linearGradient>
				<path style="fill:url(#SVGID_00000026127220020446778090000015211161389514410143_);" d="M89.4,473.1
					c-14.7,0-26.7-9.2-26.7-20.5v-404h168c14.7,0,26.7,9.2,26.7,20.5v404H89.4z"/>
				
					<linearGradient id="SVGID_00000106117324534197420850000002876027349361127044_" gradientUnits="userSpaceOnUse" x1="62.8" y1="504.9" x2="257.2" y2="504.9" gradientTransform="matrix(1 0 0 1 0 -244)">
					<stop  offset="0" style="stop-color:#F1F1F1"/>
					<stop  offset="1" style="stop-color:#F4F4F4"/>
				</linearGradient>
				<path style="fill:url(#SVGID_00000106117324534197420850000002876027349361127044_);" d="M89.4,472.9
					c-14.6,0-26.6-9.1-26.6-20.3V48.8h167.8c14.6,0,26.6,9.1,26.6,20.3V473H89.4V472.9z"/>
				
					<linearGradient id="SVGID_00000075843873014731180420000016698433507004373664_" gradientUnits="userSpaceOnUse" x1="63" y1="504.85" x2="257.1" y2="504.85" gradientTransform="matrix(1 0 0 1 0 -244)">
					<stop  offset="0" style="stop-color:#F2F2F2"/>
					<stop  offset="1" style="stop-color:#F3F3F3"/>
				</linearGradient>
				<path style="fill:url(#SVGID_00000075843873014731180420000016698433507004373664_);" d="M89.4,472.8
					c-14.5,0-26.4-9.1-26.4-20.2V48.9h167.7c14.5,0,26.4,9.1,26.4,20.2v403.7L89.4,472.8L89.4,472.8z"/>
				
					<linearGradient id="SVGID_00000091731451391824308900000012257932753074094270_" gradientUnits="userSpaceOnUse" x1="63.2" y1="504.9" x2="256.9" y2="504.9" gradientTransform="matrix(1 0 0 1 0 -244)">
					<stop  offset="0" style="stop-color:#F3F3F3"/>
					<stop  offset="1" style="stop-color:#F2F2F2"/>
				</linearGradient>
				<path style="fill:url(#SVGID_00000091731451391824308900000012257932753074094270_);" d="M89.4,472.7c-14.4,0-26.2-9-26.2-20
					V49.1h167.5c14.4,0,26.2,9,26.2,20v403.6H89.4z"/>
				
					<linearGradient id="SVGID_00000171714233330570466150000002840420581746623623_" gradientUnits="userSpaceOnUse" x1="63.4" y1="504.85" x2="256.7" y2="504.85" gradientTransform="matrix(1 0 0 1 0 -244)">
					<stop  offset="0" style="stop-color:#F4F4F4"/>
					<stop  offset="1" style="stop-color:#F1F1F1"/>
				</linearGradient>
				<path style="fill:url(#SVGID_00000171714233330570466150000002840420581746623623_);" d="M89.4,472.5c-14.3,0-26-8.9-26-19.9
					V49.2h167.3c14.3,0,26,8.9,26,19.9v403.4H89.4z"/>
				
					<linearGradient id="SVGID_00000036234770152973741350000011698203678637065607_" gradientUnits="userSpaceOnUse" x1="63.6" y1="504.85" x2="256.5" y2="504.85" gradientTransform="matrix(1 0 0 1 0 -244)">
					<stop  offset="0" style="stop-color:#F5F5F5"/>
					<stop  offset="1" style="stop-color:#F0F0F0"/>
				</linearGradient>
				<path style="fill:url(#SVGID_00000036234770152973741350000011698203678637065607_);" d="M89.4,472.4
					c-14.2,0-25.8-8.9-25.8-19.8V49.3h167.1c14.2,0,25.8,8.9,25.8,19.8v403.3H89.4z"/>
				
					<linearGradient id="SVGID_00000070814569617048361990000015321431346966374564_" gradientUnits="userSpaceOnUse" x1="63.8" y1="504.85" x2="256.3" y2="504.85" gradientTransform="matrix(1 0 0 1 0 -244)">
					<stop  offset="0" style="stop-color:#F7F7F7"/>
					<stop  offset="1" style="stop-color:#EEEEEE"/>
				</linearGradient>
				<path style="fill:url(#SVGID_00000070814569617048361990000015321431346966374564_);" d="M89.4,472.2
					c-14.1,0-25.6-8.8-25.6-19.6V49.5h166.9c14.1,0,25.6,8.8,25.6,19.6v403.1H89.4z"/>
				
					<linearGradient id="SVGID_00000010309290317460468680000008690944129478610058_" gradientUnits="userSpaceOnUse" x1="64" y1="504.85" x2="256.1" y2="504.85" gradientTransform="matrix(1 0 0 1 0 -244)">
					<stop  offset="0" style="stop-color:#F8F8F8"/>
					<stop  offset="0.9658" style="stop-color:#EDEDED"/>
					<stop  offset="1" style="stop-color:#EDEDED"/>
				</linearGradient>
				<path style="fill:url(#SVGID_00000010309290317460468680000008690944129478610058_);" d="M89.4,472.1c-14,0-25.4-8.7-25.4-19.5
					v-403h166.7c14,0,25.4,8.7,25.4,19.5v403H89.4z"/>
				
					<linearGradient id="SVGID_00000046327401251551085800000001949590574228406682_" gradientUnits="userSpaceOnUse" x1="64.1" y1="504.9" x2="255.9" y2="504.9" gradientTransform="matrix(1 0 0 1 0 -244)">
					<stop  offset="0" style="stop-color:#F9F9F9"/>
					<stop  offset="0.7351" style="stop-color:#F0F0F0"/>
					<stop  offset="1" style="stop-color:#ECECEC"/>
				</linearGradient>
				<path style="fill:url(#SVGID_00000046327401251551085800000001949590574228406682_);" d="M89.4,471.9
					c-13.9,0-25.3-8.7-25.3-19.3V49.8h166.5c13.9,0,25.3,8.7,25.3,19.3V472H89.4V471.9z"/>
				
					<linearGradient id="SVGID_00000132066197867482478630000000553069947857692839_" gradientUnits="userSpaceOnUse" x1="64.3" y1="504.85" x2="255.8" y2="504.85" gradientTransform="matrix(1 0 0 1 0 -244)">
					<stop  offset="0" style="stop-color:#FAFAFA"/>
					<stop  offset="0.6016" style="stop-color:#F3F3F3"/>
					<stop  offset="1" style="stop-color:#EBEBEB"/>
				</linearGradient>
				<path style="fill:url(#SVGID_00000132066197867482478630000000553069947857692839_);" d="M89.4,471.8
					c-13.8,0-25.1-8.6-25.1-19.2V49.9h166.4c13.8,0,25.1,8.6,25.1,19.2v402.7L89.4,471.8L89.4,471.8z"/>
				
					<linearGradient id="SVGID_00000155128700755700902920000008969134366425857428_" gradientUnits="userSpaceOnUse" x1="64.5" y1="504.9" x2="255.6" y2="504.9" gradientTransform="matrix(1 0 0 1 0 -244)">
					<stop  offset="0" style="stop-color:#FBFBFB"/>
					<stop  offset="0.5195" style="stop-color:#F5F5F5"/>
					<stop  offset="1" style="stop-color:#EAEAEA"/>
				</linearGradient>
				<path style="fill:url(#SVGID_00000155128700755700902920000008969134366425857428_);" d="M89.4,471.7c-13.7,0-24.9-8.5-24.9-19
					V50.1h166.2c13.7,0,24.9,8.5,24.9,19v402.6H89.4z"/>
				
					<linearGradient id="SVGID_00000010278059485834269110000010114224487896431492_" gradientUnits="userSpaceOnUse" x1="64.7" y1="504.85" x2="255.4" y2="504.85" gradientTransform="matrix(1 0 0 1 0 -244)">
					<stop  offset="0" style="stop-color:#FDFDFD"/>
					<stop  offset="0.4407" style="stop-color:#F8F8F8"/>
					<stop  offset="0.986" style="stop-color:#E8E8E8"/>
					<stop  offset="1" style="stop-color:#E8E8E8"/>
				</linearGradient>
				<path style="fill:url(#SVGID_00000010278059485834269110000010114224487896431492_);" d="M89.4,471.5
					c-13.6,0-24.7-8.5-24.7-18.9V50.2h166c13.6,0,24.7,8.5,24.7,18.9v402.4H89.4z"/>
				
					<linearGradient id="SVGID_00000032614001379192868050000011557268823999464632_" gradientUnits="userSpaceOnUse" x1="64.9" y1="504.85" x2="255.2" y2="504.85" gradientTransform="matrix(1 0 0 1 0 -244)">
					<stop  offset="0" style="stop-color:#FEFEFE"/>
					<stop  offset="0.4135" style="stop-color:#F9F9F9"/>
					<stop  offset="0.8819" style="stop-color:#ECECEC"/>
					<stop  offset="1" style="stop-color:#E7E7E7"/>
				</linearGradient>
				<path style="fill:url(#SVGID_00000032614001379192868050000011557268823999464632_);" d="M89.4,471.4
					c-13.5,0-24.5-8.4-24.5-18.8V50.3h165.8c13.5,0,24.5,8.4,24.5,18.8v402.3H89.4z"/>
				
					<linearGradient id="SVGID_00000179638726307505720670000017190908613408966580_" gradientUnits="userSpaceOnUse" x1="65.1" y1="504.85" x2="255" y2="504.85" gradientTransform="matrix(1 0 0 1 0 -244)">
					<stop  offset="0" style="stop-color:#FFFFFF"/>
					<stop  offset="0.3978" style="stop-color:#FBFBFB"/>
					<stop  offset="0.8093" style="stop-color:#EEEEEE"/>
					<stop  offset="1" style="stop-color:#E6E6E6"/>
				</linearGradient>
				<path style="fill:url(#SVGID_00000179638726307505720670000017190908613408966580_);" d="M89.4,471.2
					c-13.4,0-24.3-8.3-24.3-18.6V50.5h165.6c13.4,0,24.3,8.3,24.3,18.6v402.1H89.4z"/>
			</g>
		</g>
	</g>
	<g>
		<path class="st29" d="M145.3,420.5v-0.1c0,0.1-0.1,0.2-0.1,0.2h0.1l0,0l0,0C145.2,420.6,145.3,420.6,145.3,420.5z"/>
		<path class="st29" d="M145.1,421L145.1,421c0,0,0-0.1,0-0.2l0,0C145.1,420.8,145,420.9,145.1,421L145.1,421z"/>
		<path class="st29" d="M173,415.4c0,0,0,0,0.2,0c0,0,0,0,0-0.1l0,0l-0.1-0.1l-0.1-0.1c0,0-0.1,0-0.1-0.1c0,0-0.1,0-0.1-0.1
			c-0.1,0-0.1-0.1-0.1-0.1h-0.1v-0.1l0,0c0,0,0,0-0.1,0l0,0l0,0c0.1,0.1,0.1,0.2,0.3,0.3h0.1v0.1l0,0l0,0c0,0,0,0,0.1,0
			c0,0,0,0,0.1,0c0,0,0,0,0.1,0h0.1L173,415.4L173,415.4z"/>
	</g>
	
		<radialGradient id="SVGID_00000109736257204974367010000013042086743850108821_" cx="-1503.0009" cy="-4100.2383" r="59.7052" gradientTransform="matrix(-1.2807 -4.824783e-03 -2.311418e-05 -4.022360e-02 -1766.9879 -34.1335)" gradientUnits="userSpaceOnUse">
		<stop  offset="0" style="stop-color:#000000"/>
		<stop  offset="0.1205" style="stop-color:#040404"/>
		<stop  offset="0.2454" style="stop-color:#111111"/>
		<stop  offset="0.3724" style="stop-color:#252525"/>
		<stop  offset="0.5008" style="stop-color:#434343"/>
		<stop  offset="0.6304" style="stop-color:#686868"/>
		<stop  offset="0.761" style="stop-color:#969696"/>
		<stop  offset="0.8898" style="stop-color:#CBCBCB"/>
		<stop  offset="1" style="stop-color:#FFFFFF"/>
	</radialGradient>
	<path style="opacity:0.7;fill:url(#SVGID_00000109736257204974367010000013042086743850108821_);enable-background:new    ;" d="
		M81.6,137.7c0,1.3,34.2,2.5,76.4,2.7c42.2,0.2,76.4-0.8,76.4-2.1s-34.2-2.5-76.4-2.7C115.8,135.5,81.6,136.4,81.6,137.7z"/>
	
		<radialGradient id="SVGID_00000103240788683651817700000008859772687001400208_" cx="-1504.3641" cy="-9218.5166" r="59.7072" gradientTransform="matrix(-1.2807 -4.564652e-03 -9.861161e-05 -4.737747e-02 -1767.5481 21.869)" gradientUnits="userSpaceOnUse">
		<stop  offset="0" style="stop-color:#000000"/>
		<stop  offset="0.1205" style="stop-color:#040404"/>
		<stop  offset="0.2454" style="stop-color:#111111"/>
		<stop  offset="0.3724" style="stop-color:#252525"/>
		<stop  offset="0.5008" style="stop-color:#434343"/>
		<stop  offset="0.6304" style="stop-color:#686868"/>
		<stop  offset="0.761" style="stop-color:#969696"/>
		<stop  offset="0.8898" style="stop-color:#CBCBCB"/>
		<stop  offset="1" style="stop-color:#FFFFFF"/>
	</radialGradient>
	<path style="opacity:0.7;fill:url(#SVGID_00000103240788683651817700000008859772687001400208_);enable-background:new    ;" d="
		M83.6,465.2c0,1.6,34.2,3,76.4,3.1c42.2,0.1,76.4-1,76.4-2.6c0-1.6-34.2-3-76.4-3.1C117.8,462.5,83.6,463.6,83.6,465.2z"/>
	<path class="st32" d="M10.8,41.8h195.8c30,0,54.4,18.7,54.4,41.6v425.1H65.2c-30,0-54.4-18.7-54.4-41.6"/>
	<g>
		<path d="M73.8,160l2.4-0.3h0.5l2.1,0.3v1h-5V160z M73.9,146.8h2.9v1.3h-0.3l-2.6-0.3V146.8z M75.8,146.8h1.1l0.2,6.9v7.3h-1.2
			L75.8,146.8L75.8,146.8z M75.9,146.8h2.8l4.5,11.6h-0.7l4.3-11.6H88L82.8,161h-1.3L75.9,146.8z M85.3,160l2.6-0.3h0.7l2.9,0.3v1
			h-6.3v-1H85.3z M87,154.6v-7.8h2.8c-0.1,2.2-0.1,4.4-0.1,6.6v0.9c0,2.2,0,4.4,0.1,6.6h-2.9C87,158.8,87,156.6,87,154.6z
			 M88.3,146.8h3.2v1l-2.9,0.3h-0.3C88.3,148.1,88.3,146.8,88.3,146.8z"/>
		<path d="M96.6,155.2c0.9-0.3,2.3-0.7,3.4-0.9v0.8c-1,0.2-2.2,0.6-2.8,0.9c-1.4,0.6-1.9,1.3-1.9,2.2c0,1.1,0.7,1.6,1.5,1.6
			c0.6,0,1-0.2,2-0.9l0.6-0.5l0.3,0.4l-0.8,0.8c-1.2,1.2-1.8,1.8-3.3,1.8c-1.6,0-2.8-0.9-2.8-2.7C92.8,157.2,93.5,156.2,96.6,155.2z
			 M98.6,159.1V154c0-2-0.5-2.5-1.9-2.5c-0.5,0-1.1,0.1-2,0.3l1.2-0.7l-0.4,1.7c-0.1,1-0.6,1.5-1.3,1.5c-0.7,0-1.1-0.3-1.2-1
			c0.3-1.7,1.9-2.8,4.5-2.8c2.5,0,3.5,1.1,3.5,3.9v4.7c0,0.7,0.2,1,0.6,1c0.3,0,0.5-0.2,0.7-0.5l0.5,0.4c-0.5,1-1.2,1.4-2.2,1.4
			C99.5,161.2,98.7,160.4,98.6,159.1z"/>
		<path d="M103.9,160.4v-2.5h1.4l0.5,2.7l-1.1-0.5v-0.8c0.8,0.6,1.6,0.9,2.6,0.9c1.4,0,2.2-0.5,2.2-1.4c0-0.8-0.5-1.2-1.9-1.7
			l-1.1-0.3c-1.6-0.5-2.6-1.5-2.6-3c0-1.8,1.4-3.2,4.1-3.2c1.2,0,2.2,0.3,3.2,0.9l-0.1,2.2h-1.4l-0.5-2.4l1,0.4v0.7
			c-0.7-0.5-1.3-0.7-2.2-0.7c-1.1,0-1.8,0.5-1.8,1.3s0.4,1.2,1.9,1.6l0.8,0.3c2.1,0.7,2.9,1.8,2.9,3.2c0,1.9-1.6,3.3-4.5,3.3
			C106,161.3,105,161,103.9,160.4z"/>
		<path d="M113.4,160.4v-2.5h1.4l0.5,2.7l-1.1-0.5v-0.8c0.8,0.6,1.6,0.9,2.6,0.9c1.4,0,2.2-0.5,2.2-1.4c0-0.8-0.5-1.2-1.9-1.7
			l-1.1-0.3c-1.6-0.5-2.6-1.5-2.6-3c0-1.8,1.4-3.2,4.1-3.2c1.2,0,2.2,0.3,3.2,0.9l-0.1,2.2h-1.4l-0.5-2.4l1,0.4v0.7
			c-0.7-0.5-1.3-0.7-2.2-0.7c-1.1,0-1.8,0.5-1.8,1.3s0.4,1.2,1.9,1.6l0.8,0.3c2.1,0.7,2.9,1.8,2.9,3.2c0,1.9-1.6,3.3-4.5,3.3
			C115.5,161.3,114.4,161,113.4,160.4z"/>
		<path d="M126.9,160l2.2-0.3h0.4l2.2,0.3v1H127L126.9,160L126.9,160z M133.1,146.8h1.7l4.8,14.2h-2.8l-4-12.1l0.6-0.5l-4.2,12.6
			h-1.1L133.1,146.8z M130.7,155.5h5.8l0.4,1.1h-6.5L130.7,155.5z M134.6,160l2.5-0.3h0.9l2.7,0.3v1h-6.2v-1H134.6z"/>
		<path d="M146.7,159.7c1.1,0,1.8-0.6,2.6-1.8l0.2,0.5c-0.9,1.9-2.1,2.8-3.9,2.8c-2.5,0-4.3-2-4.3-5.3c0-3.4,2.1-5.5,4.6-5.5
			c1.5,0,2.5,0.8,3.5,2.5l-0.2,0.5c-1-1.1-1.8-1.5-2.6-1.5c-1.4,0-2.6,1.2-2.6,4C144.1,158.5,145.2,159.7,146.7,159.7z M152.5,160.1
			v0.9l-3.7,0.2l-0.2-2v-6.7l0.1-0.3v-4.9l-1.7-0.2v-0.8l3.9-1l0.3,0.2l-0.1,3V161l-0.9-1.3L152.5,160.1z"/>
		<path d="M153.7,155.9c0-3.4,2.4-5.4,5.1-5.4c2.7,0,5.1,2,5.1,5.4s-2.3,5.4-5.1,5.4C155.9,161.3,153.7,159.3,153.7,155.9z
			 M161.2,155.9c0-2.9-0.8-4.4-2.4-4.4c-1.5,0-2.4,1.4-2.4,4.4s0.8,4.3,2.4,4.3S161.2,158.8,161.2,155.9z"/>
		<path d="M166.7,155.4c0-1.2,0-1.7-0.1-2.6l-1.5-0.2v-0.8l3.5-1.3l0.3,0.2l0.2,1.7l0.1,0.2v6.7l-0.1,0.2v1.8c0,1.4,0,3,0.1,4.7
			h-2.6c0-1.7,0.1-3.2,0.1-4.6V155.4z M171,165.1v0.9h-5.7v-0.9l2.2-0.4h1.3L171,165.1z M171.3,152c-1,0-2,0.8-3.1,1.9l-0.2-0.4
			c1.2-2.1,2.6-3,4.3-3c2.3,0,4.1,1.9,4.1,5.4c0,3.4-2,5.5-4.5,5.5c-1.6,0-2.8-0.8-3.9-3.1l0.2-0.4c1,1.3,1.8,1.9,2.9,1.9
			c1.4,0,2.5-1.2,2.5-3.8C173.8,153.3,172.8,152,171.3,152z"/>
		<path d="M182.6,159.9c0.4,0,0.8-0.2,1.3-0.5l0.5,0.5c-0.5,0.9-1.5,1.4-2.8,1.4c-1.7,0-2.7-0.8-2.7-2.7c0-0.6,0-1.1,0-2V152h-1.6
			v-1l2.6-0.3l-1,0.8l1-3.6h1.7l-0.1,3.8v6.7C181.5,159.4,182,159.9,182.6,159.9z M184.1,150.8v1.3h-3.9v-1.3H184.1z"/>
		<path d="M186.4,161c0-1,0.1-3.2,0.1-4.5v-1c0-1.2,0-1.8-0.1-2.7l-1.5-0.2v-0.8l3.9-1.3l0.3,0.2l-0.1,3v2.8c0,1.3,0,3.5,0.1,4.5
			H186.4z M190.4,160.1v0.9h-5.3v-0.9l2.2-0.4h1L190.4,160.1z M186.1,146.9c0-0.9,0.7-1.5,1.6-1.5s1.6,0.6,1.6,1.5s-0.7,1.5-1.6,1.5
			S186.1,147.8,186.1,146.9z"/>
		<path d="M191.7,155.9c0-3.4,2.4-5.4,5.1-5.4c2.7,0,5.1,2,5.1,5.4s-2.3,5.4-5.1,5.4C194,161.3,191.7,159.3,191.7,155.9z
			 M199.2,155.9c0-2.9-0.8-4.4-2.4-4.4c-1.5,0-2.4,1.4-2.4,4.4s0.8,4.3,2.4,4.3S199.2,158.8,199.2,155.9z"/>
		<path d="M204.9,161c0-1,0.1-3.2,0.1-4.5v-1.1c0-1.2,0-1.7-0.1-2.6l-1.5-0.2v-0.8l3.6-1.3l0.3,0.2l0.2,2.4v3.4c0,1.3,0,3.5,0.1,4.5
			L204.9,161L204.9,161z M208.8,160.1v0.9h-5.3v-0.9l2.2-0.4h1L208.8,160.1z M214,154.3v2.2c0,1.4,0,3.5,0.1,4.5h-2.7
			c0-1,0.1-3.1,0.1-4.5v-2c0-1.7-0.4-2.2-1.5-2.2c-0.9,0-1.9,0.5-2.9,1.5h-0.6v-1.2h1.3l-0.9,0.5c1.3-1.8,2.7-2.6,4.2-2.6
			C212.9,150.5,214,151.6,214,154.3z M213.2,159.7l2.1,0.4v0.9H210v-0.9l2.1-0.4H213.2z"/>
		<path d="M87.4,175.2c0,4.8-3.2,7.4-6.6,7.4s-6.6-2.5-6.6-7.4c0-4.8,3.3-7.4,6.6-7.4S87.4,170.3,87.4,175.2z M80.7,181.5
			c2.6,0,3.6-2.9,3.6-6.3c0-3.4-1-6.3-3.6-6.3s-3.6,2.9-3.6,6.3S78.2,181.5,80.7,181.5z"/>
		<path d="M90.3,173.4h-1.6v-1.1l2.5-0.3l-0.9,0.5c0.2-2.5,0.8-3.7,1.7-4.6c1-1,2.2-1.4,3.3-1.4c1.1,0,2.1,0.4,2.3,1.3
			c0,0.7-0.5,1.2-1.4,1.2c-0.6,0-1.2-0.3-1.7-1.1l-0.8-0.8l1.9-0.4l0.4,0.6c-0.2-0.1-0.5-0.3-0.8-0.3c-0.7,0-1.3,0.5-1.7,1.1
			c-0.6,0.9-0.8,2.4-0.6,4.9v4.8c0,1.5,0,3,0.1,4.5h-2.7c0-1.5,0.1-3,0.1-4.5v-4.4H90.3z M94.7,181.4v0.9h-5.9v-0.9l2.3-0.4h1.3
			L94.7,181.4z M95.5,172.1v1.3h-3.9v-1.3H95.5z"/>
		<path d="M101.4,169.1v-1h3.2v1.3h-0.3L101.4,169.1z M104.6,181v1.3h-3.2v-1l2.9-0.3H104.6z M103.2,174.7c0-2.2,0-4.4-0.1-6.6h2.9
			c-0.1,2.2-0.1,4.4-0.1,6.6v0.8c0,2.4,0,4.6,0.1,6.8h-2.9c0.1-2.2,0.1-4.4,0.1-6.6V174.7z M110.1,168.1l1.3,1.1h-6.8v-1.1h7.5
			l0.1,3.7h-1.5L110.1,168.1z M109.3,175.6h-4.8v-1.1h4.8V175.6z M112.7,178.5l-0.1,3.7h-8v-1.1h7.2l-1.3,1.1l0.6-3.7H112.7z
			 M108.6,174.7l0.3-2.1h1.1v4.8h-1l-0.3-2.3L108.6,174.7L108.6,174.7z"/>
		<path d="M116.6,176.9c0,2.6,1.3,4,3.2,4c1.1,0,2-0.5,2.7-1.4l0.6,0.5c-0.7,1.8-2.2,2.7-4.2,2.7c-2.9,0-5-2-5-5.4s2.5-5.4,5.3-5.4
			c2.1,0,3.7,1.3,3.9,2.9c-0.2,0.7-0.6,1-1.2,1c-0.8,0-1.3-0.5-1.4-1.5l-0.4-1.7l1.3,0.8c-0.7-0.3-1.3-0.5-2-0.5
			C118,172.8,116.6,174.1,116.6,176.9z"/>
		<path d="M124.6,177.2c0-3.4,2.4-5.4,5.1-5.4s5.1,2,5.1,5.4s-2.3,5.4-5.1,5.4C126.8,182.6,124.6,180.6,124.6,177.2z M132.1,177.2
			c0-2.9-0.8-4.4-2.4-4.4c-1.5,0-2.4,1.4-2.4,4.4s0.8,4.3,2.4,4.3C131.2,181.5,132.1,180.1,132.1,177.2z"/>
		<path d="M136.5,181.7v-2.5h1.4l0.5,2.7l-1.1-0.5v-0.8c0.8,0.6,1.6,0.9,2.6,0.9c1.4,0,2.2-0.5,2.2-1.4c0-0.8-0.5-1.2-1.9-1.7
			l-1.1-0.3c-1.6-0.5-2.6-1.5-2.6-3c0-1.8,1.4-3.2,4.1-3.2c1.2,0,2.2,0.3,3.2,0.9l-0.1,2.2h-1.4l-0.5-2.4l1,0.4v0.7
			c-0.7-0.5-1.3-0.7-2.2-0.7c-1.1,0-1.8,0.5-1.8,1.3s0.4,1.2,1.9,1.6l0.8,0.3c2.1,0.7,2.9,1.8,2.9,3.2c0,1.9-1.6,3.3-4.5,3.3
			C138.7,182.6,137.6,182.3,136.5,181.7z"/>
		<path d="M145,186c0.2-0.8,0.8-1.1,1.6-1.1c0.6,0,1.1,0.2,1.7,0.9l0.7,0.8l-0.8,0.4l-0.6-0.4c1.2-0.7,2.1-2,2.6-3.4l0.9-2.6l3-8.5
			h1.3l-4.1,10.6c-1.2,3.3-2.3,4.8-4.2,4.8C146,187.5,145.1,186.8,145,186z M147,173.2l-2-0.3v-0.8h5.6v0.8l-2.2,0.3H147z
			 M150.4,183.5l-4.7-11.4h2.8l3.1,8.5L150.4,183.5z M154,173.2l-2-0.3v-0.8h4.1v0.8l-1.7,0.3H154z"/>
		<path d="M156.7,181.7v-2.5h1.4l0.5,2.7l-1.1-0.5v-0.8c0.8,0.6,1.6,0.9,2.6,0.9c1.4,0,2.2-0.5,2.2-1.4c0-0.8-0.5-1.2-1.9-1.7
			l-1.1-0.3c-1.6-0.5-2.6-1.5-2.6-3c0-1.8,1.4-3.2,4.1-3.2c1.2,0,2.2,0.3,3.2,0.9l-0.1,2.2h-1.4l-0.5-2.4l1,0.4v0.7
			c-0.7-0.5-1.3-0.7-2.2-0.7c-1.1,0-1.8,0.5-1.8,1.3s0.4,1.2,1.9,1.6l0.8,0.3c2.1,0.7,2.9,1.8,2.9,3.2c0,1.9-1.6,3.3-4.5,3.3
			C158.9,182.6,157.8,182.3,156.7,181.7z"/>
		<path d="M170.8,181.2c0.4,0,0.8-0.2,1.3-0.5l0.5,0.5c-0.5,0.9-1.5,1.4-2.8,1.4c-1.7,0-2.7-0.8-2.7-2.7c0-0.6,0-1.1,0-2v-4.6h-1.6
			v-1.1l2.6-0.3l-1,0.8l1-3.6h1.7l-0.1,3.8v6.7C169.7,180.7,170.1,181.2,170.8,181.2z M172.3,172.1v1.3h-3.9v-1.3H172.3z"/>
		<path d="M182.7,176.1c0,0.5,0,0.9-0.1,1.2h-8.1v-1h4.5c1,0,1.3-0.4,1.3-1.2c0-1.3-0.8-2.2-1.9-2.2c-1.1,0-2.3,1.1-2.3,4.1
			c0,2.7,1.3,4,3.2,4c1.3,0,2.1-0.5,2.8-1.3l0.6,0.5c-0.8,1.6-2.3,2.5-4.3,2.5c-3,0-5-2-5-5.3c0-3.4,2.5-5.5,5.2-5.5
			C181,171.8,182.7,173.5,182.7,176.1z"/>
		<path d="M185.6,182.3c0-1,0.1-3.2,0.1-4.5v-1.1c0-1.2,0-1.7-0.1-2.6l-1.5-0.2v-0.8l3.6-1.3l0.3,0.2l0.2,2.4v3.4
			c0,1.3,0,3.5,0.1,4.5L185.6,182.3L185.6,182.3z M189.5,181.4v0.9h-5.3v-0.9l2.2-0.4h1L189.5,181.4z M194.6,175.6v2.2
			c0,1.4,0,3.5,0.1,4.5H192c0-1,0.1-3.1,0.1-4.5v-1.9c0-1.7-0.4-2.3-1.5-2.3c-1,0-1.9,0.6-2.8,1.5h-0.6v-1.2h1.2l-0.8,0.5
			c1.2-1.6,2.6-2.6,4.1-2.6C193.6,171.8,194.6,172.9,194.6,175.6z M193.8,181l2,0.4v0.9h-5.2v-0.9l2.1-0.4H193.8z M200.9,175.5v2.3
			c0,1.4,0,3.5,0.1,4.5h-2.7c0-1,0.1-3.1,0.1-4.5v-2c0-1.8-0.4-2.3-1.5-2.3c-0.9,0-1.8,0.5-2.8,1.5h-0.6v-1h1.3l-0.9,0.4
			c1.3-1.9,2.7-2.6,4.2-2.6C200,171.8,200.9,172.9,200.9,175.5z M200.2,181l2.1,0.4v0.9h-5.2v-0.9l2.1-0.4H200.2z"/>
		<path d="M85.1,216.1v1.1l-1.4,0.3l0.6-3.2h1.5l-0.1,3.2c-1.2,0.7-2.7,1.1-4.4,1.1c-4.2,0-7.3-2.8-7.3-7.4c0-4.7,3.3-7.4,7.4-7.4
			c1.4,0,2.8,0.3,4.1,1l0.1,3.2h-1.5l-0.6-3.3L85,205v1.2c-1.1-1-2.1-1.4-3.1-1.4c-2.6,0-4.7,2-4.7,6.3s2,6.3,4.6,6.3
			C82.8,217.4,84,217,85.1,216.1z"/>
		<path d="M87.4,205v-1h3.2v1.3h-0.3L87.4,205z M90.6,216.8v1.3h-3.2v-1l2.9-0.3H90.6z M89.2,210.6c0-2.2,0-4.4-0.1-6.6H92
			c-0.1,2.2-0.1,4.4-0.1,6.6v0.8c0,2.4,0,4.6,0.1,6.8h-2.9c0.1-2.2,0.1-4.4,0.1-6.6V210.6z M96.1,204l1.3,1.1h-6.8V204h7.5l0.1,3.7
			h-1.5L96.1,204z M95.4,211.5h-4.8v-1.1h4.8V211.5z M98.7,214.4l-0.1,3.7h-8V217h7.2l-1.3,1.1l0.6-3.7L98.7,214.4L98.7,214.4z
			 M94.7,210.6l0.3-2.1h1.1v4.8H95l-0.3-2.3V210.6z"/>
		<path d="M99.4,217.2l2.1-0.2h0.5l2.1,0.2v1h-4.7V217.2z M99.6,204h6.3v1l-2.8,0.3h-0.8l-2.7-0.3V204z M105.5,210.6l0.9,0.5l-4.4,7
			h-1.4L105.5,210.6z M100.5,204h3l8.4,14.1h-3L100.5,204z M110,204h1.4l-4.7,7.3l-0.8-0.5L110,204z M106.4,217.2l2.9-0.3h0.7
			l2.9,0.3v1h-6.5V217.2z M107.7,204h4.7v1l-2.1,0.2h-0.5l-2.1-0.2V204z"/>
		<path d="M118.7,205v-1h6.5v1l-3,0.3h-0.6L118.7,205z M121.9,216.8v1.3h-3.2v-1l2.9-0.3H121.9z M120.5,204h2.9
			c-0.1,2.2-0.1,4.4-0.1,6.6v1.3c0,1.8,0,4.1,0.1,6.2h-2.9c0.1-2.2,0.1-4.4,0.1-6.4v-1.2C120.5,208.4,120.5,206.2,120.5,204z
			 M129.8,214.1l-0.2,4.1H122V217h6.9l-1.4,1.1l0.8-4.1h1.5V214.1z"/>
		<path d="M132.5,218.2c0-1,0.1-3.2,0.1-4.5v-1c0-1.2,0-1.8-0.1-2.7l-1.5-0.2V209l3.9-1.3l0.3,0.2l-0.1,3v2.8c0,1.3,0,3.5,0.1,4.5
			H132.5z M136.4,217.3v0.9h-5.3v-0.9l2.2-0.4h1L136.4,217.3z M132.2,204.1c0-0.9,0.7-1.5,1.6-1.5c0.9,0,1.6,0.6,1.6,1.5
			s-0.7,1.5-1.6,1.5C132.9,205.7,132.2,205,132.2,204.1z"/>
		<path d="M137.9,217.6v-2.5h1.4l0.5,2.7l-1.1-0.5v-0.8c0.8,0.6,1.6,0.9,2.6,0.9c1.4,0,2.2-0.5,2.2-1.4c0-0.8-0.5-1.2-1.9-1.7
			l-1.1-0.3c-1.6-0.5-2.6-1.5-2.6-3c0-1.8,1.4-3.2,4.1-3.2c1.2,0,2.2,0.3,3.2,0.9l-0.1,2.2h-1.4l-0.5-2.4l1,0.4v0.7
			c-0.7-0.5-1.3-0.7-2.2-0.7c-1.1,0-1.8,0.5-1.8,1.3s0.4,1.2,1.9,1.6l0.8,0.3c2.1,0.7,2.9,1.8,2.9,3.2c0,1.9-1.6,3.3-4.5,3.3
			C140,218.5,138.9,218.2,137.9,217.6z"/>
		<path d="M151.9,217.1c0.4,0,0.8-0.2,1.3-0.5l0.5,0.5c-0.5,0.9-1.5,1.4-2.8,1.4c-1.7,0-2.7-0.8-2.7-2.7c0-0.6,0-1.1,0-2v-4.6h-1.6
			v-1.1l2.6-0.3l-1,0.8l1-3.6h1.7l-0.1,3.8v6.7C150.8,216.6,151.3,217.1,151.9,217.1z M153.4,208v1.3h-3.9V208H153.4z"/>
		<path d="M155.8,218.2c0-1,0.1-3.2,0.1-4.5v-1c0-1.2,0-1.8-0.1-2.7l-1.5-0.2V209l3.9-1.3l0.3,0.2l-0.1,3v2.8c0,1.3,0,3.5,0.1,4.5
			H155.8z M159.7,217.3v0.9h-5.3v-0.9l2.2-0.4h1L159.7,217.3z M155.5,204.1c0-0.9,0.7-1.5,1.6-1.5s1.6,0.6,1.6,1.5s-0.7,1.5-1.6,1.5
			S155.5,205,155.5,204.1z"/>
		<path d="M162.3,218.2c0-1,0.1-3.2,0.1-4.5v-1.1c0-1.2,0-1.7-0.1-2.6l-1.5-0.2V209l3.6-1.3l0.3,0.2l0.2,2.4v3.4
			c0,1.3,0,3.5,0.1,4.5L162.3,218.2L162.3,218.2z M166.2,217.3v0.9H161v-0.9l2.2-0.4h1L166.2,217.3z M171.4,211.5v2.2
			c0,1.4,0,3.5,0.1,4.5h-2.7c0-1,0.1-3.1,0.1-4.5v-2c0-1.7-0.4-2.2-1.5-2.2c-0.9,0-1.9,0.5-2.9,1.5h-0.6v-1.2h1.3l-0.9,0.5
			c1.3-1.8,2.7-2.6,4.2-2.6C170.4,207.7,171.4,208.8,171.4,211.5z M170.6,216.9l2.1,0.4v0.9h-5.3v-0.9l2.1-0.4H170.6z"/>
		<path d="M181.9,220.1c0-0.8-0.5-1.4-1.9-1.4h-2.4c-0.7,0-1.2-0.1-1.7-0.2v-0.1c-1.1-0.3-1.6-0.9-1.6-1.8c0-0.9,0.6-1.8,2-3
			l0.5,0.3c-0.5,0.5-0.7,1-0.7,1.5s0.3,0.9,1.2,0.9h2.6c2.8,0,3.9,1.1,3.9,2.9c0,2-2,3.8-5.7,3.8c-3.3,0-4.5-1.1-4.5-2.5
			c0-1,0.7-1.9,2.6-2.6l0.2,0.2c-0.6,0.7-0.9,1.2-0.9,2c0,1.3,1,1.9,2.8,1.9C180.8,222,181.9,221.2,181.9,220.1z M178.5,207.7
			c2.6,0,4.1,1.3,4.1,3.5c0,2.1-1.5,3.4-4.1,3.4s-4.1-1.3-4.1-3.4C174.3,209,175.8,207.7,178.5,207.7z M176.7,211.1
			c0,1.5,0.6,2.5,1.7,2.5c1.2,0,1.8-1,1.8-2.6c0-1.5-0.6-2.5-1.8-2.5C177.3,208.6,176.7,209.6,176.7,211.1z M183.9,207.6l0.3,0.2
			v1.5h-3.1v-0.6L183.9,207.6z"/>
		<path d="M185.4,217.6v-2.5h1.4l0.5,2.7l-1.1-0.5v-0.8c0.8,0.6,1.6,0.9,2.6,0.9c1.4,0,2.2-0.5,2.2-1.4c0-0.8-0.5-1.2-1.9-1.7
			L188,214c-1.6-0.5-2.6-1.5-2.6-3c0-1.8,1.4-3.2,4.1-3.2c1.2,0,2.2,0.3,3.2,0.9l-0.1,2.2h-1.4l-0.5-2.4l1,0.4v0.7
			c-0.7-0.5-1.3-0.7-2.2-0.7c-1.1,0-1.8,0.5-1.8,1.3s0.4,1.2,1.9,1.6l0.8,0.3c2.1,0.7,2.9,1.8,2.9,3.2c0,1.9-1.6,3.3-4.5,3.3
			C187.6,218.5,186.5,218.2,185.4,217.6z"/>
		<path d="M86.1,253.2c-1.5,0.8-2.9,1.2-4.8,1.2c-4.3,0-7.3-3-7.3-7.4s2.9-7.4,7.4-7.4c1.6,0,3,0.3,4.2,1l0.1,3.2h-1.5l-0.6-3.3
			l1.4,0.4v1.2c-1.1-0.9-2.1-1.3-3.3-1.3c-2.6,0-4.7,2.1-4.7,6.3c0,4.1,1.9,6.3,4.8,6.3c1.1,0,1.8-0.3,2.9-0.8l-1.3,1.2v-1.4
			c0-1.7,0-3.3-0.1-5h2.8c0,1.7-0.1,3.3-0.1,5L86.1,253.2L86.1,253.2z M81.3,248.2v-1h6v1l-2.4,0.3H84L81.3,248.2z"/>
		<path d="M92.2,248.3c0.9-0.3,2.3-0.7,3.4-0.9v0.8c-1,0.2-2.2,0.6-2.8,0.9c-1.4,0.6-1.9,1.3-1.9,2.2c0,1.1,0.7,1.6,1.5,1.6
			c0.6,0,1-0.2,2-0.9l0.6-0.5l0.3,0.4l-0.8,0.8c-1.2,1.2-1.8,1.8-3.3,1.8c-1.6,0-2.8-0.9-2.8-2.7C88.4,250.3,89.1,249.3,92.2,248.3z
			 M94.2,252.2v-5.1c0-2-0.5-2.5-1.9-2.5c-0.5,0-1.1,0.1-2,0.3l1.2-0.7l-0.4,1.7c-0.1,1-0.6,1.5-1.3,1.5c-0.7,0-1.1-0.3-1.2-1
			c0.3-1.7,1.9-2.8,4.5-2.8c2.5,0,3.5,1.1,3.5,3.9v4.7c0,0.7,0.2,1,0.6,1c0.3,0,0.5-0.2,0.7-0.5l0.5,0.4c-0.5,1-1.2,1.4-2.2,1.4
			C95.1,254.3,94.3,253.5,94.2,252.2z"/>
		<path d="M100.7,254.1c0-1,0.1-3.2,0.1-4.5v-1.1c0-1.2,0-1.7-0.1-2.6l-1.5-0.2v-0.8l3.6-1.3l0.3,0.2l0.2,2.4v3.4
			c0,1.3,0,3.5,0.1,4.5L100.7,254.1L100.7,254.1z M104.6,253.2v0.9h-5.3v-0.9l2.2-0.4h1L104.6,253.2z M109.7,247.4v2.2
			c0,1.4,0,3.5,0.1,4.5h-2.7c0-1,0.1-3.1,0.1-4.5v-1.9c0-1.7-0.4-2.3-1.5-2.3c-1,0-1.9,0.6-2.8,1.5h-0.6v-1.2h1.2l-0.8,0.5
			c1.2-1.6,2.6-2.6,4.1-2.6C108.7,243.5,109.7,244.7,109.7,247.4z M108.9,252.8l2,0.4v0.9h-5.2v-0.9l2.1-0.4H108.9z M116,247.3v2.3
			c0,1.4,0,3.5,0.1,4.5h-2.7c0-1,0.1-3.1,0.1-4.5v-2c0-1.8-0.4-2.3-1.5-2.3c-0.9,0-1.8,0.5-2.8,1.5h-0.6v-1.1h1.3l-0.9,0.4
			c1.3-1.9,2.7-2.6,4.2-2.6C115,243.5,116,244.7,116,247.3z M115.3,252.8l2.1,0.4v0.9h-5.2v-0.9l2.1-0.4H115.3z"/>
		<path d="M119.9,254.1c0-1,0.1-3.2,0.1-4.5v-1c0-1.2,0-1.8-0.1-2.7l-1.5-0.2v-0.8l3.9-1.3l0.3,0.2l-0.1,3v2.8c0,1.3,0,3.5,0.1,4.5
			H119.9z M123.8,253.2v0.9h-5.3v-0.9l2.2-0.4h1L123.8,253.2z M119.6,240c0-0.9,0.7-1.5,1.6-1.5s1.6,0.6,1.6,1.5s-0.7,1.5-1.6,1.5
			S119.6,240.9,119.6,240z"/>
		<path d="M126.5,254.1c0-1,0.1-3.2,0.1-4.5v-1.1c0-1.2,0-1.7-0.1-2.6l-1.5-0.2v-0.8l3.6-1.3l0.3,0.2l0.2,2.4v3.4
			c0,1.3,0,3.5,0.1,4.5L126.5,254.1L126.5,254.1z M130.4,253.2v0.9h-5.3v-0.9l2.2-0.4h1L130.4,253.2z M135.5,247.4v2.2
			c0,1.4,0,3.5,0.1,4.5h-2.7c0-1,0.1-3.1,0.1-4.5v-2c0-1.7-0.4-2.2-1.5-2.2c-0.9,0-1.9,0.5-2.9,1.5H128v-1.2h1.3l-0.9,0.5
			c1.3-1.8,2.7-2.6,4.2-2.6C134.5,243.5,135.5,244.7,135.5,247.4z M134.8,252.8l2.1,0.4v0.9h-5.3v-0.9l2.1-0.4H134.8z"/>
		<path d="M146.1,256c0-0.8-0.5-1.4-1.9-1.4h-2.4c-0.7,0-1.2-0.1-1.7-0.2v-0.1c-1.1-0.3-1.6-0.9-1.6-1.8c0-0.9,0.6-1.8,2-3l0.5,0.3
			c-0.5,0.5-0.7,1-0.7,1.5s0.3,0.9,1.2,0.9h2.6c2.8,0,3.9,1.1,3.9,2.9c0,2-2,3.8-5.7,3.8c-3.3,0-4.5-1.1-4.5-2.5
			c0-1,0.7-1.9,2.6-2.6l0.2,0.2c-0.6,0.7-0.9,1.2-0.9,2c0,1.3,1,1.9,2.8,1.9C144.9,257.9,146.1,257.1,146.1,256z M142.6,243.5
			c2.6,0,4.1,1.3,4.1,3.5c0,2.1-1.5,3.4-4.1,3.4s-4.1-1.3-4.1-3.4C138.4,244.9,140,243.5,142.6,243.5z M140.8,247
			c0,1.5,0.6,2.5,1.7,2.5c1.2,0,1.8-1,1.8-2.6c0-1.5-0.6-2.5-1.8-2.5C141.5,244.5,140.8,245.5,140.8,247z M148,243.5l0.3,0.2v1.5
			h-3.1v-0.6L148,243.5z"/>
		<path d="M154.3,240.9v-1h6.5v1l-3,0.3h-0.6L154.3,240.9z M157.5,252.7v1.3h-3.2v-1l2.9-0.3H157.5z M156.1,239.9h2.9
			c-0.1,2.2-0.1,4.4-0.1,6.6v1.3c0,1.8,0,4.1,0.1,6.2h-2.9c0.1-2.2,0.1-4.4,0.1-6.4v-1.2C156.1,244.3,156.1,242.1,156.1,239.9z
			 M165.3,250l-0.2,4.1h-7.6V253h6.9l-1.4,1.1l0.8-4.1H165.3z"/>
		<path d="M168.1,254.1c0-1,0.1-3.2,0.1-4.5v-1c0-1.2,0-1.8-0.1-2.7l-1.5-0.2v-0.8l3.9-1.3l0.3,0.2l-0.1,3v2.8c0,1.3,0,3.5,0.1,4.5
			H168.1z M172,253.2v0.9h-5.3v-0.9l2.2-0.4h1L172,253.2z M167.8,240c0-0.9,0.7-1.5,1.6-1.5s1.6,0.6,1.6,1.5s-0.7,1.5-1.6,1.5
			S167.8,240.9,167.8,240z"/>
		<path d="M176,248.7c0,2.6,1.3,4,3.2,4c1.1,0,2-0.5,2.7-1.4l0.6,0.5c-0.7,1.8-2.2,2.7-4.2,2.7c-2.9,0-5-2-5-5.4s2.5-5.4,5.3-5.4
			c2.1,0,3.7,1.3,3.9,2.9c-0.2,0.7-0.6,1-1.2,1c-0.8,0-1.3-0.5-1.4-1.5l-0.4-1.7l1.3,0.8c-0.7-0.3-1.3-0.5-2-0.5
			C177.3,244.6,176,245.9,176,248.7z"/>
		<path d="M193.3,247.8c0,0.5,0,0.9-0.1,1.2H185v-1h4.5c1,0,1.3-0.4,1.3-1.2c0-1.3-0.8-2.2-1.9-2.2c-1.1,0-2.3,1.1-2.3,4.1
			c0,2.7,1.3,4,3.2,4c1.3,0,2.1-0.5,2.8-1.3l0.6,0.5c-0.8,1.6-2.3,2.5-4.3,2.5c-3,0-5-2-5-5.3c0-3.4,2.5-5.5,5.2-5.5
			C191.6,243.5,193.3,245.3,193.3,247.8z"/>
		<path d="M196.2,254.1c0-1,0.1-3.2,0.1-4.5v-1.1c0-1.2,0-1.7-0.1-2.6l-1.5-0.2v-0.8l3.6-1.3l0.3,0.2l0.2,2.4v3.4
			c0,1.3,0,3.5,0.1,4.5L196.2,254.1L196.2,254.1z M200.1,253.2v0.9h-5.3v-0.9l2.2-0.4h1L200.1,253.2z M205.3,247.4v2.2
			c0,1.4,0,3.5,0.1,4.5h-2.7c0-1,0.1-3.1,0.1-4.5v-2c0-1.7-0.4-2.2-1.5-2.2c-0.9,0-1.9,0.5-2.9,1.5h-0.6v-1.2h1.3l-0.9,0.5
			c1.3-1.8,2.7-2.6,4.2-2.6C204.2,243.5,205.3,244.7,205.3,247.4z M204.5,252.8l2.1,0.4v0.9h-5.3v-0.9l2.1-0.4H204.5z"/>
		<path d="M208,253.5V251h1.4l0.5,2.7l-1.1-0.5v-0.8c0.8,0.6,1.6,0.9,2.6,0.9c1.4,0,2.2-0.5,2.2-1.4c0-0.8-0.5-1.2-1.9-1.7l-1.1-0.3
			c-1.6-0.5-2.6-1.5-2.6-3c0-1.8,1.4-3.2,4.1-3.2c1.2,0,2.2,0.3,3.2,0.9l-0.1,2.2h-1.4l-0.5-2.4l1,0.4v0.7c-0.7-0.5-1.3-0.7-2.2-0.7
			c-1.1,0-1.8,0.5-1.8,1.3s0.4,1.2,1.9,1.6l0.8,0.3c2.1,0.7,2.9,1.8,2.9,3.2c0,1.9-1.6,3.3-4.5,3.3
			C210.1,254.4,209.1,254.1,208,253.5z"/>
		<path d="M226.7,247.8c0,0.5,0,0.9-0.1,1.2h-8.1v-1h4.5c1,0,1.3-0.4,1.3-1.2c0-1.3-0.8-2.2-1.9-2.2c-1.1,0-2.3,1.1-2.3,4.1
			c0,2.7,1.3,4,3.2,4c1.3,0,2.1-0.5,2.8-1.3l0.6,0.5c-0.8,1.6-2.3,2.5-4.3,2.5c-3,0-5-2-5-5.3c0-3.4,2.5-5.5,5.2-5.5
			C225.1,243.5,226.7,245.3,226.7,247.8z"/>
		<path d="M76.3,277.1l-2.9-0.3v-1h6.2v1l-2.7,0.3H76.3z M83.6,275.8H85l3.5,11.5l-0.9,1.2l3.6-12.7h1.2l-4,14.2h-1.5l-3.7-11.5
			l0.8-0.4L80.3,290h-1.5l-4.2-14.2h2.9l3,11.5l-1,1.2L83.6,275.8z M84,277.1l-2.7-0.3v-1h6.1v1l-2.6,0.3H84z M91.2,277.1l-2.1-0.3
			v-1h4.7v1l-2.1,0.3H91.2z"/>
		<path d="M102.4,283.7c0,0.5,0,0.9-0.1,1.2h-8.1v-1h4.5c1,0,1.3-0.4,1.3-1.2c0-1.3-0.8-2.2-1.9-2.2s-2.3,1.1-2.3,4.1
			c0,2.7,1.3,4,3.2,4c1.3,0,2.1-0.5,2.8-1.3l0.6,0.5c-0.8,1.6-2.3,2.5-4.3,2.5c-3,0-5-2-5-5.3c0-3.4,2.5-5.5,5.2-5.5
			C100.7,279.4,102.4,281.1,102.4,283.7z"/>
		<path d="M103.6,289.1l2.1-0.4l-0.8,1.3c0-1,0.1-3.2,0.1-4.5v-9.2l-1.5-0.2v-0.8l3.8-1l0.3,0.2l-0.1,3v3.7l0.1,0.3v6.9l-0.4,1.9
			l-3.6-0.3V289.1z M112,284.9c0-2.6-1-3.9-2.4-3.9c-0.9,0-1.9,0.8-3.1,1.9l-0.2-0.4c1.2-2.1,2.6-3,4.3-3c2.3,0,4.1,1.9,4.1,5.3
			s-2,5.5-4.5,5.5c-1.6,0-2.8-0.8-3.9-3l0.2-0.4c1,1.3,1.9,1.9,2.9,1.9C110.9,288.8,112,287.5,112,284.9z"/>
		<path d="M120,282.3c1.8,0,2.8-0.9,2.8-2.7c0-1.6-0.9-2.4-2.4-2.4c-0.4,0-1,0.1-1.7,0.3l1.1-0.7l-0.4,1.7c-0.2,1-0.7,1.4-1.4,1.4
			c-0.5,0-0.9-0.2-1.1-0.7c0.2-2.1,2-3,4.1-3c2.8,0,4.4,1.4,4.4,3.4c0,1.7-1.3,3.1-3.8,3.6v-0.4c3,0.3,4.3,1.6,4.3,3.6
			c0,2.3-1.9,4-5,4c-2.5,0-4.1-1.1-4.3-3.3c0.3-0.6,0.7-0.8,1.2-0.8c0.8,0,1.2,0.5,1.4,1.7l0.4,1.8l-0.9-0.8
			c0.6,0.3,1.2,0.3,1.7,0.3c2,0,3-1,3-3c0-1.8-1-2.9-3-2.9h-0.9v-1.1H120z"/>
		<path d="M134,277.1l-2.9-0.3v-1h6.3v1l-2.8,0.3H134z M132.1,275.8h3l3.9,11.4l-0.5,0.2l3.9-11.7h1.3l-4.9,14.2h-1.5L132.1,275.8z
			 M142.4,277.1l-2.2-0.3v-1h4.8v1l-2.2,0.3H142.4z"/>
		<path d="M145.9,276.8v-1h3.2v1.3h-0.3L145.9,276.8z M149.4,288.6l2.9,0.3v1h-6.4v-1l2.9-0.3H149.4z M147.8,282.4
			c0-2.2,0-4.4-0.1-6.6h2.9c-0.1,2.2-0.1,4.3-0.1,6.7v0.6c0,2.3,0,4.6,0.1,6.8h-2.9c0.1-2.2,0.1-4.4,0.1-6.6V282.4z M149.2,282.3
			h2.6c2.2,0,3.1-1.2,3.1-2.8c0-1.8-0.9-2.7-2.9-2.7h-2.8v-1.1h3.2c3.3,0,5.2,1.4,5.2,3.6c0,1.7-1.3,3.4-4.6,3.6v-0.2
			c2.5,0.1,3.4,1,3.8,3.1l0.8,3.4l-1.2-0.8l2.7,0.3v1c-0.7,0.2-1.1,0.3-1.9,0.3c-1.6,0-2.4-0.4-2.6-1.8l-0.6-3
			c-0.3-1.6-1-2.1-2.5-2.1h-2.3V282.3z"/>
		<path d="M164.9,276.8v-1h3.2v1.3h-0.3L164.9,276.8z M168.5,288.6l2.9,0.3v1h-6.6v-1l2.9-0.3H168.5z M166.7,282.4
			c0-2.2,0-4.4-0.1-6.6h2.9c-0.1,2.2-0.1,4.4-0.1,6.6v1.3c0,2,0,4,0.1,6.2h-2.9c0.1-2.2,0.1-4.4,0.1-6.6V282.4z M170.4,284.4h-2.3
			v-1.1h2.4c2.2,0,3.2-1.3,3.2-3.3s-1.1-3.1-3.3-3.1h-2.3v-1.1h2.6c4,0,5.8,1.7,5.8,4.2C176.4,282.4,174.8,284.4,170.4,284.4z"/>
		<path d="M177.9,288.3c1.1-1,2.1-2.1,3-3c2.1-2.1,3.1-3.7,3.1-5.5c0-1.7-0.9-2.7-2.4-2.7c-0.6,0-1.3,0.1-2.1,0.5l1.4-0.9l-0.4,2
			c-0.3,1.2-0.8,1.6-1.4,1.6c-0.5,0-1-0.3-1.2-0.8c0.1-2.3,2.2-3.4,4.6-3.4c2.9,0,4.2,1.5,4.2,3.7c0,2-1.2,3.5-4.6,6.3
			c-0.7,0.6-1.6,1.4-2.6,2.2l-0.3-0.4h7.9v2.2H178L177.9,288.3L177.9,288.3z"/>
		<path d="M188.8,276.8v-1h3.2v1.3h-0.3L188.8,276.8z M192,288.6v1.3h-3.2v-1l2.9-0.3H192z M190.6,282.4c0-2.2,0-4.4-0.1-6.6h2.9
			c-0.1,2.2-0.1,4.4-0.1,6.6v0.8c0,2.4,0,4.6,0.1,6.8h-2.9c0.1-2.2,0.1-4.4,0.1-6.6V282.4z M197.5,275.8l1.3,1.1H192v-1.1h7.5
			l0.1,3.7h-1.5L197.5,275.8z M196.7,283.2H192v-1.1h4.8v1.1H196.7z M200.1,286.2l-0.1,3.7h-8v-1.1h7.2l-1.3,1.1l0.6-3.7H200.1z
			 M196.1,282.4l0.3-2.2h1.1v4.8h-1.1l-0.3-2.3V282.4z"/>
		<path d="M217.4,287.9v1.1l-1.4,0.3l0.6-3.2h1.5l-0.1,3.2c-1.2,0.7-2.7,1.1-4.4,1.1c-4.2,0-7.3-2.8-7.3-7.4c0-4.7,3.3-7.4,7.4-7.4
			c1.4,0,2.8,0.3,4.1,1l0.1,3.2h-1.5l-0.6-3.3l1.4,0.3v1.2c-1.1-1-2.1-1.4-3.1-1.4c-2.6,0-4.7,2-4.7,6.3c0,4.2,2,6.3,4.6,6.3
			C215.1,289.2,216.3,288.8,217.4,287.9z"/>
		<path d="M223.5,284.2c0.9-0.3,2.3-0.7,3.4-0.9v0.8c-1,0.2-2.2,0.6-2.8,0.9c-1.4,0.6-1.9,1.3-1.9,2.2c0,1.1,0.7,1.6,1.5,1.6
			c0.6,0,1-0.2,2-0.9l0.6-0.5l0.3,0.4l-0.8,0.8c-1.2,1.2-1.8,1.8-3.3,1.8c-1.6,0-2.8-0.9-2.8-2.7
			C219.6,286.2,220.4,285.2,223.5,284.2z M225.5,288.1V283c0-2-0.5-2.5-1.9-2.5c-0.5,0-1.1,0.1-2,0.3l1.2-0.7l-0.4,1.7
			c-0.1,1-0.6,1.5-1.3,1.5s-1.1-0.3-1.2-1c0.3-1.7,1.9-2.8,4.5-2.8c2.5,0,3.5,1.1,3.5,3.9v4.7c0,0.7,0.2,1,0.6,1
			c0.3,0,0.5-0.2,0.7-0.5l0.5,0.4c-0.5,1-1.2,1.4-2.2,1.4C226.4,290.2,225.6,289.4,225.5,288.1z"/>
		<path d="M232,285.5v-1.1c0-1.2,0-1.7-0.1-2.6l-1.5-0.2v-0.8l3.6-1.3l0.3,0.2l0.2,2.6v3.2c0,1.3,0,3.5,0.1,4.5h-2.7
			C232,289,232,286.8,232,285.5z M230.6,289.1l2.2-0.4h1.3l2.2,0.4v0.9h-5.7V289.1z M233.3,282.6h1.4l-0.4,0.4
			c0.5-2.3,1.9-3.6,3.2-3.6c0.8,0,1.5,0.4,1.7,1.2c0,1.1-0.5,1.7-1.4,1.7c-0.6,0-1-0.3-1.5-0.8l-0.6-0.7l1,0.1
			c-1,0.6-1.8,1.7-2.2,3.2l-1.2-0.1V282.6z"/>
		<path d="M74,299.2v-1h3.2v1.3H77L74,299.2z M77.5,311.1l2.9,0.3v1H74v-1l2.9-0.3H77.5z M75.9,304.8c0-2.2,0-4.4-0.1-6.6h2.9
			c-0.1,2.2-0.1,4.3-0.1,6.7v0.6c0,2.3,0,4.6,0.1,6.8h-2.9c0.1-2.2,0.1-4.4,0.1-6.6V304.8z M77.3,304.8h2.6c2.2,0,3.1-1.2,3.1-2.8
			c0-1.8-0.9-2.7-2.9-2.7h-2.8v-1.1h3.2c3.3,0,5.2,1.4,5.2,3.6c0,1.7-1.3,3.4-4.6,3.6v-0.2c2.5,0.1,3.4,1,3.8,3.1l0.8,3.4l-1.2-0.8
			l2.7,0.3v1c-0.7,0.2-1.1,0.3-1.9,0.3c-1.6,0-2.4-0.4-2.6-1.8l-0.6-3c-0.3-1.6-1-2.1-2.5-2.1h-2.3
			C77.3,305.6,77.3,304.8,77.3,304.8z"/>
		<path d="M91.9,306.6c0.9-0.3,2.3-0.7,3.4-0.9v0.8c-1,0.2-2.2,0.6-2.8,0.9c-1.4,0.6-1.9,1.3-1.9,2.2c0,1.1,0.7,1.6,1.5,1.6
			c0.6,0,1-0.2,2-0.9l0.6-0.5l0.3,0.4l-0.8,0.8c-1.2,1.2-1.8,1.8-3.3,1.8c-1.6,0-2.8-0.9-2.8-2.7C88.1,308.6,88.9,307.6,91.9,306.6z
			 M94,310.5v-5.1c0-2-0.5-2.5-1.9-2.5c-0.5,0-1.1,0.1-2,0.3l1.2-0.7l-0.4,1.7c-0.1,1-0.6,1.5-1.3,1.5c-0.7,0-1.1-0.3-1.2-1
			c0.3-1.7,1.9-2.8,4.5-2.8c2.5,0,3.5,1.1,3.5,3.9v4.7c0,0.7,0.2,1,0.6,1c0.3,0,0.5-0.2,0.7-0.5l0.5,0.4c-0.5,1-1.2,1.4-2.2,1.4
			C94.9,312.6,94.1,311.8,94,310.5z"/>
		<path d="M101.8,307c0,2.6,1.3,4,3.2,4c1.1,0,2-0.5,2.7-1.4l0.6,0.5c-0.7,1.8-2.2,2.7-4.2,2.7c-2.9,0-5-2-5-5.4s2.5-5.4,5.3-5.4
			c2.1,0,3.7,1.3,3.9,2.9c-0.2,0.6-0.6,1-1.2,1c-0.8,0-1.3-0.5-1.4-1.5l-0.4-1.7l1.3,0.8c-0.7-0.3-1.3-0.5-2-0.5
			C103.2,302.9,101.8,304.2,101.8,307z"/>
		<path d="M111.1,312.4c0-1,0.1-3.2,0.1-4.5v-1c0-1.2,0-1.8-0.1-2.7l-1.5-0.2v-0.8l3.9-1.3l0.3,0.2l-0.1,3v2.8c0,1.3,0,3.5,0.1,4.5
			H111.1z M115,311.5v0.9h-5.3v-0.9l2.2-0.4h1L115,311.5z M110.8,298.4c0-0.9,0.7-1.5,1.6-1.5s1.6,0.6,1.6,1.5s-0.7,1.5-1.6,1.5
			S110.8,299.2,110.8,298.4z"/>
		<path d="M117.7,312.4c0-1,0.1-3.2,0.1-4.5v-1.1c0-1.2,0-1.7-0.1-2.6l-1.5-0.2v-0.8l3.6-1.3l0.3,0.2l0.2,2.4v3.4
			c0,1.3,0,3.5,0.1,4.5H117.7z M121.6,311.5v0.9h-5.3v-0.9l2.2-0.4h1L121.6,311.5z M126.7,305.7v2.2c0,1.4,0,3.5,0.1,4.5h-2.7
			c0-1,0.1-3.1,0.1-4.5v-2c0-1.7-0.4-2.2-1.5-2.2c-0.9,0-1.9,0.5-2.9,1.5h-0.6V304h1.3l-0.9,0.5c1.3-1.8,2.7-2.6,4.2-2.6
			C125.7,301.9,126.7,303,126.7,305.7z M126,311.1l2.1,0.4v0.9h-5.3v-0.9l2.1-0.4H126z"/>
		<path d="M137.3,314.3c0-0.8-0.5-1.4-1.9-1.4H133c-0.7,0-1.2-0.1-1.7-0.2v-0.1c-1.1-0.3-1.6-0.9-1.6-1.8s0.6-1.8,2-3l0.5,0.3
			c-0.5,0.5-0.7,1-0.7,1.5s0.3,0.9,1.2,0.9h2.6c2.8,0,3.9,1.1,3.9,2.9c0,2-2,3.8-5.7,3.8c-3.3,0-4.5-1.1-4.5-2.5
			c0-1,0.7-1.9,2.6-2.6l0.2,0.2c-0.6,0.7-0.9,1.2-0.9,2c0,1.3,1,1.9,2.8,1.9C136.1,316.2,137.3,315.4,137.3,314.3z M133.8,301.9
			c2.6,0,4.1,1.3,4.1,3.5c0,2.1-1.5,3.4-4.1,3.4s-4.1-1.3-4.1-3.4C129.6,303.2,131.2,301.9,133.8,301.9z M132,305.3
			c0,1.5,0.6,2.5,1.7,2.5c1.2,0,1.8-1,1.8-2.6c0-1.5-0.6-2.5-1.8-2.5C132.7,302.8,132,303.8,132,305.3z M139.2,301.8l0.3,0.2v1.5
			h-3.1v-0.6L139.2,301.8z"/>
		<path d="M157.6,311.5c-1.5,0.8-2.9,1.2-4.8,1.2c-4.3,0-7.3-3-7.3-7.4s2.9-7.4,7.4-7.4c1.6,0,3,0.3,4.2,1l0.1,3.2h-1.5l-0.6-3.3
			l1.4,0.4v1.2c-1.1-0.9-2.1-1.3-3.3-1.3c-2.6,0-4.7,2.1-4.7,6.3c0,4.1,1.9,6.3,4.8,6.3c1.1,0,1.8-0.3,2.9-0.8l-1.3,1.2v-1.4
			c0-1.7,0-3.3-0.1-5h2.8c0,1.7-0.1,3.3-0.1,5v0.8H157.6z M152.8,306.5v-1h6v1l-2.4,0.3h-0.9L152.8,306.5z"/>
		<path d="M163.7,306.6c0.9-0.3,2.3-0.7,3.4-0.9v0.8c-1,0.2-2.2,0.6-2.8,0.9c-1.4,0.6-1.9,1.3-1.9,2.2c0,1.1,0.7,1.6,1.5,1.6
			c0.6,0,1-0.2,2-0.9l0.6-0.5l0.3,0.4L166,311c-1.2,1.2-1.8,1.8-3.3,1.8c-1.6,0-2.8-0.9-2.8-2.7
			C159.9,308.6,160.6,307.6,163.7,306.6z M165.7,310.5v-5.1c0-2-0.5-2.5-1.9-2.5c-0.5,0-1.1,0.1-2,0.3l1.2-0.7l-0.4,1.7
			c-0.1,1-0.6,1.5-1.3,1.5s-1.1-0.3-1.2-1c0.3-1.7,1.9-2.8,4.5-2.8c2.5,0,3.5,1.1,3.5,3.9v4.7c0,0.7,0.2,1,0.6,1
			c0.3,0,0.5-0.2,0.7-0.5l0.5,0.4c-0.5,1-1.2,1.4-2.2,1.4C166.6,312.6,165.8,311.8,165.7,310.5z"/>
		<path d="M172.1,312.4c0-1,0.1-3.2,0.1-4.5v-1.1c0-1.2,0-1.7-0.1-2.6l-1.5-0.2v-0.8l3.6-1.3l0.3,0.2l0.2,2.4v3.4
			c0,1.3,0,3.5,0.1,4.5H172.1z M176.1,311.5v0.9h-5.3v-0.9l2.2-0.4h1L176.1,311.5z M181.1,305.7v2.2c0,1.4,0,3.5,0.1,4.5h-2.7
			c0-1,0.1-3.1,0.1-4.5V306c0-1.7-0.4-2.3-1.5-2.3c-1,0-1.9,0.6-2.8,1.5h-0.6V304h1.2l-0.8,0.5c1.2-1.6,2.6-2.6,4.1-2.6
			C180.2,301.9,181.1,303,181.1,305.7z M180.4,311.1l2,0.4v0.9h-5.2v-0.9l2.1-0.4H180.4z M187.5,305.6v2.3c0,1.4,0,3.5,0.1,4.5h-2.7
			c0-1,0.1-3.1,0.1-4.5v-2c0-1.8-0.4-2.3-1.5-2.3c-0.9,0-1.8,0.5-2.8,1.5H180V304h1.3l-0.9,0.4c1.3-1.9,2.7-2.6,4.2-2.6
			C186.5,301.9,187.5,303,187.5,305.6z M186.7,311.1l2.1,0.4v0.9h-5.2v-0.9l2.1-0.4H186.7z"/>
		<path d="M199.5,306.2c0,0.5,0,0.9-0.1,1.2h-8.1v-1h4.5c1,0,1.3-0.4,1.3-1.2c0-1.3-0.8-2.2-1.9-2.2c-1.1,0-2.3,1.1-2.3,4.1
			c0,2.7,1.3,4,3.2,4c1.3,0,2.1-0.5,2.8-1.3l0.6,0.5c-0.8,1.6-2.3,2.5-4.3,2.5c-3,0-5-2-5-5.3c0-3.4,2.5-5.5,5.2-5.5
			C197.8,301.9,199.5,303.6,199.5,306.2z"/>
		<path d="M205.9,299.2v-1h3.2v1.3h-0.3L205.9,299.2z M209.1,311.1v1.3h-3.2v-1l2.9-0.3H209.1z M207.7,304.8c0-2.2,0-4.4-0.1-6.6
			h2.9c-0.1,2.2-0.1,4.4-0.1,6.6v0.8c0,2.4,0,4.6,0.1,6.8h-2.9c0.1-2.2,0.1-4.4,0.1-6.8V304.8z M209.1,311.3h2.6
			c2.9,0,4.6-2.2,4.6-6c0-3.9-1.7-6-4.4-6h-2.8v-1.1h3.1c4.3,0,7.1,2.6,7.1,7.1s-3.1,7.1-7.5,7.1h-2.7L209.1,311.3L209.1,311.3z"/>
		<path d="M230.3,306.2c0,0.5,0,0.9-0.1,1.2H222v-1h4.5c1,0,1.3-0.4,1.3-1.2c0-1.3-0.8-2.2-1.9-2.2c-1.1,0-2.3,1.1-2.3,4.1
			c0,2.7,1.3,4,3.2,4c1.3,0,2.1-0.5,2.8-1.3l0.6,0.5c-0.8,1.6-2.3,2.5-4.3,2.5c-3,0-5-2-5-5.3c0-3.4,2.5-5.5,5.2-5.5
			C228.6,301.9,230.3,303.6,230.3,306.2z"/>
		<path d="M232.9,303.4l-2-0.4v-0.9h5.6v0.9l-2.3,0.4H232.9z M234.4,302.2l3.1,8.1l-1.2,1.7l3.4-9.8h1.3l-3.9,10.3h-1.3l-4.3-10.3
			L234.4,302.2L234.4,302.2z M239.7,303.4l-2-0.3v-0.9h4v0.9l-1.6,0.3H239.7z"/>
		<path d="M241.4,311c0-0.9,0.8-1.7,1.7-1.7c1,0,1.7,0.8,1.7,1.7c0,0.9-0.8,1.7-1.7,1.7C242.1,312.7,241.4,311.9,241.4,311z"/>
		<path d="M74,335.1v-1h3.2v1.3H77L74,335.1z M77.2,346.9v1.3H74v-1l2.9-0.3H77.2z M75.9,340.8c0-2.2,0-4.4-0.1-6.7h2.9
			c-0.1,2.2-0.1,4.4-0.1,6.7v0.6c0,2.4,0,4.6,0.1,6.9h-2.9c0.1-2.2,0.1-4.4,0.1-6.6V340.8z M77.2,340.4h2.2c2.2,0,3.2-0.9,3.2-2.7
			c0-1.8-0.9-2.5-2.9-2.5h-2.5v-1.1h3.3c3.3,0,4.8,1.4,4.8,3.4c0,1.6-1.1,3-4.2,3.4v-0.2c3.6,0.3,5,1.7,5,3.6s-1.5,3.9-6.1,3.9h-2.7
			v-1.1h2.4c2.4,0,3.6-1,3.6-2.8c0-2-1.2-2.9-3.7-2.9h-2.3v-1H77.2z"/>
		<path d="M97.1,342c0,0.5,0,0.9-0.1,1.2h-8.1v-1h4.5c1,0,1.3-0.4,1.3-1.2c0-1.3-0.8-2.2-1.9-2.2s-2.3,1.1-2.3,4.1
			c0,2.7,1.3,4,3.2,4c1.3,0,2.1-0.5,2.8-1.3l0.6,0.5c-0.8,1.6-2.3,2.5-4.3,2.5c-3,0-5-2-5-5.3c0-3.4,2.5-5.5,5.2-5.5
			C95.4,337.8,97.1,339.5,97.1,342z"/>
		<path d="M103.4,347.2c0.4,0,0.8-0.2,1.3-0.5l0.5,0.5c-0.5,0.9-1.5,1.4-2.8,1.4c-1.7,0-2.7-0.8-2.7-2.7c0-0.6,0-1.1,0-2v-4.6h-1.6
			v-1.1l2.6-0.3l-1,0.8l1-3.6h1.7l-0.1,3.8v6.7C102.3,346.7,102.7,347.2,103.4,347.2z M104.8,338.1v1.3H101v-1.3H104.8z"/>
		<path d="M110.7,347.2c0.4,0,0.8-0.2,1.3-0.5l0.5,0.5c-0.5,0.9-1.5,1.4-2.8,1.4c-1.7,0-2.7-0.8-2.7-2.7c0-0.6,0-1.1,0-2v-4.6h-1.6
			v-1.1l2.6-0.3l-1,0.8l1-3.6h1.7l-0.1,3.8v6.7C109.6,346.7,110.1,347.2,110.7,347.2z M112.2,338.1v1.3h-3.9v-1.3H112.2z"/>
		<path d="M114.6,348.3c0-1,0.1-3.2,0.1-4.5v-1c0-1.2,0-1.8-0.1-2.7l-1.5-0.2v-0.8l3.9-1.3l0.3,0.2l-0.1,3v2.8c0,1.3,0,3.5,0.1,4.5
			H114.6z M118.5,347.4v0.9h-5.3v-0.9l2.2-0.4h1L118.5,347.4z M114.2,334.2c0-0.9,0.7-1.5,1.6-1.5s1.6,0.6,1.6,1.5s-0.7,1.5-1.6,1.5
			C115,335.8,114.2,335.1,114.2,334.2z"/>
		<path d="M121.1,348.3c0-1,0.1-3.2,0.1-4.5v-1.1c0-1.2,0-1.7-0.1-2.6l-1.5-0.2v-0.8l3.6-1.3l0.3,0.2l0.2,2.4v3.4
			c0,1.3,0,3.5,0.1,4.5H121.1z M125,347.4v0.9h-5.3v-0.9l2.2-0.4h1L125,347.4z M130.2,341.6v2.2c0,1.4,0,3.5,0.1,4.5h-2.7
			c0-1,0.1-3.1,0.1-4.5v-2c0-1.7-0.4-2.2-1.5-2.2c-0.9,0-1.9,0.5-2.9,1.5h-0.6v-1.2h1.3l-0.9,0.5c1.3-1.8,2.7-2.6,4.2-2.6
			C129.1,337.8,130.2,338.9,130.2,341.6z M129.4,347l2.1,0.4v0.9h-5.3v-0.9l2.1-0.4H129.4z"/>
		<path d="M140.7,350.2c0-0.8-0.5-1.4-1.9-1.4h-2.4c-0.7,0-1.2-0.1-1.7-0.2v-0.1c-1.1-0.3-1.6-0.9-1.6-1.8s0.6-1.8,2-3l0.5,0.3
			c-0.5,0.5-0.7,1-0.7,1.5s0.3,0.9,1.2,0.9h2.6c2.8,0,3.9,1.1,3.9,2.9c0,2-2,3.8-5.7,3.8c-3.3,0-4.5-1.1-4.5-2.5
			c0-1,0.7-1.9,2.6-2.6l0.2,0.2c-0.6,0.7-0.9,1.2-0.9,2c0,1.3,1,1.9,2.8,1.9C139.6,352.1,140.7,351.3,140.7,350.2z M137.2,337.8
			c2.6,0,4.1,1.3,4.1,3.5c0,2.1-1.5,3.4-4.1,3.4s-4.1-1.3-4.1-3.4C133.1,339.1,134.6,337.8,137.2,337.8z M135.4,341.2
			c0,1.5,0.6,2.5,1.7,2.5c1.2,0,1.8-1,1.8-2.6c0-1.5-0.6-2.5-1.8-2.5C136.1,338.7,135.4,339.7,135.4,341.2z M142.7,337.7l0.3,0.2
			v1.5h-3.1v-0.6L142.7,337.7z"/>
		<path d="M149,335.1v-1h3.2v1.3h-0.3L149,335.1z M152.6,346.9l2.9,0.3v1H149v-1l2.9-0.3H152.6z M150.8,340.7c0-2.2,0-4.4-0.1-6.6
			h2.9c-0.1,2.2-0.1,4.4-0.1,6.6v1.3c0,2,0,4,0.1,6.2h-2.9c0.1-2.2,0.1-4.4,0.1-6.6V340.7z M154.4,342.8h-2.3v-1.1h2.4
			c2.2,0,3.2-1.3,3.2-3.3s-1.1-3.1-3.3-3.1h-2.3v-1.1h2.6c4,0,5.8,1.7,5.8,4.2C160.5,340.8,158.9,342.8,154.4,342.8z"/>
		<path d="M165.1,332.6l0.3,0.2l-0.1,3v8c0,1.5,0,3,0.1,4.5h-2.7c0-1.5,0.1-3,0.1-4.5v-9.2l-1.5-0.2v-0.8L165.1,332.6z M166.9,347.4
			v0.9h-5.5v-0.9l2.2-0.4h1L166.9,347.4z"/>
		<path d="M171.8,342.5c0.9-0.3,2.3-0.7,3.4-0.9v0.8c-1,0.2-2.2,0.6-2.8,0.9c-1.4,0.6-1.9,1.3-1.9,2.2c0,1.1,0.7,1.6,1.5,1.6
			c0.6,0,1-0.2,2-0.9l0.6-0.5l0.3,0.4l-0.8,0.8c-1.2,1.2-1.8,1.8-3.3,1.8c-1.6,0-2.8-0.9-2.8-2.7C168,344.5,168.7,343.5,171.8,342.5
			z M173.8,346.4v-5.1c0-2-0.5-2.5-1.9-2.5c-0.5,0-1.1,0.1-2,0.3l1.2-0.7l-0.3,1.7c-0.1,1-0.6,1.5-1.3,1.5s-1.1-0.3-1.2-1
			c0.3-1.7,1.9-2.8,4.5-2.8c2.5,0,3.5,1.1,3.5,3.9v4.7c0,0.7,0.2,1,0.6,1c0.3,0,0.5-0.2,0.7-0.5l0.5,0.4c-0.5,1-1.2,1.4-2.2,1.4
			C174.7,348.5,173.9,347.7,173.8,346.4z"/>
		<path d="M183.7,347.2c0.4,0,0.8-0.2,1.3-0.5l0.5,0.5c-0.5,0.9-1.5,1.4-2.8,1.4c-1.7,0-2.7-0.8-2.7-2.7c0-0.6,0-1.1,0-2v-4.6h-1.6
			v-1.1l2.6-0.3l-1,0.8l1-3.6h1.7l-0.1,3.8v6.7C182.6,346.7,183.1,347.2,183.7,347.2z M185.2,338.1v1.3h-3.9v-1.3H185.2z"/>
		<path d="M187.7,339.3h-1.6v-1.1l2.5-0.3l-0.9,0.5c0.2-2.5,0.8-3.7,1.7-4.6c1-1,2.2-1.4,3.3-1.4s2.1,0.4,2.3,1.3
			c0,0.7-0.5,1.2-1.4,1.2c-0.6,0-1.2-0.3-1.7-1.1l-0.8-0.8l1.9-0.5l0.4,0.6c-0.2-0.1-0.5-0.3-0.8-0.3c-0.7,0-1.3,0.5-1.7,1.1
			c-0.6,0.9-0.8,2.4-0.6,4.9v4.8c0,1.5,0,3,0.1,4.5h-2.7c0-1.5,0.1-3,0.1-4.5v-4.3H187.7z M192.1,347.4v0.9h-5.9v-0.9l2.3-0.4h1.3
			L192.1,347.4z M192.8,338.1v1.3H189v-1.3H192.8z"/>
		<path d="M193.6,343.2c0-3.4,2.4-5.4,5.1-5.4c2.7,0,5.1,2,5.1,5.4s-2.3,5.4-5.1,5.4C195.9,348.6,193.6,346.6,193.6,343.2z
			 M201.2,343.2c0-2.9-0.8-4.4-2.4-4.4c-1.5,0-2.4,1.4-2.4,4.4s0.8,4.3,2.4,4.3C200.3,347.5,201.2,346.1,201.2,343.2z"/>
		<path d="M206.9,343.8v-1.1c0-1.2,0-1.7-0.1-2.6l-1.5-0.2v-0.8l3.6-1.3l0.3,0.2l0.2,2.6v3.2c0,1.3,0,3.5,0.1,4.5h-2.7
			C206.8,347.3,206.9,345.1,206.9,343.8z M205.5,347.4l2.2-0.4h1.3l2.2,0.4v0.9h-5.7V347.4z M208.2,340.9h1.4l-0.4,0.4
			c0.5-2.3,1.9-3.6,3.2-3.6c0.8,0,1.5,0.4,1.7,1.2c0,1.1-0.5,1.7-1.4,1.7c-0.6,0-1-0.3-1.5-0.8l-0.6-0.7l1,0.1
			c-1,0.6-1.8,1.7-2.2,3.2l-1.2-0.1V340.9z"/>
		<path d="M216.2,348.3c0-1,0.1-3.2,0.1-4.5v-1.1c0-1.2,0-1.7-0.1-2.6l-1.5-0.2v-0.8l3.6-1.3l0.3,0.2l0.2,2.4v3.4
			c0,1.3,0,3.5,0.1,4.5H216.2z M220.2,347.4v0.9h-5.3v-0.9l2.2-0.4h1L220.2,347.4z M225.2,341.6v2.2c0,1.4,0,3.5,0.1,4.5h-2.7
			c0-1,0.1-3.1,0.1-4.5v-1.9c0-1.7-0.4-2.3-1.5-2.3c-1,0-1.9,0.6-2.8,1.5h-0.6v-1.2h1.2l-0.8,0.5c1.2-1.6,2.6-2.6,4.1-2.6
			C224.3,337.8,225.2,338.9,225.2,341.6z M224.5,347l2,0.4v0.9h-5.2v-0.9l2.1-0.4H224.5z M231.6,341.5v2.3c0,1.4,0,3.5,0.1,4.5H229
			c0-1,0.1-3.1,0.1-4.5v-2c0-1.8-0.4-2.3-1.5-2.3c-0.9,0-1.8,0.5-2.8,1.5h-0.6v-1h1.3l-0.9,0.4c1.3-1.9,2.7-2.6,4.2-2.6
			C230.6,337.8,231.6,338.9,231.6,341.5z M230.8,347l2.1,0.4v0.9h-5.2v-0.9l2.1-0.4H230.8z"/>
		<path d="M74,357.6v-1h3.2v1.3H77L74,357.6z M77.2,369.4v1.3H74v-1l2.9-0.3H77.2z M75.9,363.2c0-2.2,0-4.4-0.1-6.6h2.9
			c-0.1,2.2-0.1,4.4-0.1,6.6v0.8c0,2.4,0,4.6,0.1,6.8h-2.9c0.1-2.2,0.1-4.4,0.1-6.8V363.2z M77.2,369.6h2.6c2.9,0,4.6-2.2,4.6-6
			c0-3.9-1.7-6-4.4-6h-2.8v-1.1h3.1c4.3,0,7.1,2.6,7.1,7.1s-3.1,7.1-7.5,7.1h-2.7C77.2,370.7,77.2,369.6,77.2,369.6z"/>
		<path d="M98.4,364.5c0,0.5,0,0.9-0.1,1.2h-8.1v-1h4.5c1,0,1.3-0.4,1.3-1.2c0-1.3-0.8-2.2-1.9-2.2s-2.3,1.1-2.3,4.1
			c0,2.7,1.3,4,3.2,4c1.3,0,2.1-0.5,2.8-1.3l0.6,0.5c-0.8,1.6-2.3,2.5-4.3,2.5c-3,0-5-2-5-5.3c0-3.4,2.5-5.5,5.2-5.5
			C96.8,360.2,98.4,361.9,98.4,364.5z"/>
		<path d="M101.1,361.7l-2-0.4v-0.9h5.6v0.9l-2.3,0.4H101.1z M102.6,360.5l3.1,8.1l-1.2,1.7l3.4-9.8h1.3l-3.9,10.3H104l-4.3-10.3
			L102.6,360.5L102.6,360.5z M107.9,361.7l-2-0.3v-0.9h4v0.9l-1.6,0.3H107.9z"/>
		<path d="M119.8,364.5c0,0.5,0,0.9-0.1,1.2h-8.1v-1h4.5c1,0,1.3-0.4,1.3-1.2c0-1.3-0.8-2.2-1.9-2.2s-2.3,1.1-2.3,4.1
			c0,2.7,1.3,4,3.2,4c1.3,0,2.1-0.5,2.8-1.3l0.6,0.5c-0.8,1.6-2.3,2.5-4.3,2.5c-3,0-5-2-5-5.3c0-3.4,2.5-5.5,5.2-5.5
			C118.1,360.2,119.8,361.9,119.8,364.5z"/>
		<path d="M124.6,355.1l0.3,0.2l-0.1,3v8c0,1.5,0,3,0.1,4.5h-2.7c0-1.5,0.1-3,0.1-4.5v-9.2l-1.5-0.2V356L124.6,355.1z M126.4,369.8
			v0.9h-5.5v-0.9l2.2-0.4h1L126.4,369.8z"/>
		<path d="M127.7,365.6c0-3.4,2.4-5.4,5.1-5.4c2.7,0,5.1,2,5.1,5.4s-2.3,5.4-5.1,5.4C129.9,371,127.7,369,127.7,365.6z M135.2,365.6
			c0-2.9-0.8-4.4-2.4-4.4c-1.5,0-2.4,1.4-2.4,4.4s0.8,4.3,2.4,4.3C134.3,370,135.2,368.6,135.2,365.6z"/>
		<path d="M140.7,365.1c0-1.2,0-1.7-0.1-2.6l-1.5-0.2v-0.8l3.5-1.3l0.3,0.2l0.2,1.7l0.1,0.2v6.7l-0.1,0.2v1.8c0,1.4,0,3,0.1,4.7
			h-2.6c0-1.7,0.1-3.2,0.1-4.6V365.1z M144.9,374.8v0.9h-5.7v-0.9l2.2-0.4h1.3L144.9,374.8z M145.3,361.7c-1,0-2,0.8-3.1,1.9
			l-0.2-0.4c1.2-2.1,2.6-3,4.3-3c2.3,0,4.1,1.9,4.1,5.4c0,3.4-2,5.5-4.5,5.5c-1.6,0-2.8-0.8-3.9-3.1l0.2-0.4c1,1.3,1.8,1.9,2.9,1.9
			c1.4,0,2.6-1.2,2.6-3.8C147.7,363,146.7,361.7,145.3,361.7z"/>
		<path d="M153.3,370.7c0-1,0.1-3.2,0.1-4.5v-1.1c0-1.2,0-1.7-0.1-2.6l-1.5-0.2v-0.8l3.6-1.3l0.3,0.2l0.2,2.4v3.4
			c0,1.3,0,3.5,0.1,4.5H153.3z M157.2,369.8v0.9H152v-0.9l2.2-0.4h1L157.2,369.8z M162.3,364v2.2c0,1.4,0,3.5,0.1,4.5h-2.7
			c0-1,0.1-3.1,0.1-4.5v-1.9c0-1.7-0.4-2.3-1.5-2.3c-1,0-1.9,0.6-2.8,1.5h-0.6v-1.2h1.2l-0.8,0.5c1.2-1.6,2.6-2.6,4.1-2.6
			C161.3,360.2,162.3,361.4,162.3,364z M161.6,369.4l2,0.4v0.9h-5.2v-0.9l2.1-0.4H161.6z M168.7,363.9v2.3c0,1.4,0,3.5,0.1,4.5h-2.7
			c0-1,0.1-3.1,0.1-4.5v-2c0-1.8-0.4-2.3-1.5-2.3c-0.9,0-1.8,0.5-2.8,1.5h-0.6v-1.1h1.3l-0.9,0.4c1.3-1.9,2.7-2.6,4.2-2.6
			C167.7,360.2,168.7,361.3,168.7,363.9z M167.9,369.4l2.1,0.4v0.9h-5.2v-0.9l2.1-0.4H167.9z"/>
		<path d="M180.7,364.5c0,0.5,0,0.9-0.1,1.2h-8.1v-1h4.5c1,0,1.3-0.4,1.3-1.2c0-1.3-0.8-2.2-1.9-2.2c-1.1,0-2.3,1.1-2.3,4.1
			c0,2.7,1.3,4,3.2,4c1.3,0,2.1-0.5,2.8-1.3l0.6,0.5c-0.8,1.6-2.3,2.5-4.3,2.5c-3,0-5-2-5-5.3c0-3.4,2.5-5.5,5.2-5.5
			C179,360.2,180.7,361.9,180.7,364.5z"/>
		<path d="M183.6,370.7c0-1,0.1-3.2,0.1-4.5v-1.1c0-1.2,0-1.7-0.1-2.6l-1.5-0.2v-0.8l3.6-1.3l0.3,0.2l0.2,2.4v3.4
			c0,1.3,0,3.5,0.1,4.5H183.6z M187.5,369.8v0.9h-5.3v-0.9l2.2-0.4h1L187.5,369.8z M192.6,364v2.2c0,1.4,0,3.5,0.1,4.5H190
			c0-1,0.1-3.1,0.1-4.5v-2c0-1.7-0.4-2.2-1.5-2.2c-0.9,0-1.9,0.5-2.9,1.5h-0.6v-1.2h1.3l-0.9,0.5c1.3-1.8,2.7-2.6,4.2-2.6
			C191.6,360.2,192.6,361.4,192.6,364z M191.8,369.4l2.1,0.4v0.9h-5.3v-0.9l2.1-0.4H191.8z"/>
		<path d="M199.9,369.6c0.4,0,0.8-0.2,1.3-0.5l0.5,0.5c-0.5,0.9-1.5,1.4-2.8,1.4c-1.7,0-2.7-0.8-2.7-2.7c0-0.6,0-1.1,0-2v-4.6h-1.6
			v-1.1l2.6-0.3l-1,0.8l1-3.6h1.7l-0.1,3.8v6.7C198.8,369.1,199.2,369.6,199.9,369.6z M201.3,360.5v1.3h-3.9v-1.3H201.3z"/>
		<path d="M74,393.4v-1h3.2v1.3H77L74,393.4z M77.5,405.3l2.9,0.3v1H74v-1l2.9-0.3H77.5z M75.9,399.1c0-2.2,0-4.4-0.1-6.6h2.9
			c-0.1,2.2-0.1,4.3-0.1,6.7v0.6c0,2.3,0,4.6,0.1,6.8h-2.9c0.1-2.2,0.1-4.4,0.1-6.6V399.1z M77.3,399h2.6c2.2,0,3.1-1.2,3.1-2.8
			c0-1.8-0.9-2.7-2.9-2.7h-2.8v-1.1h3.2c3.3,0,5.2,1.4,5.2,3.6c0,1.7-1.3,3.4-4.6,3.6v-0.2c2.5,0.1,3.4,1,3.8,3.1l0.8,3.4l-1.2-0.8
			l2.7,0.3v1c-0.7,0.2-1.1,0.3-1.9,0.3c-1.6,0-2.4-0.4-2.6-1.8l-0.6-3c-0.3-1.6-1-2.1-2.5-2.1h-2.3C77.3,399.8,77.3,399,77.3,399z"
			/>
		<path d="M87.9,401.5c0-3.4,2.4-5.4,5.1-5.4s5.1,2,5.1,5.4s-2.3,5.4-5.1,5.4C90.1,406.9,87.9,404.9,87.9,401.5z M95.4,401.5
			c0-2.9-0.8-4.4-2.4-4.4c-1.5,0-2.4,1.4-2.4,4.4s0.8,4.3,2.4,4.3S95.4,404.5,95.4,401.5z"/>
		<path d="M103.5,400.8c0.9-0.3,2.3-0.7,3.4-0.9v0.8c-1,0.2-2.2,0.6-2.8,0.9c-1.4,0.6-1.9,1.3-1.9,2.2c0,1.1,0.7,1.6,1.5,1.6
			c0.6,0,1-0.2,2-0.9l0.6-0.5l0.3,0.4l-0.8,0.8c-1.2,1.2-1.8,1.8-3.3,1.8c-1.6,0-2.8-0.9-2.8-2.7
			C99.7,402.8,100.4,401.8,103.5,400.8z M105.5,404.7v-5.1c0-2-0.5-2.5-1.9-2.5c-0.5,0-1.1,0.1-2,0.3l1.2-0.7l-0.4,1.7
			c-0.1,1-0.6,1.5-1.3,1.5c-0.7,0-1.1-0.3-1.2-1c0.3-1.7,1.9-2.8,4.5-2.8c2.5,0,3.5,1.1,3.5,3.9v4.7c0,0.7,0.2,1,0.6,1
			c0.3,0,0.5-0.2,0.7-0.5l0.5,0.4c-0.5,1-1.2,1.4-2.2,1.4C106.4,406.8,105.6,406,105.5,404.7z"/>
		<path d="M116.1,405.4c1.1,0,1.8-0.6,2.6-1.8l0.2,0.5c-0.9,1.9-2.1,2.8-3.9,2.8c-2.5,0-4.3-2-4.3-5.3c0-3.4,2.1-5.5,4.6-5.5
			c1.5,0,2.5,0.8,3.5,2.5l-0.2,0.5c-1-1.1-1.8-1.5-2.6-1.5c-1.4,0-2.6,1.2-2.6,4C113.5,404.1,114.6,405.4,116.1,405.4z M121.9,405.7
			v0.9l-3.7,0.2l-0.2-2v-6.7l0.1-0.3V393l-1.7-0.2V392l3.9-1l0.3,0.2l-0.1,3v12.4l-0.9-1.3L121.9,405.7z"/>
		<path d="M124.4,406.6c0-1,0.1-3.2,0.1-4.5V401c0-1.2,0-1.7-0.1-2.6l-1.5-0.2v-0.8l3.6-1.3l0.3,0.2l0.2,2.4v3.4
			c0,1.3,0,3.5,0.1,4.5H124.4z M128.3,405.7v0.9H123v-0.9l2.2-0.4h1L128.3,405.7z M133.4,399.9v2.2c0,1.4,0,3.5,0.1,4.5h-2.7
			c0-1,0.1-3.1,0.1-4.5v-1.9c0-1.7-0.4-2.3-1.5-2.3c-1,0-1.9,0.6-2.8,1.5H126v-1.2h1.2l-0.8,0.5c1.2-1.6,2.6-2.6,4.1-2.6
			C132.4,396.1,133.4,397.2,133.4,399.9z M132.6,405.3l2,0.4v0.9h-5.2v-0.9l2.1-0.4H132.6z M139.7,399.8v2.3c0,1.4,0,3.5,0.1,4.5
			h-2.7c0-1,0.1-3.1,0.1-4.5v-2c0-1.8-0.4-2.3-1.5-2.3c-0.9,0-1.8,0.5-2.8,1.5h-0.6v-1.1h1.3l-0.9,0.4c1.3-1.9,2.7-2.6,4.2-2.6
			C138.8,396.1,139.7,397.2,139.7,399.8z M139,405.3l2.1,0.4v0.9h-5.2v-0.9l2.1-0.4H139z"/>
		<path d="M146.1,400.8c0.9-0.3,2.3-0.7,3.4-0.9v0.8c-1,0.2-2.2,0.6-2.8,0.9c-1.4,0.6-1.9,1.3-1.9,2.2c0,1.1,0.7,1.6,1.5,1.6
			c0.6,0,1-0.2,2-0.9l0.6-0.5l0.3,0.4l-0.8,0.8c-1.2,1.2-1.8,1.8-3.3,1.8c-1.6,0-2.8-0.9-2.8-2.7
			C142.3,402.8,143.1,401.8,146.1,400.8z M148.2,404.7v-5.1c0-2-0.5-2.5-1.9-2.5c-0.5,0-1.1,0.1-2,0.3l1.2-0.7l-0.4,1.7
			c-0.1,1-0.6,1.5-1.3,1.5s-1.1-0.3-1.2-1c0.3-1.7,1.9-2.8,4.5-2.8c2.5,0,3.5,1.1,3.5,3.9v4.7c0,0.7,0.2,1,0.6,1
			c0.3,0,0.5-0.2,0.7-0.5l0.5,0.4c-0.5,1-1.2,1.4-2.2,1.4C149,406.8,148.3,406,148.2,404.7z"/>
		<path d="M154.3,401c0-1.2,0-1.7-0.1-2.6l-1.5-0.2v-0.8l3.5-1.3l0.3,0.2l0.2,1.7l0.1,0.2v6.7l-0.1,0.2v1.8c0,1.4,0,3,0.1,4.7h-2.6
			c0-1.7,0.1-3.2,0.1-4.6V401z M158.6,410.7v0.9h-5.7v-0.9l2.2-0.4h1.3L158.6,410.7z M158.9,397.6c-1,0-2,0.8-3.1,1.9l-0.2-0.4
			c1.2-2.1,2.6-3,4.3-3c2.3,0,4.1,1.9,4.1,5.4c0,3.4-2,5.5-4.5,5.5c-1.6,0-2.8-0.8-3.9-3.1l0.2-0.4c1,1.3,1.8,1.9,2.9,1.9
			c1.4,0,2.6-1.2,2.6-3.8C161.3,398.9,160.4,397.6,158.9,397.6z"/>
		<path d="M172.3,393.8l-2.9-0.3v-1h6.3v1l-2.8,0.3H172.3z M170.3,392.4h3l3.9,11.4l-0.5,0.2l3.9-11.7h1.3l-4.9,14.2h-1.5
			L170.3,392.4z M180.6,393.8l-2.2-0.3v-1h4.8v1l-2.2,0.3H180.6z"/>
		<path d="M184.4,404.9c1.1-1,2.1-2.1,3-3c2.1-2.1,3.1-3.7,3.1-5.5c0-1.7-0.9-2.7-2.4-2.7c-0.6,0-1.3,0.1-2.1,0.5l1.4-0.9l-0.4,2
			c-0.3,1.2-0.8,1.6-1.4,1.6c-0.5,0-1-0.3-1.2-0.8c0.1-2.3,2.2-3.4,4.6-3.4c2.9,0,4.2,1.5,4.2,3.7c0,2-1.2,3.5-4.6,6.3
			c-0.7,0.6-1.6,1.4-2.6,2.2l-0.3-0.4h7.9v2.2h-9.1L184.4,404.9L184.4,404.9z"/>
		<path d="M200,400.4h5.2v1.6H200V400.4z"/>
		<path d="M74,417v-1h3.2v1.3H77L74,417z M77.2,428.8v1.3H74v-1l2.9-0.3H77.2z M75.9,422.6c0-2.2,0-4.4-0.1-6.6h2.9
			c-0.1,2.2-0.1,4.4-0.1,6.6v0.8c0,2.4,0,4.6,0.1,6.8h-2.9c0.1-2.2,0.1-4.4,0.1-6.6V422.6z M82.8,416l1.3,1.1h-6.8V416h7.5l0.1,3.7
			h-1.5L82.8,416z M82,423.4h-4.8v-1.1H82V423.4z M85.4,426.4l-0.1,3.7h-8V429h7.2l-1.3,1.1l0.6-3.7H85.4z M81.3,422.6l0.3-2.2h1.1
			v4.8h-1.1l-0.3-2.3V422.6z"/>
		<path d="M88.6,428.9l1.8,0.3v0.9h-4.2v-0.9l1.8-0.3H88.6z M88.5,421.2l-2.2-0.3V420h5.3v0.9l-2,0.3H88.5z M86.7,430.1l4.5-5.9
			l0.8,0.5l-3.9,5.4H86.7z M89.8,419.9l2.8,4.1l4,6.1h-3l-2.9-4.4l-3.8-5.8L89.8,419.9L89.8,419.9z M96.5,419.9l-4.4,5.6l-0.7-0.6
			l3.6-5.1h1.5V419.9z M94.9,428.8l2.4,0.4v0.9h-5.6v-0.9l2.6-0.4H94.9z M94.6,421.1l-1.6-0.3v-0.9h3.9v0.9l-1.7,0.3H94.6z"/>
		<path d="M99.2,424.5c0-1.2,0-1.7-0.1-2.6l-1.5-0.2V421l3.5-1.3l0.3,0.2l0.2,1.7l0.1,0.2v6.7l-0.1,0.2v1.8c0,1.4,0,3,0.1,4.7h-2.6
			c0-1.7,0.1-3.2,0.1-4.6V424.5z M103.4,434.2v0.9h-5.7v-0.9l2.2-0.4h1.3L103.4,434.2z M103.8,421.1c-1,0-2,0.8-3.1,1.9l-0.2-0.4
			c1.2-2.1,2.6-3,4.3-3c2.3,0,4.1,1.9,4.1,5.4c0,3.4-2,5.5-4.5,5.5c-1.6,0-2.8-0.8-3.9-3.1l0.2-0.4c1,1.3,1.8,1.9,2.9,1.9
			c1.4,0,2.6-1.2,2.6-3.8C106.2,422.5,105.2,421.1,103.8,421.1z"/>
		<path d="M114.3,424.4c0.9-0.3,2.3-0.7,3.4-0.9v0.8c-1,0.2-2.2,0.6-2.8,0.9c-1.4,0.6-1.9,1.3-1.9,2.2c0,1.1,0.7,1.6,1.5,1.6
			c0.6,0,1-0.2,2-0.9l0.6-0.5l0.3,0.4l-0.8,0.8c-1.2,1.2-1.8,1.8-3.3,1.8c-1.6,0-2.8-0.9-2.8-2.7
			C110.4,426.4,111.2,425.4,114.3,424.4z M116.3,428.3v-5.1c0-2-0.5-2.5-1.9-2.5c-0.5,0-1.1,0.1-2,0.3l1.2-0.7l-0.4,1.7
			c-0.1,1-0.6,1.5-1.3,1.5c-0.7,0-1.1-0.3-1.2-1c0.3-1.7,1.9-2.8,4.5-2.8c2.5,0,3.5,1.1,3.5,3.9v4.7c0,0.7,0.2,1,0.6,1
			c0.3,0,0.5-0.2,0.7-0.5l0.5,0.4c-0.5,1-1.2,1.4-2.2,1.4C117.2,430.4,116.4,429.6,116.3,428.3z"/>
		<path d="M122.7,430.1c0-1,0.1-3.2,0.1-4.5v-1.1c0-1.2,0-1.7-0.1-2.6l-1.5-0.2V421l3.6-1.3l0.3,0.2l0.2,2.4v3.4
			c0,1.3,0,3.5,0.1,4.5h-2.7V430.1z M126.6,429.3v0.9h-5.3v-0.9l2.2-0.4h1L126.6,429.3z M131.8,423.4v2.2c0,1.4,0,3.5,0.1,4.5h-2.7
			c0-1,0.1-3.1,0.1-4.5v-2c0-1.7-0.4-2.2-1.5-2.2c-0.9,0-1.9,0.5-2.9,1.5h-0.6v-1.2h1.3l-0.9,0.5c1.3-1.8,2.7-2.6,4.2-2.6
			C130.7,419.6,131.8,420.8,131.8,423.4z M131,428.8l2.1,0.4v0.9h-5.3v-0.9l2.1-0.4H131z"/>
		<path d="M134.5,429.5V427h1.4l0.5,2.7l-1.1-0.5v-0.8c0.8,0.6,1.6,0.9,2.6,0.9c1.4,0,2.2-0.5,2.2-1.4c0-0.8-0.5-1.2-1.9-1.7
			l-1.1-0.3c-1.6-0.5-2.6-1.5-2.6-3c0-1.8,1.4-3.2,4.1-3.2c1.2,0,2.2,0.3,3.2,0.9l-0.1,2.2h-1.4l-0.5-2.4l1,0.4v0.7
			c-0.7-0.5-1.3-0.7-2.2-0.7c-1.1,0-1.8,0.5-1.8,1.3s0.4,1.2,1.9,1.6l0.8,0.3c2.1,0.7,2.9,1.8,2.9,3.2c0,1.9-1.6,3.3-4.5,3.3
			C136.7,430.4,135.6,430.1,134.5,429.5z"/>
		<path d="M145.1,430.1c0-1,0.1-3.2,0.1-4.5v-1c0-1.2,0-1.8-0.1-2.7l-1.5-0.2V421l3.9-1.3l0.3,0.2l-0.1,3v2.8c0,1.3,0,3.5,0.1,4.5
			h-2.7V430.1z M149.1,429.3v0.9h-5.3v-0.9l2.2-0.4h1L149.1,429.3z M144.8,416.1c0-0.9,0.7-1.5,1.6-1.5c0.9,0,1.6,0.6,1.6,1.5
			s-0.7,1.5-1.6,1.5S144.8,417,144.8,416.1z"/>
		<path d="M150.4,425c0-3.4,2.4-5.4,5.1-5.4c2.7,0,5.1,2,5.1,5.4s-2.3,5.4-5.1,5.4S150.4,428.4,150.4,425z M157.9,425.1
			c0-2.9-0.8-4.4-2.4-4.4c-1.5,0-2.4,1.4-2.4,4.4s0.8,4.3,2.4,4.3C157.1,429.4,157.9,428,157.9,425.1z"/>
		<path d="M163.6,430.1c0-1,0.1-3.2,0.1-4.5v-1.1c0-1.2,0-1.7-0.1-2.6l-1.5-0.2V421l3.6-1.3l0.3,0.2l0.2,2.4v3.4
			c0,1.3,0,3.5,0.1,4.5h-2.7V430.1z M167.5,429.3v0.9h-5.3v-0.9l2.2-0.4h1L167.5,429.3z M172.6,423.4v2.2c0,1.4,0,3.5,0.1,4.5H170
			c0-1,0.1-3.1,0.1-4.5v-2c0-1.7-0.4-2.2-1.5-2.2c-0.9,0-1.9,0.5-2.9,1.5h-0.6v-1.2h1.3l-0.9,0.5c1.3-1.8,2.7-2.6,4.2-2.6
			C171.6,419.6,172.6,420.8,172.6,423.4z M171.9,428.8l2.1,0.4v0.9h-5.3v-0.9l2.1-0.4H171.9z"/>
		<path d="M193.4,423.1c0,4.8-3.2,7.4-6.6,7.4c-3.4,0-6.6-2.5-6.6-7.4c0-4.8,3.3-7.4,6.6-7.4S193.4,418.2,193.4,423.1z M186.8,429.3
			c2.6,0,3.6-2.9,3.6-6.3s-1-6.3-3.6-6.3s-3.6,2.9-3.6,6.3S184.2,429.3,186.8,429.3z"/>
		<path d="M196.4,421.2h-1.6v-1.1l2.5-0.3l-0.9,0.5c0.2-2.5,0.8-3.7,1.7-4.6c1-1,2.2-1.4,3.3-1.4s2.1,0.4,2.3,1.3
			c0,0.7-0.5,1.2-1.4,1.2c-0.6,0-1.2-0.3-1.7-1.1l-0.8-0.8l1.9-0.5l0.4,0.6c-0.2-0.1-0.5-0.3-0.8-0.3c-0.7,0-1.3,0.5-1.7,1.1
			c-0.6,0.9-0.8,2.4-0.6,4.9v4.8c0,1.5,0,3,0.1,4.5h-2.7c0-1.5,0.1-3,0.1-4.5v-4.3H196.4z M200.8,429.3v0.9h-5.9v-0.9l2.3-0.4h1.3
			L200.8,429.3z M201.5,419.9v1.3h-3.9v-1.3H201.5z"/>
		<path d="M74,440.5v-1h3.2v1.3H77L74,440.5z M77.2,452.4v1.3H74v-1l2.9-0.3H77.2z M75.9,446.2c0-2.2,0-4.4-0.1-6.6h2.9
			c-0.1,2.2-0.1,4.4-0.1,6.6v0.8c0,2.4,0,4.6,0.1,6.8h-2.9c0.1-2.2,0.1-4.4,0.1-6.6V446.2z M82.8,439.5l1.3,1.1h-6.8v-1.1h7.5
			l0.1,3.7h-1.5L82.8,439.5z M82,447h-4.8v-1.1H82V447z M85.4,450l-0.1,3.7h-8v-1.1h7.2l-1.3,1.1l0.6-3.7H85.4z M81.3,446.2l0.3-2.2
			h1.1v4.8h-1.1l-0.3-2.3V446.2z"/>
		<path d="M89.3,448.3c0,2.6,1.3,4,3.2,4c1.1,0,2-0.5,2.7-1.4l0.6,0.5c-0.7,1.8-2.2,2.7-4.2,2.7c-2.9,0-5-2-5-5.4s2.5-5.4,5.3-5.4
			c2.1,0,3.7,1.3,3.9,2.9c-0.2,0.7-0.6,1-1.2,1c-0.8,0-1.3-0.5-1.4-1.5l-0.4-1.7l1.3,0.8c-0.7-0.3-1.3-0.5-2-0.5
			C90.7,444.2,89.3,445.5,89.3,448.3z"/>
		<path d="M97.2,448.6c0-3.4,2.4-5.4,5.1-5.4s5.1,2,5.1,5.4s-2.3,5.4-5.1,5.4S97.2,452,97.2,448.6z M104.8,448.6
			c0-2.9-0.8-4.4-2.4-4.4c-1.5,0-2.4,1.4-2.4,4.4s0.8,4.3,2.4,4.3C103.9,453,104.8,451.6,104.8,448.6z"/>
		<path d="M109.2,453.1v-2.5h1.4l0.5,2.7l-1.1-0.5V452c0.8,0.6,1.6,0.9,2.6,0.9c1.4,0,2.2-0.5,2.2-1.4c0-0.8-0.5-1.2-1.9-1.7
			l-1.1-0.3c-1.6-0.5-2.6-1.5-2.6-3c0-1.8,1.4-3.2,4.1-3.2c1.2,0,2.2,0.3,3.2,0.9l-0.1,2.2H115l-0.5-2.4l1,0.4v0.7
			c-0.7-0.5-1.3-0.7-2.2-0.7c-1.1,0-1.8,0.5-1.8,1.3s0.4,1.2,1.9,1.6l0.8,0.3c2.1,0.7,2.9,1.8,2.9,3.2c0,1.9-1.6,3.3-4.5,3.3
			C111.3,454,110.3,453.7,109.2,453.1z"/>
		<path d="M117.7,457.4c0.2-0.8,0.8-1.1,1.6-1.1c0.6,0,1.1,0.2,1.7,0.9l0.7,0.8l-0.8,0.4l-0.6-0.4c1.2-0.7,2.1-2,2.6-3.4l0.9-2.6
			l3-8.5h1.3l-4.1,10.6c-1.2,3.3-2.3,4.8-4.2,4.8C118.7,458.9,117.7,458.2,117.7,457.4z M119.7,444.7l-2-0.3v-0.8h5.6v0.8l-2.2,0.3
			H119.7z M123.1,454.9l-4.7-11.4h2.8l3.1,8.5L123.1,454.9z M126.7,444.6l-2-0.3v-0.8h4.1v0.8l-1.7,0.3H126.7z"/>
		<path d="M129.4,453.1v-2.5h1.4l0.5,2.7l-1.1-0.5V452c0.8,0.6,1.6,0.9,2.6,0.9c1.4,0,2.2-0.5,2.2-1.4c0-0.8-0.5-1.2-1.9-1.7
			l-1.1-0.3c-1.6-0.5-2.6-1.5-2.6-3c0-1.8,1.4-3.2,4.1-3.2c1.2,0,2.2,0.3,3.2,0.9l-0.1,2.2h-1.4l-0.5-2.4l1,0.4v0.7
			c-0.7-0.5-1.3-0.7-2.2-0.7c-1.1,0-1.8,0.5-1.8,1.3s0.4,1.2,1.9,1.6l0.8,0.3c2.1,0.7,2.9,1.8,2.9,3.2c0,1.9-1.6,3.3-4.5,3.3
			C131.6,454,130.5,453.7,129.4,453.1z"/>
		<path d="M143.5,452.6c0.4,0,0.8-0.2,1.3-0.5l0.5,0.5c-0.5,0.9-1.5,1.4-2.8,1.4c-1.7,0-2.7-0.8-2.7-2.7c0-0.6,0-1.1,0-2v-4.6h-1.6
			v-1.1l2.6-0.3l-1,0.8l1-3.6h1.7l-0.1,3.8v6.7C142.4,452.1,142.8,452.6,143.5,452.6z M144.9,443.5v1.3H141v-1.3H144.9z"/>
		<path d="M155.4,447.5c0,0.5,0,0.9-0.1,1.2h-8.1v-1h4.5c1,0,1.3-0.4,1.3-1.2c0-1.3-0.8-2.2-1.9-2.2c-1.1,0-2.3,1.1-2.3,4.1
			c0,2.7,1.3,4,3.2,4c1.3,0,2.1-0.5,2.8-1.3l0.6,0.5c-0.8,1.6-2.3,2.5-4.3,2.5c-3,0-5-2-5-5.3c0-3.4,2.5-5.5,5.2-5.5
			C153.7,443.2,155.4,444.9,155.4,447.5z"/>
		<path d="M158.3,453.7c0-1,0.1-3.2,0.1-4.5v-1.1c0-1.2,0-1.7-0.1-2.6l-1.5-0.2v-0.8l3.6-1.3l0.3,0.2l0.2,2.4v3.4
			c0,1.3,0,3.5,0.1,4.5H158.3z M162.2,452.8v0.9h-5.3v-0.9l2.2-0.4h1L162.2,452.8z M167.3,447v2.2c0,1.4,0,3.5,0.1,4.5h-2.7
			c0-1,0.1-3.1,0.1-4.5v-1.9c0-1.7-0.4-2.3-1.5-2.3c-1,0-1.9,0.6-2.8,1.5h-0.6v-1.2h1.2l-0.8,0.5c1.2-1.6,2.6-2.6,4.1-2.6
			C166.3,443.2,167.3,444.4,167.3,447z M166.5,452.4l2,0.4v0.9h-5.2v-0.9l2.1-0.4H166.5z M173.6,446.9v2.3c0,1.4,0,3.5,0.1,4.5H171
			c0-1,0.1-3.1,0.1-4.5v-2c0-1.8-0.4-2.3-1.5-2.3c-0.9,0-1.8,0.5-2.8,1.5h-0.6v-1.1h1.3l-0.9,0.4c1.3-1.9,2.7-2.6,4.2-2.6
			C172.6,443.2,173.6,444.3,173.6,446.9z M172.9,452.4l2.1,0.4v0.9h-5.2v-0.9l2.1-0.4H172.9z"/>
	</g>
	<g>
		<path class="st33" d="M138.8,95.9c-3,0-5.7-0.5-8.2-1.4c-2.5-1-4.7-2.3-6.5-4.1s-3.3-3.8-4.3-6.1c-1-2.3-1.5-4.9-1.5-7.7
			c0-2.8,0.5-5.4,1.5-7.7c1-2.3,2.5-4.4,4.3-6.1s4-3.1,6.5-4.1s5.2-1.4,8.2-1.4s5.8,0.5,8.2,1.4c2.5,1,4.7,2.3,6.5,4
			c1.8,1.7,3.3,3.8,4.3,6.1c1,2.4,1.6,4.9,1.6,7.7c0,2.8-0.5,5.4-1.6,7.7c-1,2.4-2.5,4.4-4.3,6.1s-4,3.1-6.5,4
			C144.6,95.4,141.8,95.9,138.8,95.9z M138.8,87.2c1.4,0,2.7-0.2,3.9-0.7s2.3-1.2,3.2-2.1s1.6-2.1,2.1-3.4s0.8-2.8,0.8-4.3
			c0-1.6-0.3-3.1-0.8-4.4s-1.2-2.4-2.1-3.3c-0.9-0.9-2-1.7-3.2-2.1c-1.2-0.5-2.5-0.7-3.9-0.7s-2.7,0.2-3.9,0.7s-2.3,1.2-3.2,2.1
			s-1.6,2-2.1,3.3s-0.8,2.7-0.8,4.4c0,1.6,0.3,3,0.8,4.3s1.2,2.4,2.1,3.4c0.9,0.9,2,1.7,3.2,2.1C136.1,87,137.4,87.2,138.8,87.2z
			 M150.9,104.1c-1.6,0-3.1-0.2-4.5-0.5s-2.7-0.9-4.1-1.6c-1.3-0.7-2.7-1.7-4.1-3s-3-2.8-4.8-4.7l11-2.8c0.9,1.3,1.7,2.3,2.4,3.1
			c0.7,0.7,1.4,1.3,2.1,1.6c0.7,0.3,1.4,0.5,2.2,0.5c2,0,3.9-0.9,5.6-2.6l4.6,5.4C158.8,102.6,155.3,104.1,150.9,104.1z"/>
		<path class="st33" d="M167.6,95.6c-1.7,0-3.1-0.6-4.3-1.7s-1.7-2.6-1.7-4.3c0-1.8,0.6-3.2,1.7-4.3c1.2-1.1,2.6-1.6,4.3-1.6
			s3.1,0.5,4.3,1.6s1.7,2.5,1.7,4.3c0,1.7-0.6,3.2-1.7,4.3C170.8,95.1,169.3,95.6,167.6,95.6z"/>
		<path class="st33" d="M181.4,95.2V61.8l4.5,4.3h-11.4V58h17.4v37.1L181.4,95.2L181.4,95.2z"/>
	</g>
	<g>
		<path class="st29" d="M117.4,131.5v-4.2l8.9-8.3c0.6-0.6,1.1-1.1,1.4-1.6c0.3-0.5,0.5-0.9,0.6-1.2s0.2-0.7,0.2-1
			c0-0.8-0.3-1.4-0.8-1.8s-1.3-0.6-2.3-0.6c-0.9,0-1.7,0.2-2.4,0.6c-0.7,0.4-1.4,1-1.8,1.7l-5-2.8c0.9-1.5,2.2-2.7,3.8-3.6
			c1.7-0.9,3.7-1.4,6-1.4c1.8,0,3.4,0.3,4.8,0.9s2.5,1.4,3.2,2.5c0.8,1.1,1.2,2.4,1.2,3.8c0,0.8-0.1,1.5-0.3,2.3s-0.6,1.6-1.2,2.4
			c-0.6,0.9-1.4,1.8-2.6,2.8l-7.1,6.5l-1.1-2.4h12.9v5.3h-18.4V131.5z"/>
		<path class="st29" d="M148.4,132c-2,0-3.8-0.5-5.4-1.5c-1.6-1-2.8-2.4-3.7-4.2s-1.4-4.1-1.4-6.7s0.5-4.9,1.4-6.7
			c0.9-1.8,2.1-3.2,3.7-4.2c1.6-1,3.4-1.5,5.4-1.5s3.8,0.5,5.4,1.5c1.6,1,2.8,2.4,3.7,4.2c0.9,1.8,1.4,4.1,1.4,6.7s-0.5,4.9-1.4,6.7
			c-0.9,1.8-2.1,3.2-3.7,4.2S150.4,132,148.4,132z M148.4,126.5c0.7,0,1.4-0.2,1.9-0.7c0.6-0.5,1-1.2,1.3-2.2s0.5-2.3,0.5-4
			s-0.2-3-0.5-4s-0.8-1.7-1.3-2.2c-0.6-0.5-1.2-0.7-1.9-0.7s-1.4,0.2-1.9,0.7c-0.6,0.5-1,1.2-1.3,2.2s-0.5,2.3-0.5,4s0.2,3,0.5,4
			s0.8,1.7,1.3,2.2S147.7,126.5,148.4,126.5z"/>
		<path class="st29" d="M160.8,131.5v-4.2l8.9-8.3c0.6-0.6,1.1-1.1,1.4-1.6c0.3-0.5,0.5-0.9,0.6-1.2c0.1-0.4,0.2-0.7,0.2-1
			c0-0.8-0.3-1.4-0.8-1.8s-1.3-0.6-2.3-0.6c-0.9,0-1.7,0.2-2.4,0.6s-1.4,1-1.8,1.7l-5-2.8c0.9-1.5,2.2-2.7,3.8-3.6
			c1.7-0.9,3.7-1.4,6-1.4c1.8,0,3.4,0.3,4.8,0.9c1.4,0.6,2.5,1.4,3.2,2.5c0.8,1.1,1.2,2.4,1.2,3.8c0,0.8-0.1,1.5-0.3,2.3
			s-0.6,1.6-1.2,2.4c-0.6,0.9-1.4,1.8-2.6,2.8l-7.1,6.5l-1.1-2.4h12.9v5.3h-18.4V131.5z"/>
		<path class="st29" d="M189.3,132c-1.7,0-3.3-0.2-4.9-0.6c-1.6-0.4-3.1-1-4.3-1.7l2.4-5.1c1,0.6,2,1.1,3.2,1.5
			c1.2,0.3,2.3,0.5,3.4,0.5c1.2,0,2.1-0.2,2.8-0.6s1-1,1-1.8c0-0.7-0.3-1.3-0.8-1.7s-1.5-0.6-2.8-0.6h-2.8v-4.2l6.4-6.9l0.6,2.3
			h-12.2v-5.2h17.2v4.2l-6.4,6.9l-3.3-1.9h1.8c3,0,5.2,0.7,6.8,2c1.5,1.3,2.3,3,2.3,5.1c0,1.4-0.4,2.6-1.1,3.8
			c-0.7,1.2-1.9,2.2-3.4,2.9C193.6,131.6,191.7,132,189.3,132z"/>
	</g>
</g>
</svg>
