<?xml version="1.0" encoding="utf-8"?>
<!-- Generator: Adobe Illustrator 26.0.0, SVG Export Plug-In . SVG Version: 6.00 Build 0)  -->
<svg version="1.1" xmlns="http://www.w3.org/2000/svg" xmlns:xlink="http://www.w3.org/1999/xlink" x="0px" y="0px"
	 viewBox="0 0 336 523" style="enable-background:new 0 0 336 523;" xml:space="preserve">
<style type="text/css">
	.st0{fill:#FFFFFF;}
	.st1{fill:#9E005D;}
	.st2{fill:url(#SVGID_1_);}
	.st3{fill:#1A1A1A;}
	.st4{fill:url(#SVGID_00000168089635017862851210000008734337894068606895_);}
	.st5{fill:url(#SVGID_00000111178707508088623240000017793715931650396544_);}
	.st6{fill:url(#SVGID_00000070840733076849389940000005718603486226011281_);}
	.st7{fill:url(#SVGID_00000009567065551367745210000004628319744412547201_);}
	.st8{fill:url(#SVGID_00000025411570264201907010000010577960779034621594_);}
	.st9{fill:url(#SVGID_00000162332693469815710300000011928127000535593610_);}
	.st10{fill:url(#SVGID_00000050659511460809622850000016973389533196261796_);}
	.st11{fill:url(#SVGID_00000003106915002113789140000002001594859346231424_);}
	.st12{fill:url(#SVGID_00000050638671654762310650000010293226121448525247_);}
	.st13{fill:url(#SVGID_00000166658096121790594070000006205295825782042002_);}
	.st14{fill:url(#SVGID_00000065781301014771485340000012758908609966026383_);}
	.st15{fill:url(#SVGID_00000088109828459284505320000009754071239359265417_);}
	.st16{fill:url(#SVGID_00000109733909396487446410000006385616234565509291_);}
	.st17{fill:url(#SVGID_00000000930444454331451620000007703681232911583644_);}
	.st18{fill:url(#SVGID_00000157988378855653523080000005827045217320764851_);}
	.st19{fill:url(#SVGID_00000085930358496831218220000008040225572924165533_);}
	.st20{fill:url(#SVGID_00000069396697422354771280000017142594659209002657_);}
	.st21{fill:url(#SVGID_00000168102662876329620710000013006572773982616234_);}
	.st22{fill:url(#SVGID_00000083771524135495230130000011102630714677355708_);}
	.st23{fill:url(#SVGID_00000103967956311722829750000011308049333920662915_);}
	.st24{fill:url(#SVGID_00000155826450327176768260000013879156409570499715_);}
	.st25{fill:url(#SVGID_00000065046205207355847030000006130964533444515249_);}
	.st26{fill:#808080;}
	.st27{fill:url(#SVGID_00000004504409479864780470000009936797964433108612_);}
	.st28{fill:url(#SVGID_00000008840041942971501190000003731518657492290473_);}
	.st29{fill:url(#SVGID_00000142884682301931667200000003467592469475572155_);}
	.st30{fill:url(#SVGID_00000178910119799006239550000010693717582191457979_);}
	.st31{fill:url(#SVGID_00000073698264749349462800000011990108867328679847_);}
	.st32{fill:url(#SVGID_00000137092433002280445840000011671356246901991839_);}
	.st33{fill:url(#SVGID_00000125604777054576331680000006085688552568883595_);}
	.st34{fill:url(#SVGID_00000060746404737821034140000012083187867412384440_);}
	.st35{fill:url(#SVGID_00000152960404822168669880000006309987347851670454_);}
	.st36{fill:url(#SVGID_00000018198344273543378040000006775356203089711517_);}
	.st37{fill:url(#SVGID_00000087406387385963241220000010141806434551986851_);}
	.st38{fill:url(#SVGID_00000053508354088906521380000000993828561536923548_);}
	.st39{fill:url(#SVGID_00000106115720817166041850000015265419691492107173_);}
	.st40{fill:url(#SVGID_00000004530043811807346330000013320136646374199180_);}
	.st41{fill:url(#SVGID_00000183210224208123649730000016578389751808073658_);}
	.st42{fill:url(#SVGID_00000168799908169148272250000003807228020006403991_);}
	.st43{fill:url(#SVGID_00000091002387222284644520000013373688154909042081_);}
	.st44{fill:url(#SVGID_00000039109549450151587250000010637315182824582289_);}
	.st45{fill:url(#SVGID_00000084521895891480546450000010318221381593269657_);}
	.st46{fill:url(#SVGID_00000073681403085082397720000007424372691483436423_);}
	.st47{fill:url(#SVGID_00000119096887495778951600000001897711191789010362_);}
	.st48{fill:url(#SVGID_00000119823068966450758730000016882788701928063935_);}
	.st49{opacity:0.7;fill:url(#SVGID_00000166663351094720602080000006201233665032565907_);enable-background:new    ;}
	.st50{filter:url(#Adobe_OpacityMaskFilter);}
	.st51{clip-path:url(#SVGID_00000015324418306985030610000009723534286084449670_);}
	
		.st52{clip-path:url(#SVGID_00000023274602258602735330000008594828008937284784_);fill:url(#SVGID_00000165954172765455608090000008656702201105288613_);}
	
		.st53{mask:url(#SVGID_00000142871794715155847410000006039819647743332748_);fill:url(#SVGID_00000058552388428906274580000010160162798029106869_);}
	.st54{opacity:0.7;fill:url(#SVGID_00000144337890484621498490000005058003224639326336_);enable-background:new    ;}
	.st55{fill:#D4145A;}
	.st56{fill:#4D4D4D;}
</style>
<g id="Layer_1">
	<g>
		<path class="st0" d="M184.8,300.8h-2.6v-2.6c0-0.4,0.3-0.7,0.7-0.7s0.7,0.3,0.7,0.7v1.1h1.1c0.4,0,0.7,0.3,0.7,0.7
			C185.6,300.4,185.2,300.8,184.8,300.8z"/>
	</g>
	<g>
		<path class="st0" d="M182.9,296.6c-0.4,0-0.7-0.3-0.7-0.7V292c0-0.4,0.3-0.7,0.7-0.7s0.7,0.3,0.7,0.7v3.9
			C183.7,296.2,183.4,296.6,182.9,296.6z M182.9,290.4c-0.4,0-0.7-0.3-0.7-0.7v-3.9c0-0.4,0.3-0.7,0.7-0.7s0.7,0.3,0.7,0.7v3.9
			C183.7,290.1,183.4,290.4,182.9,290.4z M182.9,284.2c-0.4,0-0.7-0.3-0.7-0.7v-3.9c0-0.4,0.3-0.7,0.7-0.7s0.7,0.3,0.7,0.7v3.9
			C183.7,283.9,183.4,284.2,182.9,284.2z M182.9,278.1c-0.4,0-0.7-0.3-0.7-0.7v-3.9c0-0.4,0.3-0.7,0.7-0.7s0.7,0.3,0.7,0.7v3.9
			C183.7,277.7,183.4,278.1,182.9,278.1z M182.9,271.9c-0.4,0-0.7-0.3-0.7-0.7v-3.9c0-0.4,0.3-0.7,0.7-0.7s0.7,0.3,0.7,0.7v3.9
			C183.7,271.6,183.4,271.9,182.9,271.9z M182.9,265.7c-0.4,0-0.7-0.3-0.7-0.7v-3.9c0-0.4,0.3-0.7,0.7-0.7s0.7,0.3,0.7,0.7v3.9
			C183.7,265.4,183.4,265.7,182.9,265.7z M182.9,259.6c-0.4,0-0.7-0.3-0.7-0.7V255c0-0.4,0.3-0.7,0.7-0.7s0.7,0.3,0.7,0.7v3.9
			C183.7,259.2,183.4,259.6,182.9,259.6z M182.9,253.4c-0.4,0-0.7-0.3-0.7-0.8v-3.9c0-0.4,0.3-0.7,0.7-0.7s0.7,0.3,0.7,0.7v3.9
			C183.7,253.1,183.4,253.4,182.9,253.4z M182.9,247.2c-0.4,0-0.7-0.3-0.7-0.7v-3.9c0-0.4,0.3-0.7,0.7-0.7s0.7,0.3,0.7,0.7v3.9
			C183.7,246.9,183.4,247.2,182.9,247.2z M182.9,241.1c-0.4,0-0.7-0.3-0.7-0.7v-3.9c0-0.4,0.3-0.7,0.7-0.7s0.7,0.3,0.7,0.7v3.9
			C183.7,240.7,183.4,241.1,182.9,241.1z M182.9,234.9c-0.4,0-0.7-0.3-0.7-0.7v-3.9c0-0.4,0.3-0.7,0.7-0.7s0.7,0.3,0.7,0.7v3.9
			C183.7,234.6,183.4,234.9,182.9,234.9z M182.9,228.7c-0.4,0-0.7-0.3-0.7-0.7v-3.9c0-0.4,0.3-0.7,0.7-0.7s0.7,0.3,0.7,0.7v3.9
			C183.7,228.4,183.4,228.7,182.9,228.7z"/>
	</g>
	<g>
		<path class="st0" d="M182.9,222.5c-0.4,0-0.7-0.3-0.7-0.7v-2.6h2.6c0.4,0,0.7,0.3,0.7,0.7s-0.3,0.7-0.7,0.7h-1.1v1.1
			C183.7,222.2,183.4,222.5,182.9,222.5z"/>
	</g>
	<path class="st0" d="M262.9,300.8h-3.8c-0.4,0-0.7-0.3-0.7-0.8c0-0.4,0.3-0.7,0.7-0.7h3.8c0.4,0,0.7,0.3,0.7,0.7
		C263.6,300.4,263.3,300.8,262.9,300.8z"/>
	<path class="st0" d="M256.8,300.8H253c-0.4,0-0.7-0.3-0.7-0.8c0-0.4,0.3-0.7,0.7-0.7h3.8c0.4,0,0.7,0.3,0.7,0.7
		C257.6,300.4,257.3,300.8,256.8,300.8z"/>
	<path class="st0" d="M250.8,300.8H247c-0.4,0-0.8-0.3-0.8-0.8c0-0.4,0.3-0.7,0.8-0.7h3.8c0.4,0,0.7,0.3,0.7,0.7
		C251.6,300.4,251.3,300.8,250.8,300.8z"/>
	<path class="st0" d="M244.8,300.8H241c-0.4,0-0.7-0.3-0.7-0.8c0-0.4,0.3-0.7,0.7-0.7h3.8c0.4,0,0.7,0.3,0.7,0.7
		C245.6,300.4,245.3,300.8,244.8,300.8z"/>
	<path class="st0" d="M238.8,300.8H235c-0.4,0-0.7-0.3-0.7-0.8c0-0.4,0.3-0.7,0.7-0.7h3.8c0.4,0,0.7,0.3,0.7,0.7
		C239.6,300.4,239.3,300.8,238.8,300.8z"/>
	<path class="st0" d="M232.8,300.8H229c-0.4,0-0.7-0.3-0.7-0.8c0-0.4,0.3-0.7,0.7-0.7h3.8c0.4,0,0.7,0.3,0.7,0.7
		C233.6,300.4,233.2,300.8,232.8,300.8z"/>
	<path class="st0" d="M226.8,300.8H223c-0.4,0-0.7-0.3-0.7-0.8c0-0.4,0.3-0.7,0.7-0.7h3.8c0.4,0,0.7,0.3,0.7,0.7
		C227.6,300.4,227.2,300.8,226.8,300.8z"/>
	<path class="st0" d="M220.8,300.8H217c-0.4,0-0.7-0.3-0.7-0.8c0-0.4,0.3-0.7,0.7-0.7h3.8c0.4,0,0.7,0.3,0.7,0.7
		C221.6,300.4,221.2,300.8,220.8,300.8z"/>
	<path class="st0" d="M214.8,300.8H211c-0.4,0-0.7-0.3-0.7-0.8c0-0.4,0.3-0.7,0.7-0.7h3.8c0.4,0,0.7,0.3,0.7,0.7
		C215.6,300.4,215.2,300.8,214.8,300.8z"/>
	<path class="st0" d="M208.8,300.8H205c-0.4,0-0.7-0.3-0.7-0.8c0-0.4,0.3-0.7,0.7-0.7h3.8c0.4,0,0.7,0.3,0.7,0.7
		C209.6,300.4,209.2,300.8,208.8,300.8z"/>
	<path class="st0" d="M202.8,300.8H199c-0.4,0-0.7-0.3-0.7-0.8c0-0.4,0.3-0.7,0.7-0.7h3.8c0.4,0,0.7,0.3,0.7,0.7
		C203.6,300.4,203.2,300.8,202.8,300.8z"/>
	<path class="st0" d="M196.8,300.8H193c-0.4,0-0.7-0.3-0.7-0.8c0-0.4,0.3-0.7,0.7-0.7h3.8c0.4,0,0.7,0.3,0.7,0.7
		C197.6,300.4,197.2,300.8,196.8,300.8z"/>
	<path class="st0" d="M190.8,300.8H187c-0.4,0-0.7-0.3-0.7-0.8c0-0.4,0.3-0.7,0.7-0.7h3.8c0.4,0,0.7,0.3,0.7,0.7
		C191.6,300.4,191.2,300.8,190.8,300.8z"/>
	<path class="st0" d="M265,300.4c-0.3,0-0.5-0.1-0.6-0.4c-0.2-0.4-0.1-0.8,0.3-1c0.2-0.1,0.4-0.3,0.5-0.4l0.3-0.4l1.7-1.7
		c0.3-0.3,0.8-0.3,1.1,0c0.3,0.3,0.3,0.8,0,1.1l-1.6,1.6l-0.1,0.2c-0.2,0.4-0.6,0.7-1,1C265.3,300.4,265.2,300.4,265,300.4z"/>
	<path class="st0" d="M269.3,296.2c-0.2,0-0.4-0.1-0.5-0.2c-0.3-0.3-0.3-0.8,0-1.1l2.7-2.7c0.3-0.3,0.8-0.3,1.1,0
		c0.3,0.3,0.3,0.8,0,1.1l-2.7,2.7C269.6,296.1,269.5,296.2,269.3,296.2z"/>
	<path class="st0" d="M273.5,292c-0.2,0-0.4-0.1-0.5-0.2c-0.3-0.3-0.3-0.8,0-1.1l2.7-2.7c0.3-0.3,0.8-0.3,1.1,0
		c0.3,0.3,0.3,0.8,0,1.1l-2.7,2.7C273.9,291.9,273.7,292,273.5,292z"/>
	<path class="st0" d="M277.8,287.7c-0.2,0-0.4-0.1-0.5-0.2c-0.3-0.3-0.3-0.8,0-1.1l2.7-2.7c0.3-0.3,0.8-0.3,1.1,0
		c0.3,0.3,0.3,0.8,0,1.1l-2.7,2.7C278.1,287.6,277.9,287.7,277.8,287.7z"/>
	<g>
		<g>
			<path class="st1" d="M17.6,276.6l0.1-0.2l38.1-38.1c1-1.4,2.6-2.3,3.9-2.6h0.2H144v87.6H59.9h-0.2c-0.8-0.2-2.8-0.9-3.9-2.6
				l-38.1-38.1l-0.1-0.2C16.6,280.7,16.6,278.2,17.6,276.6z"/>
			
				<linearGradient id="SVGID_1_" gradientUnits="userSpaceOnUse" x1="-731.8444" y1="221.165" x2="-606.1444" y2="221.165" gradientTransform="matrix(-1 0 0 -1 -587.8444 500.665)">
				<stop  offset="0" style="stop-color:#ED1E79"/>
				<stop  offset="1" style="stop-color:#9E005D"/>
			</linearGradient>
			<path class="st2" d="M18.9,277.3l38.1-38c0.7-1.2,2.1-1.9,3.1-2.1H144v84.6H60.1c-1.1-0.3-2.4-0.9-3.1-2.1l-38.1-38.1
				C18.1,280.4,18.1,278.5,18.9,277.3z"/>
		</g>
		<g>
			<g>
				<path class="st3" d="M60.3,320.2h82.2v-81.6H60.2c-0.7,0.2-1.5,0.7-1.9,1.4l-0.1,0.2L20,278.3l-0.1,0.2c-0.2,0.6-0.2,1.5,0,2.1
					l0.1,0.2l38.1,38.1l0.1,0.2c0.5,0.8,1.5,1.2,1.9,1.3L60.3,320.2z M141,318.7H60.5c-0.5-0.2-0.9-0.4-1-0.7l-0.3-0.4l-37.9-37.9
					c0-0.2,0-0.5,0-0.7l38-37.9l0.2-0.3c0.1-0.2,0.6-0.5,1-0.7H141V318.7z"/>
			</g>
			<g>
				<g>
					<path class="st0" d="M139.9,320.2h2.6v-2.6c0-0.4-0.3-0.7-0.7-0.7s-0.7,0.3-0.7,0.7v1.1H140c-0.4,0-0.7,0.3-0.7,0.7
						C139.1,319.9,139.5,320.2,139.9,320.2z"/>
				</g>
				<g>
					<path class="st0" d="M141.8,316c0.4,0,0.7-0.3,0.7-0.7v-3.9c0-0.4-0.3-0.7-0.7-0.7s-0.7,0.3-0.7,0.7v3.9
						C141,315.7,141.3,316,141.8,316z M141.8,309.9c0.4,0,0.7-0.3,0.7-0.7v-3.9c0-0.4-0.3-0.7-0.7-0.7s-0.7,0.3-0.7,0.7v3.9
						C141,309.5,141.3,309.9,141.8,309.9z M141.8,303.7c0.4,0,0.7-0.3,0.7-0.7v-3.9c0-0.4-0.3-0.7-0.7-0.7s-0.7,0.3-0.7,0.7v3.9
						C141,303.4,141.3,303.7,141.8,303.7z M141.8,297.5c0.4,0,0.7-0.3,0.7-0.7v-3.9c0-0.4-0.3-0.7-0.7-0.7s-0.7,0.3-0.7,0.7v3.9
						C141,297.2,141.3,297.5,141.8,297.5z M141.8,291.4c0.4,0,0.7-0.3,0.7-0.7v-3.9c0-0.4-0.3-0.7-0.7-0.7s-0.7,0.3-0.7,0.7v3.9
						C141,291,141.3,291.4,141.8,291.4z M141.8,285.2c0.4,0,0.7-0.3,0.7-0.7v-3.9c0-0.4-0.3-0.7-0.7-0.7s-0.7,0.3-0.7,0.7v3.9
						C141,284.9,141.3,285.2,141.8,285.2z M141.8,279c0.4,0,0.7-0.3,0.7-0.7v-3.9c0-0.4-0.3-0.7-0.7-0.7s-0.7,0.3-0.7,0.7v3.9
						C141,278.7,141.3,279,141.8,279z M141.8,272.9c0.4,0,0.7-0.3,0.7-0.8v-3.9c0-0.4-0.3-0.7-0.7-0.7s-0.7,0.3-0.7,0.7v3.9
						C141,272.5,141.3,272.9,141.8,272.9z M141.8,266.7c0.4,0,0.7-0.3,0.7-0.7v-3.9c0-0.4-0.3-0.7-0.7-0.7s-0.7,0.3-0.7,0.7v3.9
						C141,266.4,141.3,266.7,141.8,266.7z M141.8,260.5c0.4,0,0.7-0.3,0.7-0.7v-3.9c0-0.4-0.3-0.7-0.7-0.7s-0.7,0.3-0.7,0.7v3.9
						C141,260.2,141.3,260.5,141.8,260.5z M141.8,254.4c0.4,0,0.7-0.3,0.7-0.7v-3.9c0-0.4-0.3-0.7-0.7-0.7s-0.7,0.3-0.7,0.7v3.9
						C141,254,141.3,254.4,141.8,254.4z M141.8,248.2c0.4,0,0.7-0.3,0.7-0.7v-3.9c0-0.4-0.3-0.7-0.7-0.7s-0.7,0.3-0.7,0.7v3.9
						C141,247.9,141.3,248.2,141.8,248.2z"/>
				</g>
				<g>
					<path class="st0" d="M141.8,242c0.4,0,0.7-0.3,0.7-0.7v-2.6h-2.6c-0.4,0-0.7,0.3-0.7,0.7s0.3,0.7,0.7,0.7h1.1v1.1
						C141,241.7,141.3,242,141.8,242z"/>
				</g>
				<g>
					<path class="st0" d="M61.8,320.2h3.8c0.4,0,0.7-0.3,0.7-0.8c0-0.4-0.3-0.7-0.7-0.7h-3.8c-0.4,0-0.7,0.3-0.7,0.7
						C61.1,319.9,61.4,320.2,61.8,320.2z M67.8,320.2h3.8c0.4,0,0.7-0.3,0.7-0.8c0-0.4-0.3-0.7-0.7-0.7h-3.8c-0.4,0-0.7,0.3-0.7,0.7
						C67.1,319.9,67.4,320.2,67.8,320.2z M73.8,320.2h3.8c0.4,0,0.8-0.3,0.8-0.8c0-0.4-0.3-0.7-0.8-0.7h-3.8c-0.4,0-0.7,0.3-0.7,0.7
						C73.1,319.9,73.4,320.2,73.8,320.2z M79.8,320.2h3.8c0.4,0,0.7-0.3,0.7-0.8c0-0.4-0.3-0.7-0.7-0.7h-3.8c-0.4,0-0.7,0.3-0.7,0.7
						C79.1,319.9,79.4,320.2,79.8,320.2z M85.9,320.2h3.8c0.4,0,0.7-0.3,0.7-0.8c0-0.4-0.3-0.7-0.7-0.7h-3.8c-0.4,0-0.7,0.3-0.7,0.7
						C85.1,319.9,85.4,320.2,85.9,320.2z M91.9,320.2h3.8c0.4,0,0.7-0.3,0.7-0.8c0-0.4-0.3-0.7-0.7-0.7h-3.8c-0.4,0-0.7,0.3-0.7,0.7
						C91.1,319.9,91.4,320.2,91.9,320.2z M97.9,320.2h3.8c0.4,0,0.7-0.3,0.7-0.8c0-0.4-0.3-0.7-0.7-0.7h-3.8c-0.4,0-0.7,0.3-0.7,0.7
						C97.1,319.9,97.4,320.2,97.9,320.2z M103.9,320.2h3.8c0.4,0,0.7-0.3,0.7-0.8c0-0.4-0.3-0.7-0.7-0.7h-3.8
						c-0.4,0-0.7,0.3-0.7,0.7C103.1,319.9,103.4,320.2,103.9,320.2z M109.9,320.2h3.8c0.4,0,0.7-0.3,0.7-0.8c0-0.4-0.3-0.7-0.7-0.7
						h-3.8c-0.4,0-0.7,0.3-0.7,0.7C109.1,319.9,109.4,320.2,109.9,320.2z M115.9,320.2h3.8c0.4,0,0.7-0.3,0.7-0.8
						c0-0.4-0.3-0.7-0.7-0.7h-3.8c-0.4,0-0.7,0.3-0.7,0.7C115.1,319.9,115.5,320.2,115.9,320.2z M121.9,320.2h3.8
						c0.4,0,0.7-0.3,0.7-0.8c0-0.4-0.3-0.7-0.7-0.7h-3.8c-0.4,0-0.7,0.3-0.7,0.7C121.1,319.9,121.5,320.2,121.9,320.2z M127.9,320.2
						h3.8c0.4,0,0.7-0.3,0.7-0.8c0-0.4-0.3-0.7-0.7-0.7h-3.8c-0.4,0-0.7,0.3-0.7,0.7C127.1,319.9,127.5,320.2,127.9,320.2z
						 M133.9,320.2h3.8c0.4,0,0.7-0.3,0.7-0.8c0-0.4-0.3-0.7-0.7-0.7h-3.8c-0.4,0-0.7,0.3-0.7,0.7
						C133.1,319.9,133.5,320.2,133.9,320.2z M59.7,319.9c0.3,0,0.5-0.1,0.6-0.4c0.2-0.4,0.1-0.8-0.3-1c-0.2-0.1-0.4-0.3-0.5-0.4
						l-0.3-0.4l-1.7-1.7c-0.3-0.3-0.8-0.3-1.1,0s-0.3,0.8,0,1.1l1.6,1.6l0.1,0.2c0.2,0.4,0.6,0.7,1,1
						C59.4,319.9,59.5,319.9,59.7,319.9z M55.4,315.7c0.2,0,0.4-0.1,0.5-0.2c0.3-0.3,0.3-0.8,0-1.1l-2.7-2.7c-0.3-0.3-0.8-0.3-1.1,0
						s-0.3,0.8,0,1.1l2.7,2.7C55.1,315.6,55.2,315.7,55.4,315.7z M51.2,311.4c0.2,0,0.4-0.1,0.5-0.2c0.3-0.3,0.3-0.8,0-1.1l-2.7-2.7
						c-0.3-0.3-0.8-0.3-1.1,0s-0.3,0.8,0,1.1l2.7,2.7C50.8,311.4,51,311.4,51.2,311.4z M46.9,307.2c0.2,0,0.4-0.1,0.5-0.2
						c0.3-0.3,0.3-0.8,0-1.1l-2.7-2.7c-0.3-0.3-0.8-0.3-1.1,0s-0.3,0.8,0,1.1l2.7,2.7C46.6,307.1,46.7,307.2,46.9,307.2z
						 M42.7,302.9c0.2,0,0.4-0.1,0.5-0.2c0.3-0.3,0.3-0.8,0-1.1l-2.7-2.7c-0.3-0.3-0.8-0.3-1.1,0s-0.3,0.8,0,1.1l2.7,2.7
						C42.3,302.9,42.5,302.9,42.7,302.9z M38.4,298.7c0.2,0,0.4-0.1,0.5-0.2c0.3-0.3,0.3-0.8,0-1.1l-2.7-2.7c-0.3-0.3-0.8-0.3-1.1,0
						s-0.3,0.8,0,1.1l2.7,2.7C38.1,298.6,38.3,298.7,38.4,298.7z M34.2,294.5c0.2,0,0.4-0.1,0.5-0.2c0.3-0.3,0.3-0.8,0-1.1l-2.7-2.7
						c-0.3-0.3-0.8-0.3-1.1,0c-0.3,0.3-0.3,0.8,0,1.1l2.7,2.7C33.8,294.4,34,294.5,34.2,294.5z M30,290.2c0.2,0,0.4-0.1,0.5-0.2
						c0.3-0.3,0.3-0.8,0-1.1l-2.7-2.7c-0.3-0.3-0.8-0.3-1.1,0c-0.3,0.3-0.3,0.8,0,1.1l2.7,2.7C29.6,290.1,29.8,290.2,30,290.2z
						 M25.7,286c0.2,0,0.4-0.1,0.5-0.2c0.3-0.3,0.3-0.8,0-1.1l-2.7-2.7c-0.3-0.3-0.8-0.3-1.1,0c-0.3,0.3-0.3,0.8,0,1.1l2.7,2.7
						C25.3,285.9,25.5,286,25.7,286z M21.5,281.7c0.2,0,0.4-0.1,0.5-0.2c0.3-0.3,0.3-0.8,0-1.1l-0.6-0.6c0-0.1,0-0.2,0-0.4
						c0-0.1,0-0.3,0-0.4l0.6-0.6c0.3-0.3,0.3-0.8,0-1.1c-0.3-0.3-0.8-0.3-1.1,0l-0.9,0.9l-0.1,0.2c-0.1,0.4-0.2,0.8-0.2,1
						c0,0.3,0,0.7,0.2,1l0.1,0.2l0.9,0.9C21.1,281.7,21.3,281.7,21.5,281.7z M23.1,277.1c0.2,0,0.4-0.1,0.5-0.2l2.7-2.7
						c0.3-0.3,0.3-0.8,0-1.1c-0.3-0.3-0.8-0.3-1.1,0l-2.7,2.7c-0.3,0.3-0.3,0.8,0,1.1C22.7,277,22.9,277.1,23.1,277.1z M27.3,272.8
						c0.2,0,0.4-0.1,0.5-0.2l2.7-2.7c0.3-0.3,0.3-0.8,0-1.1c-0.3-0.3-0.8-0.3-1.1,0l-2.7,2.7c-0.3,0.3-0.3,0.8,0,1.1
						C26.9,272.7,27.1,272.8,27.3,272.8z M31.6,268.6c0.2,0,0.4-0.1,0.5-0.2l2.7-2.7c0.3-0.3,0.3-0.8,0-1.1c-0.3-0.3-0.8-0.3-1.1,0
						l-2.7,2.7c-0.3,0.3-0.3,0.8,0,1.1C31.2,268.5,31.4,268.6,31.6,268.6z M35.8,264.3c0.2,0,0.4-0.1,0.5-0.2l2.7-2.7
						c0.3-0.3,0.3-0.8,0-1.1c-0.3-0.3-0.8-0.3-1.1,0l-2.7,2.7c-0.3,0.3-0.3,0.8,0,1.1C35.4,264.3,35.6,264.3,35.8,264.3z M40,260.1
						c0.2,0,0.4-0.1,0.5-0.2l2.7-2.7c0.3-0.3,0.3-0.8,0-1.1c-0.3-0.3-0.8-0.3-1.1,0l-2.7,2.7c-0.3,0.3-0.3,0.8,0,1.1
						C39.7,260,39.9,260.1,40,260.1z M44.3,255.8c0.2,0,0.4-0.1,0.5-0.2l2.7-2.7c0.3-0.3,0.3-0.8,0-1.1s-0.8-0.3-1.1,0l-2.7,2.7
						c-0.3,0.3-0.3,0.8,0,1.1C43.9,255.8,44.1,255.8,44.3,255.8z M48.5,251.6c0.2,0,0.4-0.1,0.5-0.2l2.7-2.7c0.3-0.3,0.3-0.8,0-1.1
						s-0.8-0.3-1.1,0l-2.7,2.7c-0.3,0.3-0.3,0.8,0,1.1C48.2,251.5,48.3,251.6,48.5,251.6z M52.8,247.4c0.2,0,0.4-0.1,0.5-0.2
						l2.7-2.7c0.3-0.3,0.3-0.8,0-1.1s-0.8-0.3-1.1,0l-2.7,2.7c-0.3,0.3-0.3,0.8,0,1.1C52.4,247.3,52.6,247.4,52.8,247.4z M57,243.1
						c0.2,0,0.4-0.1,0.5-0.2l1.8-1.8l0.1-0.2c0.1-0.1,0.3-0.3,0.5-0.4c0.4-0.2,0.5-0.7,0.3-1c-0.2-0.4-0.7-0.5-1-0.3s-0.8,0.5-1.1,1
						l-0.1,0.2l-1.6,1.6c-0.3,0.3-0.3,0.8,0,1.1C56.6,243,56.8,243.1,57,243.1z M61.8,240.1h3.8c0.4,0,0.7-0.3,0.7-0.7
						s-0.3-0.7-0.7-0.7h-3.8c-0.4,0-0.7,0.3-0.7,0.7S61.4,240.1,61.8,240.1z M67.8,240.1h3.8c0.4,0,0.7-0.3,0.7-0.7
						s-0.3-0.7-0.7-0.7h-3.8c-0.4,0-0.7,0.3-0.7,0.7C67.1,239.8,67.4,240.1,67.8,240.1z M73.9,240.1h3.8c0.4,0,0.7-0.3,0.7-0.7
						s-0.3-0.7-0.7-0.7h-3.8c-0.4,0-0.7,0.3-0.7,0.7C73.1,239.8,73.4,240.1,73.9,240.1z M79.9,240.1h3.8c0.4,0,0.7-0.3,0.7-0.7
						s-0.3-0.7-0.7-0.7h-3.8c-0.4,0-0.7,0.3-0.7,0.7C79.1,239.8,79.4,240.1,79.9,240.1z M85.9,240.1h3.8c0.4,0,0.7-0.3,0.7-0.7
						s-0.3-0.7-0.7-0.7h-3.8c-0.4,0-0.7,0.3-0.7,0.7C85.1,239.8,85.4,240.1,85.9,240.1z M91.9,240.1h3.8c0.4,0,0.7-0.3,0.7-0.7
						s-0.3-0.7-0.7-0.7h-3.8c-0.4,0-0.7,0.3-0.7,0.7C91.1,239.8,91.4,240.1,91.9,240.1z M97.9,240.1h3.8c0.4,0,0.7-0.3,0.7-0.7
						s-0.3-0.7-0.7-0.7h-3.8c-0.4,0-0.7,0.3-0.7,0.7C97.1,239.8,97.5,240.1,97.9,240.1z M103.9,240.1h3.8c0.4,0,0.7-0.3,0.7-0.7
						s-0.3-0.7-0.7-0.7h-3.8c-0.4,0-0.7,0.3-0.7,0.7C103.1,239.8,103.5,240.1,103.9,240.1z M109.9,240.1h3.8c0.4,0,0.7-0.3,0.7-0.7
						s-0.3-0.7-0.7-0.7h-3.8c-0.4,0-0.7,0.3-0.7,0.7C109.1,239.8,109.5,240.1,109.9,240.1z M115.9,240.1h3.8c0.4,0,0.7-0.3,0.7-0.7
						s-0.3-0.7-0.7-0.7h-3.8c-0.4,0-0.7,0.3-0.7,0.7C115.1,239.8,115.5,240.1,115.9,240.1z M121.9,240.1h3.8c0.4,0,0.7-0.3,0.7-0.7
						s-0.3-0.7-0.7-0.7h-3.8c-0.4,0-0.7,0.3-0.7,0.7C121.1,239.8,121.5,240.1,121.9,240.1z M127.9,240.1h3.8c0.4,0,0.7-0.3,0.7-0.7
						s-0.3-0.7-0.7-0.7h-3.8c-0.4,0-0.7,0.3-0.7,0.7C127.1,239.8,127.5,240.1,127.9,240.1z M133.9,240.1h3.8c0.4,0,0.7-0.3,0.7-0.7
						s-0.3-0.7-0.7-0.7h-3.8c-0.4,0-0.7,0.3-0.7,0.7C133.1,239.8,133.5,240.1,133.9,240.1z"/>
				</g>
			</g>
		</g>
	</g>
	<path class="st0" d="M292.6,248.9l-2.7-2.7c-0.3-0.3-0.3-0.8,0-1.1s0.8-0.3,1.1,0"/>
	<path class="st0" d="M288.9,244.9c-0.2,0-0.4-0.1-0.5-0.2l-2.7-2.7c-0.3-0.3-0.3-0.8,0-1.1s0.8-0.3,1.1,0l2.7,2.7
		c0.3,0.3,0.3,0.8,0,1.1C289.3,244.8,289.1,244.9,288.9,244.9z"/>
	<path class="st0" d="M284.6,240.6c-0.2,0-0.4-0.1-0.5-0.2l-2.7-2.7c-0.3-0.3-0.3-0.8,0-1.1s0.8-0.3,1.1,0l2.7,2.7
		c0.3,0.3,0.3,0.8,0,1.1C285,240.5,284.8,240.6,284.6,240.6z"/>
	<path class="st0" d="M280.4,236.4c-0.2,0-0.4-0.1-0.5-0.2l-2.7-2.7c-0.3-0.3-0.3-0.8,0-1.1s0.8-0.3,1.1,0l2.7,2.7
		c0.3,0.3,0.3,0.8,0,1.1C280.8,236.3,280.6,236.4,280.4,236.4z"/>
	<path class="st0" d="M276.2,232.1c-0.2,0-0.4-0.1-0.5-0.2l-2.7-2.7c-0.3-0.3-0.3-0.8,0-1.1s0.8-0.3,1.1,0l2.7,2.7
		c0.3,0.3,0.3,0.8,0,1.1C276.5,232.1,276.3,232.1,276.2,232.1z"/>
	<path class="st0" d="M271.9,227.9c-0.2,0-0.4-0.1-0.5-0.2l-2.7-2.7c-0.3-0.3-0.3-0.8,0-1.1s0.8-0.3,1.1,0l2.7,2.7
		c0.3,0.3,0.3,0.8,0,1.1C272.3,227.8,272.1,227.9,271.9,227.9z"/>
	<path class="st0" d="M267.7,223.6c-0.2,0-0.4-0.1-0.5-0.2l-1.8-1.8l-0.1-0.2c-0.1-0.1-0.3-0.3-0.5-0.4c-0.4-0.2-0.5-0.7-0.3-1
		c0.2-0.4,0.7-0.5,1-0.3s0.8,0.5,1.1,1l0.1,0.2l1.6,1.6c0.3,0.3,0.3,0.8,0,1.1C268,223.6,267.9,223.6,267.7,223.6z"/>
	<path class="st0" d="M262.8,220.7H259c-0.4,0-0.7-0.3-0.7-0.7s0.3-0.7,0.7-0.7h3.8c0.4,0,0.7,0.3,0.7,0.7
		C263.6,220.3,263.3,220.7,262.8,220.7z"/>
	<path class="st0" d="M256.8,220.7H253c-0.4,0-0.7-0.3-0.7-0.7s0.3-0.7,0.7-0.7h3.8c0.4,0,0.7,0.3,0.7,0.7
		C257.6,220.3,257.3,220.7,256.8,220.7z"/>
	<path class="st0" d="M250.8,220.7H247c-0.4,0-0.7-0.3-0.7-0.7s0.3-0.7,0.7-0.7h3.8c0.4,0,0.7,0.3,0.7,0.7
		C251.6,220.3,251.3,220.7,250.8,220.7z"/>
	<path class="st0" d="M244.8,220.7H241c-0.4,0-0.7-0.3-0.7-0.7s0.3-0.7,0.7-0.7h3.8c0.4,0,0.7,0.3,0.7,0.7
		C245.6,220.3,245.2,220.7,244.8,220.7z"/>
	<path class="st0" d="M238.8,220.7H235c-0.4,0-0.7-0.3-0.7-0.7s0.3-0.7,0.7-0.7h3.8c0.4,0,0.7,0.3,0.7,0.7
		C239.6,220.3,239.2,220.7,238.8,220.7z"/>
	<path class="st0" d="M232.8,220.7H229c-0.4,0-0.7-0.3-0.7-0.7s0.3-0.7,0.7-0.7h3.8c0.4,0,0.7,0.3,0.7,0.7
		C233.6,220.3,233.2,220.7,232.8,220.7z"/>
	<path class="st0" d="M226.8,220.7H223c-0.4,0-0.7-0.3-0.7-0.7s0.3-0.7,0.7-0.7h3.8c0.4,0,0.7,0.3,0.7,0.7
		C227.6,220.3,227.2,220.7,226.8,220.7z"/>
	<path class="st0" d="M220.8,220.7H217c-0.4,0-0.7-0.3-0.7-0.7s0.3-0.7,0.7-0.7h3.8c0.4,0,0.7,0.3,0.7,0.7
		C221.6,220.3,221.2,220.7,220.8,220.7z"/>
	<path class="st0" d="M214.8,220.7H211c-0.4,0-0.7-0.3-0.7-0.7s0.3-0.7,0.7-0.7h3.8c0.4,0,0.7,0.3,0.7,0.7
		C215.6,220.3,215.2,220.7,214.8,220.7z"/>
	<path class="st0" d="M208.8,220.7H205c-0.4,0-0.7-0.3-0.7-0.7s0.3-0.7,0.7-0.7h3.8c0.4,0,0.7,0.3,0.7,0.7
		C209.6,220.3,209.2,220.7,208.8,220.7z"/>
	<path class="st0" d="M202.8,220.7H199c-0.4,0-0.7-0.3-0.7-0.7s0.3-0.7,0.7-0.7h3.8c0.4,0,0.7,0.3,0.7,0.7
		C203.6,220.3,203.2,220.7,202.8,220.7z"/>
	<path class="st0" d="M196.8,220.7H193c-0.4,0-0.7-0.3-0.7-0.7s0.3-0.7,0.7-0.7h3.8c0.4,0,0.7,0.3,0.7,0.7
		C197.6,220.3,197.2,220.7,196.8,220.7z"/>
	<path class="st0" d="M190.8,220.7H187c-0.4,0-0.7-0.3-0.7-0.7s0.3-0.7,0.7-0.7h3.8c0.4,0,0.7,0.3,0.7,0.7
		C191.6,220.3,191.2,220.7,190.8,220.7z"/>
	<g>
		<g>
			<g>
				
					<linearGradient id="SVGID_00000086660940978335299870000002491009967229100712_" gradientUnits="userSpaceOnUse" x1="-1027.986" y1="263.15" x2="-778.086" y2="263.15" gradientTransform="matrix(-1 0 0 -1 -732.586 524)">
					<stop  offset="0" style="stop-color:#9E005D"/>
					<stop  offset="1" style="stop-color:#ED1E79"/>
				</linearGradient>
				<path style="fill:url(#SVGID_00000086660940978335299870000002491009967229100712_);" d="M241.1,494.2c30,0,54.3-18.7,54.3-41.6
					V27.5H99.8c-30,0-54.3,18.7-54.3,41.6v425.1H241.1z"/>
				
					<linearGradient id="SVGID_00000100361259385040989510000005082913907388491657_" gradientUnits="userSpaceOnUse" x1="-1027.786" y1="263.2" x2="-778.186" y2="263.2" gradientTransform="matrix(-1 0 0 -1 -732.586 524)">
					<stop  offset="0" style="stop-color:#A2015E"/>
					<stop  offset="1" style="stop-color:#E91D78"/>
				</linearGradient>
				<path style="fill:url(#SVGID_00000100361259385040989510000005082913907388491657_);" d="M45.6,69.1C45.6,47,68.4,28.8,97,27.7
					c0.9,0,2-0.1,2.9-0.1h12.7H243h52.2v38.8V402v50.5c0,22.1-22.8,40.3-51.4,41.4c-0.9,0-2,0.1-2.9,0.1h-26.7H97.8H45.6v-38.9
					V119.6V69.1z"/>
				
					<linearGradient id="SVGID_00000008863311573018002510000013637753563053162648_" gradientUnits="userSpaceOnUse" x1="-1027.5859" y1="263.15" x2="-778.386" y2="263.15" gradientTransform="matrix(-1 0 0 -1 -732.586 524)">
					<stop  offset="0" style="stop-color:#A60360"/>
					<stop  offset="1" style="stop-color:#E51B76"/>
				</linearGradient>
				<path style="fill:url(#SVGID_00000008863311573018002510000013637753563053162648_);" d="M45.8,69.1c0-22.1,22.8-40.2,51.3-41.2
					c0.9,0,2-0.1,2.9-0.1h12.7h130.2H295v38.8v335.5v50.5c0,22.1-22.8,40.2-51.3,41.2c-0.9,0-2,0.1-2.9,0.1h-26.6H97.9H45.8v-38.8
					V119.6V69.1z"/>
				
					<linearGradient id="SVGID_00000122687522262161788380000001780405004977534872_" gradientUnits="userSpaceOnUse" x1="-1027.486" y1="263.15" x2="-778.586" y2="263.15" gradientTransform="matrix(-1 0 0 -1 -732.586 524)">
					<stop  offset="0" style="stop-color:#A90461"/>
					<stop  offset="1" style="stop-color:#E21A75"/>
				</linearGradient>
				<path style="fill:url(#SVGID_00000122687522262161788380000001780405004977534872_);" d="M46,69.1C46,47.1,68.8,29,97.3,28
					c0.8,0,2.1-0.1,2.9-0.1h12.7h130h52v38.8v335.4v50.5c0,22-22.8,40.1-51.3,41.1c-0.8,0-2.1,0.1-2.9,0.1h-26.6H98H46V455V119.6
					V69.1z"/>
				
					<linearGradient id="SVGID_00000010283171334473715060000005092056054867623056_" gradientUnits="userSpaceOnUse" x1="-1027.186" y1="263.15" x2="-778.786" y2="263.15" gradientTransform="matrix(-1 0 0 -1 -732.586 524)">
					<stop  offset="0" style="stop-color:#AD0662"/>
					<stop  offset="1" style="stop-color:#DE1874"/>
				</linearGradient>
				<path style="fill:url(#SVGID_00000010283171334473715060000005092056054867623056_);" d="M46.2,69.1c0-22,22.8-40,51.2-41
					c0.8,0,2.1,0,2.9,0H113h129.7h51.9v38.8v335.3v50.4c0,22-22.8,40-51.2,41c-0.8,0-2.1,0-2.9,0H214H98.1H46.2v-38.8V119.5V69.1z"
					/>
				
					<linearGradient id="SVGID_00000166660693045086215920000017399010899577081738_" gradientUnits="userSpaceOnUse" x1="-1027.0859" y1="263.15" x2="-778.986" y2="263.15" gradientTransform="matrix(-1 0 0 -1 -732.586 524)">
					<stop  offset="0" style="stop-color:#B10764"/>
					<stop  offset="1" style="stop-color:#DA1772"/>
				</linearGradient>
				<path style="fill:url(#SVGID_00000166660693045086215920000017399010899577081738_);" d="M46.4,69.1c0-22,22.8-39.9,51.2-40.8
					c0.7,0,2.2,0,2.9,0h12.6h129.5h51.9V67v335.2v50.4c0,22-22.8,39.9-51.2,40.8c-0.7,0-2.1,0-2.9,0h-26.5H98.2H46.4v-38.8V119.5
					V69.1z"/>
				
					<linearGradient id="SVGID_00000042006014232299047540000007633852591759518389_" gradientUnits="userSpaceOnUse" x1="-1026.786" y1="263.1" x2="-779.086" y2="263.1" gradientTransform="matrix(-1 0 0 -1 -732.586 524)">
					<stop  offset="0" style="stop-color:#B50965"/>
					<stop  offset="1" style="stop-color:#D61571"/>
				</linearGradient>
				<path style="fill:url(#SVGID_00000042006014232299047540000007633852591759518389_);" d="M46.5,69.1c0-21.9,22.8-39.9,51.1-40.7
					c0.7,0,2.2,0,2.9,0h12.6h129.3h51.8v38.8v335.1v50.4c0,21.9-22.8,39.9-51.1,40.7c-0.7,0-2.2,0-2.9,0h-26.4H98.3H46.5v-38.8
					V119.5V69.1z"/>
				
					<linearGradient id="SVGID_00000165224626323957181430000000327011631430013838_" gradientUnits="userSpaceOnUse" x1="-1026.686" y1="263.15" x2="-779.286" y2="263.15" gradientTransform="matrix(-1 0 0 -1 -732.586 524)">
					<stop  offset="0" style="stop-color:#B80A66"/>
					<stop  offset="1" style="stop-color:#D31470"/>
				</linearGradient>
				<path style="fill:url(#SVGID_00000165224626323957181430000000327011631430013838_);" d="M46.7,69.1c0-21.9,22.8-39.8,51.1-40.6
					c0.6,0,2.2,0,2.9,0h12.6h129.1h51.7v38.8v334.9v50.4c0,21.9-22.8,39.8-51.1,40.6c-0.6,0-2.2,0-2.9,0h-26.4H98.4H46.7v-38.8
					V119.5V69.1z"/>
				
					<linearGradient id="SVGID_00000013155887027611307290000008255251969041064630_" gradientUnits="userSpaceOnUse" x1="-1026.5859" y1="263.1" x2="-779.486" y2="263.1" gradientTransform="matrix(-1 0 0 -1 -732.586 524)">
					<stop  offset="0" style="stop-color:#BC0B68"/>
					<stop  offset="1" style="stop-color:#CF136E"/>
				</linearGradient>
				<path style="fill:url(#SVGID_00000013155887027611307290000008255251969041064630_);" d="M46.9,69.1c0-21.8,22.8-39.7,51.1-40.4
					c0.6,0,2.3,0,2.9,0h12.6h128.9H294v38.8v334.8v50.4c0,21.8-22.8,39.7-51.1,40.4c-0.6,0-2.3,0-2.9,0h-26.4H98.5H46.9v-38.8V119.5
					V69.1z"/>
				
					<linearGradient id="SVGID_00000082337284406724037040000008057444082385924019_" gradientUnits="userSpaceOnUse" x1="-1026.286" y1="263.1" x2="-779.686" y2="263.1" gradientTransform="matrix(-1 0 0 -1 -732.586 524)">
					<stop  offset="0" style="stop-color:#C00D69"/>
					<stop  offset="1" style="stop-color:#CB116D"/>
				</linearGradient>
				<path style="fill:url(#SVGID_00000082337284406724037040000008057444082385924019_);" d="M47.1,69.1c0-21.8,22.8-39.6,51-40.3
					c0.6,0,2.3,0,2.9,0h12.5h128.7h51.5v38.8v334.7v50.4c0,21.8-22.8,39.6-51,40.3c-0.6,0-2.3,0-2.9,0h-26.3h-115H47.1v-38.8V119.5
					V69.1z"/>
				
					<linearGradient id="SVGID_00000087397885999806000870000017271467845806198920_" gradientUnits="userSpaceOnUse" x1="-1026.186" y1="263.1" x2="-779.886" y2="263.1" gradientTransform="matrix(-1 0 0 -1 -732.586 524)">
					<stop  offset="0" style="stop-color:#C40E6A"/>
					<stop  offset="1" style="stop-color:#C7106C"/>
				</linearGradient>
				<path style="fill:url(#SVGID_00000087397885999806000870000017271467845806198920_);" d="M47.3,69.1c0-21.7,22.8-39.5,51-40.1
					c0.5,0,2.4,0,2.9,0h12.5h128.5h51.4v38.7v334.6v50.4c0,21.7-22.8,39.5-51,40.1c-0.5,0-2.3,0-2.9,0h-26.3H98.7H47.3V454V119.4
					V69.1z"/>
				
					<linearGradient id="SVGID_00000053516444686801371180000007673425392231129524_" gradientUnits="userSpaceOnUse" x1="-1025.886" y1="263.15" x2="-780.086" y2="263.15" gradientTransform="matrix(-1 0 0 -1 -732.586 524)">
					<stop  offset="0" style="stop-color:#C7106C"/>
					<stop  offset="1" style="stop-color:#C40E6A"/>
				</linearGradient>
				<path style="fill:url(#SVGID_00000053516444686801371180000007673425392231129524_);" d="M47.5,69.1c0-21.7,22.8-39.4,50.9-40
					c0.5,0,2.4,0,2.9,0h12.5H242h51.3v38.7v334.5v50.3c0,21.7-22.8,39.4-50.9,40c-0.5,0-2.4,0-2.9,0h-26.2H98.8H47.5v-38.7V119.4
					V69.1z"/>
				
					<linearGradient id="SVGID_00000009584250545795910010000009015582825610128026_" gradientUnits="userSpaceOnUse" x1="-1025.886" y1="263.15" x2="-780.286" y2="263.15" gradientTransform="matrix(-1 0 0 -1 -732.586 524)">
					<stop  offset="0" style="stop-color:#CB116D"/>
					<stop  offset="1" style="stop-color:#C00D69"/>
				</linearGradient>
				<path style="fill:url(#SVGID_00000009584250545795910010000009015582825610128026_);" d="M47.7,69.1c0-21.6,22.8-39.4,50.9-39.9
					c0.4,0,2.4,0,2.9,0H114h128.1h51.2v38.7v334.4v50.3c0,21.6-22.7,39.4-50.9,39.9c-0.4,0-2.4,0-2.8,0h-26.2H98.9H47.7v-38.7V119.4
					V69.1z"/>
				
					<linearGradient id="SVGID_00000165938847713742136510000005774501349626563464_" gradientUnits="userSpaceOnUse" x1="-1025.5859" y1="263.1" x2="-780.386" y2="263.1" gradientTransform="matrix(-1 0 0 -1 -732.586 524)">
					<stop  offset="0" style="stop-color:#CF136E"/>
					<stop  offset="1" style="stop-color:#BC0B68"/>
				</linearGradient>
				<path style="fill:url(#SVGID_00000165938847713742136510000005774501349626563464_);" d="M47.8,69.1c0-21.6,22.7-39.3,50.8-39.7
					c0.4,0,2.5,0,2.9,0H114h127.8H293v38.7v334.3v50.3c0,21.6-22.7,39.3-50.8,39.7c-0.4,0-2.5,0-2.8,0h-26.1H99H47.8v-38.7V119.4
					V69.1z"/>
				
					<linearGradient id="SVGID_00000120517854209811620400000010573109100361290926_" gradientUnits="userSpaceOnUse" x1="-1025.386" y1="263.15" x2="-780.586" y2="263.15" gradientTransform="matrix(-1 0 0 -1 -732.586 524)">
					<stop  offset="0" style="stop-color:#D31470"/>
					<stop  offset="1" style="stop-color:#B80A66"/>
				</linearGradient>
				<path style="fill:url(#SVGID_00000120517854209811620400000010573109100361290926_);" d="M48,69.1c0-21.5,22.7-39.2,50.8-39.6
					c0.3,0,2.5,0,2.9,0h12.4h127.6h51.1v38.7v334.1v50.3c0,21.5-22.7,39.2-50.8,39.6c-0.3,0-2.5,0-2.8,0h-26.1h-114H48v-38.7V119.4
					V69.1z"/>
				
					<linearGradient id="SVGID_00000040543076981506227570000010385491325920638864_" gradientUnits="userSpaceOnUse" x1="-1025.186" y1="263.1" x2="-780.786" y2="263.1" gradientTransform="matrix(-1 0 0 -1 -732.586 524)">
					<stop  offset="0" style="stop-color:#D61571"/>
					<stop  offset="1" style="stop-color:#B50965"/>
				</linearGradient>
				<path style="fill:url(#SVGID_00000040543076981506227570000010385491325920638864_);" d="M48.2,69.1c0-21.5,22.7-39.1,50.7-39.4
					c0.3,0,2.6,0,2.9,0h12.4h127.4h51v38.7v334v50.3c0,21.5-22.7,39.1-50.7,39.4c-0.3,0-2.6,0-2.8,0H213H99.2h-51v-38.7v-334
					C48.2,119.4,48.2,69.1,48.2,69.1z"/>
				
					<linearGradient id="SVGID_00000122722422353238010240000015432713192191140507_" gradientUnits="userSpaceOnUse" x1="-1025.0859" y1="263.1" x2="-780.986" y2="263.1" gradientTransform="matrix(-1 0 0 -1 -732.586 524)">
					<stop  offset="0" style="stop-color:#DA1772"/>
					<stop  offset="1" style="stop-color:#B10764"/>
				</linearGradient>
				<path style="fill:url(#SVGID_00000122722422353238010240000015432713192191140507_);" d="M48.4,69.1c0-21.5,22.7-39,50.7-39.3
					c0.2,0,2.6,0,2.9,0h12.4h127.2h50.9v38.7v333.9v50.3c0,21.5-22.7,39-50.7,39.3c-0.2,0-2.6,0-2.8,0h-26H99.3H48.4v-38.7V119.4
					V69.1z"/>
				
					<linearGradient id="SVGID_00000032620247684528783810000004322009895589372089_" gradientUnits="userSpaceOnUse" x1="-1024.786" y1="263.1" x2="-781.186" y2="263.1" gradientTransform="matrix(-1 0 0 -1 -732.586 524)">
					<stop  offset="0" style="stop-color:#DE1874"/>
					<stop  offset="1" style="stop-color:#AD0662"/>
				</linearGradient>
				<path style="fill:url(#SVGID_00000032620247684528783810000004322009895589372089_);" d="M48.6,69.1c0-21.4,22.7-38.9,50.6-39.2
					c0.2,0,2.7,0,2.8,0h12.4h127h50.8v38.7v333.8v50.3c0,21.4-22.7,38.9-50.6,39.2c-0.2,0-2.6,0-2.8,0h-26H99.4H48.6v-38.7V119.3
					V69.1z"/>
				
					<linearGradient id="SVGID_00000046308596558645544660000000115860718189126294_" gradientUnits="userSpaceOnUse" x1="-1024.686" y1="263.15" x2="-781.386" y2="263.15" gradientTransform="matrix(-1 0 0 -1 -732.586 524)">
					<stop  offset="0" style="stop-color:#E21A75"/>
					<stop  offset="1" style="stop-color:#A90461"/>
				</linearGradient>
				<path style="fill:url(#SVGID_00000046308596558645544660000000115860718189126294_);" d="M48.8,69.1c0-21.4,22.7-38.9,50.6-39
					c0.1,0,2.7,0,2.8,0h12.4h126.8h50.7v38.6v333.7v50.2c0,21.4-22.7,38.9-50.6,39c-0.1,0-2.7,0-2.8,0h-25.9H99.5H48.8V453V119.3
					V69.1z"/>
				
					<linearGradient id="SVGID_00000093137183622224126920000008543304632593802911_" gradientUnits="userSpaceOnUse" x1="-1024.286" y1="263.15" x2="-781.486" y2="263.15" gradientTransform="matrix(-1 0 0 -1 -732.586 524)">
					<stop  offset="0" style="stop-color:#E51B76"/>
					<stop  offset="1" style="stop-color:#A60360"/>
				</linearGradient>
				<path style="fill:url(#SVGID_00000093137183622224126920000008543304632593802911_);" d="M48.9,69.1c0-21.3,22.7-38.8,50.5-38.9
					c0.1,0,2.7,0,2.8,0h12.3h126.6h50.6v38.6v333.6v50.2c0,21.3-22.7,38.8-50.5,38.9c-0.1,0-2.7,0-2.8,0h-25.9H99.6H48.9v-38.6
					V119.3V69.1z"/>
				
					<linearGradient id="SVGID_00000065756091695275637470000009147911610483767970_" gradientUnits="userSpaceOnUse" x1="-1024.186" y1="263.15" x2="-781.686" y2="263.15" gradientTransform="matrix(-1 0 0 -1 -732.586 524)">
					<stop  offset="0" style="stop-color:#E91D78"/>
					<stop  offset="1" style="stop-color:#A2015E"/>
				</linearGradient>
				<path style="fill:url(#SVGID_00000065756091695275637470000009147911610483767970_);" d="M49.1,69.1c0-21.3,22.7-38.7,50.5-38.7
					h2.8h12.3h126.4h50.5V69v333.4v50.2c0,21.3-22.7,38.7-50.5,38.7h-2.8h-25.8H99.7H49.1v-38.6V119.3V69.1z"/>
				
					<linearGradient id="SVGID_00000183961553979914950200000005531860691979713436_" gradientUnits="userSpaceOnUse" x1="-1024.0859" y1="263.15" x2="-781.886" y2="263.15" gradientTransform="matrix(-1 0 0 -1 -732.586 524)">
					<stop  offset="0" style="stop-color:#ED1E79"/>
					<stop  offset="1" style="stop-color:#9E005D"/>
				</linearGradient>
				<path style="fill:url(#SVGID_00000183961553979914950200000005531860691979713436_);" d="M99.8,30.5h15.1H241h50.5v38.6v333.3
					v50.2c0,21.2-22.7,38.6-50.5,38.6h-28.6H99.8H49.3v-38.6V119.3V69.1C49.3,47.9,72,30.5,99.8,30.5z"/>
			</g>
		</g>
		<g>
			<g>
				<path class="st26" d="M241.1,473.2c14.9,0,26.9-9.2,26.9-20.6V48.5H99.8c-14.9,0-26.9,9.2-26.9,20.6v404.1H241.1z"/>
			</g>
			<g>
				
					<linearGradient id="SVGID_00000056397782912806411340000000860317265276429739_" gradientUnits="userSpaceOnUse" x1="-1001.886" y1="263.15" x2="-804.186" y2="263.15" gradientTransform="matrix(-1 0 0 -1 -732.586 524)">
					<stop  offset="0" style="stop-color:#E6E6E6"/>
					<stop  offset="0.1907" style="stop-color:#EEEEEE"/>
					<stop  offset="0.6022" style="stop-color:#FBFBFB"/>
					<stop  offset="1" style="stop-color:#FFFFFF"/>
				</linearGradient>
				<path style="fill:url(#SVGID_00000056397782912806411340000000860317265276429739_);" d="M241.1,474.2
					c15.6,0,28.2-9.7,28.2-21.6V47.5H99.8c-15.6,0-28.2,9.7-28.2,21.6v405.1H241.1z"/>
				
					<linearGradient id="SVGID_00000094613450867918155180000006764034607912353976_" gradientUnits="userSpaceOnUse" x1="-1001.786" y1="263.15" x2="-804.286" y2="263.15" gradientTransform="matrix(-1 0 0 -1 -732.586 524)">
					<stop  offset="0" style="stop-color:#E7E7E7"/>
					<stop  offset="0.1181" style="stop-color:#ECECEC"/>
					<stop  offset="0.5865" style="stop-color:#F9F9F9"/>
					<stop  offset="1" style="stop-color:#FEFEFE"/>
				</linearGradient>
				<path style="fill:url(#SVGID_00000094613450867918155180000006764034607912353976_);" d="M241.1,474.1
					c15.5,0,28.1-9.6,28.1-21.5v-405H99.8c-15.5,0-28.1,9.6-28.1,21.5v405H241.1z"/>
				
					<linearGradient id="SVGID_00000132804149395635310270000007632465785712152761_" gradientUnits="userSpaceOnUse" x1="-1001.586" y1="263.1" x2="-804.486" y2="263.1" gradientTransform="matrix(-1 0 0 -1 -732.586 524)">
					<stop  offset="0" style="stop-color:#E8E8E8"/>
					<stop  offset="1.401013e-02" style="stop-color:#E8E8E8"/>
					<stop  offset="0.5593" style="stop-color:#F8F8F8"/>
					<stop  offset="1" style="stop-color:#FDFDFD"/>
				</linearGradient>
				<path style="fill:url(#SVGID_00000132804149395635310270000007632465785712152761_);" d="M241.1,473.9
					c15.4,0,27.9-9.6,27.9-21.3V47.8H99.8c-15.4,0-27.9,9.6-27.9,21.3V474h169.2V473.9z"/>
				
					<linearGradient id="SVGID_00000093176481165159037690000008893596011825035692_" gradientUnits="userSpaceOnUse" x1="-1001.386" y1="263.15" x2="-804.686" y2="263.15" gradientTransform="matrix(-1 0 0 -1 -732.586 524)">
					<stop  offset="0" style="stop-color:#EAEAEA"/>
					<stop  offset="0.4805" style="stop-color:#F5F5F5"/>
					<stop  offset="1" style="stop-color:#FBFBFB"/>
				</linearGradient>
				<path style="fill:url(#SVGID_00000093176481165159037690000008893596011825035692_);" d="M241.1,473.8
					c15.3,0,27.7-9.5,27.7-21.2V47.9h-169c-15.3,0-27.7,9.5-27.7,21.2v404.7L241.1,473.8L241.1,473.8z"/>
				
					<linearGradient id="SVGID_00000165207634527513750250000000612952988989911967_" gradientUnits="userSpaceOnUse" x1="-1001.186" y1="263.1" x2="-804.886" y2="263.1" gradientTransform="matrix(-1 0 0 -1 -732.586 524)">
					<stop  offset="0" style="stop-color:#EBEBEB"/>
					<stop  offset="0.3984" style="stop-color:#F3F3F3"/>
					<stop  offset="1" style="stop-color:#FAFAFA"/>
				</linearGradient>
				<path style="fill:url(#SVGID_00000165207634527513750250000000612952988989911967_);" d="M241.1,473.7c15.2,0,27.5-9.4,27.5-21
					V48.1H99.8c-15.2,0-27.5,9.4-27.5,21v404.6H241.1z"/>
				
					<linearGradient id="SVGID_00000014612897084417531360000010462356030737009537_" gradientUnits="userSpaceOnUse" x1="-1000.986" y1="263.15" x2="-805.086" y2="263.15" gradientTransform="matrix(-1 0 0 -1 -732.586 524)">
					<stop  offset="0" style="stop-color:#ECECEC"/>
					<stop  offset="0.2649" style="stop-color:#F0F0F0"/>
					<stop  offset="1" style="stop-color:#F9F9F9"/>
				</linearGradient>
				<path style="fill:url(#SVGID_00000014612897084417531360000010462356030737009537_);" d="M241.1,473.5
					c15.1,0,27.3-9.4,27.3-20.9V48.2H99.8c-15.1,0-27.3,9.4-27.3,20.9v404.4H241.1z"/>
				
					<linearGradient id="SVGID_00000087395165470901346330000010189412180710169230_" gradientUnits="userSpaceOnUse" x1="-1000.786" y1="263.15" x2="-805.286" y2="263.15" gradientTransform="matrix(-1 0 0 -1 -732.586 524)">
					<stop  offset="0" style="stop-color:#EDEDED"/>
					<stop  offset="3.415388e-02" style="stop-color:#EDEDED"/>
					<stop  offset="1" style="stop-color:#F8F8F8"/>
				</linearGradient>
				<path style="fill:url(#SVGID_00000087395165470901346330000010189412180710169230_);" d="M241.1,473.4c15,0,27.1-9.3,27.1-20.8
					V48.3H99.8c-15,0-27.1,9.3-27.1,20.8v404.3H241.1z"/>
				
					<linearGradient id="SVGID_00000006701084452464894310000002950275690243676059_" gradientUnits="userSpaceOnUse" x1="-1000.586" y1="263.15" x2="-805.486" y2="263.15" gradientTransform="matrix(-1 0 0 -1 -732.586 524)">
					<stop  offset="0" style="stop-color:#EEEEEE"/>
					<stop  offset="1" style="stop-color:#F7F7F7"/>
				</linearGradient>
				<path style="fill:url(#SVGID_00000006701084452464894310000002950275690243676059_);" d="M241.1,473.2
					c14.9,0,26.9-9.2,26.9-20.6V48.5H99.8c-14.9,0-26.9,9.2-26.9,20.6v404.1H241.1z"/>
				
					<linearGradient id="SVGID_00000151521891088482044730000001300117924499458709_" gradientUnits="userSpaceOnUse" x1="-1000.386" y1="263.15" x2="-805.586" y2="263.15" gradientTransform="matrix(-1 0 0 -1 -732.586 524)">
					<stop  offset="0" style="stop-color:#F0F0F0"/>
					<stop  offset="1" style="stop-color:#F5F5F5"/>
				</linearGradient>
				<path style="fill:url(#SVGID_00000151521891088482044730000001300117924499458709_);" d="M241.1,473.1
					c14.7,0,26.7-9.2,26.7-20.5v-404h-168C85,48.6,73,57.8,73,69.1v404H241.1z"/>
				
					<linearGradient id="SVGID_00000176762580500520497890000002568152709128357771_" gradientUnits="userSpaceOnUse" x1="-1000.286" y1="263.1" x2="-805.786" y2="263.1" gradientTransform="matrix(-1 0 0 -1 -732.586 524)">
					<stop  offset="0" style="stop-color:#F1F1F1"/>
					<stop  offset="1" style="stop-color:#F4F4F4"/>
				</linearGradient>
				<path style="fill:url(#SVGID_00000176762580500520497890000002568152709128357771_);" d="M241.1,472.9
					c14.6,0,26.6-9.1,26.6-20.3V48.8H99.8c-14.6,0-26.6,9.1-26.6,20.3V473h167.9V472.9z"/>
				
					<linearGradient id="SVGID_00000062190838971754808200000007696938557171858573_" gradientUnits="userSpaceOnUse" x1="-1000.086" y1="263.15" x2="-805.986" y2="263.15" gradientTransform="matrix(-1 0 0 -1 -732.586 524)">
					<stop  offset="0" style="stop-color:#F2F2F2"/>
					<stop  offset="1" style="stop-color:#F3F3F3"/>
				</linearGradient>
				<path style="fill:url(#SVGID_00000062190838971754808200000007696938557171858573_);" d="M241.1,472.8
					c14.5,0,26.4-9.1,26.4-20.2V48.9H99.8c-14.5,0-26.4,9.1-26.4,20.2v403.7L241.1,472.8L241.1,472.8z"/>
				
					<linearGradient id="SVGID_00000000218565593569503090000006434982239819034525_" gradientUnits="userSpaceOnUse" x1="-999.886" y1="263.1" x2="-806.186" y2="263.1" gradientTransform="matrix(-1 0 0 -1 -732.586 524)">
					<stop  offset="0" style="stop-color:#F3F3F3"/>
					<stop  offset="1" style="stop-color:#F2F2F2"/>
				</linearGradient>
				<path style="fill:url(#SVGID_00000000218565593569503090000006434982239819034525_);" d="M241.1,472.7c14.4,0,26.2-9,26.2-20
					V49.1H99.8c-14.4,0-26.2,9-26.2,20v403.6H241.1z"/>
				
					<linearGradient id="SVGID_00000128466672574204907930000017087596873662582933_" gradientUnits="userSpaceOnUse" x1="-999.686" y1="263.15" x2="-806.386" y2="263.15" gradientTransform="matrix(-1 0 0 -1 -732.586 524)">
					<stop  offset="0" style="stop-color:#F4F4F4"/>
					<stop  offset="1" style="stop-color:#F1F1F1"/>
				</linearGradient>
				<path style="fill:url(#SVGID_00000128466672574204907930000017087596873662582933_);" d="M241.1,472.5c14.3,0,26-8.9,26-19.9
					V49.2H99.8c-14.3,0-26,8.9-26,19.9v403.4H241.1z"/>
				
					<linearGradient id="SVGID_00000021808568108063500480000012233215202445337265_" gradientUnits="userSpaceOnUse" x1="-999.486" y1="263.15" x2="-806.586" y2="263.15" gradientTransform="matrix(-1 0 0 -1 -732.586 524)">
					<stop  offset="0" style="stop-color:#F5F5F5"/>
					<stop  offset="1" style="stop-color:#F0F0F0"/>
				</linearGradient>
				<path style="fill:url(#SVGID_00000021808568108063500480000012233215202445337265_);" d="M241.1,472.4
					c14.2,0,25.8-8.9,25.8-19.8V49.3H99.8C85.5,49.3,74,58.2,74,69.1v403.3H241.1z"/>
				
					<linearGradient id="SVGID_00000018219665236588187770000004517473386818094518_" gradientUnits="userSpaceOnUse" x1="-999.286" y1="263.15" x2="-806.786" y2="263.15" gradientTransform="matrix(-1 0 0 -1 -732.586 524)">
					<stop  offset="0" style="stop-color:#F7F7F7"/>
					<stop  offset="1" style="stop-color:#EEEEEE"/>
				</linearGradient>
				<path style="fill:url(#SVGID_00000018219665236588187770000004517473386818094518_);" d="M241.1,472.2
					c14.1,0,25.6-8.8,25.6-19.6V49.5H99.8c-14.1,0-25.6,8.8-25.6,19.6v403.1H241.1z"/>
				
					<linearGradient id="SVGID_00000098214419924392361820000016701910291173139365_" gradientUnits="userSpaceOnUse" x1="-999.086" y1="263.15" x2="-806.986" y2="263.15" gradientTransform="matrix(-1 0 0 -1 -732.586 524)">
					<stop  offset="0" style="stop-color:#F8F8F8"/>
					<stop  offset="0.9658" style="stop-color:#EDEDED"/>
					<stop  offset="1" style="stop-color:#EDEDED"/>
				</linearGradient>
				<path style="fill:url(#SVGID_00000098214419924392361820000016701910291173139365_);" d="M241.1,472.1c14,0,25.4-8.7,25.4-19.5
					v-403H99.8c-14,0-25.4,8.7-25.4,19.5v403H241.1z"/>
				
					<linearGradient id="SVGID_00000160165615397893671140000008989054845717569954_" gradientUnits="userSpaceOnUse" x1="-998.986" y1="263.1" x2="-807.086" y2="263.1" gradientTransform="matrix(-1 0 0 -1 -732.586 524)">
					<stop  offset="0" style="stop-color:#F9F9F9"/>
					<stop  offset="0.7351" style="stop-color:#F0F0F0"/>
					<stop  offset="1" style="stop-color:#ECECEC"/>
				</linearGradient>
				<path style="fill:url(#SVGID_00000160165615397893671140000008989054845717569954_);" d="M241.1,471.9
					c13.9,0,25.3-8.7,25.3-19.3V49.8H99.8c-13.9,0-25.3,8.7-25.3,19.3V472h166.6V471.9z"/>
				
					<linearGradient id="SVGID_00000122696578052655919060000018244981681936092813_" gradientUnits="userSpaceOnUse" x1="-998.786" y1="263.15" x2="-807.286" y2="263.15" gradientTransform="matrix(-1 0 0 -1 -732.586 524)">
					<stop  offset="0" style="stop-color:#FAFAFA"/>
					<stop  offset="0.6016" style="stop-color:#F3F3F3"/>
					<stop  offset="1" style="stop-color:#EBEBEB"/>
				</linearGradient>
				<path style="fill:url(#SVGID_00000122696578052655919060000018244981681936092813_);" d="M241.1,471.8
					c13.8,0,25.1-8.6,25.1-19.2V49.9H99.8c-13.8,0-25.1,8.6-25.1,19.2v402.7L241.1,471.8L241.1,471.8z"/>
				
					<linearGradient id="SVGID_00000134933552509543422480000011534096507692332734_" gradientUnits="userSpaceOnUse" x1="-998.586" y1="263.1" x2="-807.486" y2="263.1" gradientTransform="matrix(-1 0 0 -1 -732.586 524)">
					<stop  offset="0" style="stop-color:#FBFBFB"/>
					<stop  offset="0.5195" style="stop-color:#F5F5F5"/>
					<stop  offset="1" style="stop-color:#EAEAEA"/>
				</linearGradient>
				<path style="fill:url(#SVGID_00000134933552509543422480000011534096507692332734_);" d="M241.1,471.7c13.7,0,24.9-8.5,24.9-19
					V50.1H99.8c-13.7,0-24.9,8.5-24.9,19v402.6H241.1z"/>
				
					<linearGradient id="SVGID_00000031910934045065606470000000176599987941140407_" gradientUnits="userSpaceOnUse" x1="-998.386" y1="263.15" x2="-807.686" y2="263.15" gradientTransform="matrix(-1 0 0 -1 -732.586 524)">
					<stop  offset="0" style="stop-color:#FDFDFD"/>
					<stop  offset="0.4407" style="stop-color:#F8F8F8"/>
					<stop  offset="0.986" style="stop-color:#E8E8E8"/>
					<stop  offset="1" style="stop-color:#E8E8E8"/>
				</linearGradient>
				<path style="fill:url(#SVGID_00000031910934045065606470000000176599987941140407_);" d="M241.1,471.5
					c13.6,0,24.7-8.5,24.7-18.9V50.2h-166c-13.6,0-24.7,8.5-24.7,18.9v402.4H241.1z"/>
				
					<linearGradient id="SVGID_00000073682148546691523690000014619976749100256138_" gradientUnits="userSpaceOnUse" x1="-998.186" y1="263.15" x2="-807.886" y2="263.15" gradientTransform="matrix(-1 0 0 -1 -732.586 524)">
					<stop  offset="0" style="stop-color:#FEFEFE"/>
					<stop  offset="0.4135" style="stop-color:#F9F9F9"/>
					<stop  offset="0.8819" style="stop-color:#ECECEC"/>
					<stop  offset="1" style="stop-color:#E7E7E7"/>
				</linearGradient>
				<path style="fill:url(#SVGID_00000073682148546691523690000014619976749100256138_);" d="M241.1,471.4
					c13.5,0,24.5-8.4,24.5-18.8V50.3H99.8c-13.5,0-24.5,8.4-24.5,18.8v402.3H241.1z"/>
				
					<linearGradient id="SVGID_00000106112581274446716590000010801354135460016570_" gradientUnits="userSpaceOnUse" x1="-997.986" y1="263.15" x2="-808.086" y2="263.15" gradientTransform="matrix(-1 0 0 -1 -732.586 524)">
					<stop  offset="0" style="stop-color:#FFFFFF"/>
					<stop  offset="0.3978" style="stop-color:#FBFBFB"/>
					<stop  offset="0.8093" style="stop-color:#EEEEEE"/>
					<stop  offset="1" style="stop-color:#E6E6E6"/>
				</linearGradient>
				<path style="fill:url(#SVGID_00000106112581274446716590000010801354135460016570_);" d="M241.1,471.2
					c13.4,0,24.3-8.3,24.3-18.6V50.5H99.8c-13.4,0-24.3,8.3-24.3,18.6v402.1H241.1z"/>
			</g>
		</g>
	</g>
	<g>
		
			<radialGradient id="SVGID_00000135658814830804567490000013858916327967937181_" cx="-1525.2727" cy="-4229.2378" r="59.7054" gradientTransform="matrix(-1.2807 -5.690442e-03 -2.311418e-05 -4.744049e-02 -1787.5144 -60.1178)" gradientUnits="userSpaceOnUse">
			<stop  offset="0" style="stop-color:#000000"/>
			<stop  offset="0.1205" style="stop-color:#040404"/>
			<stop  offset="0.2454" style="stop-color:#111111"/>
			<stop  offset="0.3724" style="stop-color:#252525"/>
			<stop  offset="0.5008" style="stop-color:#434343"/>
			<stop  offset="0.6304" style="stop-color:#686868"/>
			<stop  offset="0.761" style="stop-color:#969696"/>
			<stop  offset="0.8898" style="stop-color:#CBCBCB"/>
			<stop  offset="1" style="stop-color:#FFFFFF"/>
		</radialGradient>
		<path style="opacity:0.7;fill:url(#SVGID_00000135658814830804567490000013858916327967937181_);enable-background:new    ;" d="
			M89.6,148.8c0,1.6,34.2,3,76.4,3.2s76.4-1,76.4-2.5s-34.2-3-76.4-3.2C123.8,146.2,89.6,147.3,89.6,148.8z"/>
	</g>
	<g>
		<g>
			<defs>
				<filter id="Adobe_OpacityMaskFilter" filterUnits="userSpaceOnUse" x="85.2" y="452.1" width="152.8" height="7.8">
					<feColorMatrix  type="matrix" values="1 0 0 0 0  0 1 0 0 0  0 0 1 0 0  0 0 0 1 0"/>
				</filter>
			</defs>
			
				<mask maskUnits="userSpaceOnUse" x="85.2" y="452.1" width="152.8" height="7.8" id="SVGID_00000150060901111586845920000016450905441546151334_">
				<g class="st50">
					<g>
						<defs>
							<polygon id="SVGID_00000140003291623618366290000008368274060065051570_" points="1,1 2,1 1,2 							"/>
						</defs>
						<defs>
							<polygon id="SVGID_00000080914114329391759520000007184063704613282197_" points="-1,-1 -2,-1 -1,-2 							"/>
						</defs>
						<clipPath id="SVGID_00000015324317078174546230000012274567029922854814_">
							<use xlink:href="#SVGID_00000140003291623618366290000008368274060065051570_"  style="overflow:visible;"/>
						</clipPath>
						
							<clipPath id="SVGID_00000078042215707424349900000005663222864424073381_" style="clip-path:url(#SVGID_00000015324317078174546230000012274567029922854814_);">
							<use xlink:href="#SVGID_00000080914114329391759520000007184063704613282197_"  style="overflow:visible;"/>
						</clipPath>
						
							<radialGradient id="SVGID_00000014599166814850136330000007785210493928826803_" cx="-1521.7501" cy="-9043.3926" r="59.7014" gradientTransform="matrix(-1.2807 -7.677347e-03 -2.311418e-05 -6.400506e-02 -1787.5144 -134.5438)" gradientUnits="userSpaceOnUse">
							<stop  offset="0" style="stop-color:#FFFFFF"/>
							<stop  offset="0.1025" style="stop-color:#EDEDED"/>
							<stop  offset="0.3081" style="stop-color:#BEBEBE"/>
							<stop  offset="0.598" style="stop-color:#737373"/>
							<stop  offset="0.9582" style="stop-color:#0C0C0C"/>
							<stop  offset="1" style="stop-color:#000000"/>
						</radialGradient>
						
							<path style="clip-path:url(#SVGID_00000078042215707424349900000005663222864424073381_);fill:url(#SVGID_00000014599166814850136330000007785210493928826803_);" d="
							M85.2,455.5c0,2.1,34.2,4,76.4,4.3s76.4-1.3,76.4-3.4s-34.2-4-76.4-4.3C119.4,451.9,85.2,453.4,85.2,455.5z"/>
					</g>
				</g>
			</mask>
			
				<radialGradient id="SVGID_00000169521615939074575840000002165595206116155813_" cx="-1521.7501" cy="-9043.3926" r="59.7014" gradientTransform="matrix(-1.2807 -7.677347e-03 -2.311418e-05 -6.400506e-02 -1787.5144 -134.5438)" gradientUnits="userSpaceOnUse">
				<stop  offset="0" style="stop-color:#FFFFFF"/>
				<stop  offset="0.1025" style="stop-color:#EDEDED"/>
				<stop  offset="0.3081" style="stop-color:#BEBEBE"/>
				<stop  offset="0.598" style="stop-color:#737373"/>
				<stop  offset="0.9582" style="stop-color:#0C0C0C"/>
				<stop  offset="1" style="stop-color:#000000"/>
			</radialGradient>
			
				<path style="mask:url(#SVGID_00000150060901111586845920000016450905441546151334_);fill:url(#SVGID_00000169521615939074575840000002165595206116155813_);" d="
				M85.2,455.5c0,2.1,34.2,4,76.4,4.3s76.4-1.3,76.4-3.4s-34.2-4-76.4-4.3C119.4,451.9,85.2,453.4,85.2,455.5z"/>
		</g>
	</g>
	
		<radialGradient id="SVGID_00000067202062298312058760000001951394093192017073_" cx="-1524.0927" cy="-9043.1113" r="59.7014" gradientTransform="matrix(-1.2807 -7.677347e-03 -2.311418e-05 -6.400506e-02 -1787.5144 -134.5438)" gradientUnits="userSpaceOnUse">
		<stop  offset="0" style="stop-color:#000000"/>
		<stop  offset="0.1205" style="stop-color:#040404"/>
		<stop  offset="0.2454" style="stop-color:#111111"/>
		<stop  offset="0.3724" style="stop-color:#252525"/>
		<stop  offset="0.5008" style="stop-color:#434343"/>
		<stop  offset="0.6304" style="stop-color:#686868"/>
		<stop  offset="0.761" style="stop-color:#969696"/>
		<stop  offset="0.8898" style="stop-color:#CBCBCB"/>
		<stop  offset="1" style="stop-color:#FFFFFF"/>
	</radialGradient>
	<path style="opacity:0.7;fill:url(#SVGID_00000067202062298312058760000001951394093192017073_);enable-background:new    ;" d="
		M88.2,455.5c0,2.1,34.2,4,76.4,4.3s76.4-1.3,76.4-3.4s-34.2-4-76.4-4.3C122.4,451.9,88.2,453.4,88.2,455.5z"/>
	<g>
		<path class="st55" d="M143.1,94.4c-3,0-5.7-0.5-8.2-1.4c-2.5-1-4.7-2.3-6.5-4.1s-3.3-3.8-4.3-6.1c-1-2.3-1.5-4.9-1.5-7.7
			c0-2.8,0.5-5.4,1.5-7.7c1-2.3,2.5-4.4,4.3-6.1s4-3.1,6.5-4.1s5.2-1.4,8.2-1.4s5.8,0.5,8.2,1.4c2.5,1,4.7,2.3,6.5,4
			s3.3,3.8,4.3,6.1c1,2.4,1.6,4.9,1.6,7.7c0,2.8-0.5,5.4-1.6,7.7c-1,2.4-2.5,4.4-4.3,6.1s-4,3.1-6.5,4
			C148.9,93.9,146.1,94.4,143.1,94.4z M143.1,85.7c1.4,0,2.7-0.2,3.9-0.7s2.3-1.2,3.2-2.1s1.6-2.1,2.1-3.4s0.8-2.8,0.8-4.3
			c0-1.6-0.3-3.1-0.8-4.4s-1.2-2.4-2.1-3.3c-0.9-0.9-2-1.7-3.2-2.1c-1.2-0.5-2.5-0.7-3.9-0.7s-2.7,0.2-3.9,0.7s-2.3,1.2-3.2,2.1
			s-1.6,2-2.1,3.3s-0.8,2.7-0.8,4.4c0,1.6,0.3,3,0.8,4.3s1.2,2.4,2.1,3.4c0.9,0.9,2,1.7,3.2,2.1C140.4,85.5,141.7,85.7,143.1,85.7z
			 M155.3,102.6c-1.6,0-3.1-0.2-4.5-0.5s-2.7-0.9-4.1-1.6c-1.3-0.7-2.7-1.7-4.1-3s-3-2.8-4.8-4.7l11-2.8c0.9,1.3,1.7,2.3,2.4,3.1
			c0.7,0.7,1.4,1.3,2.1,1.6c0.7,0.3,1.4,0.5,2.2,0.5c2,0,3.9-0.9,5.6-2.6l4.6,5.4C163.1,101.1,159.6,102.6,155.3,102.6z"/>
		<path class="st55" d="M172,94.1c-1.7,0-3.1-0.6-4.3-1.7s-1.7-2.6-1.7-4.3c0-1.8,0.6-3.2,1.7-4.3c1.2-1.1,2.6-1.6,4.3-1.6
			s3.1,0.5,4.3,1.6s1.7,2.5,1.7,4.3c0,1.7-0.6,3.2-1.7,4.3C175.1,93.6,173.7,94.1,172,94.1z"/>
		<path class="st55" d="M181.6,93.7v-6.6l13.9-13c1-0.9,1.7-1.7,2.2-2.4c0.5-0.7,0.8-1.4,1-1.9c0.2-0.6,0.2-1.1,0.2-1.6
			c0-1.2-0.4-2.1-1.2-2.8c-0.8-0.7-2-1-3.6-1c-1.3,0-2.6,0.3-3.8,0.9s-2.1,1.5-2.9,2.7l-7.8-4.3c1.4-2.3,3.4-4.2,6-5.6
			c2.6-1.4,5.7-2.1,9.4-2.1c2.9,0,5.4,0.5,7.5,1.4c2.2,0.9,3.8,2.2,5.1,3.9c1.2,1.7,1.8,3.7,1.8,6c0,1.2-0.2,2.4-0.5,3.6
			s-0.9,2.4-1.8,3.8c-0.9,1.3-2.2,2.8-4,4.4l-11,10.2l-1.7-3.7h20.1v8.3h-28.9V93.7z"/>
	</g>
	<g>
		<path class="st56" d="M130.1,131.5v-4.2l8.9-8.3c0.6-0.6,1.1-1.1,1.4-1.6c0.3-0.5,0.5-0.9,0.6-1.2s0.2-0.7,0.2-1
			c0-0.8-0.3-1.4-0.8-1.8s-1.3-0.6-2.3-0.6c-0.9,0-1.7,0.2-2.4,0.6s-1.4,1-1.8,1.7l-5-2.8c0.9-1.5,2.2-2.7,3.8-3.6
			c1.7-0.9,3.7-1.4,6-1.4c1.8,0,3.4,0.3,4.8,0.9c1.4,0.6,2.5,1.4,3.2,2.5c0.8,1.1,1.2,2.4,1.2,3.8c0,0.8-0.1,1.5-0.3,2.3
			s-0.6,1.6-1.2,2.4c-0.6,0.9-1.4,1.8-2.6,2.8l-7.1,6.5l-1.1-2.4h12.9v5.3h-18.4V131.5z"/>
		<path class="st56" d="M161.1,132c-2,0-3.8-0.5-5.4-1.5c-1.6-1-2.8-2.4-3.7-4.2s-1.4-4.1-1.4-6.7s0.5-4.9,1.4-6.7
			c0.9-1.8,2.1-3.2,3.7-4.2c1.6-1,3.4-1.5,5.4-1.5s3.8,0.5,5.4,1.5c1.6,1,2.8,2.4,3.7,4.2s1.4,4.1,1.4,6.7s-0.5,4.9-1.4,6.7
			c-0.9,1.8-2.1,3.2-3.7,4.2C164.9,131.5,163.1,132,161.1,132z M161.1,126.5c0.7,0,1.4-0.2,1.9-0.7c0.6-0.5,1-1.2,1.3-2.2
			s0.5-2.3,0.5-4s-0.2-3-0.5-4s-0.8-1.7-1.3-2.2c-0.6-0.5-1.2-0.7-1.9-0.7s-1.4,0.2-1.9,0.7c-0.6,0.5-1,1.2-1.3,2.2s-0.5,2.3-0.5,4
			s0.2,3,0.5,4s0.8,1.7,1.3,2.2C159.7,126.3,160.4,126.5,161.1,126.5z"/>
		<path class="st56" d="M173.5,131.5v-4.2l8.9-8.3c0.6-0.6,1.1-1.1,1.4-1.6c0.3-0.5,0.5-0.9,0.6-1.2c0.1-0.4,0.2-0.7,0.2-1
			c0-0.8-0.3-1.4-0.8-1.8s-1.3-0.6-2.3-0.6c-0.9,0-1.7,0.2-2.4,0.6s-1.4,1-1.8,1.7l-5-2.8c0.9-1.5,2.2-2.7,3.8-3.6
			c1.7-0.9,3.7-1.4,6-1.4c1.8,0,3.4,0.3,4.8,0.9c1.4,0.6,2.5,1.4,3.2,2.5s1.2,2.4,1.2,3.8c0,0.8-0.1,1.5-0.3,2.3s-0.6,1.6-1.2,2.4
			c-0.6,0.9-1.4,1.8-2.6,2.8l-7.1,6.5l-1.1-2.4h13v5.3h-18.5V131.5z"/>
		<path class="st56" d="M202,132c-1.7,0-3.3-0.2-4.9-0.6c-1.6-0.4-3.1-1-4.3-1.7l2.4-5.1c1,0.6,2,1.1,3.2,1.5
			c1.2,0.3,2.3,0.5,3.4,0.5c1.2,0,2.1-0.2,2.8-0.6s1-1,1-1.8c0-0.7-0.3-1.3-0.8-1.7c-0.6-0.4-1.5-0.6-2.8-0.6h-2.8v-4.2l6.4-6.9
			l0.6,2.3H194v-5.2h17.2v4.2l-6.4,6.9l-3.3-1.9h1.8c3,0,5.2,0.7,6.7,2s2.3,3,2.3,5.1c0,1.4-0.4,2.6-1.1,3.8
			c-0.7,1.2-1.9,2.2-3.4,2.9C206.3,131.6,204.4,132,202,132z"/>
	</g>
	<g>
		<path d="M86.2,182.6l2.4-0.3h0.5l2.1,0.3v1h-5V182.6z M86.3,169.4h2.9v1.3h-0.3l-2.7-0.3L86.3,169.4L86.3,169.4z M88.2,169.4h1.1
			l0.2,6.9v7.3h-1.2L88.2,169.4L88.2,169.4z M88.2,169.4H91l4.5,11.6h-0.7l4.3-11.6h1.3l-5.3,14.2h-1.4L88.2,169.4z M97.7,182.6
			l2.7-0.3h0.7l3,0.3v1h-6.3L97.7,182.6L97.7,182.6z M99.4,177.2v-7.8h2.8c-0.1,2.2-0.1,4.4-0.1,6.6v0.9c0,2.2,0,4.5,0.1,6.6h-2.9
			C99.4,181.5,99.4,179.2,99.4,177.2z M100.8,169.4h3.2v1l-2.9,0.3h-0.3C100.8,170.7,100.8,169.4,100.8,169.4z"/>
		<path d="M109.1,177.9c0.9-0.3,2.3-0.7,3.4-0.9v0.8c-1,0.2-2.2,0.6-2.8,0.9c-1.4,0.6-1.9,1.3-1.9,2.2c0,1.1,0.7,1.6,1.5,1.6
			c0.6,0,1-0.2,2-1l0.6-0.5l0.3,0.4l-0.8,0.8c-1.2,1.2-1.9,1.8-3.3,1.8c-1.6,0-2.8-0.9-2.8-2.7C105.2,179.9,106,178.9,109.1,177.9z
			 M111.1,181.8v-5.1c0-2-0.5-2.5-1.9-2.5c-0.5,0-1.1,0.1-2,0.3l1.2-0.8l-0.4,1.7c-0.1,1-0.6,1.5-1.3,1.5c-0.7,0-1.1-0.3-1.2-1
			c0.3-1.7,1.9-2.8,4.5-2.8c2.5,0,3.6,1.1,3.6,3.9v4.7c0,0.7,0.2,1,0.6,1c0.3,0,0.5-0.2,0.7-0.5l0.5,0.4c-0.5,1-1.2,1.4-2.2,1.4
			C112,183.9,111.2,183.1,111.1,181.8z"/>
		<path d="M117.6,179.2V178c0-1.2,0-1.7-0.1-2.6l-1.5-0.2v-0.8l3.6-1.4l0.3,0.2l0.2,2.7v3.2c0,1.3,0,3.5,0.1,4.5h-2.7
			C117.6,182.7,117.6,180.5,117.6,179.2z M116.2,182.8l2.2-0.4h1.4l2.2,0.4v0.9h-5.8C116.2,183.7,116.2,182.8,116.2,182.8z
			 M119,176.3h1.4l-0.4,0.4c0.5-2.3,1.9-3.6,3.2-3.6c0.8,0,1.5,0.4,1.7,1.2c0,1.1-0.5,1.7-1.4,1.7c-0.6,0-1-0.3-1.5-0.8l-0.6-0.7
			l1,0.1c-1,0.6-1.8,1.7-2.2,3.2l-1.2-0.1V176.3z"/>
		<path d="M129,167.9l0.3,0.2l-0.1,3v7.9c0,1.5,0,3.4,0.1,4.6h-2.7c0-1.2,0.1-3.1,0.1-4.5v-9.2l-1.6-0.2v-0.8L129,167.9z
			 M130.7,182.8v0.9h-5.5v-0.9l2.2-0.4h1L130.7,182.8z M135.5,173.4l-7.6,7.4v-1.3l6.1-6.1L135.5,173.4L135.5,173.4z M134.2,182.2
			l2.6,0.6v0.9h-3.6l-3.1-5.6l1.8-1.7l4,7L134.2,182.2z M133.3,174.7l-2-0.4v-0.9h5v0.9l-2.4,0.3L133.3,174.7z"/>
		<path d="M146.7,177.4c0,0.5,0,0.9-0.1,1.2h-8.2v-1h4.6c1,0,1.3-0.4,1.3-1.2c0-1.3-0.8-2.2-1.9-2.2c-1.1,0-2.3,1.1-2.3,4.1
			c0,2.7,1.3,4,3.2,4c1.3,0,2.1-0.6,2.8-1.3l0.6,0.5c-0.8,1.6-2.3,2.5-4.3,2.5c-3,0-5-2-5-5.4s2.5-5.5,5.2-5.5
			C145,173.1,146.7,174.8,146.7,177.4z"/>
		<path d="M153,182.5c0.4,0,0.8-0.2,1.3-0.5l0.5,0.5c-0.6,0.9-1.5,1.4-2.8,1.4c-1.7,0-2.7-0.8-2.7-2.7c0-0.6,0-1.1,0-2v-4.6h-1.6
			v-1.1l2.6-0.3l-1,0.8l1-3.6h1.7l-0.1,3.8v6.8C151.9,182.1,152.3,182.5,153,182.5z M154.5,173.4v1.3h-3.9v-1.3H154.5z"/>
		<path d="M156.9,183.7c0-1,0.1-3.2,0.1-4.5v-1c0-1.2,0-1.8-0.1-2.7l-1.5-0.2v-0.8l3.9-1.4l0.3,0.2l-0.1,3v2.8c0,1.3,0,3.5,0.1,4.5
			L156.9,183.7L156.9,183.7z M160.8,182.8v0.9h-5.3v-0.9l2.2-0.4h1L160.8,182.8z M156.6,169.6c0-0.9,0.7-1.5,1.6-1.5
			c0.9,0,1.6,0.6,1.6,1.5s-0.7,1.5-1.6,1.5S156.6,170.5,156.6,169.6z"/>
		<path d="M163.5,183.7c0-1,0.1-3.2,0.1-4.5V178c0-1.2,0-1.7-0.1-2.6l-1.5-0.2v-0.8l3.6-1.4l0.3,0.2l0.2,2.4v3.4
			c0,1.3,0,3.5,0.1,4.5h-2.7V183.7z M167.4,182.8v0.9h-5.3v-0.9l2.2-0.4h1L167.4,182.8z M172.6,176.9v2.2c0,1.4,0,3.5,0.1,4.5H170
			c0-1,0.1-3.1,0.1-4.5v-2c0-1.7-0.4-2.2-1.5-2.2c-0.9,0-1.9,0.5-2.9,1.5H165v-1.2h1.3l-0.9,0.5c1.3-1.8,2.7-2.6,4.3-2.6
			C171.5,173.1,172.6,174.3,172.6,176.9z M171.8,182.3l2.1,0.4v0.9h-5.3v-0.9l2.1-0.4H171.8z"/>
		<path d="M183.2,185.6c0-0.8-0.5-1.5-1.9-1.5h-2.4c-0.7,0-1.3-0.1-1.7-0.2v-0.1c-1.1-0.3-1.6-0.9-1.6-1.8c0-0.9,0.6-1.8,2-3
			l0.5,0.3c-0.5,0.6-0.7,1-0.7,1.5s0.3,0.9,1.2,0.9h2.7c2.8,0,3.9,1.1,3.9,2.9c0,2-2,3.8-5.8,3.8c-3.3,0-4.5-1.1-4.5-2.6
			c0-1.1,0.7-1.9,2.6-2.6l0.2,0.2c-0.7,0.7-0.9,1.2-0.9,2c0,1.3,1,1.9,2.8,1.9C182,187.5,183.2,186.7,183.2,185.6z M179.7,173.1
			c2.6,0,4.2,1.3,4.2,3.5c0,2.1-1.6,3.5-4.2,3.5c-2.6,0-4.2-1.3-4.2-3.5C175.5,174.4,177.1,173.1,179.7,173.1z M177.9,176.6
			c0,1.5,0.6,2.5,1.8,2.5s1.9-1,1.9-2.6c0-1.5-0.6-2.5-1.8-2.5C178.5,174,177.9,175,177.9,176.6z M185.1,173.1l0.3,0.2v1.5h-3.1
			v-0.6L185.1,173.1z"/>
		<path d="M97.6,204.1v1.1l-1.4,0.3l0.6-3.3h1.5l-0.1,3.2c-1.2,0.7-2.7,1.1-4.4,1.1c-4.2,0-7.3-2.8-7.3-7.5s3.3-7.5,7.4-7.5
			c1.4,0,2.8,0.3,4.2,1l0.1,3.2h-1.5l-0.6-3.3l1.4,0.3v1.2c-1.1-1-2.1-1.4-3.1-1.4c-2.6,0-4.8,2.1-4.8,6.3c0,4.3,2,6.3,4.6,6.3
			C95.2,205.4,96.4,205,97.6,204.1z"/>
		<path d="M103.6,200.4c0.9-0.3,2.3-0.7,3.4-0.9v0.8c-1,0.2-2.2,0.6-2.8,0.9c-1.4,0.6-1.9,1.3-1.9,2.2c0,1.1,0.7,1.6,1.5,1.6
			c0.6,0,1-0.2,2-1l0.6-0.5l0.3,0.4l-0.8,0.8c-1.2,1.2-1.9,1.8-3.3,1.8c-1.6,0-2.8-0.9-2.8-2.7C99.8,202.4,100.6,201.4,103.6,200.4z
			 M105.7,204.4v-5.1c0-2-0.5-2.5-1.9-2.5c-0.5,0-1.1,0.1-2,0.3l1.2-0.8l-0.4,1.7c-0.1,1-0.6,1.5-1.3,1.5c-0.7,0-1.1-0.3-1.2-1
			c0.3-1.7,1.9-2.8,4.5-2.8c2.5,0,3.6,1.1,3.6,3.9v4.7c0,0.7,0.2,1,0.6,1c0.3,0,0.5-0.2,0.7-0.5l0.5,0.4c-0.5,1-1.2,1.4-2.2,1.4
			C106.6,206.5,105.8,205.7,105.7,204.4z"/>
		<path d="M112.2,206.2c0-1,0.1-3.2,0.1-4.5v-1.1c0-1.2,0-1.7-0.1-2.6l-1.5-0.2V197l3.6-1.4l0.3,0.2l0.2,2.4v3.4
			c0,1.3,0,3.5,0.1,4.5h-2.7V206.2z M116.1,205.3v0.9h-5.3v-0.9l2.2-0.4h1L116.1,205.3z M121.2,199.5v2.2c0,1.4,0,3.5,0.1,4.5h-2.7
			c0-1,0.1-3.1,0.1-4.5v-1.9c0-1.7-0.4-2.3-1.5-2.3c-1,0-1.9,0.6-2.8,1.5h-0.6v-1.2h1.2l-0.8,0.5c1.2-1.6,2.6-2.6,4.2-2.6
			C120.2,195.7,121.2,196.8,121.2,199.5z M120.4,204.9l2.1,0.4v0.9h-5.2v-0.9l2.1-0.4H120.4z M127.6,199.4v2.3c0,1.4,0,3.5,0.1,4.5
			H125c0-1,0.1-3.1,0.1-4.5v-2c0-1.8-0.4-2.3-1.5-2.3c-0.9,0-1.8,0.5-2.8,1.5h-0.6v-1.1h1.3l-0.9,0.4c1.3-1.9,2.7-2.6,4.2-2.6
			C126.6,195.7,127.6,196.8,127.6,199.4z M126.8,204.9l2.1,0.4v0.9h-5.2v-0.9l2.1-0.4H126.8z"/>
		<path d="M131.3,200.6c0-1.2,0-1.7-0.1-2.6l-1.5-0.2V197l3.6-1.4l0.3,0.2l0.2,1.7l0.1,0.2v6.7l-0.1,0.2v1.8c0,1.4,0,3,0.1,4.7h-2.6
			c0-1.7,0.1-3.2,0.1-4.7v-5.8H131.3z M135.6,210.3v0.9h-5.7v-0.9l2.2-0.4h1.3L135.6,210.3z M136,197.2c-1,0-2,0.8-3.1,1.9l-0.2-0.4
			c1.2-2.1,2.6-3.1,4.3-3.1c2.3,0,4.1,2,4.1,5.4s-2,5.5-4.5,5.5c-1.6,0-2.8-0.9-3.9-3.1l0.2-0.4c1,1.3,1.8,1.9,2.9,1.9
			c1.4,0,2.6-1.2,2.6-3.9S137.4,197.2,136,197.2z"/>
		<path d="M146.5,200.4c0.9-0.3,2.3-0.7,3.4-0.9v0.8c-1,0.2-2.2,0.6-2.8,0.9c-1.4,0.6-1.9,1.3-1.9,2.2c0,1.1,0.7,1.6,1.5,1.6
			c0.6,0,1-0.2,2-1l0.6-0.5l0.3,0.4l-0.8,0.8c-1.2,1.2-1.9,1.8-3.3,1.8c-1.6,0-2.8-0.9-2.8-2.7C142.6,202.4,143.4,201.4,146.5,200.4
			z M148.5,204.4v-5.1c0-2-0.5-2.5-1.9-2.5c-0.5,0-1.1,0.1-2,0.3l1.2-0.8l-0.4,1.7c-0.1,1-0.6,1.5-1.3,1.5s-1.1-0.3-1.2-1
			c0.3-1.7,1.9-2.8,4.5-2.8c2.5,0,3.6,1.1,3.6,3.9v4.7c0,0.7,0.2,1,0.6,1c0.3,0,0.5-0.2,0.7-0.5l0.5,0.4c-0.5,1-1.2,1.4-2.2,1.4
			C149.4,206.5,148.6,205.7,148.5,204.4z"/>
		<path d="M155,206.2c0-1,0.1-3.2,0.1-4.5v-1c0-1.2,0-1.8-0.1-2.7l-1.5-0.2V197l3.9-1.4l0.3,0.2l-0.1,3v2.8c0,1.3,0,3.5,0.1,4.5
			L155,206.2L155,206.2z M159,205.3v0.9h-5.3v-0.9l2.2-0.4h1L159,205.3z M154.7,192.1c0-0.9,0.7-1.5,1.6-1.5c0.9,0,1.6,0.6,1.6,1.5
			s-0.7,1.5-1.6,1.5C155.4,193.7,154.7,193,154.7,192.1z"/>
		<path d="M168.3,208.2c0-0.8-0.5-1.5-1.9-1.5H164c-0.7,0-1.3-0.1-1.7-0.2v-0.1c-1.1-0.3-1.6-0.9-1.6-1.8c0-0.9,0.6-1.8,2-3l0.5,0.3
			c-0.5,0.6-0.7,1-0.7,1.5s0.3,0.9,1.2,0.9h2.7c2.8,0,3.9,1.1,3.9,2.9c0,2-2,3.8-5.8,3.8c-3.3,0-4.5-1.1-4.5-2.6
			c0-1.1,0.7-1.9,2.6-2.6l0.2,0.2c-0.7,0.7-0.9,1.2-0.9,2c0,1.3,1,1.9,2.8,1.9C167.1,210.1,168.3,209.3,168.3,208.2z M164.8,195.7
			c2.6,0,4.2,1.3,4.2,3.5c0,2.1-1.6,3.5-4.2,3.5c-2.6,0-4.2-1.3-4.2-3.5S162.1,195.7,164.8,195.7z M163,199.1c0,1.5,0.6,2.5,1.8,2.5
			s1.9-1,1.9-2.6c0-1.5-0.6-2.5-1.8-2.5C163.6,196.6,163,197.6,163,199.1z M170.2,195.6l0.3,0.2v1.5h-3.1v-0.6L170.2,195.6z"/>
		<path d="M173,206.2c0-1,0.1-3.2,0.1-4.5v-1.1c0-1.2,0-1.7-0.1-2.6l-1.5-0.2V197l3.6-1.4l0.3,0.2l0.2,2.4v3.4c0,1.3,0,3.5,0.1,4.5
			H173V206.2z M176.9,205.3v0.9h-5.3v-0.9l2.2-0.4h1L176.9,205.3z M182.1,199.5v2.2c0,1.4,0,3.5,0.1,4.5h-2.7c0-1,0.1-3.1,0.1-4.5
			v-2c0-1.7-0.4-2.2-1.5-2.2c-0.9,0-1.9,0.5-2.9,1.5h-0.6v-1.2h1.3l-0.9,0.5c1.3-1.8,2.7-2.6,4.3-2.6
			C181.1,195.7,182.1,196.8,182.1,199.5z M181.3,204.9l2.1,0.4v0.9h-5.3v-0.9l2.1-0.4H181.3z"/>
		<path d="M191.5,193.3l-3-0.3v-1h6.4v1l-2.8,0.3H191.5z M189.5,192h3l3.9,11.5l-0.5,0.2l4-11.7h1.3l-4.9,14.3h-1.5L189.5,192z
			 M199.9,193.3l-2.2-0.3v-1h4.8v1l-2.2,0.3H199.9z"/>
		<path d="M203.7,204.6c1.1-1,2.1-2.1,3-3c2.1-2.2,3.1-3.7,3.1-5.5c0-1.7-0.9-2.7-2.4-2.7c-0.6,0-1.3,0.1-2.1,0.5l1.4-0.9l-0.4,2
			c-0.3,1.2-0.8,1.6-1.4,1.6c-0.5,0-1-0.3-1.2-0.8c0.1-2.3,2.2-3.5,4.6-3.5c2.9,0,4.2,1.6,4.2,3.7c0,2-1.2,3.6-4.7,6.4
			c-0.7,0.6-1.6,1.4-2.6,2.2l-0.3-0.4h8v2.2h-9.2L203.7,204.6L203.7,204.6z"/>
		<path d="M88.7,228.3l-2.9-0.3v-1H92v1l-2.7,0.3H88.7z M96,227h1.4l3.5,11.6l-0.9,1.2l3.6-12.7h1.2l-4.1,14.3h-1.5l-3.7-11.6
			l0.8-0.4l-3.7,11.9h-1.5L87,227h2.9l3,11.6l-1,1.2L96,227z M96.4,228.3l-2.7-0.3v-1h6.1v1l-2.6,0.3H96.4z M103.7,228.3l-2.1-0.3
			v-1h4.7v1l-2.1,0.3H103.7z"/>
		<path d="M114.9,234.9c0,0.5,0,0.9-0.1,1.2h-8.2v-1h4.6c1,0,1.3-0.4,1.3-1.2c0-1.3-0.8-2.2-1.9-2.2s-2.3,1.1-2.3,4.1
			c0,2.7,1.3,4,3.2,4c1.3,0,2.1-0.6,2.8-1.3l0.6,0.5c-0.8,1.6-2.3,2.5-4.3,2.5c-3,0-5-2-5-5.4s2.5-5.5,5.2-5.5
			C113.2,230.6,114.9,232.4,114.9,234.9z"/>
		<path d="M116.1,240.3l2.2-0.4l-0.8,1.3c0-1,0.1-3.2,0.1-4.5v-9.2l-1.6-0.2v-0.8l3.8-1l0.3,0.2l-0.1,3v3.7l0.1,0.3v6.9l-0.4,1.9
			l-3.6-0.3V240.3z M124.6,236.1c0-2.6-1-3.9-2.4-3.9c-1,0-2,0.8-3.1,1.9l-0.2-0.4c1.2-2.1,2.6-3.1,4.3-3.1c2.3,0,4.1,1.9,4.1,5.3
			c0,3.4-2,5.5-4.5,5.5c-1.6,0-2.8-0.8-3.9-3.1l0.2-0.4c1,1.3,1.9,1.9,2.9,1.9C123.5,240,124.6,238.7,124.6,236.1z"/>
		<path d="M132.7,233.5c1.8,0,2.9-0.9,2.9-2.8c0-1.6-0.9-2.5-2.4-2.5c-0.4,0-1,0.1-1.7,0.3l1.1-0.7l-0.4,1.7c-0.2,1-0.7,1.4-1.4,1.4
			c-0.5,0-0.9-0.2-1.1-0.7c0.2-2.1,2-3,4.1-3c2.8,0,4.4,1.4,4.4,3.4c0,1.7-1.3,3.1-3.9,3.6v-0.4c3,0.3,4.3,1.6,4.3,3.6
			c0,2.3-1.9,4-5.1,4c-2.5,0-4.1-1.1-4.4-3.3c0.3-0.6,0.7-0.8,1.2-0.8c0.8,0,1.2,0.5,1.4,1.7l0.4,1.8l-0.9-0.8
			c0.6,0.3,1.2,0.3,1.7,0.3c2,0,3-1,3-3c0-1.8-1-2.9-3-2.9H132v-1.1h0.7V233.5z"/>
		<path d="M146.8,228.3l-3-0.3v-1h6.4v1l-2.8,0.3H146.8z M144.8,227h3l3.9,11.5l-0.5,0.2l4-11.7h1.3l-4.9,14.3h-1.5L144.8,227z
			 M155.2,228.3L153,228v-1h4.8v1l-2.2,0.3H155.2z"/>
		<path d="M158.7,228v-1h3.2v1.3h-0.3L158.7,228z M162.2,239.9l3,0.3v1h-6.5v-1l3-0.3H162.2z M160.6,233.6c0-2.2,0-4.4-0.1-6.6h2.9
			c-0.1,2.2-0.1,4.4-0.1,6.8v0.7c0,2.4,0,4.6,0.1,6.8h-2.9c0.1-2.2,0.1-4.4,0.1-6.6V233.6z M162,233.6h2.6c2.2,0,3.1-1.2,3.1-2.8
			c0-1.8-0.9-2.7-2.9-2.7H162V227h3.2c3.3,0,5.2,1.4,5.2,3.7c0,1.7-1.3,3.4-4.6,3.6v-0.2c2.5,0.1,3.4,1,3.9,3.2l0.8,3.4l-1.2-0.8
			l2.7,0.3v1c-0.7,0.2-1.1,0.3-2,0.3c-1.6,0-2.4-0.4-2.6-1.8l-0.6-3c-0.3-1.6-1-2.1-2.5-2.1H162V233.6z"/>
		<path d="M177.8,228v-1h3.2v1.3h-0.3L177.8,228z M181.5,239.9l3,0.3v1h-6.6v-1l3-0.3H181.5z M179.6,233.6c0-2.2,0-4.4-0.1-6.6h2.9
			c-0.1,2.2-0.1,4.4-0.1,6.6v1.3c0,2,0,4.1,0.1,6.3h-2.9c0.1-2.2,0.1-4.4,0.1-6.6V233.6z M183.3,235.7H181v-1.1h2.4
			c2.3,0,3.2-1.4,3.2-3.4s-1.1-3.1-3.3-3.1H181V227h2.6c4,0,5.8,1.7,5.8,4.3C189.4,233.7,187.8,235.7,183.3,235.7z"/>
		<path d="M190.9,239.6c1.1-1,2.1-2.1,3-3c2.1-2.2,3.1-3.7,3.1-5.5c0-1.7-0.9-2.7-2.4-2.7c-0.6,0-1.3,0.1-2.1,0.5l1.4-0.9l-0.4,2
			c-0.3,1.2-0.8,1.6-1.4,1.6c-0.5,0-1-0.3-1.2-0.8c0.1-2.3,2.2-3.5,4.6-3.5c2.9,0,4.2,1.6,4.2,3.7c0,2-1.2,3.6-4.7,6.4
			c-0.7,0.6-1.6,1.4-2.6,2.2l-0.3-0.4h8v2.2h-9.2L190.9,239.6L190.9,239.6z"/>
		<path d="M201.8,228v-1h3.2v1.3h-0.3L201.8,228z M205,239.9v1.3h-3.2v-1l3-0.3H205z M203.6,233.6c0-2.2,0-4.4-0.1-6.6h2.9
			c-0.1,2.2-0.1,4.4-0.1,6.6v0.8c0,2.4,0,4.6,0.1,6.8h-2.9c0.1-2.2,0.1-4.4,0.1-6.6V233.6z M210.6,227l1.3,1.1H205V227h7.6l0.1,3.8
			h-1.5L210.6,227z M209.8,234.5H205v-1.1h4.8V234.5z M213.2,237.4l-0.1,3.8h-8v-1.1h7.3l-1.3,1.1l0.6-3.8H213.2z M209.1,233.6
			l0.3-2.2h1.1v4.8h-1.1l-0.3-2.3V233.6z"/>
		<path d="M97.6,259.4v1.1l-1.4,0.3l0.6-3.3h1.5l-0.1,3.2c-1.2,0.7-2.7,1.1-4.4,1.1c-4.2,0-7.3-2.8-7.3-7.5c0-4.7,3.3-7.5,7.4-7.5
			c1.4,0,2.8,0.3,4.2,1l0.1,3.2h-1.5l-0.6-3.3l1.4,0.3v1.2c-1.1-1-2.1-1.4-3.1-1.4c-2.6,0-4.8,2.1-4.8,6.3c0,4.3,2,6.3,4.6,6.3
			C95.2,260.7,96.4,260.3,97.6,259.4z"/>
		<path d="M103.6,255.7c0.9-0.3,2.3-0.7,3.4-0.9v0.8c-1,0.2-2.2,0.6-2.8,0.9c-1.4,0.6-1.9,1.3-1.9,2.2c0,1.1,0.7,1.6,1.5,1.6
			c0.6,0,1-0.2,2-1l0.6-0.5l0.3,0.4l-0.8,0.8c-1.2,1.2-1.9,1.8-3.3,1.8c-1.6,0-2.8-0.9-2.8-2.7C99.8,257.7,100.6,256.7,103.6,255.7z
			 M105.7,259.6v-5.1c0-2-0.5-2.5-1.9-2.5c-0.5,0-1.1,0.1-2,0.3l1.2-0.8l-0.4,1.7c-0.1,1-0.6,1.5-1.3,1.5c-0.7,0-1.1-0.3-1.2-1
			c0.3-1.7,1.9-2.8,4.5-2.8c2.5,0,3.6,1.1,3.6,3.9v4.7c0,0.7,0.2,1,0.6,1c0.3,0,0.5-0.2,0.7-0.5l0.5,0.4c-0.5,1-1.2,1.4-2.2,1.4
			C106.6,261.8,105.8,261,105.7,259.6z"/>
		<path d="M112.2,257v-1.1c0-1.2,0-1.7-0.1-2.6l-1.5-0.2v-0.8l3.6-1.4l0.3,0.2l0.2,2.7v3.2c0,1.3,0,3.5,0.1,4.5h-2.7
			C112.2,260.5,112.2,258.3,112.2,257z M110.8,260.6l2.2-0.4h1.4l2.2,0.4v0.9h-5.8C110.8,261.5,110.8,260.6,110.8,260.6z
			 M113.6,254.1h1.4l-0.4,0.4c0.5-2.3,1.9-3.6,3.2-3.6c0.8,0,1.5,0.4,1.7,1.2c0,1.1-0.5,1.7-1.4,1.7c-0.6,0-1-0.3-1.5-0.8l-0.6-0.7
			l1,0.1c-1,0.6-1.8,1.7-2.2,3.2l-1.2-0.1V254.1z"/>
		<path d="M125.2,248.3v-1h3.2v1.3h-0.3L125.2,248.3z M128.7,260.2l3,0.3v1h-6.5v-1l3-0.3H128.7z M127,253.9c0-2.2,0-4.4-0.1-6.6
			h2.9c-0.1,2.2-0.1,4.4-0.1,6.8v0.7c0,2.4,0,4.6,0.1,6.8H127c0.1-2.2,0.1-4.4,0.1-6.6L127,253.9L127,253.9z M128.4,253.9h2.6
			c2.2,0,3.1-1.2,3.1-2.8c0-1.8-0.9-2.7-2.9-2.7h-2.8v-1.1h3.2c3.3,0,5.2,1.4,5.2,3.7c0,1.7-1.3,3.4-4.6,3.6v-0.2
			c2.5,0.1,3.4,1,3.9,3.2l0.8,3.4l-1.2-0.8l2.7,0.3v1c-0.7,0.2-1.1,0.3-2,0.3c-1.6,0-2.4-0.4-2.6-1.8l-0.6-3c-0.3-1.6-1-2.1-2.5-2.1
			h-2.3L128.4,253.9L128.4,253.9z"/>
		<path d="M143.2,255.7c0.9-0.3,2.3-0.7,3.4-0.9v0.8c-1,0.2-2.2,0.6-2.8,0.9c-1.4,0.6-1.9,1.3-1.9,2.2c0,1.1,0.7,1.6,1.5,1.6
			c0.6,0,1-0.2,2-1l0.6-0.5l0.3,0.4l-0.8,0.8c-1.2,1.2-1.9,1.8-3.3,1.8c-1.6,0-2.8-0.9-2.8-2.7C139.4,257.7,140.1,256.7,143.2,255.7
			z M145.3,259.6v-5.1c0-2-0.5-2.5-1.9-2.5c-0.5,0-1.1,0.1-2,0.3l1.2-0.8l-0.4,1.7c-0.1,1-0.6,1.5-1.3,1.5s-1.1-0.3-1.2-1
			c0.3-1.7,1.9-2.8,4.5-2.8c2.5,0,3.6,1.1,3.6,3.9v4.7c0,0.7,0.2,1,0.6,1c0.3,0,0.5-0.2,0.7-0.5l0.5,0.4c-0.5,1-1.2,1.4-2.2,1.4
			C146.1,261.8,145.4,261,145.3,259.6z"/>
		<path d="M153.2,256.1c0,2.6,1.3,4,3.2,4c1.1,0,2.1-0.5,2.7-1.4l0.6,0.5c-0.7,1.8-2.2,2.7-4.2,2.7c-2.9,0-5.1-2-5.1-5.4
			s2.5-5.5,5.4-5.5c2.1,0,3.7,1.3,3.9,2.9c-0.2,0.7-0.6,1-1.2,1c-0.8,0-1.3-0.5-1.4-1.5l-0.4-1.7l1.3,0.8c-0.7-0.3-1.3-0.5-2-0.5
			C154.5,252,153.2,253.3,153.2,256.1z"/>
		<path d="M162.5,261.5c0-1,0.1-3.2,0.1-4.5v-1c0-1.2,0-1.8-0.1-2.7l-1.5-0.2v-0.8l3.9-1.4l0.3,0.2l-0.1,3v2.8c0,1.3,0,3.5,0.1,4.5
			h-2.7V261.5z M166.4,260.6v0.9h-5.3v-0.9l2.2-0.4h1L166.4,260.6z M162.2,247.4c0-0.9,0.7-1.5,1.6-1.5s1.6,0.6,1.6,1.5
			s-0.7,1.5-1.6,1.5S162.2,248.3,162.2,247.4z"/>
		<path d="M169.1,261.5c0-1,0.1-3.2,0.1-4.5v-1.1c0-1.2,0-1.7-0.1-2.6l-1.5-0.2v-0.8l3.6-1.4l0.3,0.2l0.2,2.4v3.4
			c0,1.3,0,3.5,0.1,4.5h-2.7V261.5z M173,260.6v0.9h-5.3v-0.9l2.2-0.4h1L173,260.6z M178.2,254.8v2.2c0,1.4,0,3.5,0.1,4.5h-2.7
			c0-1,0.1-3.1,0.1-4.5v-2c0-1.7-0.4-2.2-1.5-2.2c-0.9,0-1.9,0.5-2.9,1.5h-0.6v-1.2h1.3l-0.9,0.5c1.3-1.8,2.7-2.6,4.3-2.6
			C177.2,250.9,178.2,252.1,178.2,254.8z M177.4,260.2l2.1,0.4v0.9h-5.3v-0.9l2.1-0.4H177.4z"/>
		<path d="M188.8,263.5c0-0.8-0.5-1.5-1.9-1.5h-2.4c-0.7,0-1.3-0.1-1.7-0.2v-0.1c-1.1-0.3-1.6-0.9-1.6-1.8s0.6-1.8,2-3l0.5,0.3
			c-0.5,0.6-0.7,1-0.7,1.5s0.3,0.9,1.2,0.9h2.7c2.8,0,3.9,1.1,3.9,2.9c0,2-2,3.8-5.8,3.8c-3.3,0-4.5-1.1-4.5-2.6
			c0-1.1,0.7-1.9,2.6-2.6l0.2,0.2c-0.7,0.7-0.9,1.2-0.9,2c0,1.3,1,1.9,2.8,1.9C187.6,265.4,188.8,264.5,188.8,263.5z M185.3,250.9
			c2.6,0,4.2,1.3,4.2,3.5c0,2.1-1.6,3.5-4.2,3.5c-2.6,0-4.2-1.3-4.2-3.5C181.1,252.3,182.7,250.9,185.3,250.9z M183.5,254.4
			c0,1.5,0.6,2.5,1.8,2.5s1.9-1,1.9-2.6c0-1.5-0.6-2.5-1.8-2.5C184.2,251.9,183.5,252.9,183.5,254.4z M190.8,250.9l0.3,0.2v1.5H188
			V252L190.8,250.9z"/>
		<path d="M209.2,260.6c-1.5,0.8-2.9,1.3-4.8,1.3c-4.4,0-7.3-3-7.3-7.5c0-4.4,2.9-7.5,7.5-7.5c1.6,0,3,0.3,4.2,1l0.1,3.2h-1.5
			l-0.6-3.3l1.4,0.4v1.2c-1.1-0.9-2.1-1.3-3.3-1.3c-2.7,0-4.7,2.1-4.7,6.3s2,6.3,4.8,6.3c1.1,0,1.8-0.3,2.9-0.8l-1.3,1.2v-1.4
			c0-1.7,0-3.3-0.1-5h2.8c0,1.7-0.1,3.3-0.1,5.1L209.2,260.6L209.2,260.6z M204.4,255.6v-1h6.1v1l-2.4,0.3h-0.9L204.4,255.6z"/>
		<path d="M215.4,255.7c0.9-0.3,2.3-0.7,3.4-0.9v0.8c-1,0.2-2.2,0.6-2.8,0.9c-1.4,0.6-1.9,1.3-1.9,2.2c0,1.1,0.7,1.6,1.5,1.6
			c0.6,0,1-0.2,2-1l0.6-0.5l0.3,0.4l-0.8,0.8c-1.2,1.2-1.9,1.8-3.3,1.8c-1.6,0-2.8-0.9-2.8-2.7C211.5,257.7,212.3,256.7,215.4,255.7
			z M217.4,259.6v-5.1c0-2-0.5-2.5-1.9-2.5c-0.5,0-1.1,0.1-2,0.3l1.2-0.8l-0.4,1.7c-0.1,1-0.6,1.5-1.3,1.5s-1.1-0.3-1.2-1
			c0.3-1.7,1.9-2.8,4.5-2.8c2.5,0,3.6,1.1,3.6,3.9v4.7c0,0.7,0.2,1,0.6,1c0.3,0,0.5-0.2,0.7-0.5l0.5,0.4c-0.5,1-1.2,1.4-2.2,1.4
			C218.3,261.8,217.5,261,217.4,259.6z"/>
		<path d="M223.9,261.5c0-1,0.1-3.2,0.1-4.5v-1.1c0-1.2,0-1.7-0.1-2.6l-1.5-0.2v-0.8l3.6-1.4l0.3,0.2l0.2,2.4v3.4
			c0,1.3,0,3.5,0.1,4.5h-2.7V261.5z M227.8,260.6v0.9h-5.3v-0.9l2.2-0.4h1L227.8,260.6z M232.9,254.8v2.2c0,1.4,0,3.5,0.1,4.5h-2.7
			c0-1,0.1-3.1,0.1-4.5v-1.9c0-1.7-0.4-2.3-1.5-2.3c-1,0-1.9,0.6-2.8,1.5h-0.6v-1.2h1.2l-0.8,0.5c1.2-1.6,2.6-2.6,4.2-2.6
			C232,250.9,232.9,252.1,232.9,254.8z M232.2,260.2l2.1,0.4v0.9H229v-0.9l2.1-0.4H232.2z M239.3,254.7v2.3c0,1.4,0,3.5,0.1,4.5
			h-2.7c0-1,0.1-3.1,0.1-4.5v-2c0-1.8-0.4-2.3-1.5-2.3c-0.9,0-1.8,0.5-2.8,1.5h-0.6v-1.1h1.3l-0.9,0.4c1.3-1.9,2.7-2.6,4.2-2.6
			C238.3,250.9,239.3,252.1,239.3,254.7z M238.6,260.2l2.1,0.4v0.9h-5.2v-0.9l2.1-0.4H238.6z"/>
		<path d="M251.4,255.3c0,0.5,0,0.9-0.1,1.2h-8.2v-1h4.6c1,0,1.3-0.4,1.3-1.2c0-1.3-0.8-2.2-1.9-2.2c-1.1,0-2.3,1.1-2.3,4.1
			c0,2.7,1.3,4,3.2,4c1.3,0,2.1-0.6,2.8-1.3l0.6,0.5c-0.8,1.6-2.3,2.5-4.3,2.5c-3,0-5-2-5-5.4s2.5-5.5,5.2-5.5
			C249.7,250.9,251.4,252.7,251.4,255.3z"/>
		<path d="M253.1,255.3h5.2v1.7h-5.2L253.1,255.3L253.1,255.3z"/>
		<path d="M98.5,280.9c-1.5,0.8-2.9,1.3-4.8,1.3c-4.4,0-7.3-3-7.3-7.5c0-4.4,2.9-7.5,7.5-7.5c1.6,0,3,0.3,4.2,1l0.1,3.2h-1.5
			l-0.6-3.3l1.4,0.4v1.2c-1.1-0.9-2.1-1.3-3.3-1.3c-2.7,0-4.7,2.1-4.7,6.3c0,4.2,2,6.3,4.8,6.3c1.1,0,1.8-0.3,2.9-0.8l-1.3,1.2V280
			c0-1.7,0-3.3-0.1-5h2.8c0,1.7-0.1,3.3-0.1,5.1V280.9z M93.7,275.9v-1h6.1v1l-2.4,0.3h-0.9L93.7,275.9z"/>
		<path d="M100.9,276.7c0-3.4,2.4-5.4,5.2-5.4c2.7,0,5.2,2,5.2,5.4s-2.3,5.4-5.2,5.4C103.1,282.1,100.9,280.1,100.9,276.7z
			 M108.4,276.7c0-3-0.8-4.4-2.4-4.4s-2.4,1.5-2.4,4.4c0,3,0.8,4.4,2.4,4.4S108.4,279.7,108.4,276.7z"/>
		<path d="M117.7,268.6v-1h6.5v1l-3,0.3h-0.6L117.7,268.6z M120.9,280.5v1.3h-3.2v-1l3-0.3H120.9z M119.4,267.6h2.9
			c-0.1,2.2-0.1,4.4-0.1,6.6v1.3c0,1.9,0,4.1,0.1,6.3h-2.9c0.1-2.2,0.1-4.4,0.1-6.4v-1.2C119.5,272,119.5,269.8,119.4,267.6z
			 M128.8,277.7l-0.2,4.1h-7.7v-1.2h6.9l-1.4,1.2l0.8-4.1H128.8z"/>
		<path d="M131.5,281.8c0-1,0.1-3.2,0.1-4.5v-1c0-1.2,0-1.8-0.1-2.7l-1.5-0.2v-0.8l3.9-1.4l0.3,0.2l-0.1,3v2.8c0,1.3,0,3.5,0.1,4.5
			h-2.7V281.8z M135.5,280.9v0.9h-5.3v-0.9l2.2-0.4h1L135.5,280.9z M131.2,267.7c0-0.9,0.7-1.5,1.6-1.5c0.9,0,1.6,0.6,1.6,1.5
			s-0.7,1.5-1.6,1.5C131.9,269.3,131.2,268.6,131.2,267.7z"/>
		<path d="M137.7,272.8l-2-0.4v-0.9h5.6v0.9l-2.3,0.4H137.7z M139.3,271.6l3.1,8.2l-1.2,1.7l3.4-9.9h1.3l-3.9,10.3h-1.3l-4.3-10.3
			L139.3,271.6L139.3,271.6z M144.6,272.8l-2-0.3v-0.9h4.1v0.9l-1.6,0.3H144.6z"/>
		<path d="M156.6,275.6c0,0.5,0,0.9-0.1,1.2h-8.2v-1h4.6c1,0,1.3-0.4,1.3-1.2c0-1.3-0.8-2.2-1.9-2.2c-1.1,0-2.3,1.1-2.3,4.1
			c0,2.7,1.3,4,3.2,4c1.3,0,2.1-0.6,2.8-1.3l0.6,0.5c-0.8,1.6-2.3,2.5-4.3,2.5c-3,0-5-2-5-5.4s2.5-5.5,5.2-5.5
			C154.9,271.3,156.6,273,156.6,275.6z"/>
		<path d="M86.4,303.6v-1h3.2v1.3h-0.3L86.4,303.6z M89.6,315.5v1.3h-3.2v-1l3-0.3H89.6z M88.2,309.3c0-2.2,0-4.5-0.1-6.7H91
			c-0.1,2.2-0.1,4.4-0.1,6.7v0.6c0,2.4,0,4.7,0.1,6.9h-2.9c0.1-2.2,0.1-4.4,0.1-6.7V309.3z M89.6,308.9h2.2c2.2,0,3.2-0.9,3.2-2.7
			c0-1.8-1-2.5-2.9-2.5h-2.5v-1.1h3.3c3.3,0,4.8,1.4,4.8,3.4c0,1.6-1.1,3-4.2,3.4v-0.2c3.6,0.3,5,1.7,5,3.6s-1.5,3.9-6.2,3.9h-2.8
			v-1.1H92c2.4,0,3.6-1,3.6-2.8c0-2-1.2-2.9-3.7-2.9h-2.3V308.9z"/>
		<path d="M109.6,310.5c0,0.5,0,0.9-0.1,1.2h-8.2v-1h4.6c1,0,1.3-0.4,1.3-1.2c0-1.3-0.8-2.2-1.9-2.2s-2.3,1.1-2.3,4.1
			c0,2.7,1.3,4,3.2,4c1.3,0,2.1-0.6,2.8-1.3l0.6,0.5c-0.8,1.6-2.3,2.5-4.3,2.5c-3,0-5-2-5-5.4s2.5-5.5,5.2-5.5
			C107.9,306.2,109.6,308,109.6,310.5z"/>
		<path d="M115.9,315.7c0.4,0,0.8-0.2,1.3-0.5l0.5,0.5c-0.6,0.9-1.5,1.4-2.8,1.4c-1.7,0-2.7-0.8-2.7-2.7c0-0.6,0-1.1,0-2v-4.6h-1.6
			v-1.1l2.6-0.3l-1,0.8l1-3.6h1.7l-0.1,3.8v6.8C114.8,315.2,115.2,315.7,115.9,315.7z M117.4,306.5v1.3h-3.9v-1.3H117.4z"/>
		<path d="M123.3,315.7c0.4,0,0.8-0.2,1.3-0.5l0.5,0.5c-0.6,0.9-1.5,1.4-2.8,1.4c-1.7,0-2.7-0.8-2.7-2.7c0-0.6,0-1.1,0-2v-4.6H118
			v-1.1l2.6-0.3l-1,0.8l1-3.6h1.7l-0.1,3.8v6.8C122.2,315.2,122.6,315.7,123.3,315.7z M124.8,306.5v1.3h-3.9v-1.3H124.8z"/>
		<path d="M127.1,316.8c0-1,0.1-3.2,0.1-4.5v-1c0-1.2,0-1.8-0.1-2.7l-1.5-0.2v-0.8l3.9-1.4l0.3,0.2l-0.1,3v2.8c0,1.3,0,3.5,0.1,4.5
			h-2.7V316.8z M131.1,315.9v0.9h-5.3v-0.9l2.2-0.4h1L131.1,315.9z M126.8,302.7c0-0.9,0.7-1.5,1.6-1.5c0.9,0,1.6,0.6,1.6,1.5
			s-0.7,1.5-1.6,1.5C127.6,304.2,126.8,303.6,126.8,302.7z"/>
		<path d="M133.7,316.8c0-1,0.1-3.2,0.1-4.5v-1.1c0-1.2,0-1.7-0.1-2.6l-1.5-0.2v-0.8l3.6-1.4l0.3,0.2l0.2,2.4v3.4
			c0,1.3,0,3.5,0.1,4.5h-2.7V316.8z M137.7,315.9v0.9h-5.3v-0.9l2.2-0.4h1L137.7,315.9z M142.9,310.1v2.2c0,1.4,0,3.5,0.1,4.5h-2.7
			c0-1,0.1-3.1,0.1-4.5v-2c0-1.7-0.4-2.2-1.5-2.2c-0.9,0-1.9,0.5-2.9,1.5h-0.6v-1.2h1.3l-0.9,0.5c1.3-1.8,2.7-2.6,4.3-2.6
			C141.8,306.2,142.9,307.4,142.9,310.1z M142.1,315.5l2.1,0.4v0.9h-5.3v-0.9l2.1-0.4H142.1z"/>
		<path d="M153.5,318.8c0-0.8-0.5-1.5-1.9-1.5h-2.4c-0.7,0-1.3-0.1-1.7-0.2V317c-1.1-0.3-1.6-0.9-1.6-1.8s0.6-1.8,2-3l0.5,0.3
			c-0.5,0.6-0.7,1-0.7,1.5s0.3,0.9,1.2,0.9h2.7c2.8,0,3.9,1.1,3.9,2.9c0,2-2,3.8-5.8,3.8c-3.3,0-4.5-1.1-4.5-2.6
			c0-1.1,0.7-1.9,2.6-2.6l0.2,0.2c-0.7,0.7-0.9,1.2-0.9,2c0,1.3,1,1.9,2.8,1.9C152.3,320.7,153.5,319.8,153.5,318.8z M150,306.2
			c2.6,0,4.2,1.3,4.2,3.5c0,2.1-1.6,3.5-4.2,3.5c-2.6,0-4.2-1.3-4.2-3.5C145.8,307.6,147.3,306.2,150,306.2z M148.2,309.7
			c0,1.5,0.6,2.5,1.8,2.5s1.9-1,1.9-2.6c0-1.5-0.6-2.5-1.8-2.5C148.8,307.2,148.2,308.2,148.2,309.7z M155.4,306.2l0.3,0.2v1.5h-3.1
			v-0.6L155.4,306.2z"/>
		<path d="M161.8,303.6v-1h3.2v1.3h-0.3L161.8,303.6z M165.4,315.5l3,0.3v1h-6.6v-1l3-0.3H165.4z M163.6,309.2c0-2.2,0-4.4-0.1-6.6
			h2.9c-0.1,2.2-0.1,4.4-0.1,6.6v1.3c0,2,0,4.1,0.1,6.3h-2.9c0.1-2.2,0.1-4.4,0.1-6.6V309.2z M167.2,311.3H165v-1.1h2.4
			c2.3,0,3.2-1.4,3.2-3.4s-1.1-3.1-3.3-3.1H165v-1.1h2.6c4,0,5.8,1.7,5.8,4.3C173.4,309.2,171.8,311.3,167.2,311.3z"/>
		<path d="M178,301.1l0.3,0.2l-0.1,3v8c0,1.5,0,3,0.1,4.5h-2.7c0-1.5,0.1-3,0.1-4.5v-9.2l-1.6-0.2V302L178,301.1z M179.8,315.9v0.9
			h-5.6v-0.9l2.2-0.4h1L179.8,315.9z"/>
		<path d="M184.7,311c0.9-0.3,2.3-0.7,3.4-0.9v0.8c-1,0.2-2.2,0.6-2.8,0.9c-1.4,0.6-1.9,1.3-1.9,2.2c0,1.1,0.7,1.6,1.5,1.6
			c0.6,0,1-0.2,2-1l0.6-0.5l0.3,0.4l-0.8,0.8c-1.2,1.2-1.9,1.8-3.3,1.8c-1.6,0-2.8-0.9-2.8-2.7C180.9,313,181.6,312,184.7,311z
			 M186.8,314.9v-5.1c0-2-0.5-2.5-1.9-2.5c-0.5,0-1.1,0.1-2,0.3l1.2-0.8l-0.4,1.7c-0.1,1-0.6,1.5-1.3,1.5s-1.1-0.3-1.2-1
			c0.3-1.7,1.9-2.8,4.5-2.8c2.5,0,3.6,1.1,3.6,3.9v4.7c0,0.7,0.2,1,0.6,1c0.3,0,0.5-0.2,0.7-0.5l0.5,0.4c-0.5,1-1.2,1.4-2.2,1.4
			C187.7,317.1,186.9,316.2,186.8,314.9z"/>
		<path d="M196.7,315.7c0.4,0,0.8-0.2,1.3-0.5l0.5,0.5c-0.6,0.9-1.5,1.4-2.8,1.4c-1.7,0-2.7-0.8-2.7-2.7c0-0.6,0-1.1,0-2v-4.6h-1.6
			v-1.1l2.6-0.3l-1,0.8l1-3.6h1.7l-0.1,3.8v6.8C195.6,315.2,196.1,315.7,196.7,315.7z M198.2,306.5v1.3h-3.9v-1.3H198.2z"/>
		<path d="M200.7,307.8h-1.6v-1.1l2.5-0.3l-0.9,0.5c0.2-2.5,0.8-3.7,1.7-4.6c1-1,2.2-1.4,3.3-1.4s2.1,0.4,2.3,1.3
			c0,0.7-0.5,1.2-1.4,1.2c-0.6,0-1.2-0.3-1.7-1.1l-0.8-0.8l2-0.5l0.4,0.6c-0.2-0.1-0.5-0.3-0.8-0.3c-0.7,0-1.3,0.5-1.7,1.1
			c-0.6,0.9-0.8,2.4-0.6,4.9v4.8c0,1.5,0,3,0.1,4.5h-2.7c0-1.5,0.1-3,0.1-4.5v-4.3H200.7z M205.1,315.9v0.9h-5.9v-0.9l2.3-0.4h1.3
			L205.1,315.9z M205.9,306.5v1.3H202v-1.3H205.9z"/>
		<path d="M206.7,311.7c0-3.4,2.4-5.4,5.2-5.4c2.7,0,5.2,2,5.2,5.4s-2.3,5.4-5.2,5.4S206.7,315.1,206.7,311.7z M214.3,311.7
			c0-3-0.8-4.4-2.4-4.4c-1.6,0-2.4,1.5-2.4,4.4c0,3,0.8,4.4,2.4,4.4C213.4,316.1,214.3,314.7,214.3,311.7z"/>
		<path d="M220,312.3v-1.1c0-1.2,0-1.7-0.1-2.6l-1.5-0.2v-0.8l3.6-1.4l0.3,0.2l0.2,2.7v3.2c0,1.3,0,3.5,0.1,4.5H220
			C220,315.8,220,313.6,220,312.3z M218.6,315.9l2.2-0.4h1.4l2.2,0.4v0.9h-5.8L218.6,315.9L218.6,315.9z M221.4,309.4h1.4l-0.4,0.4
			c0.5-2.3,1.9-3.6,3.2-3.6c0.8,0,1.5,0.4,1.7,1.2c0,1.1-0.5,1.7-1.4,1.7c-0.6,0-1-0.3-1.5-0.8l-0.6-0.7l1,0.1
			c-1,0.6-1.8,1.7-2.2,3.2l-1.2-0.1V309.4z"/>
		<path d="M229.4,316.8c0-1,0.1-3.2,0.1-4.5v-1.1c0-1.2,0-1.7-0.1-2.6l-1.5-0.2v-0.8l3.6-1.4l0.3,0.2l0.2,2.4v3.4
			c0,1.3,0,3.5,0.1,4.5h-2.7V316.8z M233.4,315.9v0.9h-5.3v-0.9l2.2-0.4h1L233.4,315.9z M238.5,310.1v2.2c0,1.4,0,3.5,0.1,4.5h-2.7
			c0-1,0.1-3.1,0.1-4.5v-1.9c0-1.7-0.4-2.3-1.5-2.3c-1,0-1.9,0.6-2.8,1.5H231v-1.2h1.2l-0.8,0.5c1.2-1.6,2.6-2.6,4.2-2.6
			C237.5,306.2,238.5,307.4,238.5,310.1z M237.7,315.5l2.1,0.4v0.9h-5.2v-0.9l2.1-0.4H237.7z M244.9,310v2.3c0,1.4,0,3.5,0.1,4.5
			h-2.7c0-1,0.1-3.1,0.1-4.5v-2c0-1.8-0.4-2.3-1.5-2.3c-0.9,0-1.8,0.5-2.8,1.5h-0.6v-1.1h1.3l-0.9,0.4c1.3-1.9,2.7-2.6,4.2-2.6
			C243.9,306.2,244.9,307.4,244.9,310z M244.1,315.5l2.1,0.4v0.9H241v-0.9l2.1-0.4H244.1z"/>
		<path d="M98.5,339.6c-1.5,0.8-2.9,1.3-4.8,1.3c-4.4,0-7.3-3-7.3-7.5c0-4.4,2.9-7.5,7.5-7.5c1.6,0,3,0.3,4.2,1l0.1,3.2h-1.5
			l-0.6-3.3l1.4,0.4v1.2c-1.1-0.9-2.1-1.3-3.3-1.3c-2.7,0-4.7,2.1-4.7,6.3c0,4.2,2,6.3,4.8,6.3c1.1,0,1.8-0.3,2.9-0.8l-1.3,1.2v-1.4
			c0-1.7,0-3.3-0.1-5h2.8c0,1.7-0.1,3.3-0.1,5.1V339.6z M93.7,334.6v-1h6.1v1l-2.4,0.3h-0.9L93.7,334.6z"/>
		<path d="M100.9,335.4c0-3.4,2.4-5.4,5.2-5.4c2.7,0,5.2,2,5.2,5.4s-2.3,5.4-5.2,5.4C103.1,340.8,100.9,338.8,100.9,335.4z
			 M108.4,335.4c0-3-0.8-4.4-2.4-4.4s-2.4,1.5-2.4,4.4c0,3,0.8,4.4,2.4,4.4S108.4,338.4,108.4,335.4z"/>
		<path d="M117.7,327.3v-1h6.5v1l-3,0.3h-0.6L117.7,327.3z M120.9,339.2v1.3h-3.2v-1l3-0.3H120.9z M119.4,326.3h2.9
			c-0.1,2.2-0.1,4.4-0.1,6.6v1.3c0,1.9,0,4.1,0.1,6.3h-2.9c0.1-2.2,0.1-4.4,0.1-6.4v-1.2C119.5,330.7,119.5,328.5,119.4,326.3z
			 M128.8,336.4l-0.2,4.1h-7.7v-1.2h6.9l-1.4,1.2l0.8-4.1H128.8z"/>
		<path d="M131.5,340.5c0-1,0.1-3.2,0.1-4.5v-1c0-1.2,0-1.8-0.1-2.7l-1.5-0.2v-0.8l3.9-1.4l0.3,0.2l-0.1,3v2.8c0,1.3,0,3.5,0.1,4.5
			h-2.7V340.5z M135.5,339.6v0.9h-5.3v-0.9l2.2-0.4h1L135.5,339.6z M131.2,326.4c0-0.9,0.7-1.5,1.6-1.5c0.9,0,1.6,0.6,1.6,1.5
			s-0.7,1.5-1.6,1.5S131.2,327.3,131.2,326.4z"/>
		<path d="M137.7,331.5l-2-0.4v-0.9h5.6v0.9l-2.3,0.4H137.7z M139.3,330.2l3.1,8.2l-1.2,1.7l3.4-9.9h1.3l-3.9,10.3h-1.3l-4.3-10.3
			L139.3,330.2L139.3,330.2z M144.6,331.5l-2-0.3v-0.9h4.1v0.9l-1.6,0.3H144.6z"/>
		<path d="M156.6,334.2c0,0.5,0,0.9-0.1,1.2h-8.2v-1h4.6c1,0,1.3-0.4,1.3-1.2c0-1.3-0.8-2.2-1.9-2.2c-1.1,0-2.3,1.1-2.3,4.1
			c0,2.7,1.3,4,3.2,4c1.3,0,2.1-0.6,2.8-1.3l0.6,0.5c-0.8,1.6-2.3,2.5-4.3,2.5c-3,0-5-2-5-5.4s2.5-5.5,5.2-5.5
			C154.9,329.9,156.6,331.6,156.6,334.2z"/>
		<path d="M97.6,373.4v1.1l-1.4,0.3l0.6-3.3h1.5l-0.1,3.2c-1.2,0.7-2.7,1.1-4.4,1.1c-4.2,0-7.3-2.8-7.3-7.5s3.3-7.5,7.4-7.5
			c1.4,0,2.8,0.3,4.2,1l0.1,3.2h-1.5l-0.6-3.3l1.4,0.3v1.2c-1.1-1-2.1-1.4-3.1-1.4c-2.6,0-4.8,2.1-4.8,6.3c0,4.3,2,6.3,4.6,6.3
			C95.2,374.7,96.4,374.3,97.6,373.4z"/>
		<path d="M99.8,362.3v-1h3.2v1.3h-0.3L99.8,362.3z M103.1,374.1v1.3h-3.2v-1l3-0.3H103.1z M101.7,367.9c0-2.2,0-4.4-0.1-6.6h2.9
			c-0.1,2.2-0.1,4.4-0.1,6.6v0.8c0,2.4,0,4.6,0.1,6.8h-2.9c0.1-2.2,0.1-4.4,0.1-6.6V367.9z M108.6,361.2l1.3,1.1h-6.8v-1.1h7.6
			l0.2,3.8h-1.5L108.6,361.2z M107.8,368.7H103v-1.1h4.8V368.7z M111.2,371.7l-0.1,3.8h-8v-1.1h7.3l-1.3,1.1l0.6-3.8H111.2z
			 M107.2,367.9l0.3-2.2h1.1v4.8h-1.1l-0.3-2.3V367.9z"/>
		<path d="M111.9,374.5l2.2-0.3h0.5l2.1,0.3v1H112L111.9,374.5L111.9,374.5z M112.1,361.2h6.4v1l-2.9,0.3h-0.8l-2.8-0.3v-1H112.1z
			 M118,367.9l0.9,0.5l-4.5,7.1H113L118,367.9z M113,361.2h3.1l8.4,14.2h-3.1L113,361.2z M122.5,361.2h1.4l-4.7,7.3l-0.8-0.5
			L122.5,361.2z M119,374.5l2.9-0.3h0.7l2.9,0.3v1H119V374.5z M120.2,361.2h4.7v1l-2.2,0.2h-0.5l-2.1-0.2L120.2,361.2L120.2,361.2z"
			/>
		<path d="M131.3,362.3v-1h6.5v1l-3,0.3h-0.6L131.3,362.3z M134.6,374.1v1.3h-3.2v-1l3-0.3H134.6z M133.1,361.2h2.9
			c-0.1,2.2-0.1,4.4-0.1,6.6v1.3c0,1.9,0,4.1,0.1,6.3h-2.9c0.1-2.2,0.1-4.4,0.1-6.4v-1.2C133.2,365.7,133.2,363.4,133.1,361.2z
			 M142.4,371.4l-0.2,4.1h-7.7v-1.2h6.9l-1.4,1.2l0.8-4.1H142.4z"/>
		<path d="M145.2,375.5c0-1,0.1-3.2,0.1-4.5v-1c0-1.2,0-1.8-0.1-2.7l-1.5-0.2v-0.8l3.9-1.4l0.3,0.2l-0.1,3v2.8c0,1.3,0,3.5,0.1,4.5
			h-2.7V375.5z M149.1,374.6v0.9h-5.3v-0.9l2.2-0.4h1L149.1,374.6z M144.9,361.4c0-0.9,0.7-1.5,1.6-1.5c0.9,0,1.6,0.6,1.6,1.5
			s-0.7,1.5-1.6,1.5C145.6,362.9,144.9,362.3,144.9,361.4z"/>
		<path d="M150.6,374.9v-2.5h1.4l0.5,2.7l-1.1-0.5v-0.8c0.8,0.6,1.6,0.9,2.7,0.9c1.4,0,2.2-0.5,2.2-1.5c0-0.8-0.5-1.3-1.9-1.7
			l-1.1-0.3c-1.6-0.5-2.6-1.5-2.6-3c0-1.8,1.4-3.2,4.1-3.2c1.2,0,2.2,0.3,3.2,0.9l-0.1,2.3h-1.4l-0.5-2.4l1,0.4v0.7
			c-0.7-0.5-1.3-0.8-2.2-0.8c-1.1,0-1.8,0.5-1.8,1.3s0.4,1.2,1.9,1.7l0.8,0.3c2.1,0.7,2.9,1.8,2.9,3.2c0,1.9-1.6,3.3-4.5,3.3
			C152.7,375.8,151.7,375.5,150.6,374.9z"/>
		<path d="M164.8,374.4c0.4,0,0.8-0.2,1.3-0.5l0.5,0.5c-0.6,0.9-1.5,1.4-2.8,1.4c-1.7,0-2.7-0.8-2.7-2.7c0-0.6,0-1.1,0-2v-4.6h-1.6
			v-1.1l2.6-0.3l-1,0.8l1-3.6h1.7l-0.1,3.8v6.8C163.6,373.9,164.1,374.4,164.8,374.4z M166.2,365.2v1.3h-3.9v-1.3H166.2z"/>
		<path d="M168.6,375.5c0-1,0.1-3.2,0.1-4.5v-1c0-1.2,0-1.8-0.1-2.7l-1.5-0.2v-0.8l3.9-1.4l0.3,0.2l-0.1,3v2.8c0,1.3,0,3.5,0.1,4.5
			h-2.7V375.5z M172.6,374.6v0.9h-5.3v-0.9l2.2-0.4h1L172.6,374.6z M168.3,361.4c0-0.9,0.7-1.5,1.6-1.5s1.6,0.6,1.6,1.5
			s-0.7,1.5-1.6,1.5S168.3,362.3,168.3,361.4z"/>
		<path d="M175.2,375.5c0-1,0.1-3.2,0.1-4.5v-1.1c0-1.2,0-1.7-0.1-2.6l-1.5-0.2v-0.8l3.6-1.4l0.3,0.2l0.2,2.4v3.4
			c0,1.3,0,3.5,0.1,4.5h-2.7V375.5z M179.2,374.6v0.9h-5.3v-0.9l2.2-0.4h1L179.2,374.6z M184.3,368.7v2.2c0,1.4,0,3.5,0.1,4.5h-2.7
			c0-1,0.1-3.1,0.1-4.5v-2c0-1.7-0.4-2.2-1.5-2.2c-0.9,0-1.9,0.5-2.9,1.5h-0.6V367h1.3l-0.9,0.5c1.3-1.8,2.7-2.6,4.3-2.6
			C183.3,364.9,184.3,366.1,184.3,368.7z M183.5,374.2l2.1,0.4v0.9h-5.3v-0.9l2.1-0.4H183.5z"/>
		<path d="M194.9,377.4c0-0.8-0.5-1.5-1.9-1.5h-2.4c-0.7,0-1.3-0.1-1.7-0.2v-0.1c-1.1-0.3-1.6-0.9-1.6-1.8s0.6-1.8,2-3l0.5,0.3
			c-0.5,0.6-0.7,1-0.7,1.5s0.3,0.9,1.2,0.9h2.7c2.8,0,3.9,1.1,3.9,2.9c0,2-2,3.8-5.8,3.8c-3.3,0-4.5-1.1-4.5-2.6
			c0-1.1,0.7-1.9,2.6-2.6l0.2,0.2c-0.7,0.7-0.9,1.2-0.9,2c0,1.3,1,1.9,2.8,1.9C193.8,379.4,194.9,378.5,194.9,377.4z M191.4,364.9
			c2.6,0,4.2,1.3,4.2,3.5c0,2.1-1.6,3.5-4.2,3.5c-2.6,0-4.2-1.3-4.2-3.5C187.3,366.3,188.8,364.9,191.4,364.9z M189.6,368.4
			c0,1.5,0.6,2.5,1.8,2.5s1.9-1,1.9-2.6c0-1.5-0.6-2.5-1.8-2.5S189.6,366.9,189.6,368.4z M196.9,364.9l0.3,0.2v1.5h-3.1V366
			L196.9,364.9z"/>
		<path d="M198.5,374.9v-2.5h1.4l0.5,2.7l-1.1-0.5v-0.8c0.8,0.6,1.6,0.9,2.7,0.9c1.4,0,2.2-0.5,2.2-1.5c0-0.8-0.5-1.3-1.9-1.7
			l-1.1-0.3c-1.6-0.5-2.6-1.5-2.6-3c0-1.8,1.4-3.2,4.1-3.2c1.2,0,2.2,0.3,3.2,0.9l-0.1,2.3h-1.4l-0.5-2.4l1,0.4v0.7
			c-0.7-0.5-1.3-0.8-2.2-0.8c-1.1,0-1.8,0.5-1.8,1.3s0.4,1.2,1.9,1.7l0.8,0.3c2.1,0.7,2.9,1.8,2.9,3.2c0,1.9-1.6,3.3-4.5,3.3
			C200.6,375.8,199.6,375.5,198.5,374.9z"/>
		<path d="M86.4,397.2v-1h3.2v1.3h-0.3L86.4,397.2z M89.6,409.1v1.3h-3.2v-1l3-0.3H89.6z M88.2,402.9c0-2.2,0-4.4-0.1-6.6H91
			c-0.1,2.2-0.1,4.4-0.1,6.6v0.8c0,2.4,0,4.6,0.1,6.8h-2.9c0.1-2.2,0.1-4.4,0.1-6.6V402.9z M95.2,396.2l1.3,1.1h-6.8v-1.1h7.6
			l0.2,3.8H96L95.2,396.2z M94.4,403.7h-4.8v-1.1h4.8V403.7z M97.8,406.7l-0.1,3.8h-8v-1.1H97l-1.3,1.1l0.6-3.8H97.8z M93.7,402.9
			l0.3-2.2h1.1v4.8H94l-0.3-2.3V402.9z"/>
		<path d="M101,409.2l1.8,0.3v0.9h-4.2v-0.9l1.8-0.3H101z M101,401.4l-2.2-0.3v-0.9h5.4v0.9l-2.1,0.3H101z M99.2,410.4l4.5-5.9
			l0.8,0.5l-3.9,5.4H99.2z M102.2,400.2l2.8,4.2l4,6.1h-3l-2.9-4.4l-3.8-5.9L102.2,400.2L102.2,400.2z M109,400.2l-4.4,5.7l-0.7-0.6
			l3.7-5.1H109z M107.3,409.1l2.4,0.4v0.9H104v-0.9l2.6-0.4H107.3z M107.1,401.4l-1.6-0.3v-0.9h3.9v0.9l-1.7,0.3H107.1z"/>
		<path d="M111.7,404.8c0-1.2,0-1.7-0.1-2.6l-1.5-0.2v-0.8l3.6-1.4l0.3,0.2l0.2,1.7l0.1,0.2v6.7l-0.1,0.2v1.8c0,1.4,0,3,0.1,4.7
			h-2.6c0-1.7,0.1-3.2,0.1-4.7L111.7,404.8L111.7,404.8z M115.9,414.6v0.9h-5.7v-0.9l2.2-0.4h1.3L115.9,414.6z M116.3,401.4
			c-1,0-2,0.8-3.1,1.9l-0.2-0.4c1.2-2.1,2.6-3.1,4.3-3.1c2.3,0,4.1,2,4.1,5.4s-2,5.5-4.5,5.5c-1.6,0-2.8-0.9-3.9-3.1l0.2-0.4
			c1,1.3,1.8,1.9,2.9,1.9c1.4,0,2.6-1.2,2.6-3.9S117.7,401.4,116.3,401.4z"/>
		<path d="M126.8,404.7c0.9-0.3,2.3-0.7,3.4-0.9v0.8c-1,0.2-2.2,0.6-2.8,0.9c-1.4,0.6-1.9,1.3-1.9,2.2c0,1.1,0.7,1.6,1.5,1.6
			c0.6,0,1-0.2,2-1l0.6-0.5l0.3,0.4l-0.8,0.8c-1.2,1.2-1.9,1.8-3.3,1.8c-1.6,0-2.8-0.9-2.8-2.7C123,406.7,123.8,405.7,126.8,404.7z
			 M128.9,408.6v-5.1c0-2-0.5-2.5-1.9-2.5c-0.5,0-1.1,0.1-2,0.3l1.2-0.8l-0.4,1.7c-0.1,1-0.6,1.5-1.3,1.5c-0.7,0-1.1-0.3-1.2-1
			c0.3-1.7,1.9-2.8,4.5-2.8c2.5,0,3.6,1.1,3.6,3.9v4.7c0,0.7,0.2,1,0.6,1c0.3,0,0.5-0.2,0.7-0.5l0.5,0.4c-0.5,1-1.2,1.4-2.2,1.4
			C129.8,410.7,129,409.9,128.9,408.6z"/>
		<path d="M135.4,410.4c0-1,0.1-3.2,0.1-4.5v-1.1c0-1.2,0-1.7-0.1-2.6l-1.5-0.2v-0.8l3.6-1.4l0.3,0.2l0.2,2.4v3.4
			c0,1.3,0,3.5,0.1,4.5h-2.7V410.4z M139.3,409.6v0.9H134v-0.9l2.2-0.4h1L139.3,409.6z M144.5,403.7v2.2c0,1.4,0,3.5,0.1,4.5h-2.7
			c0-1,0.1-3.1,0.1-4.5v-2c0-1.7-0.4-2.2-1.5-2.2c-0.9,0-1.9,0.5-2.9,1.5H137V402h1.3l-0.9,0.5c1.3-1.8,2.7-2.6,4.3-2.6
			C143.4,399.9,144.5,401.1,144.5,403.7z M143.7,409.1l2.1,0.4v0.9h-5.3v-0.9l2.1-0.4H143.7z"/>
		<path d="M147.2,409.9v-2.5h1.4l0.5,2.7l-1.1-0.5v-0.8c0.8,0.6,1.6,0.9,2.7,0.9c1.4,0,2.2-0.5,2.2-1.5c0-0.8-0.5-1.3-1.9-1.7
			l-1.1-0.3c-1.6-0.5-2.6-1.5-2.6-3c0-1.8,1.4-3.2,4.1-3.2c1.2,0,2.2,0.3,3.2,0.9l-0.1,2.3h-1.4l-0.5-2.4l1,0.4v0.7
			c-0.7-0.5-1.3-0.8-2.2-0.8c-1.1,0-1.8,0.5-1.8,1.3s0.4,1.2,1.9,1.7l0.8,0.3c2.1,0.7,2.9,1.8,2.9,3.2c0,1.9-1.6,3.3-4.5,3.3
			C149.4,410.8,148.3,410.4,147.2,409.9z"/>
		<path d="M157.9,410.4c0-1,0.1-3.2,0.1-4.5v-1c0-1.2,0-1.8-0.1-2.7l-1.5-0.2v-0.8l3.9-1.4l0.3,0.2l-0.1,3v2.8c0,1.3,0,3.5,0.1,4.5
			h-2.7V410.4z M161.9,409.6v0.9h-5.3v-0.9l2.2-0.4h1L161.9,409.6z M157.6,396.4c0-0.9,0.7-1.5,1.6-1.5c0.9,0,1.6,0.6,1.6,1.5
			s-0.7,1.5-1.6,1.5S157.6,397.2,157.6,396.4z"/>
		<path d="M163.2,405.3c0-3.4,2.4-5.4,5.2-5.4c2.7,0,5.2,2,5.2,5.4s-2.3,5.4-5.2,5.4C165.5,410.8,163.2,408.7,163.2,405.3z
			 M170.8,405.3c0-3-0.8-4.4-2.4-4.4c-1.6,0-2.4,1.5-2.4,4.4c0,3,0.8,4.4,2.4,4.4C169.9,409.7,170.8,408.3,170.8,405.3z"/>
		<path d="M176.5,410.4c0-1,0.1-3.2,0.1-4.5v-1.1c0-1.2,0-1.7-0.1-2.6L175,402v-0.8l3.6-1.4l0.3,0.2l0.2,2.4v3.4
			c0,1.3,0,3.5,0.1,4.5h-2.7V410.4z M180.4,409.6v0.9h-5.3v-0.9l2.2-0.4h1L180.4,409.6z M185.6,403.7v2.2c0,1.4,0,3.5,0.1,4.5H183
			c0-1,0.1-3.1,0.1-4.5v-2c0-1.7-0.4-2.2-1.5-2.2c-0.9,0-1.9,0.5-2.9,1.5H178V402h1.3l-0.9,0.5c1.3-1.8,2.7-2.6,4.3-2.6
			C184.5,399.9,185.6,401.1,185.6,403.7z M184.8,409.1l2.1,0.4v0.9h-5.3v-0.9l2.1-0.4H184.8z"/>
		<path d="M206.5,403.3c0,4.8-3.2,7.5-6.7,7.5c-3.4,0-6.7-2.5-6.7-7.5c0-4.8,3.3-7.5,6.7-7.5C203.2,395.9,206.5,398.4,206.5,403.3z
			 M199.8,409.7c2.6,0,3.6-2.9,3.6-6.3s-1.1-6.3-3.6-6.3s-3.6,2.9-3.6,6.3C196.2,406.7,197.2,409.7,199.8,409.7z"/>
		<path d="M209.5,401.5h-1.6v-1.1l2.5-0.3l-0.9,0.5c0.2-2.5,0.8-3.7,1.7-4.6c1-1,2.2-1.4,3.3-1.4s2.1,0.4,2.3,1.3
			c0,0.7-0.5,1.2-1.4,1.2c-0.6,0-1.2-0.3-1.7-1.1l-0.8-0.8l2-0.5l0.4,0.6c-0.2-0.1-0.5-0.3-0.8-0.3c-0.7,0-1.3,0.5-1.7,1.1
			c-0.6,0.9-0.8,2.4-0.6,4.9v4.8c0,1.5,0,3,0.1,4.5h-2.7c0-1.5,0.1-3,0.1-4.5v-4.3H209.5z M213.9,409.6v0.9H208v-0.9l2.3-0.4h1.3
			L213.9,409.6z M214.6,400.2v1.3h-3.9v-1.3H214.6z"/>
		<path d="M86.4,419.8v-1h3.2v1.3h-0.3L86.4,419.8z M89.6,431.7v1.3h-3.2v-1l3-0.3H89.6z M88.2,425.4c0-2.2,0-4.4-0.1-6.6H91
			c-0.1,2.2-0.1,4.4-0.1,6.6v0.8c0,2.4,0,4.6,0.1,6.8h-2.9c0.1-2.2,0.1-4.4,0.1-6.6V425.4z M95.2,418.8l1.3,1.1h-6.8v-1.1h7.6
			l0.2,3.8H96L95.2,418.8z M94.4,426.3h-4.8v-1.1h4.8V426.3z M97.8,429.3l-0.1,3.8h-8V432H97l-1.3,1.1l0.6-3.8H97.8z M93.7,425.4
			l0.3-2.2h1.1v4.8H94l-0.3-2.3V425.4z"/>
		<path d="M101.8,427.6c0,2.6,1.3,4,3.2,4c1.1,0,2.1-0.5,2.7-1.4l0.6,0.5c-0.7,1.8-2.2,2.7-4.2,2.7c-2.9,0-5.1-2-5.1-5.4
			s2.5-5.5,5.4-5.5c2.1,0,3.7,1.3,3.9,2.9c-0.2,0.7-0.6,1-1.2,1c-0.8,0-1.3-0.5-1.4-1.5l-0.4-1.7l1.3,0.8c-0.7-0.3-1.3-0.5-2-0.5
			C103.1,423.5,101.8,424.8,101.8,427.6z"/>
		<path d="M109.7,427.9c0-3.4,2.4-5.4,5.2-5.4c2.7,0,5.2,2,5.2,5.4s-2.3,5.4-5.2,5.4S109.7,431.3,109.7,427.9z M117.3,427.9
			c0-3-0.8-4.4-2.4-4.4s-2.4,1.5-2.4,4.4c0,3,0.8,4.4,2.4,4.4C116.4,432.3,117.3,430.9,117.3,427.9z"/>
		<path d="M121.8,432.4v-2.5h1.4l0.5,2.7l-1.1-0.5v-0.8c0.8,0.6,1.6,0.9,2.7,0.9c1.4,0,2.2-0.5,2.2-1.5c0-0.8-0.5-1.3-1.9-1.7
			l-1.1-0.3c-1.6-0.5-2.6-1.5-2.6-3c0-1.8,1.4-3.2,4.1-3.2c1.2,0,2.2,0.3,3.2,0.9l-0.1,2.3h-1.4l-0.5-2.4l1,0.4v0.7
			c-0.7-0.5-1.3-0.8-2.2-0.8c-1.1,0-1.8,0.5-1.8,1.3s0.4,1.2,1.9,1.7l0.8,0.3c2.1,0.7,2.9,1.8,2.9,3.2c0,1.9-1.6,3.3-4.5,3.3
			C123.9,433.3,122.8,433,121.8,432.4z"/>
		<path d="M130.3,436.7c0.2-0.8,0.9-1.1,1.6-1.1c0.6,0,1.1,0.2,1.7,0.9l0.7,0.8l-0.8,0.4l-0.6-0.4c1.2-0.7,2.1-2,2.6-3.5l0.9-2.6
			l3-8.5h1.3l-4.1,10.6c-1.3,3.3-2.3,4.8-4.2,4.8C131.3,438.2,130.4,437.6,130.3,436.7z M132.3,423.9l-2-0.3v-0.8h5.6v0.9l-2.2,0.3
			h-1.4V423.9z M135.7,434.2l-4.7-11.5h2.9l3.1,8.5L135.7,434.2z M139.4,423.9l-2-0.3v-0.8h4.1v0.8l-1.7,0.3H139.4z"/>
		<path d="M142.1,432.4v-2.5h1.4l0.5,2.7l-1.1-0.5v-0.8c0.8,0.6,1.6,0.9,2.7,0.9c1.4,0,2.2-0.5,2.2-1.5c0-0.8-0.5-1.3-1.9-1.7
			l-1.1-0.3c-1.6-0.5-2.6-1.5-2.6-3c0-1.8,1.4-3.2,4.1-3.2c1.2,0,2.2,0.3,3.2,0.9l-0.1,2.3H148l-0.5-2.4l1,0.4v0.7
			c-0.7-0.5-1.3-0.8-2.2-0.8c-1.1,0-1.8,0.5-1.8,1.3s0.4,1.2,1.9,1.7l0.8,0.3c2.1,0.7,2.9,1.8,2.9,3.2c0,1.9-1.6,3.3-4.5,3.3
			C144.3,433.3,143.2,433,142.1,432.4z"/>
		<path d="M156.3,431.9c0.4,0,0.8-0.2,1.3-0.5l0.5,0.5c-0.6,0.9-1.5,1.4-2.8,1.4c-1.7,0-2.7-0.8-2.7-2.7c0-0.6,0-1.1,0-2V424H151
			v-1.1l2.6-0.3l-1,0.8l1-3.6h1.7l-0.1,3.8v6.8C155.1,431.4,155.6,431.9,156.3,431.9z M157.7,422.8v1.3h-3.9v-1.3H157.7z"/>
		<path d="M168.2,426.8c0,0.5,0,0.9-0.1,1.2h-8.2v-1h4.6c1,0,1.3-0.4,1.3-1.2c0-1.3-0.8-2.2-1.9-2.2c-1.1,0-2.3,1.1-2.3,4.1
			c0,2.7,1.3,4,3.2,4c1.3,0,2.1-0.6,2.8-1.3l0.6,0.5c-0.8,1.6-2.3,2.5-4.3,2.5c-3,0-5-2-5-5.4s2.5-5.5,5.2-5.5
			C166.5,422.4,168.2,424.2,168.2,426.8z"/>
		<path d="M171.1,433c0-1,0.1-3.2,0.1-4.5v-1.1c0-1.2,0-1.7-0.1-2.6l-1.5-0.2v-0.8l3.6-1.4l0.3,0.2l0.2,2.4v3.4c0,1.3,0,3.5,0.1,4.5
			h-2.7V433z M175.1,432.1v0.9h-5.3v-0.9l2.2-0.4h1L175.1,432.1z M180.2,426.3v2.2c0,1.4,0,3.5,0.1,4.5h-2.7c0-1,0.1-3.1,0.1-4.5
			v-1.9c0-1.7-0.4-2.3-1.5-2.3c-1,0-1.9,0.6-2.8,1.5h-0.6v-1.2h1.2l-0.8,0.5c1.2-1.6,2.6-2.6,4.2-2.6
			C179.2,422.4,180.2,423.6,180.2,426.3z M179.4,431.7l2.1,0.4v0.9h-5.2v-0.9l2.1-0.4H179.4z M186.6,426.2v2.3c0,1.4,0,3.5,0.1,4.5
			H184c0-1,0.1-3.1,0.1-4.5v-2c0-1.8-0.4-2.3-1.5-2.3c-0.9,0-1.8,0.5-2.8,1.5H179v-1.1h1.3l-0.9,0.4c1.3-1.9,2.7-2.6,4.2-2.6
			C185.6,422.4,186.6,423.6,186.6,426.2z M185.8,431.7l2.1,0.4v0.9h-5.2v-0.9l2.1-0.4H185.8z"/>
	</g>
</g>
<g id="Layer_2">
</g>
</svg>
