<?xml version="1.0" encoding="utf-8"?>
<!-- Generator: Adobe Illustrator 26.0.0, SVG Export Plug-In . SVG Version: 6.00 Build 0)  -->
<svg version="1.1" id="Layer_1" xmlns="http://www.w3.org/2000/svg" xmlns:xlink="http://www.w3.org/1999/xlink" x="0px" y="0px"
	 viewBox="0 0 236.8 180.2" style="enable-background:new 0 0 236.8 180.2;" xml:space="preserve">
<style type="text/css">
	.st0{fill:#FFFFFF;}
	.st1{fill:url(#SVGID_1_);}
	.st2{fill:url(#SVGID_00000021811341009339827860000015425460078029292685_);}
	.st3{fill:url(#SVGID_00000041261995526264965020000004937889861347079048_);}
	.st4{fill:#0B1D51;}
	.st5{fill:#EDF3FC;}
	.st6{fill:#330D84;}
	.st7{fill:#FFBE1B;}
	.st8{fill:#5D8EF9;}
	.st9{fill:#6857E5;}
	.st10{fill:#FFF30B;}
	.st11{fill:#EF4237;}
	.st12{fill:#04A752;}
	.st13{fill:#2F2A2A;}
	.st14{fill:#FEE206;}
</style>
<g>
	<g>
		<g>
			<path class="st0" d="M217.8,180.4H20.3c-2.8,0-5.3-1-7.3-2.6c-2.7-2.2-4.4-5.5-4.4-9.2V71.6c0-2.9,1-5.5,2.8-7.6
				c2.2-2.5,5.4-4.1,9-4.1h197.5c3.2,0,6.2,1.3,8.3,3.4s3.4,5.1,3.4,8.3v97.1c0,3.1-1.2,6-3.2,8.1
				C224.1,179,221.1,180.4,217.8,180.4z"/>
			<linearGradient id="SVGID_1_" gradientUnits="userSpaceOnUse" x1="8.5843" y1="76.951" x2="8.5843" y2="163.3813">
				<stop  offset="0" style="stop-color:#EF1C71"/>
				<stop  offset="0.9906" style="stop-color:#AE0080"/>
			</linearGradient>
			<path class="st1" d="M13.6,163.4h-10c-0.5,0-1-0.2-1.3-0.5c-0.3-0.3-0.5-0.8-0.5-1.3V78.8c0-0.4,0.1-0.7,0.3-1
				C2.4,77.3,2.9,77,3.6,77h10c0.5,0,1,0.2,1.3,0.5c0.3,0.3,0.5,0.8,0.5,1.3v82.8c0,0.5-0.2,1-0.5,1.3
				C14.6,163.2,14.1,163.4,13.6,163.4z"/>
			
				<linearGradient id="SVGID_00000137103830700026121640000012937849004665693872_" gradientUnits="userSpaceOnUse" x1="229.506" y1="76.951" x2="229.506" y2="163.3813">
				<stop  offset="0" style="stop-color:#EF1C71"/>
				<stop  offset="0.9906" style="stop-color:#AE0080"/>
			</linearGradient>
			<path style="fill:url(#SVGID_00000137103830700026121640000012937849004665693872_);" d="M234.5,163.4h-10c-0.4,0-0.7-0.1-1-0.3
				c-0.5-0.3-0.8-0.9-0.8-1.5V78.8c0-0.4,0.1-0.8,0.4-1.1c0.3-0.4,0.9-0.7,1.4-0.7h10c0.7,0,1.3,0.4,1.6,1c0.1,0.3,0.2,0.5,0.2,0.9
				v82.8c0,0.6-0.3,1.1-0.8,1.5C235.3,163.3,234.9,163.4,234.5,163.4z"/>
			<circle class="st0" cx="119" cy="50.1" r="45.7"/>
			
				<linearGradient id="SVGID_00000017487300275852892090000012936897248755692448_" gradientUnits="userSpaceOnUse" x1="119.0173" y1="12.2844" x2="119.0173" y2="87.9392">
				<stop  offset="0" style="stop-color:#EF1C71"/>
				<stop  offset="0.9906" style="stop-color:#AE0080"/>
			</linearGradient>
			<circle style="fill:url(#SVGID_00000017487300275852892090000012936897248755692448_);" cx="119" cy="50.1" r="37.8"/>
		</g>
		<g>
			<path class="st4" d="M81.6,111.3c-1,0-2-0.1-3-0.4s-1.7-0.6-2.3-1l1.2-2.6c0.6,0.4,1.2,0.7,2,0.9c0.7,0.2,1.5,0.4,2.2,0.4
				c0.5,0,0.9,0,1.2-0.1c0.3-0.1,0.5-0.2,0.7-0.4s0.2-0.3,0.2-0.5c0-0.3-0.1-0.5-0.4-0.7c-0.3-0.2-0.6-0.3-1-0.4
				c-0.4-0.1-0.9-0.2-1.4-0.3s-1-0.2-1.5-0.4c-0.5-0.2-1-0.4-1.4-0.7c-0.4-0.3-0.8-0.6-1-1.1c-0.3-0.4-0.4-1-0.4-1.7
				c0-0.8,0.2-1.4,0.6-2.1c0.4-0.6,1-1.1,1.9-1.5c0.8-0.4,1.9-0.6,3.1-0.6c0.8,0,1.6,0.1,2.4,0.3c0.8,0.2,1.5,0.5,2.1,0.8l-1.1,2.6
				c-0.6-0.3-1.2-0.6-1.8-0.7c-0.6-0.2-1.2-0.2-1.7-0.2c-0.5,0-0.9,0.1-1.2,0.2c-0.3,0.1-0.5,0.2-0.6,0.4c-0.1,0.2-0.2,0.4-0.2,0.6
				c0,0.3,0.1,0.5,0.4,0.7s0.6,0.3,1,0.4c0.4,0.1,0.9,0.2,1.4,0.3c0.5,0.1,1,0.2,1.5,0.4s1,0.4,1.4,0.6c0.4,0.3,0.8,0.6,1,1.1
				c0.3,0.4,0.4,1,0.4,1.6c0,0.7-0.2,1.4-0.6,2c-0.4,0.6-1,1.1-1.9,1.5C83.9,111.1,82.8,111.3,81.6,111.3z"/>
			<path class="st4" d="M91.3,111v-9.8h-3.9v-2.8h11.3v2.8h-3.9v9.8H91.3z"/>
			<path class="st4" d="M97.9,111l5.6-12.6h3.5l5.6,12.6h-3.7l-4.4-10.9h1.4l-4.4,10.9H97.9z M100.9,108.6l0.9-2.6h6.2l0.9,2.6
				H100.9z"/>
			<path class="st4" d="M113.6,111V98.4h3.5V111H113.6z M116.8,108.2l-0.2-4l5.4-5.8h3.9l-5.4,5.8l-2,2.1L116.8,108.2z M122,111
				l-4.1-5.2l2.3-2.5l5.9,7.7H122z"/>
			<path class="st4" d="M127.1,111V98.4h3.6V111H127.1z"/>
			<path class="st4" d="M133.2,111V98.4h2.9l6.9,8.4h-1.4v-8.4h3.5V111h-2.9l-6.9-8.4h1.4v8.4H133.2z"/>
			<path class="st4" d="M154,111.3c-1,0-1.9-0.2-2.8-0.5c-0.9-0.3-1.6-0.8-2.2-1.4c-0.6-0.6-1.1-1.3-1.4-2.1
				c-0.3-0.8-0.5-1.7-0.5-2.6s0.2-1.8,0.5-2.6c0.3-0.8,0.8-1.5,1.5-2.1s1.4-1,2.2-1.4c0.9-0.3,1.8-0.5,2.8-0.5
				c1.2,0,2.2,0.2,3.2,0.6c0.9,0.4,1.7,1,2.3,1.7l-2.3,2.1c-0.4-0.5-0.9-0.8-1.4-1.1s-1.1-0.4-1.7-0.4c-0.5,0-1,0.1-1.5,0.3
				c-0.4,0.2-0.8,0.4-1.1,0.7c-0.3,0.3-0.6,0.7-0.7,1.1c-0.2,0.4-0.3,0.9-0.3,1.5c0,0.5,0.1,1,0.3,1.5c0.2,0.4,0.4,0.8,0.7,1.1
				c0.3,0.3,0.7,0.6,1.1,0.7c0.4,0.2,0.9,0.3,1.4,0.3c0.5,0,1-0.1,1.5-0.3c0.5-0.2,1-0.5,1.5-0.9l2,2.5c-0.7,0.5-1.6,0.9-2.5,1.2
				C155.9,111.1,154.9,111.3,154,111.3z M156.2,109.2v-4.8h3.1v5.2L156.2,109.2z"/>
		</g>
	</g>
</g>
<g>
	<path d="M22,124h2.8c0,0.7,0.5,1,1.2,1c0.6,0,1.1-0.3,1.1-0.8c0-0.6-0.8-0.8-1.7-1c-1.4-0.4-3.2-0.8-3.2-3c0-1.9,1.4-3,3.7-3
		c2.4,0,3.7,1.2,3.7,3.2h-2.7c0-0.6-0.5-0.9-1-0.9c-0.5,0-0.9,0.2-0.9,0.7c0,0.6,0.7,0.7,1.7,1c1.4,0.4,3.3,0.9,3.3,3.1
		c0,2.1-1.6,3.3-3.9,3.3C23.5,127.4,22,126.1,22,124z"/>
	<path d="M36.1,124.8v2.3h-1.8c-1.7,0-2.7-1-2.7-2.7v-2.9h-1.4V121l3.4-3.6h0.5v2.2H36v2h-1.8v2.4c0,0.5,0.3,0.9,0.9,0.9H36.1z"/>
	<path d="M45.3,119.5v7.6h-2l-0.2-0.5c-0.6,0.5-1.4,0.8-2.3,0.8c-2.3,0-4-1.7-4-4c0-2.3,1.7-4,4-4c0.9,0,1.7,0.3,2.3,0.8l0.3-0.6
		H45.3z M42.8,123.3c0-1-0.7-1.7-1.7-1.7c-1,0-1.7,0.7-1.7,1.7c0,1,0.7,1.7,1.7,1.7C42.1,125.1,42.8,124.3,42.8,123.3z"/>
	<path d="M51.5,127.1l-1.9-3.2v3.2H47v-10.3h2.6v5.7l1.8-3h2.9l-2.4,3.6l2.6,4H51.5z"/>
	<path d="M55.3,119.6h2.6v7.6h-2.6V119.6z M55.3,116.4h2.6v2.2h-2.6V116.4z"/>
	<path d="M67,122.5v4.6h-2.6v-4.3c0-0.9-0.3-1.3-1-1.3c-0.8,0-1.3,0.6-1.3,1.5v4h-2.6v-7.6h1.8l0.4,0.8c0.6-0.6,1.4-1,2.4-1
		C65.8,119.3,67,120.6,67,122.5z"/>
	<path d="M76.4,119.6v6.7c0,2.4-1.6,3.8-4.1,3.8c-2.1,0-3.6-1.1-4-2.9h2.5c0.2,0.5,0.8,0.8,1.5,0.8c0.9,0,1.6-0.6,1.6-1.5v-0.2
		c-0.6,0.4-1.2,0.6-2,0.6c-2.2,0-3.8-1.6-3.8-3.8c0-2.2,1.6-3.8,3.8-3.8c0.9,0,1.7,0.3,2.4,0.9l0.3-0.6H76.4z M73.9,123.1
		c0-1-0.7-1.6-1.6-1.6c-0.9,0-1.6,0.7-1.6,1.6c0,1,0.7,1.7,1.6,1.7C73.2,124.8,73.9,124.1,73.9,123.1z"/>
	<path d="M89.4,123.3c0,2.4-1.7,4-4,4c-0.7,0-1.3-0.2-1.8-0.5v3H81v-10.3h1.8l0.3,0.6c0.6-0.5,1.4-0.8,2.3-0.8
		C87.8,119.3,89.4,121,89.4,123.3z M86.8,123.3c0-1-0.7-1.7-1.7-1.7c-1,0-1.7,0.7-1.7,1.7c0,1,0.7,1.7,1.7,1.7
		C86.1,125.1,86.8,124.3,86.8,123.3z"/>
	<path d="M90.6,116.8h2.6v10.3h-2.6V116.8z"/>
	<path d="M102.9,119.5v7.6h-2l-0.2-0.5c-0.6,0.5-1.4,0.8-2.3,0.8c-2.3,0-4-1.7-4-4c0-2.3,1.7-4,4-4c0.9,0,1.7,0.3,2.3,0.8l0.3-0.6
		H102.9z M100.4,123.3c0-1-0.7-1.7-1.7-1.7c-1,0-1.7,0.7-1.7,1.7c0,1,0.7,1.7,1.7,1.7C99.7,125.1,100.4,124.3,100.4,123.3z"/>
	<path d="M109.6,124.8v2.3h-1.8c-1.7,0-2.7-1-2.7-2.7v-2.9h-1.4V121l3.4-3.6h0.5v2.2h1.9v2h-1.8v2.4c0,0.5,0.3,0.9,0.9,0.9H109.6z"
		/>
	<path d="M115.9,121.7h-1.7v5.4h-2.6v-5.4h-1.3l0-2h1.3V119c0-1.5,0.8-2.4,2.4-2.4h1.8v2h-1.2c-0.4,0-0.6,0.2-0.6,0.6v0.5h1.8V121.7
		z"/>
	<path d="M116.3,123.3c0-2.3,1.8-4,4.2-4c2.5,0,4.2,1.7,4.2,4c0,2.3-1.8,4-4.2,4C118.1,127.4,116.3,125.7,116.3,123.3z M120.6,125
		c1,0,1.6-0.7,1.6-1.7c0-1-0.7-1.7-1.6-1.7s-1.6,0.7-1.6,1.7S119.6,125,120.6,125L120.6,125z"/>
	<path d="M130.9,119.5v2.4h-1c-0.9,0-1.3,0.4-1.3,1.4v3.8H126v-7.6h1.7l0.4,0.8c0.5-0.6,1.2-0.9,2.1-0.9H130.9z"/>
	<path d="M143.5,122.4v4.7h-2.6v-4.4c0-0.8-0.3-1.2-0.8-1.2c-0.7,0-1.1,0.5-1.1,1.4v4.1h-2.5v-4.4c0-0.8-0.3-1.2-0.8-1.2
		c-0.7,0-1.1,0.5-1.1,1.4v4.1h-2.6v-7.6h1.8l0.4,0.8c0.5-0.6,1.3-1,2.2-1c0.9,0,1.7,0.4,2.2,1.1c0.5-0.7,1.4-1.1,2.3-1.1
		C142.4,119.3,143.5,120.6,143.5,122.4z"/>
	<path d="M152.9,124.8v2.3h-1.8c-1.7,0-2.7-1-2.7-2.7v-2.9h-1.4V121l3.4-3.6h0.5v2.2h1.9v2h-1.8v2.4c0,0.5,0.3,0.9,0.9,0.9H152.9z"
		/>
	<path d="M153.6,123.3c0-2.3,1.8-4,4.2-4c2.5,0,4.2,1.7,4.2,4c0,2.3-1.8,4-4.2,4C155.4,127.4,153.6,125.7,153.6,123.3z M157.9,125
		c1,0,1.6-0.7,1.6-1.7c0-1-0.7-1.7-1.6-1.7s-1.6,0.7-1.6,1.7S156.9,125,157.9,125L157.9,125z"/>
	<path d="M171.3,119.5v2.4h-1c-0.9,0-1.3,0.4-1.3,1.4v3.8h-2.6v-7.6h1.7l0.4,0.8c0.5-0.6,1.2-0.9,2.1-0.9H171.3z"/>
	<path d="M179.9,124h-5.6c0.2,0.9,0.7,1.3,1.5,1.3c0.6,0,1.1-0.3,1.4-0.7h2.6c-0.5,1.7-2.1,2.8-4,2.8c-2.4,0-4.1-1.7-4.1-4
		c0-2.3,1.7-4,4.1-4c2.4,0,4.1,1.7,4.1,4C179.9,123.5,179.9,123.7,179.9,124z M174.3,122.5h3.1c-0.2-0.8-0.8-1.2-1.6-1.2
		C175,121.4,174.5,121.8,174.3,122.5z"/>
	<path d="M192.1,119.6l-2.4,7.6h-2.1l-1.5-3.4l-1.5,3.4h-2.1l-2.5-7.6h2.7l1.1,4l1.8-3.9h0.7l1.9,4l1.1-4H192.1z"/>
	<path d="M200.8,119.5v7.6h-2l-0.2-0.5c-0.6,0.5-1.4,0.8-2.3,0.8c-2.3,0-4-1.7-4-4c0-2.3,1.7-4,4-4c0.9,0,1.7,0.3,2.3,0.8l0.3-0.6
		H200.8z M198.4,123.3c0-1-0.7-1.7-1.7-1.7c-1,0-1.7,0.7-1.7,1.7c0,1,0.7,1.7,1.7,1.7C197.7,125.1,198.4,124.3,198.4,123.3z"/>
	<path d="M207.4,119.5v2.4h-1c-0.9,0-1.3,0.4-1.3,1.4v3.8h-2.6v-7.6h1.7l0.4,0.8c0.5-0.6,1.2-0.9,2.1-0.9H207.4z"/>
	<path d="M216.3,116.8v10.3h-1.9l-0.2-0.6c-0.6,0.5-1.4,0.8-2.3,0.8c-2.3,0-4-1.7-4-4c0-2.4,1.7-4,4-4c0.7,0,1.3,0.2,1.9,0.5v-3
		H216.3z M213.8,123.3c0-1-0.7-1.7-1.7-1.7c-1,0-1.7,0.7-1.7,1.7c0,1,0.7,1.7,1.7,1.7C213.1,125.1,213.8,124.3,213.8,123.3z"/>
	<path d="M64.1,140.1c0-2.3,1.8-4,4.2-4c2.5,0,4.2,1.7,4.2,4c0,2.3-1.8,4-4.2,4C65.9,144.2,64.1,142.5,64.1,140.1z M68.4,141.8
		c1,0,1.6-0.7,1.6-1.7c0-1-0.7-1.7-1.6-1.7s-1.6,0.7-1.6,1.7S67.4,141.8,68.4,141.8L68.4,141.8z"/>
	<path d="M81.3,139.3v4.6h-2.6v-4.3c0-0.9-0.3-1.3-1-1.3c-0.8,0-1.3,0.6-1.3,1.5v4h-2.6v-7.6h1.8l0.4,0.8c0.6-0.6,1.4-1,2.4-1
		C80.1,136.1,81.3,137.4,81.3,139.3z"/>
	<path d="M93.6,136.4l-3.2,7.2c-1,2.3-2,3.2-3.9,3.2h-0.9v-2.2h0.7c1,0,1.3-0.3,1.7-1.2l-3.1-6.9h2.8l1.6,4.2l1.5-4.2H93.6z"/>
	<path d="M93.6,140.1c0-2.3,1.8-4,4.2-4c2.5,0,4.2,1.7,4.2,4c0,2.3-1.8,4-4.2,4C95.4,144.2,93.6,142.5,93.6,140.1z M97.8,141.8
		c1,0,1.6-0.7,1.6-1.7c0-1-0.7-1.7-1.6-1.7s-1.6,0.7-1.6,1.7S96.9,141.8,97.8,141.8L97.8,141.8z"/>
	<path d="M103.2,140.7v-4.3h2.6v4.2c0,0.8,0.4,1.3,1.1,1.3s1.1-0.5,1.1-1.3v-4.2h2.6v4.3c0,2.1-1.5,3.5-3.7,3.5
		S103.2,142.8,103.2,140.7z"/>
	<path d="M117.1,136.3v2.4h-1c-0.9,0-1.3,0.4-1.3,1.4v3.8h-2.6v-7.6h1.7l0.4,0.8c0.5-0.6,1.2-0.9,2.1-0.9H117.1z"/>
	<path d="M128.3,139.4v4.6h-2.6v-4.3c0-0.9-0.3-1.3-1-1.3c-0.8,0-1.3,0.6-1.3,1.5v4h-2.6v-10.3h2.6v3.2c0.6-0.4,1.3-0.7,2-0.7
		C127.1,136.1,128.3,137.4,128.3,139.4z"/>
	<path d="M129.4,140.1c0-2.3,1.8-4,4.2-4c2.5,0,4.2,1.7,4.2,4c0,2.3-1.8,4-4.2,4C131.1,144.2,129.4,142.5,129.4,140.1z M133.6,141.8
		c1,0,1.6-0.7,1.6-1.7c0-1-0.7-1.7-1.6-1.7s-1.6,0.7-1.6,1.7S132.7,141.8,133.6,141.8L133.6,141.8z"/>
	<path d="M139,133.6h2.6v10.3H139V133.6z"/>
	<path d="M151.3,133.6v10.3h-1.9l-0.2-0.6c-0.6,0.5-1.4,0.8-2.3,0.8c-2.3,0-4-1.7-4-4c0-2.4,1.7-4,4-4c0.7,0,1.3,0.2,1.9,0.5v-3
		H151.3z M148.9,140.1c0-1-0.7-1.7-1.7-1.7c-1,0-1.7,0.7-1.7,1.7c0,1,0.7,1.7,1.7,1.7C148.1,141.9,148.9,141.1,148.9,140.1z"/>
	<path d="M152.9,136.4h2.6v7.6h-2.6V136.4z M152.9,133.2h2.6v2.2h-2.6V133.2z"/>
	<path d="M164.6,139.3v4.6H162v-4.3c0-0.9-0.3-1.3-1-1.3c-0.8,0-1.3,0.6-1.3,1.5v4h-2.6v-7.6h1.8l0.4,0.8c0.6-0.6,1.4-1,2.4-1
		C163.5,136.1,164.6,137.4,164.6,139.3z"/>
	<path d="M174,136.4v6.7c0,2.4-1.6,3.8-4.1,3.8c-2.1,0-3.6-1.1-4-2.9h2.5c0.2,0.5,0.8,0.8,1.5,0.8c0.9,0,1.6-0.6,1.6-1.5v-0.2
		c-0.6,0.4-1.2,0.6-2,0.6c-2.2,0-3.8-1.6-3.8-3.8c0-2.2,1.6-3.8,3.8-3.8c0.9,0,1.7,0.3,2.4,0.9l0.3-0.6H174z M170,141.6
		c0.9,0,1.6-0.7,1.6-1.7c0-1-0.7-1.6-1.6-1.6c-0.9,0-1.6,0.7-1.6,1.6C168.3,140.9,169,141.6,170,141.6L170,141.6z"/>
</g>
<g>
	<ellipse transform="matrix(0.2385 -0.9712 0.9712 0.2385 41.8097 153.9164)" class="st5" cx="119" cy="50.3" rx="32.3" ry="32.3"/>
	<path class="st5" d="M119,88.6c-21.1,0-38.3-17.2-38.3-38.3C80.7,29.2,97.9,12,119,12c21.1,0,38.3,17.2,38.3,38.3
		C157.4,71.4,140.2,88.6,119,88.6z M119,13.2C98.6,13.2,82,29.9,82,50.3c0,20.4,16.6,37.1,37.1,37.1c20.4,0,37.1-16.6,37.1-37.1
		C156.1,29.9,139.5,13.2,119,13.2z"/>
	<path class="st6" d="M96.1,53.8l0.2,0.1l-0.2,0.1c-1.3,0.3-2.3,1.3-2.6,2.6l-0.1,0.2l-0.1-0.2c-0.3-1.3-1.3-2.3-2.6-2.6l-0.2-0.1
		l0.2-0.1c1.3-0.3,2.3-1.3,2.6-2.6l0.1-0.2l0.1,0.2C93.8,52.5,94.8,53.5,96.1,53.8L96.1,53.8z"/>
	<path class="st7" d="M115.9,31.5l0.3,0.1l-0.3,0.1c-1.6,0.4-2.8,1.6-3.2,3.2l-0.1,0.3l-0.1-0.3c-0.4-1.6-1.6-2.8-3.2-3.2l-0.3-0.1
		l0.3-0.1c1.6-0.4,2.8-1.6,3.2-3.2l0.1-0.3l0.1,0.3C113.1,29.9,114.3,31.1,115.9,31.5L115.9,31.5z"/>
	<path class="st7" d="M120.3,25.9l0.2,0L120.3,25.9c-1,0.3-1.8,1.1-2.1,2.2l0,0.2l0-0.2c-0.3-1-1-1.8-2.1-2.1l-0.2,0l0.2,0
		c1-0.3,1.8-1,2.1-2.1l0-0.2l0,0.2C118.4,24.9,119.2,25.7,120.3,25.9L120.3,25.9z"/>
	<path class="st8" d="M118.3,70.5l0.2,0.1l-0.2,0c-1.2,0.3-2.1,1.2-2.4,2.4l0,0.2l-0.1-0.2c-0.3-1.2-1.2-2.1-2.4-2.4l-0.2,0l0.2-0.1
		c1.2-0.3,2.1-1.2,2.4-2.4l0.1-0.2l0,0.2C116.2,69.3,117.1,70.2,118.3,70.5L118.3,70.5z"/>
	<path class="st8" d="M129.7,74.1l0.3,0.1l-0.3,0.1c-2,0.5-3.6,2.1-4.1,4.1l-0.1,0.3l-0.1-0.3c-0.5-2-2.1-3.6-4.1-4.1l-0.3-0.1
		l0.3-0.1c2-0.5,3.6-2.1,4.1-4.1l0.1-0.3l0.1,0.3C126,72,127.6,73.6,129.7,74.1L129.7,74.1z"/>
	<path class="st6" d="M137.8,46.8v-6.1c0-1.9-1.6-3.5-3.5-3.5h-5.6L137.8,46.8z"/>
	<path class="st6" d="M136.8,50.9L124,37.4l-0.1,0.1c-0.2,0.1-0.4,0.1-0.5,0l-0.1-0.1c-1.7,1.8-3.1,3.4-3.8,4.2
		c-0.2,0.3-0.7,0.3-1,0l-1.9-2c-0.3-0.3-0.3-0.7-0.1-0.9c0.3-0.3,0.8-0.9,1.4-1.5h-14.2c-1.9,0-3.5,1.6-3.5,3.5v22h37.6V51.3
		C137.4,51.3,137.1,51.2,136.8,50.9z"/>
	<path class="st8" d="M141.8,62.6v1.6c0,1.3-1.1,2.4-2.4,2.4H98.7c-1.3,0-2.4-1.1-2.4-2.4v-1.6H141.8z"/>
	<polygon class="st9" points="135,43.9 135,40.6 132,40.6 	"/>
	<path class="st9" d="M127.1,40.6h-3c2.1,1.6,3.5,4.1,3.5,6.9c0,4.7-3.8,8.5-8.5,8.5c-4.7,0-8.5-3.8-8.5-8.5c0-2.8,1.4-5.3,3.5-6.9
		h-11v22h32V49L127.1,40.6z"/>
	<path class="st7" d="M121.5,39.4c-0.9,1-1.6,1.8-2,2.2c-0.2,0.3-0.7,0.3-1,0l-1.9-2c-0.1-0.1-0.1-0.1-0.1-0.2c-3.5,1.1-6,4.3-6,8.1
		c0,4.7,3.8,8.5,8.5,8.5c4.7,0,8.5-3.8,8.5-8.5C127.6,43.7,125,40.4,121.5,39.4z"/>
	<path d="M119.9,41.2c-0.1,0.2-0.3,0.3-0.4,0.4c-0.2,0.3-0.7,0.3-1,0l-0.4-0.4c-3.1,0.4-5.5,3.1-5.5,6.3c0,3.5,2.9,6.4,6.4,6.4
		c3.5,0,6.4-2.9,6.4-6.4C125.4,44.3,123,41.6,119.9,41.2z"/>
	<path class="st7" d="M123.5,31.7l-0.4-0.4c-0.6-0.6-1.5-0.6-2.1-0.1l-0.5,0.4c-0.6,0.6-0.6,1.5-0.1,2.1l0.4,0.4L123.5,31.7z"/>
	<path class="st7" d="M139.4,48.4l-12.8-13.5l-2.6,2.4l12.8,13.5c0.6,0.6,1.5,0.6,2.1,0.1l0.5-0.4C139.9,49.9,139.9,49,139.4,48.4z"
		/>
	<path class="st9" d="M120.8,34.7c0,0-0.1-0.1-0.1-0.2c-2,1.7-3.5,3.3-4.2,4.1c-0.2,0.3-0.2,0.7,0.1,0.9l1.9,2c0.3,0.3,0.8,0.3,1,0
		c0.7-0.8,2.1-2.4,3.8-4.2L120.8,34.7z"/>
	<path class="st9" d="M134.9,27.2c-0.4-0.5-5.5,1.3-9.9,4.1c-0.2,0.2-0.5,0.3-0.7,0.5l2.3,2.4c0.1-0.1,0.2-0.2,0.3-0.3
		C130.7,30.3,135.4,27.7,134.9,27.2z"/>
	<path class="st6" d="M126.7,34.8l-2.7,2.6c-0.2,0.1-0.4,0.1-0.5,0l-2.6-2.7c-0.1-0.2-0.1-0.4,0-0.5l2.7-2.6c0.2-0.1,0.4-0.1,0.5,0
		l2.6,2.7C126.8,34.5,126.8,34.7,126.7,34.8L126.7,34.8z"/>
</g>
<g>
	<path class="st10" d="M119.7,50.7C119.7,50.7,119.7,50.7,119.7,50.7c-0.1,0.1-0.1,0.2-0.1,0.2c0-0.2,0-0.4,0-0.6
		c0,0.1-0.1,0.2-0.1,0.3c0,0,0,0,0.1,0c0,0,0,0,0,0c0,0.1,0,0.1-0.1,0.2c0,0,0,0,0,0c-0.1,0-0.2-0.1-0.3-0.1c0,0,0,0,0-0.1
		c0,0,0-0.1,0-0.1c0,0,0,0,0,0c0,0,0,0,0,0c0,0,0,0,0,0c0,0,0,0,0,0c0,0,0,0,0,0c0,0,0,0,0,0c0.1-0.2,0.2-0.3,0.3-0.5c0,0,0,0,0,0
		c0,0.1,0,0.2,0,0.3c0,0,0,0.1,0,0.1c0,0,0,0,0,0c0,0,0,0,0,0c0.1-0.1,0.1-0.2,0.2-0.3c0,0,0,0,0-0.1
		C119.7,50.4,119.7,50.6,119.7,50.7C119.7,50.7,119.7,50.7,119.7,50.7c0-0.1,0.1-0.3,0.2-0.4c0,0.1,0,0.1,0,0.2c0,0.1,0,0.1,0,0.2
		c0,0,0,0.1,0,0.1c0,0,0,0,0-0.1c0-0.1,0.1-0.2,0.1-0.3c0,0,0,0,0-0.1c0,0.2,0,0.3,0.1,0.5c0-0.2,0.1-0.3,0.1-0.5c0,0,0,0,0,0
		c0,0.1,0,0.2,0.1,0.3c0,0,0,0,0,0c0,0,0,0,0.1,0c0-0.1,0-0.2,0.1-0.3c0,0,0-0.1,0-0.1c0,0,0,0.1,0,0.1c0,0.1,0.1,0.2,0.1,0.3
		c0,0,0,0,0,0c0,0,0,0,0,0c0-0.1,0-0.2,0-0.4c0,0,0,0,0,0.1c0,0.1,0.1,0.2,0.1,0.3c0,0,0,0,0,0c0,0,0,0,0,0c0-0.1,0-0.2,0-0.3
		c0,0,0-0.1,0-0.1c0,0,0,0.1,0,0.1c0,0.1,0.1,0.2,0.1,0.3c0,0,0,0,0.1,0c0,0,0,0,0-0.1c0-0.1,0-0.2,0-0.3c0,0,0,0,0,0
		c0.1,0.2,0.2,0.3,0.3,0.4c0,0,0,0,0,0c0-0.2,0-0.3-0.1-0.5c0,0,0,0,0,0c0,0.1,0.1,0.1,0.1,0.2c0,0,0.1,0.1,0.1,0.1c0,0,0,0.1,0.1,0
		c0,0,0,0,0-0.1c0-0.1,0-0.2-0.1-0.3c0,0,0,0,0,0c0.1,0.1,0.1,0.1,0.2,0.2c0,0,0,0.1,0.1,0c0,0,0,0,0,0c0,0,0,0,0,0.1c0,0,0,0,0,0
		c0,0,0,0,0,0c0,0,0,0,0,0c0,0,0-0.1,0-0.1c0-0.1-0.1-0.3-0.1-0.4c0,0,0,0,0.1,0c0.1,0.1,0.1,0.1,0.2,0.2c0,0,0,0,0.1,0
		c0,0,0,0,0-0.1c0-0.1-0.1-0.2-0.1-0.3c0,0,0,0,0,0c0,0,0.1,0.1,0.1,0.1c0,0,0.1,0.1,0.1,0.1c0,0,0,0,0.1,0c0,0,0,0,0-0.1
		c0-0.1-0.1-0.2-0.1-0.3c0,0,0,0,0,0c0.1,0.1,0.2,0.2,0.3,0.2c0,0,0,0,0,0c0-0.1,0-0.1,0-0.1c0-0.1-0.1-0.2-0.1-0.2c0,0,0,0,0,0
		c0,0,0,0,0,0c0.1,0,0.2,0.1,0.2,0.1c0,0,0,0,0.1,0c0,0,0,0,0-0.1c-0.1-0.1-0.1-0.2-0.2-0.2c0,0,0,0,0,0l0,0c0,0,0,0,0.1,0
		c0.1,0.1,0.2,0.1,0.3,0.2c0,0,0,0,0.1,0c0,0,0,0,0,0c0,0,0,0,0,0c-0.1-0.1-0.2-0.2-0.3-0.3c0,0,0,0-0.1-0.1c0,0,0,0,0.1,0
		c0.1,0,0.2,0.1,0.3,0.1c0,0,0,0,0.1,0c0,0,0,0,0-0.1c-0.1-0.1-0.1-0.1-0.2-0.2c0,0,0,0,0,0c0,0,0.1,0,0.1,0c0.1,0,0.2,0,0.2,0.1
		c0,0,0.1,0,0.1,0c0,0,0,0,0,0c0,0,0.1,0,0.1,0c-0.1-0.1-0.3-0.2-0.4-0.4c0,0,0,0,0,0c0.1,0,0.2,0,0.3,0.1c0,0,0.1,0,0.1,0
		c0,0,0-0.1,0-0.1c-0.1,0-0.1-0.1-0.2-0.2c0,0,0,0-0.1-0.1c0.1,0,0.1,0,0.2,0c0,0,0.1,0,0.1,0c0,0,0.1,0,0.1,0c0,0,0,0,0.1,0
		c-0.1-0.1-0.2-0.1-0.4-0.2c0,0,0,0,0,0c0.1,0,0.2,0,0.3,0c0,0,0.1,0,0.1,0c0,0,0,0,0-0.1c-0.1,0-0.2-0.1-0.3-0.1c0.1,0,0.2,0,0.2,0
		c0,0,0,0,0,0c0.1,0,0.1,0,0.1-0.1c-0.1,0-0.2-0.1-0.3-0.1c0,0,0,0,0,0c0.1,0,0.2,0,0.3-0.1c0.1,0,0,0,0.1-0.1c0,0,0,0-0.1-0.1
		c-0.1,0-0.2-0.1-0.3-0.1c0,0,0,0,0.1,0c0.1,0,0.2-0.1,0.3-0.1c0,0,0,0,0-0.1c0,0,0,0,0-0.1c-0.1,0-0.2,0-0.3-0.1c0,0,0,0,0,0
		c0,0,0.1,0,0.1-0.1c0.1,0,0.1-0.1,0.2-0.1c0,0,0,0,0-0.1c0,0,0-0.1,0-0.1c-0.1,0-0.2,0-0.2,0c0,0-0.1,0-0.1,0
		c0.1-0.1,0.2-0.1,0.3-0.2c0,0,0,0,0-0.1c0,0,0-0.1-0.1-0.1c-0.1,0-0.2,0-0.3,0c0,0,0,0,0,0c0.1-0.1,0.2-0.1,0.2-0.2c0,0,0,0,0-0.1
		c0,0,0,0-0.1,0c-0.1,0-0.2,0-0.3,0c0,0,0,0,0.1-0.1c0.1-0.1,0.1-0.1,0.2-0.2c0,0,0,0,0-0.1c0,0,0,0-0.1,0c-0.1,0-0.2,0-0.3,0.1
		c0,0,0,0,0,0c0.1-0.1,0.1-0.1,0.2-0.2c0,0,0,0,0-0.1c0,0,0,0-0.1,0c-0.1,0-0.2,0.1-0.3,0.1c0,0,0,0,0,0c0,0,0,0,0,0
		c0.1-0.1,0.1-0.1,0.2-0.2c0,0,0-0.1,0-0.1c0,0,0,0-0.1,0c-0.1,0-0.2,0.1-0.3,0.1c0,0,0,0-0.1,0c0.1-0.1,0.1-0.1,0.2-0.2
		c0,0,0,0,0.1-0.1c0,0,0,0,0-0.1c0,0,0,0-0.1,0c-0.1,0-0.2,0.1-0.3,0.1c0,0,0,0-0.1,0l0,0c0.1-0.1,0.1-0.2,0.2-0.3c0,0,0-0.1,0-0.1
		c0,0,0,0-0.1,0c-0.1,0-0.2,0.1-0.2,0.1c0,0-0.1,0-0.1,0c0,0,0,0,0-0.1c0-0.1,0.1-0.2,0.1-0.3c0,0,0,0,0-0.1c0,0,0,0-0.1,0
		c-0.1,0.1-0.2,0.1-0.2,0.2c0,0,0,0-0.1,0c0,0,0,0,0,0c0-0.1,0.1-0.2,0.1-0.3c0,0,0,0,0,0c0,0,0,0,0,0c0,0,0,0,0,0c0,0,0,0,0,0
		c-0.1,0.1-0.1,0.1-0.2,0.2c0,0,0,0-0.1,0.1c0.1-0.2,0.1-0.3,0.2-0.5c0,0,0,0,0,0c-0.1,0.1-0.2,0.3-0.3,0.4c0,0,0,0,0-0.1
		c0-0.1,0.1-0.2,0.1-0.3c0,0,0,0,0,0c0,0,0,0,0,0c0,0,0,0,0,0c0,0.1-0.1,0.1-0.1,0.2c0,0.1-0.1,0.1-0.1,0.2c0-0.1,0.1-0.3,0.1-0.4
		c-0.1,0.1-0.2,0.2-0.3,0.4c0-0.1,0.1-0.3,0.1-0.4c0,0,0,0,0,0c0,0.1-0.1,0.1-0.1,0.2c0,0.1-0.1,0.1-0.1,0.2c0-0.2,0.1-0.3,0.1-0.5
		c0,0,0,0,0,0c-0.1,0.1-0.1,0.3-0.2,0.4c0,0,0,0,0,0c0-0.1,0-0.3,0.1-0.4c0,0,0,0,0,0c0,0.1-0.1,0.1-0.1,0.2c0,0.1-0.1,0.1-0.1,0.2
		c0-0.2,0-0.3,0-0.5c0,0-0.1,0.1-0.1,0.1c0,0,0,0.1-0.1,0.1c0,0,0,0.1-0.1,0.1c0-0.2,0-0.3,0-0.5c0,0.1-0.1,0.1-0.1,0.2
		c0,0.1,0,0.1-0.1,0.2c0-0.2,0-0.3,0-0.5c-0.1,0.1-0.1,0.3-0.1,0.4c0-0.2,0-0.3,0-0.5c0,0,0,0,0,0c0,0.2-0.1,0.3-0.1,0.5
		c0-0.2,0-0.3-0.1-0.5c0,0,0,0,0,0c0,0.2,0,0.3-0.1,0.5c0-0.2-0.1-0.3-0.1-0.5c0,0,0,0,0,0c0,0.2,0,0.3-0.1,0.5
		c0-0.2-0.1-0.3-0.1-0.5c0,0,0,0,0,0c0,0.2,0,0.3,0,0.5c0,0,0,0,0,0c0-0.1-0.1-0.3-0.1-0.4c0,0,0,0,0,0c0,0.1,0,0.2,0,0.2
		c0,0.1,0,0.2,0,0.2c-0.1-0.1-0.1-0.3-0.2-0.4c0,0,0,0,0,0c0,0,0,0.1,0,0.1c0,0.1,0,0.1,0,0.2c0,0.1,0,0.1,0,0.2
		c-0.1-0.1-0.1-0.3-0.2-0.4c0,0,0,0,0,0c0,0.1,0,0.1,0,0.2c0,0.1,0,0.2,0,0.2c0-0.1-0.1-0.2-0.1-0.3c0,0,0-0.1-0.1-0.1
		c0,0,0,0-0.1,0c0,0,0,0,0,0c0,0,0,0,0,0c0-0.1,0-0.2-0.1-0.2c0,0,0,0,0,0c0.1,0,0.2-0.1,0.3-0.1c0,0,0,0,0,0c0,0.1,0,0.2,0.1,0.2
		c0,0,0,0,0,0c0,0,0,0,0,0c0,0.1,0.1,0.2,0.1,0.2c0-0.2,0-0.3,0-0.5c0.1,0.2,0.1,0.3,0.2,0.5c0,0,0-0.1,0-0.1c0,0,0-0.1,0-0.1
		c0-0.1,0-0.1-0.1-0.1c0-0.1,0-0.1,0-0.2c0,0,0,0,0-0.1c0,0,0,0,0,0c0,0,0,0,0,0c0-0.1,0-0.1,0-0.1c0.1,0,0.2,0,0.4-0.1
		c0,0,0.1,0,0.1-0.1c0.1-0.2,0.1-0.4,0.2-0.6c0-0.1,0-0.1,0.1-0.1c0.1,0,0.2,0,0.3,0c0,0,0,0,0.1,0c0,0.2,0,0.4,0.1,0.6
		c0,0.1,0,0.1,0.1,0.1c0.1,0,0.2,0,0.4,0.1c0,0,0.1,0,0.1,0c0.1-0.2,0.2-0.3,0.3-0.5c0-0.1,0-0.1,0.1,0c0.1,0,0.2,0.1,0.3,0.1
		c0,0,0,0,0,0.1c0,0.2-0.1,0.4-0.1,0.6c0,0.1,0,0.1,0,0.1c0.1,0.1,0.2,0.1,0.3,0.2c0,0,0.1,0,0.1,0c0.2-0.1,0.3-0.2,0.5-0.4
		c0.1,0,0,0,0.1,0c0.1,0.1,0.2,0.1,0.3,0.2c0,0,0,0,0,0.1c-0.1,0.2-0.2,0.3-0.3,0.5c0,0.1,0,0.1,0,0.1c0.1,0.1,0.2,0.2,0.3,0.3
		c0,0,0.1,0,0.1,0c0.2-0.1,0.4-0.1,0.6-0.2c0,0,0.1,0,0.1,0c0.1,0.1,0.1,0.2,0.2,0.3c0,0,0,0,0,0.1c-0.1,0.1-0.3,0.3-0.4,0.4
		c0,0,0,0,0,0.1c0.1,0.1,0.1,0.2,0.2,0.3c0,0,0,0.1,0.1,0c0.2,0,0.4,0,0.6,0c0,0,0,0,0,0c0,0,0,0,0,0c0,0.1,0.1,0.2,0.1,0.3
		c0,0,0,0,0,0.1c-0.1,0.1-0.3,0.1-0.4,0.2c-0.1,0-0.1,0.1-0.2,0.1c0,0,0,0,0,0.1c0,0.1,0,0.3,0.1,0.4c0,0,0,0,0.1,0.1
		c0.2,0.1,0.4,0.1,0.6,0.2c0,0,0,0,0,0c0,0,0,0,0,0.1c0,0.1,0,0.2,0,0.3c0,0.1,0,0.1-0.1,0.1c-0.2,0-0.4,0-0.6,0.1c0,0,0,0-0.1,0.1
		c0,0.1,0,0.3-0.1,0.4c0,0,0,0.1,0,0.1c0.2,0.1,0.3,0.2,0.5,0.3c0,0,0,0,0,0.1c0,0.1-0.1,0.2-0.1,0.3c0,0,0,0-0.1,0
		c-0.2,0-0.4-0.1-0.6-0.1c0,0,0,0,0,0c0,0,0,0,0,0c-0.1,0.1-0.1,0.3-0.2,0.4c0,0,0,0,0,0.1c0.1,0.1,0.1,0.2,0.2,0.3
		c0.1,0.1,0.1,0.2,0.2,0.2c0,0,0,0,0,0.1c-0.1,0.1-0.1,0.2-0.2,0.3c0,0,0,0-0.1,0c-0.2-0.1-0.4-0.2-0.5-0.3c-0.1,0-0.1,0-0.1,0
		c-0.1,0.1-0.2,0.2-0.3,0.3c0,0,0,0.1,0,0.1c0.1,0.2,0.1,0.4,0.2,0.6c0,0.1,0,0.1,0,0.1c-0.1,0.1-0.2,0.1-0.3,0.2c0,0,0,0-0.1,0
		c-0.1-0.1-0.3-0.3-0.4-0.4c0,0,0,0-0.1,0c-0.1,0.1-0.2,0.1-0.4,0.2c0,0,0,0,0,0.1c0,0.2,0,0.4,0,0.6c0,0,0,0.1,0,0.1
		c-0.1,0-0.2,0.1-0.3,0.1c0,0-0.1,0-0.1,0c-0.1-0.2-0.2-0.4-0.3-0.6c0-0.1,0-0.1-0.1-0.1c-0.1,0-0.3,0-0.4,0.1c0,0,0,0-0.1,0.1
		c-0.1,0.2-0.1,0.4-0.2,0.6c0,0,0,0,0,0c0,0,0,0,0,0c-0.1,0-0.2,0-0.4,0c0,0,0,0,0,0c0-0.1,0-0.2,0-0.3c0-0.1,0-0.2,0-0.3
		c0,0,0,0,0,0c-0.1,0-0.2,0-0.4-0.1c0,0,0,0,0,0c0-0.1,0-0.1,0.1-0.1c0.1,0,0.2,0,0.4,0.1c0.1,0,0.1,0,0.1,0.1c0,0.2,0,0.4,0.1,0.6
		c0,0,0,0,0,0.1c0,0,0,0,0,0c0.1,0,0.1,0,0.2,0c0,0,0,0,0,0c0-0.1,0.1-0.2,0.1-0.3c0-0.1,0.1-0.2,0.1-0.3c0,0,0-0.1,0.1-0.1
		c0.1,0,0.3,0,0.4-0.1c0.1,0,0.1,0,0.2,0c0,0,0,0,0,0c0.1,0.2,0.1,0.3,0.2,0.5c0,0,0,0.1,0,0.1c0,0,0,0,0.1,0c0.1,0,0.1,0,0.2-0.1
		c0,0,0,0,0-0.1c0-0.1,0-0.3,0-0.4c0-0.1,0-0.1,0-0.2c0,0,0,0,0-0.1c0.1-0.1,0.3-0.1,0.4-0.2c0,0,0.1,0,0.1-0.1c0,0,0,0,0.1,0
		c0.1,0.1,0.2,0.2,0.2,0.3c0.1,0.1,0.1,0.1,0.2,0.2c0,0,0,0,0.1,0c0,0,0.1-0.1,0.1-0.1c0.1,0,0.1,0,0-0.1c-0.1-0.2-0.1-0.4-0.2-0.5
		c0,0,0-0.1,0-0.1c0.1-0.1,0.2-0.2,0.3-0.3c0,0,0.1-0.1,0.1-0.1c0,0,0,0,0,0c0,0,0.1,0.1,0.1,0.1c0.1,0.1,0.3,0.1,0.4,0.2
		c0,0,0.1,0,0.1,0c0,0,0.1-0.1,0.1-0.1c0,0,0,0,0-0.1c-0.1-0.2-0.2-0.3-0.4-0.5c0,0,0-0.1,0-0.1c0-0.1,0.1-0.2,0.2-0.4
		c0-0.1,0.1-0.1,0.1-0.1c0,0,0,0,0.1,0c0.1,0,0.2,0,0.3,0.1c0.1,0,0.2,0,0.3,0.1c0.1,0,0.1,0,0.1,0c0,0,0-0.1,0.1-0.1
		c0,0,0-0.1,0-0.1c-0.2-0.1-0.3-0.2-0.5-0.3c0,0-0.1-0.1-0.1-0.1c0-0.1,0-0.3,0.1-0.4c0-0.1,0-0.1,0-0.2c0,0,0,0,0,0
		c0.1,0,0.2,0,0.3,0c0.1,0,0.2,0,0.3,0c0,0,0,0,0-0.1c0-0.1,0-0.1,0-0.2c0,0,0-0.1,0-0.1c-0.2-0.1-0.4-0.1-0.6-0.2
		c0,0-0.1,0-0.1-0.1c0-0.1,0-0.3-0.1-0.4c0,0,0-0.1,0-0.1c0,0,0,0,0,0c0.1-0.1,0.3-0.1,0.4-0.2c0,0,0.1,0,0.1-0.1c0,0,0,0,0,0
		c0-0.1,0-0.1-0.1-0.2c0,0,0,0,0,0c-0.2,0-0.4,0-0.6,0c0,0,0,0-0.1,0c-0.1-0.1-0.2-0.3-0.2-0.4c0,0,0-0.1,0-0.1c0,0,0,0,0-0.1
		c0.1-0.1,0.1-0.1,0.2-0.2c0.1-0.1,0.2-0.1,0.2-0.2c0,0,0,0,0-0.1c0,0-0.1-0.1-0.1-0.1c0,0,0,0-0.1,0c-0.2,0.1-0.3,0.1-0.5,0.2
		c0,0,0,0,0,0c-0.1,0-0.1,0-0.1,0c-0.1-0.1-0.2-0.2-0.3-0.2c-0.1,0-0.1-0.1-0.1-0.1c0,0,0,0,0-0.1c0.1-0.2,0.2-0.3,0.3-0.5
		c0,0,0.1-0.1,0.1-0.1c0,0-0.1-0.1-0.1-0.1c0,0,0,0-0.1,0c0,0-0.1,0-0.1,0c-0.2,0.1-0.3,0.2-0.5,0.4c0,0-0.1,0-0.1,0
		c-0.1,0-0.3-0.1-0.4-0.2c0,0-0.1-0.1-0.1-0.1c0,0,0,0,0,0c0-0.1,0-0.2,0.1-0.3c0-0.1,0-0.2,0.1-0.3c0,0,0,0,0-0.1
		c-0.1,0-0.1,0-0.2-0.1c0,0-0.1,0-0.1,0c-0.1,0.2-0.2,0.3-0.3,0.5c0,0-0.1,0.1-0.1,0.1c-0.1,0-0.3,0-0.4-0.1c0,0-0.1,0-0.1,0
		c0,0,0,0,0-0.1c0-0.1,0-0.2,0-0.3c0-0.1,0-0.2,0-0.4c0,0,0,0,0,0c-0.1,0-0.1,0-0.2,0c0,0,0,0,0,0c-0.1,0.2-0.1,0.3-0.2,0.5
		c0,0,0,0,0,0c0,0.1,0,0.1-0.1,0.1c-0.1,0-0.2,0-0.2,0c0,0,0,0,0,0c0,0,0.1,0,0.1,0c0.1,0,0.1,0,0.2,0c0,0,0,0,0,0
		c0,0.1,0,0.2,0.1,0.3c0,0.1,0,0.2,0,0.2c0,0,0,0,0,0c0-0.2,0.1-0.3,0.1-0.5c0-0.1,0-0.1,0.1-0.1c0.1,0,0.3,0,0.4,0c0,0,0,0,0,0
		c0,0.1,0,0.1,0,0.2c0,0,0,0,0,0c0,0,0,0,0,0.1c0,0.1,0,0.2,0,0.2c0,0,0,0,0,0c0.1-0.2,0.1-0.3,0.2-0.5c0,0,0,0,0,0
		c0,0.2,0,0.3,0,0.5c0,0,0-0.1,0.1-0.1c0,0,0,0,0-0.1c0,0,0,0,0-0.1c0,0,0,0-0.1,0c0,0,0,0,0,0c0-0.1,0-0.2,0.1-0.2c0,0,0,0,0,0
		c0.1,0,0.3,0.1,0.4,0.1c0,0,0,0,0,0.1c0,0.1,0,0.2-0.1,0.4c0,0,0,0.1,0,0.1c0.1-0.1,0.1-0.2,0.2-0.3c0-0.1,0.1-0.1,0.1-0.2
		c0,0,0,0,0.1,0c0.1,0.1,0.3,0.1,0.4,0.2c0,0,0,0,0,0.1c0,0.1-0.1,0.1-0.1,0.2c0,0,0,0,0,0c-0.1,0-0.1,0.1-0.1,0.1c0,0,0,0.1,0,0.1
		c0,0,0,0,0.1,0c0.1-0.1,0.1-0.2,0.2-0.3c0,0,0,0,0.1-0.1c0,0,0,0,0,0c0,0.1-0.1,0.1-0.1,0.2c0,0,0.1-0.1,0.1-0.1c0,0,0,0,0,0
		c0,0,0,0,0.1,0c0.1,0.1,0.1,0.1,0.2,0.2c0,0,0.1,0.1,0.1,0.1c0,0,0,0,0,0.1c-0.1,0.1-0.2,0.3-0.3,0.5c0,0,0,0,0,0c0,0,0,0,0,0
		c0,0,0,0,0,0c0,0,0,0,0,0c0.1,0,0.1-0.1,0.2-0.1c0,0,0,0,0,0c0,0,0,0,0-0.1c0.1-0.1,0.1-0.1,0.2-0.2c0.1,0.1,0.2,0.2,0.3,0.4
		c-0.1,0.1-0.2,0.1-0.2,0.2c-0.1,0.1-0.1,0.2-0.2,0.2c0.1,0,0.2-0.1,0.2-0.1c0,0,0,0,0,0c0-0.1,0.1-0.1,0.2-0.1c0,0,0,0,0.1,0
		c0,0,0,0,0,0c0.1,0.1,0.2,0.2,0.2,0.4c0,0,0,0,0,0c0,0,0,0,0,0c-0.2,0.1-0.3,0.2-0.4,0.3c0,0,0,0,0,0c0.1,0,0.2,0,0.3-0.1
		c0.1,0,0.2-0.1,0.2-0.1c0,0,0,0,0,0c0,0,0,0.1,0,0.1c0,0.1,0.1,0.2,0.1,0.3c0,0,0,0,0,0c-0.1,0-0.1,0.1-0.2,0.1
		c-0.1,0-0.2,0.1-0.3,0.2c0.2,0,0.3,0,0.5,0c0.1,0,0.1,0,0.1,0.1c0,0.1,0,0.2,0.1,0.3c0,0,0,0.1,0,0.1c-0.1,0-0.1,0-0.2,0
		c-0.1,0-0.2,0.1-0.3,0.1c0.2,0,0.3,0.1,0.5,0.1c0,0,0,0,0,0.1c0,0.1,0,0.2,0,0.3c0,0,0,0,0,0c0,0.1,0,0.1-0.1,0.1c0,0-0.1,0-0.1,0
		c0,0-0.1,0-0.1,0c0,0,0,0,0,0c-0.1,0-0.1,0-0.2,0c0.1,0,0.2,0.1,0.2,0.1c0.1,0,0.2,0.1,0.3,0.1c0,0,0,0,0,0c0,0.1,0,0.2-0.1,0.3
		c0,0,0,0.1,0,0.1c0,0,0,0,0,0c-0.1,0-0.2,0-0.2-0.1c0,0,0,0,0,0c0,0,0,0,0,0c-0.1,0-0.1,0-0.2,0c0.2,0.1,0.3,0.2,0.5,0.3
		c0,0.1-0.1,0.2-0.1,0.3c0,0,0,0.1-0.1,0.1c0,0,0,0,0,0c-0.1,0-0.2-0.1-0.3-0.1c0,0,0,0,0-0.1c-0.1,0-0.2,0-0.2,0c0,0,0,0,0,0
		c0.1,0.1,0.2,0.2,0.4,0.3c0,0,0,0,0,0.1c-0.1,0.1-0.2,0.3-0.2,0.4c0,0,0,0-0.1,0c-0.1,0-0.1-0.1-0.2-0.1c0,0,0,0,0,0
		c0,0,0.1,0.1,0.1,0.1c0,0,0.1,0.1,0.1,0.1c-0.1,0-0.1-0.1-0.2-0.1c0,0,0,0,0,0c0,0,0,0,0,0c0,0,0.1,0.1,0.1,0.1c0,0,0,0,0,0.1
		c-0.1,0.1-0.2,0.2-0.3,0.3c0,0,0,0-0.1,0c-0.1-0.1-0.2-0.2-0.3-0.2c0,0-0.1-0.1-0.1-0.1c0,0,0,0,0,0c0,0,0,0,0,0
		c0,0.1,0.1,0.1,0.1,0.2c0,0,0,0,0,0c0,0,0,0,0,0c0.1,0.1,0.1,0.1,0.2,0.2c-0.1,0.1-0.3,0.2-0.4,0.3c-0.1-0.1-0.1-0.2-0.2-0.2
		c0,0,0,0,0,0c0,0,0-0.1,0-0.1c0,0-0.1-0.1-0.1-0.1c0,0,0,0.1,0,0.1c0,0.1,0.1,0.3,0.1,0.4c0,0.1,0,0.1,0,0.1
		c-0.1,0.1-0.2,0.1-0.3,0.2c-0.1,0-0.1,0-0.1-0.1c0,0,0-0.1-0.1-0.1c0,0.1,0,0.1,0,0.2c-0.1-0.2-0.2-0.3-0.3-0.5c0,0.1,0,0.2,0,0.2
		c0,0,0,0,0,0c0,0,0.1,0,0.1,0c0,0,0,0,0,0.1c0,0.1,0,0.1,0.1,0.2c0,0,0,0,0,0c-0.1,0-0.3,0.1-0.4,0.1c0,0,0,0,0,0
		c-0.1-0.2-0.1-0.3-0.2-0.5c0,0,0,0,0,0c0,0,0,0,0,0c0,0.1,0,0.1,0,0.2c0,0,0,0.1,0,0.1c0,0,0,0,0,0c0,0.1,0,0.1,0,0.2
		c0,0.1,0,0.1-0.1,0.1c-0.1,0-0.2,0-0.3,0c0,0-0.1,0-0.1,0c0,0,0-0.1,0-0.1c0,0,0-0.1,0-0.1c0,0,0-0.1,0-0.1c0,0,0,0,0,0
		c0-0.1,0-0.2-0.1-0.3c0,0,0,0,0,0.1c0,0.1-0.1,0.3-0.1,0.4c0,0,0,0,0,0c0,0.1,0,0.1-0.1,0.1c-0.1,0-0.2,0-0.4,0c-0.1,0-0.1,0,0-0.1
		C119.7,50.8,119.7,50.8,119.7,50.7c0,0,0.1,0,0.1,0c0,0,0,0,0,0c0-0.1,0-0.1,0-0.2c0,0,0,0,0-0.1C119.8,50.5,119.8,50.6,119.7,50.7
		C119.7,50.7,119.7,50.7,119.7,50.7z M123.8,48.3C123.8,48.3,123.8,48.3,123.8,48.3C123.8,48.3,123.8,48.3,123.8,48.3
		C123.8,48.4,123.8,48.4,123.8,48.3C123.8,48.3,123.8,48.3,123.8,48.3z M122.2,44.6C122.2,44.5,122.3,44.5,122.2,44.6
		c0.2-0.2,0.2-0.2,0.1-0.2C122.3,44.4,122.2,44.5,122.2,44.6C122.2,44.6,122.2,44.6,122.2,44.6C122.2,44.6,122.2,44.6,122.2,44.6z
		 M123.1,49.2C123.1,49.2,123,49.1,123.1,49.2C123,49.2,123,49.2,123.1,49.2c0,0,0,0.1,0.1,0.1c0.1,0.1,0.1,0.1,0.1,0c0,0,0,0,0,0
		C123.2,49.2,123.1,49.2,123.1,49.2z M122.9,49.4C122.9,49.3,122.9,49.3,122.9,49.4C122.9,49.3,122.9,49.3,122.9,49.4
		C122.9,49.4,122.9,49.4,122.9,49.4c0,0.1,0.1,0.1,0.1,0.2c0,0,0.1-0.1,0.1-0.1C123,49.4,123,49.4,122.9,49.4z M122.3,49.9
		C122.3,49.9,122.3,49.9,122.3,49.9C122.3,49.9,122.3,49.9,122.3,49.9C122.3,49.9,122.3,49.9,122.3,49.9c0,0.1,0.1,0.2,0.1,0.2
		c0,0,0.1,0,0.1-0.1C122.4,50,122.4,49.9,122.3,49.9z M123.2,48.9C123.2,48.9,123.2,48.9,123.2,48.9
		C123.2,48.9,123.2,48.9,123.2,48.9c0,0.1,0.1,0.1,0.2,0.2c0,0,0,0,0,0c0,0,0-0.1,0.1-0.1C123.3,49,123.3,48.9,123.2,48.9z
		 M122.8,45.1c0.1,0,0.2-0.1,0.2-0.1c0,0,0,0,0,0c0,0-0.1-0.1-0.1-0.1C122.9,44.9,122.9,45,122.8,45.1
		C122.8,45.1,122.8,45.1,122.8,45.1C122.8,45.1,122.8,45.1,122.8,45.1C122.8,45.1,122.8,45.1,122.8,45.1z M119.2,50.5
		c0.1,0,0.1,0,0.2,0c0-0.1,0-0.2,0-0.3c0,0,0,0,0,0C119.3,50.3,119.3,50.4,119.2,50.5z M122.5,44.5c0,0.1-0.1,0.2-0.1,0.3
		c0,0,0,0,0,0c0.1-0.1,0.2-0.1,0.2-0.2C122.6,44.5,122.5,44.5,122.5,44.5z M120.2,50.7c0-0.1,0-0.2-0.1-0.3c0,0.1-0.1,0.2-0.1,0.3
		C120.1,50.7,120.1,50.7,120.2,50.7z M120.7,50.7c0-0.1-0.1-0.2-0.1-0.3c0,0.1-0.1,0.2-0.1,0.3C120.6,50.7,120.7,50.7,120.7,50.7z
		 M123.3,45.4c-0.1,0.1-0.1,0.1-0.2,0.2c0.1,0,0.2,0,0.3-0.1C123.4,45.5,123.4,45.4,123.3,45.4z M121.1,50.6c0,0,0.1,0,0.1,0
		c0,0,0,0,0,0c0-0.1-0.1-0.2-0.1-0.2C121.1,50.5,121.1,50.6,121.1,50.6z M123.4,46.1C123.4,46.1,123.4,46.1,123.4,46.1
		c0.1,0,0.1,0,0.2,0c0,0,0.1,0,0.1,0c0,0,0-0.1,0-0.1c0,0,0,0,0,0C123.5,46,123.5,46.1,123.4,46.1z M121.7,50.5c0,0,0.1,0,0.1-0.1
		c-0.1-0.1-0.1-0.1-0.2-0.2C121.6,50.3,121.6,50.4,121.7,50.5z M123.4,48.4C123.4,48.4,123.4,48.4,123.4,48.4
		c0.1,0.1,0.1,0.1,0.2,0.2c0,0,0-0.1,0-0.1c0,0,0,0,0,0C123.6,48.4,123.5,48.4,123.4,48.4z M123.8,46.6c-0.1,0-0.2,0.1-0.2,0.1
		c0.1,0,0.2,0,0.3,0C123.8,46.6,123.8,46.6,123.8,46.6z M123.6,47.8c0.1,0,0.2,0.1,0.2,0.1c0,0,0-0.1,0-0.1c0,0,0,0,0,0
		C123.7,47.8,123.7,47.8,123.6,47.8z M119.5,44.2C119.5,44.2,119.5,44.2,119.5,44.2C119.5,44.2,119.5,44.2,119.5,44.2
		c0-0.1,0-0.2,0-0.2c0-0.1,0-0.1-0.1,0c0,0,0,0,0,0C119.4,44,119.5,44.1,119.5,44.2z M123.9,47.3c0-0.1,0-0.1,0-0.2
		c-0.1,0-0.2,0-0.3,0.1C123.7,47.3,123.8,47.3,123.9,47.3z M120,44.1c0-0.1,0-0.2,0-0.3c0,0,0,0,0,0c0,0,0,0-0.1,0c0,0,0,0,0,0
		C120,43.9,120,44,120,44.1z M121.9,50.4c0,0,0.1,0,0.1-0.1c-0.1-0.1-0.1-0.1-0.2-0.2C121.9,50.2,121.9,50.3,121.9,50.4z
		 M122.7,49.5C122.7,49.5,122.7,49.5,122.7,49.5c0,0.1,0.1,0.1,0.1,0.2c0,0,0.1-0.1,0.1-0.1C122.8,49.6,122.8,49.6,122.7,49.5z
		 M120.2,44.1c0-0.1,0-0.2,0-0.3c0,0,0,0,0,0c0,0,0,0,0,0c0,0,0,0,0,0C120.2,43.9,120.2,44,120.2,44.1z M120.7,44.1
		C120.7,44.1,120.7,44.1,120.7,44.1c0-0.1,0.1-0.2,0.1-0.3c0,0,0,0,0,0c-0.1,0-0.1,0-0.1,0.1C120.7,43.9,120.7,44,120.7,44.1z
		 M121.2,44.2c0-0.1,0.1-0.2,0.1-0.2c0,0,0,0-0.1,0c0,0,0,0,0,0C121.3,44,121.2,44.1,121.2,44.2z M120.6,44.1c0-0.1,0-0.2,0.1-0.3
		c0,0-0.1,0-0.1,0c0,0,0,0,0,0C120.5,43.9,120.5,44,120.6,44.1z M121.4,44.2C121.4,44.2,121.4,44.2,121.4,44.2
		c0.1-0.1,0.1-0.1,0.1-0.2c0,0-0.1,0-0.1,0C121.4,44,121.4,44.1,121.4,44.2z M121.9,44.4C121.9,44.4,121.9,44.4,121.9,44.4
		c0.1-0.1,0.1-0.1,0.2-0.2c0,0-0.1,0-0.1,0C121.9,44.2,121.9,44.3,121.9,44.4z M121.7,44.3c0.1-0.1,0.1-0.1,0.1-0.2c0,0-0.1,0-0.1,0
		C121.8,44.2,121.7,44.2,121.7,44.3z M119.9,43.5C119.9,43.5,119.9,43.5,119.9,43.5C119.9,43.5,119.9,43.5,119.9,43.5z M120.2,50.8
		C120.2,50.8,120.2,50.8,120.2,50.8C120.2,50.8,120.2,50.8,120.2,50.8C120.2,50.8,120.2,50.8,120.2,50.8
		C120.2,50.8,120.2,50.8,120.2,50.8z M119.7,43.8C119.7,43.8,119.7,43.8,119.7,43.8C119.7,43.9,119.7,43.9,119.7,43.8
		C119.7,43.9,119.7,43.9,119.7,43.8C119.7,43.9,119.7,43.8,119.7,43.8z M123.2,49.3C123.2,49.3,123.2,49.3,123.2,49.3
		C123.2,49.3,123.2,49.4,123.2,49.3C123.2,49.4,123.2,49.4,123.2,49.3C123.2,49.3,123.2,49.3,123.2,49.3z M119.2,50.6
		C119.2,50.6,119.2,50.6,119.2,50.6C119.2,50.6,119.2,50.6,119.2,50.6C119.2,50.6,119.2,50.6,119.2,50.6
		C119.2,50.6,119.2,50.6,119.2,50.6z M122.1,50C122.1,50,122.1,50,122.1,50C122.1,50,122.1,50,122.1,50C122.1,50,122.1,50,122.1,50
		C122.1,50,122.1,50,122.1,50z M122,44.5C122,44.5,122,44.5,122,44.5C122,44.5,122,44.5,122,44.5C122,44.5,122,44.5,122,44.5
		C122,44.5,122,44.5,122,44.5z"/>
	<path class="st11" d="M116.6,46.9c-0.2,0.1-0.4,0.2-0.4,0.5c0,0.1,0,0.1-0.1,0.1c0,0,0,0,0,0c-1.2,0-2.4,0-3.6,0c0,0,0,0.1,0,0.1
		h3.6c0,0,0,0,0,0c0.1,0,0.1,0,0.1,0.1c0.1,0.3,0.3,0.5,0.6,0.5c0.4,0,0.7-0.3,0.6-0.7C117.3,47,116.9,46.8,116.6,46.9z"/>
	<path class="st12" d="M118.1,49.6c-0.1,0-0.2,0-0.3,0.1c0,0,0,0.1,0,0.1c0,0-0.1,0-0.1,0c0,0,0,0-0.1,0c-0.5-0.5-1.1-1.1-1.6-1.6
		c0,0-0.1-0.1-0.1-0.1c-1.2,0-2.3,0-3.5,0c0,0,0,0,0,0c0,0,0,0.1,0,0.1h0.1c1.1,0,2.2,0,3.3,0c0.1,0,0.1,0,0.1,0.1
		c0.5,0.5,1,1,1.6,1.6c0.1,0.1,0.1,0.1,0.2,0.1c0,0,0.1,0,0.1,0c0.1,0.1,0.2,0.1,0.3,0.1c0.1,0,0.2-0.1,0.2-0.3
		C118.3,49.7,118.2,49.6,118.1,49.6z"/>
	<path class="st12" d="M118.2,44.8c-0.1-0.1-0.3-0.1-0.4,0.1c0,0,0,0-0.1,0c0,0,0,0,0,0c-0.1,0-0.1,0-0.1,0.1
		c-0.5,0.5-1.1,1.1-1.6,1.6c0,0-0.1,0.1-0.1,0.1c-1.1,0-2.3,0-3.4,0c0,0,0,0.1,0,0.1c1.2,0,2.3,0,3.5,0c0.1,0,0.1,0,0.1-0.1
		c0.5-0.5,1.1-1.1,1.6-1.6c0,0,0.1,0,0.1,0c0,0,0,0,0.1,0.1c0.1,0.1,0.1,0.1,0.2,0.1c0.1,0,0.2-0.1,0.2-0.2
		C118.3,44.9,118.3,44.9,118.2,44.8z"/>
	<path class="st13" d="M120.2,50c-1.5,0-2.7-1.2-2.7-2.7c0-1.5,1.2-2.7,2.7-2.7c1.4,0,2.7,1.2,2.7,2.7
		C122.9,48.9,121.7,50.1,120.2,50z M117.6,47.3c0,1.4,1.1,2.6,2.6,2.6c1.5,0,2.6-1.2,2.6-2.6c0-1.4-1.2-2.6-2.6-2.6
		C118.7,44.7,117.6,45.9,117.6,47.3z"/>
	<path class="st11" d="M118.1,43.9c-0.1,0-0.2,0-0.3,0.1c0,0,0,0.1-0.1,0c-0.1,0-0.2,0-0.2,0c-0.1,0-0.1,0-0.1,0.1
		c-0.5,0.5-1.1,1.1-1.6,1.6c0,0-0.1,0.1-0.1,0.1c-1,0-2,0-3,0c0,0,0,0,0,0c0,0,0,0.1,0,0.1c1,0,2,0,3.1,0c0.1,0,0.1,0,0.1-0.1
		c0.5-0.5,1.1-1.1,1.6-1.6c0,0,0.1,0,0.1,0c0.1,0,0.1,0,0.2,0c0,0,0.1,0,0.1,0c0,0.1,0.1,0.1,0.2,0.1c0.2,0,0.3-0.1,0.3-0.3
		C118.3,44.1,118.2,44,118.1,43.9z"/>
	<path class="st11" d="M118.2,50.4c-0.1-0.1-0.3,0-0.4,0.1c0,0,0,0-0.1,0c-0.1,0-0.1,0-0.2,0c0,0-0.1,0-0.1,0
		c-0.5-0.5-1.1-1.1-1.6-1.6c0,0-0.1-0.1-0.1-0.1c-1,0-2,0-3,0c0,0,0,0.1,0,0.1c0.3,0,0.6,0,0.8,0c0.7,0,1.4,0,2.1,0c0,0,0.1,0,0.1,0
		c0.2,0.2,0.4,0.4,0.6,0.6c0.4,0.4,0.7,0.7,1.1,1.1c0,0,0.1,0,0.1,0c0.1,0,0.2,0,0.2,0c0.1,0,0.1,0,0.1,0.1c0.1,0.1,0.1,0.1,0.2,0.1
		c0.1,0,0.2-0.1,0.2-0.2C118.3,50.5,118.3,50.5,118.2,50.4z"/>
	<path class="st12" d="M118.1,51c-0.1,0-0.2,0-0.3,0.1c0,0,0,0.1-0.1,0.1c-0.2,0-0.4,0-0.6,0c-0.1,0-0.1,0-0.1-0.1
		c-0.5-0.5-1-1-1.5-1.5c0,0-0.1-0.1-0.1-0.1c-0.9,0-1.8,0-2.7,0c0,0,0,0.1,0,0.1c0.9,0,1.7,0,2.6,0c0.1,0,0.1,0,0.1,0.1
		c0.5,0.5,1,1,1.5,1.5c0,0,0.1,0,0.1,0c0.2,0,0.4,0,0.7,0c0,0,0.1,0,0.1,0c0,0.1,0.1,0.1,0.2,0.1c0,0,0,0,0.1,0
		c0.1,0,0.2-0.1,0.2-0.2C118.3,51.1,118.2,51,118.1,51z"/>
	<path class="st12" d="M118.3,43.5c0-0.1-0.1-0.2-0.2-0.2c-0.1,0-0.2,0-0.2,0.1c0,0,0,0.1-0.1,0.1c-0.2,0-0.4,0-0.6,0
		c-0.1,0-0.1,0-0.1,0.1c-0.5,0.5-1,1-1.5,1.5c0,0-0.1,0-0.1,0c-0.8,0-1.6,0-2.4,0c0,0,0,0.1,0,0.1c0,0,0,0,0,0c0.3,0,0.6,0,0.9,0
		c0.6,0,1.1,0,1.7,0c0.1,0,0.1,0,0.1-0.1c0.5-0.5,1-1,1.5-1.5c0,0,0.1-0.1,0.1,0c0.2,0,0.4,0,0.6,0c0,0,0.1,0,0.1,0.1
		c0.1,0.1,0.3,0.1,0.4,0C118.3,43.7,118.3,43.6,118.3,43.5z"/>
	<path class="st10" d="M122.4,44.1C122.4,44.1,122.4,44.1,122.4,44.1C122.4,44.1,122.4,44.1,122.4,44.1
		C122.4,44.1,122.4,44.1,122.4,44.1z"/>
	<path class="st10" d="M122.8,49.3C122.8,49.3,122.8,49.3,122.8,49.3C122.8,49.3,122.8,49.3,122.8,49.3
		C122.8,49.3,122.8,49.3,122.8,49.3C122.8,49.3,122.8,49.3,122.8,49.3z"/>
	<path class="st10" d="M122.7,45.2C122.7,45.2,122.7,45.2,122.7,45.2C122.7,45.2,122.7,45.2,122.7,45.2
		C122.7,45.2,122.7,45.2,122.7,45.2C122.7,45.2,122.7,45.2,122.7,45.2z"/>
	<path class="st0" d="M119.2,50.5c0.1-0.1,0.1-0.2,0.2-0.3c0,0,0,0,0,0c0,0.1,0,0.2,0,0.3C119.3,50.6,119.3,50.5,119.2,50.5z"/>
	<path class="st0" d="M119.7,50.7C119.7,50.7,119.7,50.7,119.7,50.7c0-0.1,0.1-0.2,0.1-0.3c0,0,0,0,0,0.1c0,0.1,0,0.1,0,0.2
		c0,0,0,0,0,0C119.8,50.7,119.8,50.7,119.7,50.7C119.7,50.7,119.7,50.7,119.7,50.7z"/>
	<path class="st0" d="M122.5,44.5c0.1,0,0.1,0.1,0.1,0.1c-0.1,0.1-0.2,0.1-0.2,0.2c0,0,0,0,0,0C122.4,44.6,122.4,44.6,122.5,44.5z"
		/>
	<path class="st0" d="M120.2,50.7c-0.1,0-0.1,0-0.2,0c0-0.1,0.1-0.2,0.1-0.3C120.1,50.5,120.2,50.6,120.2,50.7z"/>
	<path class="st0" d="M122.8,45.1C122.8,45.1,122.8,45.1,122.8,45.1c0.1-0.1,0.1-0.2,0.1-0.3c0,0,0.1,0.1,0.1,0.1c0,0,0,0,0,0
		C122.9,45.1,122.9,45.1,122.8,45.1L122.8,45.1z"/>
	<path class="st0" d="M120.7,50.7c-0.1,0-0.1,0-0.1,0c0-0.1,0-0.2,0.1-0.3C120.7,50.5,120.7,50.6,120.7,50.7z"/>
	<path class="st0" d="M123.3,45.4c0,0,0.1,0.1,0.1,0.1c-0.1,0-0.2,0.1-0.3,0.1C123.2,45.5,123.3,45.5,123.3,45.4z"/>
	<path class="st0" d="M121.1,50.6c0-0.1,0-0.2,0-0.3c0.1,0.1,0.1,0.2,0.1,0.2c0,0,0,0,0,0C121.2,50.6,121.2,50.7,121.1,50.6z"/>
	<path class="st0" d="M123.4,46.1c0.1,0,0.1-0.1,0.2-0.1c0,0,0,0,0,0c0,0,0,0.1,0,0.1c0,0-0.1,0-0.1,0
		C123.5,46.1,123.5,46.1,123.4,46.1C123.4,46.1,123.4,46.1,123.4,46.1z"/>
	<path class="st0" d="M121.7,50.5c0-0.1,0-0.2,0-0.3c0.1,0.1,0.1,0.1,0.2,0.2C121.8,50.5,121.7,50.5,121.7,50.5z"/>
	<path class="st0" d="M123.4,48.4c0.1,0,0.1,0,0.2,0c0,0,0,0,0,0c0,0,0,0.1,0,0.1C123.6,48.5,123.5,48.4,123.4,48.4
		C123.4,48.4,123.4,48.4,123.4,48.4z"/>
	<path class="st0" d="M123.8,46.6c0,0,0,0.1,0,0.1c-0.1,0-0.2,0-0.3,0C123.6,46.6,123.7,46.6,123.8,46.6z"/>
	<path class="st0" d="M123.6,47.8c0.1,0,0.2,0,0.2,0c0,0,0,0,0,0c0,0,0,0.1,0,0.1C123.7,47.9,123.6,47.9,123.6,47.8z"/>
	<path class="st0" d="M119.5,44.2c0-0.1-0.1-0.2-0.1-0.3c0,0,0,0,0,0c0.1,0,0.1,0,0.1,0C119.5,44,119.5,44.1,119.5,44.2
		C119.5,44.2,119.5,44.2,119.5,44.2C119.5,44.2,119.5,44.2,119.5,44.2z"/>
	<path class="st0" d="M123.9,47.3c-0.1,0-0.2,0-0.3-0.1c0.1,0,0.2-0.1,0.3-0.1C123.9,47.2,123.9,47.3,123.9,47.3z"/>
	<path class="st0" d="M123.2,48.9c0.1,0,0.2,0,0.2,0.1c0,0,0,0.1-0.1,0.1c0,0,0,0,0,0C123.3,49,123.2,49,123.2,48.9L123.2,48.9z"/>
	<path class="st0" d="M120,44.1c0-0.1-0.1-0.2-0.1-0.3c0,0,0,0,0,0c0,0,0,0,0.1,0c0,0,0,0,0,0C120.1,43.9,120.1,44,120,44.1z"/>
	<path class="st0" d="M121.9,50.4c0-0.1,0-0.2,0-0.3c0.1,0.1,0.1,0.1,0.2,0.2C122,50.3,122,50.4,121.9,50.4z"/>
	<path class="st0" d="M122.3,49.9c0.1,0,0.1,0.1,0.2,0.2c0,0-0.1,0.1-0.1,0.1C122.4,50,122.3,49.9,122.3,49.9L122.3,49.9z"/>
	<path class="st0" d="M122.7,49.5c0.1,0,0.1,0.1,0.2,0.1c0,0-0.1,0.1-0.1,0.1C122.8,49.7,122.7,49.6,122.7,49.5
		C122.7,49.5,122.7,49.5,122.7,49.5z"/>
	<path class="st0" d="M120.2,44.1c0-0.1-0.1-0.2-0.1-0.3c0,0,0,0,0,0c0,0,0,0,0,0c0,0,0,0,0,0C120.2,43.9,120.2,44,120.2,44.1z"/>
	<path class="st0" d="M122.9,49.4c0.1,0,0.1,0.1,0.2,0.1c0,0-0.1,0.1-0.1,0.1C123,49.5,122.9,49.4,122.9,49.4L122.9,49.4z"/>
	<path class="st0" d="M120.7,44.1c0-0.1,0-0.2,0-0.2c0-0.1,0-0.1,0.1-0.1c0,0,0,0,0,0C120.8,43.9,120.8,44,120.7,44.1
		C120.7,44.1,120.7,44.1,120.7,44.1z"/>
	<path class="st0" d="M121.2,44.2c0-0.1,0-0.2,0-0.2c0,0,0,0,0,0c0,0,0,0,0.1,0C121.3,44,121.3,44.1,121.2,44.2z"/>
	<path class="st0" d="M120.6,44.1c0-0.1,0-0.2,0-0.3c0,0,0,0,0,0c0,0,0.1,0,0.1,0C120.6,43.9,120.6,44,120.6,44.1z"/>
	<path class="st0" d="M121.4,44.2c0-0.1,0-0.2,0-0.3c0,0,0.1,0,0.1,0C121.5,44.1,121.5,44.1,121.4,44.2
		C121.4,44.2,121.4,44.2,121.4,44.2z"/>
	<path class="st0" d="M121.9,44.4c0-0.1,0-0.2,0.1-0.2c0,0,0.1,0,0.1,0C122,44.3,121.9,44.3,121.9,44.4
		C121.9,44.4,121.9,44.4,121.9,44.4z"/>
	<path class="st0" d="M123.1,49.2c0.1,0,0.1,0,0.2,0.1c0,0,0,0,0,0c-0.1,0.1-0.1,0.1-0.1,0C123.1,49.2,123.1,49.2,123.1,49.2
		C123,49.2,123.1,49.2,123.1,49.2z"/>
	<path class="st0" d="M121.7,44.3c0-0.1,0-0.2,0.1-0.2c0,0,0.1,0,0.1,0C121.8,44.2,121.8,44.2,121.7,44.3z"/>
	<path class="st0" d="M122.2,44.6c0-0.1,0.1-0.1,0.1-0.2C122.4,44.4,122.4,44.4,122.2,44.6C122.3,44.5,122.2,44.5,122.2,44.6
		L122.2,44.6z"/>
	<path class="st0" d="M122.2,50.4C122.1,50.4,122.1,50.3,122.2,50.4C122.1,50.3,122.1,50.3,122.2,50.4
		C122.2,50.3,122.2,50.4,122.2,50.4L122.2,50.4z"/>
	<path class="st0" d="M123.8,48.3C123.8,48.3,123.8,48.3,123.8,48.3C123.8,48.4,123.8,48.4,123.8,48.3
		C123.8,48.3,123.8,48.3,123.8,48.3z"/>
	<path class="st0" d="M119.9,43.5C119.9,43.5,119.9,43.5,119.9,43.5C119.9,43.5,119.9,43.5,119.9,43.5z"/>
	<path class="st0" d="M120.2,50.8C120.2,50.8,120.2,50.8,120.2,50.8C120.2,50.8,120.2,50.8,120.2,50.8
		C120.2,50.8,120.2,50.8,120.2,50.8C120.2,50.8,120.2,50.8,120.2,50.8z"/>
	<path class="st0" d="M119.7,43.8C119.7,43.8,119.7,43.9,119.7,43.8C119.7,43.9,119.7,43.9,119.7,43.8
		C119.7,43.9,119.7,43.9,119.7,43.8C119.7,43.8,119.7,43.8,119.7,43.8z"/>
	<path class="st0" d="M123.2,49.3C123.2,49.3,123.2,49.3,123.2,49.3C123.2,49.4,123.2,49.4,123.2,49.3
		C123.2,49.4,123.2,49.3,123.2,49.3C123.2,49.3,123.2,49.3,123.2,49.3z"/>
	<path class="st0" d="M123.2,49.5C123.2,49.5,123.3,49.5,123.2,49.5C123.2,49.5,123.2,49.5,123.2,49.5
		C123.2,49.5,123.2,49.5,123.2,49.5z"/>
	<path class="st0" d="M123.2,49.5C123.2,49.5,123.1,49.5,123.2,49.5C123.2,49.5,123.2,49.5,123.2,49.5
		C123.2,49.5,123.2,49.5,123.2,49.5z"/>
	<path class="st0" d="M123.8,48.3C123.8,48.3,123.8,48.3,123.8,48.3C123.8,48.3,123.8,48.3,123.8,48.3
		C123.8,48.3,123.8,48.3,123.8,48.3z"/>
	<path class="st0" d="M122.2,50.4C122.2,50.4,122.2,50.4,122.2,50.4C122.2,50.4,122.2,50.4,122.2,50.4
		C122.2,50.4,122.2,50.4,122.2,50.4C122.2,50.4,122.2,50.4,122.2,50.4z"/>
	<path class="st0" d="M119.2,50.6C119.2,50.6,119.2,50.6,119.2,50.6C119.2,50.6,119.2,50.6,119.2,50.6
		C119.2,50.6,119.2,50.6,119.2,50.6C119.2,50.6,119.2,50.6,119.2,50.6z"/>
	<path class="st0" d="M123,49.2C123,49.2,123,49.2,123,49.2C123,49.1,123.1,49.2,123,49.2C123.1,49.2,123,49.2,123,49.2z"/>
	<path class="st0" d="M122.9,49.4C122.9,49.4,122.9,49.4,122.9,49.4C122.9,49.3,122.9,49.3,122.9,49.4
		C122.9,49.3,122.9,49.3,122.9,49.4C122.9,49.4,122.9,49.4,122.9,49.4z"/>
	<path class="st0" d="M123.2,48.9C123.2,48.9,123.2,48.9,123.2,48.9C123.2,48.9,123.2,48.9,123.2,48.9L123.2,48.9z"/>
	<path class="st0" d="M122.5,49.7C122.5,49.7,122.5,49.7,122.5,49.7C122.5,49.7,122.5,49.7,122.5,49.7
		C122.5,49.7,122.5,49.7,122.5,49.7z"/>
	<path class="st0" d="M122.3,49.9C122.3,49.9,122.3,49.9,122.3,49.9C122.3,49.9,122.3,49.9,122.3,49.9
		C122.3,49.9,122.3,49.9,122.3,49.9C122.3,49.9,122.3,49.9,122.3,49.9z"/>
	<path class="st0" d="M122.1,50C122.1,50,122.1,50,122.1,50C122.1,50,122.1,50,122.1,50C122.1,50,122.1,50,122.1,50
		C122.1,50,122.1,50,122.1,50z"/>
	<path class="st0" d="M122.2,44.6C122.2,44.6,122.2,44.6,122.2,44.6C122.2,44.6,122.2,44.6,122.2,44.6
		C122.2,44.6,122.2,44.6,122.2,44.6z"/>
	<polygon class="st0" points="122,44.5 122,44.5 122,44.5 122,44.5 	"/>
	<polygon class="st0" points="122.8,45.1 122.8,45.1 122.8,45.1 	"/>
	<path class="st0" d="M122.6,44.9C122.6,44.9,122.6,44.9,122.6,44.9C122.6,44.9,122.6,44.9,122.6,44.9
		C122.6,44.9,122.6,44.9,122.6,44.9C122.6,44.9,122.6,44.9,122.6,44.9z"/>
	<path class="st14" d="M119.2,47.9c0,0.1,0,0.2,0,0.3c0,0,0,0,0,0c-0.1,0-0.1,0-0.2,0c0,0,0,0,0,0c0-0.1,0-0.3,0-0.4
		c0-0.2,0-0.4,0-0.6c0-0.1,0-0.1,0.1-0.1c0,0,0.1,0,0.1,0c0,0,0.1,0,0.1,0c0,0,0,0,0,0c0,0,0,0,0.1,0c0.2-0.1,0.4,0,0.5,0.2
		c0.1,0.1,0.1,0.3,0,0.4c0,0.1-0.1,0.1-0.2,0.2C119.4,47.9,119.3,47.9,119.2,47.9C119.2,47.9,119.2,47.8,119.2,47.9z M119.2,47.5
		c0,0,0,0.1,0,0.1c0,0,0,0,0,0c0.1,0,0.2,0,0.2-0.1c0,0,0-0.1,0-0.2c0,0,0-0.1,0-0.1c0,0-0.1-0.1-0.1-0.1
		C119.2,47.3,119.2,47.3,119.2,47.5C119.2,47.4,119.2,47.4,119.2,47.5z"/>
	<path class="st14" d="M122.4,47.1c0-0.1,0-0.2,0-0.3c0,0,0,0,0-0.1c0,0,0,0,0,0c0.1,0,0.1,0,0.2,0c0.1,0,0.1,0,0.1,0.1
		c0,0.1,0,0.2,0,0.4c0,0.2,0,0.4,0,0.6c0,0.1,0,0.1-0.1,0.1c0,0,0,0-0.1,0c0,0-0.1,0-0.1-0.1c0,0,0,0-0.1,0
		c-0.1,0.1-0.3,0.1-0.4-0.1c-0.1-0.2-0.1-0.4,0-0.6c0.1-0.1,0.2-0.2,0.3-0.1C122.3,47.1,122.3,47.1,122.4,47.1z M122.4,47.5
		C122.4,47.4,122.4,47.4,122.4,47.5c0-0.2,0-0.2-0.1-0.2c-0.1,0-0.1,0-0.1,0.1c0,0,0,0.1,0,0.1c0,0,0,0.1,0,0.1c0,0,0.1,0.1,0.1,0.1
		C122.4,47.7,122.4,47.6,122.4,47.5C122.4,47.5,122.4,47.5,122.4,47.5z"/>
	<path class="st14" d="M118.3,47.9c-0.1,0-0.3,0-0.4-0.1c0,0,0,0,0-0.1c0,0,0.1-0.1,0.1-0.1c0,0,0,0,0.1,0c0.1,0.1,0.2,0.1,0.3,0.1
		c0,0,0,0,0,0c0,0,0.1,0,0.1-0.1c0,0,0-0.1,0-0.1c-0.1,0-0.2-0.1-0.3-0.1c-0.1,0-0.1-0.1-0.1-0.1c-0.1-0.1-0.1-0.3,0.1-0.4
		c0.1-0.1,0.3-0.1,0.4-0.1c0.1,0,0.2,0.1,0.2,0.1c0,0,0,0,0,0.1c0,0,0,0,0,0c0,0,0,0.1-0.1,0.1c0,0-0.1,0-0.1,0c-0.1,0-0.1,0-0.2,0
		c0,0-0.1,0-0.1,0.1c0,0,0,0.1,0.1,0.1c0.1,0,0.1,0.1,0.2,0.1c0,0,0.1,0,0.1,0c0.2,0.1,0.2,0.4,0.1,0.5
		C118.6,47.9,118.5,47.9,118.3,47.9C118.4,47.9,118.3,47.9,118.3,47.9z"/>
	<path class="st14" d="M120.2,47.6c0,0.1,0.1,0.1,0.1,0.1c0.1,0,0.2,0,0.2,0c0,0,0,0,0.1,0c0,0,0,0,0,0.1c0,0.1,0,0.1,0,0.1
		c-0.1,0.1-0.3,0.1-0.4,0c-0.2-0.1-0.3-0.2-0.3-0.4c0-0.3,0.3-0.5,0.6-0.4c0.1,0,0.2,0.1,0.3,0.3c0,0,0,0.1,0,0.1
		c0,0.1,0,0.1-0.1,0.1C120.5,47.6,120.4,47.6,120.2,47.6C120.2,47.6,120.2,47.6,120.2,47.6z M120.2,47.4c0.1,0,0.2,0,0.3,0
		c0-0.1,0-0.1-0.1-0.1C120.2,47.3,120.2,47.3,120.2,47.4z"/>
	<path class="st14" d="M121.2,47.6c0,0.1,0,0.1,0.1,0.1c0.1,0,0.2,0,0.2,0c0.1,0,0.1,0,0.1,0c0,0,0,0,0,0c0,0.1,0.1,0.1,0,0.1
		c-0.1,0.1-0.3,0.1-0.4,0c-0.2-0.1-0.3-0.2-0.3-0.4c0-0.2,0.1-0.3,0.2-0.4c0.1,0,0.2-0.1,0.3,0c0.2,0,0.3,0.2,0.3,0.3
		c0,0,0,0.1,0,0.1c0,0.1,0,0.1-0.1,0.1C121.5,47.6,121.4,47.6,121.2,47.6C121.2,47.6,121.2,47.6,121.2,47.6z M121.2,47.4
		c0.1,0,0.2,0,0.2,0c0,0,0,0,0,0c0,0,0,0,0-0.1C121.3,47.2,121.2,47.3,121.2,47.4z"/>
</g>
</svg>
