<?xml version="1.0" encoding="utf-8"?>
<!-- Generator: Adobe Illustrator 26.0.0, SVG Export Plug-In . SVG Version: 6.00 Build 0)  -->
<svg version="1.1" id="Layer_1" xmlns="http://www.w3.org/2000/svg" xmlns:xlink="http://www.w3.org/1999/xlink" x="0px" y="0px"
	 viewBox="0 0 236.8 180.2" style="enable-background:new 0 0 236.8 180.2;" xml:space="preserve">
<style type="text/css">
	.st0{fill:#FFFFFF;}
	.st1{fill:url(#SVGID_1_);}
	.st2{fill:url(#SVGID_00000067208754985179624370000001190547440532879034_);}
	.st3{fill:url(#SVGID_00000160894804594721410360000016796354164731810480_);}
	.st4{fill:#0B1D51;}
	.st5{fill:#EDF3FC;}
	.st6{fill:#330D84;}
	.st7{fill:#5D8EF9;}
	.st8{fill:#D0D9DC;}
	.st9{fill:#3A67CC;}
	.st10{fill:#65D0F8;}
	.st11{opacity:0.7;}
	.st12{fill:#F7E752;}
	.st13{fill:#DBFF9B;}
	.st14{fill:#E91D63;}
</style>
<g>
	<g>
		<g>
			<path class="st0" d="M216.7,180.5H19.2c-2.8,0-5.3-1-7.3-2.6c-2.7-2.2-4.4-5.5-4.4-9.2V71.7c0-2.9,1-5.5,2.8-7.6
				c2.2-2.5,5.4-4.1,9-4.1h197.5c3.2,0,6.2,1.3,8.3,3.4c2.1,2.1,3.4,5.1,3.4,8.3v97.1c0,3.1-1.2,6-3.2,8.1
				C223.1,179.1,220.1,180.5,216.7,180.5z"/>
			<linearGradient id="SVGID_1_" gradientUnits="userSpaceOnUse" x1="7.536" y1="77.0052" x2="7.536" y2="163.4355">
				<stop  offset="0" style="stop-color:#EF1C71"/>
				<stop  offset="0.9906" style="stop-color:#AE0080"/>
			</linearGradient>
			<path class="st1" d="M12.6,163.4h-10c-0.5,0-1-0.2-1.3-0.5c-0.3-0.3-0.5-0.8-0.5-1.3V78.8c0-0.4,0.1-0.7,0.3-1
				C1.3,77.3,1.9,77,2.5,77h10c0.5,0,1,0.2,1.3,0.5c0.3,0.3,0.5,0.8,0.5,1.3v82.8c0,0.5-0.2,1-0.5,1.3
				C13.5,163.2,13.1,163.4,12.6,163.4z"/>
			
				<linearGradient id="SVGID_00000094610592171588797290000003999356721929395378_" gradientUnits="userSpaceOnUse" x1="228.4577" y1="77.0052" x2="228.4577" y2="163.4355">
				<stop  offset="0" style="stop-color:#EF1C71"/>
				<stop  offset="0.9906" style="stop-color:#AE0080"/>
			</linearGradient>
			<path style="fill:url(#SVGID_00000094610592171588797290000003999356721929395378_);" d="M233.5,163.4h-10c-0.4,0-0.7-0.1-1-0.3
				c-0.5-0.3-0.8-0.9-0.8-1.5V78.8c0-0.4,0.1-0.8,0.4-1.1c0.3-0.4,0.9-0.7,1.4-0.7h10c0.7,0,1.3,0.4,1.6,1c0.1,0.3,0.2,0.5,0.2,0.9
				v82.8c0,0.6-0.3,1.1-0.8,1.5C234.2,163.3,233.9,163.4,233.5,163.4z"/>
			<circle class="st0" cx="118" cy="50.2" r="45.7"/>
			
				<linearGradient id="SVGID_00000124135662020424111400000004754082909536172708_" gradientUnits="userSpaceOnUse" x1="117.9691" y1="12.3386" x2="117.9691" y2="87.9933">
				<stop  offset="0" style="stop-color:#EF1C71"/>
				<stop  offset="0.9906" style="stop-color:#AE0080"/>
			</linearGradient>
			<circle style="fill:url(#SVGID_00000124135662020424111400000004754082909536172708_);" cx="118" cy="50.2" r="37.8"/>
		</g>
		<g>
			<path class="st4" d="M72.3,102.1l-3.2-9.8H72l2.7,8.5h-1.4l2.8-8.5h2.5l2.7,8.5h-1.4l2.8-8.5h2.6l-3.2,9.8h-3l-2.3-7.2h0.8
				l-2.4,7.2H72.3z"/>
			<path class="st4" d="M89.6,102.2c-0.9,0-1.7-0.2-2.3-0.5c-0.7-0.3-1.2-0.8-1.6-1.4c-0.4-0.6-0.6-1.3-0.6-2s0.2-1.4,0.5-2
				c0.4-0.6,0.9-1.1,1.5-1.4c0.6-0.3,1.3-0.5,2.1-0.5c0.7,0,1.4,0.2,2,0.5c0.6,0.3,1.1,0.8,1.5,1.3c0.4,0.6,0.5,1.3,0.5,2.1
				c0,0.1,0,0.2,0,0.3c0,0.1,0,0.2,0,0.3h-6v-1.4h4.6l-1,0.4c0-0.3-0.1-0.6-0.2-0.9s-0.3-0.4-0.6-0.6s-0.5-0.2-0.8-0.2
				s-0.6,0.1-0.8,0.2c-0.2,0.1-0.4,0.3-0.6,0.6c-0.1,0.3-0.2,0.6-0.2,0.9v0.4c0,0.4,0.1,0.7,0.2,1c0.2,0.3,0.4,0.5,0.7,0.6
				c0.3,0.1,0.6,0.2,1,0.2c0.4,0,0.7-0.1,1-0.2s0.5-0.3,0.8-0.5l1.4,1.5c-0.4,0.4-0.8,0.7-1.3,0.9C90.9,102.1,90.3,102.2,89.6,102.2
				z"/>
			<path class="st4" d="M94.6,102.1V91.7h2.7v4.1l-0.1,2.5l0,2.5v1.3H94.6z M99.4,102.2c-0.7,0-1.2-0.1-1.7-0.4
				c-0.5-0.3-0.8-0.7-1-1.3c-0.2-0.6-0.3-1.3-0.3-2.2c0-0.9,0.1-1.6,0.4-2.2c0.2-0.6,0.6-1,1-1.3c0.5-0.3,1-0.4,1.7-0.4
				c0.7,0,1.3,0.2,1.9,0.5c0.6,0.3,1,0.8,1.3,1.4c0.3,0.6,0.5,1.3,0.5,2.1c0,0.8-0.2,1.5-0.5,2.1c-0.3,0.6-0.8,1-1.3,1.4
				C100.7,102,100.1,102.2,99.4,102.2z M98.8,100.1c0.3,0,0.6-0.1,0.8-0.2c0.2-0.1,0.4-0.3,0.6-0.6c0.1-0.3,0.2-0.6,0.2-1
				s-0.1-0.7-0.2-1c-0.1-0.3-0.3-0.5-0.6-0.6c-0.2-0.1-0.5-0.2-0.8-0.2s-0.6,0.1-0.8,0.2c-0.2,0.1-0.4,0.3-0.6,0.6
				c-0.1,0.3-0.2,0.6-0.2,1s0.1,0.7,0.2,1c0.1,0.3,0.3,0.5,0.6,0.6C98.2,100,98.5,100.1,98.8,100.1z"/>
			<path class="st4" d="M106.9,102.3c-0.7,0-1.4-0.1-2-0.3s-1.3-0.4-1.8-0.7l1-2.1c0.4,0.3,0.8,0.5,1.3,0.6c0.5,0.1,0.9,0.2,1.4,0.2
				c0.5,0,0.9-0.1,1.1-0.3c0.3-0.2,0.4-0.4,0.4-0.8c0-0.3-0.1-0.5-0.4-0.7c-0.2-0.2-0.6-0.3-1.1-0.3h-1.2v-1.8l2.6-2.8l0.3,1h-5
				v-2.1h7.1V94l-2.6,2.8l-1.4-0.8h0.8c1.2,0,2.1,0.3,2.8,0.8c0.6,0.5,0.9,1.2,0.9,2.1c0,0.6-0.2,1.1-0.5,1.6s-0.8,0.9-1.4,1.2
				C108.7,102.1,107.9,102.3,106.9,102.3z"/>
			<path class="st4" d="M116.7,102.1v-9.8h4.5c0.9,0,1.7,0.1,2.3,0.4c0.6,0.3,1.2,0.7,1.5,1.3c0.4,0.5,0.5,1.2,0.5,1.9
				c0,0.7-0.2,1.4-0.5,1.9c-0.4,0.5-0.9,1-1.5,1.3c-0.6,0.3-1.4,0.4-2.3,0.4h-2.9l1.2-1.2v3.8H116.7z M119.4,98.6l-1.2-1.3h2.8
				c0.6,0,1-0.1,1.3-0.4s0.4-0.6,0.4-1c0-0.5-0.1-0.8-0.4-1.1s-0.7-0.4-1.3-0.4h-2.8l1.2-1.3V98.6z"/>
			<path class="st4" d="M126.4,102.1v-1.7l3.7-3.4c0.3-0.2,0.5-0.5,0.6-0.6c0.1-0.2,0.2-0.4,0.3-0.5c0-0.2,0.1-0.3,0.1-0.4
				c0-0.3-0.1-0.6-0.3-0.7s-0.5-0.3-0.9-0.3c-0.4,0-0.7,0.1-1,0.2s-0.6,0.4-0.8,0.7l-2.1-1.1c0.4-0.6,0.9-1.1,1.6-1.5
				c0.7-0.4,1.5-0.6,2.5-0.6c0.8,0,1.4,0.1,2,0.4c0.6,0.2,1,0.6,1.3,1c0.3,0.4,0.5,1,0.5,1.6c0,0.3,0,0.6-0.1,0.9
				c-0.1,0.3-0.2,0.6-0.5,1c-0.2,0.4-0.6,0.7-1.1,1.2l-2.9,2.7l-0.5-1h5.3v2.2H126.4z"/>
			<path class="st4" d="M138,99.9h5.1v2.1h-7.9v-9.8h7.7v2.1H138V99.9z M137.8,96.1h4.6v2.1h-4.6V96.1z"/>
			<path class="st4" d="M151.8,102.1l-4.2-9.8h3l3.5,8.5h-1.8l3.6-8.5h2.7l-4.2,9.8H151.8z"/>
			<path class="st4" d="M159.3,102.1v-9.8h4.5c0.9,0,1.7,0.1,2.3,0.4c0.6,0.3,1.2,0.7,1.5,1.3c0.4,0.5,0.5,1.2,0.5,1.9
				c0,0.7-0.2,1.4-0.5,1.9c-0.4,0.5-0.9,0.9-1.5,1.2c-0.6,0.3-1.4,0.4-2.3,0.4h-2.9l1.2-1.2v3.8H159.3z M162.1,98.6l-1.2-1.3h2.8
				c0.6,0,1-0.1,1.3-0.4s0.4-0.6,0.4-1c0-0.5-0.1-0.8-0.4-1.1s-0.7-0.4-1.3-0.4h-2.8l1.2-1.3V98.6z M165.4,102.1l-2.4-3.6h3l2.4,3.6
				H165.4z"/>
			<path class="st4" d="M63,115.3c-0.8,0-1.5-0.1-2.1-0.4c-0.7-0.2-1.2-0.6-1.7-1.1c-0.5-0.5-0.9-1-1.1-1.6
				c-0.3-0.6-0.4-1.3-0.4-2.1s0.1-1.4,0.4-2.1c0.3-0.6,0.6-1.2,1.1-1.6c0.5-0.5,1.1-0.8,1.7-1.1c0.7-0.2,1.4-0.4,2.1-0.4
				c0.9,0,1.7,0.2,2.4,0.5s1.3,0.8,1.8,1.4l-1.8,1.6c-0.3-0.4-0.7-0.7-1-0.9c-0.4-0.2-0.8-0.3-1.3-0.3c-0.4,0-0.8,0.1-1.1,0.2
				s-0.6,0.3-0.9,0.6c-0.2,0.2-0.4,0.5-0.6,0.9c-0.1,0.3-0.2,0.7-0.2,1.1s0.1,0.8,0.2,1.1c0.1,0.3,0.3,0.6,0.6,0.9
				c0.2,0.2,0.5,0.4,0.9,0.6s0.7,0.2,1.1,0.2c0.5,0,0.9-0.1,1.3-0.3s0.7-0.5,1-0.9l1.8,1.6c-0.5,0.6-1.1,1-1.8,1.4
				S63.9,115.3,63,115.3z"/>
			<path class="st4" d="M70.6,115.2c-0.6,0-1.1-0.1-1.5-0.3s-0.7-0.5-1-0.8s-0.3-0.8-0.3-1.2c0-0.5,0.1-0.9,0.4-1.2
				c0.2-0.3,0.6-0.6,1.1-0.8c0.5-0.2,1.1-0.3,1.9-0.3H73v1.4h-1.4c-0.4,0-0.7,0.1-0.9,0.2c-0.2,0.1-0.3,0.3-0.3,0.6
				c0,0.2,0.1,0.4,0.3,0.6c0.2,0.1,0.4,0.2,0.7,0.2c0.3,0,0.6-0.1,0.8-0.2c0.2-0.1,0.4-0.4,0.5-0.7l0.4,1c-0.1,0.5-0.4,0.9-0.8,1.2
				C71.8,115.1,71.3,115.2,70.6,115.2z M72.9,115.1v-1.4l-0.2-0.4v-2.6c0-0.4-0.1-0.7-0.4-1s-0.7-0.3-1.2-0.3
				c-0.4,0-0.7,0.1-1.1,0.2c-0.4,0.1-0.7,0.3-1,0.5l-0.9-1.8c0.4-0.3,0.9-0.5,1.5-0.7c0.6-0.2,1.2-0.2,1.8-0.2
				c1.2,0,2.2,0.3,2.9,0.8c0.7,0.6,1,1.4,1,2.7v4.2H72.9z"/>
			<path class="st4" d="M77,115.1v-7.6h2.5v2.2l-0.4-0.6c0.2-0.6,0.6-1,1.1-1.3s1.1-0.4,1.8-0.4v2.4c-0.1,0-0.2,0-0.3,0
				c-0.1,0-0.2,0-0.3,0c-0.5,0-1,0.1-1.3,0.4c-0.3,0.3-0.5,0.8-0.5,1.4v3.5H77z"/>
			<path class="st4" d="M87.4,115.1v-9.8h4.5c0.9,0,1.7,0.1,2.3,0.4c0.6,0.3,1.2,0.7,1.5,1.3c0.4,0.5,0.5,1.2,0.5,1.9
				c0,0.7-0.2,1.4-0.5,1.9c-0.4,0.5-0.9,0.9-1.5,1.2c-0.6,0.3-1.4,0.4-2.3,0.4H89l1.2-1.2v3.8H87.4z M90.2,111.6l-1.2-1.3h2.8
				c0.6,0,1-0.1,1.3-0.4s0.4-0.6,0.4-1c0-0.5-0.1-0.8-0.4-1.1s-0.7-0.4-1.3-0.4H89l1.2-1.3V111.6z M93.5,115.1l-2.4-3.6h3l2.4,3.6
				H93.5z"/>
			<path class="st4" d="M100,115.2c-0.6,0-1.1-0.1-1.5-0.3s-0.7-0.5-1-0.8s-0.3-0.8-0.3-1.2c0-0.5,0.1-0.9,0.4-1.2
				c0.2-0.3,0.6-0.6,1.1-0.8c0.5-0.2,1.1-0.3,1.9-0.3h1.8v1.4h-1.4c-0.4,0-0.7,0.1-0.9,0.2c-0.2,0.1-0.3,0.3-0.3,0.6
				c0,0.2,0.1,0.4,0.3,0.6c0.2,0.1,0.4,0.2,0.7,0.2c0.3,0,0.6-0.1,0.8-0.2c0.2-0.1,0.4-0.4,0.5-0.7l0.4,1c-0.1,0.5-0.4,0.9-0.8,1.2
				C101.2,115.1,100.7,115.2,100,115.2z M102.2,115.1v-1.4l-0.2-0.4v-2.6c0-0.4-0.1-0.7-0.4-1s-0.7-0.3-1.2-0.3
				c-0.4,0-0.7,0.1-1.1,0.2c-0.4,0.1-0.7,0.3-1,0.5l-0.9-1.8c0.4-0.3,0.9-0.5,1.5-0.7c0.6-0.2,1.2-0.2,1.8-0.2
				c1.2,0,2.2,0.3,2.9,0.8c0.7,0.6,1,1.4,1,2.7v4.2H102.2z"/>
			<path class="st4" d="M110.4,115.2c-0.8,0-1.6-0.2-2.2-0.5c-0.7-0.3-1.2-0.8-1.5-1.4c-0.4-0.6-0.6-1.3-0.6-2s0.2-1.4,0.6-2
				c0.4-0.6,0.9-1,1.5-1.4c0.7-0.3,1.4-0.5,2.2-0.5c0.9,0,1.6,0.2,2.2,0.5c0.6,0.4,1.1,0.9,1.3,1.5l-2.1,1.1
				c-0.2-0.4-0.4-0.6-0.7-0.8c-0.3-0.2-0.5-0.2-0.9-0.2c-0.3,0-0.6,0.1-0.8,0.2c-0.3,0.1-0.5,0.3-0.6,0.6c-0.1,0.3-0.2,0.6-0.2,1
				c0,0.4,0.1,0.7,0.2,1c0.1,0.3,0.3,0.5,0.6,0.6c0.3,0.1,0.5,0.2,0.8,0.2c0.3,0,0.6-0.1,0.9-0.2s0.5-0.4,0.7-0.8l2.1,1
				c-0.3,0.7-0.7,1.2-1.3,1.5C112,115,111.2,115.2,110.4,115.2z"/>
			<path class="st4" d="M116.2,106.6c-0.5,0-0.9-0.1-1.2-0.4c-0.3-0.3-0.4-0.6-0.4-1c0-0.4,0.1-0.7,0.4-1s0.7-0.4,1.2-0.4
				c0.5,0,0.9,0.1,1.2,0.4c0.3,0.3,0.4,0.6,0.4,1c0,0.4-0.1,0.8-0.4,1S116.7,106.6,116.2,106.6z M114.9,115.1v-7.6h2.7v7.6H114.9z"
				/>
			<path class="st4" d="M124.2,107.4c0.6,0,1.1,0.1,1.6,0.4s0.9,0.6,1.1,1.1c0.3,0.5,0.4,1.1,0.4,1.9v4.3h-2.7v-3.9
				c0-0.5-0.1-0.9-0.3-1.2c-0.2-0.2-0.5-0.4-0.9-0.4c-0.3,0-0.5,0.1-0.8,0.2s-0.4,0.3-0.5,0.6s-0.2,0.6-0.2,1v3.7h-2.7v-7.6h2.5v2.2
				l-0.5-0.6c0.3-0.6,0.7-1,1.2-1.2S123.6,107.4,124.2,107.4z"/>
			<path class="st4" d="M132.4,114.7c-0.7,0-1.3-0.2-1.9-0.5c-0.6-0.3-1-0.7-1.4-1.3c-0.3-0.5-0.5-1.2-0.5-1.9
				c0-0.7,0.2-1.4,0.5-1.9c0.3-0.5,0.8-1,1.4-1.3c0.6-0.3,1.2-0.4,1.9-0.4c0.6,0,1.2,0.1,1.7,0.4c0.5,0.3,0.8,0.7,1,1.2
				c0.2,0.5,0.4,1.2,0.4,2.1s-0.1,1.5-0.4,2.1c-0.2,0.5-0.6,0.9-1,1.2C133.6,114.6,133,114.7,132.4,114.7z M132.8,117.9
				c-0.7,0-1.4-0.1-2.1-0.3c-0.7-0.2-1.2-0.4-1.7-0.7l1-1.9c0.3,0.3,0.7,0.5,1.2,0.6s0.9,0.2,1.4,0.2c0.7,0,1.2-0.2,1.6-0.5
				s0.5-0.8,0.5-1.4v-0.9l0.1-2.1l0-2.1v-1.4h2.5v6.2c0,1.4-0.4,2.5-1.2,3.2C135.4,117.6,134.3,117.9,132.8,117.9z M133,112.6
				c0.3,0,0.6-0.1,0.8-0.2c0.2-0.1,0.4-0.3,0.6-0.5c0.1-0.2,0.2-0.5,0.2-0.8s-0.1-0.6-0.2-0.8c-0.1-0.2-0.3-0.4-0.6-0.5
				c-0.2-0.1-0.5-0.2-0.8-0.2s-0.6,0.1-0.9,0.2c-0.3,0.1-0.5,0.3-0.6,0.5c-0.1,0.2-0.2,0.5-0.2,0.8s0.1,0.6,0.2,0.8
				c0.1,0.2,0.3,0.4,0.6,0.5C132.4,112.5,132.7,112.6,133,112.6z"/>
			<path class="st4" d="M146.3,114.7c-0.7,0-1.3-0.2-1.9-0.5c-0.6-0.3-1-0.7-1.4-1.3c-0.3-0.5-0.5-1.2-0.5-1.9
				c0-0.7,0.2-1.4,0.5-1.9c0.3-0.5,0.8-1,1.4-1.3c0.6-0.3,1.2-0.4,1.9-0.4c0.6,0,1.2,0.1,1.7,0.4c0.5,0.3,0.8,0.7,1,1.2
				c0.2,0.5,0.4,1.2,0.4,2.1s-0.1,1.5-0.4,2.1c-0.2,0.5-0.6,0.9-1,1.2C147.5,114.6,147,114.7,146.3,114.7z M146.8,117.9
				c-0.7,0-1.4-0.1-2.1-0.3c-0.7-0.2-1.2-0.4-1.7-0.7l1-1.9c0.3,0.3,0.7,0.5,1.2,0.6s0.9,0.2,1.4,0.2c0.7,0,1.2-0.2,1.6-0.5
				s0.5-0.8,0.5-1.4v-0.9l0.1-2.1l0-2.1v-1.4h2.5v6.2c0,1.4-0.4,2.5-1.2,3.2C149.3,117.6,148.2,117.9,146.8,117.9z M147,112.6
				c0.3,0,0.6-0.1,0.8-0.2c0.2-0.1,0.4-0.3,0.6-0.5c0.1-0.2,0.2-0.5,0.2-0.8s-0.1-0.6-0.2-0.8c-0.1-0.2-0.3-0.4-0.6-0.5
				c-0.2-0.1-0.5-0.2-0.8-0.2s-0.6,0.1-0.9,0.2c-0.3,0.1-0.5,0.3-0.6,0.5c-0.1,0.2-0.2,0.5-0.2,0.8s0.1,0.6,0.2,0.8
				c0.1,0.2,0.3,0.4,0.6,0.5C146.4,112.5,146.6,112.6,147,112.6z"/>
			<path class="st4" d="M155.3,115.2c-0.6,0-1.1-0.1-1.5-0.3s-0.7-0.5-1-0.8s-0.3-0.8-0.3-1.2c0-0.5,0.1-0.9,0.4-1.2
				c0.2-0.3,0.6-0.6,1.1-0.8c0.5-0.2,1.1-0.3,1.9-0.3h1.8v1.4h-1.4c-0.4,0-0.7,0.1-0.9,0.2c-0.2,0.1-0.3,0.3-0.3,0.6
				c0,0.2,0.1,0.4,0.3,0.6c0.2,0.1,0.4,0.2,0.7,0.2c0.3,0,0.6-0.1,0.8-0.2c0.2-0.1,0.4-0.4,0.5-0.7l0.4,1c-0.1,0.5-0.4,0.9-0.8,1.2
				C156.5,115.1,156,115.2,155.3,115.2z M157.6,115.1v-1.4l-0.2-0.4v-2.6c0-0.4-0.1-0.7-0.4-1s-0.7-0.3-1.2-0.3
				c-0.4,0-0.7,0.1-1.1,0.2c-0.4,0.1-0.7,0.3-1,0.5l-0.9-1.8c0.4-0.3,0.9-0.5,1.5-0.7c0.6-0.2,1.2-0.2,1.8-0.2
				c1.2,0,2.2,0.3,2.9,0.8c0.7,0.6,1,1.4,1,2.7v4.2H157.6z"/>
			<path class="st4" d="M171.6,107.4c0.6,0,1.1,0.1,1.6,0.4s0.8,0.6,1.1,1.1c0.3,0.5,0.4,1.1,0.4,1.9v4.3H172v-3.9
				c0-0.5-0.1-0.9-0.3-1.2c-0.2-0.2-0.5-0.4-0.8-0.4c-0.3,0-0.5,0.1-0.7,0.2c-0.2,0.1-0.4,0.3-0.5,0.6s-0.2,0.6-0.2,1v3.8h-2.7v-3.9
				c0-0.5-0.1-0.9-0.3-1.2c-0.2-0.2-0.5-0.4-0.8-0.4c-0.3,0-0.5,0.1-0.7,0.2c-0.2,0.1-0.4,0.3-0.5,0.6s-0.2,0.6-0.2,1v3.8h-2.7v-7.6
				h2.5v2.1l-0.5-0.6c0.3-0.5,0.7-0.9,1.1-1.2c0.5-0.3,1-0.4,1.6-0.4c0.7,0,1.3,0.2,1.8,0.5s0.9,0.9,1,1.6l-0.9-0.2
				c0.3-0.6,0.7-1.1,1.2-1.4S170.9,107.4,171.6,107.4z"/>
			<path class="st4" d="M180.4,115.2c-0.9,0-1.7-0.2-2.3-0.5c-0.7-0.3-1.2-0.8-1.6-1.4c-0.4-0.6-0.6-1.3-0.6-2s0.2-1.4,0.5-2
				c0.4-0.6,0.9-1.1,1.5-1.4c0.6-0.3,1.3-0.5,2.1-0.5c0.7,0,1.4,0.2,2,0.5c0.6,0.3,1.1,0.8,1.5,1.3c0.4,0.6,0.5,1.3,0.5,2.1
				c0,0.1,0,0.2,0,0.3c0,0.1,0,0.2,0,0.3h-6v-1.4h4.6l-1,0.4c0-0.3-0.1-0.6-0.2-0.9s-0.3-0.4-0.6-0.6s-0.5-0.2-0.8-0.2
				s-0.6,0.1-0.8,0.2c-0.2,0.1-0.4,0.3-0.6,0.6c-0.1,0.3-0.2,0.6-0.2,0.9v0.4c0,0.4,0.1,0.7,0.2,1c0.2,0.3,0.4,0.5,0.7,0.6
				c0.3,0.1,0.6,0.2,1,0.2c0.4,0,0.7-0.1,1-0.2s0.5-0.3,0.8-0.5l1.4,1.5c-0.4,0.4-0.8,0.7-1.3,0.9
				C181.8,115.1,181.2,115.2,180.4,115.2z"/>
		</g>
	</g>
</g>
<g>
	<path d="M27.9,128.8h-3l-0.5,1.4H22l3.3-8.4h2.3l3.4,8.4h-2.5L27.9,128.8z M26.4,124.4l-0.9,2.6h1.8L26.4,124.4z"/>
	<path d="M41.1,126.9c0,2-1.4,3.5-3.4,3.5c-0.6,0-1.1-0.2-1.6-0.4v2.5h-2.2v-8.8h1.5l0.3,0.5c0.5-0.5,1.2-0.7,2-0.7
		C39.7,123.5,41.1,124.9,41.1,126.9z M38.9,126.9c0-0.9-0.6-1.5-1.4-1.5s-1.4,0.6-1.4,1.5c0,0.9,0.6,1.5,1.4,1.5
		C38.2,128.4,38.9,127.8,38.9,126.9z"/>
	<path d="M42.1,121.4h2.2v8.8h-2.2V121.4z"/>
	<path d="M52.7,123.7v6.5h-1.7l-0.2-0.5c-0.5,0.4-1.2,0.7-2,0.7c-2,0-3.4-1.4-3.4-3.5c0-2,1.4-3.4,3.4-3.4c0.8,0,1.4,0.3,2,0.7
		l0.2-0.5H52.7z M50.5,126.9c0-0.8-0.6-1.5-1.4-1.5c-0.8,0-1.4,0.6-1.4,1.5c0,0.8,0.6,1.5,1.4,1.5S50.5,127.8,50.5,126.9z"/>
	<path d="M60.8,123.7l-2.7,6.2c-0.9,2-1.7,2.7-3.3,2.7H54v-1.9h0.6c0.9,0,1.1-0.2,1.4-1l-2.7-5.9h2.4l1.4,3.6l1.3-3.6H60.8z"/>
	<path d="M68,128.2v2h-1.5c-1.4,0-2.3-0.9-2.3-2.3v-2.4H63v-0.5l2.9-3.1h0.5v1.9H68v1.7h-1.6v2.1c0,0.5,0.3,0.7,0.8,0.7H68z"/>
	<path d="M68.6,126.9c0-2,1.5-3.5,3.6-3.5c2.1,0,3.6,1.4,3.6,3.5c0,2-1.5,3.5-3.6,3.5C70.1,130.4,68.6,128.9,68.6,126.9z
		 M73.6,126.9c0-0.9-0.6-1.4-1.4-1.4s-1.4,0.6-1.4,1.4s0.6,1.4,1.4,1.4S73.6,127.8,73.6,126.9z"/>
	<path d="M86.1,127.5h-4.8c0.1,0.7,0.6,1.1,1.3,1.1c0.5,0,1-0.2,1.2-0.6H86c-0.5,1.5-1.8,2.4-3.4,2.4c-2,0-3.5-1.5-3.5-3.5
		c0-2,1.5-3.4,3.5-3.4c2.1,0,3.5,1.5,3.5,3.4C86.2,127.1,86.2,127.3,86.1,127.5z M81.4,126.2H84c-0.2-0.6-0.7-1-1.3-1
		C82,125.2,81.5,125.6,81.4,126.2z"/>
	<path d="M94.1,123.7v6.5h-1.7l-0.2-0.5c-0.5,0.4-1.2,0.7-2,0.7c-2,0-3.4-1.4-3.4-3.5c0-2,1.4-3.4,3.4-3.4c0.8,0,1.4,0.3,2,0.7
		l0.2-0.5H94.1z M92,126.9c0-0.8-0.6-1.5-1.4-1.5c-0.8,0-1.4,0.6-1.4,1.5c0,0.8,0.6,1.5,1.4,1.5S92,127.8,92,126.9z"/>
	<path d="M99.7,123.7v2h-0.9c-0.8,0-1.1,0.3-1.1,1.2v3.3h-2.2v-6.5H97l0.3,0.7c0.5-0.5,1-0.8,1.8-0.8H99.7z"/>
	<path d="M107,126.2v3.9h-2.2v-3.6c0-0.8-0.3-1.1-0.8-1.1c-0.7,0-1.1,0.5-1.1,1.3v3.5h-2.2v-6.5h1.6l0.3,0.7c0.5-0.5,1.2-0.9,2-0.9
		C106,123.5,107,124.6,107,126.2z"/>
	<path d="M110.5,126.9c0-2,1.5-3.4,3.6-3.4c1.8,0,3.2,1.1,3.4,2.9h-2.2c-0.2-0.5-0.7-0.9-1.3-0.9c-0.8,0-1.3,0.6-1.3,1.4
		s0.6,1.5,1.3,1.5c0.6,0,1.1-0.4,1.3-0.9h2.2c-0.3,1.8-1.6,2.9-3.5,2.9C112,130.4,110.5,128.9,110.5,126.9z"/>
	<path d="M125.4,123.7v6.5h-1.7l-0.2-0.5c-0.5,0.4-1.2,0.7-2,0.7c-2,0-3.4-1.4-3.4-3.5c0-2,1.4-3.4,3.4-3.4c0.8,0,1.4,0.3,2,0.7
		l0.2-0.5H125.4z M123.3,126.9c0-0.8-0.6-1.5-1.4-1.5c-0.8,0-1.4,0.6-1.4,1.5c0,0.8,0.6,1.5,1.4,1.5S123.3,127.8,123.3,126.9z"/>
	<path d="M131.1,123.7v2h-0.9c-0.8,0-1.1,0.3-1.1,1.2v3.3h-2.2v-6.5h1.5l0.3,0.7c0.5-0.5,1-0.8,1.8-0.8H131.1z"/>
	<path d="M138.4,123.7v2h-0.9c-0.8,0-1.1,0.3-1.1,1.2v3.3h-2.2v-6.5h1.5l0.3,0.7c0.5-0.5,1-0.8,1.8-0.8H138.4z"/>
	<path d="M146.1,123.7v6.5h-1.7l-0.2-0.5c-0.5,0.4-1.2,0.7-2,0.7c-2,0-3.4-1.4-3.4-3.5c0-2,1.4-3.4,3.4-3.4c0.8,0,1.4,0.3,2,0.7
		l0.2-0.5H146.1z M144,126.9c0-0.8-0.6-1.5-1.4-1.5c-0.8,0-1.4,0.6-1.4,1.5c0,0.8,0.6,1.5,1.4,1.5S144,127.8,144,126.9z"/>
	<path d="M150.7,130.4c-2.1,0-3.6-1.5-3.6-3.5s1.5-3.4,3.6-3.4c1.8,0,3.2,1.1,3.4,2.9H152c-0.2-0.5-0.7-0.9-1.3-0.9
		c-0.8,0-1.3,0.6-1.3,1.4s0.6,1.5,1.3,1.5c0.6,0,1.1-0.4,1.3-0.9h2.2C153.9,129.2,152.5,130.4,150.7,130.4L150.7,130.4z"/>
	<path d="M155.1,123.7h2.2v6.5h-2.2V123.7z M155.1,121h2.2v1.9h-2.2V121z"/>
	<path d="M165.2,126.2v3.9h-2.2v-3.6c0-0.8-0.3-1.1-0.8-1.1c-0.7,0-1.1,0.5-1.1,1.3v3.5h-2.2v-6.5h1.6l0.3,0.7
		c0.5-0.5,1.2-0.9,2-0.9C164.2,123.5,165.2,124.6,165.2,126.2z"/>
	<path d="M173.2,123.7v5.8c0,2-1.3,3.3-3.5,3.3c-1.8,0-3.1-0.9-3.4-2.5h2.2c0.2,0.4,0.7,0.7,1.2,0.7c0.7,0,1.3-0.5,1.3-1.2v-0.2
		c-0.5,0.3-1.1,0.5-1.7,0.5c-1.9,0-3.2-1.4-3.2-3.3c0-1.8,1.4-3.3,3.2-3.3c0.8,0,1.5,0.3,2,0.8l0.3-0.5H173.2z M169.7,128.2
		c0.8,0,1.4-0.6,1.4-1.4c0-0.8-0.6-1.4-1.4-1.4c-0.8,0-1.4,0.6-1.4,1.4C168.3,127.6,168.9,128.2,169.7,128.2L169.7,128.2z"/>
	<path d="M183.9,123.7v5.8c0,2-1.3,3.3-3.5,3.3c-1.8,0-3.1-0.9-3.4-2.5h2.2c0.2,0.4,0.7,0.7,1.2,0.7c0.7,0,1.3-0.5,1.3-1.2v-0.2
		c-0.5,0.3-1.1,0.5-1.7,0.5c-1.9,0-3.2-1.4-3.2-3.3c0-1.8,1.4-3.3,3.2-3.3c0.8,0,1.5,0.3,2,0.8l0.3-0.5H183.9z M180.4,128.2
		c0.8,0,1.4-0.6,1.4-1.4c0-0.8-0.6-1.4-1.4-1.4c-0.8,0-1.4,0.6-1.4,1.4C179.1,127.6,179.6,128.2,180.4,128.2L180.4,128.2z"/>
	<path d="M192.2,123.7v6.5h-1.7l-0.2-0.5c-0.5,0.4-1.2,0.7-2,0.7c-2,0-3.4-1.4-3.4-3.5c0-2,1.4-3.4,3.4-3.4c0.8,0,1.4,0.3,2,0.7
		l0.2-0.5H192.2z M190.1,126.9c0-0.8-0.6-1.5-1.4-1.5c-0.8,0-1.4,0.6-1.4,1.5c0,0.8,0.6,1.5,1.4,1.5S190.1,127.8,190.1,126.9z"/>
	<path d="M203.6,126.1v4.1h-2.2v-3.8c0-0.7-0.2-1-0.7-1c-0.6,0-0.9,0.4-0.9,1.2v3.6h-2.2v-3.8c0-0.7-0.2-1-0.7-1
		c-0.6,0-0.9,0.4-0.9,1.2v3.6h-2.2v-6.5h1.6l0.3,0.7c0.5-0.5,1.1-0.9,1.9-0.9c0.8,0,1.5,0.4,1.9,1c0.5-0.6,1.2-1,2-1
		C202.6,123.5,203.6,124.6,203.6,126.1z"/>
	<path d="M211.5,127.5h-4.8c0.1,0.7,0.6,1.1,1.3,1.1c0.5,0,1-0.2,1.2-0.6h2.2c-0.5,1.5-1.8,2.4-3.4,2.4c-2,0-3.5-1.5-3.5-3.5
		c0-2,1.5-3.4,3.5-3.4c2.1,0,3.5,1.5,3.5,3.4C211.6,127.1,211.5,127.3,211.5,127.5z M206.8,126.2h2.6c-0.2-0.6-0.7-1-1.3-1
		C207.4,125.2,206.9,125.6,206.8,126.2z"/>
	<path d="M52.7,141.2v2h-1.5c-1.4,0-2.3-0.9-2.3-2.3v-2.4h-1.2v-0.5l2.9-3.1H51v1.9h1.6v1.7h-1.6v2.1c0,0.5,0.3,0.7,0.8,0.7H52.7z"
		/>
	<path d="M53.3,139.9c0-2,1.5-3.5,3.6-3.5c2.1,0,3.6,1.4,3.6,3.5c0,2-1.5,3.5-3.6,3.5C54.8,143.4,53.3,141.9,53.3,139.9z
		 M58.3,139.9c0-0.9-0.6-1.4-1.4-1.4s-1.4,0.6-1.4,1.4s0.6,1.4,1.4,1.4S58.3,140.8,58.3,139.9z"/>
	<path d="M71.4,139.9c0,2-1.4,3.4-3.4,3.4c-0.8,0-1.4-0.3-2-0.7l-0.2,0.5h-1.7v-8.8h2.2v2.6c0.5-0.3,1-0.4,1.6-0.4
		C70,136.5,71.4,137.9,71.4,139.9z M69.2,139.9c0-0.8-0.6-1.5-1.4-1.5c-0.8,0-1.4,0.6-1.4,1.5c0,0.8,0.6,1.5,1.4,1.5
		C68.5,141.4,69.2,140.8,69.2,139.9z"/>
	<path d="M79.1,140.5h-4.8c0.1,0.7,0.6,1.1,1.3,1.1c0.5,0,1-0.2,1.2-0.6H79c-0.5,1.5-1.8,2.4-3.4,2.4c-2,0-3.5-1.5-3.5-3.5
		c0-2,1.5-3.4,3.5-3.4c2.1,0,3.5,1.5,3.5,3.4C79.1,140.1,79.1,140.3,79.1,140.5z M74.3,139.2h2.6c-0.2-0.6-0.7-1-1.3-1
		C74.9,138.2,74.5,138.6,74.3,139.2z"/>
	<path d="M82.7,136.7H85v6.5h-2.2V136.7z M82.7,134h2.2v1.9h-2.2V134z"/>
	<path d="M92.8,139.2v3.9h-2.2v-3.6c0-0.8-0.3-1.1-0.8-1.1c-0.7,0-1.1,0.5-1.1,1.3v3.5h-2.2v-6.5h1.6l0.3,0.7c0.5-0.5,1.2-0.9,2-0.9
		C91.8,136.5,92.8,137.6,92.8,139.2z"/>
	<path d="M98.4,141.2v2h-1.5c-1.4,0-2.3-0.9-2.3-2.3v-2.4h-1.2v-0.5l2.9-3.1h0.5v1.9h1.6v1.7h-1.6v2.1c0,0.5,0.3,0.7,0.8,0.7H98.4z"
		/>
	<path d="M106,140.5h-4.8c0.1,0.7,0.6,1.1,1.3,1.1c0.5,0,1-0.2,1.2-0.6h2.2c-0.5,1.5-1.8,2.4-3.4,2.4c-2,0-3.5-1.5-3.5-3.5
		c0-2,1.5-3.4,3.5-3.4c2.1,0,3.5,1.5,3.5,3.4C106.1,140.1,106.1,140.3,106,140.5z M101.3,139.2h2.6c-0.2-0.6-0.7-1-1.3-1
		C101.9,138.2,101.4,138.6,101.3,139.2z"/>
	<path d="M113.8,136.7v5.8c0,2-1.3,3.3-3.5,3.3c-1.8,0-3.1-0.9-3.4-2.5h2.2c0.2,0.4,0.7,0.7,1.2,0.7c0.7,0,1.3-0.5,1.3-1.2v-0.2
		c-0.5,0.3-1.1,0.5-1.7,0.5c-1.9,0-3.2-1.4-3.2-3.3c0-1.8,1.4-3.3,3.2-3.3c0.8,0,1.5,0.3,2,0.8l0.3-0.5H113.8z M110.3,141.2
		c0.8,0,1.4-0.6,1.4-1.4c0-0.8-0.6-1.4-1.4-1.4c-0.8,0-1.4,0.6-1.4,1.4C109,140.6,109.5,141.2,110.3,141.2L110.3,141.2z"/>
	<path d="M119.4,136.7v2h-0.9c-0.8,0-1.1,0.3-1.1,1.2v3.3h-2.2v-6.5h1.5l0.3,0.7c0.5-0.5,1-0.8,1.8-0.8H119.4z"/>
	<path d="M127.1,136.7v6.5h-1.7l-0.2-0.5c-0.5,0.4-1.2,0.7-2,0.7c-2,0-3.4-1.4-3.4-3.5c0-2,1.4-3.4,3.4-3.4c0.8,0,1.4,0.3,2,0.7
		l0.2-0.5H127.1z M124.9,139.9c0-0.8-0.6-1.5-1.4-1.5c-0.8,0-1.4,0.6-1.4,1.5c0,0.8,0.6,1.5,1.4,1.5S124.9,140.8,124.9,139.9z"/>
	<path d="M132.8,141.2v2h-1.5c-1.4,0-2.3-0.9-2.3-2.3v-2.4h-1.2v-0.5l2.9-3.1h0.5v1.9h1.6v1.7h-1.6v2.1c0,0.5,0.3,0.7,0.8,0.7H132.8
		z"/>
	<path d="M140.5,140.5h-4.8c0.1,0.7,0.6,1.1,1.3,1.1c0.5,0,1-0.2,1.2-0.6h2.2c-0.5,1.5-1.8,2.4-3.4,2.4c-2,0-3.5-1.5-3.5-3.5
		c0-2,1.5-3.4,3.5-3.4c2.1,0,3.5,1.5,3.5,3.4C140.5,140.1,140.5,140.3,140.5,140.5z M135.7,139.2h2.6c-0.2-0.6-0.7-1-1.3-1
		C136.3,138.2,135.9,138.6,135.7,139.2z"/>
	<path d="M148.4,134.4v8.8h-1.7l-0.2-0.5c-0.5,0.4-1.2,0.7-2,0.7c-2,0-3.4-1.4-3.4-3.5s1.4-3.5,3.4-3.5c0.6,0,1.1,0.2,1.6,0.5v-2.6
		H148.4z M146.3,139.9c0-0.8-0.6-1.5-1.4-1.5s-1.4,0.6-1.4,1.5s0.6,1.5,1.4,1.5S146.3,140.8,146.3,139.9z"/>
	<path d="M152.4,136.7h2.2v6.5h-2.2V136.7z M152.4,134h2.2v1.9h-2.2V134z"/>
	<path d="M162.4,139.2v3.9h-2.2v-3.6c0-0.8-0.3-1.1-0.8-1.1c-0.7,0-1.1,0.5-1.1,1.3v3.5H156v-6.5h1.6l0.3,0.7c0.5-0.5,1.2-0.9,2-0.9
		C161.4,136.5,162.4,137.6,162.4,139.2z"/>
	<path d="M170.5,141.2v2h-1.5c-1.4,0-2.3-0.9-2.3-2.3v-2.4h-1.2v-0.5l2.9-3.1h0.5v1.9h1.6v1.7h-1.6v2.1c0,0.5,0.3,0.7,0.8,0.7H170.5
		z"/>
	<path d="M177.9,139.3v3.9h-2.2v-3.6c0-0.7-0.3-1.1-0.8-1.1c-0.7,0-1.1,0.5-1.1,1.3v3.5h-2.2v-8.8h2.2v2.8c0.5-0.4,1.1-0.6,1.7-0.6
		C177,136.5,177.9,137.6,177.9,139.3z"/>
	<path d="M185.9,140.5h-4.8c0.1,0.7,0.6,1.1,1.3,1.1c0.5,0,1-0.2,1.2-0.6h2.2c-0.5,1.5-1.8,2.4-3.4,2.4c-2,0-3.5-1.5-3.5-3.5
		c0-2,1.5-3.4,3.5-3.4c2.1,0,3.5,1.5,3.5,3.4C185.9,140.1,185.9,140.3,185.9,140.5z M181.1,139.2h2.6c-0.2-0.6-0.7-1-1.3-1
		C181.8,138.2,181.3,138.6,181.1,139.2z"/>
	<path d="M52,152.1v4.1h-2.2v-3.8c0-0.7-0.2-1-0.7-1c-0.6,0-0.9,0.4-0.9,1.2v3.6h-2.2v-3.8c0-0.7-0.2-1-0.7-1
		c-0.6,0-0.9,0.4-0.9,1.2v3.6H42v-6.5h1.6l0.3,0.7c0.5-0.5,1.1-0.9,1.9-0.9c0.8,0,1.5,0.4,1.9,1c0.5-0.6,1.2-1,2-1
		C51.1,149.5,52,150.6,52,152.1z"/>
	<path d="M59.9,153.5h-4.8c0.1,0.7,0.6,1.1,1.3,1.1c0.5,0,1-0.2,1.2-0.6h2.2c-0.5,1.5-1.8,2.4-3.4,2.4c-2,0-3.5-1.5-3.5-3.5
		c0-2,1.5-3.4,3.5-3.4c2.1,0,3.5,1.5,3.5,3.4C60,153.1,60,153.3,59.9,153.5z M55.2,152.2h2.6c-0.2-0.6-0.7-1-1.3-1
		C55.8,151.2,55.3,151.6,55.2,152.2z"/>
	<path d="M65.3,154.2v2h-1.5c-1.4,0-2.3-0.9-2.3-2.3v-2.4h-1.2v-0.5l2.9-3.1h0.5v1.9h1.6v1.7h-1.6v2.1c0,0.5,0.3,0.7,0.8,0.7H65.3z"
		/>
	<path d="M73.1,149.7v6.5h-1.7l-0.2-0.5c-0.5,0.4-1.2,0.7-2,0.7c-2,0-3.4-1.4-3.4-3.5c0-2,1.4-3.4,3.4-3.4c0.8,0,1.4,0.3,2,0.7
		l0.2-0.5H73.1z M71,152.9c0-0.8-0.6-1.5-1.4-1.5c-0.8,0-1.4,0.6-1.4,1.5c0,0.8,0.6,1.5,1.4,1.5S71,153.8,71,152.9z"/>
	<path d="M81.1,149.7l-2.6,6.5h-2l-2.6-6.5h2.4l1.2,3.8l1.2-3.8H81.1z"/>
	<path d="M88.2,153.5h-4.8c0.1,0.7,0.6,1.1,1.3,1.1c0.5,0,1-0.2,1.2-0.6h2.2c-0.5,1.5-1.8,2.4-3.4,2.4c-2,0-3.5-1.5-3.5-3.5
		c0-2,1.5-3.4,3.5-3.4c2.1,0,3.5,1.5,3.5,3.4C88.2,153.1,88.2,153.3,88.2,153.5z M83.4,152.2H86c-0.2-0.6-0.7-1-1.3-1
		C84,151.2,83.6,151.6,83.4,152.2z"/>
	<path d="M93.5,149.7v2h-0.9c-0.8,0-1.1,0.3-1.1,1.2v3.3h-2.2v-6.5h1.5l0.3,0.7c0.5-0.5,1-0.8,1.8-0.8H93.5z"/>
	<path d="M96.8,156.4c-1.8,0-2.8-0.9-2.9-2.3h2.1c0,0.5,0.3,0.7,0.8,0.7c0.3,0,0.6-0.2,0.6-0.5c0-0.4-0.5-0.5-1.1-0.6
		c-1-0.2-2.3-0.5-2.3-2c0-1.3,1.1-2.1,2.8-2.1c1.6,0,2.7,0.9,2.7,2.2h-2.1c0-0.4-0.3-0.6-0.7-0.6c-0.4,0-0.6,0.2-0.6,0.5
		c0,0.4,0.5,0.5,1.1,0.6c1,0.2,2.4,0.4,2.4,2C99.6,155.5,98.5,156.4,96.8,156.4L96.8,156.4z"/>
	<path d="M107.3,153.5h-4.8c0.1,0.7,0.6,1.1,1.3,1.1c0.5,0,1-0.2,1.2-0.6h2.2c-0.5,1.5-1.8,2.4-3.4,2.4c-2,0-3.5-1.5-3.5-3.5
		c0-2,1.5-3.4,3.5-3.4c2.1,0,3.5,1.5,3.5,3.4C107.4,153.1,107.3,153.3,107.3,153.5z M102.6,152.2h2.6c-0.2-0.6-0.7-1-1.3-1
		C103.2,151.2,102.7,151.6,102.6,152.2z"/>
	<path d="M120.6,149.7l-2.1,6.5h-1.8l-1.3-2.9l-1.3,2.9h-1.8l-2.1-6.5h2.3l1,3.4l1.5-3.4h0.6l1.6,3.4l1-3.4H120.6z"/>
	<path d="M121.4,149.7h2.2v6.5h-2.2V149.7z M121.4,147h2.2v1.9h-2.2V147z"/>
	<path d="M129.4,154.2v2h-1.5c-1.4,0-2.3-0.9-2.3-2.3v-2.4h-1.2v-0.5l2.9-3.1h0.5v1.9h1.6v1.7h-1.6v2.1c0,0.5,0.3,0.7,0.8,0.7H129.4
		z"/>
	<path d="M136.8,152.3v3.9h-2.2v-3.6c0-0.7-0.3-1.1-0.8-1.1c-0.7,0-1.1,0.5-1.1,1.3v3.5h-2.2v-8.8h2.2v2.8c0.5-0.4,1.1-0.6,1.7-0.6
		C135.9,149.5,136.8,150.6,136.8,152.3z"/>
	<path d="M140.8,149.7h2.2v6.5h-2.2V149.7z M140.8,147h2.2v1.9h-2.2V147z"/>
	<path d="M150.8,152.2v3.9h-2.2v-3.6c0-0.8-0.3-1.1-0.8-1.1c-0.7,0-1.1,0.5-1.1,1.3v3.5h-2.2v-6.5h1.6l0.3,0.7
		c0.5-0.5,1.2-0.9,2-0.9C149.8,149.5,150.8,150.6,150.8,152.2z"/>
	<path d="M152.1,151.8h4.4v2h-4.4V151.8z"/>
	<path d="M164.6,149.7v5.8c0,2-1.3,3.3-3.5,3.3c-1.8,0-3.1-0.9-3.4-2.5h2.2c0.2,0.4,0.7,0.7,1.2,0.7c0.7,0,1.3-0.5,1.3-1.2v-0.2
		c-0.5,0.3-1.1,0.5-1.7,0.5c-1.9,0-3.2-1.4-3.2-3.3c0-1.8,1.4-3.3,3.2-3.3c0.8,0,1.5,0.3,2,0.8l0.3-0.5H164.6z M161.1,154.2
		c0.8,0,1.4-0.6,1.4-1.4c0-0.8-0.6-1.4-1.4-1.4c-0.8,0-1.4,0.6-1.4,1.4C159.7,153.6,160.3,154.2,161.1,154.2L161.1,154.2z"/>
	<path d="M172.9,149.7v6.5h-1.7l-0.2-0.5c-0.5,0.4-1.2,0.7-2,0.7c-2,0-3.4-1.4-3.4-3.5c0-2,1.4-3.4,3.4-3.4c0.8,0,1.4,0.3,2,0.7
		l0.2-0.5H172.9z M170.7,152.9c0-0.8-0.6-1.5-1.4-1.5c-0.8,0-1.4,0.6-1.4,1.5c0,0.8,0.6,1.5,1.4,1.5S170.7,153.8,170.7,152.9z"/>
	<path d="M184.2,152.1v4.1H182v-3.8c0-0.7-0.2-1-0.7-1c-0.6,0-0.9,0.4-0.9,1.2v3.6h-2.2v-3.8c0-0.7-0.2-1-0.7-1
		c-0.6,0-0.9,0.4-0.9,1.2v3.6h-2.2v-6.5h1.6l0.3,0.7c0.5-0.5,1.1-0.9,1.9-0.9c0.8,0,1.5,0.4,1.9,1c0.5-0.6,1.2-1,2-1
		C183.3,149.5,184.2,150.6,184.2,152.1z"/>
	<path d="M192.2,153.5h-4.8c0.1,0.7,0.6,1.1,1.3,1.1c0.5,0,1-0.2,1.2-0.6h2.2c-0.5,1.5-1.8,2.4-3.4,2.4c-2,0-3.5-1.5-3.5-3.5
		c0-2,1.5-3.4,3.5-3.4c2.1,0,3.5,1.5,3.5,3.4C192.2,153.1,192.2,153.3,192.2,153.5z M187.4,152.2h2.6c-0.2-0.6-0.7-1-1.3-1
		C188,151.2,187.6,151.6,187.4,152.2z"/>
	<path d="M23.4,166.4v-3.7h2.2v3.6c0,0.7,0.4,1.1,1,1.1s1-0.4,1-1.1v-3.6h2.2v3.7c0,1.8-1.3,3-3.2,3S23.4,168.2,23.4,166.4z"/>
	<path d="M38.3,165.9c0,2-1.4,3.5-3.4,3.5c-0.6,0-1.1-0.2-1.6-0.4v2.5h-2.2v-8.8h1.5l0.3,0.5c0.5-0.5,1.2-0.7,2-0.7
		C36.9,162.5,38.3,163.9,38.3,165.9z M36.1,165.9c0-0.9-0.6-1.5-1.4-1.5s-1.4,0.6-1.4,1.5c0,0.9,0.6,1.5,1.4,1.5
		C35.5,167.4,36.1,166.8,36.1,165.9z"/>
	<path d="M46.1,162.7v5.8c0,2-1.3,3.3-3.5,3.3c-1.8,0-3.1-0.9-3.4-2.5h2.2c0.2,0.4,0.7,0.7,1.2,0.7c0.7,0,1.3-0.5,1.3-1.2v-0.2
		c-0.5,0.3-1.1,0.5-1.7,0.5c-1.9,0-3.2-1.4-3.2-3.3c0-1.8,1.4-3.3,3.2-3.3c0.8,0,1.5,0.3,2,0.8l0.3-0.5H46.1z M42.6,167.2
		c0.8,0,1.4-0.6,1.4-1.4c0-0.8-0.6-1.4-1.4-1.4c-0.8,0-1.4,0.6-1.4,1.4C41.2,166.6,41.8,167.2,42.6,167.2L42.6,167.2z"/>
	<path d="M51.7,162.7v2h-0.9c-0.8,0-1.1,0.3-1.1,1.2v3.3h-2.2v-6.5H49l0.3,0.7c0.5-0.5,1-0.8,1.8-0.8H51.7z"/>
	<path d="M59.3,162.7v6.5h-1.7l-0.2-0.5c-0.5,0.4-1.2,0.7-2,0.7c-2,0-3.4-1.4-3.4-3.5c0-2,1.4-3.4,3.4-3.4c0.8,0,1.4,0.3,2,0.7
		l0.2-0.5H59.3z M57.2,165.9c0-0.8-0.6-1.5-1.4-1.5c-0.8,0-1.4,0.6-1.4,1.5c0,0.8,0.6,1.5,1.4,1.5S57.2,166.8,57.2,165.9z"/>
	<path d="M67.6,160.4v8.8h-1.7l-0.2-0.5c-0.5,0.4-1.2,0.7-2,0.7c-2,0-3.4-1.4-3.4-3.5s1.4-3.5,3.4-3.5c0.6,0,1.1,0.2,1.6,0.5v-2.6
		H67.6z M65.5,165.9c0-0.8-0.6-1.5-1.4-1.5s-1.4,0.6-1.4,1.5s0.6,1.5,1.4,1.5S65.5,166.8,65.5,165.9z"/>
	<path d="M75.9,162.7v6.5h-1.7l-0.2-0.5c-0.5,0.4-1.2,0.7-2,0.7c-2,0-3.4-1.4-3.4-3.5c0-2,1.4-3.4,3.4-3.4c0.8,0,1.4,0.3,2,0.7
		l0.2-0.5H75.9z M73.7,165.9c0-0.8-0.6-1.5-1.4-1.5c-0.8,0-1.4,0.6-1.4,1.5c0,0.8,0.6,1.5,1.4,1.5S73.7,166.8,73.7,165.9z"/>
	<path d="M84.5,165.9c0,2-1.4,3.4-3.4,3.4c-0.8,0-1.4-0.3-2-0.7l-0.2,0.5h-1.7v-8.8h2.2v2.6c0.5-0.3,1-0.4,1.6-0.4
		C83.1,162.5,84.5,163.9,84.5,165.9z M82.2,165.9c0-0.8-0.6-1.5-1.4-1.5c-0.8,0-1.4,0.6-1.4,1.5c0,0.8,0.6,1.5,1.4,1.5
		C81.6,167.4,82.2,166.8,82.2,165.9z"/>
	<path d="M85.5,160.4h2.2v8.8h-2.2V160.4z"/>
	<path d="M95.8,166.5H91c0.1,0.7,0.6,1.1,1.3,1.1c0.5,0,1-0.2,1.2-0.6h2.2c-0.5,1.5-1.8,2.4-3.4,2.4c-2,0-3.5-1.5-3.5-3.5
		c0-2,1.5-3.4,3.5-3.4c2.1,0,3.5,1.5,3.5,3.4C95.8,166.1,95.8,166.3,95.8,166.5z M91,165.2h2.6c-0.2-0.6-0.7-1-1.3-1
		C91.7,164.2,91.2,164.6,91,165.2z"/>
	<path d="M106.3,162.7v6.5h-1.7l-0.2-0.5c-0.5,0.4-1.2,0.7-2,0.7c-2,0-3.4-1.4-3.4-3.5c0-2,1.4-3.4,3.4-3.4c0.8,0,1.4,0.3,2,0.7
		l0.2-0.5H106.3z M104.2,165.9c0-0.8-0.6-1.5-1.4-1.5c-0.8,0-1.4,0.6-1.4,1.5c0,0.8,0.6,1.5,1.4,1.5S104.2,166.8,104.2,165.9z"/>
	<path d="M110.3,169.4c-1.8,0-2.8-0.9-2.9-2.3h2.1c0,0.5,0.3,0.7,0.8,0.7c0.3,0,0.6-0.2,0.6-0.5c0-0.4-0.5-0.5-1.1-0.6
		c-1-0.2-2.3-0.5-2.3-2c0-1.3,1.1-2.1,2.8-2.1c1.6,0,2.7,0.9,2.7,2.2h-2.1c0-0.4-0.3-0.6-0.7-0.6c-0.4,0-0.6,0.2-0.6,0.5
		c0,0.4,0.5,0.5,1.1,0.6c1,0.2,2.4,0.4,2.4,2C113.1,168.5,112,169.4,110.3,169.4L110.3,169.4z"/>
	<path d="M113.8,167.1h2.1c0,0.5,0.3,0.7,0.8,0.7c0.3,0,0.6-0.2,0.6-0.5c0-0.4-0.5-0.5-1.1-0.6c-1-0.2-2.3-0.5-2.3-2
		c0-1.3,1.1-2.1,2.8-2.1c1.6,0,2.7,0.9,2.7,2.2h-2.1c0-0.4-0.3-0.6-0.7-0.6c-0.4,0-0.6,0.2-0.6,0.5c0,0.4,0.5,0.5,1.1,0.6
		c1,0.2,2.4,0.4,2.4,2c0,1.4-1.1,2.2-2.9,2.2C114.9,169.4,113.8,168.5,113.8,167.1z"/>
	<path d="M127.2,166.5h-4.8c0.1,0.7,0.6,1.1,1.3,1.1c0.5,0,1-0.2,1.2-0.6h2.2c-0.5,1.5-1.8,2.4-3.4,2.4c-2,0-3.5-1.5-3.5-3.5
		c0-2,1.5-3.4,3.5-3.4c2.1,0,3.5,1.5,3.5,3.4C127.2,166.1,127.2,166.3,127.2,166.5z M122.4,165.2h2.6c-0.2-0.6-0.7-1-1.3-1
		C123.1,164.2,122.6,164.6,122.4,165.2z"/>
	<path d="M132.5,167.2v2H131c-1.4,0-2.3-0.9-2.3-2.3v-2.4h-1.2v-0.5l2.9-3.1h0.5v1.9h1.6v1.7h-1.6v2.1c0,0.5,0.3,0.7,0.8,0.7H132.5z
		"/>
	<path d="M135.8,165.9c0-2,1.5-3.4,3.6-3.4c1.8,0,3.2,1.1,3.4,2.9h-2.2c-0.2-0.5-0.7-0.9-1.3-0.9c-0.8,0-1.3,0.6-1.3,1.4
		s0.6,1.5,1.3,1.5c0.6,0,1.1-0.4,1.3-0.9h2.2c-0.3,1.8-1.6,2.9-3.5,2.9C137.3,169.4,135.8,167.9,135.8,165.9z"/>
	<path d="M150.7,162.7v6.5H149l-0.2-0.5c-0.5,0.4-1.2,0.7-2,0.7c-2,0-3.4-1.4-3.4-3.5c0-2,1.4-3.4,3.4-3.4c0.8,0,1.4,0.3,2,0.7
		l0.2-0.5H150.7z M148.6,165.9c0-0.8-0.6-1.5-1.4-1.5c-0.8,0-1.4,0.6-1.4,1.5c0,0.8,0.6,1.5,1.4,1.5S148.6,166.8,148.6,165.9z"/>
	<path d="M159.3,165.9c0,2-1.4,3.5-3.4,3.5c-0.6,0-1.1-0.2-1.6-0.4v2.5h-2.2v-8.8h1.5l0.3,0.5c0.5-0.5,1.2-0.7,2-0.7
		C157.9,162.5,159.3,163.9,159.3,165.9z M157.1,165.9c0-0.9-0.6-1.5-1.4-1.5s-1.4,0.6-1.4,1.5c0,0.9,0.6,1.5,1.4,1.5
		C156.4,167.4,157.1,166.8,157.1,165.9z"/>
	<path d="M167.2,162.7v6.5h-1.7l-0.2-0.5c-0.5,0.4-1.2,0.7-2,0.7c-2,0-3.4-1.4-3.4-3.5c0-2,1.4-3.4,3.4-3.4c0.8,0,1.4,0.3,2,0.7
		l0.2-0.5H167.2z M165.1,165.9c0-0.8-0.6-1.5-1.4-1.5c-0.8,0-1.4,0.6-1.4,1.5c0,0.8,0.6,1.5,1.4,1.5S165.1,166.8,165.1,165.9z"/>
	<path d="M175.9,165.9c0,2-1.4,3.4-3.4,3.4c-0.8,0-1.4-0.3-2-0.7l-0.2,0.5h-1.7v-8.8h2.2v2.6c0.5-0.3,1-0.4,1.6-0.4
		C174.4,162.5,175.9,163.9,175.9,165.9z M173.6,165.9c0-0.8-0.6-1.5-1.4-1.5c-0.8,0-1.4,0.6-1.4,1.5c0,0.8,0.6,1.5,1.4,1.5
		C173,167.4,173.6,166.8,173.6,165.9z"/>
	<path d="M176.9,162.7h2.2v6.5h-2.2V162.7z M176.9,160h2.2v1.9h-2.2V160z"/>
	<path d="M180.5,160.4h2.2v8.8h-2.2V160.4z"/>
	<path d="M184.2,162.7h2.2v6.5h-2.2V162.7z M184.2,160h2.2v1.9h-2.2V160z"/>
	<path d="M192.2,167.2v2h-1.5c-1.4,0-2.3-0.9-2.3-2.3v-2.4h-1.2v-0.5l2.9-3.1h0.5v1.9h1.6v1.7h-1.6v2.1c0,0.5,0.3,0.7,0.8,0.7H192.2
		z"/>
	<path d="M193.2,162.7h2.2v6.5h-2.2V162.7z M193.2,160h2.2v1.9h-2.2V160z"/>
	<path d="M203.5,166.5h-4.8c0.1,0.7,0.6,1.1,1.3,1.1c0.5,0,1-0.2,1.2-0.6h2.2c-0.5,1.5-1.8,2.4-3.4,2.4c-2,0-3.5-1.5-3.5-3.5
		c0-2,1.5-3.4,3.5-3.4c2.1,0,3.5,1.5,3.5,3.4C203.5,166.1,203.5,166.3,203.5,166.5z M198.7,165.2h2.6c-0.2-0.6-0.7-1-1.3-1
		C199.3,164.2,198.9,164.6,198.7,165.2z"/>
	<path d="M204.2,167.1h2.1c0,0.5,0.3,0.7,0.8,0.7c0.3,0,0.6-0.2,0.6-0.5c0-0.4-0.5-0.5-1.1-0.6c-1-0.2-2.3-0.5-2.3-2
		c0-1.3,1.1-2.1,2.8-2.1c1.6,0,2.7,0.9,2.7,2.2h-2.1c0-0.4-0.3-0.6-0.7-0.6c-0.4,0-0.6,0.2-0.6,0.5c0,0.4,0.5,0.5,1.1,0.6
		c1,0.2,2.4,0.4,2.4,2c0,1.4-1.1,2.2-2.9,2.2C205.3,169.4,204.2,168.5,204.2,167.1z"/>
	<path d="M210.9,167.1h2.2v2.1h-2.2V167.1z"/>
</g>
<g>
	<ellipse transform="matrix(0.2385 -0.9712 0.9712 0.2385 40.9588 152.9396)" class="st5" cx="118" cy="50.4" rx="32.3" ry="32.3"/>
	<path class="st5" d="M118,88.7c-21.1,0-38.3-17.2-38.3-38.3C79.7,29.2,96.9,12,118,12c21.1,0,38.3,17.2,38.3,38.3
		C156.3,71.5,139.1,88.7,118,88.7z M118,13.3c-20.4,0-37.1,16.6-37.1,37.1c0,20.4,16.6,37.1,37.1,37.1c20.4,0,37.1-16.6,37.1-37.1
		C155.1,29.9,138.4,13.3,118,13.3z"/>
	<path class="st6" d="M95,53.8l0.2,0.1L95,54c-1.3,0.3-2.3,1.3-2.6,2.6l-0.1,0.2l-0.1-0.2C92,55.3,91,54.3,89.7,54l-0.2-0.1l0.2-0.1
		c1.3-0.3,2.3-1.3,2.6-2.6l0.1-0.2l0.1,0.2C92.8,52.5,93.8,53.5,95,53.8L95,53.8z"/>
	<path class="st7" d="M117.2,70.6l0.2,0.1l-0.2,0c-1.2,0.3-2.1,1.2-2.4,2.4l0,0.2l-0.1-0.2c-0.3-1.2-1.2-2.1-2.4-2.4l-0.2,0l0.2-0.1
		c1.2-0.3,2.1-1.2,2.4-2.4l0.1-0.2l0,0.2C115.2,69.4,116.1,70.3,117.2,70.6L117.2,70.6z"/>
	<path class="st7" d="M128.6,74.2l0.3,0.1l-0.3,0.1c-2,0.5-3.6,2.1-4.1,4.1l-0.1,0.3l-0.1-0.3c-0.5-2-2.1-3.6-4.1-4.1l-0.3-0.1
		l0.3-0.1c2-0.5,3.6-2.1,4.1-4.1l0.1-0.3l0.1,0.3C125,72.1,126.6,73.6,128.6,74.2L128.6,74.2z"/>
</g>
<g>
	<g>
		<g>
			<path class="st8" d="M111.3,52h-6.2v-0.2c0-0.7,0.6-1.2,1.2-1.2h3.7c0.7,0,1.2,0.6,1.2,1.2V52z"/>
			<path d="M111.3,52.3h-6.2c-0.2,0-0.4-0.2-0.4-0.4v-0.5c0-0.7,0.6-1.3,1.3-1.3h4.3c0.7,0,1.3,0.6,1.3,1.3V52
				C111.7,52.2,111.5,52.3,111.3,52.3z M105.5,51.6h5.5v-0.1c0-0.3-0.3-0.6-0.6-0.6h-4.3c-0.3,0-0.6,0.3-0.6,0.6V51.6z"/>
		</g>
		<g>
			<path class="st8" d="M131,52h-6.2v-0.2c0-0.7,0.6-1.2,1.2-1.2h3.7c0.7,0,1.2,0.6,1.2,1.2V52z"/>
			<path d="M131,52.3h-6.2c-0.2,0-0.4-0.2-0.4-0.4v-0.5c0-0.7,0.6-1.3,1.3-1.3h4.3c0.7,0,1.3,0.6,1.3,1.3V52
				C131.3,52.2,131.2,52.3,131,52.3z M125.1,51.6h5.5v-0.1c0-0.3-0.3-0.6-0.6-0.6h-4.3c-0.3,0-0.6,0.3-0.6,0.6V51.6z"/>
		</g>
	</g>
	<g>
		<polygon class="st9" points="118.1,51.8 106.5,51.8 106.5,64.5 118.1,64.5 129.7,64.5 129.7,51.8 		"/>
	</g>
	<path d="M120.8,64.1h-5.6c-0.2,0-0.4,0.2-0.4,0.4s0.2,0.4,0.4,0.4h5.6c0.2,0,0.4-0.2,0.4-0.4S121,64.1,120.8,64.1z"/>
	<path d="M129.7,51.4h-23.2c-0.2,0-0.4,0.2-0.4,0.4c0,0.2,0.2,0.4,0.4,0.4h23.2c0.2,0,0.4-0.2,0.4-0.4
		C130,51.6,129.9,51.4,129.7,51.4z"/>
	<g>
		<g>
			<path class="st9" d="M112.1,57.2c-0.1-2.9-2.5-5.3-5.4-5.4c-2.7-0.1-5,1.8-5.6,4.3c0,0,0,0,0,0l-0.1,0.9l-1.8,11.6
				c-0.3,2,1,3.9,3,4.3h0c1.8,0.4,3.5-0.6,4.2-2.2l3.8-9l0,0C111.4,60.6,112.1,59,112.1,57.2z"/>
		</g>
		<g>
			<path class="st9" d="M124.1,57.2c0.1-2.9,2.5-5.3,5.4-5.4c2.7-0.1,5,1.8,5.6,4.3c0,0,0,0,0,0l0.1,0.9l1.8,11.6c0.3,2-1,3.9-3,4.3
				l0,0c-1.8,0.4-3.5-0.6-4.2-2.2l-3.8-9l0,0C124.8,60.6,124,59,124.1,57.2z"/>
		</g>
		<g>
			<path class="st9" d="M124.1,57.2c0.1-2.9,2.5-5.3,5.4-5.4c2.7-0.1,5,1.8,5.6,4.3c0,0,0,0,0,0l0.1,0.9l1.8,11.6c0.3,2-1,3.9-3,4.3
				l0,0c-1.8,0.4-3.5-0.6-4.2-2.2l-3.8-9l0,0C124.8,60.6,124,59,124.1,57.2z"/>
		</g>
	</g>
	<g>
		<g>
			<path d="M102.8,73.3c-0.3,0-0.5,0-0.8-0.1c-2.2-0.4-3.6-2.5-3.3-4.7l2-12.5c0,0,0,0,0,0c0.7-2.7,3.2-4.6,5.9-4.5
				c3.1,0.1,5.7,2.6,5.8,5.7c0,0.8-0.1,1.6-0.4,2.3c-0.1,0.2-0.3,0.3-0.5,0.2c-0.2-0.1-0.3-0.3-0.2-0.5c0.2-0.6,0.4-1.3,0.3-2
				c-0.1-2.8-2.3-5-5.1-5c-2.4-0.1-4.6,1.6-5.2,4l-2,12.5c-0.3,1.8,0.9,3.5,2.7,3.9c1.6,0.3,3.2-0.5,3.9-2l1.4-3.2
				c0.1-0.2,0.3-0.3,0.5-0.2c0.2,0.1,0.3,0.3,0.2,0.5l-1.4,3.2C106,72.3,104.5,73.3,102.8,73.3z"/>
		</g>
		<g>
			<path class="st9" d="M124.1,57.2c0.1-2.9,2.5-5.3,5.4-5.4c2.7-0.1,5,1.8,5.6,4.3c0,0,0,0,0,0l0.1,0.9l1.8,11.6c0.3,2-1,3.9-3,4.3
				l0,0c-1.8,0.4-3.5-0.6-4.2-2.2l-3.8-9l0,0C124.8,60.6,124,59,124.1,57.2z"/>
		</g>
		<g>
			<path d="M133.3,73.3c-1.6,0-3.2-1-3.8-2.5l-1.3-3.1c-0.1-0.2,0-0.4,0.2-0.5c0.2-0.1,0.4,0,0.5,0.2l1.3,3.1c0.6,1.5,2.3,2.4,3.9,2
				c1.8-0.4,3-2.1,2.7-3.9l-2-12.5c-0.6-2.4-2.8-4-5.2-4c-2.8,0.1-5,2.3-5.1,5c0,0.7,0.1,1.3,0.3,2c0.1,0.2,0,0.4-0.2,0.4
				c-0.2,0.1-0.4,0-0.4-0.2c-0.3-0.7-0.4-1.5-0.3-2.2c0.1-3.1,2.6-5.6,5.8-5.7c2.8-0.1,5.3,1.8,5.9,4.5c0,0,0,0,0,0l2,12.5
				c0.3,2.2-1.1,4.3-3.3,4.7C133.9,73.2,133.6,73.3,133.3,73.3z"/>
		</g>
	</g>
	<g>
		<path class="st10" d="M119.9,57.6h-3.7c-1.6,0-2.8-1.3-2.8-2.8v-0.7c0-1.6,1.3-2.8,2.8-2.8h3.7c1.6,0,2.8,1.3,2.8,2.8v0.7
			C122.7,56.3,121.5,57.6,119.9,57.6z"/>
		<path d="M121.8,57.9h-7.5c-0.7,0-1.3-0.6-1.3-1.3v-4.5c0-0.7,0.6-1.3,1.3-1.3h7.5c0.7,0,1.3,0.6,1.3,1.3v4.5
			C123.1,57.4,122.5,57.9,121.8,57.9z M114.3,51.6c-0.3,0-0.6,0.3-0.6,0.6v4.5c0,0.3,0.3,0.6,0.6,0.6h7.5c0.3,0,0.6-0.3,0.6-0.6
			v-4.5c0-0.3-0.3-0.6-0.6-0.6H114.3z"/>
	</g>
	<g class="st11">
		<path class="st0" d="M114.8,53.9c-0.2,0-0.4-0.2-0.4-0.4v-0.9c0-0.2,0.2-0.4,0.4-0.4h1.4c0.2,0,0.4,0.2,0.4,0.4
			c0,0.2-0.2,0.4-0.4,0.4h-1v0.6C115.1,53.8,115,53.9,114.8,53.9z"/>
	</g>
	<g class="st11">
		<path class="st0" d="M117.8,53h-0.2c-0.2,0-0.4-0.2-0.4-0.4c0-0.2,0.2-0.4,0.4-0.4h0.2c0.2,0,0.4,0.2,0.4,0.4
			C118.2,52.8,118,53,117.8,53z"/>
	</g>
	<g>
		<circle class="st8" cx="110.6" cy="63.8" r="3.4"/>
		<path d="M110.6,67.6c-2.1,0-3.8-1.7-3.8-3.8c0-2.1,1.7-3.8,3.8-3.8s3.8,1.7,3.8,3.8C114.4,65.9,112.7,67.6,110.6,67.6z
			 M110.6,60.7c-1.7,0-3.1,1.4-3.1,3.1c0,1.7,1.4,3.1,3.1,3.1s3.1-1.4,3.1-3.1C113.7,62.1,112.3,60.7,110.6,60.7z"/>
	</g>
	<g>
		<circle class="st9" cx="110.6" cy="63.8" r="2"/>
		<path d="M110.6,66.2c-1.3,0-2.4-1.1-2.4-2.4c0-1.3,1.1-2.4,2.4-2.4c1.3,0,2.4,1.1,2.4,2.4C113,65.1,111.9,66.2,110.6,66.2z
			 M110.6,62.1c-0.9,0-1.7,0.8-1.7,1.7c0,0.9,0.8,1.7,1.7,1.7c0.9,0,1.7-0.8,1.7-1.7C112.3,62.9,111.5,62.1,110.6,62.1z"/>
	</g>
	<g class="st11">
		<path class="st0" d="M110,64.2c-0.2,0-0.4-0.2-0.4-0.4c0-0.5,0.4-1,1-1c0.2,0,0.4,0.2,0.4,0.4c0,0.2-0.2,0.4-0.4,0.4
			c-0.2,0-0.3,0.1-0.3,0.3C110.3,64,110.2,64.2,110,64.2z"/>
	</g>
	<g>
		<circle class="st8" cx="125.5" cy="63.8" r="3.4"/>
		<path d="M125.5,67.6c-2.1,0-3.8-1.7-3.8-3.8c0-2.1,1.7-3.8,3.8-3.8s3.8,1.7,3.8,3.8C129.3,65.9,127.6,67.6,125.5,67.6z
			 M125.5,60.7c-1.7,0-3.1,1.4-3.1,3.1c0,1.7,1.4,3.1,3.1,3.1s3.1-1.4,3.1-3.1C128.6,62.1,127.2,60.7,125.5,60.7z"/>
	</g>
	<g>
		<circle class="st9" cx="125.5" cy="63.8" r="2"/>
		<path d="M125.5,66.2c-1.3,0-2.4-1.1-2.4-2.4c0-1.3,1.1-2.4,2.4-2.4c1.3,0,2.4,1.1,2.4,2.4C127.9,65.1,126.8,66.2,125.5,66.2z
			 M125.5,62.1c-0.9,0-1.7,0.8-1.7,1.7c0,0.9,0.8,1.7,1.7,1.7c0.9,0,1.7-0.8,1.7-1.7C127.2,62.9,126.4,62.1,125.5,62.1z"/>
	</g>
	<g>
		<polygon class="st8" points="109.4,56 107.4,56 107.4,54 105.7,54 105.7,56 103.7,56 103.7,57.7 105.7,57.7 105.7,59.7 
			107.4,59.7 107.4,57.7 109.4,57.7 		"/>
		<path d="M107.4,60.1h-1.7c-0.2,0-0.4-0.2-0.4-0.4v-1.6h-1.6c-0.2,0-0.4-0.2-0.4-0.4V56c0-0.2,0.2-0.4,0.4-0.4h1.6V54
			c0-0.2,0.2-0.4,0.4-0.4h1.7c0.2,0,0.4,0.2,0.4,0.4v1.6h1.6c0.2,0,0.4,0.2,0.4,0.4v1.7c0,0.2-0.2,0.4-0.4,0.4h-1.6v1.6
			C107.7,59.9,107.6,60.1,107.4,60.1z M106,59.3h1v-1.6c0-0.2,0.2-0.4,0.4-0.4h1.6v-1h-1.6c-0.2,0-0.4-0.2-0.4-0.4v-1.6h-1V56
			c0,0.2-0.2,0.4-0.4,0.4H104v1h1.6c0.2,0,0.4,0.2,0.4,0.4V59.3z"/>
	</g>
	<g>
		<circle class="st10" cx="127" cy="57.2" r="1.1"/>
		<path d="M127,58.6c-0.8,0-1.4-0.6-1.4-1.4s0.6-1.4,1.4-1.4c0.8,0,1.4,0.6,1.4,1.4S127.8,58.6,127,58.6z M127,56.5
			c-0.4,0-0.7,0.3-0.7,0.7s0.3,0.7,0.7,0.7s0.7-0.3,0.7-0.7S127.4,56.5,127,56.5z"/>
	</g>
	<g>
		<circle class="st12" cx="129.3" cy="54.7" r="1.1"/>
		<path d="M129.3,56.1c-0.8,0-1.4-0.6-1.4-1.4s0.6-1.4,1.4-1.4s1.4,0.6,1.4,1.4S130,56.1,129.3,56.1z M129.3,54
			c-0.4,0-0.7,0.3-0.7,0.7c0,0.4,0.3,0.7,0.7,0.7s0.7-0.3,0.7-0.7C130,54.3,129.7,54,129.3,54z"/>
	</g>
	<g>
		<circle class="st13" cx="129.8" cy="58.9" r="1.1"/>
		<path d="M129.8,60.3c-0.8,0-1.4-0.6-1.4-1.4c0-0.8,0.6-1.4,1.4-1.4c0.8,0,1.4,0.6,1.4,1.4C131.3,59.7,130.6,60.3,129.8,60.3z
			 M129.8,58.2c-0.4,0-0.7,0.3-0.7,0.7c0,0.4,0.3,0.7,0.7,0.7c0.4,0,0.7-0.3,0.7-0.7C130.6,58.5,130.2,58.2,129.8,58.2z"/>
	</g>
	<g>
		<circle class="st14" cx="132.1" cy="56.4" r="1.1"/>
		<path d="M132.1,57.8c-0.8,0-1.4-0.6-1.4-1.4s0.6-1.4,1.4-1.4s1.4,0.6,1.4,1.4S132.9,57.8,132.1,57.8z M132.1,55.7
			c-0.4,0-0.7,0.3-0.7,0.7s0.3,0.7,0.7,0.7s0.7-0.3,0.7-0.7S132.5,55.7,132.1,55.7z"/>
	</g>
	<g>
		<path d="M121,60.5H119c-0.2,0-0.4,0.2-0.4,0.4s0.2,0.4,0.4,0.4h1.9c0.2,0,0.4-0.2,0.4-0.4S121.1,60.5,121,60.5z"/>
		<path d="M117.1,60.5h-1.9c-0.2,0-0.4,0.2-0.4,0.4s0.2,0.4,0.4,0.4h1.9c0.2,0,0.4-0.2,0.4-0.4S117.3,60.5,117.1,60.5z"/>
	</g>
	<g>
		<polygon class="st13" points="118.1,43.3 114.3,34.8 118.1,26.2 121.9,34.8 		"/>
		<path d="M118.1,43.6c-0.1,0-0.3-0.1-0.3-0.2l-3.8-8.5c0-0.1,0-0.2,0-0.3l3.8-8.5c0.1-0.1,0.2-0.2,0.3-0.2c0.1,0,0.3,0.1,0.3,0.2
			l3.8,8.5c0,0.1,0,0.2,0,0.3l-3.8,8.5C118.3,43.6,118.2,43.6,118.1,43.6z M114.7,34.8l3.4,7.7l3.4-7.7l-3.4-7.7L114.7,34.8z"/>
	</g>
	<g>
		<path d="M121.9,35.1h-7.6c-0.2,0-0.4-0.2-0.4-0.4s0.2-0.4,0.4-0.4h7.6c0.2,0,0.4,0.2,0.4,0.4S122.1,35.1,121.9,35.1z"/>
	</g>
	<g>
		<path d="M118.1,43.6C118.1,43.6,118,43.6,118.1,43.6c-0.2,0-0.4-0.2-0.3-0.4l1-8.5l-1-8.5c0-0.2,0.1-0.4,0.3-0.4
			c0.2,0,0.4,0.1,0.4,0.3l1.1,8.5c0,0,0,0.1,0,0.1l-1.1,8.5C118.4,43.5,118.3,43.6,118.1,43.6z"/>
	</g>
	<g>
		<g>
			<path d="M121.9,49.5c0,0-0.1,0-0.1,0c-0.2-0.1-0.3-0.3-0.2-0.4l0.2-0.7c0.1-0.2,0.3-0.3,0.4-0.2c0.2,0.1,0.3,0.3,0.2,0.4
				l-0.2,0.7C122.2,49.4,122,49.5,121.9,49.5z M122.7,47.4c0,0-0.1,0-0.1,0c-0.2-0.1-0.3-0.3-0.2-0.4l0.2-0.7
				c0.1-0.2,0.3-0.3,0.4-0.2c0.2,0.1,0.3,0.3,0.2,0.4l-0.2,0.7C122.9,47.3,122.8,47.4,122.7,47.4z M123.5,45.2c0,0-0.1,0-0.1,0
				c-0.2-0.1-0.3-0.3-0.2-0.4l0.2-0.7c0.1-0.2,0.3-0.3,0.4-0.2c0.2,0.1,0.3,0.3,0.2,0.4l-0.2,0.7C123.7,45.1,123.6,45.2,123.5,45.2z
				 M124.3,43c0,0-0.1,0-0.1,0c-0.2-0.1-0.3-0.3-0.2-0.4l0.2-0.7c0.1-0.2,0.3-0.3,0.4-0.2c0.2,0.1,0.3,0.3,0.2,0.4l-0.2,0.7
				C124.5,42.9,124.4,43,124.3,43z M125,40.8c0,0-0.1,0-0.1,0c-0.2-0.1-0.3-0.3-0.2-0.4l0.2-0.7c0.1-0.2,0.3-0.3,0.4-0.2
				c0.2,0.1,0.3,0.3,0.2,0.4l-0.2,0.7C125.3,40.7,125.2,40.8,125,40.8z M125.8,38.6c0,0-0.1,0-0.1,0c-0.2-0.1-0.3-0.3-0.2-0.4
				l0.2-0.7c0.1-0.2,0.3-0.3,0.4-0.2c0.2,0.1,0.3,0.3,0.2,0.4l-0.2,0.7C126.1,38.5,126,38.6,125.8,38.6z M126.6,36.4
				c0,0-0.1,0-0.1,0c-0.2-0.1-0.3-0.3-0.2-0.4l0.2-0.5c0.1-0.2,0.3-0.3,0.4-0.2c0.2,0.1,0.3,0.3,0.2,0.4l-0.2,0.5
				C126.9,36.4,126.8,36.4,126.6,36.4z"/>
		</g>
		<g>
			<path d="M114.3,49.5c-0.1,0-0.3-0.1-0.3-0.2l-0.2-0.7c-0.1-0.2,0-0.4,0.2-0.4c0.2-0.1,0.4,0,0.4,0.2l0.2,0.7
				c0.1,0.2,0,0.4-0.2,0.4C114.4,49.5,114.3,49.5,114.3,49.5z M113.5,47.4c-0.1,0-0.3-0.1-0.3-0.2l-0.2-0.7c-0.1-0.2,0-0.4,0.2-0.4
				c0.2-0.1,0.4,0,0.4,0.2l0.2,0.7c0.1,0.2,0,0.4-0.2,0.4C113.6,47.3,113.5,47.4,113.5,47.4z M112.7,45.2c-0.1,0-0.3-0.1-0.3-0.2
				l-0.2-0.7c-0.1-0.2,0-0.4,0.2-0.4c0.2-0.1,0.4,0,0.4,0.2l0.2,0.7c0.1,0.2,0,0.4-0.2,0.4C112.8,45.2,112.7,45.2,112.7,45.2z
				 M111.9,43c-0.1,0-0.3-0.1-0.3-0.2l-0.2-0.7c-0.1-0.2,0-0.4,0.2-0.4c0.2-0.1,0.4,0,0.4,0.2l0.2,0.7c0.1,0.2,0,0.4-0.2,0.4
				C112,43,111.9,43,111.9,43z M111.1,40.8c-0.1,0-0.3-0.1-0.3-0.2l-0.2-0.7c-0.1-0.2,0-0.4,0.2-0.4c0.2-0.1,0.4,0,0.4,0.2l0.2,0.7
				c0.1,0.2,0,0.4-0.2,0.4C111.2,40.8,111.1,40.8,111.1,40.8z M110.3,38.6c-0.1,0-0.3-0.1-0.3-0.2l-0.2-0.7c-0.1-0.2,0-0.4,0.2-0.4
				c0.2-0.1,0.4,0,0.4,0.2l0.2,0.7c0.1,0.2,0,0.4-0.2,0.4C110.4,38.6,110.4,38.6,110.3,38.6z M109.5,36.4c-0.1,0-0.3-0.1-0.3-0.2
				l-0.2-0.5c-0.1-0.2,0-0.4,0.2-0.4c0.2-0.1,0.4,0,0.4,0.2l0.2,0.5c0.1,0.2,0,0.4-0.2,0.4C109.6,36.4,109.6,36.4,109.5,36.4z"/>
		</g>
	</g>
	<g>
		<g>
			<path d="M134.6,29.6c-0.2,0-0.4-0.2-0.4-0.4v-0.8c0-0.2,0.2-0.4,0.4-0.4s0.4,0.2,0.4,0.4v0.8C134.9,29.5,134.7,29.6,134.6,29.6z"
				/>
		</g>
		<g>
			<path d="M134.6,32c-0.2,0-0.4-0.2-0.4-0.4v-0.8c0-0.2,0.2-0.4,0.4-0.4s0.4,0.2,0.4,0.4v0.8C134.9,31.9,134.7,32,134.6,32z"/>
		</g>
		<g>
			<path d="M136.2,30.4h-0.8c-0.2,0-0.4-0.2-0.4-0.4s0.2-0.4,0.4-0.4h0.8c0.2,0,0.4,0.2,0.4,0.4S136.4,30.4,136.2,30.4z"/>
		</g>
		<g>
			<path d="M133.8,30.4h-0.8c-0.2,0-0.4-0.2-0.4-0.4s0.2-0.4,0.4-0.4h0.8c0.2,0,0.4,0.2,0.4,0.4S134,30.4,133.8,30.4z"/>
		</g>
	</g>
	<g>
		<g>
			<path d="M131.4,39.4c-0.1,0-0.2,0-0.2-0.1c-0.1-0.1-0.1-0.4,0-0.5l1-1c0.1-0.1,0.4-0.1,0.5,0c0.1,0.1,0.1,0.4,0,0.5l-1,1
				C131.6,39.4,131.5,39.4,131.4,39.4z"/>
		</g>
		<g>
			<path d="M129.4,41.4c-0.1,0-0.2,0-0.2-0.1c-0.1-0.1-0.1-0.4,0-0.5l1-1c0.1-0.1,0.4-0.1,0.5,0c0.1,0.1,0.1,0.4,0,0.5l-1,1
				C129.6,41.4,129.5,41.4,129.4,41.4z"/>
		</g>
		<g>
			<path d="M132.4,41.4c-0.1,0-0.2,0-0.2-0.1l-1-1c-0.1-0.1-0.1-0.4,0-0.5c0.1-0.1,0.4-0.1,0.5,0l1,1c0.1,0.1,0.1,0.4,0,0.5
				C132.6,41.4,132.5,41.4,132.4,41.4z"/>
		</g>
		<g>
			<path d="M130.4,39.4c-0.1,0-0.2,0-0.2-0.1l-1-1c-0.1-0.1-0.1-0.4,0-0.5c0.1-0.1,0.4-0.1,0.5,0l1,1c0.1,0.1,0.1,0.4,0,0.5
				C130.6,39.4,130.5,39.4,130.4,39.4z"/>
		</g>
	</g>
	<g>
		<g>
			<path d="M105.1,39.7c-0.2,0-0.4-0.2-0.4-0.4v-0.8c0-0.2,0.2-0.4,0.4-0.4s0.4,0.2,0.4,0.4v0.8C105.5,39.5,105.3,39.7,105.1,39.7z"
				/>
		</g>
		<g>
			<path d="M105.1,42c-0.2,0-0.4-0.2-0.4-0.4v-0.8c0-0.2,0.2-0.4,0.4-0.4s0.4,0.2,0.4,0.4v0.8C105.5,41.9,105.3,42,105.1,42z"/>
		</g>
		<g>
			<path d="M106.7,40.4h-0.8c-0.2,0-0.4-0.2-0.4-0.4c0-0.2,0.2-0.4,0.4-0.4h0.8c0.2,0,0.4,0.2,0.4,0.4
				C107.1,40.3,106.9,40.4,106.7,40.4z"/>
		</g>
		<g>
			<path d="M104.4,40.4h-0.8c-0.2,0-0.4-0.2-0.4-0.4c0-0.2,0.2-0.4,0.4-0.4h0.8c0.2,0,0.4,0.2,0.4,0.4
				C104.7,40.3,104.5,40.4,104.4,40.4z"/>
		</g>
	</g>
	<g>
		<g>
			<path d="M103.6,29.9c-0.1,0-0.2,0-0.2-0.1c-0.1-0.1-0.1-0.4,0-0.5l1.1-1.1c0.1-0.1,0.4-0.1,0.5,0c0.1,0.1,0.1,0.4,0,0.5l-1.1,1.1
				C103.8,29.9,103.7,29.9,103.6,29.9z"/>
		</g>
		<g>
			<path d="M101.5,32.1c-0.1,0-0.2,0-0.2-0.1c-0.1-0.1-0.1-0.4,0-0.5l1.1-1.1c0.1-0.1,0.4-0.1,0.5,0c0.1,0.1,0.1,0.4,0,0.5l-1.1,1.1
				C101.6,32.1,101.6,32.1,101.5,32.1z"/>
		</g>
		<g>
			<path d="M104.7,32.1c-0.1,0-0.2,0-0.2-0.1l-1.1-1.1c-0.1-0.1-0.1-0.4,0-0.5c0.1-0.1,0.4-0.1,0.5,0l1.1,1.1c0.1,0.1,0.1,0.4,0,0.5
				C104.9,32.1,104.8,32.1,104.7,32.1z"/>
		</g>
		<g>
			<path d="M102.5,29.9c-0.1,0-0.2,0-0.2-0.1l-1.1-1.1c-0.1-0.1-0.1-0.4,0-0.5c0.1-0.1,0.4-0.1,0.5,0l1.1,1.1c0.1,0.1,0.1,0.4,0,0.5
				C102.7,29.9,102.6,29.9,102.5,29.9z"/>
		</g>
	</g>
</g>
</svg>
